<svg xmlns="http://www.w3.org/2000/svg" xmlns:svg="http://www.w3.org/2000/svg" xmlns:xlink="http://www.w3.org/1999/xlink" width="500" height="300"><g transform="translate(80,231.75)"><line x1="1.980198" y1="0" x2="5.940594" y2="-31.04321885290194" style="stroke:#3333ff; stroke-width: 1.5" />
<line x1="5.940594" y1="-31.04321885290194" x2="9.90099" y2="-61.465573328746" style="stroke:#3333ff; stroke-width: 1.5" />
<line x1="9.90099" y1="-61.465573328746" x2="13.861386" y2="-90.3543927933" style="stroke:#3333ff; stroke-width: 1.5" />
<line x1="13.861386" y1="-90.3543927933" x2="17.821782" y2="-116.858348013" style="stroke:#3333ff; stroke-width: 1.5" />
<line x1="17.821782" y1="-116.858348013" x2="21.782178" y2="-140.23001762" style="stroke:#3333ff; stroke-width: 1.5" />
<line x1="21.782178" y1="-140.23001762" x2="25.742574" y2="-159.8622201" style="stroke:#3333ff; stroke-width: 1.5" />
<line x1="25.742574" y1="-159.8622201" x2="29.70297" y2="-175.315568" style="stroke:#3333ff; stroke-width: 1.5" />
<line x1="29.70297" y1="-175.315568" x2="33.663366" y2="-186.335404" style="stroke:#3333ff; stroke-width: 1.5" />
<line x1="33.663366" y1="-186.335404" x2="37.623762" y2="-192.857143" style="stroke:#3333ff; stroke-width: 1.5" />
<line x1="37.623762" y1="-192.857143" x2="41.584158" y2="-195" style="stroke:#3333ff; stroke-width: 1.5" />
<line x1="41.584158" y1="-195" x2="45.544554" y2="-193.05" style="stroke:#3333ff; stroke-width: 1.5" />
<line x1="45.544554" y1="-193.05" x2="49.50495" y2="-187.434" style="stroke:#3333ff; stroke-width: 1.5" />
<line x1="49.50495" y1="-187.434" x2="53.465347" y2="-178.68708" style="stroke:#3333ff; stroke-width: 1.5" />
<line x1="53.465347" y1="-178.68708" x2="57.425743" y2="-167.41604880000003" style="stroke:#3333ff; stroke-width: 1.5" />
<line x1="57.425743" y1="-167.41604880000003" x2="61.386139" y2="-154.26193068" style="stroke:#3333ff; stroke-width: 1.5" />
<line x1="61.386139" y1="-154.26193068" x2="65.346535" y2="-139.8641504832" style="stroke:#3333ff; stroke-width: 1.5" />
<line x1="65.346535" y1="-139.8641504832" x2="69.306931" y2="-124.82875430625602" style="stroke:#3333ff; stroke-width: 1.5" />
<line x1="69.306931" y1="-124.82875430625602" x2="73.267327" y2="-109.70244643149792" style="stroke:#3333ff; stroke-width: 1.5" />
<line x1="73.267327" y1="-109.70244643149792" x2="77.227723" y2="-94.95356196681875" style="stroke:#3333ff; stroke-width: 1.5" />
<line x1="77.227723" y1="-94.95356196681875" x2="81.188119" y2="-80.96040546644548" style="stroke:#3333ff; stroke-width: 1.5" />
<line x1="81.188119" y1="-80.96040546644548" x2="85.148515" y2="-68.0067405918142" style="stroke:#3333ff; stroke-width: 1.5" />
<line x1="85.148515" y1="-68.0067405918142" x2="89.108911" y2="-56.2836738802729" style="stroke:#3333ff; stroke-width: 1.5" />
<line x1="89.108911" y1="-56.2836738802729" x2="93.069307" y2="-45.89677770054981" style="stroke:#3333ff; stroke-width: 1.5" />
<line x1="93.069307" y1="-45.89677770054981" x2="97.029703" y2="-36.87706312635481" style="stroke:#3333ff; stroke-width: 1.5" />
<line x1="97.029703" y1="-36.87706312635481" x2="100.990099" y2="-29.19434164169756" style="stroke:#3333ff; stroke-width: 1.5" />
<line x1="100.990099" y1="-29.19434164169756" x2="104.950495" y2="-22.771586480524096" style="stroke:#3333ff; stroke-width: 1.5" />
<line x1="104.950495" y1="-22.771586480524096" x2="108.910891" y2="-17.49908838003352" style="stroke:#3333ff; stroke-width: 1.5" />
<line x1="108.910891" y1="-17.49908838003352" x2="112.871287" y2="-13.24745801806982" style="stroke:#3333ff; stroke-width: 1.5" />
<line x1="112.871287" y1="-13.24745801806982" x2="116.831683" y2="-9.87881869347492" style="stroke:#3333ff; stroke-width: 1.5" />
<line x1="116.831683" y1="-9.87881869347492" x2="120.792079" y2="-7.2558220058970955" style="stroke:#3333ff; stroke-width: 1.5" />
<line x1="120.792079" y1="-7.2558220058970955" x2="124.752475" y2="-5.248377917598899" style="stroke:#3333ff; stroke-width: 1.5" />
<line x1="124.752475" y1="-5.248377917598899" x2="128.712871" y2="-3.738199497438184" style="stroke:#3333ff; stroke-width: 1.5" />
<line x1="128.712871" y1="-3.738199497438184" x2="132.673267" y2="-2.6214123975785264" style="stroke:#3333ff; stroke-width: 1.5" />
<line x1="132.673267" y1="-2.6214123975785264" x2="136.633663" y2="-1.8095689217223887" style="stroke:#3333ff; stroke-width: 1.5" />
<line x1="136.633663" y1="-1.8095689217223887" x2="140.594059" y2="-1.2294424144643288" style="stroke:#3333ff; stroke-width: 1.5" />
<line x1="140.594059" y1="-1.2294424144643288" x2="144.554455" y2="-0.8219700713847226" style="stroke:#3333ff; stroke-width: 1.5" />
<line x1="144.554455" y1="-0.8219700713847226" x2="148.514851" y2="-0.5406736469552843" style="stroke:#3333ff; stroke-width: 1.5" />
<line x1="148.514851" y1="-0.5406736469552843" x2="152.475248" y2="-0.34983046238133797" style="stroke:#3333ff; stroke-width: 1.5" />
<line x1="152.475248" y1="-0.34983046238133797" x2="156.435644" y2="-0.22260264685212505" style="stroke:#3333ff; stroke-width: 1.5" />
<line x1="156.435644" y1="-0.22260264685212505" x2="160.39604" y2="-0.13926934828697055" style="stroke:#3333ff; stroke-width: 1.5" />
<line x1="160.39604" y1="-0.13926934828697055" x2="164.356436" y2="-0.08565064919648688" style="stroke:#3333ff; stroke-width: 1.5" />
<line x1="164.356436" y1="-0.08565064919648688" x2="168.316832" y2="-0.051766416758266945" style="stroke:#3333ff; stroke-width: 1.5" />
<line x1="168.316832" y1="-0.051766416758266945" x2="172.277228" y2="-0.030739391284551845" style="stroke:#3333ff; stroke-width: 1.5" />
<line x1="172.277228" y1="-0.030739391284551845" x2="176.237624" y2="-0.017928928684106053" style="stroke:#3333ff; stroke-width: 1.5" />
<line x1="176.237624" y1="-0.017928928684106053" x2="180.19802" y2="-0.01026838642816983" style="stroke:#3333ff; stroke-width: 1.5" />
<line x1="180.19802" y1="-0.01026838642816983" x2="184.158416" y2="-0.0057731150362821506" style="stroke:#3333ff; stroke-width: 1.5" />
<line x1="184.158416" y1="-0.0057731150362821506" x2="188.118812" y2="-0.003185253470018282" style="stroke:#3333ff; stroke-width: 1.5" />
<line x1="188.118812" y1="-0.003185253470018282" x2="192.079208" y2="-0.0017241031548354273" style="stroke:#3333ff; stroke-width: 1.5" />
<line x1="192.079208" y1="-0.0017241031548354273" x2="196.039604" y2="-0.000915211424691806" style="stroke:#3333ff; stroke-width: 1.5" />
<line x1="196.039604" y1="-0.000915211424691806" x2="200" y2="-0.0004762834965232868" style="stroke:#3333ff; stroke-width: 1.5" />
<line x1="200" y1="-0.0004762834965232868" x2="203.960396" y2="-0.0002429045832268763" style="stroke:#3333ff; stroke-width: 1.5" />
<line x1="203.960396" y1="-0.0002429045832268763" x2="207.920792" y2="-0.00012135703491413348" style="stroke:#3333ff; stroke-width: 1.5" />
<line x1="207.920792" y1="-0.00012135703491413348" x2="211.881188" y2="-5.937159554260683e-05" style="stroke:#3333ff; stroke-width: 1.5" />
<line x1="211.881188" y1="-5.937159554260683e-05" x2="215.841584" y2="-2.843115273342191e-05" style="stroke:#3333ff; stroke-width: 1.5" />
<line x1="215.841584" y1="-2.843115273342191e-05" x2="219.80198" y2="-1.3320521558436562e-05" style="stroke:#3333ff; stroke-width: 1.5" />
<line x1="219.80198" y1="-1.3320521558436562e-05" x2="223.762376" y2="-6.103220786774571e-06" style="stroke:#3333ff; stroke-width: 1.5" />
<line x1="223.762376" y1="-6.103220786774571e-06" x2="227.722772" y2="-2.7333710237911825e-06" style="stroke:#3333ff; stroke-width: 1.5" />
<line x1="227.722772" y1="-2.7333710237911825e-06" x2="231.683168" y2="-1.1959697076026684e-06" style="stroke:#3333ff; stroke-width: 1.5" />
<line x1="231.683168" y1="-1.1959697076026684e-06" x2="235.643564" y2="-5.109677474895538e-07" style="stroke:#3333ff; stroke-width: 1.5" />
<line x1="235.643564" y1="-5.109677474895538e-07" x2="239.60396" y2="-2.1304756929225462e-07" style="stroke:#3333ff; stroke-width: 1.5" />
<line x1="239.60396" y1="-2.1304756929225462e-07" x2="243.564356" y2="-8.663934484551687e-08" style="stroke:#3333ff; stroke-width: 1.5" />
<line x1="243.564356" y1="-8.663934484551687e-08" x2="247.524752" y2="-3.434326816991145e-08" style="stroke:#3333ff; stroke-width: 1.5" />
<line x1="247.524752" y1="-3.434326816991145e-08" x2="251.485149" y2="-1.3260932903027098e-08" style="stroke:#3333ff; stroke-width: 1.5" />
<line x1="251.485149" y1="-1.3260932903027098e-08" x2="255.445545" y2="-4.984426843550503e-09" style="stroke:#3333ff; stroke-width: 1.5" />
<line x1="255.445545" y1="-4.984426843550503e-09" x2="259.405941" y2="-1.8224310646731526e-09" style="stroke:#3333ff; stroke-width: 1.5" />
<line x1="259.405941" y1="-1.8224310646731526e-09" x2="263.366337" y2="-6.476639629838435e-10" style="stroke:#3333ff; stroke-width: 1.5" />
<line x1="263.366337" y1="-6.476639629838435e-10" x2="267.326733" y2="-2.2354219813290838e-10" style="stroke:#3333ff; stroke-width: 1.5" />
<line x1="267.326733" y1="-2.2354219813290838e-10" x2="271.287129" y2="-7.48699541209323e-11" style="stroke:#3333ff; stroke-width: 1.5" />
<line x1="271.287129" y1="-7.48699541209323e-11" x2="275.247525" y2="-2.431071451456155e-11" style="stroke:#3333ff; stroke-width: 1.5" />
<line x1="275.247525" y1="-2.431071451456155e-11" x2="279.207921" y2="-7.645543550231674e-12" style="stroke:#3333ff; stroke-width: 1.5" />
<line x1="279.207921" y1="-7.645543550231674e-12" x2="283.168317" y2="-2.326429680284781e-12" style="stroke:#3333ff; stroke-width: 1.5" />
<line x1="283.168317" y1="-2.326429680284781e-12" x2="287.128713" y2="-6.841669256950173e-13" style="stroke:#3333ff; stroke-width: 1.5" />
<line x1="287.128713" y1="-6.841669256950173e-13" x2="291.089109" y2="-1.942273883500855e-13" style="stroke:#3333ff; stroke-width: 1.5" />
<line x1="291.089109" y1="-1.942273883500855e-13" x2="295.049505" y2="-5.315977012650286e-14" style="stroke:#3333ff; stroke-width: 1.5" />
<line x1="295.049505" y1="-5.315977012650286e-14" x2="299.009901" y2="-1.4008317803605484e-14" style="stroke:#3333ff; stroke-width: 1.5" />
<line x1="299.009901" y1="-1.4008317803605484e-14" x2="302.970297" y2="-3.5487738435800555e-15" style="stroke:#3333ff; stroke-width: 1.5" />
<line x1="302.970297" y1="-3.5487738435800555e-15" x2="306.930693" y2="-8.629123767020978e-16" style="stroke:#3333ff; stroke-width: 1.5" />
<line x1="306.930693" y1="-8.629123767020978e-16" x2="310.891089" y2="-2.010473771173459e-16" style="stroke:#3333ff; stroke-width: 1.5" />
<line x1="310.891089" y1="-2.010473771173459e-16" x2="314.851485" y2="-4.479747967050605e-17" style="stroke:#3333ff; stroke-width: 1.5" />
<line x1="314.851485" y1="-4.479747967050605e-17" x2="318.811881" y2="-9.52655263879116e-18" style="stroke:#3333ff; stroke-width: 1.5" />
<line x1="318.811881" y1="-9.52655263879116e-18" x2="322.772277" y2="-1.9291269093552104e-18" style="stroke:#3333ff; stroke-width: 1.5" />
<line x1="322.772277" y1="-1.9291269093552104e-18" x2="326.732673" y2="-3.7105922528091575e-19" style="stroke:#3333ff; stroke-width: 1.5" />
<line x1="326.732673" y1="-3.7105922528091575e-19" x2="330.693069" y2="-6.760518080118148e-20" style="stroke:#3333ff; stroke-width: 1.5" />
<line x1="330.693069" y1="-6.760518080118148e-20" x2="334.653465" y2="-1.1631349178805682e-20" style="stroke:#3333ff; stroke-width: 1.5" />
<line x1="334.653465" y1="-1.1631349178805682e-20" x2="338.613861" y2="-1.8831708194256816e-21" style="stroke:#3333ff; stroke-width: 1.5" />
<line x1="338.613861" y1="-1.8831708194256816e-21" x2="342.574257" y2="-2.857988655363681e-22" style="stroke:#3333ff; stroke-width: 1.5" />
<line x1="342.574257" y1="-2.857988655363681e-22" x2="346.534653" y2="-4.047709514224377e-23" style="stroke:#3333ff; stroke-width: 1.5" />
<line x1="346.534653" y1="-4.047709514224377e-23" x2="350.49505" y2="-5.3225053842214794e-24" style="stroke:#3333ff; stroke-width: 1.5" />
<line x1="350.49505" y1="-5.3225053842214794e-24" x2="354.455446" y2="-6.459586079941523e-25" style="stroke:#3333ff; stroke-width: 1.5" />
<line x1="354.455446" y1="-6.459586079941523e-25" x2="358.415842" y2="-7.185382268698999e-26" style="stroke:#3333ff; stroke-width: 1.5" />
<line x1="358.415842" y1="-7.185382268698999e-26" x2="362.376238" y2="-7.265219849462321e-27" style="stroke:#3333ff; stroke-width: 1.5" />
<line x1="362.376238" y1="-7.265219849462321e-27" x2="366.336634" y2="-6.610551687203078e-28" style="stroke:#3333ff; stroke-width: 1.5" />
<line x1="366.336634" y1="-6.610551687203078e-28" x2="370.29703" y2="-5.345924407912055e-29" style="stroke:#3333ff; stroke-width: 1.5" />
<line x1="370.29703" y1="-5.345924407912055e-29" x2="374.257426" y2="-3.782385226243153e-30" style="stroke:#3333ff; stroke-width: 1.5" />
<line x1="374.257426" y1="-3.782385226243153e-30" x2="378.217822" y2="-2.2935740201687203e-31" style="stroke:#3333ff; stroke-width: 1.5" />
<line x1="378.217822" y1="-2.2935740201687203e-31" x2="382.178218" y2="-1.1588584522957743e-32" style="stroke:#3333ff; stroke-width: 1.5" />
<line x1="382.178218" y1="-1.1588584522957743e-32" x2="386.138614" y2="-4.683719578028755e-34" style="stroke:#3333ff; stroke-width: 1.5" />
<line x1="386.138614" y1="-4.683719578028755e-34" x2="390.09901" y2="-1.4196016040623236e-35" style="stroke:#3333ff; stroke-width: 1.5" />
<line x1="390.09901" y1="-1.4196016040623236e-35" x2="394.059406" y2="-2.868174669432042e-37" style="stroke:#3333ff; stroke-width: 1.5" />
<line x1="394.059406" y1="-2.868174669432042e-37" x2="398.019802" y2="-2.8971461307394362e-39" style="stroke:#3333ff; stroke-width: 1.5" />
<text transform="rotate(-90)" y="1.584158" x="-5.25" font-size="12" dominant-baseline="middle" text-anchor="end">0</text>
<text transform="rotate(-90)" y="21.386139" x="-5.25" font-size="12" dominant-baseline="middle" text-anchor="end">5</text>
<text transform="rotate(-90)" y="41.188119" x="-5.25" font-size="12" dominant-baseline="middle" text-anchor="end">10</text>
<text transform="rotate(-90)" y="60.990099" x="-5.25" font-size="12" dominant-baseline="middle" text-anchor="end">15</text>
<text transform="rotate(-90)" y="80.792079" x="-5.25" font-size="12" dominant-baseline="middle" text-anchor="end">20</text>
<text transform="rotate(-90)" y="100.594059" x="-5.25" font-size="12" dominant-baseline="middle" text-anchor="end">25</text>
<text transform="rotate(-90)" y="120.39604" x="-5.25" font-size="12" dominant-baseline="middle" text-anchor="end">30</text>
<text transform="rotate(-90)" y="140.19802" x="-5.25" font-size="12" dominant-baseline="middle" text-anchor="end">35</text>
<text transform="rotate(-90)" y="160" x="-5.25" font-size="12" dominant-baseline="middle" text-anchor="end">40</text>
<text transform="rotate(-90)" y="179.80198" x="-5.25" font-size="12" dominant-baseline="middle" text-anchor="end">45</text>
<text transform="rotate(-90)" y="199.60396" x="-5.25" font-size="12" dominant-baseline="middle" text-anchor="end">50</text>
<text transform="rotate(-90)" y="219.405941" x="-5.25" font-size="12" dominant-baseline="middle" text-anchor="end">55</text>
<text transform="rotate(-90)" y="239.207921" x="-5.25" font-size="12" dominant-baseline="middle" text-anchor="end">60</text>
<text transform="rotate(-90)" y="259.009901" x="-5.25" font-size="12" dominant-baseline="middle" text-anchor="end">65</text>
<text transform="rotate(-90)" y="278.811881" x="-5.25" font-size="12" dominant-baseline="middle" text-anchor="end">70</text>
<text transform="rotate(-90)" y="298.613861" x="-5.25" font-size="12" dominant-baseline="middle" text-anchor="end">75</text>
<text transform="rotate(-90)" y="318.415842" x="-5.25" font-size="12" dominant-baseline="middle" text-anchor="end">80</text>
<text transform="rotate(-90)" y="338.217822" x="-5.25" font-size="12" dominant-baseline="middle" text-anchor="end">85</text>
<text transform="rotate(-90)" y="358.019802" x="-5.25" font-size="12" dominant-baseline="middle" text-anchor="end">90</text>
<text transform="rotate(-90)" y="377.821782" x="-5.25" font-size="12" dominant-baseline="middle" text-anchor="end">95</text>
<text transform="rotate(-90)" y="397.623762" x="-5.25" font-size="12" dominant-baseline="middle" text-anchor="end">100</text>
<line x1="-2.625" x2="2.625" y1="0" y2="0" style="stroke:black; stroke-width: 1" />
<text x="-7.875" y="0" font-size="12" text-anchor="end" dominant-baseline="middle">0</text>
<line x1="-2.625" x2="2.625" y1="-15.52160942645097" y2="-15.52160942645097" style="stroke:black; stroke-width: 1" />
<text x="-7.875" y="-15.52160942645097" font-size="12" text-anchor="end" dominant-baseline="middle">0.5</text>
<line x1="-2.625" x2="2.625" y1="-31.04321885290194" y2="-31.04321885290194" style="stroke:black; stroke-width: 1" />
<text x="-7.875" y="-31.04321885290194" font-size="12" text-anchor="end" dominant-baseline="middle">1</text>
<line x1="-2.625" x2="2.625" y1="-46.5648282793529" y2="-46.5648282793529" style="stroke:black; stroke-width: 1" />
<text x="-7.875" y="-46.5648282793529" font-size="12" text-anchor="end" dominant-baseline="middle">1.5</text>
<line x1="-2.625" x2="2.625" y1="-62.08643770580387" y2="-62.08643770580387" style="stroke:black; stroke-width: 1" />
<text x="-7.875" y="-62.08643770580387" font-size="12" text-anchor="end" dominant-baseline="middle">2</text>
<line x1="-2.625" x2="2.625" y1="-77.60804713225484" y2="-77.60804713225484" style="stroke:black; stroke-width: 1" />
<text x="-7.875" y="-77.60804713225484" font-size="12" text-anchor="end" dominant-baseline="middle">2.5</text>
<line x1="-2.625" x2="2.625" y1="-93.12965655870581" y2="-93.12965655870581" style="stroke:black; stroke-width: 1" />
<text x="-7.875" y="-93.12965655870581" font-size="12" text-anchor="end" dominant-baseline="middle">3</text>
<line x1="-2.625" x2="2.625" y1="-108.6512659851568" y2="-108.6512659851568" style="stroke:black; stroke-width: 1" />
<text x="-7.875" y="-108.6512659851568" font-size="12" text-anchor="end" dominant-baseline="middle">3.5</text>
<line x1="-2.625" x2="2.625" y1="-124.17287541160774" y2="-124.17287541160774" style="stroke:black; stroke-width: 1" />
<text x="-7.875" y="-124.17287541160774" font-size="12" text-anchor="end" dominant-baseline="middle">4</text>
<line x1="-2.625" x2="2.625" y1="-139.6944848380587" y2="-139.6944848380587" style="stroke:black; stroke-width: 1" />
<text x="-7.875" y="-139.6944848380587" font-size="12" text-anchor="end" dominant-baseline="middle">4.5</text>
<line x1="-2.625" x2="2.625" y1="-155.21609426450968" y2="-155.21609426450968" style="stroke:black; stroke-width: 1" />
<text x="-7.875" y="-155.21609426450968" font-size="12" text-anchor="end" dominant-baseline="middle">5</text>
<line x1="-2.625" x2="2.625" y1="-170.7377036909606" y2="-170.7377036909606" style="stroke:black; stroke-width: 1" />
<text x="-7.875" y="-170.7377036909606" font-size="12" text-anchor="end" dominant-baseline="middle">5.5</text>
<line x1="-2.625" x2="2.625" y1="-186.25931311741161" y2="-186.25931311741161" style="stroke:black; stroke-width: 1" />
<text x="-7.875" y="-186.25931311741161" font-size="12" text-anchor="end" dominant-baseline="middle">6</text>
<line x1="0" y1="0" x2="400" y2="0" style="stroke:black; stroke-width: 2" />
<line x1="0" y1="0" x2="0" y2="-195" style="stroke:black; stroke-width: 2" />
<text x="250" y="-205.5" text-anchor="middle">Percentage shares of the pie</text>
</g>
</svg>
