<svg xmlns="http://www.w3.org/2000/svg" xmlns:svg="http://www.w3.org/2000/svg" xmlns:xlink="http://www.w3.org/1999/xlink" width="100%" height="100%"><rect width="100%" height="100%" style="fill:white;" /><polyline points="0 0,0 1,1 2,3 2,5 1,7 -1,7 -4,6 -7,4 -10,0 -10,-4 -9,-7 -6,-9 -2,-9 3,-8 8,-6 13,-2 17,3 20,9 20,15 19,21 17,26 13,29 7,29 0,28 -7,24 -13,17 -15,10 -12,4 -7,4 1,5 9,7 17,13 23,21 26,28 21,32 13,32 4,31 -5,29 -14,24 -22,15 -25,6 -21,-1 -14,-7 -6,-8 4,-6 14,-1 23,9 26,17 19,21 9,15 0,4 0,-7 1,-18 3,-26 11,-33 20,-39 30,-43 41,-43 53,-42 65,-37 76,-25 78,-15 71,-12 59,-18 48,-30 44,-39 53,-47 63,-52 75,-53 88,-51 101,-48 114,-42 126,-33 136,-22 144,-10 151,3 156,17 156,31 155,45 153,56 144,62 131,54 119,40 115,27 122,16 132,7 144,6 159,8 174,14 188,22 201,37 204,52 200,63 189,73 177,80 163,85 148,85 132,84 116,82 100,76 85,65 73,52 63,36 59,21 66,7 75,2 91,14 103,29 111,46 112,62 106,64 89,54 75,37 72,20 76,5 85,-8 97,-13 114,-2 128,14 136,32 136,50 135,68 133,86 130,102 121,115 108,127 94,138 79,143 61,135 44,125 28,107 22,88 22,69 23,50 25,35 37,26 54,19 72,15 91,20 110,28 128,38 145,52 159,67 172,86 178,106 178,126 177,146 175,164 166,167 146,160 127,140 123,125 137,115 155,107 174,119 191,139 197,160 197,181 196,202 194,222 187,237 172,251 156,255 135,242 118,223 108,203 100,182 95,164 107,158 128,167 148,178 167,200 167,222 166,244 164,265 157,283 144,293 124,301 103,306 81,290 65,273 50,255 36,235 25,214 16,191 16,168 17,145 19,122 22,101 32,81 44,64 60,56 82,71 100,94 105,113 91,124 70,133 48,120 28,96 28,72 29,49 36,31 52,21 74,18 98,33 117,57 121,80 113,100 99,105 75,94 53,81 32,57 26,39 43,23 62,8 82,7 107,19 129,42 139,67 142,88 128,96 104,100 79,82 61,63 44,41 31,21 47,12 71,6 96,21 117,44 129,69 136,95 136,121 135,147 133,173 130,198 122,202 96,191 72,178 49,152 44,127 53,105 68,99 94,111 118,130 137,150 155,173 169,200 169,227 168,254 166,281 163,307 155,331 142,342 117,347 90,338 64,319 44,298 26,273 14,249 28,227 45,217 71,210 98,210 126,211 154,213 182,216 210,229 235,255 246,283 250,307 235,328 216,346 194,351 166,342 139,325 116,299 104,274 118,264 145,280 169,308 176,337 176,366 175,395 173,423 165,450 154,473 136,477 107,468 79,439 74,413 88,401 115,395 144,411 169,432 190,454 210,477 229,504 242,534 242,564 241,594 239,623 231,626 201,609 176,579 172,550 181,523 195,511 223,531 246,557 262,587 268,611 249,621 220,628 190,615 162,600 135,569 135,538 136,508 144,482 161,460 183,439 206,419 230,415 261,429 289,459 298,488 286,513 267,519 236,509 206,494 178,465 165,442 187,421 211,404 238,393 268,393 300,394 332,396 364,399 396,413 425,429 453,460 462,490 450,495 418,477 391,454 368,430 346,399 336,370 351,357 381,350 413,370 439,401 450,433 458,466 458,499 457,532 455,562 441,591 425,594 392,590 359,572 331,550 306,517 301,491 322,481 354,475 387,495 414,524 431,557 438,589 427,613 403,621 370,598 345,568 329,537 315,503 313,469 316,437 328,410 349,406 383,411 417,431 445,462 460,495 470,529 476,561 463,586 439,605 410,612 376,601 343,579 316,548 300,516 286,486 304,458 325,457 360,459 395,471 428,506 431,540 422,569 402,584 370,589 335,565 309,531 299,498 312,468 331,440 353,433 388,444 422,460 454,481 483,512 501,547 509,583 509,619 508,655 506,681 481,705 454,714 419,718 383,701 351,668 336,632 331,601 350,572 372,566 408,587 438,620 454,655 465,687 447,713 421,738 394,762 366,782 335,794 300,795 263,793 226,784 190,767 157,733 142,703 164,684 196,671 231,661 267,682 298,708 325,736 350,770 366,803 348,832 324,839 287,825 252,805 220,782 190,745 182,709 194,709 232,710 270,712 308,721 345,759 348,786 321,812 293,833 261,808 232,771 222,741 246,723 280,707 315,727 348,750 379,786 393,824 400,862 392,899 380,934 363,968 344,983 308,984 269,982 230,979 191,975 152,962 115,924 105,885 100,850 118,834 154,857 186,891 206,930 212,968 201,996 173,1023 144,1045 111,1019 81,983 64,948 83,936 121,951 158,972 192,996 224,1036 225,1075 216,1077 176,1074 136,1061 98,1021 94,988 117,970 153,960 192,955 232,982 262,1022 268,1053 242,1075 208,1086 169,1093 129,1074 93,1037 76,997 68,958 80,923 101,908 139,899 179,898 220,926 250,960 273,999 286,1036 268,1072 248,1076 207,1066 167,1025 162,990 184,957 209,943 248,932 288,925 329,949 363,987 380,1023 359,1053 330,1065 290,1073 249,1058 210,1031 178,996 155,955 146,913 146,871 147,829 149,789 162,786 204,802 243,824 279,849 313,891 318,931 304,961 274,985 239,996 198,977 160,949 128,912 107,870 100,837 127,814 163,806 205,832 239,870 259,909 277,952 277,995 276,1038 274,1078 258,1081 215,1051 184,1009 174,966 170,930 194,897 222,892 265,906 306,925 345,946 383,986 400,1029 407,1064 381,1079 340,1091 298,1099 255,1079 216,1048 185,1016 155,978 133,935 124,893 137,893 181,894 225,896 269,899 313,909 356,953 360,988 333,1002 291,1007 247,986 208,945 191,901 185,863 208,831 239,801 272,789 315,814 352,843 386,883 406,924 424,959 396,968 352,955 309,939 267,912 231,867 230,822 232,777 235,733 245,693 266,674 307,660 350,692 382,725 413,767 430,801 400,812 356,818 311,789 276,751 251,708 236,664 224,623 244,583 266,565 308,557 353,581 392,608 429,651 445,696 454,729 422,729 376,728 330,726 284,705 243,675 208,635 185,591 171,555 200,538 243,533 289,544 334,590 340,627 312,642 268,622 226,600 185,555 173,512 191,472 215,439 248,407 282,376 317,360 361,347 406,377 442,416 468,458 489,505 489,552 488,599 486,645 476,648 429,634 384,617 340,589 302,542 297,496 308,462 341,440 383,420 426,405 471,429 512,476 519,522 507,559 477,567 430,541 390,496 374,450 361,403 352,361 375,342 419,342 467,343 515,368 556,416 558,463 548,509 534,512 486,495 441,463 405,423 378,376 367,333 389,313 433,307 481,322 527,352 565,397 583,444 595,485 569,524 540,532 492,516 446,495 402,472 359,438 324,398 296,350 287,305 306,263 331,226 363,226 412,227 461,237 509,251 556,278 597,327 601,371 579,410 549,434 506,439 457,424 410,375 404,329 422,289 451,277 499,270 548,304 584,341 617,382 645,427 666,465 634,478 586,453 543,407 524,358 515,316 542,299 589,285 637,275 686,273 736,276 786,300 830,346 850,382 815,411 774,437 731,452 683,434 636,384 630,335 642,293 670,286 720,309 765,355 786,403 802,447 777,455 727,442 678,415 635,385 594,349 558,301 541,264 576,250 625,240 675,240 726,241 777,243 828,263 875,296 914,340 940,391 944,441 933,481 901,496 852,478 804,450 761,399 755,358 786,346 836,369 882,394 927,443 943,485 913,522 877,557 839,591 800,600 749,567 709,524 680,478 656,431 634,381 620,330 610,278 610,226 611,174 613,122 616,70 620,19 631,-31 646,-36 698,-13 745,23 783,69 808,117 829,156 794,186 751,193 699,166 654,132 614,83 595,31 587,-20 600,-64 629,-88 676,-110 724,-127 774,-101 820,-50 834,-1 814,9 762,9 709,8 656,6 603,-30 564,-83 561,-133 579,-173 614,-188 665,-165 713,-140 760,-110 804,-76 845,-27 866,26 872,78 860,120 827,136 776,143 723,124 673,95 628,63 585,15 561,-34 539,-72 577,-109 616,-145 656,-176 700,-204 746,-169 787,-116 797,-62 797,-8 796,46 794,100 791,152 776,201 753,205 699,178 652,128 631,74 625,21 637,-25 666,-69 698,-88 749,-95 803,-58 843,-17 879,36 892,90 900,140 878,185 847,227 812,255 765,264 711,244 660,210 617,164 587,109 587,54 588,2 606,-48 629,-96 656,-111 709,-122 763,-126 818,-105 869,-67 909,-22 941,25 970,79 982,134 988,187 972,230 937,254 887,228 838,177 816,129 844,121 899,155 943,208 960,260 940,269 885,239 838,185 824,140 857,100 896,62 937,35 986,17 1039,17 1095,18 1151,20 1207,35 1261,56 1313,111 1324,167 1328,223 1323,278 1311,331 1292,347 1238,321 1188,270 1164,225 1198,197 1247,175 1299,162 1354,154 1410,193 1451,241 1481,295 1498,337 1460,357 1407,366 1351,329 1308,274 1294,223 1319,173 1346,129 1382,97 1429,87 1485,105 1539,134 1588,191 1588,248 1587,305 1585,361 1574,364 1517,360 1460,326 1414,269 1409,215 1428,163 1452,122 1492,94 1542,88 1599,110 1652,143 1699,192 1729,248 1742,305 1750,360 1733,414 1713,459 1677,491 1629,516 1577,525 1520,511 1464,488 1411,459 1361,404 1343,350 1364,335 1420,366 1469,406 1511,453 1545,511 1547,568 1536,571 1478,567 1420,543 1367,488 1348,430 1343,374 1359,326 1392,281 1429,251 1479,287 1525,345 1532,402 1519,458 1502,466 1444,439 1392,404 1345,353 1316,299 1293,256 1333,217 1377,183 1425,152 1475,142 1533,163 1588,201 1633,258 1648,317 1648,376 1647,435 1645,487 1617,536 1584,560 1530,579 1474,549 1423,513 1376,454 1371,396 1383,341 1405,335 1464,367 1514,409 1556,457 1591,516 1598,574 1585,630 1565,683 1538,708 1484,716 1425,677 1380,622 1357,573 1391,527 1429,496 1480,478 1537,499 1593,536 1640,595 1650,653 1635,707 1609,760 1581,808 1545,832 1490,843 1431,845 1371,842 1311,823 1254,781 1211,721 1207,677 1248,655 1304,643 1363,678 1412,738 1418,784 1379,811 1325,831 1268,844 1209,827 1151,793 1101,733 1093,677 1116,629 1153,615 1212,606 1272,624 1330,645 1387,681 1436,724 1479,768 1521,823 1547,882 1562,935 1532,959 1476,919 1430,859 1419,798 1418,737 1420,685 1452,638 1491,616 1548,600 1607,588 1667,583 1728,621 1776,676 1803,737 1809,793 1784,813 1726,826 1666,833 1605,810 1548,767 1504,722 1462,670 1429,610 1415,564 1456,555 1517,573 1576,601 1631,657 1657,711 1627,721 1566,706 1506,671 1455,618 1423,559 1404,497 1404,435 1405,373 1407,311 1410,251 1426,199 1460,172 1516,201 1571,238 1621,282 1665,327 1708,381 1739,443 1745,502 1725,519 1665,532 1604,539 1542,503 1491,450 1458,402 1498,394 1560,408 1621,436 1677,475 1726,535 1744,597 1753,649 1718,681 1664,691 1602,676 1541,657 1481,635 1422,572 1422,509 1423,446 1425,385 1441,328 1468,280 1509,249 1564,237 1626,262 1684,325 1689,385 1669,434 1629,467 1575,490 1516,503 1454,510 1391,471 1341,414 1313,361 1348,331 1404,305 1462,284 1522,266 1583,298 1638,343 1683,389 1727,448 1751,495 1708,537 1660,552 1598,518 1544,481 1492,440 1443,380 1421,317 1410,259 1437,259 1501,260 1565,262 1629,265 1693,290 1752,354 1756,417 1744,472 1711,492 1650,453 1599,393 1576,329 1570,267 1587,254 1650,289 1704,333 1751,385 1789,442 1819,490 1776,516 1717,524 1653,503 1592,461 1543,399 1525,339 1549,330 1613,367 1666,408 1716,471 1731,535 1741,586 1701,615 1643,642 1584,606 1530,542 1519,477 1519,412 1520,347 1522,301 1568,256 1615,212 1663,208 1728,228 1790,251 1851,289 1904,352 1921,417 1927,475 1897,503 1838,471 1781,406 1774,346 1800,295 1841,258 1895,250 1960,264 2024,282 2087,306 2148,346 2200,411 2209,475 2194,534 2165,592 2134,614 2072,587 2012,548 1959,504 1910,447 1877,386 1852,336 1895,320 1959,320 2025,321 2091,323 2157,358 2213,400 2264,463 2284,529 2288,591 2265,650 2235,678 2175,695 2111,663 2053,597 2047,532 2060,471 2086,414 2120,361 2160,340 2223,387 2270,435 2316,500 2330,549 2285,585 2229,541 2179,487 2140,427 2111,368 2142,317 2185,284 2243,274 2309,293 2373,335 2425,390 2463,447 2498,513 2509,578 2493,578 2426,577 2359,575 2292,555 2228,532 2165,502 2105,470 2046,423 1998,358 1981,304 2021,255 2067,221 2125,208 2191,229 2255,296 2262,359 2238,414 2199,432 2134,446 2068,454 2001,423 1941,362 1912,295 1903,233 1930,177 1968,162 2034,181 2099,216 2157,279 2182,333 2141,381 2093,428 2044,444 1978,398 1928,341 1891,280 1861,212 1861,144 1862,93 1907,65 1969,53 2036,87 2095,131 2147,194 2173,262 2178,318 2139,371 2096,407 2038,428 1973,404 1909,336 1902,270 1920,209 1951,180 2013,172 2081,205 2141,243 2198,306 2225,374 2234,433 2199,483 2152,498 2085,479 2019,454 1955,386 1945,334 1990,297 2048,337 2104,399 2134,466 2150,529 2122,552 2057,572 1991,572 1922,571 1853,569 1784,557 1716,518 1659,454 1633,385 1629,318 1646,313 1715,355 1770,423 1783,492 1789,557 1765,606 1716,654 1666,685 1604,647 1546,600 1495,533 1477,477 1518,425 1564,390 1624,435 1677,501 1699,570 1708,638 1693,705 1674,759 1630,769 1561,737 1499,674 1469,619 1512,585 1573,557 1637,546 1706,569 1772,636 1792,696 1756,752 1714,802 1665,804 1595,792 1526,722 1523,654 1540,650 1610,655 1680,668 1749,692 1815,725 1877,795 1883,859 1854,913 1809,948 1748,966 1680,973 1610,946 1545,877 1531,822 1575,782 1633,745 1693,723 1760,714 1830,733 1898,802 1913,865 1881,895 1817,905 1747,866 1688,818 1636,753 1608,696 1650,660 1711,637 1778,626 1848,646 1916,672 1982,743 1982,814 1981,884 1969,942 1928,997 1883,1028 1819,995 1756,928 1732,857 1727,787 1740,731 1784,725 1855,765 1914,831 1941,902 1948,972 1934,1029 1891,1080 1841,1129 1789,1151 1721,1103 1668,1036 1643,972 1675,912 1714,893 1783,878 1853,920 1911,982 1947,1053 1957,1121 1934,1137 1864,1117 1795,1076 1736,1015 1698,943 1698,871 1699,806 1730,804 1802,821 1872,893 1875,956 1840,985 1774,1009 1706,1030 1637,980 1585,908 1580,837 1593,775 1630,748 1697,742 1769,760 1839,832 1846,887 1799,901 1728,862 1667,820 1608,748 1600,680 1625,616 1659,586 1725,567 1795,558 1867,573 1938,601 2005,646 2062,706 2103,778 2113,840 2075,863 2006,879 1935,859 1865,808 1813,755 1763,690 1730,624 1699,560 1734,548 1806,548 1879,549 1952,551 2025,575 2094,612 2157,682 2178,755 2182,827 2169,832 2096,790 2036,744 1979,671 1972,599 1986,534 2020,512 2090,537 2159,567 2226,603 2290,676 2298,747 2279,815 2251,830 2179,839 2106,801 2043,751 1989,692 1945,637 1994,614 2064,640 2133,688 2189,759 2209,821 2169,854 2103,811 2043,746 2008,689 2055,652 2119,635 2191,635 2265,636 2339,638 2413,659 2484,701 2545,764 2584,838 2588,911 2575,916 2501,871 2442,799 2424,725 2418,658 2450,604 2501,568 2566,538 2634,513 2704,557 2764,606 2820,670 2858,739 2886,796 2838,811 2765,820 2691,780 2628,737 2567,690 2509,620 2483,553 2516,487 2551,467 2623,451 2696,488 2761,534 2820,603 2849,665 2807,704 2743,721 2670,733 2596,733 2521,732 2446,730 2371,727 2296,677 2240,602 2236,528 2249,460 2281,397 2322,361 2388,343 2461,387 2522,456 2552,527 2577,599 2599,664 2561,678 2487,685 2412,657 2342,582 2334,509 2353,447 2396,407 2460,392 2534,383 2609,406 2681,441 2748,487 2808,558 2834,627 2803,693 2766,748 2714,764 2640,722 2577,671 2521,601 2492,526 2481,469 2531,445 2603,428 2677,416 2752,437 2825,513 2825,589 2824,665 2822,741 2819,817 2815,892 2802,966 2784,971 2708,946 2636,870 2630,797 2652,734 2695,720 2770,713 2846,767 2900,822 2953,883 2999,959 3007,1027 2972,1084 2921,1093 2845,1070 2772,1044 2700,1013 2630,963 2572,901 2527,827 2507,761 2546,745 2621,774 2692,850 2703,910 2655,954 2592,995 2527,1022 2455,1039 2380,1018 2306,982 2238,912 2206,835 2206,758 2207,681 2209,604 2212,533 2242,469 2285,451 2360,503 2417,576 2442,642 2402,704 2356,762 2305,790 2233,804 2157,811 2080,761 2021,692 1986,622 1953,545 1945,482 1990,422 2039,391 2110,365 2183,356 2260,376 2335,453 2345,529 2329,595 2288,650 2233,704 2177,751 2115,785 2045,749 1976,696 1919,625 1887,550 1866,482 1904,470 1981,513 2046,564 2105,636 2135,714 2136,792 2134,859 2094,862 2016,849 1939,831 1863,806 1789,731 1767,658 1795,592 1837,528 1882,467 1931,432 2001,399 2072,392 2150,411 2226,442 2298,490 2360,564 2386,639 2409,704 2365,761 2311,802 2244,749 2186,673 2166,610 2213,600 2291,616 2368,652 2438,723 2472,798 2496,876 2507,948 2475,1012 2429,1033 2353,1050 2276,1000 2215,932 2175,854 2163,781 2193,781 2272,782 2351,784 2430,787 2509,800 2587,879 2591,955 2569,1026 2534,1096 2497,1152 2441,1200 2378,1145 2321,1066 2315,988 2329,919 2368,860 2421,816 2487,790 2562,842 2622,906 2669,984 2684,1058 2655,1119 2604,1139 2527,1103 2456,1060 2389,988 2355,909 2345,839 2383,815 2459,847 2532,922 2559,991 2519,1002 2440,981 2363,903 2346,829 2376,763 2421,706 2477,664 2545,719 2603,778 2657,842 2705,918 2730,998 2732,1076 2714,1151 2686,1222 2649,1244 2572,1248 2492,1215 2419,1176 2349,1132 2282,1085 2217,1005 2211,926 2225,857 2266,795 2317,788 2397,814 2473,891 2496,971 2504,1050 2489,1113 2439,1159 2373,1202 2305,1238 2233,1247 2153,1227 2075,1193 2002,1144 1938,1087 1881,1029 1825,953 1798,894 1853,849 1920,903 1980,983 1991,1061 1970,1126 1922,1187 1869,1199 1789,1147 1727,1075 1690,1002 1655,926 1627,845 1627,764 1628,683 1630,605 1652,592 1732,589 1813,593 1894,634 1964,709 1995,789 2009,870 2015,949 1996,1026 1970,1095 1927,1153 1870,1209 1811,1264 1751,1313 1686,1351 1614,1385 1540,1331 1479,1260 1439,1179 1430,1104 1462,1042 1515,1026 1595,1053 1672,1101 1738,1182 1748,1252 1706,1315 1654,1345 1578,1366 1499,1383 1419,1339 1350,1292 1283,1218 1248,1137 1236,1059 1261,982 1289,907 1322,836 1363,818 1443,817 1525,819 1607,832 1688,914 1691,974 1635,1005 1559,1009 1477,954 1416,884 1373,803 1359,721 1353,641 1372,562 1395,488 1431,415 1469,352 1522,318 1597,358 1669,403 1738,485 1746,552 1698,616 1646,658 1575,685 1497,709 1418,719 1336,668 1271,591 1241,523 1288,479 1358,458 1438,447 1520,504 1580,577 1619,643 1569,704 1513,745 1441,770 1362,782 1280,727 1218,658 1172,578 1150,497 1132,414 1132,331 1133,248 1135,165 1138,82 1142,-1 1147,-80 1173,-154 1211,-190 1286,-209 1367,-215 1450,-167 1518,-115 1583,-39 1617,44 1624,116 1582,131 1500,139 1417,88 1351,7 1331,-52 1390,-110 1450,-167 1511,-191 1591,-147 1662,-91 1724,-13 1754,70 1764,145 1727,219 1688,254 1612,275 1531,286 1448,232 1384,150 1367,80 1413,47 1490,19 1569,7 1652,60 1717,138 1748,220 1766,304 1766,388 1765,471 1752,537 1700,585 1631,630 1560,668 1485,704 1409,730 1329,735 1245,706 1166,672 1089,621 1022,537 1016,464 1058,401 1114,369 1192,416 1262,499 1277,583 1285,647 1230,697 1162,724 1082,748 1001,718 922,681 846,642 771,565 736,481 726,407 767,338 816,272 869,239 947,228 1031,245 1114,273 1194,354 1219,421 1167,481 1107,540 1046,588 976,610 894,565 822,482 804,419 861,381 937,345 1014,344 1099,346 1184,402 1248,487 1251,568 1225,646 1191,675 1111,694 1028,708 944,685 862,635 793,562 749,496 803,489 888,504 972,524 1055,551 1136,590 1212,643 1279,715 1325,785 1276,826 1201,861 1123,877 1039,817 978,755 919,687 867,608 834,545 892,488 956,477 1041,502 1123,547 1196,603 1261,672 1312,757 1324,840 1302,916 1262,952 1184,897 1118,822 1076,750 1123,737 1208,737 1294,738 1380,740 1466,769 1547,823 1614,897 1658,981 1677,1064 1654,1078 1569,1046 1489,960 1483,892 1536,831 1597,771 1659,725 1732,686 1809,649 1887,629 1971,670 2047,728 2111,809 2141,892 2165,971 2130,1046 2087,1055 2001,1039 1916,991 1844,911 1811,845 1867,835 1953,856 2037,901 2111,983 2139,1066 2164,1152 2175,1233 2144,1311 2106,1388 2066,1424 1987,1377 1914,1323 1846,1252 1796,1167 1778,1087 1812,1012 1856,950 1917,890 1980,837 2049,835 2136,894 2200,981 2203,1068 2199,1153 2180,1218 2122,1264 2048,1269 1961,1217 1891,1160 1825,1083 1784,1000 1757,914 1742,832 1772,752 1807,728 1891,720 1978,771 2049,826 2117,901 2162,987 2178,1072 2157,1082 2070,1054 1987,1000 1918,916 1893,838 1933,764 1980,702 2042,641 2105,599 2182,563 2262,622 2327,692 2380,768 2424,855 2436,936 2402,1002 2344,1051 2271,1077 2187,1090 2100,1044 2025,956 2025,868 2026,780 2028,692 2031,607 2054,588 2140,584 2228,623 2307,664 2385,744 2422,821 2379,895 2331,967 2280,1036 2225,1066 2142,1073 2054,1058 1967,1038 1881,1014 1796,926 1788,844 1821,774 1875,710 1936,650 2001,600 2074,553 2149,532 2235,560 2319,600 2398,680 2436,758 2394,829 2341,896 2283,932 2202,949 2115,960 2027,903 1959,829 1910,747 1876,659 1864,583 1910,565 1997,594 2081,679 2107,767 2120,856 2120,945 2119,1034 2117,1109 2069,1182 2018,1225 1940,1229 1851,1166 1788,1102 1726,1037 1665,955 1630,870 1603,786 1633,715 1687,695 1774,688 1863,712 1949,762 2023,845 2056,934 2064,1002 2006,1055 1934,1095 1854,1104 1765,1066 1684,981 1656,894 1635,810 1666,728 1702,703 1788,752 1863,804 1936,860 2006,949 2017,1032 1983,1054 1896,1066 1807,1037 1722,949 1704,884 1766,858 1852,909 1926,985 1974,1065 2015,1146 2054,1213 1994,1256 1915,1293 1833,1316 1746,1316 1656,1315 1566,1313 1476,1294 1388,1249 1310,1166 1275,1076 1271,987 1285,901 1312,895 1402,942 1479,1030 1499,1117 1475,1132 1386,1139 1296,1099 1215,1057 1135,975 1097,886 1081,800 1109,791 1199,812 1287,843 1372,907 1436,972 1499,1038 1561,1110 1616,1199 1633,1283 1599,1294 1509,1234 1441,1159 1390,1071 1368,994 1416,965 1502,1006 1583,1096 1595,1185 1577,1270 1545,1353 1508,1423 1450,1468 1371,1481 1281,1458 1193,1408 1117,1324 1082,1235 1063,1144 1061,1053 1064,975 1111,945 1197,941 1288,968 1375,1059 1380,1144 1347,1150 1256,1126 1168,1062 1103,980 1063,890 1048,815 1100,766 1177,728 1260,772 1340,833 1408,917 1444,1004 1472,1077 1417,1093 1327,1062 1241,1002 1172,913 1151,825 1176,749 1227,679 1286,631 1364,614 1454,668 1528,759 1539,848 1517,935 1488,1021 1456,1039 1366,1051 1275,1001 1198,944 1126,869 1073,790 1026,724 1090,661 1157,642 1247,642 1339,643 1431,645 1523,675 1610,763 1637,854 1651,946 1655,1015 1594,1064 1516,1106 1434,1146 1351,1170 1262,1190 1172,1135 1098,1044 1083,952 1076,872 1122,836 1207,895 1278,983 1306,1070 1275,1086 1184,1065 1094,1017 1015,928 990,856 1048,822 1134,812 1226,829 1317,872 1399,956 1438,1029 1381,1095 1316,1145 1238,1174 1150,1129 1069,1066 1001,981 964,892 938,801 920,709 908,629 955,555 1011,485 1072,462 1162,449 1254,509 1325,588 1374,676 1404,769 1404,862 1403,955 1401,1039 1361,1072 1274,1086 1182,1090 1089,1052 1004,959 999,869 1023,788 1069,768 1160,762 1253,777 1345,813 1431,871 1504,964 1511,1044 1463,1075 1375,1009 1309,916 1301,849 1366,785 1434,764 1525,789 1615,852 1684,936 1725,1019 1682,1098 1632,1168 1570,1207 1485,1217 1392,1200 1300,1144 1225,1083 1154,997 1117,909 1085,816 1074,726 1100,654 1160,602 1238,590 1331,625 1418,674 1498,733 1571,826 1584,910 1542,940 1453,959 1361,932 1271,899 1183,805 1183,711 1184,617 1186,538 1237,461 1291,393 1356,389 1450,413 1541,507 1546,599 1526,686 1490,756 1427,762 1333,747 1240,716 1151,626 1123,532 1116,454 1169,404 1249,361 1333,320 1418,376 1494,459 1539,545 1578,618 1518,665 1436,675 1342,658 1249,629 1159,597 1070,505 1048,428 1103,354 1162,305 1243,270 1331,252 1424,319 1491,387 1557,456 1622,531 1680,615 1724,707 1747,793 1707,871 1653,922 1573,968 1490,1001 1401,963 1314,906 1238,811 1237,729 1285,727 1380,741 1474,836 1477,928 1453,932 1358,912 1265,859 1186,778 1136,687 1108,592 1101,518 1161,477 1247,522 1331,614 1356,707 1377,801 1393,884 1346,964 1294,1039 1235,1094 1157,1131 1069,1065 1000,974 971,884 1003,802 1052,780 1145,844 1216,920 1274,1009 1309,1081 1246,1135 1167,1177 1081,1133 996,1082 915,995 875,911 921,838 983,781 1060,751 1151,789 1239,879 1272,971 1299,1066 1312,1160 1293,1240 1240,1240 1144,1239 1048,1237 952,1223 857,1173 775,1113 700,1017 696,923 716,918 812,949 903,992 989,1060 1057,1129 1124,1225 1130,1315 1096,1391 1037,1443 956,1388 877,1295 852,1201 831,1105 823,1010 839,921 876,844 934,835 1030,898 1103,989 1135,1084 1152,1180 1162,1274 1140,1367 1114,1453 1070,1531 1013,1542 917,1496 832,1408 792,1333 853,1315 948,1303 1044,1333 1136,1371 1225,1424 1306,1484 1382,1563 1438,1656 1465,1752 1478,1847 1459,1930 1409,1966 1319,1900 1248,1828 1183,1751 1124,1657 1100,1560 1098,1463 1101,1377 1146,1297 1201,1245 1283,1217 1376,1212 1473,1246 1564,1342 1579,1431 1540,1505 1477,1563 1399,1612 1315,1619 1218,1594 1124,1499 1103,1409 1140,1393 1236,1385 1333,1439 1414,1531 1446,1624 1475,1700 1414,1744 1327,1779 1236,1737 1148,1642 1126,1548 1152,1459 1192,1390 1261,1322 1331,1262 1408,1251 1505,1304 1587,1360 1667,1426 1739,1516 1777,1609 1807,1706 1819,1801 1796,1885 1746,1963 1687,2037 1623,2073 1532,2086 1435,2031 1354,1948 1302,1861 1257,1766 1233,1677 1274,1677 1372,1678 1470,1680 1568,1711 1661,1809 1664,1905 1644,1999 1616,2089 1577,2174 1528,2179 1430,2164 1333,2110 1251,2053 1171,1992 1094,1894 1087,1798 1108,1728 1177,1660 1248,1652 1346,1684 1439,1778 1468,1866 1424,1944 1364,2017 1298,2052 1206,1996 1125,1913 1072,1827 1024,1732 998,1634 988,1559 1052,1500 1131,1450 1216,1432 1313,1462 1407,1495 1500,1558 1576,1656 1588,1738 1533,1765 1438,1729 1346,1671 1266,1583 1221,1494 1178,1396 1165,1309 1212,1268 1302,1244 1398,1275 1492,1345 1562,1444 1562,1543 1561,1642 1559,1714 1491,1742 1396,1745 1297,1741 1198,1674 1125,1589 1074,1491 1059,1417 1125,1380 1217,1374 1316,1399 1412,1464 1487,1553 1531,1647 1563,1737 1521,1821 1468,1850 1373,1786 1297,1699 1249,1606 1214,1515 1254,1506 1353,1532 1449,1629 1471,1715 1421,1792 1358,1802 1259,1764 1167,1709 1084,1610 1073,1515 1103,1437 1165,1385 1250,1362 1347,1432 1418,1504 1487,1593 1532,1683 1575,1771 1528,1850 1467,1924 1400,1973 1313,1919 1229,1862 1147,1796 1072,1704 1033,1609 1002,1515 1036,1429 1087,1349 1147,1273 1212,1253 1310,1250 1410,1254 1510,1291 1603,1347 1686,1446 1701,1543 1676,1633 1632,1722 1586,1803 1527,1845 1436,1797 1348,1702 1316,1624 1379,1595 1475,1630 1569,1670 1661,1720 1748,1775 1832,1846 1903,1918 1973,1997 2035,2079 2093,2178 2110,2271 2072,2357 2020,2432 1953,2462 1857,2473 1757,2455 1658,2412 1567,2346 1491,2248 1468,2151 1495,2066 1549,2054 1649,2095 1741,2160 1818,2241 1878,2340 1897,2440 1910,2533 1871,2564 1775,2588 1677,2554 1582,2498 1498,2401 1470,2301 1456,2200 1456,2099 1457,1998 1459,1897 1462,1807 1508,1763 1599,1748 1699,1743 1800,1785 1892,1855 1965,1929 2034,2025 2066,2124 2087,2212 2037,2287 1969,2342 1884,2284 1801,2184 1785,2083 1777,1996 1829,1958 1923,1949 2024,1971 2123,2071 2140,2172 2150,2268 2117,2359 2072,2449 2025,2535 1971,2578 1879,2614 1784,2625 1683,2607 1583,2584 1484,2557 1386,2493 1307,2405 1256,2311 1217,2211 1198,2139 1270,2076 1350,2017 1433,1983 1529,2053 1603,2152 1627,2239 1574,2314 1505,2342 1407,2305 1312,2259 1221,2191 1145,2101 1097,1999 1096,1897 1098,1795 1101,1718 1168,1660 1252,1605 1338,1580 1437,1575 1539,1607 1636,1647 1730,1713 1808,1809 1843,1907 1872,1995 1820,2002 1718,1986 1617,1921 1538,1819 1530,1724 1568,1639 1625,1613 1724,1591 1824,1582 1926,1627 2018,1674 2109,1738 2189,1831 2232,1921 2183,1951 2085,1915 1989,1843 1916,1769 1845,1680 1794,1579 1776,1479 1799,1380 1826,1294 1882,1210 1941,1171 2036,1159 2138,1212 2226,1313 2245,1411 2214,1493 2152,1571 2085,1595 1985,1549 1893,1501 1802,1443 1717,1356 1662,1277 1728,1227 1818,1207 1919,1207 2022,1208 2125,1210 2228,1213 2331,1217 2434,1249 2532,1351 2547,1454 2552,1555 2531,1641 2474,1725 2414,1806 2350,1879 2277,1951 2203,2022 2128,2069 2036,2114 1943,2140 1843,2091 1752,1997 1709,1894 1700,1792 1717,1693 1747,1596 1783,1501 1824,1423 1892,1413 1995,1431 2097,1458 2197,1511 2286,1573 2369,1669 2408,1772 2420,1852 2354,1910 2268,1941 2169,1960 2067,1912 1975,1857 1887,1763 1843,1662 1819,1559 1806,1468 1856,1440 1956,1505 2037,1600 2079,1702 2099,1805 2113,1880 2041,1920 1945,1921 1841,1864 1754,1800 1672,1715 1612,1614 1587,1516 1622,1512 1726,1527 1829,1581 1918,1681 1947,1783 1968,1887 1974,1984 1936,2077 1889,2122 1795,2138 1692,2095 1597,2036 1511,1948 1455,1857 1404,1755 1382,1675 1449,1642 1548,1633 1652,1650 1755,1680 1855,1733 1945,1837 1955,1918 1889,1957 1792,1980 1690,1991 1586,1936 1497,1871 1415,1797 1341,1704 1293,1629 1366,1595 1465,1583 1569,1614 1669,1664 1761,1735 1838,1833 1875,1935 1899,2013 1829,2077 1746,2134 1658,2074 1572,2005 1493,1908 1453,1804 1439,1714 1493,1634 1561,1571 1645,1536 1744,1511 1846,1508 1951,1512 2056,1541 2157,1588 2251,1686 2289,1789 2310,1878 2254,1884 2149,1841 2053,1779 1968,1675 1952,1570 1945,1468 1971,1368 2004,1271 2045,1249 2148,1285 2247,1359 2322,1435 2395,1540 2404,1628 2346,1705 2274,1770 2191,1831 2105,1886 2015,1913 1913,1936 1810,1954 1706,1908 1611,1803 1600,1710 1650,1626 1714,1592 1814,1661 1894,1762 1925,1854 1873,1941 1813,1998 1724,2040 1627,2059 1523,2035 1420,2007 1318,1944 1233,1853 1179,1755 1139,1673 1206,1653 1310,1639 1415,1671 1516,1718 1611,1774 1701,1868 1750,1974 1752,2070 1707,2153 1641,2228 1566,2302 1490,2323 1386,2280 1289,2174 1284,2096 1356,2090 1462,2143 1554,2208 1638,2279 1717,2368 1775,2469 1808,2569 1772,2649 1702,2679 1600,2624 1509,2519 1492,2413 1483,2328 1547,2247 1616,2199 1711,2153 1807,2143 1913,2170 2016,2230 2104,2327 2148,2409 2080,2466 1990,2518 1897,2552 1796,2583 1694,2541 1596,2441 1559,2358 1626,2304 1718,2285 1823,2309 1927,2337 2030,2377 2129,2436 2218,2510 2295,2594 2361,2681 2423,2772 2479,2868 2526,2969 2561,3071 2593,3177 2607,3274 2562,3368 2511,3448 2440,3486 2340,3486 2233,3485 2126,3483 2019,3480 1912,3465 1806,3407 1716,3346 1628,3241 1607,3134 1602,3035 1643,2953 1712,2898 1804,2872 1908,2905 2010,2941 2111,3048 2118,3153 2096,3236 2028,3284 1932,3323 1832,3340 1726,3349 1619,3286 1532,3192 1480,3088 1453,2981 1443,2905 1519,2830 1596,2756 1674,2702 1767,2665 1868,2724 1958,2796 2038,2884 2100,2991 2112,3097 2093,3201 2065,3225 1960,3154 1879,3058 1830,2961 1783,2875 1848,2793 1918,2742 2013,2697 2111,2665 2214,2645 2320,2706 2409,2797 2467,2896 2510,3000 2539,3108 2539,3216 2538,3324 2536,3432 2533,3539 2518,3645 2497,3729 2429,3770 2329,3775 2221,3742 2118,3706 2016,3601 1990,3494 1974,3416 2049,3353 2137,3420 2222,3516 2272,3595 2198,3641 2100,3680 1999,3688 1891,3636 1796,3537 1752,3430 1735,3322 1726,3228 1780,3201 1885,3260 1976,3360 2018,3463 2052,3570 2070,3674 2039,3767 1983,3850 1913,3915 1826,3955 1725,3967 1617,3939 1512,3890 1415,3784 1391,3686 1438,3590 1489,3500 1550,3455 1649,3513 1741,3621 1754,3724 1719,3812 1655,3850 1553,3870 1446,3793 1369,3715 1293,3621 1238,3516 1209,3436 1283,3376 1374,3335 1475,3333 1584,3348 1692,3369 1799,3478 1803,3571 1746,3607 1643,3612 1534,3564 1436,3514 1339,3408 1313,3299 1307,3191 1323,3086 1353,3003 1424,2981 1531,3025 1631,3079 1726,3141 1816,3233 1875,3341 1892,3425 1822,3434 1713,3407 1607,3342 1519,3248 1463,3145 1426,3036 1416,2931 1447,2913 1555,2902 1664,2942 1766,2991 1864,3042 1961,3100 2054,3164 2143,3232 2229,3307 2309,3388 2383,3492 2418,3597 2450,3706 2463,3809 2425,3896 2358,3956 2266,3893 2176,3821 2093,3714 2068,3605 2054,3503 2095,3419 2166,3353 2254,3352 2364,3354 2474,3375 2582,3484 2597,3594 2600,3698 2564,3795 2512,3828 2407,3832 2297,3827 2187,3788 2084,3734 1988,3628 1958,3519 1942,3430 2007,3408 2115,3401 2225,3470 2311,3565 2367,3675 2375,3777 2333,3856 2256,3932 2176,3959 2069,3968 1959,3931 1855,3856 1774,3769 1706,3679 1642,3573 1611,3463 1601,3364 1650,3266 1701,3219 1801,3272 1898,3382 1909,3483 1864,3571 1797,3655 1725,3710 1629,3729 1520,3741 1410,3681 1317,3618 1226,3516 1183,3412 1145,3327 1216,3314 1326,3371 1421,3437 1510,3546 1530,3654 1505,3761 1476,3847 1406,3897 1307,3945 1207,3893 1109,3834 1015,3729 979,3620 958,3510 943,3430 1020,3361 1107,3322 1211,3296 1319,3291 1430,3321 1537,3377 1633,3487 1649,3598 1655,3707 1633,3795 1565,3856 1472,3898 1369,3834 1278,3761 1194,3666 1136,3560 1102,3452 1075,3347 1112,3247 1161,3148 1212,3063 1284,2996 1373,2943 1471,2903 1575,2893 1686,2911 1796,2956 1898,3019 1990,3116 2045,3210 1985,3296 1914,3307 1803,3279 1695,3213 1605,3104 1581,3001 1624,2966 1730,2954 1841,2992 1946,3099 1978,3178 1899,3256 1819,3333 1738,3395 1645,3436 1541,3456 1431,3427 1323,3368 1228,3293 1145,3182 1131,3080 1177,2996 1251,2963 1358,2942 1468,2942 1580,2943 1692,2958 1803,3070 1805,3182 1802,3267 1729,3328 1635,3332 1523,3302 1415,3190 1410,3079 1426,2975 1468,2953 1578,3020 1668,3132 1675,3232 1624,3281 1523,3318 1417,3326 1305,3309 1194,3262 1092,3199 999,3104 939,3006 884,2903 839,2812 905,2732 984,2662 1072,2644 1183,2721 1265,2818 1322,2922 1365,3029 1400,3139 1424,3245 1386,3329 1311,3398 1222,3430 1114,3365 1022,3269 963,3168 913,3068 965,3027 1070,3075 1172,3187 1185,3286 1131,3306 1020,3277 911,3209 821,3136 735,3038 679,2931 643,2836 704,2792 808,2759 916,2798 1022,2909 1043,3021 1058,3134 1059,3247 1057,3357 1031,3360 918,3330 809,3259 721,3154 679,3041 674,2929 690,2828 741,2734 804,2652 882,2599 982,2659 1078,2736 1161,2828 1227,2917 1157,2972 1058,2999 948,2923 864,2811 847,2705 887,2601 932,2570 1041,2547 1152,2604 1250,2673 1340,2785 1358,2898 1368,2984 1294,3049 1201,3077 1091,3042 983,2983 886,2876 848,2765 824,2678 897,2628 999,2596 1108,2584 1221,2638 1321,2744 1362,2832 1290,2896 1196,2957 1100,2970 987,2941 877,2829 857,2718 882,2626 949,2590 1057,2634 1162,2705 1251,2784 1333,2882 1391,2989 1430,3072 1352,3149 1268,3212 1173,3212 1059,3211 945,3209 831,3133 746,3040 680,2943 620,2842 567,2728 563,2614 568,2501 584,2389 606,2383 720,2420 828,2529 862,2620 793,2707 719,2747 612,2774 501,2791 388,2799 274,2768 164,2695 76,2581 67,2475 110,2383 178,2365 291,2355 405,2383 516,2418 625,2456 733,2506 836,2560 937,2664 985,2759 921,2840 840,2920 758,2999 675,3055 575,2988 482,2910 398,2820 327,2735 404,2706 515,2693 629,2713 742,2757 848,2866 884,2957 814,3020 718,3053 608,3067 494,2992 407,2894 347,2791 296,2684 254,2580 303,2492 377,2462 488,2462 603,2463 718,2465 833,2468 948,2472 1063,2529 1163,2594 1258,2708 1274,2821 1252,2931 1218,3037 1173,3077 1065,3104 953,3111 838,3080 727,3008 637,2927 555,2844 475,2760 396,2653 353,2538 344,2453 422,2389 518,2337 621,2287 725,2269 839,2340 930,2417 1016,2529 1044,2634 996,2735 940,2822 864,2833 749,2787 643,2673 624,2573 682,2485 757,2422 854,2488 949,2595 993,2708 1018,2822 1038,2911 964,2971 865,3010 756,3043 645,2992 541,2939 438,2824 424,2719 473,2677 581,2732 683,2846 704,2942 639,2972 527,2998 414,2936 316,2855 233,2771 153,2655 152,2539 154,2423 157,2338 236,2301 346,2297 462,2342 569,2453 603,2567 625,2682 641,2798 647,2911 620,3023 589,3131 546,3226 479,3314 403,3375 304,3429 201,3438 85,3390 -21,3280 -59,3169 -94,3054 -112,2941 -84,2931 32,2972 141,3018 248,3130 280,3244 304,3342 241,3432 167,3443 51,3424 -64,3355 -158,3255 -218,3142 -247,3059 -165,2978 -81,2939 29,2919 144,2970 249,3082 282,3185 227,3271 148,3333 49,3261 -43,3166 -111,3050 -125,2948 -68,2901 39,2880 154,2910 267,3024 293,3112 216,3127 100,3068 -1,2960 -46,2849 -83,2732 -85,2643 -9,2640 108,2674 220,2741 316,2856 338,2972 354,3089 359,3189 298,3279 223,3331 118,3374 9,3320 -95,3250 -189,3133 -196,3017 -179,2910 -131,2887 -16,2961 75,3058 141,3160 199,3272 234,3389 243,3472 160,3554 76,3595 -34,3526 -129,3409 -139,3296 -107,3210 -27,3150 74,3139 191,3158 307,3236 395,3334 460,3451 472,3556 419,3607 313,3643 201,3588 97,3477 58,3377 120,3288 197,3268 313,3255 430,3297 540,3344 648,3420 738,3514 809,3616 868,3730 898,3846 919,3943 852,3969 737,3924 628,3812 591,3695 576,3584 616,3483 677,3483 795,3484 913,3486 1031,3489 1149,3493 1267,3547 1372,3630 1456,3715 1538,3819 1594,3934 1621,4048 1590,4146 1524,4194 1416,4131 1316,4028 1258,3932 1327,3839 1400,3751 1479,3713 1591,3678 1704,3724 1813,3835 1854,3937 1794,4026 1716,4054 1601,4072 1484,4040 1370,3922 1360,3823 1425,3733 1502,3709 1618,3777 1715,3887 1759,4005 1770,4122 1751,4213 1675,4270 1571,4299 1456,4311 1338,4286 1222,4253 1108,4178 1016,4075 957,3957 944,3857 1008,3773 1092,3690 1177,3620 1273,3606 1391,3636 1506,3717 1593,3833 1619,3946 1582,4058 1542,4073 1424,4039 1310,3987 1203,3921 1104,3816 1048,3697 1047,3589 1097,3495 1170,3426 1267,3404 1384,3400 1503,3416 1621,3494 1711,3603 1759,3718 1790,3837 1796,3940 1736,4031 1659,4069 1546,4023 1436,3906 1413,3792 1448,3680 1489,3582 1557,3490 1633,3481 1752,3499 1870,3531 1985,3575 2096,3628 2203,3683 2309,3791 2360,3896 2303,3981 2219,4030 2110,4049 1992,4010 1879,3896 1843,3809 1925,3745 2026,3733 2145,3775 2257,3822 2367,3896 2461,4011 2494,4100 2414,4120 2296,4133 2177,4054 2087,3943 2042,3848 2115,3782 2215,3768 2334,3789 2452,3841 2560,3954 2600,4060 2544,4162 2481,4212 2372,4227 2253,4169 2148,4092 2056,3996 1984,3876 1983,3756 1985,3638 2007,3635 2127,3639 2247,3655 2366,3682 2483,3750 2582,3851 2647,3971 2653,4082 2607,4120 2493,4127 2373,4110 2254,4026 2168,3923 2106,3836 2189,3761 2283,3753 2403,3835 2491,3943 2544,4050 2489,4094 2377,4103 2257,4052 2148,3995 2042,3928 1942,3848 1852,3753 1778,3655 1708,3550 1649,3436 1610,3321 1574,3202 1555,3085 1584,2972 1626,2868 1687,2856 1807,2889 1923,2967 2015,3085 2040,3186 1974,3206 1855,3137 1756,3025 1711,2922 1774,2868 1882,2816 1991,2786 2108,2858 2205,2973 2242,3093 2256,3211 2230,3232 2111,3198 1995,3155 1882,3070 1796,2970 1728,2865 1668,2763 1733,2675 1816,2675 1937,2676 2058,2678 2179,2681 2300,2708 2418,2828 2434,2949 2438,3061 2392,3151 2311,3156 2190,3118 2075,3077 1961,2997 1870,2889 1815,2780 1762,2684 1836,2627 1943,2576 2053,2532 2166,2504 2284,2536 2401,2595 2507,2706 2556,2826 2574,2919 2496,2943 2377,2870 2280,2749 2270,2634 2309,2598 2425,2645 2537,2711 2639,2780 2739,2901 2750,3019 2721,3136 2688,3240 2625,3265 2506,3193 2408,3107 2322,3020 2237,2911 2183,2791 2163,2696 2239,2644 2349,2631 2470,2689 2577,2800 2627,2918 2657,3034 2620,3137 2555,3197 2449,3223 2330,3244 2210,3173 2111,3059 2068,2947 2116,2855 2196,2840 2317,2902 2422,3022 2444,3144 2445,3266 2443,3385 2416,3487 2349,3503 2228,3507 2106,3466 1991,3413 1881,3349 1777,3241 1720,3124 1685,3002 1679,2891 1730,2868 1850,2851 1971,2895 2085,2968 2183,3080 2232,3198 2264,3293 2187,3354 2081,3285 1980,3199 1893,3111 1808,2991 1784,2875 1823,2762 1870,2752 1992,2788 2109,2830 2224,2906 2320,3011 2383,3130 2412,3252 2423,3370 2390,3480 2336,3589 2280,3634 2166,3659 2046,3671 1924,3596 1827,3496 1756,3384 1706,3277 1766,3264 1888,3304 2004,3421 2041,3540 2071,3653 2023,3696 1908,3722 1788,3643 1694,3545 1620,3424 1599,3321 1666,3220 1736,3125 1814,3079 1928,3143 2033,3262 2064,3383 2086,3506 2086,3629 2085,3752 2083,3868 2042,3955 1955,4041 1867,4118 1771,4033 1682,3915 1647,3792 1642,3702 1726,3658 1841,3652 1964,3675 2085,3741 2189,3863 2206,3986 2213,4106 2185,4225 2153,4317 2071,4325 1948,4278 1834,4156 1816,4033 1807,3912 1831,3794 1867,3696 1942,3628 2045,3572 2155,3518 2266,3489 2386,3560 2487,3669 2545,3781 2597,3896 2642,4004 2582,4099 2503,4149 2390,4161 2267,4087 2168,3965 2148,3848 2188,3741 2250,3728 2373,3758 2493,3828 2595,3932 2662,4020 2575,4106 2486,4191 2396,4264 2296,4328 2190,4244 2099,4147 2022,4032 1976,3921 2031,3811 2088,3719 2171,3704 2294,3735 2414,3794 2523,3912 2561,4033 2588,4126 2506,4126 2382,4125 2258,4123 2134,4057 2029,3985 1928,3866 1893,3742 1889,3628 1938,3623 2062,3629 2186,3652 2308,3715 2415,3835 2447,3956 2475,4055 2400,4102 2285,4110 2161,4071 2043,4029 1926,3973 1815,3861 1761,3755 1826,3697 1936,3645 2049,3635 2173,3680 2289,3801 2318,3889 2230,3922 2110,3941 1987,3863 1890,3777 1800,3653 1789,3562 1874,3500 1982,3475 2104,3542 2209,3626 2301,3744 2341,3867 2361,3986 2324,4084 2247,4177 2164,4207 2043,4220 1919,4186 1799,4104 1705,3992 1650,3869 1629,3745 1615,3641 1684,3588 1797,3647 1907,3728 2002,3830 2074,3936 2140,4050 2191,4174 2206,4295 2175,4414 2137,4441 2015,4361 1919,4261 1844,4146 1795,4021 1793,3897 1809,3789 1872,3786 1997,3790 2122,3858 2227,3929 2330,4052 2353,4177 2359,4301 2342,4423 2314,4513 2227,4578 2120,4504 2019,4392 1963,4273 1924,4160 1978,4062 2056,3970 2141,3934 2261,3916 2385,3940 2508,4065 2517,4182 2472,4286 2402,4380 2319,4457 2220,4530 2118,4549 1994,4560 1869,4478 1774,4355 1749,4239 1797,4199 1916,4162 2036,4205 2154,4281 2254,4362 2350,4484 2380,4589 2311,4692 2239,4747 2126,4781 2005,4722 1894,4656 1787,4576 1690,4452 1669,4327 1655,4212 1706,4123 1795,4035 1885,3956 1983,3893 2092,3844 2208,3817 2331,3795 2455,3830 2576,3915 2669,4041 2669,4167 2668,4293 2666,4418 2650,4517 2572,4582 2464,4586 2338,4539 2221,4413 2216,4289 2239,4167 2271,4053 2325,4025 2448,4008 2573,4047 2693,4089 2812,4141 2927,4262 2963,4369 2896,4465 2814,4527 2704,4572 2586,4596 2462,4546 2346,4420 2337,4297 2366,4175 2399,4165 2525,4229 2634,4354 2653,4471 2605,4577 2536,4681 2464,4706 2340,4626 2242,4507 2199,4394 2256,4286 2322,4196 2411,4108 2502,4033 2604,4120 2696,4235 2749,4353 2795,4464 2734,4557 2648,4583 2524,4532 2408,4447 2314,4342 2243,4232 2180,4106 2166,3999 2234,3904 2318,3826 2418,3752 2521,3703 2638,3659 2757,3644 2883,3671 3007,3736 3116,3858 3151,3985 3151,4112 3150,4238 3134,4356 3087,4462 3017,4465 2890,4411 2775,4351 2663,4278 2559,4170 2492,4045 2469,3921 2497,3800 2536,3680 2578,3569 2640,3562 2767,3598 2889,3643 3008,3693 3125,3820 3133,3930 3069,4020 2979,4100 2880,4011 2789,3919 2701,3814 2629,3707 2560,3583 2531,3460 2564,3342 2612,3332 2739,3418 2833,3521 2908,3630 2974,3751 3014,3865 2957,3908 2837,3933 2712,3896 2590,3843 2474,3759 2378,3632 2366,3506 2386,3387 2432,3286 2510,3218 2618,3155 2729,3229 2833,3312 2930,3437 2956,3563 2977,3684 2936,3802 2887,3900 2805,3977 2703,4021 2583,4052 2459,3982 2352,3909 2247,3795 2189,3680 2133,3581 2214,3521 2327,3474 2446,3528 2562,3618 2653,3746 2653,3874 2652,4002 2650,4130 2647,4258 2643,4384 2620,4509 2592,4620 2528,4637 2401,4643 2273,4557 2178,4439 2128,4319 2083,4191 2076,4087 2151,3986 2230,3978 2358,4002 2484,4129 2502,4239 2436,4336 2352,4365 2227,4308 2112,4249 1998,4133 1943,4011 1903,3909 1981,3838 2088,3921 2186,4038 2239,4164 2264,4292 2275,4404 2212,4450 2092,4480 1967,4492 1839,4472 1712,4438 1588,4361 1485,4250 1420,4124 1394,3996 1381,3896 1462,3805 1553,3715 1645,3642 1751,3621 1878,3659 2001,3703 2122,3791 2216,3916 2247,4031 2189,4135 2113,4230 2026,4290 1912,4325 1788,4352 1662,4367 1534,4281 1438,4168 1376,4050 1324,3943 1396,3846 1481,3782 1593,3782 1722,3783 1851,3785 1980,3827 2102,3952 2134,4081 2137,4210 2133,4337 2110,4463 2082,4582 2032,4627 1911,4663 1787,4680 1659,4686 1530,4679 1401,4601 1298,4481 1250,4354 1226,4239 1285,4221 1413,4295 1519,4412 1574,4538 1603,4667 1612,4777 1544,4817 1421,4774 1299,4711 1186,4582 1176,4454 1195,4361 1285,4336 1412,4382 1533,4433 1652,4498 1764,4624 1794,4731 1721,4801 1612,4821 1484,4833 1355,4784 1235,4704 1133,4618 1036,4507 969,4391 911,4274 855,4176 940,4145 1066,4199 1184,4271 1292,4350 1395,4434 1494,4561 1521,4671 1452,4735 1339,4750 1210,4728 1082,4645 982,4522 940,4398 901,4272 869,4142 868,4012 870,3882 873,3754 896,3750 1026,3786 1151,3857 1260,3931 1367,4023 1459,4116 1550,4210 1640,4326 1699,4443 1756,4564 1804,4679 1743,4734 1625,4657 1520,4569 1424,4439 1416,4310 1434,4183 1463,4059 1503,3936 1546,3927 1676,4000 1784,4113 1849,4235 1895,4355 1844,4374 1715,4349 1587,4273 1481,4143 1470,4044 1555,4014 1682,4048 1808,4115 1920,4244 1940,4365 1891,4377 1761,4319 1644,4259 1528,4180 1424,4062 1368,3939 1324,3814 1286,3707 1361,3653 1480,3632 1609,3663 1736,3727 1850,3849 1897,3979 1911,4105 1876,4225 1824,4330 1746,4423 1654,4514 1560,4604 1465,4686 1363,4597 1267,4489 1193,4379 1122,4254 1083,4127 1051,4004 1096,3988 1226,3988 1357,3989 1488,3991 1619,4019 1747,4078 1864,4204 1900,4322 1843,4438 1782,4493 1663,4541 1541,4558 1411,4495 1296,4409 1197,4289 1144,4158 1137,4054 1217,4030 1346,4063 1473,4128 1587,4258 1605,4389 1613,4520 1604,4646 1567,4747 1483,4814 1370,4833 1240,4808 1111,4677 1100,4549 1130,4422 1164,4304 1222,4187 1282,4085 1365,4029 1484,4122 1577,4216 1669,4328 1738,4453 1779,4577 1735,4697 1681,4723 1552,4685 1426,4621 1311,4532 1214,4429 1132,4306 1085,4176 1064,4048 1095,3950 1183,3884 1297,3849 1424,3835 1555,3906 1666,3993 1765,4097 1846,4204 1923,4326 1973,4457 1988,4582 1946,4695 1878,4795 1792,4834 1666,4789 1542,4730 1424,4602 1392,4483 1449,4467 1580,4467 1712,4468 1844,4553 1945,4685 1947,4815 1924,4938 1876,5046 1800,5116 1688,5121 1556,5104 1425,5020 1323,4892 1290,4767 1333,4727 1459,4806 1565,4935 1594,5066 1612,5198 1620,5293 1528,5339 1404,5248 1308,5145 1225,5034 1153,4925 1228,4828 1318,4809 1449,4799 1581,4824 1711,4873 1834,4935 1951,5055 2007,5183 2041,5312 2071,5444 2082,5560 2018,5614 1897,5658 1772,5670 1640,5583 1540,5456 1502,5326 1476,5211 1542,5099 1613,4994 1694,4942 1816,4929 1948,5015 2049,5144 2080,5272 2045,5386 1977,5488 1892,5568 1786,5610 1660,5551 1541,5490 1423,5370 1366,5245 1321,5136 1397,5073 1514,5041 1643,5096 1764,5166 1877,5260 1971,5355 2064,5451 2156,5567 2221,5697 2249,5830 2249,5963 2248,6096 2246,6229 2243,6327 2153,6410 2049,6427 1917,6432 1784,6343 1685,6233 1610,6121 1538,5994 1498,5865 1465,5734 1441,5601 1434,5471 1463,5371 1551,5293 1659,5375 1764,5503 1801,5617 1732,5677 1613,5735 1493,5673 1375,5586 1274,5465 1218,5333 1199,5202 1224,5192 1357,5226 1486,5280 1608,5351 1721,5467 1787,5599 1807,5727 1769,5850 1717,5953 1632,5979 1501,5911 1386,5778 1373,5648 1404,5552 1497,5517 1626,5601 1730,5693 1827,5803 1903,5923 1962,6042 1901,6140 1810,6197 1689,6239 1562,6169 1448,6079 1349,5971 1270,5839 1248,5717 1303,5600 1368,5500 1457,5468 1587,5516 1712,5645 1748,5768 1695,5884 1628,5995 1553,6067 1440,6067 1306,6066 1172,6064 1038,6061 904,6057 770,5970 668,5846 617,5719 574,5585 569,5457 609,5342 678,5309 808,5303 942,5327 1074,5356 1205,5414 1326,5495 1433,5628 1451,5762 1459,5887 1410,5997 1333,6068 1219,5983 1115,5866 1049,5734 1024,5601 1005,5505 1099,5471 1229,5564 1326,5695 1356,5803 1276,5847 1149,5755 1051,5621 1040,5497 1092,5392 1176,5293 1267,5246 1393,5226 1526,5302 1637,5415 1710,5547 1736,5667 1675,5776 1596,5882 1513,5945 1394,6002 1272,6044 1144,5979 1026,5845 1012,5713 1039,5586 1084,5547 1213,5622 1325,5704 1432,5791 1535,5905 1607,6039 1622,6149 1544,6202 1420,6238 1290,6266 1158,6282 1024,6213 908,6080 885,5945 885,5810 886,5675 888,5547 931,5544 1066,5548 1201,5610 1321,5684 1434,5806 1492,5937 1525,6035 1432,6099 1313,6105 1178,6081 1045,6010 930,5880 893,5745 886,5619 935,5501 1001,5392 1081,5384 1216,5438 1340,5528 1441,5663 1450,5780 1382,5805 1249,5824 1115,5780 987,5651 946,5519 916,5384 906,5259 958,5152 1041,5073 1151,5035 1281,5024 1416,5112 1519,5228 1589,5349 1650,5471 1709,5606 1721,5732 1671,5855 1614,5959 1527,6024 1408,5942 1300,5829 1225,5695 1204,5571 1259,5460 1337,5388 1452,5321 1570,5294 1703,5280 1838,5376 1934,5503 1982,5628 1929,5726 1835,5807 1726,5839 1594,5854 1459,5818 1328,5733 1222,5641 1122,5527 1048,5394 1020,5268 1071,5252 1206,5343 1307,5465 1367,5599 1390,5728 1347,5851 1289,5971 1225,6087 1154,6197 1074,6299 984,6383 877,6439 753,6472 621,6489 486,6423 367,6287 362,6154 391,6130 525,6184 650,6260 763,6378 831,6513 849,6621 766,6694 651,6702 515,6623 404,6494 360,6362 326,6228 301,6093 282,5960 312,5832 359,5727 446,5717 582,5755 713,5814 836,5950 847,6064 772,6161 676,6239 564,6289 437,6315 303,6221 204,6105 132,5973 97,5840 66,5730 147,5688 277,5675 413,5696 548,5781 655,5912 694,6046 721,6174 673,6188 537,6111 424,5996 350,5861 328,5728 360,5596 396,5485 476,5423 598,5363 721,5312 848,5376 969,5500 1027,5630 1070,5766 1086,5901 1063,6021 997,6067 868,6107 737,6107 600,6106 463,6030 349,5893 347,5756 350,5619 354,5493 408,5456 540,5451 677,5480 811,5615 835,5752 841,5889 834,6025 816,6143 746,6242 651,6294 524,6338 394,6379 263,6413 130,6438 -5,6375 -127,6241 -157,6105 -176,5984 -111,5882 -19,5872 118,5944 235,6069 292,6180 211,6230 83,6163 -37,6072 -140,5936 -160,5801 -134,5789 3,5824 136,5914 240,6048 271,6167 202,6281 125,6355 9,6376 -127,6389 -264,6309 -376,6180 -424,6075 -335,6048 -200,6034 -63,6096 60,6220 120,6354 152,6487 116,6612 58,6627 -79,6561 -200,6485 -315,6350 -343,6219 -300,6093 -244,5995 -147,5949 -17,6045 82,6152 169,6272 237,6408 260,6509 166,6558 37,6558 -101,6557 -239,6555 -377,6552 -515,6535 -652,6449 -760,6330 -830,6195 -859,6057 -864,5921 -840,5818 -748,5740 -634,5665 -518,5613 -390,5595 -253,5639 -122,5702 1,5783 113,5868 222,5986 294,6108 359,6242 393,6378 418,6516 427,6653 408,6786 370,6915 320,6925 182,6870 55,6786 -55,6697 -161,6577 -230,6439 -241,6302 -221,6166 -195,6032 -160,5901 -115,5859 17,5912 145,5983 264,6113 312,6211 214,6308 115,6321 -23,6225 -123,6101 -185,5976 -245,5875 -150,5799 -34,5886 74,6000 153,6122 219,6251 270,6386 302,6520 266,6638 193,6741 100,6809 -21,6727 -133,6589 -148,6457 -105,6326 -59,6222 33,6182 166,6159 303,6143 441,6192 571,6283 676,6398 754,6515 829,6654 829,6793 828,6932 826,7071 823,7209 806,7315 716,7344 580,7368 443,7373 304,7308 181,7182 122,7050 78,6912 60,6773 53,6651 120,6540 204,6483 331,6449 466,6441 605,6466 742,6496 878,6534 1012,6603 1133,6701 1232,6809 1320,6937 1375,7038 1279,7048 1140,6953 1038,6841 955,6721 884,6582 873,6444 893,6307 919,6175 964,6046 1017,6004 1150,5973 1286,5961 1425,6040 1540,6165 1602,6289 1538,6349 1412,6388 1278,6409 1140,6317 1035,6198 962,6071 904,5961 990,5934 1127,5985 1257,6053 1379,6144 1485,6272 1541,6407 1577,6545 1599,6678 1556,6810 1510,6931 1440,7042 1355,7149 1265,7177 1128,7137 994,7083 865,6952 816,6814 793,6675 777,6555 849,6447 938,6384 1063,6323 1189,6323 1329,6324 1469,6423 1568,6523 1666,6663 1669,6802 1652,6806 1512,6739 1389,6643 1287,6534 1199,6406 1142,6303 1237,6297 1377,6338 1511,6407 1633,6547 1640,6683 1606,6796 1523,6846 1392,6854 1252,6799 1123,6712 1013,6619 908,6479 899,6340 918,6224 997,6118 1089,6065 1219,6020 1352,6106 1463,6220 1545,6345 1609,6477 1657,6604 1597,6711 1506,6777 1382,6789 1242,6750 1107,6692 979,6624 856,6493 805,6385 895,6300 1007,6222 1124,6166 1253,6236 1375,6311 1494,6447 1530,6584 1562,6724 1576,6824 1477,6913 1368,6959 1235,6862 1133,6732 1079,6600 1030,6462 1002,6358 1097,6270 1207,6207 1333,6146 1460,6223 1578,6303 1694,6440 1727,6545 1633,6612 1509,6538 1389,6397 1389,6256 1390,6115 1392,5975 1409,5846 1466,5802 1600,5778 1739,5825 1872,5960 1913,6067 1821,6073 1680,6055 1540,6021 1403,5942 1286,5823 1210,5687 1172,5549 1142,5408 1134,5269 1159,5154 1241,5135 1381,5126 1522,5179 1653,5243 1779,5370 1841,5504 1886,5632 1826,5674 1691,5626 1558,5541 1445,5402 1419,5262 1399,5121 1388,4983 1419,4865 1497,4749 1578,4646 1675,4557 1785,4482 1905,4412 2028,4508 2132,4638 2188,4778 2209,4919 2222,5033 2138,5144 2050,5216 1928,5262 1794,5305 1659,5319 1518,5297 1378,5217 1261,5098 1184,4962 1144,4835 1207,4709 1272,4648 1400,4633 1541,4720 1653,4835 1736,4956 1810,5085 1869,5217 1921,5357 1944,5495 1911,5619 1842,5656 1705,5599 1575,5464 1531,5325 1502,5183 1502,5041 1503,4899 1505,4758 1522,4755 1664,4779 1804,4820 1940,4902 2056,5033 2111,5166 2161,5304 2195,5405 2095,5504 1993,5602 1890,5687 1776,5751 1649,5813 1521,5747 1395,5615 1342,5486 1402,5375 1491,5297 1610,5229 1735,5184 1870,5142 2006,5237 2112,5367 2170,5488 2095,5523 1957,5549 1817,5569 1676,5538 1537,5444 1430,5332 1342,5199 1291,5068 1347,5056 1489,5128 1612,5269 1633,5387 1553,5464 1433,5477 1291,5390 1178,5258 1124,5123 1078,4987 1035,4859 1098,4732 1163,4683 1297,4669 1439,4730 1568,4797 1694,4934 1734,5064 1675,5092 1535,5023 1410,4881 1395,4767 1481,4715 1614,4794 1733,4894 1835,4997 1934,5114 2016,5235 2092,5377 2108,5488 2018,5532 1882,5485 1747,5345 1718,5202 1718,5059 1719,4953 1815,4936 1957,4986 2091,5127 2115,5270 2118,5413 2114,5556 2109,5695 2075,5823 2011,5943 1933,6061 1852,6099 1714,6106 1571,6076 1431,5935 1406,5813 1481,5697 1565,5584 1653,5539 1789,5520 1931,5568 2066,5661 2175,5798 2217,5937 2252,6080 2262,6221 2236,6353 2180,6472 2100,6582 2008,6669 1894,6746 1773,6663 1656,6520 1644,6409 1735,6307 1836,6207 1939,6144 2068,6098 2204,6062 2343,6049 2486,6110 2616,6250 2648,6385 2599,6490 2501,6559 2375,6480 2255,6349 2196,6211 2156,6068 2142,5926 2164,5792 2216,5685 2312,5614 2437,5557 2569,5542 2712,5627 2828,5722 2936,5835 3025,5977 3048,6120 3064,6253 3009,6362 2915,6443 2796,6521 2675,6521 2531,6520 2387,6503 2244,6479 2102,6417 1972,6333 1855,6240 1745,6096 1741,5969 1809,5846 1884,5812 2024,5807 2168,5845 2307,5989 2313,6132 2295,6258 2225,6288 2084,6295 1940,6237 1808,6095 1783,5958 1828,5822 1876,5720 1978,5648 2103,5629 2246,5706 2368,5806 2472,5950 2481,6090 2446,6225 2395,6235 2251,6209 2109,6178 1968,6035 1948,5911 2022,5900 2166,5997 2273,6126 2338,6256 2401,6390 2455,6518 2388,6626 2292,6705 2171,6751 2034,6772 1891,6745 1749,6709 1609,6660 1473,6601 1341,6506 1232,6389 1147,6263 1076,6124 1036,5989 1088,5975 1232,5997 1375,6091 1485,6224 1542,6366 1570,6491 1497,6611 1416,6689 1294,6726 1154,6759 1013,6782 870,6738 732,6683 598,6539 582,6403 632,6274 698,6150 773,6109 912,6080 1054,6148 1182,6250 1285,6354 1386,6486 1446,6629 1470,6774 1471,6919 1469,7064 1466,7205 1432,7326 1352,7364 1212,7369 1067,7311 934,7234 811,7108 739,6963 733,6821 763,6683 808,6546 856,6521 999,6563 1138,6708 1146,6842 1090,6956 1000,7065 904,7139 779,7174 638,7135 498,7053 378,6958 268,6829 201,6685 181,6550 235,6418 296,6303 385,6218 503,6142 627,6236 738,6374 784,6519 796,6658 753,6694 612,6721 469,6689 327,6596 215,6451 202,6311 242,6190 323,6117 449,6195 572,6279 691,6382 794,6486 896,6631 910,6736 809,6828 696,6728 590,6621 491,6483 444,6353 510,6289 641,6376 758,6505 826,6637 888,6774 938,6888 847,6929 707,6859 579,6776 459,6679 350,6555 273,6411 249,6284 321,6267 466,6267 612,6268 758,6270 904,6273 1050,6277 1196,6282 1342,6327 1481,6375 1619,6518 1649,6664 1655,6808 1630,6948 1588,7069 1506,7148 1383,7059 1267,6965 1155,6846 1070,6716 1003,6584 940,6438 931,6313 1007,6244 1136,6183 1269,6129 1405,6119 1551,6212 1664,6315 1768,6420 1870,6537 1958,6671 2017,6809 2066,6949 2109,7069 2025,7142 1898,7178 1756,7205 1612,7226 1467,7194 1324,7137 1189,6996 1149,6850 1136,6732 1223,6657 1349,6748 1464,6845 1574,6991 1588,7122 1522,7186 1390,7241 1254,7173 1124,7093 1001,7010 880,6877 818,6737 774,6626 870,6593 1013,6578 1159,6628 1297,6705 1422,6795 1538,6914 1624,7055 1665,7183 1593,7295 1498,7311 1352,7282 1208,7229 1071,7171 936,7026 912,6880 895,6738 933,6738 1080,6739 1227,6741 1374,6820 1498,6967 1501,7114 1497,7250 1441,7355 1338,7385 1194,7403 1048,7409 901,7344 769,7277 638,7201 512,7068 449,6938 518,6830 618,6742 736,6734 883,6769 1026,6830 1160,6901 1289,7038 1343,7153 1251,7234 1128,7265 984,7291 839,7193 729,7058 670,6911 660,6783 733,6737 873,6786 1012,6873 1131,6964 1247,7100 1304,7238 1356,7385 1368,7530 1341,7551 1195,7519 1051,7479 909,7396 787,7272 707,7125 694,6993 760,6862 828,6745 918,6632 1013,6546 1133,6476 1263,6462 1410,6490 1555,6534 1696,6677 1733,6816 1683,6951 1623,7065 1529,7080 1382,6976 1277,6870 1174,6763 1072,6635 998,6488 982,6343 1011,6228 1104,6119 1204,6085 1348,6123 1491,6270 1508,6380 1409,6428 1269,6429 1121,6384 980,6236 978,6088 981,5955 1046,5839 1138,5770 1269,5707 1403,5665 1545,5660 1693,5678 1840,5759 1964,5843 2086,5973 2157,6108 2218,6256 2225,6394 2171,6429 2027,6437 1879,6350 1759,6259 1642,6123 1583,5975 1574,5830 1605,5804 1751,5850 1892,5899 2032,6047 2042,6194 2022,6336 1979,6473 1922,6587 1827,6677 1709,6757 1584,6793 1440,6707 1319,6574 1253,6426 1241,6281 1273,6176 1378,6072 1484,5969 1591,5875 1706,5977 1814,6112 1876,6260 1889,6379 1800,6451 1670,6498 1529,6520 1382,6460 1246,6378 1122,6285 1006,6163 921,6018 888,5889 962,5778 1061,5763 1209,5804 1352,5862 1489,6009 1512,6129 1424,6241 1326,6333 1209,6362 1063,6378 915,6311 782,6173 726,6028 692,5881 668,5756 749,5711 891,5694 1039,5757 1174,5897 1225,6046 1226,6195 1224,6344 1221,6458 1125,6536 998,6566 852,6570 703,6565 554,6547 406,6474 276,6327 251,6178 245,6029 252,5885 291,5766 381,5659 485,5584 614,5687 722,5813 802,5959 833,6101 787,6242 738,6351 636,6445 520,6502 382,6545 239,6555 90,6535 -58,6469 -192,6401 -325,6312 -445,6163 -456,6031 -386,5991 -242,5964 -95,5996 51,6068 182,6207 237,6332 155,6455 70,6515 -67,6528 -216,6481 -358,6407 -488,6266 -538,6123 -582,5975 -604,5828 -576,5683 -539,5669 -390,5702 -244,5760 -106,5900 -53,6044 -12,6193 3,6317 -81,6340 -229,6259 -355,6163 -470,6044 -561,5910 -628,5775 -693,5653 -606,5597 -467,5660 -331,5738 -203,5883 -165,6029 -131,6172 -176,6280 -280,6375 -396,6426 -537,6443 -686,6443 -836,6442 -986,6440 -1136,6437 -1286,6354 -1411,6214 -1465,6103 -1364,6009 -1247,5929 -1120,5923 -970,5958 -824,6058 -712,6203 -673,6353 -666,6502 -685,6510 -835,6464 -978,6407 -1117,6314 -1235,6180 -1303,6045 -1369,5904 -1421,5771 -1351,5707 -1215,5697 -1065,5717 -916,5789 -784,5935 -748,6072 -810,6083 -960,6043 -1105,5955 -1227,5808 -1259,5693 -1162,5619 -1031,5598 -882,5586 -732,5633 -589,5683 -447,5833 -434,5977 -478,6107 -554,6232 -638,6339 -744,6367 -892,6262 -1000,6135 -1081,5985 -1095,5876 -991,5789 -868,5748 -723,5851 -613,5968 -518,6102 -449,6238 -384,6388 -369,6537 -392,6677 -448,6814 -511,6935 -601,7047 -702,7120 -834,7136 -984,7098 -1130,7053 -1274,7002 -1416,6902 -1529,6778 -1615,6629 -1639,6501 -1559,6426 -1428,6384 -1283,6438 -1142,6589 -1142,6740 -1143,6888 -1173,7010 -1262,7129 -1355,7133 -1506,7115 -1656,7090 -1805,7013 -1935,6866 -1970,6715 -1976,6575 -1919,6450 -1834,6384 -1698,6466 -1571,6600 -1501,6750 -1482,6870 -1574,6986 -1671,7038 -1813,6966 -1946,6821 -1989,6672 -2015,6521 -2024,6383 -1962,6276 -1855,6170 -1747,6160 -1596,6196 -1449,6251 -1308,6355 -1198,6494 -1138,6645 -1127,6793 -1159,6904 -1262,6988 -1388,7064 -1519,7085 -1669,7097 -1820,6995 -1932,6877 -2027,6732 -2071,6592 -2013,6479 -1912,6426 -1770,6389 -1623,6367 -1473,6395 -1324,6464 -1189,6612 -1156,6749 -1221,6863 -1321,6957 -1440,7020 -1578,7076 -1719,7003 -1852,6917 -1977,6818 -2092,6668 -2115,6524 -2067,6395 -1987,6334 -1848,6409 -1716,6498 -1593,6645 -1555,6796 -1539,6944 -1573,6968 -1723,6926 -1869,6867 -2009,6790 -2140,6693 -2257,6567 -2342,6415 -2342,6263 -2341,6111 -2339,5959 -2336,5850 -2230,5762 -2106,5692 -1971,5657 -1823,5696 -1676,5745 -1532,5809 -1394,5888 -1264,5991 -1152,6140 -1121,6286 -1164,6294 -1316,6192 -1429,6042 -1455,5890 -1464,5771 -1369,5716 -1227,5803 -1102,5904 -988,6036 -912,6187 -892,6316 -973,6326 -1125,6286 -1272,6186 -1387,6063 -1477,5918 -1524,5774 -1474,5753 -1323,5811 -1182,5963 -1170,6109 -1214,6245 -1283,6312 -1420,6241 -1555,6103 -1620,5977 -1534,5894 -1406,5866 -1256,5844 -1105,5877 -956,5975 -839,6099 -750,6229 -670,6362 -595,6502 -534,6610 -642,6658 -787,6681 -938,6584 -1056,6478 -1166,6334 -1217,6188 -1262,6077 -1157,5985 -1035,5908 -903,5993 -776,6142 -742,6294 -726,6435 -785,6564 -867,6689 -955,6731 -1102,6755 -1253,6652 -1366,6515 -1434,6379 -1364,6265 -1262,6186 -1131,6114 -996,6113 -843,6115 -690,6179 -551,6332 -548,6485 -552,6636 -577,6654 -729,6608 -875,6455 -880,6311 -828,6171 -766,6045 -679,5929 -579,5886 -432,5855 -282,5836 -130,5828 23,5883 166,5973 290,6067 411,6208 471,6361 480,6510 444,6658 404,6790 326,6800 173,6768 23,6721 -123,6663 -265,6594 -402,6501 -524,6365 -595,6221 -648,6082 -583,5972 -476,5960 -323,6033 -188,6139 -77,6270 3,6410 66,6559 103,6712 116,6846 41,6959 -63,6981 -215,6948 -365,6856 -488,6715 -549,6562 -563,6434 -478,6314 -382,6237 -249,6189 -103,6271 27,6416 78,6531 -24,6554 -176,6569 -329,6540 -480,6502 -629,6448 -773,6298 -807,6174 -716,6095 -584,6190 -463,6328 -395,6465 -465,6531 -604,6555 -756,6455 -873,6315 -937,6186 -853,6059 -766,5985 -631,5985 -477,5986 -323,5988 -169,6027 -20,6073 127,6125 272,6201 406,6354 424,6508 429,6662 423,6810 380,6954 325,7063 216,7171 106,7269 -13,7288 -166,7210 -299,7117 -422,7011 -534,6881 -617,6768 -512,6732 -362,6723 -208,6763 -59,6832 79,6929 199,7066 270,7180 166,7238 23,7288 -123,7335 -270,7255 -402,7119 -475,6967 -502,6822 -449,6811 -295,6855 -147,6918 -6,7014 115,7116 231,7245 316,7395 353,7539 297,7666 209,7707 60,7720 -94,7692 -246,7659 -397,7506 -419,7381 -328,7259 -233,7245 -79,7293 68,7344 214,7444 332,7592 377,7735 318,7758 165,7773 11,7735 -139,7667 -278,7595 -415,7511 -545,7360 -579,7241 -480,7147 -357,7073 -221,7163 -95,7304 -31,7414 -140,7522 -251,7629 -363,7705 -498,7735 -650,7752 -804,7690 -946,7543 -995,7395 -1041,7245 -1080,7090 -1080,6935 -1079,6780 -1077,6625 -1074,6496 -988,6418 -854,6414 -699,6474 -556,6557 -425,6712 -419,6864 -450,6871 -605,6852 -759,6783 -898,6712 -1036,6632 -1169,6530 -1286,6379 -1322,6242 -1249,6120 -1153,6055 -1012,6005 -865,5958 -717,5938 -563,6013 -427,6098 -297,6186 -169,6328 -106,6477 -62,6630 -35,6785 -24,6917 -106,7040 -201,7131 -327,7187 -472,7199 -627,7162 -778,7121 -928,6969 -961,6814 -974,6680 -895,6570 -785,6471 -665,6580 -554,6692 -446,6821 -359,6945 -453,7029 -584,6922 -697,6783 -767,6643 -835,6494 -880,6356 -808,6229 -718,6115 -612,6049 -471,6011 -320,5982 -167,6016 -15,6058 135,6134 271,6227 396,6382 412,6536 388,6679 326,6809 240,6926 137,7015 9,7093 -126,7145 -273,7162 -428,7116 -577,6965 -616,6847 -514,6812 -362,6812 -206,6813 -50,6815 106,6840 260,6936 383,7086 426,7242 430,7376 350,7445 210,7374 71,7233 4,7077 -2,6939 71,6810 159,6725 290,6660 432,6634 586,6709 723,6809 843,6933 938,7081 988,7230 1035,7363 953,7372 797,7319 650,7209 539,7097 430,6984 322,6834 278,6713 377,6599 484,6543 630,6532 786,6626 911,6761 990,6891 903,6928 751,6940 595,6835 479,6684 438,6556 528,6434 626,6401 779,6373 933,6360 1089,6419 1234,6574 1256,6708 1175,6782 1037,6836 890,6850 734,6747 616,6624 519,6487 443,6335 405,6180 382,6026 411,6011 567,6100 696,6202 815,6335 898,6471 976,6627 992,6754 900,6874 799,6923 650,6871 502,6721 456,6569 417,6416 382,6276 453,6165 564,6055 676,5970 808,5897 947,5830 1089,5827 1246,5845 1402,5936 1530,6074 1605,6217 1670,6371 1701,6517 1643,6639 1544,6755 1438,6774 1282,6781 1125,6755 970,6715 818,6652 674,6502 627,6376 721,6323 869,6428 986,6559 1073,6682 975,6702 819,6658 668,6554 550,6425 460,6292 376,6147 315,5990 305,5835 332,5716 435,5695 591,5732 744,5802 885,5874 1025,5971 1149,6106 1230,6248 1298,6405 1310,6551 1251,6602 1102,6650 952,6683 798,6711 643,6724 486,6702 330,6613 200,6462 155,6318 219,6193 315,6072 416,5989 550,6081 678,6218 756,6365 813,6521 836,6676 807,6828 765,6973 703,7007 549,7022 392,6913 278,6791 178,6676 286,6596 422,6547 572,6531 729,6555 885,6640 1018,6786 1078,6937 1124,7078 1053,7195 947,7268 807,7307 654,7324 497,7289 343,7214 204,7132 69,6980 26,6824 1,6666 1,6508 2,6350 4,6192 7,6073 111,5975 235,5944 390,5939 548,6026 680,6171 743,6321 793,6474 833,6631 852,6787 826,6794 668,6786 510,6693 382,6596 257,6450 196,6302 140,6144 131,5987 151,5851 232,5781 374,5754 530,5822 673,5896 813,5985 944,6086 1066,6198 1178,6311 1289,6437 1385,6551 1275,6627 1136,6678 986,6726 835,6617 720,6459 708,6304 741,6155 795,6039 903,5975 1048,6053 1186,6153 1309,6310 1331,6427 1224,6484 1076,6389 949,6283 831,6151 743,6014 663,5861 621,5705 592,5548 569,5393 603,5274 708,5259 866,5308 1017,5360 1167,5431 1309,5578 1369,5721 1300,5841 1196,5935 1068,6010 928,6065 779,5967 654,5811 624,5657 663,5512 728,5495 886,5538 1039,5628 1170,5776 1228,5933 1253,6092 1253,6251 1252,6410 1250,6568 1232,6697 1139,6728 983,6678 832,6519 827,6369 880,6256 992,6216 1146,6210 1305,6246 1460,6356 1575,6479 1676,6628 1732,6781 1776,6923 1704,6993 1561,6907 1427,6799 1310,6658 1236,6514 1168,6355 1159,6197 1179,6079 1286,5979 1410,5952 1567,5942 1726,6001 1874,6156 1911,6310 1870,6461 1819,6600 1741,6648 1589,6553 1461,6407 1397,6257 1343,6101 1310,5976 1409,5888 1542,5843 1695,5934 1826,6072 1906,6230 1928,6389 1941,6536 1879,6657 1775,6695 1620,6709 1461,6667 1307,6596 1164,6440 1130,6282 1107,6138 1176,6078 1324,6026 1475,6011 1634,6078 1779,6168 1911,6302 1998,6442 2075,6565 1973,6581 1814,6484 1687,6372 1573,6226 1508,6071 1469,5914 1439,5778 1523,5662 1633,5627 1789,5706 1928,5855 1986,6014 2003,6138 1902,6201 1755,6093 1637,5935 1612,5775 1612,5615 1613,5455 1615,5296 1633,5293 1793,5324 1950,5484 1954,5637 1907,5772 1821,5903 1729,5939 1573,5867 1430,5761 1310,5619 1236,5460 1217,5300 1210,5146 1254,5005 1330,4868 1413,4860 1573,4955 1702,5101 1768,5258 1800,5384 1701,5404 1542,5345 1393,5267 1253,5109 1226,4949 1216,4793 1253,4638 1294,4485 1342,4334 1396,4195 1476,4174 1635,4272 1762,4402 1856,4559 1889,4713 1844,4725 1684,4697 1526,4640 1376,4527 1262,4389 1180,4229 1167,4085 1238,3942 1311,3818 1413,3749 1558,3707 1713,3804 1841,3939 1928,4099 1942,4248 1882,4394 1815,4446 1663,4495 1510,4510 1350,4455 1199,4301 1153,4154 1218,4014 1297,3894 1404,3878 1564,3902 1723,3932 1881,3995 2029,4150 2072,4276 1972,4397 1866,4478 1727,4386 1595,4226 1578,4090 1664,4065 1823,4115 1976,4168 2128,4240 2272,4401 2272,4562 2271,4722 2253,4880 2222,5007 2123,5090 1985,5130 1829,5134 1668,5066 1522,4962 1399,4801 1394,4640 1400,4480 1419,4333 1485,4198 1573,4065 1664,4006 1814,3998 1975,4030 2133,4144 2247,4259 2360,4390 2454,4530 2534,4691 2543,4850 2516,5006 2475,5043 2318,4995 2164,4834 2154,4716 2264,4614 2389,4593 2549,4582 2710,4644 2859,4741 2988,4899 3021,5033 2931,5153 2823,5240 2687,5311 2542,5218 2410,5075 2335,4929 2266,4769 2244,4608 2231,4451 2269,4304 2336,4166 2420,4114 2573,4210 2703,4364 2752,4522 2786,4681 2815,4841 2838,4996 2792,5131 2703,5264 2611,5387 2506,5468 2366,5526 2215,5565 2058,5589 1898,5605 1737,5575 1578,5532 1422,5437 1291,5279 1256,5155 1360,5083 1505,5066 1666,5140 1810,5286 1880,5439 1933,5589 1872,5732 1796,5849 1684,5952 1559,6043 1425,6131 1289,6162 1130,6162 968,6161 806,6159 644,6119 487,5957 484,5795 488,5676 598,5591 736,5547 892,5521 1052,5515 1214,5595 1355,5746 1414,5908 1421,6057 1357,6178 1249,6186 1087,6089 957,5935 906,5774 886,5634 968,5499 1058,5451 1213,5410 1370,5373 1528,5460 1665,5610 1727,5762 1784,5907 1711,5978 1565,6023 1409,6044 1248,6055 1086,6022 927,5938 788,5795 711,5635 683,5473 671,5325 738,5201 843,5122 985,5084 1143,5071 1305,5160 1441,5252 1575,5401 1640,5554 1695,5713 1729,5875 1743,6035 1714,6176 1633,6308 1538,6423 1423,6537 1307,6650 1190,6762 1072,6825 922,6714 803,6588 700,6448 617,6287 593,6130 636,5984 708,5839 782,5709 880,5618 1015,5548 1162,5624 1306,5712 1443,5821 1564,5954 1658,6102 1726,6264 1743,6420 1696,6559 1611,6681 1503,6747 1354,6778 1194,6738 1036,6576 1018,6413 1018,6250 1019,6087 1021,5928 1057,5805 1164,5704 1292,5699 1455,5763 1605,5924 1631,6086 1650,6210 1544,6297 1406,6304 1243,6272 1083,6221 928,6167 774,6004 766,5848 814,5719 914,5699 1076,5740 1234,5811 1381,5895 1521,6048 1578,6196 1509,6206 1346,6161 1189,6046 1073,5929 959,5794 867,5657 778,5531 882,5413 995,5314 1125,5254 1277,5226 1438,5214 1601,5309 1734,5448 1820,5568 1709,5649 1567,5691 1409,5639 1254,5483 1205,5320 1192,5166 1247,5132 1407,5103 1568,5089 1731,5152 1882,5305 1940,5441 1849,5569 1747,5663 1613,5735 1466,5750 1303,5674 1158,5515 1119,5367 1189,5324 1347,5300 1509,5330 1670,5365 1830,5462 1962,5617 2015,5773 2065,5902 1964,5982 1821,6038 1667,5972 1517,5815 1470,5690 1576,5600 1713,5693 1848,5852 1888,6013 1919,6155 1837,6294 1750,6312 1587,6312 1423,6311 1259,6309 1095,6204 969,6071 873,5907 869,5790 984,5676 1102,5671 1266,5690 1429,5854 1435,6010 1384,6157 1311,6303 1236,6423 1124,6527 997,6589 845,6637 688,6560 543,6468 407,6369 276,6231 187,6071 150,5909 123,5745 114,5611 209,5489 319,5422 469,5525 597,5665 683,5818 743,5979 776,6143 787,6294 722,6426 624,6550 516,6588 356,6546 197,6497 40,6414 -102,6320 -237,6181 -325,6029 -388,5904 -281,5870 -120,5916 38,5990 185,6138 257,6302 271,6465 248,6614 178,6755 93,6833 -52,6727 -178,6567 -217,6417 -149,6356 4,6436 148,6526 286,6619 422,6780 457,6937 407,6953 243,6848 116,6734 -3,6603 -103,6463 -190,6329 -94,6247 49,6230 213,6255 376,6314 530,6378 682,6489 804,6648 848,6812 866,6977 866,7142 865,7307 863,7455 790,7602 715,7606 550,7535 401,7458 255,7363 120,7207 66,7054 128,6930 237,6861 387,6940 532,7098 580,7263 587,7404 501,7445 341,7453 176,7416 15,7318 -118,7154 -138,7010 -57,6983 106,7085 236,7244 281,7398 221,7536 130,7601 -22,7507 -158,7345 -191,7181 -212,7038 -129,6898 -41,6887 124,6915 287,6970 443,7071 574,7231 616,7392 654,7557 666,7710 603,7858 529,8005 453,8124 338,8209 196,8222 31,8108 -89,7949 -135,7787 -169,7659 -64,7538 49,7445 186,7355 325,7455 457,7600 537,7722 425,7783 271,7687 136,7526 97,7366 140,7225 227,7096 331,7043 488,7109 640,7267 690,7429 725,7593 749,7717 639,7733 474,7686 315,7622 162,7513 37,7375 -55,7245 48,7228 213,7253 377,7328 525,7477 598,7637 642,7784 565,7910 457,7981 307,7999 142,7999 -24,7998 -190,7996 -356,7927 -507,7825 -638,7661 -664,7534 -557,7529 -391,7577 -232,7658 -87,7824 -81,7987 -113,8148 -154,8285 -248,8403 -365,8519 -484,8625 -612,8726 -744,8823 -879,8832 -1045,8719 -1167,8553 -1177,8390 -1144,8261 -1039,8209 -881,8321 -758,8464 -673,8613 -599,8777 -571,8936 -620,9086 -692,9149 -846,9187 -1008,9087 -1141,8949 -1234,8825 -1123,8735 -983,8665 -832,8643 -667,8739 -531,8843 -401,8953 -276,9105 -208,9247 -295,9276 -459,9215 -614,9133 -759,8967 -773,8802 -750,8668 -651,8602 -498,8559 -337,8612 -179,8771 -129,8928 -185,9072 -269,9199 -377,9294 -514,9324 -678,9348 -843,9259 -984,9099 -1031,8933 -1047,8777 -988,8628 -913,8496 -811,8398 -676,8321 -528,8250 -377,8210 -215,8193 -49,8311 69,8430 186,8550 302,8711 346,8874 382,8995 267,9057 112,8976 -34,8882 -172,8742 -263,8583 -314,8416 -314,8249 -313,8082 -311,7915 -308,7750 -282,7590 -234,7454 -137,7366 5,7283 150,7264 316,7296 480,7337 642,7397 798,7560 835,7714 770,7839 659,7847 492,7820 327,7720 193,7576 108,7409 99,7259 173,7110 249,6969 339,6832 435,6754 583,6699 741,6762 896,6928 917,7088 868,7240 798,7282 636,7310 471,7321 304,7283 141,7196 -2,7097 -137,6994 -269,6833 -315,6667 -337,6539 -229,6505 -65,6566 91,6733 104,6873 12,6902 -153,6807 -291,6653 -357,6508 -273,6366 -184,6246 -67,6139 62,6037 195,6153 316,6289 414,6411 299,6426 132,6391 -32,6316 -182,6239 -331,6153 -475,6047 -605,5934 -729,5800 -830,5659 -921,5496 -961,5343 -892,5206 -795,5144 -639,5119 -473,5150 -308,5186 -144,5274 -1,5385 125,5545 176,5699 109,5756 -49,5756 -217,5755 -385,5753 -553,5643 -680,5477 -706,5309 -709,5141 -705,4973 -700,4806 -681,4668 -585,4578 -443,4541 -279,4586 -117,4754 -110,4904 -186,4978 -337,5005 -503,5013 -671,4993 -838,4894 -974,4791 -1107,4643 -1187,4487 -1250,4328 -1305,4175 -1235,4142 -1070,4191 -909,4309 -789,4467 -731,4634 -710,4797 -752,4951 -820,5092 -912,5231 -1007,5361 -1114,5484 -1229,5586 -1363,5598 -1531,5537 -1688,5453 -1834,5355 -1971,5200 -2037,5032 -2050,4907 -1937,4801 -1806,4748 -1646,4709 -1482,4686 -1315,4672 -1147,4722 -986,4797 -835,4874 -685,5030 -621,5182 -694,5322 -788,5401 -937,5460 -1095,5475 -1263,5440 -1428,5393 -1590,5227 -1620,5060 -1644,4906 -1575,4762 -1487,4634 -1377,4572 -1220,4532 -1056,4615 -909,4719 -776,4887 -759,5054 -784,5214 -838,5245 -1004,5209 -1169,5158 -1330,5101 -1489,5005 -1628,4859 -1713,4697 -1761,4554 -1671,4434 -1552,4433 -1383,4493 -1225,4596 -1091,4733 -992,4855 -1109,4931 -1260,5005 -1412,4927 -1562,4811 -1685,4642 -1690,4489 -1618,4344 -1531,4338 -1362,4418 -1213,4525 -1082,4679 -1012,4836 -949,4961 -1063,4981 -1231,4989 -1400,4907 -1548,4805 -1683,4636 -1692,4470 -1659,4332 -1561,4264 -1406,4353 -1262,4459 -1130,4628 -1120,4796 -1141,4961 -1179,5088 -1291,5099 -1460,5053 -1623,4987 -1779,4886 -1915,4775 -2043,4607 -2065,4441 -2031,4308 -1926,4214 -1785,4139 -1633,4086 -1472,4142 -1312,4215 -1159,4294 -1009,4456 -959,4620 -916,4785 -877,4953 -854,5122 -840,5281 -899,5426 -987,5560 -1091,5607 -1254,5642 -1420,5657 -1589,5627 -1756,5544 -1904,5424 -2024,5303 -2143,5181 -2261,5039 -2354,4899 -2258,4883 -2089,5000 -1966,5131 -1858,5295 -1814,5442 -1899,5586 -1989,5640 -2150,5691 -2312,5716 -2480,5733 -2649,5697 -2815,5583 -2941,5451 -3048,5294 -3113,5142 -3037,5082 -2878,5064 -2709,5177 -2582,5313 -2480,5483 -2479,5653 -2481,5818 -2522,5821 -2692,5789 -2859,5619 -2863,5455 -2818,5436 -2649,5431 -2479,5543 -2351,5701 -2288,5871 -2282,6032 -2337,6084 -2499,6091 -2669,6064 -2837,5996 -2993,5827 -3013,5698 -2902,5640 -2742,5591 -2579,5558 -2412,5549 -2242,5591 -2077,5685 -1935,5844 -1874,6001 -1940,6029 -2108,5932 -2248,5768 -2294,5624 -2203,5613 -2033,5690 -1881,5843 -1806,5978 -1910,6109 -2019,6209 -2157,6282 -2311,6335 -2473,6279 -2634,6215 -2792,6134 -2942,6017 -3066,5862 -3137,5699 -3187,5534 -3230,5368 -3269,5208 -3210,5076 -3102,4993 -2953,4979 -2783,5048 -2627,5141 -2484,5256 -2358,5392 -2255,5559 -2220,5698 -2319,5728 -2487,5743 -2657,5658 -2805,5489 -2829,5332 -2762,5204 -2649,5164 -2483,5218 -2321,5383 -2277,5546 -2328,5683 -2430,5770 -2577,5846 -2730,5871 -2899,5793 -3051,5698 -3193,5592 -3327,5448 -3419,5297 -3499,5157 -3401,5085 -3246,5196 -3116,5346 -3034,5502 -2964,5668 -2923,5839 -2923,6010 -2924,6181 -2926,6349 -2958,6514 -3003,6663 -3087,6700 -3254,6719 -3424,6724 -3595,6669 -3757,6601 -3914,6430 -3920,6309 -3799,6189 -3677,6095 -3534,6068 -3365,6117 -3201,6203 -3053,6312 -2921,6457 -2830,6593 -2934,6626 -3102,6509 -3227,6351 -3293,6191 -3354,6020 -3363,5894 -3247,5856 -3080,5933 -2927,6087 -2852,6256 -2824,6403 -2912,6530 -3027,6611 -3178,6682 -3334,6735 -3497,6769 -3665,6791 -3835,6803 -4006,6720 -4156,6556 -4206,6416 -4107,6357 -3946,6314 -3780,6275 -3613,6365 -3467,6514 -3382,6684 -3359,6849 -3406,6863 -3577,6801 -3737,6699 -3875,6531 -3910,6373 -3843,6238 -3737,6223 -3566,6310 -3418,6405 -3275,6575 -3251,6706 -3362,6804 -3503,6896 -3648,6972 -3802,7029 -3964,7080 -4128,7006 -4283,6926 -4435,6767 -4500,6599 -4536,6438 -4476,6299 -4375,6167 -4265,6045 -4144,5925 -4021,5836 -3874,5955 -3750,6080 -3632,6230 -3548,6401 -3530,6561 -3593,6694 -3702,6788 -3846,6691 -3988,6521 -4014,6355 -3969,6355 -3797,6356 -3625,6358 -3453,6361 -3281,6416 -3118,6502 -2969,6602 -2829,6773 -2810,6935 -2868,7063 -2983,7171 -3117,7220 -3282,7247 -3452,7254 -3624,7188 -3783,7017 -3803,6856 -3742,6702 -3665,6554 -3577,6475 -3424,6433 -3257,6424 -3085,6462 -2917,6575 -2787,6741 -2741,6886 -2834,7027 -2933,7055 -3103,6984 -3260,6824 -3324,6661 -3380,6514 -3290,6480 -3121,6458 -2950,6446 -2778,6552 -2642,6719 -2599,6889 -2570,7057 -2609,7070 -2781,6975 -2925,6814 -2987,6672 -2889,6549 -2768,6429 -2644,6337 -2498,6302 -2329,6412 -2196,6549 -2091,6703 -2013,6858 -1937,7030 -1922,7194 -1976,7218 -2147,7161 -2310,6993 -2350,6826 -2306,6661 -2255,6509 -2173,6437 -2016,6546 -1882,6662 -1754,6824 -1694,6993 -1658,7136 -1755,7274 -1859,7368 -2004,7438 -2162,7463 -2333,7480 -2505,7380 -2646,7272 -2781,7125 -2872,6975 -2958,6816 -3026,6644 -3044,6477 -2999,6451 -2828,6506 -2664,6676 -2632,6849 -2632,7022 -2633,7195 -2635,7368 -2638,7541 -2642,7685 -2738,7762 -2893,7828 -3053,7877 -3219,7802 -3375,7709 -3521,7597 -3653,7444 -3734,7287 -3807,7115 -3827,6947 -3785,6914 -3615,6906 -3442,6996 -3294,7102 -3157,7213 -3024,7335 -2901,7459 -2780,7584 -2660,7735 -2575,7908 -2565,8072 -2621,8125 -2786,8006 -2912,7847 -2981,7684 -3040,7541 -2942,7407 -2832,7385 -2660,7472 -2510,7564 -2363,7665 -2222,7827 -2160,7987 -2227,8116 -2343,8163 -2510,8054 -2645,7899 -2723,7743 -2799,7571 -2822,7417 -2742,7268 -2653,7138 -2538,7056 -2385,7160 -2246,7325 -2192,7489 -2249,7650 -2314,7808 -2386,7954 -2480,7969 -2653,7918 -2819,7834 -2971,7665 -3011,7523 -2911,7463 -2748,7533 -2589,7624 -2441,7737 -2309,7907 -2273,8058 -2359,8089 -2530,8114 -2702,8051 -2864,7944 -3001,7784 -3069,7651 -2957,7555 -2812,7514 -2643,7602 -2493,7770 -2448,7935 -2503,7953 -2676,7860 -2823,7738 -2947,7582 -3024,7427 -2945,7390 -2775,7465 -2618,7585 -2492,7719 -2381,7857 -2275,7998 -2173,8161 -2112,8335 -2108,8493 -2181,8646 -2264,8795 -2354,8923 -2472,8929 -2646,8902 -2818,8831 -2977,8721 -3112,8569 -3197,8398 -3230,8224 -3238,8078 -3143,8040 -2973,8145 -2834,8261 -2704,8435 -2695,8600 -2751,8742 -2852,8834 -3000,8921 -3151,8931 -3325,8872 -3489,8757 -3620,8590 -3670,8419 -3704,8250 -3661,8087 -3599,7947 -3495,7815 -3381,7726 -3231,7646 -3076,7599 -2908,7696 -2763,7850 -2681,8024 -2668,8167 -2768,8300 -2881,8384 -3034,8419 -3205,8354 -3367,8188 -3421,8023 -3364,7874 -3273,7844 -3101,7895 -2934,8002 -2796,8166 -2736,8335 -2692,8505 -2652,8679 -2637,8852 -2661,8977 -2783,9098 -2909,9146 -3077,9026 -3204,8880 -3300,8709 -3336,8546 -3273,8385 -3205,8250 -3094,8157 -2946,8132 -2773,8238 -2634,8356 -2505,8498 -2403,8654 -2324,8811 -2247,8977 -2192,9146 -2147,9311 -2205,9363 -2372,9253 -2508,9103 -2598,8949 -2681,8777 -2713,8606 -2676,8442 -2615,8302 -2510,8301 -2335,8303 -2160,8306 -1985,8325 -1811,8396 -1651,8511 -1519,8648 -1410,8821 -1383,8996 -1377,9166 -1419,9329 -1483,9481 -1570,9488 -1745,9468 -1919,9422 -2088,9353 -2249,9239 -2382,9064 -2390,8898 -2334,8757 -2230,8704 -2063,8695 -1888,8803 -1750,8976 -1722,9150 -1701,9301 -1790,9351 -1958,9361 -2133,9294 -2295,9214 -2451,9120 -2599,8945 -2610,8775 -2567,8651 -2443,8528 -2318,8454 -2159,8432 -1985,8471 -1814,8583 -1679,8704 -1552,8858 -1468,9000 -1571,9091 -1721,9163 -1881,9228 -2044,9109 -2173,8956 -2259,8784 -2294,8648 -2183,8578 -2022,8696 -1892,8843 -1796,8988 -1895,9018 -2068,8974 -2238,8803 -2278,8651 -2190,8502 -2097,8478 -1923,8580 -1780,8744 -1717,8906 -1785,9043 -1895,9175 -2011,9191 -2186,9160 -2359,9083 -2517,9002 -2673,8912 -2824,8807 -2965,8692 -3098,8546 -3196,8375 -3237,8205 -3192,8037 -3140,7877 -3067,7733 -2966,7648 -2812,7587 -2647,7569 -2472,7595 -2298,7627 -2125,7676 -1956,7768 -1806,7944 -1806,8120 -1807,8273 -1894,8415 -1998,8554 -2106,8573 -2281,8577 -2457,8464 -2592,8340 -2717,8214 -2840,8038 -2846,7911 -2724,7865 -2554,7832 -2381,7812 -2206,7850 -2034,7903 -1866,7962 -1700,8074 -1564,8194 -1435,8352 -1357,8509 -1437,8585 -1596,8652 -1759,8680 -1933,8630 -2102,8455 -2123,8290 -2061,8130 -1987,7975 -1903,7824 -1812,7693 -1694,7582 -1557,7571 -1381,7610 -1209,7657 -1039,7743 -885,7860 -753,8001 -647,8149 -551,8313 -486,8480 -429,8648 -375,8810 -445,8943 -561,9036 -711,9124 -864,9159 -1037,9099 -1203,8930 -1254,8754 -1268,8580 -1238,8409 -1194,8275 -1079,8235 -907,8340 -765,8503 -697,8668 -634,8843 -610,8982 -719,9072 -871,9151 -1029,9228 -1188,9130 -1335,9016 -1470,8860 -1553,8711 -1458,8695 -1282,8726 -1108,8781 -940,8854 -779,8978 -653,9145 -595,9272 -718,9380 -858,9484 -1001,9529 -1172,9407 -1300,9241 -1361,9112 -1240,9025 -1086,8988 -913,8956 -739,8930 -564,9027 -416,9127 -270,9292 -206,9423 -325,9423 -502,9422 -679,9420 -856,9326 -1006,9150 -1025,8973 -1028,8796 -1024,8624 -982,8597 -807,8643 -636,8699 -468,8779 -310,8890 -172,9057 -113,9230 -75,9406 -55,9583 -48,9747 -115,9903 -199,9911 -376,9837 -537,9731 -679,9556 -707,9379 -716,9245 -600,9149 -451,9063 -296,8991 -134,8981 43,9015 217,9058 389,9105 560,9193 714,9368 743,9531 673,9588 505,9483 362,9314 308,9174 417,9114 584,9228 720,9405 733,9579 698,9706 574,9804 426,9894 273,9771 145,9625 44,9461 -24,9302 55,9144 136,9067 296,9150 453,9271 583,9412 691,9573 766,9749 790,9926 805,10082 720,10234 628,10270 454,10197 292,10032 226,9855 210,9680 241,9512 299,9357 386,9332 562,9384 732,9484 879,9633 976,9775 869,9792 692,9689 547,9538 453,9367 404,9193 367,9018 335,8842 309,8665 291,8501 360,8342 440,8264 600,8263 778,8265 956,8284 1133,8326 1306,8382 1475,8492 1615,8640 1714,8810 1767,8985 1800,9135 1704,9281 1602,9417 1487,9437 1310,9351 1154,9184 1092,9013 1042,8835 1034,8709 1160,8616 1312,8741 1439,8869 1563,9013 1668,9154 1559,9291 1445,9379 1290,9400 1113,9357 940,9292 774,9170 644,8998 597,8834 667,8795 841,8916 972,9065 1070,9234 1127,9411 1149,9581 1095,9610 919,9550 751,9455 600,9347 458,9202 354,9043 273,8878 205,8703 170,8525 157,8348 180,8175 224,8013 299,7860 391,7775 548,7735 722,7721 900,7769 1072,7842 1235,7942 1383,8098 1470,8276 1485,8442 1419,8577 1302,8688 1162,8791 1016,8862 852,8878 674,8826 503,8737 348,8621 212,8448 167,8274 126,8130 232,8113 410,8223 551,8390 615,8555 546,8692 431,8783 277,8863 117,8764 -32,8638 -159,8460 -177,8332 -52,8230 95,8134 246,8050 404,8173 534,8343 590,8517 632,8696 632,8875 631,9054 629,9233 626,9412 622,9589 595,9765 562,9770 383,9708 215,9533 177,9354 171,9190 243,9140 415,9260 548,9399 661,9549 759,9728 767,9905 739,10072 674,10206 555,10215 376,10194 198,10099 46,9995 -100,9822 -147,9643 -157,9503 -45,9464 130,9521 300,9692 354,9861 294,10022 215,10044 37,10015 -140,9938 -302,9846 -456,9739 -600,9581 -685,9413 -748,9250 -673,9101 -573,8960 -462,8863 -311,8819 -137,8796 41,8883 198,8999 335,9176 365,9349 317,9363 138,9297 -29,9208 -185,9081 -312,8953 -438,8808 -544,8638 -602,8467 -657,8329 -542,8293 -366,8417 -236,8586 -175,8758 -123,8935 -92,9114 -76,9288 -121,9443 -212,9591 -314,9616 -492,9547 -658,9451 -810,9290 -890,9130 -808,9052 -646,9003 -473,9087 -314,9192 -168,9355 -92,9532 -60,9666 -180,9752 -338,9770 -517,9657 -657,9493 -731,9322 -787,9155 -720,9096 -550,9215 -415,9390 -373,9564 -419,9736 -472,9880 -580,9881 -760,9862 -939,9682 -941,9513 -879,9348 -807,9321 -629,9317 -449,9350 -272,9388 -96,9492 51,9665 101,9818 6,9908 -150,9928 -329,9935 -509,9865 -675,9748 -812,9568 -820,9390 -792,9215 -749,9206 -569,9227 -390,9261 -213,9344 -53,9515 4,9691 43,9854 -34,10004 -134,10089 -293,10157 -460,10031 -589,9867 -664,9689 -693,9516 -642,9358 -555,9227 -431,9215 -251,9330 -112,9473 -2,9619 104,9751 -19,9824 -184,9868 -359,9881 -539,9858 -718,9736 -851,9560 -891,9386 -843,9356 -665,9342 -485,9413 -319,9512 -168,9614 -19,9786 36,9965 60,10135 -1,10288 -97,10340 -270,10235 -417,10073 -497,9895 -528,9720 -483,9557 -405,9397 -321,9261 -202,9236 -23,9312 141,9405 296,9564 382,9744 399,9881 281,9918 104,9844 -61,9756 -219,9588 -286,9409 -312,9237 -256,9066 -197,9048 -17,9165 121,9338 174,9514 216,9689 170,9859 108,10016 18,10035 -162,10036 -343,10034 -524,9906 -652,9777 -779,9600 -817,9426 -767,9287 -651,9156 -526,9086 -359,9080 -178,9100 2,9200 153,9362 234,9525 313,9678 216,9818 101,9875 -71,9922 -246,9812 -390,9690 -524,9519 -584,9338 -593,9165 -539,8997 -471,8832 -396,8677 -302,8542 -181,8479 -11,8428 163,8399 342,8377 522,8450 688,8570 824,8720 926,8872 1025,9017 916,9052 738,9008 562,8942 393,8837 245,8718 108,8564 12,8422 125,8392 304,8450 476,8623 531,8804 545,8975 484,9137 402,9217 239,9241 59,9157 -102,9049 -248,8893 -341,8712 -356,8569 -244,8483 -84,8407 81,8376 260,8417 437,8515 590,8619 739,8747 868,8922 917,9052 790,9126 624,9000 493,8868 368,8713 273,8535 236,8395 352,8284 496,8177 643,8087 801,8028 973,8100 1140,8280 1166,8461 1184,8637 1138,8679 961,8579 809,8464 668,8342 533,8185 441,8004 422,7822 422,7640 423,7458 425,7278 452,7099 485,6937 568,6801 689,6695 837,6610 998,6605 1180,6682 1345,6796 1487,6977 1507,7137 1420,7293 1326,7300 1144,7257 967,7182 801,7010 741,6834 694,6652 686,6478 740,6332 849,6243 1008,6204 1186,6267 1357,6340 1524,6522 1534,6697 1483,6852 1387,6991 1269,7057 1099,7101 922,7136 743,7148 561,7040 414,6928 270,6799 141,6669 13,6529 -104,6348 -127,6166 -140,6002 -60,5845 33,5713 159,5658 333,5719 505,5797 670,5922 803,6072 907,6233 993,6415 1007,6584 938,6636 763,6560 597,6444 456,6284 368,6139 479,6124 661,6231 809,6354 944,6510 1039,6677 1113,6853 1162,7035 1178,7194 1088,7219 907,7152 737,7080 569,6980 416,6877 265,6703 209,6521 192,6375 302,6343 482,6405 654,6502 809,6608 958,6728 1096,6871 1210,7049 1252,7213 1171,7376 1088,7446 919,7511 748,7426 586,7250 536,7111 655,7017 812,6984 992,6957 1173,6955 1356,6958 1539,6962 1722,7064 1874,7231 1949,7385 1850,7474 1690,7542 1520,7599 1346,7539 1173,7361 1130,7178 1123,7003 1177,6872 1305,6776 1461,6703 1629,6669 1809,6708 1988,6834 2121,6982 2229,7127 2117,7268 2000,7319 1824,7194 1690,7011 1680,6840 1746,6705 1870,6634 2039,6612 2221,6601 2404,6694 2562,6798 2713,6914 2855,7037 2991,7192 3089,7369 3137,7515 3026,7601 2864,7641 2685,7586 2510,7464 2373,7281 2360,7100 2390,6933 2466,6776 2561,6712 2733,6698 2916,6734 3096,6808 3264,6918 3411,7070 3514,7253 3529,7407 3429,7546 3309,7587 3130,7538 2953,7424 2809,7274 2703,7118 2606,6936 2581,6762 2640,6622 2759,6585 2939,6647 3112,6830 3129,7011 3097,7176 3016,7339 2931,7418 2765,7488 2595,7359 2464,7218 2346,7086 2474,7021 2646,7003 2829,7080 2996,7179 3151,7356 3201,7490 3075,7579 2914,7617 2734,7542 2566,7417 2431,7275 2314,7091 2314,6907 2315,6723 2317,6539 2320,6355 2324,6180 2381,6006 2441,5846 2532,5826 2715,5869 2894,5923 3070,6101 3117,6274 3054,6417 2938,6445 2756,6411 2575,6307 2423,6127 2384,5989 2506,5878 2653,5869 2837,5935 3009,6006 3179,6088 3344,6172 3508,6338 3588,6482 3473,6621 3352,6707 3189,6785 3022,6829 2843,6864 2662,6816 2484,6758 2309,6697 2135,6621 1967,6445 1912,6274 1981,6126 2091,6023 2244,5933 2405,5903 2587,5890 2771,5942 2948,6016 3117,6135 3258,6319 3272,6500 3236,6657 3139,6788 3009,6880 2849,6904 2666,6859 2487,6792 2315,6612 2274,6463 2383,6391 2553,6342 2731,6460 2873,6586 3008,6761 3067,6937 3123,7120 3148,7286 3067,7440 2965,7576 2840,7681 2688,7760 2521,7661 2365,7544 2222,7373 2152,7189 2135,7007 2167,6839 2244,6774 2417,6728 2596,6686 2776,6660 2959,6783 3097,6941 3193,7119 3243,7288 3168,7432 3052,7523 2891,7561 2710,7493 2538,7311 2505,7127 2486,6944 2513,6768 2570,6613 2671,6540 2841,6537 3026,6541 3211,6595 3388,6688 3548,6795 3699,6952 3797,7136 3817,7321 3823,7504 3795,7511 3610,7477 3428,7393 3263,7222 3192,7049 3126,6864 3118,6700 3204,6679 3388,6789 3537,6948 3632,7116 3710,7262 3596,7350 3433,7219 3302,7087 3172,6945 3053,6762 3024,6582 3068,6413 3144,6261 3250,6171 3412,6102 3584,6041 3759,6006 3941,6061 4118,6242 4158,6427 4170,6601 4106,6759 4009,6833 3839,6720 3692,6570 3583,6409 3491,6231 3439,6048 3409,5863 3396,5690 3463,5552 3587,5538 3772,5583 3952,5685 4107,5869 4131,6022 4026,6116 3866,6165 3687,6082 3521,5970 3373,5847 3234,5671 3175,5494 3119,5319 3181,5174 3297,5034 3419,4945 3582,4892 3760,4988 3919,5162 3984,5345 4016,5530 4033,5710 3987,5859 3876,5950 3714,5976 3530,5875 3374,5760 3228,5575 3210,5402 3278,5260 3398,5162 3556,5069 3717,5009 3893,4952 4070,4925 4254,4906 4439,5036 4572,5211 4635,5397 4635,5583 4634,5769 4632,5955 4629,6135 4582,6278 4463,6362 4297,6444 4130,6449 3944,6369 3776,6274 3616,6100 3550,5945 3653,5857 3817,5806 3996,5767 4178,5867 4335,5985 4479,6170 4500,6333 4410,6481 4297,6557 4127,6566 3941,6457 3790,6298 3693,6121 3635,5935 3625,5751 3654,5571 3702,5409 3794,5354 3972,5319 4155,5308 4341,5372 4516,5554 4556,5694 4433,5796 4277,5691 4123,5579 3974,5394 3951,5210 3981,5049 4075,4891 4174,4739 4282,4593 4398,4510 4565,4595 4731,4763 4812,4944 4857,5130 4871,5295 4784,5344 4604,5265 4435,5144 4293,4967 4234,4807 4330,4718 4494,4656 4670,4641 4856,4711 5029,4826 5176,4981 5280,5113 5148,5233 5005,5334 4848,5350 4662,5220 4528,5067 4421,4896 4346,4715 4300,4531 4268,4345 4251,4163 4293,4001 4386,3857 4505,3720 4632,3606 4780,3496 4931,3423 5103,3405 5289,3465 5466,3643 5523,3827 5556,3988 5461,4070 5293,3952 5148,3798 5042,3613 5015,3427 4996,3258 5076,3100 5176,3012 5341,2941 5514,2898 5696,3022 5836,3209 5839,3384 5773,3554 5695,3706 5586,3711 5399,3691 5213,3640 5033,3523 4887,3363 4790,3180 4751,2996 4717,2825 4793,2818 4980,2826 5167,2847 5353,2959 5503,3081 5645,3236 5750,3393 5852,3565 5926,3746 5974,3931 6003,4118 6013,4294 5949,4447 5841,4541 5679,4576 5495,4477 5336,4294 5296,4107 5285,3927 5337,3754 5409,3587 5494,3453 5625,3342 5776,3255 5942,3370 6090,3490 6234,3619 6370,3806 6383,3976 6304,4141 6215,4186 6033,4222 5849,4094 5712,3913 5663,3726 5649,3543 5690,3519 5876,3581 6053,3651 6227,3742 6391,3861 6536,4048 6551,4197 6437,4262 6261,4164 6101,3992 6026,3829 6119,3804 6305,3788 6492,3834 6674,3902 6849,4085 6891,4226 6767,4329 6610,4379 6429,4284 6267,4098 6241,3930 6325,3771 6425,3711 6603,3793 6772,3902 6925,4025 7067,4172 7184,4338 7272,4523 7305,4703 7251,4877 7180,5048 7102,5209 7005,5275 6829,5322 6647,5365 6464,5365 6276,5364 6088,5362 5900,5359 5712,5355 5524,5250 5368,5069 5317,4911 5419,4891 5606,4930 5790,5063 5923,5197 6055,5382 6089,5557 6020,5564 5832,5434 5696,5274 5597,5111 5503,4923 5495,4736 5516,4553 5560,4404 5675,4266 5803,4237 5989,4227 6177,4312 6345,4439 6484,4626 6506,4810 6466,4977 6379,5139 6283,5220 6113,5287 5937,5180 5782,5054 5642,4908 5523,4749 5422,4561 5410,4375 5440,4352 5627,4443 5792,4553 5945,4725 6022,4908 6067,5093 6103,5272 6044,5447 5974,5509 5796,5391 5649,5211 5593,5027 5552,4839 5538,4652 5562,4475 5627,4444 5813,4429 6001,4482 6182,4588 6338,4746 6441,4889 6318,5006 6170,5101 6007,4992 5853,4832 5753,4658 5680,4489 5764,4321 5850,4239 6020,4222 6208,4282 6387,4415 6521,4567 6633,4747 6690,4925 6627,5091 6537,5240 6421,5385 6300,5463 6128,5501 5943,5396 5786,5215 5732,5029 5699,4864 5791,4817 5974,4774 6158,4894 6304,5083 6304,5272 6303,5461 6301,5601 6174,5712 6021,5806 5857,5875 5681,5895 5493,5900 5304,5866 5118,5679 5090,5490 5084,5311 5145,5253 5325,5246 5514,5310 5692,5406 5855,5575 5940,5745 6023,5929 6067,6112 6019,6263 5905,6364 5745,6445 5574,6517 5399,6546 5212,6436 5058,6259 4991,6073 4956,5888 4996,5706 5048,5540 5139,5529 5328,5627 5490,5800 5567,5989 5579,6176 5549,6328 5436,6421 5271,6491 5095,6550 4915,6488 4736,6385 4577,6199 4541,6018 4597,5844 4672,5689 4781,5544 4903,5410 5037,5277 5172,5263 5361,5287 5549,5382 5713,5513 5850,5695 5903,5833 5773,5848 5584,5780 5407,5707 5232,5623 5062,5537 4893,5408 4754,5237 4672,5069 4760,5044 4948,5090 5132,5279 5148,5442 5051,5582 4923,5687 4765,5719 4578,5659 4398,5557 4238,5437 4091,5310 3950,5137 3872,4961 3801,4773 3775,4622 3890,4511 4044,4445 4222,4427 4411,4503 4585,4690 4618,4855 4524,5003 4405,5030 4217,4987 4032,4798 4013,4615 4064,4456 4168,4299 4275,4147 4389,4073 4564,4071 4754,4074 4944,4170 5108,4360 5112,4546 5073,4726 5012,4887 4911,5042 4801,5070 4613,4987 4442,4797 4436,4618 4500,4446 4581,4391 4763,4514 4908,4690 4980,4875 5024,5064 5045,5254 5053,5427 4974,5590 4876,5743 4763,5878 4629,6011 4493,6128 4343,6180 4160,6215 3973,6175 3787,6069 3629,5938 3491,5778 3388,5622 3497,5483 3627,5413 3804,5542 3944,5723 4003,5911 4033,6100 4056,6284 4007,6466 3951,6607 3823,6672 3644,6685 3454,6644 3268,6517 3126,6347 3040,6176 2956,5993 2903,5845 3023,5748 3187,5853 3346,6025 3428,6182 3320,6272 3152,6287 2962,6207 2789,6020 2752,5835 2798,5680 2909,5588 3076,5538 3260,5496 3446,5556 3627,5675 3776,5863 3808,6043 3745,6220 3674,6277 3492,6294 3302,6200 3136,6021 3070,5846 3146,5693 3260,5586 3418,5482 3578,5464 3768,5497 3956,5544 4141,5654 4297,5819 4393,5997 4462,6186 4489,6362 4415,6413 4231,6280 4094,6090 4075,5919 4160,5781 4292,5694 4462,5611 4634,5611 4825,5612 5016,5614 5207,5672 5389,5753 5562,5875 5709,6055 5773,6246 5777,6436 5757,6625 5729,6630 5538,6558 5361,6375 5306,6184 5300,6043 5429,5995 5614,5988 5805,6032 5991,6125 6158,6315 6179,6506 6187,6648 6059,6725 5884,6777 5700,6806 5511,6771 5323,6644 5180,6478 5085,6300 5015,6124 5090,6113 5281,6172 5463,6298 5607,6484 5652,6675 5664,6860 5615,7018 5507,7041 5317,6944 5152,6773 5066,6601 4982,6431 5070,6269 5172,6124 5297,6042 5470,6153 5626,6330 5699,6499 5609,6567 5430,6591 5240,6605 5049,6574 4860,6482 4692,6358 4546,6194 4447,6003 4432,5828 4510,5674 4624,5637 4812,5772 4948,5954 5008,6139 5058,6320 4995,6458 4862,6562 4701,6619 4518,6651 4329,6541 4172,6365 4096,6185 4030,6045 4161,5944 4324,5848 4490,5822 4680,5952 4821,6100 4943,6252 5060,6407 5173,6586 5242,6772 5289,6944 5204,7115 5117,7198 4944,7109 4774,6924 4723,6734 4696,6591 4824,6485 4984,6404 5158,6385 5349,6446 5531,6549 5693,6730 5757,6922 5757,7114 5756,7289 5677,7361 5499,7364 5307,7330 5118,7218 4962,7034 4907,6844 4879,6652 4874,6488 4974,6338 5094,6193 5220,6116 5396,6109 5588,6204 5755,6395 5776,6587 5784,6772 5732,6951 5662,6991 5474,7000 5282,6965 5093,6890 4916,6771 4765,6579 4755,6388 4777,6206 4839,6049 4950,5947 5113,5861 5285,5777 5458,5712 5639,5656 5823,5611 6010,5660 6196,5742 6370,5934 6382,6125 6359,6303 6286,6339 6097,6225 5942,6093 5802,5924 5710,5759 5809,5607 5927,5459 6050,5406 6235,5537 6376,5697 6483,5888 6507,6080 6521,6270 6490,6428 6380,6499 6201,6545 6014,6560 5822,6523 5633,6460 5451,6274 5401,6110 5502,5957 5619,5844 5775,5819 5966,5861 6154,5927 6335,6055 6479,6245 6511,6430 6457,6602 6370,6747 6243,6853 6082,6951 5916,7020 5736,6931 5565,6757 5482,6603 5598,6500 5761,6409 5931,6328 6106,6310 6298,6343 6488,6469 6634,6626 6746,6812 6797,6963 6677,7056 6508,7135 6332,7199 6150,7218 5958,7093 5811,6904 5772,6711 5772,6518 5773,6325 5775,6135 5809,5958 5886,5798 5994,5646 6113,5508 6248,5460 6435,5455 6628,5589 6767,5737 6891,5895 7002,6035 6869,6132 6702,6202 6522,6223 6330,6148 6152,5955 6144,5766 6184,5737 6375,5772 6565,5860 6737,5983 6886,6139 7000,6322 7062,6506 7121,6677 7031,6699 6839,6709 6646,6610 6480,6425 6424,6255 6516,6210 6704,6199 6897,6279 7073,6408 7217,6567 7327,6717 7205,6821 7042,6844 6850,6808 6660,6714 6491,6525 6450,6339 6503,6194 6631,6116 6808,6103 7001,6204 7166,6372 7262,6552 7333,6743 7364,6936 7378,7120 7318,7303 7255,7481 7179,7531 6992,7546 6799,7480 6617,7371 6457,7245 6310,7053 6285,6886 6383,6799 6556,6714 6730,6834 6882,6998 6985,7156 6873,7210 6687,7127 6512,6948 6438,6767 6369,6619 6494,6538 6670,6521 6863,6547 7055,6585 7245,6720 7384,6890 7477,7078 7524,7244 7424,7400 7309,7553 7190,7571 6997,7510 6813,7438 6633,7330 6472,7161 6377,7019 6509,6961 6694,6934 6886,7039 7049,7150 7208,7281 7351,7459 7428,7645 7483,7810 7381,7907 7213,7907 7019,7906 6825,7904 6631,7901 6437,7873 6245,7680 6225,7486 6221,7297 6265,7116 6335,6937 6410,6763 6496,6590 6584,6506 6759,6596 6931,6718 7082,6885 7181,7047 7074,7207 6964,7299 6793,7358 6608,7254 6444,7137 6289,6943 6280,6763 6353,6707 6539,6685 6732,6675 6926,6802 7073,6954 7194,7143 7239,7325 7171,7491 7070,7521 6878,7443 6700,7347 6531,7160 6478,6966 6466,6776 6507,6620 6623,6511 6784,6405 6947,6525 7100,6662 7238,6801 7374,6941 7509,7090 7634,7258 7732,7452 7746,7617 7643,7758 7509,7808 7321,7751 7135,7666 6960,7533 6818,7339 6803,7149 6845,6973 6928,6830 7060,6715 7217,6641 7397,6760 7551,6942 7620,7134 7652,7301 7552,7394 7381,7410 7187,7279 7043,7117 6935,6953 6830,6783 6735,6594 6688,6406 6739,6221 6800,6066 6918,6002 7102,5969 7294,6098 7440,6256 7554,6425 7651,6608 7718,6760 7596,6907 7468,6962 7281,6981 7087,6942 6896,6835 6733,6661 6645,6486 6559,6304 6489,6115 6441,5920 6440,5725 6442,5549 6526,5401 6653,5398 6848,5418 7042,5522 7207,5694 7299,5889 7304,6066 7222,6072 7027,6010 6842,5815 6835,5621 6856,5430 6896,5252 6976,5114 7114,5079 7306,5050 7499,5186 7639,5343 7755,5538 7764,5721 7696,5891 7600,6033 7466,6082 7277,6127 7087,6021 6923,5888 6780,5728 6668,5533 6657,5340 6687,5152 6740,5008 6872,4967 7063,4944 7257,4932 7452,5008 7632,5132 7783,5263 7928,5421 8043,5596 8130,5782 8190,5956 8101,6041 7925,6072 7732,6096 7538,6050 7348,5993 7161,5804 7111,5636 7211,5473 7319,5399 7500,5510 7661,5688 7742,5871 7811,6059 7865,6253 7890,6424 7795,6456 7602,6342 7443,6147 7427,5968 7506,5820 7634,5698 7787,5626 7969,5579 8159,5553 8353,5536 8548,5597 8734,5661 8919,5850 8970,6030 8893,6179 8766,6237 8579,6270 8386,6160 8224,5996 8117,5801 8099,5647 8220,5548 8389,5521 8583,5576 8771,5662 8947,5752 9121,5888 9262,6065 9346,6246 9421,6429 9491,6602 9399,6650 9209,6684 9016,6602 8838,6406 8838,6210 8839,6014 8841,5818 8844,5667 8969,5663 9165,5725 9351,5805 9530,5937 9675,6100 9784,6296 9790,6478 9717,6649 9621,6814 9515,6854 9323,6861 9127,6840 8932,6805 8739,6674 8593,6522 8469,6342 8391,6146 8382,5979 8485,5930 8675,6028 8845,6143 9004,6273 9151,6469 9161,6658 9108,6688 8914,6699 8718,6576 8565,6447 8417,6272 8328,6095 8243,5921 8334,5757 8442,5657 8611,5594 8797,5534 8984,5617 9162,5710 9335,5815 9501,5943 9650,6131 9707,6291 9593,6337 9402,6287 9212,6092 9188,5913 9269,5741 9364,5727 9560,5796 9744,5989 9781,6181 9739,6331 9612,6385 9423,6400 9227,6261 9088,6121 8950,5980 8813,5822 8696,5628 8664,5473 8785,5363 8948,5347 9144,5419 9327,5526 9492,5652 9643,5813 9756,5999 9820,6192 9858,6387 9884,6583 9901,6771 9843,6814 9651,6747 9466,6659 9290,6569 9115,6444 8963,6288 8843,6129 8727,5955 8635,5766 8580,5584 8655,5557 8850,5627 9034,5728 9203,5901 9297,6094 9336,6290 9355,6481 9307,6643 9195,6749 9029,6845 8857,6897 8667,6925 8472,6926 8275,6924 8078,6904 7882,6831 7699,6645 7634,6457 7575,6289 7678,6284 7875,6413 8024,6567 8147,6752 8215,6941 8271,7138 8278,7332 8243,7361 8048,7369 7851,7320 7660,7192 7510,7034 7392,6869 7284,6672 7275,6488 7346,6311 7433,6141 7533,6050 7708,5965 7886,6070 8053,6184 8214,6323 8354,6464 8492,6615 8619,6809 8655,6951 8518,7014 8331,7074 8143,7097 7947,7031 7761,6834 7749,6661 7844,6517 7979,6415 8148,6358 8337,6479 8493,6676 8506,6868 8460,7059 8410,7244 8341,7268 8145,7171 7973,7061 7809,6880 7730,6686 7693,6493 7735,6303 7789,6156 7921,6031 8074,5927 8242,5902 8438,6001 8609,6121 8766,6303 8843,6463 8727,6611 8596,6699 8419,6609 8243,6431 8157,6240 8106,6051 8164,5876 8256,5722 8380,5638 8559,5595 8752,5696 8922,5805 9087,5979 9181,6142 9069,6217 8886,6135 8706,6029 8539,5832 8521,5682 8650,5586 8823,5701 8984,5824 9139,6018 9178,6199 9098,6247 8906,6266 8709,6232 8514,6188 8321,6126 8133,6061 7946,5921 7806,5780 7667,5582 7667,5384 7668,5186 7670,4989 7690,4986 7888,5097 8052,5234 8195,5390 8317,5588 8322,5732 8186,5859 8034,5915 7844,5921 7646,5821 7475,5716 7307,5581 7162,5403 7075,5207 7046,5015 7095,4830 7166,4822 7364,4956 7510,5131 7603,5329 7612,5509 7529,5666 7408,5688 7211,5555 7064,5381 6969,5183 6959,4995 7022,4965 7218,5006 7412,5066 7601,5147 7782,5257 7947,5389 8095,5573 8169,5770 8192,5924 8067,5936 7869,5879 7679,5810 7493,5679 7344,5521 7224,5339 7145,5141 7132,4945 7163,4773 7262,4736 7457,4790 7648,4920 7798,5075 7922,5260 7994,5443 7917,5621 7829,5798 7739,5823 7542,5737 7363,5645 7187,5544 7016,5364 6932,5177 6865,4979 6849,4804 6943,4746 7133,4695 7325,4657 7520,4732 7704,4814 7885,4942 8037,5116 8133,5314 8150,5500 8080,5644 7943,5699 7752,5596 7582,5460 7437,5300 7319,5102 7301,4929 7399,4776 7526,4630 7661,4519 7826,4411 7993,4338 8178,4276 8367,4224 8559,4289 8747,4483 8791,4666 8713,4725 8523,4625 8351,4520 8182,4394 8028" style="stroke:red; stroke-width:6; fill:white;" transform="scale (.05, -.05) translate (1000,-10000)" />
</svg>
