<svg  width="875" height="470" style="stroke:black;" version="1.1" xmlns="http://www.w3.org/2000/svg">
 <rect width="100%" height="100%" style="fill:white;"/>
<line x1="50" y1="25" x2="50" y2="125"/>
<text x="45" y="145">0</text>
<line x1="135" y1="25" x2="135" y2="125"/>
<line x1="135" y1="25" x2="170" y2="25"/>
<text x="130" y="145">1</text>
<line x1="220" y1="25" x2="220" y2="125"/>
<line x1="220" y1="60" x2="255" y2="60"/>
<text x="215" y="145">2</text>
<line x1="305" y1="25" x2="305" y2="125"/>
<line x1="305" y1="25" x2="340" y2="60"/>
<text x="300" y="145">3</text>
<line x1="390" y1="25" x2="390" y2="125"/>
<line x1="390" y1="60" x2="425" y2="25"/>
<text x="385" y="145">4</text>
<line x1="475" y1="25" x2="475" y2="125"/>
<line x1="475" y1="25" x2="510" y2="25"/>
<line x1="475" y1="60" x2="510" y2="25"/>
<text x="470" y="145">5</text>
<line x1="560" y1="25" x2="560" y2="125"/>
<line x1="595" y1="25" x2="595" y2="60"/>
<text x="555" y="145">6</text>
<line x1="645" y1="25" x2="645" y2="125"/>
<line x1="645" y1="25" x2="680" y2="25"/>
<line x1="680" y1="25" x2="680" y2="60"/>
<text x="640" y="145">7</text>
<line x1="730" y1="25" x2="730" y2="125"/>
<line x1="730" y1="60" x2="765" y2="60"/>
<line x1="765" y1="25" x2="765" y2="60"/>
<text x="725" y="145">8</text>
<line x1="815" y1="25" x2="815" y2="125"/>
<line x1="815" y1="25" x2="850" y2="25"/>
<line x1="815" y1="60" x2="850" y2="60"/>
<line x1="850" y1="25" x2="850" y2="60"/>
<text x="810" y="145">9</text>
<line x1="50" y1="175" x2="50" y2="275"/>
<line x1="50" y1="210" x2="15" y2="210"/>
<text x="45" y="295">20</text>
<line x1="135" y1="175" x2="135" y2="275"/>
<line x1="135" y1="275" x2="170" y2="240"/>
<text x="130" y="295">300</text>
<line x1="220" y1="175" x2="220" y2="275"/>
<line x1="220" y1="240" x2="185" y2="275"/>
<text x="215" y="295">4000</text>
<line x1="305" y1="175" x2="305" y2="275"/>
<line x1="305" y1="175" x2="340" y2="175"/>
<line x1="305" y1="210" x2="340" y2="175"/>
<line x1="305" y1="175" x2="270" y2="175"/>
<line x1="305" y1="210" x2="270" y2="175"/>
<line x1="305" y1="275" x2="340" y2="275"/>
<line x1="305" y1="240" x2="340" y2="275"/>
<line x1="305" y1="275" x2="270" y2="275"/>
<line x1="305" y1="240" x2="270" y2="275"/>
<text x="300" y="295">5555</text>
<line x1="390" y1="175" x2="390" y2="275"/>
<line x1="390" y1="175" x2="425" y2="175"/>
<line x1="390" y1="210" x2="425" y2="210"/>
<line x1="425" y1="175" x2="425" y2="210"/>
<line x1="390" y1="210" x2="355" y2="210"/>
<line x1="355" y1="175" x2="355" y2="210"/>
<line x1="390" y1="275" x2="425" y2="275"/>
<line x1="425" y1="240" x2="425" y2="275"/>
<line x1="355" y1="240" x2="355" y2="275"/>
<text x="385" y="295">6789</text>
<line x1="475" y1="175" x2="475" y2="275"/>
<line x1="475" y1="210" x2="510" y2="175"/>
<line x1="475" y1="175" x2="440" y2="175"/>
<line x1="475" y1="210" x2="440" y2="210"/>
<line x1="440" y1="175" x2="440" y2="210"/>
<line x1="475" y1="275" x2="510" y2="240"/>
<line x1="475" y1="275" x2="440" y2="275"/>
<line x1="475" y1="240" x2="440" y2="240"/>
<line x1="440" y1="240" x2="440" y2="275"/>
<text x="470" y="295">9394</text>
<line x1="560" y1="175" x2="560" y2="275"/>
<line x1="560" y1="210" x2="595" y2="210"/>
<line x1="595" y1="175" x2="595" y2="210"/>
<line x1="560" y1="175" x2="525" y2="175"/>
<line x1="595" y1="240" x2="595" y2="275"/>
<line x1="560" y1="240" x2="525" y2="240"/>
<line x1="525" y1="240" x2="525" y2="275"/>
<text x="555" y="295">8618</text>
<line x1="645" y1="175" x2="645" y2="275"/>
<line x1="680" y1="175" x2="680" y2="210"/>
<line x1="645" y1="175" x2="610" y2="175"/>
<line x1="645" y1="275" x2="680" y2="275"/>
<line x1="645" y1="240" x2="610" y2="240"/>
<text x="640" y="295">2116</text>
<line x1="730" y1="175" x2="730" y2="275"/>
<line x1="730" y1="175" x2="765" y2="175"/>
<line x1="730" y1="210" x2="765" y2="175"/>
<line x1="730" y1="175" x2="695" y2="175"/>
<line x1="765" y1="240" x2="765" y2="275"/>
<line x1="730" y1="275" x2="695" y2="275"/>
<line x1="730" y1="240" x2="695" y2="240"/>
<line x1="695" y1="240" x2="695" y2="275"/>
<text x="725" y="295">9615</text>
<line x1="815" y1="175" x2="815" y2="275"/>
<line x1="815" y1="175" x2="850" y2="175"/>
<line x1="815" y1="210" x2="850" y2="210"/>
<line x1="850" y1="175" x2="850" y2="210"/>
<line x1="815" y1="175" x2="780" y2="175"/>
<line x1="780" y1="175" x2="780" y2="210"/>
<line x1="815" y1="275" x2="850" y2="275"/>
<line x1="815" y1="240" x2="850" y2="240"/>
<line x1="850" y1="240" x2="850" y2="275"/>
<line x1="815" y1="275" x2="780" y2="275"/>
<line x1="780" y1="240" x2="780" y2="275"/>
<text x="810" y="295">7979</text>
<line x1="50" y1="325" x2="50" y2="425"/>
<line x1="50" y1="325" x2="85" y2="360"/>
<line x1="50" y1="325" x2="15" y2="360"/>
<line x1="50" y1="425" x2="85" y2="425"/>
<line x1="50" y1="390" x2="85" y2="390"/>
<line x1="85" y1="390" x2="85" y2="425"/>
<line x1="50" y1="425" x2="15" y2="425"/>
<line x1="15" y1="390" x2="15" y2="425"/>
<text x="45" y="445">7933</text>
<line x1="135" y1="325" x2="135" y2="425"/>
<line x1="170" y1="325" x2="170" y2="360"/>
<line x1="100" y1="325" x2="100" y2="360"/>
<line x1="135" y1="425" x2="170" y2="425"/>
<line x1="170" y1="390" x2="170" y2="425"/>
<line x1="135" y1="390" x2="100" y2="390"/>
<text x="130" y="445">2766</text>
<line x1="220" y1="325" x2="220" y2="425"/>
<line x1="220" y1="325" x2="255" y2="325"/>
<line x1="220" y1="325" x2="185" y2="325"/>
<line x1="220" y1="360" x2="185" y2="325"/>
<line x1="220" y1="425" x2="255" y2="425"/>
<line x1="255" y1="390" x2="255" y2="425"/>
<line x1="220" y1="425" x2="185" y2="425"/>
<line x1="220" y1="390" x2="185" y2="425"/>
<text x="215" y="445">5751</text>
<line x1="305" y1="325" x2="305" y2="425"/>
<line x1="305" y1="325" x2="340" y2="360"/>
<line x1="305" y1="325" x2="270" y2="325"/>
<line x1="305" y1="360" x2="270" y2="360"/>
<line x1="270" y1="325" x2="270" y2="360"/>
<line x1="340" y1="390" x2="340" y2="425"/>
<line x1="305" y1="425" x2="270" y2="390"/>
<text x="300" y="445">3693</text>
<line x1="390" y1="325" x2="390" y2="425"/>
<line x1="390" y1="360" x2="425" y2="360"/>
<line x1="390" y1="425" x2="425" y2="425"/>
<line x1="355" y1="390" x2="355" y2="425"/>
<text x="385" y="445">6102</text>
<line x1="475" y1="325" x2="475" y2="425"/>
<line x1="475" y1="325" x2="510" y2="325"/>
<line x1="475" y1="360" x2="510" y2="360"/>
<line x1="510" y1="325" x2="510" y2="360"/>
<line x1="475" y1="325" x2="440" y2="325"/>
<line x1="440" y1="325" x2="440" y2="360"/>
<line x1="475" y1="425" x2="510" y2="425"/>
<line x1="475" y1="390" x2="440" y2="390"/>
<line x1="440" y1="390" x2="440" y2="425"/>
<text x="470" y="445">8179</text>
<line x1="560" y1="325" x2="560" y2="425"/>
<line x1="560" y1="360" x2="595" y2="360"/>
<line x1="560" y1="325" x2="525" y2="325"/>
<line x1="560" y1="390" x2="595" y2="425"/>
<line x1="560" y1="425" x2="525" y2="390"/>
<text x="555" y="445">3412</text>
<line x1="645" y1="325" x2="645" y2="425"/>
<line x1="645" y1="360" x2="680" y2="360"/>
<line x1="680" y1="325" x2="680" y2="360"/>
<line x1="645" y1="360" x2="610" y2="360"/>
<line x1="610" y1="325" x2="610" y2="360"/>
<line x1="645" y1="390" x2="680" y2="390"/>
<line x1="610" y1="390" x2="610" y2="425"/>
<text x="640" y="445">6288</text>
<line x1="730" y1="325" x2="730" y2="425"/>
<line x1="730" y1="325" x2="765" y2="325"/>
<line x1="730" y1="360" x2="765" y2="360"/>
<line x1="765" y1="325" x2="765" y2="360"/>
<line x1="730" y1="360" x2="695" y2="360"/>
<line x1="730" y1="425" x2="765" y2="425"/>
<line x1="695" y1="390" x2="695" y2="425"/>
<text x="725" y="445">6129</text>
<line x1="815" y1="325" x2="815" y2="425"/>
<line x1="815" y1="325" x2="850" y2="325"/>
<line x1="815" y1="360" x2="850" y2="325"/>
<line x1="815" y1="325" x2="780" y2="325"/>
<line x1="815" y1="360" x2="780" y2="360"/>
<line x1="780" y1="325" x2="780" y2="360"/>
<line x1="815" y1="390" x2="850" y2="390"/>
<line x1="815" y1="390" x2="780" y2="425"/>
<text x="810" y="445">4295</text>
</svg>
