<svg  width="1450" height="200" style="stroke:black;" version="1.1" xmlns="http://www.w3.org/2000/svg">
  <rect width="100%" height="100%" style="fill:white;" />
(<line x1="30" y1="50" x2="30" y2="150"/>)
<text x="25" y="170">0</text>
(<line x1="115" y1="50" x2="115" y2="150"/>)
<line x1="115" y1="50" x2="150" y2="50"/>
<text x="110" y="170">1</text>
(<line x1="200" y1="50" x2="200" y2="150"/>)
<line x1="200" y1="85" x2="235" y2="85"/>
<text x="195" y="170">2</text>
(<line x1="285" y1="50" x2="285" y2="150"/>)
<line x1="285" y1="50" x2="320" y2="85"/>
<text x="280" y="170">3</text>
(<line x1="370" y1="50" x2="370" y2="150"/>)
<line x1="370" y1="85" x2="405" y2="50"/>
<text x="365" y="170">4</text>
(<line x1="455" y1="50" x2="455" y2="150"/>)
<line x1="455" y1="50" x2="490" y2="50"/>
<line x1="455" y1="85" x2="490" y2="50"/>
<text x="450" y="170">5</text>
(<line x1="540" y1="50" x2="540" y2="150"/>)
<line x1="575" y1="50" x2="575" y2="85"/>
<text x="535" y="170">6</text>
(<line x1="625" y1="50" x2="625" y2="150"/>)
<line x1="625" y1="50" x2="660" y2="50"/>
<line x1="660" y1="50" x2="660" y2="85"/>
<text x="620" y="170">7</text>
(<line x1="710" y1="50" x2="710" y2="150"/>)
<line x1="710" y1="85" x2="745" y2="85"/>
<line x1="745" y1="50" x2="745" y2="85"/>
<text x="705" y="170">8</text>
(<line x1="795" y1="50" x2="795" y2="150"/>)
<line x1="795" y1="50" x2="830" y2="50"/>
<line x1="795" y1="85" x2="830" y2="85"/>
<line x1="830" y1="50" x2="830" y2="85"/>
<text x="790" y="170">9</text>
(<line x1="880" y1="50" x2="880" y2="150"/>)
<line x1="880" y1="85" x2="845" y2="85"/>
<text x="875" y="170">20</text>
(<line x1="965" y1="50" x2="965" y2="150"/>)
<line x1="965" y1="150" x2="1000" y2="115"/>
<text x="960" y="170">300</text>
(<line x1="1050" y1="50" x2="1050" y2="150"/>)
<line x1="1050" y1="115" x2="1015" y2="150"/>
<text x="1045" y="170">4000</text>
(<line x1="1135" y1="50" x2="1135" y2="150"/>)
<line x1="1135" y1="50" x2="1170" y2="50"/>
<line x1="1135" y1="85" x2="1170" y2="50"/>
<line x1="1135" y1="50" x2="1100" y2="50"/>
<line x1="1135" y1="85" x2="1100" y2="50"/>
<line x1="1135" y1="150" x2="1170" y2="150"/>
<line x1="1135" y1="115" x2="1170" y2="150"/>
<line x1="1135" y1="150" x2="1100" y2="150"/>
<line x1="1135" y1="115" x2="1100" y2="150"/>
<text x="1130" y="170">5555</text>
(<line x1="1220" y1="50" x2="1220" y2="150"/>)
<line x1="1220" y1="50" x2="1255" y2="50"/>
<line x1="1220" y1="85" x2="1255" y2="85"/>
<line x1="1255" y1="50" x2="1255" y2="85"/>
<line x1="1220" y1="85" x2="1185" y2="85"/>
<line x1="1185" y1="50" x2="1185" y2="85"/>
<line x1="1220" y1="150" x2="1255" y2="150"/>
<line x1="1255" y1="115" x2="1255" y2="150"/>
<line x1="1185" y1="115" x2="1185" y2="150"/>
<text x="1215" y="170">6789</text>
(<line x1="1305" y1="50" x2="1305" y2="150"/>)
<line x1="1305" y1="85" x2="1340" y2="50"/>
<line x1="1305" y1="50" x2="1270" y2="50"/>
<line x1="1305" y1="85" x2="1270" y2="85"/>
<line x1="1270" y1="50" x2="1270" y2="85"/>
<line x1="1305" y1="150" x2="1340" y2="115"/>
<line x1="1305" y1="150" x2="1270" y2="150"/>
<line x1="1305" y1="115" x2="1270" y2="115"/>
<line x1="1270" y1="115" x2="1270" y2="150"/>
<text x="1300" y="170">9394</text>
(<line x1="1390" y1="50" x2="1390" y2="150"/>)
<line x1="1390" y1="85" x2="1425" y2="85"/>
<line x1="1390" y1="85" x2="1355" y2="85"/>
<line x1="1390" y1="150" x2="1425" y2="150"/>
<line x1="1390" y1="115" x2="1425" y2="115"/>
<line x1="1425" y1="115" x2="1425" y2="150"/>
<line x1="1390" y1="150" x2="1355" y2="150"/>
<line x1="1355" y1="115" x2="1355" y2="150"/>
<text x="1385" y="170">7922</text>
</svg>
