<svg xmlns="http://www.w3.org/2000/svg" xmlns:svg="http://www.w3.org/2000/svg" xmlns:xlink="http://www.w3.org/1999/xlink" width="600" height="600" style="stroke:rgb(0,0,255)"><rect width="100%" height="100%" fill="white" /><polyline points="50,440,52,440,53,441.73,54,440,56,440,57,441.73,56,443.46,58,443.46,59,445.2,60,443.46,62,443.46,61,441.73,62,440,64,440,65,441.73,66,440,68,440,69,441.73,68,443.46,70,443.46,71,445.2,70,446.93,68,446.93,69,448.66,68,450.39,70,450.39,71,452.12,72,450.39,74,450.39,75,452.12,74,453.86,76,453.86,77,455.59,78,453.86,80,453.86,79,452.12,80,450.39,82,450.39,83,452.12,84,450.39,86,450.39,85,448.66,86,446.93,84,446.93,83,445.2,84,443.46,86,443.46,85,441.73,86,440,88,440,89,441.73,90,440,92,440,93,441.73,92,443.46,94,443.46,95,445.2,96,443.46,98,443.46,97,441.73,98,440,100,440,101,441.73,102,440,104,440,105,441.73,104,443.46,106,443.46,107,445.2,106,446.93,104,446.93,105,448.66,104,450.39,106,450.39,107,452.12,108,450.39,110,450.39,111,452.12,110,453.86,112,453.86,113,455.59,112,457.32,110,457.32,111,459.05,110,460.78,108,460.78,107,459.05,106,460.78,104,460.78,105,462.52,104,464.25,106,464.25,107,465.98,106,467.71,104,467.71,105,469.44,104,471.18,106,471.18,107,472.91,108,471.18,110,471.18,111,472.91,110,474.64,112,474.64,113,476.37,114,474.64,116,474.64,115,472.91,116,471.18,118,471.18,119,472.91,120,471.18,122,471.18,123,472.91,122,474.64,124,474.64,125,476.37,124,478.11,122,478.11,123,479.84,122,481.57,124,481.57,125,483.3,126,481.57,128,481.57,129,483.3,128,485.03,130,485.03,131,486.77,132,485.03,134,485.03,133,483.3,134,481.57,136,481.57,137,483.3,138,481.57,140,481.57,139,479.84,140,478.11,138,478.11,137,476.37,138,474.64,140,474.64,139,472.91,140,471.18,142,471.18,143,472.91,144,471.18,146,471.18,147,472.91,146,474.64,148,474.64,149,476.37,150,474.64,152,474.64,151,472.91,152,471.18,154,471.18,155,472.91,156,471.18,158,471.18,157,469.44,158,467.71,156,467.71,155,465.98,156,464.25,158,464.25,157,462.52,158,460.78,156,460.78,155,459.05,154,460.78,152,460.78,151,459.05,152,457.32,150,457.32,149,455.59,150,453.86,152,453.86,151,452.12,152,450.39,154,450.39,155,452.12,156,450.39,158,450.39,157,448.66,158,446.93,156,446.93,155,445.2,156,443.46,158,443.46,157,441.73,158,440,160,440,161,441.73,162,440,164,440,165,441.73,164,443.46,166,443.46,167,445.2,168,443.46,170,443.46,169,441.73,170,440,172,440,173,441.73,174,440,176,440,177,441.73,176,443.46,178,443.46,179,445.2,178,446.93,176,446.93,177,448.66,176,450.39,178,450.39,179,452.12,180,450.39,182,450.39,183,452.12,182,453.86,184,453.86,185,455.59,186,453.86,188,453.86,187,452.12,188,450.39,190,450.39,191,452.12,192,450.39,194,450.39,193,448.66,194,446.93,192,446.93,191,445.2,192,443.46,194,443.46,193,441.73,194,440,196,440,197,441.73,198,440,200,440,201,441.73,200,443.46,202,443.46,203,445.2,204,443.46,206,443.46,205,441.73,206,440,208,440,209,441.73,210,440,212,440,213,441.73,212,443.46,214,443.46,215,445.2,214,446.93,212,446.93,213,448.66,212,450.39,214,450.39,215,452.12,216,450.39,218,450.39,219,452.12,218,453.86,220,453.86,221,455.59,220,457.32,218,457.32,219,459.05,218,460.78,216,460.78,215,459.05,214,460.78,212,460.78,213,462.52,212,464.25,214,464.25,215,465.98,214,467.71,212,467.71,213,469.44,212,471.18,214,471.18,215,472.91,216,471.18,218,471.18,219,472.91,218,474.64,220,474.64,221,476.37,222,474.64,224,474.64,223,472.91,224,471.18,226,471.18,227,472.91,228,471.18,230,471.18,231,472.91,230,474.64,232,474.64,233,476.37,232,478.11,230,478.11,231,479.84,230,481.57,232,481.57,233,483.3,234,481.57,236,481.57,237,483.3,236,485.03,238,485.03,239,486.77,238,488.5,236,488.5,237,490.23,236,491.96,234,491.96,233,490.23,232,491.96,230,491.96,231,493.69,230,495.43,232,495.43,233,497.16,232,498.89,230,498.89,231,500.62,230,502.35,228,502.35,227,500.62,226,502.35,224,502.35,223,500.62,224,498.89,222,498.89,221,497.16,220,498.89,218,498.89,219,500.62,218,502.35,216,502.35,215,500.62,214,502.35,212,502.35,213,504.09,212,505.82,214,505.82,215,507.55,214,509.28,212,509.28,213,511.01,212,512.75,214,512.75,215,514.48,216,512.75,218,512.75,219,514.48,218,516.21,220,516.21,221,517.94,220,519.67,218,519.67,219,521.41,218,523.14,216,523.14,215,521.41,214,523.14,212,523.14,213,524.87,212,526.6,214,526.6,215,528.33,214,530.07,212,530.07,213,531.8,212,533.53,214,533.53,215,535.26,216,533.53,218,533.53,219,535.26,218,536.99,220,536.99,221,538.73,222,536.99,224,536.99,223,535.26,224,533.53,226,533.53,227,535.26,228,533.53,230,533.53,231,535.26,230,536.99,232,536.99,233,538.73,232,540.46,230,540.46,231,542.19,230,543.92,232,543.92,233,545.65,234,543.92,236,543.92,237,545.65,236,547.39,238,547.39,239,549.12,240,547.39,242,547.39,241,545.65,242,543.92,244,543.92,245,545.65,246,543.92,248,543.92,247,542.19,248,540.46,246,540.46,245,538.73,246,536.99,248,536.99,247,535.26,248,533.53,250,533.53,251,535.26,252,533.53,254,533.53,255,535.26,254,536.99,256,536.99,257,538.73,258,536.99,260,536.99,259,535.26,260,533.53,262,533.53,263,535.26,264,533.53,266,533.53,267,535.26,266,536.99,268,536.99,269,538.73,268,540.46,266,540.46,267,542.19,266,543.92,268,543.92,269,545.65,270,543.92,272,543.92,273,545.65,272,547.39,274,547.39,275,549.12,274,550.85,272,550.85,273,552.58,272,554.32,270,554.32,269,552.58,268,554.32,266,554.32,267,556.05,266,557.78,268,557.78,269,559.51,268,561.24,266,561.24,267,562.98,266,564.71,268,564.71,269,566.44,270,564.71,272,564.71,273,566.44,272,568.17,274,568.17,275,569.9,276,568.17,278,568.17,277,566.44,278,564.71,280,564.71,281,566.44,282,564.71,284,564.71,285,566.44,284,568.17,286,568.17,287,569.9,286,571.64,284,571.64,285,573.37,284,575.1,286,575.1,287,576.83,288,575.1,290,575.1,291,576.83,290,578.56,292,578.56,293,580.3,294,578.56,296,578.56,295,576.83,296,575.1,298,575.1,299,576.83,300,575.1,302,575.1,301,573.37,302,571.64,300,571.64,299,569.9,300,568.17,302,568.17,301,566.44,302,564.71,304,564.71,305,566.44,306,564.71,308,564.71,309,566.44,308,568.17,310,568.17,311,569.9,312,568.17,314,568.17,313,566.44,314,564.71,316,564.71,317,566.44,318,564.71,320,564.71,319,562.98,320,561.24,318,561.24,317,559.51,318,557.78,320,557.78,319,556.05,320,554.32,318,554.32,317,552.58,316,554.32,314,554.32,313,552.58,314,550.85,312,550.85,311,549.12,312,547.39,314,547.39,313,545.65,314,543.92,316,543.92,317,545.65,318,543.92,320,543.92,319,542.19,320,540.46,318,540.46,317,538.73,318,536.99,320,536.99,319,535.26,320,533.53,322,533.53,323,535.26,324,533.53,326,533.53,327,535.26,326,536.99,328,536.99,329,538.73,330,536.99,332,536.99,331,535.26,332,533.53,334,533.53,335,535.26,336,533.53,338,533.53,339,535.26,338,536.99,340,536.99,341,538.73,340,540.46,338,540.46,339,542.19,338,543.92,340,543.92,341,545.65,342,543.92,344,543.92,345,545.65,344,547.39,346,547.39,347,549.12,348,547.39,350,547.39,349,545.65,350,543.92,352,543.92,353,545.65,354,543.92,356,543.92,355,542.19,356,540.46,354,540.46,353,538.73,354,536.99,356,536.99,355,535.26,356,533.53,358,533.53,359,535.26,360,533.53,362,533.53,363,535.26,362,536.99,364,536.99,365,538.73,366,536.99,368,536.99,367,535.26,368,533.53,370,533.53,371,535.26,372,533.53,374,533.53,373,531.8,374,530.07,372,530.07,371,528.33,372,526.6,374,526.6,373,524.87,374,523.14,372,523.14,371,521.41,370,523.14,368,523.14,367,521.41,368,519.67,366,519.67,365,517.94,366,516.21,368,516.21,367,514.48,368,512.75,370,512.75,371,514.48,372,512.75,374,512.75,373,511.01,374,509.28,372,509.28,371,507.55,372,505.82,374,505.82,373,504.09,374,502.35,372,502.35,371,500.62,370,502.35,368,502.35,367,500.62,368,498.89,366,498.89,365,497.16,364,498.89,362,498.89,363,500.62,362,502.35,360,502.35,359,500.62,358,502.35,356,502.35,355,500.62,356,498.89,354,498.89,353,497.16,354,495.43,356,495.43,355,493.69,356,491.96,354,491.96,353,490.23,352,491.96,350,491.96,349,490.23,350,488.5,348,488.5,347,486.77,348,485.03,350,485.03,349,483.3,350,481.57,352,481.57,353,483.3,354,481.57,356,481.57,355,479.84,356,478.11,354,478.11,353,476.37,354,474.64,356,474.64,355,472.91,356,471.18,358,471.18,359,472.91,360,471.18,362,471.18,363,472.91,362,474.64,364,474.64,365,476.37,366,474.64,368,474.64,367,472.91,368,471.18,370,471.18,371,472.91,372,471.18,374,471.18,373,469.44,374,467.71,372,467.71,371,465.98,372,464.25,374,464.25,373,462.52,374,460.78,372,460.78,371,459.05,370,460.78,368,460.78,367,459.05,368,457.32,366,457.32,365,455.59,366,453.86,368,453.86,367,452.12,368,450.39,370,450.39,371,452.12,372,450.39,374,450.39,373,448.66,374,446.93,372,446.93,371,445.2,372,443.46,374,443.46,373,441.73,374,440,376,440,377,441.73,378,440,380,440,381,441.73,380,443.46,382,443.46,383,445.2,384,443.46,386,443.46,385,441.73,386,440,388,440,389,441.73,390,440,392,440,393,441.73,392,443.46,394,443.46,395,445.2,394,446.93,392,446.93,393,448.66,392,450.39,394,450.39,395,452.12,396,450.39,398,450.39,399,452.12,398,453.86,400,453.86,401,455.59,402,453.86,404,453.86,403,452.12,404,450.39,406,450.39,407,452.12,408,450.39,410,450.39,409,448.66,410,446.93,408,446.93,407,445.2,408,443.46,410,443.46,409,441.73,410,440,412,440,413,441.73,414,440,416,440,417,441.73,416,443.46,418,443.46,419,445.2,420,443.46,422,443.46,421,441.73,422,440,424,440,425,441.73,426,440,428,440,429,441.73,428,443.46,430,443.46,431,445.2,430,446.93,428,446.93,429,448.66,428,450.39,430,450.39,431,452.12,432,450.39,434,450.39,435,452.12,434,453.86,436,453.86,437,455.59,436,457.32,434,457.32,435,459.05,434,460.78,432,460.78,431,459.05,430,460.78,428,460.78,429,462.52,428,464.25,430,464.25,431,465.98,430,467.71,428,467.71,429,469.44,428,471.18,430,471.18,431,472.91,432,471.18,434,471.18,435,472.91,434,474.64,436,474.64,437,476.37,438,474.64,440,474.64,439,472.91,440,471.18,442,471.18,443,472.91,444,471.18,446,471.18,447,472.91,446,474.64,448,474.64,449,476.37,448,478.11,446,478.11,447,479.84,446,481.57,448,481.57,449,483.3,450,481.57,452,481.57,453,483.3,452,485.03,454,485.03,455,486.77,456,485.03,458,485.03,457,483.3,458,481.57,460,481.57,461,483.3,462,481.57,464,481.57,463,479.84,464,478.11,462,478.11,461,476.37,462,474.64,464,474.64,463,472.91,464,471.18,466,471.18,467,472.91,468,471.18,470,471.18,471,472.91,470,474.64,472,474.64,473,476.37,474,474.64,476,474.64,475,472.91,476,471.18,478,471.18,479,472.91,480,471.18,482,471.18,481,469.44,482,467.71,480,467.71,479,465.98,480,464.25,482,464.25,481,462.52,482,460.78,480,460.78,479,459.05,478,460.78,476,460.78,475,459.05,476,457.32,474,457.32,473,455.59,474,453.86,476,453.86,475,452.12,476,450.39,478,450.39,479,452.12,480,450.39,482,450.39,481,448.66,482,446.93,480,446.93,479,445.2,480,443.46,482,443.46,481,441.73,482,440,484,440,485,441.73,486,440,488,440,489,441.73,488,443.46,490,443.46,491,445.2,492,443.46,494,443.46,493,441.73,494,440,496,440,497,441.73,498,440,500,440,501,441.73,500,443.46,502,443.46,503,445.2,502,446.93,500,446.93,501,448.66,500,450.39,502,450.39,503,452.12,504,450.39,506,450.39,507,452.12,506,453.86,508,453.86,509,455.59,510,453.86,512,453.86,511,452.12,512,450.39,514,450.39,515,452.12,516,450.39,518,450.39,517,448.66,518,446.93,516,446.93,515,445.2,516,443.46,518,443.46,517,441.73,518,440,520,440,521,441.73,522,440,524,440,525,441.73,524,443.46,526,443.46,527,445.2,528,443.46,530,443.46,529,441.73,530,440,532,440,533,441.73,534,440,536,440,535,438.27,536,436.54,534,436.54,533,434.8,534,433.07,536,433.07,535,431.34,536,429.61,534,429.61,533,427.88,532,429.61,530,429.61,529,427.88,530,426.14,528,426.14,527,424.41,528,422.68,530,422.68,529,420.95,530,419.22,532,419.22,533,420.95,534,419.22,536,419.22,535,417.48,536,415.75,534,415.75,533,414.02,534,412.29,536,412.29,535,410.56,536,408.82,534,408.82,533,407.09,532,408.82,530,408.82,529,407.09,530,405.36,528,405.36,527,403.63,526,405.36,524,405.36,525,407.09,524,408.82,522,408.82,521,407.09,520,408.82,518,408.82,517,407.09,518,405.36,516,405.36,515,403.63,516,401.9,518,401.9,517,400.16,518,398.43,516,398.43,515,396.7,514,398.43,512,398.43,511,396.7,512,394.97,510,394.97,509,393.24,510,391.5,512,391.5,511,389.77,512,388.04,514,388.04,515,389.77,516,388.04,518,388.04,517,386.31,518,384.57,516,384.57,515,382.84,516,381.11,518,381.11,517,379.38,518,377.65,520,377.65,521,379.38,522,377.65,524,377.65,525,379.38,524,381.11,526,381.11,527,382.84,528,381.11,530,381.11,529,379.38,530,377.65,532,377.65,533,379.38,534,377.65,536,377.65,535,375.91,536,374.18,534,374.18,533,372.45,534,370.72,536,370.72,535,368.99,536,367.25,534,367.25,533,365.52,532,367.25,530,367.25,529,365.52,530,363.79,528,363.79,527,362.06,528,360.33,530,360.33,529,358.59,530,356.86,532,356.86,533,358.59,534,356.86,536,356.86,535,355.13,536,353.4,534,353.4,533,351.67,534,349.93,536,349.93,535,348.2,536,346.47,534,346.47,533,344.74,532,346.47,530,346.47,529,344.74,530,343.01,528,343.01,527,341.27,526,343.01,524,343.01,525,344.74,524,346.47,522,346.47,521,344.74,520,346.47,518,346.47,517,344.74,518,343.01,516,343.01,515,341.27,516,339.54,518,339.54,517,337.81,518,336.08,516,336.08,515,334.35,514,336.08,512,336.08,511,334.35,512,332.61,510,332.61,509,330.88,508,332.61,506,332.61,507,334.35,506,336.08,504,336.08,503,334.35,502,336.08,500,336.08,501,337.81,500,339.54,502,339.54,503,341.27,502,343.01,500,343.01,501,344.74,500,346.47,498,346.47,497,344.74,496,346.47,494,346.47,493,344.74,494,343.01,492,343.01,491,341.27,490,343.01,488,343.01,489,344.74,488,346.47,486,346.47,485,344.74,484,346.47,482,346.47,481,344.74,482,343.01,480,343.01,479,341.27,480,339.54,482,339.54,481,337.81,482,336.08,480,336.08,479,334.35,478,336.08,476,336.08,475,334.35,476,332.61,474,332.61,473,330.88,474,329.15,476,329.15,475,327.42,476,325.69,478,325.69,479,327.42,480,325.69,482,325.69,481,323.95,482,322.22,480,322.22,479,320.49,480,318.76,482,318.76,481,317.03,482,315.29,480,315.29,479,313.56,478,315.29,476,315.29,475,313.56,476,311.83,474,311.83,473,310.1,472,311.83,470,311.83,471,313.56,470,315.29,468,315.29,467,313.56,466,315.29,464,315.29,463,313.56,464,311.83,462,311.83,461,310.1,462,308.36,464,308.36,463,306.63,464,304.9,462,304.9,461,303.17,460,304.9,458,304.9,457,303.17,458,301.44,456,301.44,455,299.7,456,297.97,458,297.97,457,296.24,458,294.51,460,294.51,461,296.24,462,294.51,464,294.51,463,292.78,464,291.04,462,291.04,461,289.31,462,287.58,464,287.58,463,285.85,464,284.12,466,284.12,467,285.85,468,284.12,470,284.12,471,285.85,470,287.58,472,287.58,473,289.31,474,287.58,476,287.58,475,285.85,476,284.12,478,284.12,479,285.85,480,284.12,482,284.12,481,282.38,482,280.65,480,280.65,479,278.92,480,277.19,482,277.19,481,275.46,482,273.72,480,273.72,479,271.99,478,273.72,476,273.72,475,271.99,476,270.26,474,270.26,473,268.53,474,266.8,476,266.8,475,265.06,476,263.33,478,263.33,479,265.06,480,263.33,482,263.33,481,261.6,482,259.87,480,259.87,479,258.14,480,256.4,482,256.4,481,254.67,482,252.94,484,252.94,485,254.67,486,252.94,488,252.94,489,254.67,488,256.4,490,256.4,491,258.14,492,256.4,494,256.4,493,254.67,494,252.94,496,252.94,497,254.67,498,252.94,500,252.94,501,254.67,500,256.4,502,256.4,503,258.14,502,259.87,500,259.87,501,261.6,500,263.33,502,263.33,503,265.06,504,263.33,506,263.33,507,265.06,506,266.8,508,266.8,509,268.53,510,266.8,512,266.8,511,265.06,512,263.33,514,263.33,515,265.06,516,263.33,518,263.33,517,261.6,518,259.87,516,259.87,515,258.14,516,256.4,518,256.4,517,254.67,518,252.94,520,252.94,521,254.67,522,252.94,524,252.94,525,254.67,524,256.4,526,256.4,527,258.14,528,256.4,530,256.4,529,254.67,530,252.94,532,252.94,533,254.67,534,252.94,536,252.94,535,251.21,536,249.48,534,249.48,533,247.74,534,246.01,536,246.01,535,244.28,536,242.55,534,242.55,533,240.82,532,242.55,530,242.55,529,240.82,530,239.08,528,239.08,527,237.35,528,235.62,530,235.62,529,233.89,530,232.16,532,232.16,533,233.89,534,232.16,536,232.16,535,230.42,536,228.69,534,228.69,533,226.96,534,225.23,536,225.23,535,223.5,536,221.76,534,221.76,533,220.03,532,221.76,530,221.76,529,220.03,530,218.3,528,218.3,527,216.57,526,218.3,524,218.3,525,220.03,524,221.76,522,221.76,521,220.03,520,221.76,518,221.76,517,220.03,518,218.3,516,218.3,515,216.57,516,214.83,518,214.83,517,213.1,518,211.37,516,211.37,515,209.64,514,211.37,512,211.37,511,209.64,512,207.91,510,207.91,509,206.17,510,204.44,512,204.44,511,202.71,512,200.98,514,200.98,515,202.71,516,200.98,518,200.98,517,199.25,518,197.51,516,197.51,515,195.78,516,194.05,518,194.05,517,192.32,518,190.59,520,190.59,521,192.32,522,190.59,524,190.59,525,192.32,524,194.05,526,194.05,527,195.78,528,194.05,530,194.05,529,192.32,530,190.59,532,190.59,533,192.32,534,190.59,536,190.59,535,188.85,536,187.12,534,187.12,533,185.39,534,183.66,536,183.66,535,181.93,536,180.19,534,180.19,533,178.46,532,180.19,530,180.19,529,178.46,530,176.73,528,176.73,527,175,528,173.27,530,173.27,529,171.53,530,169.8,532,169.8,533,171.53,534,169.8,536,169.8,535,168.07,536,166.34,534,166.34,533,164.61,534,162.87,536,162.87,535,161.14,536,159.41,534,159.41,533,157.68,532,159.41,530,159.41,529,157.68,530,155.95,528,155.95,527,154.21,526,155.95,524,155.95,525,157.68,524,159.41,522,159.41,521,157.68,520,159.41,518,159.41,517,157.68,518,155.95,516,155.95,515,154.21,516,152.48,518,152.48,517,150.75,518,149.02,516,149.02,515,147.29,514,149.02,512,149.02,511,147.29,512,145.55,510,145.55,509,143.82,508,145.55,506,145.55,507,147.29,506,149.02,504,149.02,503,147.29,502,149.02,500,149.02,501,150.75,500,152.48,502,152.48,503,154.21,502,155.95,500,155.95,501,157.68,500,159.41,498,159.41,497,157.68,496,159.41,494,159.41,493,157.68,494,155.95,492,155.95,491,154.21,490,155.95,488,155.95,489,157.68,488,159.41,486,159.41,485,157.68,484,159.41,482,159.41,481,157.68,482,155.95,480,155.95,479,154.21,480,152.48,482,152.48,481,150.75,482,149.02,480,149.02,479,147.29,478,149.02,476,149.02,475,147.29,476,145.55,474,145.55,473,143.82,474,142.09,476,142.09,475,140.36,476,138.63,478,138.63,479,140.36,480,138.63,482,138.63,481,136.89,482,135.16,480,135.16,479,133.43,480,131.7,482,131.7,481,129.96,482,128.23,480,128.23,479,126.5,478,128.23,476,128.23,475,126.5,476,124.77,474,124.77,473,123.04,472,124.77,470,124.77,471,126.5,470,128.23,468,128.23,467,126.5,466,128.23,464,128.23,463,126.5,464,124.77,462,124.77,461,123.04,462,121.3,464,121.3,463,119.57,464,117.84,462,117.84,461,116.11,460,117.84,458,117.84,457,116.11,458,114.38,456,114.38,455,112.64,454,114.38,452,114.38,453,116.11,452,117.84,450,117.84,449,116.11,448,117.84,446,117.84,447,119.57,446,121.3,448,121.3,449,123.04,448,124.77,446,124.77,447,126.5,446,128.23,444,128.23,443,126.5,442,128.23,440,128.23,439,126.5,440,124.77,438,124.77,437,123.04,436,124.77,434,124.77,435,126.5,434,128.23,432,128.23,431,126.5,430,128.23,428,128.23,429,129.96,428,131.7,430,131.7,431,133.43,430,135.16,428,135.16,429,136.89,428,138.63,430,138.63,431,140.36,432,138.63,434,138.63,435,140.36,434,142.09,436,142.09,437,143.82,436,145.55,434,145.55,435,147.29,434,149.02,432,149.02,431,147.29,430,149.02,428,149.02,429,150.75,428,152.48,430,152.48,431,154.21,430,155.95,428,155.95,429,157.68,428,159.41,426,159.41,425,157.68,424,159.41,422,159.41,421,157.68,422,155.95,420,155.95,419,154.21,418,155.95,416,155.95,417,157.68,416,159.41,414,159.41,413,157.68,412,159.41,410,159.41,409,157.68,410,155.95,408,155.95,407,154.21,408,152.48,410,152.48,409,150.75,410,149.02,408,149.02,407,147.29,406,149.02,404,149.02,403,147.29,404,145.55,402,145.55,401,143.82,400,145.55,398,145.55,399,147.29,398,149.02,396,149.02,395,147.29,394,149.02,392,149.02,393,150.75,392,152.48,394,152.48,395,154.21,394,155.95,392,155.95,393,157.68,392,159.41,390,159.41,389,157.68,388,159.41,386,159.41,385,157.68,386,155.95,384,155.95,383,154.21,382,155.95,380,155.95,381,157.68,380,159.41,378,159.41,377,157.68,376,159.41,374,159.41,373,157.68,374,155.95,372,155.95,371,154.21,372,152.48,374,152.48,373,150.75,374,149.02,372,149.02,371,147.29,370,149.02,368,149.02,367,147.29,368,145.55,366,145.55,365,143.82,366,142.09,368,142.09,367,140.36,368,138.63,370,138.63,371,140.36,372,138.63,374,138.63,373,136.89,374,135.16,372,135.16,371,133.43,372,131.7,374,131.7,373,129.96,374,128.23,372,128.23,371,126.5,370,128.23,368,128.23,367,126.5,368,124.77,366,124.77,365,123.04,364,124.77,362,124.77,363,126.5,362,128.23,360,128.23,359,126.5,358,128.23,356,128.23,355,126.5,356,124.77,354,124.77,353,123.04,354,121.3,356,121.3,355,119.57,356,117.84,354,117.84,353,116.11,352,117.84,350,117.84,349,116.11,350,114.38,348,114.38,347,112.64,348,110.91,350,110.91,349,109.18,350,107.45,352,107.45,353,109.18,354,107.45,356,107.45,355,105.72,356,103.98,354,103.98,353,102.25,354,100.52,356,100.52,355,98.79,356,97.06,358,97.06,359,98.79,360,97.06,362,97.06,363,98.79,362,100.52,364,100.52,365,102.25,366,100.52,368,100.52,367,98.79,368,97.06,370,97.06,371,98.79,372,97.06,374,97.06,373,95.32,374,93.59,372,93.59,371,91.86,372,90.13,374,90.13,373,88.4,374,86.66,372,86.66,371,84.93,370,86.66,368,86.66,367,84.93,368,83.2,366,83.2,365,81.47,366,79.74,368,79.74,367,78,368,76.27,370,76.27,371,78,372,76.27,374,76.27,373,74.54,374,72.81,372,72.81,371,71.08,372,69.34,374,69.34,373,67.61,374,65.88,372,65.88,371,64.15,370,65.88,368,65.88,367,64.15,368,62.42,366,62.42,365,60.68,364,62.42,362,62.42,363,64.15,362,65.88,360,65.88,359,64.15,358,65.88,356,65.88,355,64.15,356,62.42,354,62.42,353,60.68,354,58.95,356,58.95,355,57.22,356,55.49,354,55.49,353,53.76,352,55.49,350,55.49,349,53.76,350,52.02,348,52.02,347,50.29,346,52.02,344,52.02,345,53.76,344,55.49,342,55.49,341,53.76,340,55.49,338,55.49,339,57.22,338,58.95,340,58.95,341,60.68,340,62.42,338,62.42,339,64.15,338,65.88,336,65.88,335,64.15,334,65.88,332,65.88,331,64.15,332,62.42,330,62.42,329,60.68,328,62.42,326,62.42,327,64.15,326,65.88,324,65.88,323,64.15,322,65.88,320,65.88,319,64.15,320,62.42,318,62.42,317,60.68,318,58.95,320,58.95,319,57.22,320,55.49,318,55.49,317,53.76,316,55.49,314,55.49,313,53.76,314,52.02,312,52.02,311,50.29,312,48.56,314,48.56,313,46.83,314,45.1,316,45.1,317,46.83,318,45.1,320,45.1,319,43.36,320,41.63,318,41.63,317,39.9,318,38.17,320,38.17,319,36.43,320,34.7,318,34.7,317,32.97,316,34.7,314,34.7,313,32.97,314,31.24,312,31.24,311,29.51,310,31.24,308,31.24,309,32.97,308,34.7,306,34.7,305,32.97,304,34.7,302,34.7,301,32.97,302,31.24,300,31.24,299,29.51,300,27.77,302,27.77,301,26.04,302,24.31,300,24.31,299,22.58,298,24.31,296,24.31,295,22.58,296,20.85,294,20.85,293,19.11,292,20.85,290,20.85,291,22.58,290,24.31,288,24.31,287,22.58,286,24.31,284,24.31,285,26.04,284,27.77,286,27.77,287,29.51,286,31.24,284,31.24,285,32.97,284,34.7,282,34.7,281,32.97,280,34.7,278,34.7,277,32.97,278,31.24,276,31.24,275,29.51,274,31.24,272,31.24,273,32.97,272,34.7,270,34.7,269,32.97,268,34.7,266,34.7,267,36.43,266,38.17,268,38.17,269,39.9,268,41.63,266,41.63,267,43.36,266,45.1,268,45.1,269,46.83,270,45.1,272,45.1,273,46.83,272,48.56,274,48.56,275,50.29,274,52.02,272,52.02,273,53.76,272,55.49,270,55.49,269,53.76,268,55.49,266,55.49,267,57.22,266,58.95,268,58.95,269,60.68,268,62.42,266,62.42,267,64.15,266,65.88,264,65.88,263,64.15,262,65.88,260,65.88,259,64.15,260,62.42,258,62.42,257,60.68,256,62.42,254,62.42,255,64.15,254,65.88,252,65.88,251,64.15,250,65.88,248,65.88,247,64.15,248,62.42,246,62.42,245,60.68,246,58.95,248,58.95,247,57.22,248,55.49,246,55.49,245,53.76,244,55.49,242,55.49,241,53.76,242,52.02,240,52.02,239,50.29,238,52.02,236,52.02,237,53.76,236,55.49,234,55.49,233,53.76,232,55.49,230,55.49,231,57.22,230,58.95,232,58.95,233,60.68,232,62.42,230,62.42,231,64.15,230,65.88,228,65.88,227,64.15,226,65.88,224,65.88,223,64.15,224,62.42,222,62.42,221,60.68,220,62.42,218,62.42,219,64.15,218,65.88,216,65.88,215,64.15,214,65.88,212,65.88,213,67.61,212,69.34,214,69.34,215,71.08,214,72.81,212,72.81,213,74.54,212,76.27,214,76.27,215,78,216,76.27,218,76.27,219,78,218,79.74,220,79.74,221,81.47,220,83.2,218,83.2,219,84.93,218,86.66,216,86.66,215,84.93,214,86.66,212,86.66,213,88.4,212,90.13,214,90.13,215,91.86,214,93.59,212,93.59,213,95.32,212,97.06,214,97.06,215,98.79,216,97.06,218,97.06,219,98.79,218,100.52,220,100.52,221,102.25,222,100.52,224,100.52,223,98.79,224,97.06,226,97.06,227,98.79,228,97.06,230,97.06,231,98.79,230,100.52,232,100.52,233,102.25,232,103.98,230,103.98,231,105.72,230,107.45,232,107.45,233,109.18,234,107.45,236,107.45,237,109.18,236,110.91,238,110.91,239,112.64,238,114.38,236,114.38,237,116.11,236,117.84,234,117.84,233,116.11,232,117.84,230,117.84,231,119.57,230,121.3,232,121.3,233,123.04,232,124.77,230,124.77,231,126.5,230,128.23,228,128.23,227,126.5,226,128.23,224,128.23,223,126.5,224,124.77,222,124.77,221,123.04,220,124.77,218,124.77,219,126.5,218,128.23,216,128.23,215,126.5,214,128.23,212,128.23,213,129.96,212,131.7,214,131.7,215,133.43,214,135.16,212,135.16,213,136.89,212,138.62,214,138.62,215,140.36,216,138.62,218,138.62,219,140.36,218,142.09,220,142.09,221,143.82,220,145.55,218,145.55,219,147.29,218,149.02,216,149.02,215,147.29,214,149.02,212,149.02,213,150.75,212,152.48,214,152.48,215,154.21,214,155.95,212,155.95,213,157.68,212,159.41,210,159.41,209,157.68,208,159.41,206,159.41,205,157.68,206,155.95,204,155.95,203,154.21,202,155.95,200,155.95,201,157.68,200,159.41,198,159.41,197,157.68,196,159.41,194,159.41,193,157.68,194,155.95,192,155.95,191,154.21,192,152.48,194,152.48,193,150.75,194,149.02,192,149.02,191,147.29,190,149.02,188,149.02,187,147.29,188,145.55,186,145.55,185,143.82,184,145.55,182,145.55,183,147.29,182,149.02,180,149.02,179,147.29,178,149.02,176,149.02,177,150.75,176,152.48,178,152.48,179,154.21,178,155.95,176,155.95,177,157.68,176,159.41,174,159.41,173,157.68,172,159.41,170,159.41,169,157.68,170,155.95,168,155.95,167,154.21,166,155.95,164,155.95,165,157.68,164,159.41,162,159.41,161,157.68,160,159.41,158,159.41,157,157.68,158,155.95,156,155.95,155,154.21,156,152.48,158,152.48,157,150.75,158,149.02,156,149.02,155,147.29,154,149.02,152,149.02,151,147.29,152,145.55,150,145.55,149,143.82,150,142.09,152,142.09,151,140.36,152,138.62,154,138.62,155,140.36,156,138.62,158,138.62,157,136.89,158,135.16,156,135.16,155,133.43,156,131.7,158,131.7,157,129.96,158,128.23,156,128.23,155,126.5,154,128.23,152,128.23,151,126.5,152,124.77,150,124.77,149,123.04,148,124.77,146,124.77,147,126.5,146,128.23,144,128.23,143,126.5,142,128.23,140,128.23,139,126.5,140,124.77,138,124.77,137,123.04,138,121.3,140,121.3,139,119.57,140,117.84,138,117.84,137,116.11,136,117.84,134,117.84,133,116.11,134,114.38,132,114.38,131,112.64,130,114.38,128,114.38,129,116.11,128,117.84,126,117.84,125,116.11,124,117.84,122,117.84,123,119.57,122,121.3,124,121.3,125,123.04,124,124.77,122,124.77,123,126.5,122,128.23,120,128.23,119,126.5,118,128.23,116,128.23,115,126.5,116,124.77,114,124.77,113,123.04,112,124.77,110,124.77,111,126.5,110,128.23,108,128.23,107,126.5,106,128.23,104,128.23,105,129.96,104,131.7,106,131.7,107,133.43,106,135.16,104,135.16,105,136.89,104,138.62,106,138.62,107,140.36,108,138.62,110,138.62,111,140.36,110,142.09,112,142.09,113,143.82,112,145.55,110,145.55,111,147.29,110,149.02,108,149.02,107,147.29,106,149.02,104,149.02,105,150.75,104,152.48,106,152.48,107,154.21,106,155.95,104,155.95,105,157.68,104,159.41,102,159.41,101,157.68,100,159.41,98,159.41,97,157.68,98,155.95,96,155.95,95,154.21,94,155.95,92,155.95,93,157.68,92,159.41,90,159.41,89,157.68,88,159.41,86,159.41,85,157.68,86,155.95,84,155.95,83,154.21,84,152.48,86,152.48,85,150.75,86,149.02,84,149.02,83,147.29,82,149.02,80,149.02,79,147.29,80,145.55,78,145.55,77,143.82,76,145.55,74,145.55,75,147.29,74,149.02,72,149.02,71,147.29,70,149.02,68,149.02,69,150.75,68,152.48,70,152.48,71,154.21,70,155.95,68,155.95,69,157.68,68,159.41,66,159.41,65,157.68,64,159.41,62,159.41,61,157.68,62,155.95,60,155.95,59,154.21,58,155.95,56,155.95,57,157.68,56,159.41,54,159.41,53,157.68,52,159.41,50,159.41,51,161.14,50,162.87,52,162.87,53,164.61,52,166.34,50,166.34,51,168.07,50,169.8,52,169.8,53,171.53,54,169.8,56,169.8,57,171.53,56,173.27,58,173.27,59,175,58,176.73,56,176.73,57,178.46,56,180.19,54,180.19,53,178.46,52,180.19,50,180.19,51,181.93,50,183.66,52,183.66,53,185.39,52,187.12,50,187.12,51,188.85,50,190.59,52,190.59,53,192.32,54,190.59,56,190.59,57,192.32,56,194.05,58,194.05,59,195.78,60,194.05,62,194.05,61,192.32,62,190.59,64,190.59,65,192.32,66,190.59,68,190.59,69,192.32,68,194.05,70,194.05,71,195.78,70,197.51,68,197.51,69,199.25,68,200.98,70,200.98,71,202.71,72,200.98,74,200.98,75,202.71,74,204.44,76,204.44,77,206.17,76,207.91,74,207.91,75,209.64,74,211.37,72,211.37,71,209.64,70,211.37,68,211.37,69,213.1,68,214.83,70,214.83,71,216.57,70,218.3,68,218.3,69,220.03,68,221.76,66,221.76,65,220.03,64,221.76,62,221.76,61,220.03,62,218.3,60,218.3,59,216.57,58,218.3,56,218.3,57,220.03,56,221.76,54,221.76,53,220.03,52,221.76,50,221.76,51,223.49,50,225.23,52,225.23,53,226.96,52,228.69,50,228.69,51,230.42,50,232.15,52,232.15,53,233.89,54,232.15,56,232.15,57,233.89,56,235.62,58,235.62,59,237.35,58,239.08,56,239.08,57,240.81,56,242.55,54,242.55,53,240.81,52,242.55,50,242.55,51,244.28,50,246.01,52,246.01,53,247.74,52,249.47,50,249.47,51,251.21,50,252.94,52,252.94,53,254.67,54,252.94,56,252.94,57,254.67,56,256.4,58,256.4,59,258.14,60,256.4,62,256.4,61,254.67,62,252.94,64,252.94,65,254.67,66,252.94,68,252.94,69,254.67,68,256.4,70,256.4,71,258.14,70,259.87,68,259.87,69,261.6,68,263.33,70,263.33,71,265.06,72,263.33,74,263.33,75,265.06,74,266.8,76,266.8,77,268.53,78,266.8,80,266.8,79,265.06,80,263.33,82,263.33,83,265.06,84,263.33,86,263.33,85,261.6,86,259.87,84,259.87,83,258.14,84,256.4,86,256.4,85,254.67,86,252.94,88,252.94,89,254.67,90,252.94,92,252.94,93,254.67,92,256.4,94,256.4,95,258.14,96,256.4,98,256.4,97,254.67,98,252.94,100,252.94,101,254.67,102,252.94,104,252.94,105,254.67,104,256.4,106,256.4,107,258.14,106,259.87,104,259.87,105,261.6,104,263.33,106,263.33,107,265.06,108,263.33,110,263.33,111,265.06,110,266.8,112,266.8,113,268.53,112,270.26,110,270.26,111,271.99,110,273.72,108,273.72,107,271.99,106,273.72,104,273.72,105,275.46,104,277.19,106,277.19,107,278.92,106,280.65,104,280.65,105,282.38,104,284.12,106,284.12,107,285.85,108,284.12,110,284.12,111,285.85,110,287.58,112,287.58,113,289.31,114,287.58,116,287.58,115,285.85,116,284.12,118,284.12,119,285.85,120,284.12,122,284.12,123,285.85,122,287.58,124,287.58,125,289.31,124,291.04,122,291.04,123,292.78,122,294.51,124,294.51,125,296.24,126,294.51,128,294.51,129,296.24,128,297.97,130,297.97,131,299.7,130,301.44,128,301.44,129,303.17,128,304.9,126,304.9,125,303.17,124,304.9,122,304.9,123,306.63,122,308.36,124,308.36,125,310.1,124,311.83,122,311.83,123,313.56,122,315.29,120,315.29,119,313.56,118,315.29,116,315.29,115,313.56,116,311.83,114,311.83,113,310.1,112,311.83,110,311.83,111,313.56,110,315.29,108,315.29,107,313.56,106,315.29,104,315.29,105,317.02,104,318.76,106,318.76,107,320.49,106,322.22,104,322.22,105,323.95,104,325.68,106,325.68,107,327.42,108,325.68,110,325.68,111,327.42,110,329.15,112,329.15,113,330.88,112,332.61,110,332.61,111,334.34,110,336.08,108,336.08,107,334.34,106,336.08,104,336.08,105,337.81,104,339.54,106,339.54,107,341.27,106,343,104,343,105,344.74,104,346.47,102,346.47,101,344.74,100,346.47,98,346.47,97,344.74,98,343,96,343,95,341.27,94,343,92,343,93,344.74,92,346.47,90,346.47,89,344.74,88,346.47,86,346.47,85,344.74,86,343,84,343,83,341.27,84,339.54,86,339.54,85,337.81,86,336.08,84,336.08,83,334.34,82,336.08,80,336.08,79,334.34,80,332.61,78,332.61,77,330.88,76,332.61,74,332.61,75,334.34,74,336.08,72,336.08,71,334.34,70,336.08,68,336.08,69,337.81,68,339.54,70,339.54,71,341.27,70,343,68,343,69,344.74,68,346.47,66,346.47,65,344.74,64,346.47,62,346.47,61,344.74,62,343,60,343,59,341.27,58,343,56,343,57,344.74,56,346.47,54,346.47,53,344.74,52,346.47,50,346.47,51,348.2,50,349.93,52,349.93,53,351.66,52,353.4,50,353.4,51,355.13,50,356.86,52,356.86,53,358.59,54,356.86,56,356.86,57,358.59,56,360.32,58,360.32,59,362.06,58,363.79,56,363.79,57,365.52,56,367.25,54,367.25,53,365.52,52,367.25,50,367.25,51,368.98,50,370.72,52,370.72,53,372.45,52,374.18,50,374.18,51,375.91,50,377.65,52,377.65,53,379.38,54,377.65,56,377.65,57,379.38,56,381.11,58,381.11,59,382.84,60,381.11,62,381.11,61,379.38,62,377.65,64,377.65,65,379.38,66,377.65,68,377.65,69,379.38,68,381.11,70,381.11,71,382.84,70,384.57,68,384.57,69,386.31,68,388.04,70,388.04,71,389.77,72,388.04,74,388.04,75,389.77,74,391.5,76,391.5,77,393.23,76,394.97,74,394.97,75,396.7,74,398.43,72,398.43,71,396.7,70,398.43,68,398.43,69,400.16,68,401.89,70,401.89,71,403.63,70,405.36,68,405.36,69,407.09,68,408.82,66,408.82,65,407.09,64,408.82,62,408.82,61,407.09,62,405.36,60,405.36,59,403.63,58,405.36,56,405.36,57,407.09,56,408.82,54,408.82,53,407.09,52,408.82,50,408.82,51,410.55,50,412.29,52,412.29,53,414.02,52,415.75,50,415.75,51,417.48,50,419.21,52,419.21,53,420.95,54,419.21,56,419.21,57,420.95,56,422.68,58,422.68,59,424.41,58,426.14,56,426.14,57,427.87,56,429.61,54,429.61,53,427.87,52,429.61,50,429.61,51,431.34,50,433.07,52,433.07,53,434.8,52,436.53,50,436.53,51,438.27,50,440" fill="white" />
</svg>

