<svg xmlns="http://www.w3.org/2000/svg" xmlns:svg="http://www.w3.org/2000/svg" xmlns:xlink="http://www.w3.org/1999/xlink" width="660" height="660" style="stroke:lime"><rect width="100%" height="100%" fill="black" /><polyline points="10,10,10,18,10,26,18,26,18,18,18,10,26,10,26,18,26,26,26,34,26,42,26,50,18,50,18,42,18,34,10,34,10,42,10,50,10,58,10,66,10,74,18,74,18,66,18,58,26,58,26,66,26,74,34,74,34,66,34,58,42,58,42,66,42,74,50,74,50,66,50,58,50,50,50,42,50,34,42,34,42,42,42,50,34,50,34,42,34,34,34,26,34,18,34,10,42,10,42,18,42,26,50,26,50,18,50,10,58,10,58,18,58,26,66,26,66,18,66,10,74,10,74,18,74,26,74,34,74,42,74,50,66,50,66,42,66,34,58,34,58,42,58,50,58,58,58,66,58,74,66,74,66,66,66,58,74,58,74,66,74,74,74,82,74,90,74,98,66,98,66,90,66,82,58,82,58,90,58,98,58,106,58,114,58,122,66,122,66,114,66,106,74,106,74,114,74,122,74,130,74,138,74,146,66,146,66,138,66,130,58,130,58,138,58,146,50,146,50,138,50,130,42,130,42,138,42,146,34,146,34,138,34,130,34,122,34,114,34,106,42,106,42,114,42,122,50,122,50,114,50,106,50,98,50,90,50,82,42,82,42,90,42,98,34,98,34,90,34,82,26,82,26,90,26,98,18,98,18,90,18,82,10,82,10,90,10,98,10,106,10,114,10,122,18,122,18,114,18,106,26,106,26,114,26,122,26,130,26,138,26,146,18,146,18,138,18,130,10,130,10,138,10,146,10,154,10,162,10,170,18,170,18,162,18,154,26,154,26,162,26,170,26,178,26,186,26,194,18,194,18,186,18,178,10,178,10,186,10,194,10,202,10,210,10,218,18,218,18,210,18,202,26,202,26,210,26,218,34,218,34,210,34,202,42,202,42,210,42,218,50,218,50,210,50,202,50,194,50,186,50,178,42,178,42,186,42,194,34,194,34,186,34,178,34,170,34,162,34,154,42,154,42,162,42,170,50,170,50,162,50,154,58,154,58,162,58,170,66,170,66,162,66,154,74,154,74,162,74,170,74,178,74,186,74,194,66,194,66,186,66,178,58,178,58,186,58,194,58,202,58,210,58,218,66,218,66,210,66,202,74,202,74,210,74,218,82,218,82,210,82,202,90,202,90,210,90,218,98,218,98,210,98,202,98,194,98,186,98,178,90,178,90,186,90,194,82,194,82,186,82,178,82,170,82,162,82,154,90,154,90,162,90,170,98,170,98,162,98,154,106,154,106,162,106,170,114,170,114,162,114,154,122,154,122,162,122,170,122,178,122,186,122,194,114,194,114,186,114,178,106,178,106,186,106,194,106,202,106,210,106,218,114,218,114,210,114,202,122,202,122,210,122,218,130,218,130,210,130,202,138,202,138,210,138,218,146,218,146,210,146,202,146,194,146,186,146,178,138,178,138,186,138,194,130,194,130,186,130,178,130,170,130,162,130,154,138,154,138,162,138,170,146,170,146,162,146,154,146,146,146,138,146,130,138,130,138,138,138,146,130,146,130,138,130,130,130,122,130,114,130,106,138,106,138,114,138,122,146,122,146,114,146,106,146,98,146,90,146,82,138,82,138,90,138,98,130,98,130,90,130,82,122,82,122,90,122,98,114,98,114,90,114,82,106,82,106,90,106,98,106,106,106,114,106,122,114,122,114,114,114,106,122,106,122,114,122,122,122,130,122,138,122,146,114,146,114,138,114,130,106,130,106,138,106,146,98,146,98,138,98,130,90,130,90,138,90,146,82,146,82,138,82,130,82,122,82,114,82,106,90,106,90,114,90,122,98,122,98,114,98,106,98,98,98,90,98,82,90,82,90,90,90,98,82,98,82,90,82,82,82,74,82,66,82,58,90,58,90,66,90,74,98,74,98,66,98,58,98,50,98,42,98,34,90,34,90,42,90,50,82,50,82,42,82,34,82,26,82,18,82,10,90,10,90,18,90,26,98,26,98,18,98,10,106,10,106,18,106,26,114,26,114,18,114,10,122,10,122,18,122,26,122,34,122,42,122,50,114,50,114,42,114,34,106,34,106,42,106,50,106,58,106,66,106,74,114,74,114,66,114,58,122,58,122,66,122,74,130,74,130,66,130,58,138,58,138,66,138,74,146,74,146,66,146,58,146,50,146,42,146,34,138,34,138,42,138,50,130,50,130,42,130,34,130,26,130,18,130,10,138,10,138,18,138,26,146,26,146,18,146,10,154,10,154,18,154,26,162,26,162,18,162,10,170,10,170,18,170,26,170,34,170,42,170,50,162,50,162,42,162,34,154,34,154,42,154,50,154,58,154,66,154,74,162,74,162,66,162,58,170,58,170,66,170,74,178,74,178,66,178,58,186,58,186,66,186,74,194,74,194,66,194,58,194,50,194,42,194,34,186,34,186,42,186,50,178,50,178,42,178,34,178,26,178,18,178,10,186,10,186,18,186,26,194,26,194,18,194,10,202,10,202,18,202,26,210,26,210,18,210,10,218,10,218,18,218,26,218,34,218,42,218,50,210,50,210,42,210,34,202,34,202,42,202,50,202,58,202,66,202,74,210,74,210,66,210,58,218,58,218,66,218,74,218,82,218,90,218,98,210,98,210,90,210,82,202,82,202,90,202,98,202,106,202,114,202,122,210,122,210,114,210,106,218,106,218,114,218,122,218,130,218,138,218,146,210,146,210,138,210,130,202,130,202,138,202,146,194,146,194,138,194,130,186,130,186,138,186,146,178,146,178,138,178,130,178,122,178,114,178,106,186,106,186,114,186,122,194,122,194,114,194,106,194,98,194,90,194,82,186,82,186,90,186,98,178,98,178,90,178,82,170,82,170,90,170,98,162,98,162,90,162,82,154,82,154,90,154,98,154,106,154,114,154,122,162,122,162,114,162,106,170,106,170,114,170,122,170,130,170,138,170,146,162,146,162,138,162,130,154,130,154,138,154,146,154,154,154,162,154,170,162,170,162,162,162,154,170,154,170,162,170,170,170,178,170,186,170,194,162,194,162,186,162,178,154,178,154,186,154,194,154,202,154,210,154,218,162,218,162,210,162,202,170,202,170,210,170,218,178,218,178,210,178,202,186,202,186,210,186,218,194,218,194,210,194,202,194,194,194,186,194,178,186,178,186,186,186,194,178,194,178,186,178,178,178,170,178,162,178,154,186,154,186,162,186,170,194,170,194,162,194,154,202,154,202,162,202,170,210,170,210,162,210,154,218,154,218,162,218,170,218,178,218,186,218,194,210,194,210,186,210,178,202,178,202,186,202,194,202,202,202,210,202,218,210,218,210,210,210,202,218,202,218,210,218,218,218,226,218,234,218,242,210,242,210,234,210,226,202,226,202,234,202,242,202,250,202,258,202,266,210,266,210,258,210,250,218,250,218,258,218,266,218,274,218,282,218,290,210,290,210,282,210,274,202,274,202,282,202,290,194,290,194,282,194,274,186,274,186,282,186,290,178,290,178,282,178,274,178,266,178,258,178,250,186,250,186,258,186,266,194,266,194,258,194,250,194,242,194,234,194,226,186,226,186,234,186,242,178,242,178,234,178,226,170,226,170,234,170,242,162,242,162,234,162,226,154,226,154,234,154,242,154,250,154,258,154,266,162,266,162,258,162,250,170,250,170,258,170,266,170,274,170,282,170,290,162,290,162,282,162,274,154,274,154,282,154,290,154,298,154,306,154,314,162,314,162,306,162,298,170,298,170,306,170,314,170,322,170,330,170,338,162,338,162,330,162,322,154,322,154,330,154,338,154,346,154,354,154,362,162,362,162,354,162,346,170,346,170,354,170,362,178,362,178,354,178,346,186,346,186,354,186,362,194,362,194,354,194,346,194,338,194,330,194,322,186,322,186,330,186,338,178,338,178,330,178,322,178,314,178,306,178,298,186,298,186,306,186,314,194,314,194,306,194,298,202,298,202,306,202,314,210,314,210,306,210,298,218,298,218,306,218,314,218,322,218,330,218,338,210,338,210,330,210,322,202,322,202,330,202,338,202,346,202,354,202,362,210,362,210,354,210,346,218,346,218,354,218,362,218,370,218,378,218,386,210,386,210,378,210,370,202,370,202,378,202,386,202,394,202,402,202,410,210,410,210,402,210,394,218,394,218,402,218,410,218,418,218,426,218,434,210,434,210,426,210,418,202,418,202,426,202,434,194,434,194,426,194,418,186,418,186,426,186,434,178,434,178,426,178,418,178,410,178,402,178,394,186,394,186,402,186,410,194,410,194,402,194,394,194,386,194,378,194,370,186,370,186,378,186,386,178,386,178,378,178,370,170,370,170,378,170,386,162,386,162,378,162,370,154,370,154,378,154,386,154,394,154,402,154,410,162,410,162,402,162,394,170,394,170,402,170,410,170,418,170,426,170,434,162,434,162,426,162,418,154,418,154,426,154,434,146,434,146,426,146,418,138,418,138,426,138,434,130,434,130,426,130,418,130,410,130,402,130,394,138,394,138,402,138,410,146,410,146,402,146,394,146,386,146,378,146,370,138,370,138,378,138,386,130,386,130,378,130,370,122,370,122,378,122,386,114,386,114,378,114,370,106,370,106,378,106,386,106,394,106,402,106,410,114,410,114,402,114,394,122,394,122,402,122,410,122,418,122,426,122,434,114,434,114,426,114,418,106,418,106,426,106,434,98,434,98,426,98,418,90,418,90,426,90,434,82,434,82,426,82,418,82,410,82,402,82,394,90,394,90,402,90,410,98,410,98,402,98,394,98,386,98,378,98,370,90,370,90,378,90,386,82,386,82,378,82,370,82,362,82,354,82,346,90,346,90,354,90,362,98,362,98,354,98,346,98,338,98,330,98,322,90,322,90,330,90,338,82,338,82,330,82,322,82,314,82,306,82,298,90,298,90,306,90,314,98,314,98,306,98,298,106,298,106,306,106,314,114,314,114,306,114,298,122,298,122,306,122,314,122,322,122,330,122,338,114,338,114,330,114,322,106,322,106,330,106,338,106,346,106,354,106,362,114,362,114,354,114,346,122,346,122,354,122,362,130,362,130,354,130,346,138,346,138,354,138,362,146,362,146,354,146,346,146,338,146,330,146,322,138,322,138,330,138,338,130,338,130,330,130,322,130,314,130,306,130,298,138,298,138,306,138,314,146,314,146,306,146,298,146,290,146,282,146,274,138,274,138,282,138,290,130,290,130,282,130,274,130,266,130,258,130,250,138,250,138,258,138,266,146,266,146,258,146,250,146,242,146,234,146,226,138,226,138,234,138,242,130,242,130,234,130,226,122,226,122,234,122,242,114,242,114,234,114,226,106,226,106,234,106,242,106,250,106,258,106,266,114,266,114,258,114,250,122,250,122,258,122,266,122,274,122,282,122,290,114,290,114,282,114,274,106,274,106,282,106,290,98,290,98,282,98,274,90,274,90,282,90,290,82,290,82,282,82,274,82,266,82,258,82,250,90,250,90,258,90,266,98,266,98,258,98,250,98,242,98,234,98,226,90,226,90,234,90,242,82,242,82,234,82,226,74,226,74,234,74,242,66,242,66,234,66,226,58,226,58,234,58,242,58,250,58,258,58,266,66,266,66,258,66,250,74,250,74,258,74,266,74,274,74,282,74,290,66,290,66,282,66,274,58,274,58,282,58,290,50,290,50,282,50,274,42,274,42,282,42,290,34,290,34,282,34,274,34,266,34,258,34,250,42,250,42,258,42,266,50,266,50,258,50,250,50,242,50,234,50,226,42,226,42,234,42,242,34,242,34,234,34,226,26,226,26,234,26,242,18,242,18,234,18,226,10,226,10,234,10,242,10,250,10,258,10,266,18,266,18,258,18,250,26,250,26,258,26,266,26,274,26,282,26,290,18,290,18,282,18,274,10,274,10,282,10,290,10,298,10,306,10,314,18,314,18,306,18,298,26,298,26,306,26,314,26,322,26,330,26,338,18,338,18,330,18,322,10,322,10,330,10,338,10,346,10,354,10,362,18,362,18,354,18,346,26,346,26,354,26,362,34,362,34,354,34,346,42,346,42,354,42,362,50,362,50,354,50,346,50,338,50,330,50,322,42,322,42,330,42,338,34,338,34,330,34,322,34,314,34,306,34,298,42,298,42,306,42,314,50,314,50,306,50,298,58,298,58,306,58,314,66,314,66,306,66,298,74,298,74,306,74,314,74,322,74,330,74,338,66,338,66,330,66,322,58,322,58,330,58,338,58,346,58,354,58,362,66,362,66,354,66,346,74,346,74,354,74,362,74,370,74,378,74,386,66,386,66,378,66,370,58,370,58,378,58,386,58,394,58,402,58,410,66,410,66,402,66,394,74,394,74,402,74,410,74,418,74,426,74,434,66,434,66,426,66,418,58,418,58,426,58,434,50,434,50,426,50,418,42,418,42,426,42,434,34,434,34,426,34,418,34,410,34,402,34,394,42,394,42,402,42,410,50,410,50,402,50,394,50,386,50,378,50,370,42,370,42,378,42,386,34,386,34,378,34,370,26,370,26,378,26,386,18,386,18,378,18,370,10,370,10,378,10,386,10,394,10,402,10,410,18,410,18,402,18,394,26,394,26,402,26,410,26,418,26,426,26,434,18,434,18,426,18,418,10,418,10,426,10,434,10,442,10,450,10,458,18,458,18,450,18,442,26,442,26,450,26,458,26,466,26,474,26,482,18,482,18,474,18,466,10,466,10,474,10,482,10,490,10,498,10,506,18,506,18,498,18,490,26,490,26,498,26,506,34,506,34,498,34,490,42,490,42,498,42,506,50,506,50,498,50,490,50,482,50,474,50,466,42,466,42,474,42,482,34,482,34,474,34,466,34,458,34,450,34,442,42,442,42,450,42,458,50,458,50,450,50,442,58,442,58,450,58,458,66,458,66,450,66,442,74,442,74,450,74,458,74,466,74,474,74,482,66,482,66,474,66,466,58,466,58,474,58,482,58,490,58,498,58,506,66,506,66,498,66,490,74,490,74,498,74,506,74,514,74,522,74,530,66,530,66,522,66,514,58,514,58,522,58,530,58,538,58,546,58,554,66,554,66,546,66,538,74,538,74,546,74,554,74,562,74,570,74,578,66,578,66,570,66,562,58,562,58,570,58,578,50,578,50,570,50,562,42,562,42,570,42,578,34,578,34,570,34,562,34,554,34,546,34,538,42,538,42,546,42,554,50,554,50,546,50,538,50,530,50,522,50,514,42,514,42,522,42,530,34,530,34,522,34,514,26,514,26,522,26,530,18,530,18,522,18,514,10,514,10,522,10,530,10,538,10,546,10,554,18,554,18,546,18,538,26,538,26,546,26,554,26,562,26,570,26,578,18,578,18,570,18,562,10,562,10,570,10,578,10,586,10,594,10,602,18,602,18,594,18,586,26,586,26,594,26,602,26,610,26,618,26,626,18,626,18,618,18,610,10,610,10,618,10,626,10,634,10,642,10,650,18,650,18,642,18,634,26,634,26,642,26,650,34,650,34,642,34,634,42,634,42,642,42,650,50,650,50,642,50,634,50,626,50,618,50,610,42,610,42,618,42,626,34,626,34,618,34,610,34,602,34,594,34,586,42,586,42,594,42,602,50,602,50,594,50,586,58,586,58,594,58,602,66,602,66,594,66,586,74,586,74,594,74,602,74,610,74,618,74,626,66,626,66,618,66,610,58,610,58,618,58,626,58,634,58,642,58,650,66,650,66,642,66,634,74,634,74,642,74,650,82,650,82,642,82,634,90,634,90,642,90,650,98,650,98,642,98,634,98,626,98,618,98,610,90,610,90,618,90,626,82,626,82,618,82,610,82,602,82,594,82,586,90,586,90,594,90,602,98,602,98,594,98,586,106,586,106,594,106,602,114,602,114,594,114,586,122,586,122,594,122,602,122,610,122,618,122,626,114,626,114,618,114,610,106,610,106,618,106,626,106,634,106,642,106,650,114,650,114,642,114,634,122,634,122,642,122,650,130,650,130,642,130,634,138,634,138,642,138,650,146,650,146,642,146,634,146,626,146,618,146,610,138,610,138,618,138,626,130,626,130,618,130,610,130,602,130,594,130,586,138,586,138,594,138,602,146,602,146,594,146,586,146,578,146,570,146,562,138,562,138,570,138,578,130,578,130,570,130,562,130,554,130,546,130,538,138,538,138,546,138,554,146,554,146,546,146,538,146,530,146,522,146,514,138,514,138,522,138,530,130,530,130,522,130,514,122,514,122,522,122,530,114,530,114,522,114,514,106,514,106,522,106,530,106,538,106,546,106,554,114,554,114,546,114,538,122,538,122,546,122,554,122,562,122,570,122,578,114,578,114,570,114,562,106,562,106,570,106,578,98,578,98,570,98,562,90,562,90,570,90,578,82,578,82,570,82,562,82,554,82,546,82,538,90,538,90,546,90,554,98,554,98,546,98,538,98,530,98,522,98,514,90,514,90,522,90,530,82,530,82,522,82,514,82,506,82,498,82,490,90,490,90,498,90,506,98,506,98,498,98,490,98,482,98,474,98,466,90,466,90,474,90,482,82,482,82,474,82,466,82,458,82,450,82,442,90,442,90,450,90,458,98,458,98,450,98,442,106,442,106,450,106,458,114,458,114,450,114,442,122,442,122,450,122,458,122,466,122,474,122,482,114,482,114,474,114,466,106,466,106,474,106,482,106,490,106,498,106,506,114,506,114,498,114,490,122,490,122,498,122,506,130,506,130,498,130,490,138,490,138,498,138,506,146,506,146,498,146,490,146,482,146,474,146,466,138,466,138,474,138,482,130,482,130,474,130,466,130,458,130,450,130,442,138,442,138,450,138,458,146,458,146,450,146,442,154,442,154,450,154,458,162,458,162,450,162,442,170,442,170,450,170,458,170,466,170,474,170,482,162,482,162,474,162,466,154,466,154,474,154,482,154,490,154,498,154,506,162,506,162,498,162,490,170,490,170,498,170,506,178,506,178,498,178,490,186,490,186,498,186,506,194,506,194,498,194,490,194,482,194,474,194,466,186,466,186,474,186,482,178,482,178,474,178,466,178,458,178,450,178,442,186,442,186,450,186,458,194,458,194,450,194,442,202,442,202,450,202,458,210,458,210,450,210,442,218,442,218,450,218,458,218,466,218,474,218,482,210,482,210,474,210,466,202,466,202,474,202,482,202,490,202,498,202,506,210,506,210,498,210,490,218,490,218,498,218,506,218,514,218,522,218,530,210,530,210,522,210,514,202,514,202,522,202,530,202,538,202,546,202,554,210,554,210,546,210,538,218,538,218,546,218,554,218,562,218,570,218,578,210,578,210,570,210,562,202,562,202,570,202,578,194,578,194,570,194,562,186,562,186,570,186,578,178,578,178,570,178,562,178,554,178,546,178,538,186,538,186,546,186,554,194,554,194,546,194,538,194,530,194,522,194,514,186,514,186,522,186,530,178,530,178,522,178,514,170,514,170,522,170,530,162,530,162,522,162,514,154,514,154,522,154,530,154,538,154,546,154,554,162,554,162,546,162,538,170,538,170,546,170,554,170,562,170,570,170,578,162,578,162,570,162,562,154,562,154,570,154,578,154,586,154,594,154,602,162,602,162,594,162,586,170,586,170,594,170,602,170,610,170,618,170,626,162,626,162,618,162,610,154,610,154,618,154,626,154,634,154,642,154,650,162,650,162,642,162,634,170,634,170,642,170,650,178,650,178,642,178,634,186,634,186,642,186,650,194,650,194,642,194,634,194,626,194,618,194,610,186,610,186,618,186,626,178,626,178,618,178,610,178,602,178,594,178,586,186,586,186,594,186,602,194,602,194,594,194,586,202,586,202,594,202,602,210,602,210,594,210,586,218,586,218,594,218,602,218,610,218,618,218,626,210,626,210,618,210,610,202,610,202,618,202,626,202,634,202,642,202,650,210,650,210,642,210,634,218,634,218,642,218,650,226,650,226,642,226,634,234,634,234,642,234,650,242,650,242,642,242,634,242,626,242,618,242,610,234,610,234,618,234,626,226,626,226,618,226,610,226,602,226,594,226,586,234,586,234,594,234,602,242,602,242,594,242,586,250,586,250,594,250,602,258,602,258,594,258,586,266,586,266,594,266,602,266,610,266,618,266,626,258,626,258,618,258,610,250,610,250,618,250,626,250,634,250,642,250,650,258,650,258,642,258,634,266,634,266,642,266,650,274,650,274,642,274,634,282,634,282,642,282,650,290,650,290,642,290,634,290,626,290,618,290,610,282,610,282,618,282,626,274,626,274,618,274,610,274,602,274,594,274,586,282,586,282,594,282,602,290,602,290,594,290,586,290,578,290,570,290,562,282,562,282,570,282,578,274,578,274,570,274,562,274,554,274,546,274,538,282,538,282,546,282,554,290,554,290,546,290,538,290,530,290,522,290,514,282,514,282,522,282,530,274,530,274,522,274,514,266,514,266,522,266,530,258,530,258,522,258,514,250,514,250,522,250,530,250,538,250,546,250,554,258,554,258,546,258,538,266,538,266,546,266,554,266,562,266,570,266,578,258,578,258,570,258,562,250,562,250,570,250,578,242,578,242,570,242,562,234,562,234,570,234,578,226,578,226,570,226,562,226,554,226,546,226,538,234,538,234,546,234,554,242,554,242,546,242,538,242,530,242,522,242,514,234,514,234,522,234,530,226,530,226,522,226,514,226,506,226,498,226,490,234,490,234,498,234,506,242,506,242,498,242,490,242,482,242,474,242,466,234,466,234,474,234,482,226,482,226,474,226,466,226,458,226,450,226,442,234,442,234,450,234,458,242,458,242,450,242,442,250,442,250,450,250,458,258,458,258,450,258,442,266,442,266,450,266,458,266,466,266,474,266,482,258,482,258,474,258,466,250,466,250,474,250,482,250,490,250,498,250,506,258,506,258,498,258,490,266,490,266,498,266,506,274,506,274,498,274,490,282,490,282,498,282,506,290,506,290,498,290,490,290,482,290,474,290,466,282,466,282,474,282,482,274,482,274,474,274,466,274,458,274,450,274,442,282,442,282,450,282,458,290,458,290,450,290,442,298,442,298,450,298,458,306,458,306,450,306,442,314,442,314,450,314,458,314,466,314,474,314,482,306,482,306,474,306,466,298,466,298,474,298,482,298,490,298,498,298,506,306,506,306,498,306,490,314,490,314,498,314,506,322,506,322,498,322,490,330,490,330,498,330,506,338,506,338,498,338,490,338,482,338,474,338,466,330,466,330,474,330,482,322,482,322,474,322,466,322,458,322,450,322,442,330,442,330,450,330,458,338,458,338,450,338,442,346,442,346,450,346,458,354,458,354,450,354,442,362,442,362,450,362,458,362,466,362,474,362,482,354,482,354,474,354,466,346,466,346,474,346,482,346,490,346,498,346,506,354,506,354,498,354,490,362,490,362,498,362,506,362,514,362,522,362,530,354,530,354,522,354,514,346,514,346,522,346,530,346,538,346,546,346,554,354,554,354,546,354,538,362,538,362,546,362,554,362,562,362,570,362,578,354,578,354,570,354,562,346,562,346,570,346,578,338,578,338,570,338,562,330,562,330,570,330,578,322,578,322,570,322,562,322,554,322,546,322,538,330,538,330,546,330,554,338,554,338,546,338,538,338,530,338,522,338,514,330,514,330,522,330,530,322,530,322,522,322,514,314,514,314,522,314,530,306,530,306,522,306,514,298,514,298,522,298,530,298,538,298,546,298,554,306,554,306,546,306,538,314,538,314,546,314,554,314,562,314,570,314,578,306,578,306,570,306,562,298,562,298,570,298,578,298,586,298,594,298,602,306,602,306,594,306,586,314,586,314,594,314,602,314,610,314,618,314,626,306,626,306,618,306,610,298,610,298,618,298,626,298,634,298,642,298,650,306,650,306,642,306,634,314,634,314,642,314,650,322,650,322,642,322,634,330,634,330,642,330,650,338,650,338,642,338,634,338,626,338,618,338,610,330,610,330,618,330,626,322,626,322,618,322,610,322,602,322,594,322,586,330,586,330,594,330,602,338,602,338,594,338,586,346,586,346,594,346,602,354,602,354,594,354,586,362,586,362,594,362,602,362,610,362,618,362,626,354,626,354,618,354,610,346,610,346,618,346,626,346,634,346,642,346,650,354,650,354,642,354,634,362,634,362,642,362,650,370,650,370,642,370,634,378,634,378,642,378,650,386,650,386,642,386,634,386,626,386,618,386,610,378,610,378,618,378,626,370,626,370,618,370,610,370,602,370,594,370,586,378,586,378,594,378,602,386,602,386,594,386,586,394,586,394,594,394,602,402,602,402,594,402,586,410,586,410,594,410,602,410,610,410,618,410,626,402,626,402,618,402,610,394,610,394,618,394,626,394,634,394,642,394,650,402,650,402,642,402,634,410,634,410,642,410,650,418,650,418,642,418,634,426,634,426,642,426,650,434,650,434,642,434,634,434,626,434,618,434,610,426,610,426,618,426,626,418,626,418,618,418,610,418,602,418,594,418,586,426,586,426,594,426,602,434,602,434,594,434,586,434,578,434,570,434,562,426,562,426,570,426,578,418,578,418,570,418,562,418,554,418,546,418,538,426,538,426,546,426,554,434,554,434,546,434,538,434,530,434,522,434,514,426,514,426,522,426,530,418,530,418,522,418,514,410,514,410,522,410,530,402,530,402,522,402,514,394,514,394,522,394,530,394,538,394,546,394,554,402,554,402,546,402,538,410,538,410,546,410,554,410,562,410,570,410,578,402,578,402,570,402,562,394,562,394,570,394,578,386,578,386,570,386,562,378,562,378,570,378,578,370,578,370,570,370,562,370,554,370,546,370,538,378,538,378,546,378,554,386,554,386,546,386,538,386,530,386,522,386,514,378,514,378,522,378,530,370,530,370,522,370,514,370,506,370,498,370,490,378,490,378,498,378,506,386,506,386,498,386,490,386,482,386,474,386,466,378,466,378,474,378,482,370,482,370,474,370,466,370,458,370,450,370,442,378,442,378,450,378,458,386,458,386,450,386,442,394,442,394,450,394,458,402,458,402,450,402,442,410,442,410,450,410,458,410,466,410,474,410,482,402,482,402,474,402,466,394,466,394,474,394,482,394,490,394,498,394,506,402,506,402,498,402,490,410,490,410,498,410,506,418,506,418,498,418,490,426,490,426,498,426,506,434,506,434,498,434,490,434,482,434,474,434,466,426,466,426,474,426,482,418,482,418,474,418,466,418,458,418,450,418,442,426,442,426,450,426,458,434,458,434,450,434,442,434,434,434,426,434,418,426,418,426,426,426,434,418,434,418,426,418,418,418,410,418,402,418,394,426,394,426,402,426,410,434,410,434,402,434,394,434,386,434,378,434,370,426,370,426,378,426,386,418,386,418,378,418,370,410,370,410,378,410,386,402,386,402,378,402,370,394,370,394,378,394,386,394,394,394,402,394,410,402,410,402,402,402,394,410,394,410,402,410,410,410,418,410,426,410,434,402,434,402,426,402,418,394,418,394,426,394,434,386,434,386,426,386,418,378,418,378,426,378,434,370,434,370,426,370,418,370,410,370,402,370,394,378,394,378,402,378,410,386,410,386,402,386,394,386,386,386,378,386,370,378,370,378,378,378,386,370,386,370,378,370,370,370,362,370,354,370,346,378,346,378,354,378,362,386,362,386,354,386,346,386,338,386,330,386,322,378,322,378,330,378,338,370,338,370,330,370,322,370,314,370,306,370,298,378,298,378,306,378,314,386,314,386,306,386,298,394,298,394,306,394,314,402,314,402,306,402,298,410,298,410,306,410,314,410,322,410,330,410,338,402,338,402,330,402,322,394,322,394,330,394,338,394,346,394,354,394,362,402,362,402,354,402,346,410,346,410,354,410,362,418,362,418,354,418,346,426,346,426,354,426,362,434,362,434,354,434,346,434,338,434,330,434,322,426,322,426,330,426,338,418,338,418,330,418,322,418,314,418,306,418,298,426,298,426,306,426,314,434,314,434,306,434,298,434,290,434,282,434,274,426,274,426,282,426,290,418,290,418,282,418,274,418,266,418,258,418,250,426,250,426,258,426,266,434,266,434,258,434,250,434,242,434,234,434,226,426,226,426,234,426,242,418,242,418,234,418,226,410,226,410,234,410,242,402,242,402,234,402,226,394,226,394,234,394,242,394,250,394,258,394,266,402,266,402,258,402,250,410,250,410,258,410,266,410,274,410,282,410,290,402,290,402,282,402,274,394,274,394,282,394,290,386,290,386,282,386,274,378,274,378,282,378,290,370,290,370,282,370,274,370,266,370,258,370,250,378,250,378,258,378,266,386,266,386,258,386,250,386,242,386,234,386,226,378,226,378,234,378,242,370,242,370,234,370,226,362,226,362,234,362,242,354,242,354,234,354,226,346,226,346,234,346,242,346,250,346,258,346,266,354,266,354,258,354,250,362,250,362,258,362,266,362,274,362,282,362,290,354,290,354,282,354,274,346,274,346,282,346,290,338,290,338,282,338,274,330,274,330,282,330,290,322,290,322,282,322,274,322,266,322,258,322,250,330,250,330,258,330,266,338,266,338,258,338,250,338,242,338,234,338,226,330,226,330,234,330,242,322,242,322,234,322,226,314,226,314,234,314,242,306,242,306,234,306,226,298,226,298,234,298,242,298,250,298,258,298,266,306,266,306,258,306,250,314,250,314,258,314,266,314,274,314,282,314,290,306,290,306,282,306,274,298,274,298,282,298,290,298,298,298,306,298,314,306,314,306,306,306,298,314,298,314,306,314,314,314,322,314,330,314,338,306,338,306,330,306,322,298,322,298,330,298,338,298,346,298,354,298,362,306,362,306,354,306,346,314,346,314,354,314,362,322,362,322,354,322,346,330,346,330,354,330,362,338,362,338,354,338,346,338,338,338,330,338,322,330,322,330,330,330,338,322,338,322,330,322,322,322,314,322,306,322,298,330,298,330,306,330,314,338,314,338,306,338,298,346,298,346,306,346,314,354,314,354,306,354,298,362,298,362,306,362,314,362,322,362,330,362,338,354,338,354,330,354,322,346,322,346,330,346,338,346,346,346,354,346,362,354,362,354,354,354,346,362,346,362,354,362,362,362,370,362,378,362,386,354,386,354,378,354,370,346,370,346,378,346,386,346,394,346,402,346,410,354,410,354,402,354,394,362,394,362,402,362,410,362,418,362,426,362,434,354,434,354,426,354,418,346,418,346,426,346,434,338,434,338,426,338,418,330,418,330,426,330,434,322,434,322,426,322,418,322,410,322,402,322,394,330,394,330,402,330,410,338,410,338,402,338,394,338,386,338,378,338,370,330,370,330,378,330,386,322,386,322,378,322,370,314,370,314,378,314,386,306,386,306,378,306,370,298,370,298,378,298,386,298,394,298,402,298,410,306,410,306,402,306,394,314,394,314,402,314,410,314,418,314,426,314,434,306,434,306,426,306,418,298,418,298,426,298,434,290,434,290,426,290,418,282,418,282,426,282,434,274,434,274,426,274,418,274,410,274,402,274,394,282,394,282,402,282,410,290,410,290,402,290,394,290,386,290,378,290,370,282,370,282,378,282,386,274,386,274,378,274,370,266,370,266,378,266,386,258,386,258,378,258,370,250,370,250,378,250,386,250,394,250,402,250,410,258,410,258,402,258,394,266,394,266,402,266,410,266,418,266,426,266,434,258,434,258,426,258,418,250,418,250,426,250,434,242,434,242,426,242,418,234,418,234,426,234,434,226,434,226,426,226,418,226,410,226,402,226,394,234,394,234,402,234,410,242,410,242,402,242,394,242,386,242,378,242,370,234,370,234,378,234,386,226,386,226,378,226,370,226,362,226,354,226,346,234,346,234,354,234,362,242,362,242,354,242,346,242,338,242,330,242,322,234,322,234,330,234,338,226,338,226,330,226,322,226,314,226,306,226,298,234,298,234,306,234,314,242,314,242,306,242,298,250,298,250,306,250,314,258,314,258,306,258,298,266,298,266,306,266,314,266,322,266,330,266,338,258,338,258,330,258,322,250,322,250,330,250,338,250,346,250,354,250,362,258,362,258,354,258,346,266,346,266,354,266,362,274,362,274,354,274,346,282,346,282,354,282,362,290,362,290,354,290,346,290,338,290,330,290,322,282,322,282,330,282,338,274,338,274,330,274,322,274,314,274,306,274,298,282,298,282,306,282,314,290,314,290,306,290,298,290,290,290,282,290,274,282,274,282,282,282,290,274,290,274,282,274,274,274,266,274,258,274,250,282,250,282,258,282,266,290,266,290,258,290,250,290,242,290,234,290,226,282,226,282,234,282,242,274,242,274,234,274,226,266,226,266,234,266,242,258,242,258,234,258,226,250,226,250,234,250,242,250,250,250,258,250,266,258,266,258,258,258,250,266,250,266,258,266,266,266,274,266,282,266,290,258,290,258,282,258,274,250,274,250,282,250,290,242,290,242,282,242,274,234,274,234,282,234,290,226,290,226,282,226,274,226,266,226,258,226,250,234,250,234,258,234,266,242,266,242,258,242,250,242,242,242,234,242,226,234,226,234,234,234,242,226,242,226,234,226,226,226,218,226,210,226,202,234,202,234,210,234,218,242,218,242,210,242,202,242,194,242,186,242,178,234,178,234,186,234,194,226,194,226,186,226,178,226,170,226,162,226,154,234,154,234,162,234,170,242,170,242,162,242,154,250,154,250,162,250,170,258,170,258,162,258,154,266,154,266,162,266,170,266,178,266,186,266,194,258,194,258,186,258,178,250,178,250,186,250,194,250,202,250,210,250,218,258,218,258,210,258,202,266,202,266,210,266,218,274,218,274,210,274,202,282,202,282,210,282,218,290,218,290,210,290,202,290,194,290,186,290,178,282,178,282,186,282,194,274,194,274,186,274,178,274,170,274,162,274,154,282,154,282,162,282,170,290,170,290,162,290,154,290,146,290,138,290,130,282,130,282,138,282,146,274,146,274,138,274,130,274,122,274,114,274,106,282,106,282,114,282,122,290,122,290,114,290,106,290,98,290,90,290,82,282,82,282,90,282,98,274,98,274,90,274,82,266,82,266,90,266,98,258,98,258,90,258,82,250,82,250,90,250,98,250,106,250,114,250,122,258,122,258,114,258,106,266,106,266,114,266,122,266,130,266,138,266,146,258,146,258,138,258,130,250,130,250,138,250,146,242,146,242,138,242,130,234,130,234,138,234,146,226,146,226,138,226,130,226,122,226,114,226,106,234,106,234,114,234,122,242,122,242,114,242,106,242,98,242,90,242,82,234,82,234,90,234,98,226,98,226,90,226,82,226,74,226,66,226,58,234,58,234,66,234,74,242,74,242,66,242,58,242,50,242,42,242,34,234,34,234,42,234,50,226,50,226,42,226,34,226,26,226,18,226,10,234,10,234,18,234,26,242,26,242,18,242,10,250,10,250,18,250,26,258,26,258,18,258,10,266,10,266,18,266,26,266,34,266,42,266,50,258,50,258,42,258,34,250,34,250,42,250,50,250,58,250,66,250,74,258,74,258,66,258,58,266,58,266,66,266,74,274,74,274,66,274,58,282,58,282,66,282,74,290,74,290,66,290,58,290,50,290,42,290,34,282,34,282,42,282,50,274,50,274,42,274,34,274,26,274,18,274,10,282,10,282,18,282,26,290,26,290,18,290,10,298,10,298,18,298,26,306,26,306,18,306,10,314,10,314,18,314,26,314,34,314,42,314,50,306,50,306,42,306,34,298,34,298,42,298,50,298,58,298,66,298,74,306,74,306,66,306,58,314,58,314,66,314,74,322,74,322,66,322,58,330,58,330,66,330,74,338,74,338,66,338,58,338,50,338,42,338,34,330,34,330,42,330,50,322,50,322,42,322,34,322,26,322,18,322,10,330,10,330,18,330,26,338,26,338,18,338,10,346,10,346,18,346,26,354,26,354,18,354,10,362,10,362,18,362,26,362,34,362,42,362,50,354,50,354,42,354,34,346,34,346,42,346,50,346,58,346,66,346,74,354,74,354,66,354,58,362,58,362,66,362,74,362,82,362,90,362,98,354,98,354,90,354,82,346,82,346,90,346,98,346,106,346,114,346,122,354,122,354,114,354,106,362,106,362,114,362,122,362,130,362,138,362,146,354,146,354,138,354,130,346,130,346,138,346,146,338,146,338,138,338,130,330,130,330,138,330,146,322,146,322,138,322,130,322,122,322,114,322,106,330,106,330,114,330,122,338,122,338,114,338,106,338,98,338,90,338,82,330,82,330,90,330,98,322,98,322,90,322,82,314,82,314,90,314,98,306,98,306,90,306,82,298,82,298,90,298,98,298,106,298,114,298,122,306,122,306,114,306,106,314,106,314,114,314,122,314,130,314,138,314,146,306,146,306,138,306,130,298,130,298,138,298,146,298,154,298,162,298,170,306,170,306,162,306,154,314,154,314,162,314,170,314,178,314,186,314,194,306,194,306,186,306,178,298,178,298,186,298,194,298,202,298,210,298,218,306,218,306,210,306,202,314,202,314,210,314,218,322,218,322,210,322,202,330,202,330,210,330,218,338,218,338,210,338,202,338,194,338,186,338,178,330,178,330,186,330,194,322,194,322,186,322,178,322,170,322,162,322,154,330,154,330,162,330,170,338,170,338,162,338,154,346,154,346,162,346,170,354,170,354,162,354,154,362,154,362,162,362,170,362,178,362,186,362,194,354,194,354,186,354,178,346,178,346,186,346,194,346,202,346,210,346,218,354,218,354,210,354,202,362,202,362,210,362,218,370,218,370,210,370,202,378,202,378,210,378,218,386,218,386,210,386,202,386,194,386,186,386,178,378,178,378,186,378,194,370,194,370,186,370,178,370,170,370,162,370,154,378,154,378,162,378,170,386,170,386,162,386,154,394,154,394,162,394,170,402,170,402,162,402,154,410,154,410,162,410,170,410,178,410,186,410,194,402,194,402,186,402,178,394,178,394,186,394,194,394,202,394,210,394,218,402,218,402,210,402,202,410,202,410,210,410,218,418,218,418,210,418,202,426,202,426,210,426,218,434,218,434,210,434,202,434,194,434,186,434,178,426,178,426,186,426,194,418,194,418,186,418,178,418,170,418,162,418,154,426,154,426,162,426,170,434,170,434,162,434,154,434,146,434,138,434,130,426,130,426,138,426,146,418,146,418,138,418,130,418,122,418,114,418,106,426,106,426,114,426,122,434,122,434,114,434,106,434,98,434,90,434,82,426,82,426,90,426,98,418,98,418,90,418,82,410,82,410,90,410,98,402,98,402,90,402,82,394,82,394,90,394,98,394,106,394,114,394,122,402,122,402,114,402,106,410,106,410,114,410,122,410,130,410,138,410,146,402,146,402,138,402,130,394,130,394,138,394,146,386,146,386,138,386,130,378,130,378,138,378,146,370,146,370,138,370,130,370,122,370,114,370,106,378,106,378,114,378,122,386,122,386,114,386,106,386,98,386,90,386,82,378,82,378,90,378,98,370,98,370,90,370,82,370,74,370,66,370,58,378,58,378,66,378,74,386,74,386,66,386,58,386,50,386,42,386,34,378,34,378,42,378,50,370,50,370,42,370,34,370,26,370,18,370,10,378,10,378,18,378,26,386,26,386,18,386,10,394,10,394,18,394,26,402,26,402,18,402,10,410,10,410,18,410,26,410,34,410,42,410,50,402,50,402,42,402,34,394,34,394,42,394,50,394,58,394,66,394,74,402,74,402,66,402,58,410,58,410,66,410,74,418,74,418,66,418,58,426,58,426,66,426,74,434,74,434,66,434,58,434,50,434,42,434,34,426,34,426,42,426,50,418,50,418,42,418,34,418,26,418,18,418,10,426,10,426,18,426,26,434,26,434,18,434,10,442,10,442,18,442,26,450,26,450,18,450,10,458,10,458,18,458,26,458,34,458,42,458,50,450,50,450,42,450,34,442,34,442,42,442,50,442,58,442,66,442,74,450,74,450,66,450,58,458,58,458,66,458,74,466,74,466,66,466,58,474,58,474,66,474,74,482,74,482,66,482,58,482,50,482,42,482,34,474,34,474,42,474,50,466,50,466,42,466,34,466,26,466,18,466,10,474,10,474,18,474,26,482,26,482,18,482,10,490,10,490,18,490,26,498,26,498,18,498,10,506,10,506,18,506,26,506,34,506,42,506,50,498,50,498,42,498,34,490,34,490,42,490,50,490,58,490,66,490,74,498,74,498,66,498,58,506,58,506,66,506,74,506,82,506,90,506,98,498,98,498,90,498,82,490,82,490,90,490,98,490,106,490,114,490,122,498,122,498,114,498,106,506,106,506,114,506,122,506,130,506,138,506,146,498,146,498,138,498,130,490,130,490,138,490,146,482,146,482,138,482,130,474,130,474,138,474,146,466,146,466,138,466,130,466,122,466,114,466,106,474,106,474,114,474,122,482,122,482,114,482,106,482,98,482,90,482,82,474,82,474,90,474,98,466,98,466,90,466,82,458,82,458,90,458,98,450,98,450,90,450,82,442,82,442,90,442,98,442,106,442,114,442,122,450,122,450,114,450,106,458,106,458,114,458,122,458,130,458,138,458,146,450,146,450,138,450,130,442,130,442,138,442,146,442,154,442,162,442,170,450,170,450,162,450,154,458,154,458,162,458,170,458,178,458,186,458,194,450,194,450,186,450,178,442,178,442,186,442,194,442,202,442,210,442,218,450,218,450,210,450,202,458,202,458,210,458,218,466,218,466,210,466,202,474,202,474,210,474,218,482,218,482,210,482,202,482,194,482,186,482,178,474,178,474,186,474,194,466,194,466,186,466,178,466,170,466,162,466,154,474,154,474,162,474,170,482,170,482,162,482,154,490,154,490,162,490,170,498,170,498,162,498,154,506,154,506,162,506,170,506,178,506,186,506,194,498,194,498,186,498,178,490,178,490,186,490,194,490,202,490,210,490,218,498,218,498,210,498,202,506,202,506,210,506,218,514,218,514,210,514,202,522,202,522,210,522,218,530,218,530,210,530,202,530,194,530,186,530,178,522,178,522,186,522,194,514,194,514,186,514,178,514,170,514,162,514,154,522,154,522,162,522,170,530,170,530,162,530,154,538,154,538,162,538,170,546,170,546,162,546,154,554,154,554,162,554,170,554,178,554,186,554,194,546,194,546,186,546,178,538,178,538,186,538,194,538,202,538,210,538,218,546,218,546,210,546,202,554,202,554,210,554,218,562,218,562,210,562,202,570,202,570,210,570,218,578,218,578,210,578,202,578,194,578,186,578,178,570,178,570,186,570,194,562,194,562,186,562,178,562,170,562,162,562,154,570,154,570,162,570,170,578,170,578,162,578,154,578,146,578,138,578,130,570,130,570,138,570,146,562,146,562,138,562,130,562,122,562,114,562,106,570,106,570,114,570,122,578,122,578,114,578,106,578,98,578,90,578,82,570,82,570,90,570,98,562,98,562,90,562,82,554,82,554,90,554,98,546,98,546,90,546,82,538,82,538,90,538,98,538,106,538,114,538,122,546,122,546,114,546,106,554,106,554,114,554,122,554,130,554,138,554,146,546,146,546,138,546,130,538,130,538,138,538,146,530,146,530,138,530,130,522,130,522,138,522,146,514,146,514,138,514,130,514,122,514,114,514,106,522,106,522,114,522,122,530,122,530,114,530,106,530,98,530,90,530,82,522,82,522,90,522,98,514,98,514,90,514,82,514,74,514,66,514,58,522,58,522,66,522,74,530,74,530,66,530,58,530,50,530,42,530,34,522,34,522,42,522,50,514,50,514,42,514,34,514,26,514,18,514,10,522,10,522,18,522,26,530,26,530,18,530,10,538,10,538,18,538,26,546,26,546,18,546,10,554,10,554,18,554,26,554,34,554,42,554,50,546,50,546,42,546,34,538,34,538,42,538,50,538,58,538,66,538,74,546,74,546,66,546,58,554,58,554,66,554,74,562,74,562,66,562,58,570,58,570,66,570,74,578,74,578,66,578,58,578,50,578,42,578,34,570,34,570,42,570,50,562,50,562,42,562,34,562,26,562,18,562,10,570,10,570,18,570,26,578,26,578,18,578,10,586,10,586,18,586,26,594,26,594,18,594,10,602,10,602,18,602,26,602,34,602,42,602,50,594,50,594,42,594,34,586,34,586,42,586,50,586,58,586,66,586,74,594,74,594,66,594,58,602,58,602,66,602,74,610,74,610,66,610,58,618,58,618,66,618,74,626,74,626,66,626,58,626,50,626,42,626,34,618,34,618,42,618,50,610,50,610,42,610,34,610,26,610,18,610,10,618,10,618,18,618,26,626,26,626,18,626,10,634,10,634,18,634,26,642,26,642,18,642,10,650,10,650,18,650,26,650,34,650,42,650,50,642,50,642,42,642,34,634,34,634,42,634,50,634,58,634,66,634,74,642,74,642,66,642,58,650,58,650,66,650,74,650,82,650,90,650,98,642,98,642,90,642,82,634,82,634,90,634,98,634,106,634,114,634,122,642,122,642,114,642,106,650,106,650,114,650,122,650,130,650,138,650,146,642,146,642,138,642,130,634,130,634,138,634,146,626,146,626,138,626,130,618,130,618,138,618,146,610,146,610,138,610,130,610,122,610,114,610,106,618,106,618,114,618,122,626,122,626,114,626,106,626,98,626,90,626,82,618,82,618,90,618,98,610,98,610,90,610,82,602,82,602,90,602,98,594,98,594,90,594,82,586,82,586,90,586,98,586,106,586,114,586,122,594,122,594,114,594,106,602,106,602,114,602,122,602,130,602,138,602,146,594,146,594,138,594,130,586,130,586,138,586,146,586,154,586,162,586,170,594,170,594,162,594,154,602,154,602,162,602,170,602,178,602,186,602,194,594,194,594,186,594,178,586,178,586,186,586,194,586,202,586,210,586,218,594,218,594,210,594,202,602,202,602,210,602,218,610,218,610,210,610,202,618,202,618,210,618,218,626,218,626,210,626,202,626,194,626,186,626,178,618,178,618,186,618,194,610,194,610,186,610,178,610,170,610,162,610,154,618,154,618,162,618,170,626,170,626,162,626,154,634,154,634,162,634,170,642,170,642,162,642,154,650,154,650,162,650,170,650,178,650,186,650,194,642,194,642,186,642,178,634,178,634,186,634,194,634,202,634,210,634,218,642,218,642,210,642,202,650,202,650,210,650,218,650,226,650,234,650,242,642,242,642,234,642,226,634,226,634,234,634,242,634,250,634,258,634,266,642,266,642,258,642,250,650,250,650,258,650,266,650,274,650,282,650,290,642,290,642,282,642,274,634,274,634,282,634,290,626,290,626,282,626,274,618,274,618,282,618,290,610,290,610,282,610,274,610,266,610,258,610,250,618,250,618,258,618,266,626,266,626,258,626,250,626,242,626,234,626,226,618,226,618,234,618,242,610,242,610,234,610,226,602,226,602,234,602,242,594,242,594,234,594,226,586,226,586,234,586,242,586,250,586,258,586,266,594,266,594,258,594,250,602,250,602,258,602,266,602,274,602,282,602,290,594,290,594,282,594,274,586,274,586,282,586,290,586,298,586,306,586,314,594,314,594,306,594,298,602,298,602,306,602,314,602,322,602,330,602,338,594,338,594,330,594,322,586,322,586,330,586,338,586,346,586,354,586,362,594,362,594,354,594,346,602,346,602,354,602,362,610,362,610,354,610,346,618,346,618,354,618,362,626,362,626,354,626,346,626,338,626,330,626,322,618,322,618,330,618,338,610,338,610,330,610,322,610,314,610,306,610,298,618,298,618,306,618,314,626,314,626,306,626,298,634,298,634,306,634,314,642,314,642,306,642,298,650,298,650,306,650,314,650,322,650,330,650,338,642,338,642,330,642,322,634,322,634,330,634,338,634,346,634,354,634,362,642,362,642,354,642,346,650,346,650,354,650,362,650,370,650,378,650,386,642,386,642,378,642,370,634,370,634,378,634,386,634,394,634,402,634,410,642,410,642,402,642,394,650,394,650,402,650,410,650,418,650,426,650,434,642,434,642,426,642,418,634,418,634,426,634,434,626,434,626,426,626,418,618,418,618,426,618,434,610,434,610,426,610,418,610,410,610,402,610,394,618,394,618,402,618,410,626,410,626,402,626,394,626,386,626,378,626,370,618,370,618,378,618,386,610,386,610,378,610,370,602,370,602,378,602,386,594,386,594,378,594,370,586,370,586,378,586,386,586,394,586,402,586,410,594,410,594,402,594,394,602,394,602,402,602,410,602,418,602,426,602,434,594,434,594,426,594,418,586,418,586,426,586,434,578,434,578,426,578,418,570,418,570,426,570,434,562,434,562,426,562,418,562,410,562,402,562,394,570,394,570,402,570,410,578,410,578,402,578,394,578,386,578,378,578,370,570,370,570,378,570,386,562,386,562,378,562,370,554,370,554,378,554,386,546,386,546,378,546,370,538,370,538,378,538,386,538,394,538,402,538,410,546,410,546,402,546,394,554,394,554,402,554,410,554,418,554,426,554,434,546,434,546,426,546,418,538,418,538,426,538,434,530,434,530,426,530,418,522,418,522,426,522,434,514,434,514,426,514,418,514,410,514,402,514,394,522,394,522,402,522,410,530,410,530,402,530,394,530,386,530,378,530,370,522,370,522,378,522,386,514,386,514,378,514,370,514,362,514,354,514,346,522,346,522,354,522,362,530,362,530,354,530,346,530,338,530,330,530,322,522,322,522,330,522,338,514,338,514,330,514,322,514,314,514,306,514,298,522,298,522,306,522,314,530,314,530,306,530,298,538,298,538,306,538,314,546,314,546,306,546,298,554,298,554,306,554,314,554,322,554,330,554,338,546,338,546,330,546,322,538,322,538,330,538,338,538,346,538,354,538,362,546,362,546,354,546,346,554,346,554,354,554,362,562,362,562,354,562,346,570,346,570,354,570,362,578,362,578,354,578,346,578,338,578,330,578,322,570,322,570,330,570,338,562,338,562,330,562,322,562,314,562,306,562,298,570,298,570,306,570,314,578,314,578,306,578,298,578,290,578,282,578,274,570,274,570,282,570,290,562,290,562,282,562,274,562,266,562,258,562,250,570,250,570,258,570,266,578,266,578,258,578,250,578,242,578,234,578,226,570,226,570,234,570,242,562,242,562,234,562,226,554,226,554,234,554,242,546,242,546,234,546,226,538,226,538,234,538,242,538,250,538,258,538,266,546,266,546,258,546,250,554,250,554,258,554,266,554,274,554,282,554,290,546,290,546,282,546,274,538,274,538,282,538,290,530,290,530,282,530,274,522,274,522,282,522,290,514,290,514,282,514,274,514,266,514,258,514,250,522,250,522,258,522,266,530,266,530,258,530,250,530,242,530,234,530,226,522,226,522,234,522,242,514,242,514,234,514,226,506,226,506,234,506,242,498,242,498,234,498,226,490,226,490,234,490,242,490,250,490,258,490,266,498,266,498,258,498,250,506,250,506,258,506,266,506,274,506,282,506,290,498,290,498,282,498,274,490,274,490,282,490,290,482,290,482,282,482,274,474,274,474,282,474,290,466,290,466,282,466,274,466,266,466,258,466,250,474,250,474,258,474,266,482,266,482,258,482,250,482,242,482,234,482,226,474,226,474,234,474,242,466,242,466,234,466,226,458,226,458,234,458,242,450,242,450,234,450,226,442,226,442,234,442,242,442,250,442,258,442,266,450,266,450,258,450,250,458,250,458,258,458,266,458,274,458,282,458,290,450,290,450,282,450,274,442,274,442,282,442,290,442,298,442,306,442,314,450,314,450,306,450,298,458,298,458,306,458,314,458,322,458,330,458,338,450,338,450,330,450,322,442,322,442,330,442,338,442,346,442,354,442,362,450,362,450,354,450,346,458,346,458,354,458,362,466,362,466,354,466,346,474,346,474,354,474,362,482,362,482,354,482,346,482,338,482,330,482,322,474,322,474,330,474,338,466,338,466,330,466,322,466,314,466,306,466,298,474,298,474,306,474,314,482,314,482,306,482,298,490,298,490,306,490,314,498,314,498,306,498,298,506,298,506,306,506,314,506,322,506,330,506,338,498,338,498,330,498,322,490,322,490,330,490,338,490,346,490,354,490,362,498,362,498,354,498,346,506,346,506,354,506,362,506,370,506,378,506,386,498,386,498,378,498,370,490,370,490,378,490,386,490,394,490,402,490,410,498,410,498,402,498,394,506,394,506,402,506,410,506,418,506,426,506,434,498,434,498,426,498,418,490,418,490,426,490,434,482,434,482,426,482,418,474,418,474,426,474,434,466,434,466,426,466,418,466,410,466,402,466,394,474,394,474,402,474,410,482,410,482,402,482,394,482,386,482,378,482,370,474,370,474,378,474,386,466,386,466,378,466,370,458,370,458,378,458,386,450,386,450,378,450,370,442,370,442,378,442,386,442,394,442,402,442,410,450,410,450,402,450,394,458,394,458,402,458,410,458,418,458,426,458,434,450,434,450,426,450,418,442,418,442,426,442,434,442,442,442,450,442,458,450,458,450,450,450,442,458,442,458,450,458,458,458,466,458,474,458,482,450,482,450,474,450,466,442,466,442,474,442,482,442,490,442,498,442,506,450,506,450,498,450,490,458,490,458,498,458,506,466,506,466,498,466,490,474,490,474,498,474,506,482,506,482,498,482,490,482,482,482,474,482,466,474,466,474,474,474,482,466,482,466,474,466,466,466,458,466,450,466,442,474,442,474,450,474,458,482,458,482,450,482,442,490,442,490,450,490,458,498,458,498,450,498,442,506,442,506,450,506,458,506,466,506,474,506,482,498,482,498,474,498,466,490,466,490,474,490,482,490,490,490,498,490,506,498,506,498,498,498,490,506,490,506,498,506,506,506,514,506,522,506,530,498,530,498,522,498,514,490,514,490,522,490,530,490,538,490,546,490,554,498,554,498,546,498,538,506,538,506,546,506,554,506,562,506,570,506,578,498,578,498,570,498,562,490,562,490,570,490,578,482,578,482,570,482,562,474,562,474,570,474,578,466,578,466,570,466,562,466,554,466,546,466,538,474,538,474,546,474,554,482,554,482,546,482,538,482,530,482,522,482,514,474,514,474,522,474,530,466,530,466,522,466,514,458,514,458,522,458,530,450,530,450,522,450,514,442,514,442,522,442,530,442,538,442,546,442,554,450,554,450,546,450,538,458,538,458,546,458,554,458,562,458,570,458,578,450,578,450,570,450,562,442,562,442,570,442,578,442,586,442,594,442,602,450,602,450,594,450,586,458,586,458,594,458,602,458,610,458,618,458,626,450,626,450,618,450,610,442,610,442,618,442,626,442,634,442,642,442,650,450,650,450,642,450,634,458,634,458,642,458,650,466,650,466,642,466,634,474,634,474,642,474,650,482,650,482,642,482,634,482,626,482,618,482,610,474,610,474,618,474,626,466,626,466,618,466,610,466,602,466,594,466,586,474,586,474,594,474,602,482,602,482,594,482,586,490,586,490,594,490,602,498,602,498,594,498,586,506,586,506,594,506,602,506,610,506,618,506,626,498,626,498,618,498,610,490,610,490,618,490,626,490,634,490,642,490,650,498,650,498,642,498,634,506,634,506,642,506,650,514,650,514,642,514,634,522,634,522,642,522,650,530,650,530,642,530,634,530,626,530,618,530,610,522,610,522,618,522,626,514,626,514,618,514,610,514,602,514,594,514,586,522,586,522,594,522,602,530,602,530,594,530,586,538,586,538,594,538,602,546,602,546,594,546,586,554,586,554,594,554,602,554,610,554,618,554,626,546,626,546,618,546,610,538,610,538,618,538,626,538,634,538,642,538,650,546,650,546,642,546,634,554,634,554,642,554,650,562,650,562,642,562,634,570,634,570,642,570,650,578,650,578,642,578,634,578,626,578,618,578,610,570,610,570,618,570,626,562,626,562,618,562,610,562,602,562,594,562,586,570,586,570,594,570,602,578,602,578,594,578,586,578,578,578,570,578,562,570,562,570,570,570,578,562,578,562,570,562,562,562,554,562,546,562,538,570,538,570,546,570,554,578,554,578,546,578,538,578,530,578,522,578,514,570,514,570,522,570,530,562,530,562,522,562,514,554,514,554,522,554,530,546,530,546,522,546,514,538,514,538,522,538,530,538,538,538,546,538,554,546,554,546,546,546,538,554,538,554,546,554,554,554,562,554,570,554,578,546,578,546,570,546,562,538,562,538,570,538,578,530,578,530,570,530,562,522,562,522,570,522,578,514,578,514,570,514,562,514,554,514,546,514,538,522,538,522,546,522,554,530,554,530,546,530,538,530,530,530,522,530,514,522,514,522,522,522,530,514,530,514,522,514,514,514,506,514,498,514,490,522,490,522,498,522,506,530,506,530,498,530,490,530,482,530,474,530,466,522,466,522,474,522,482,514,482,514,474,514,466,514,458,514,450,514,442,522,442,522,450,522,458,530,458,530,450,530,442,538,442,538,450,538,458,546,458,546,450,546,442,554,442,554,450,554,458,554,466,554,474,554,482,546,482,546,474,546,466,538,466,538,474,538,482,538,490,538,498,538,506,546,506,546,498,546,490,554,490,554,498,554,506,562,506,562,498,562,490,570,490,570,498,570,506,578,506,578,498,578,490,578,482,578,474,578,466,570,466,570,474,570,482,562,482,562,474,562,466,562,458,562,450,562,442,570,442,570,450,570,458,578,458,578,450,578,442,586,442,586,450,586,458,594,458,594,450,594,442,602,442,602,450,602,458,602,466,602,474,602,482,594,482,594,474,594,466,586,466,586,474,586,482,586,490,586,498,586,506,594,506,594,498,594,490,602,490,602,498,602,506,610,506,610,498,610,490,618,490,618,498,618,506,626,506,626,498,626,490,626,482,626,474,626,466,618,466,618,474,618,482,610,482,610,474,610,466,610,458,610,450,610,442,618,442,618,450,618,458,626,458,626,450,626,442,634,442,634,450,634,458,642,458,642,450,642,442,650,442,650,450,650,458,650,466,650,474,650,482,642,482,642,474,642,466,634,466,634,474,634,482,634,490,634,498,634,506,642,506,642,498,642,490,650,490,650,498,650,506,650,514,650,522,650,530,642,530,642,522,642,514,634,514,634,522,634,530,634,538,634,546,634,554,642,554,642,546,642,538,650,538,650,546,650,554,650,562,650,570,650,578,642,578,642,570,642,562,634,562,634,570,634,578,626,578,626,570,626,562,618,562,618,570,618,578,610,578,610,570,610,562,610,554,610,546,610,538,618,538,618,546,618,554,626,554,626,546,626,538,626,530,626,522,626,514,618,514,618,522,618,530,610,530,610,522,610,514,602,514,602,522,602,530,594,530,594,522,594,514,586,514,586,522,586,530,586,538,586,546,586,554,594,554,594,546,594,538,602,538,602,546,602,554,602,562,602,570,602,578,594,578,594,570,594,562,586,562,586,570,586,578,586,586,586,594,586,602,594,602,594,594,594,586,602,586,602,594,602,602,602,610,602,618,602,626,594,626,594,618,594,610,586,610,586,618,586,626,586,634,586,642,586,650,594,650,594,642,594,634,602,634,602,642,602,650,610,650,610,642,610,634,618,634,618,642,618,650,626,650,626,642,626,634,626,626,626,618,626,610,618,610,618,618,618,626,610,626,610,618,610,610,610,602,610,594,610,586,618,586,618,594,618,602,626,602,626,594,626,586,634,586,634,594,634,602,642,602,642,594,642,586,650,586,650,594,650,602,650,610,650,618,650,626,642,626,642,618,642,610,634,610,634,618,634,626,634,634,634,642,634,650,642,650,642,642,642,634,650,634,650,642,650,650" fill="black" />
</svg>

