<svg xmlns="http://www.w3.org/2000/svg" xmlns:svg="http://www.w3.org/2000/svg" xmlns:xlink="http://www.w3.org/1999/xlink" width="600" height="400" style="stroke:rgb(250,12,210)"><rect width="100%" height="100%" fill="black" /><line x1="300" y1="200" x2="343.91" y2="233.14" />
<line x1="343.91" y1="233.14" x2="388.99" y2="201.62" /><line x1="388.99" y1="201.62" x2="345.08" y2="168.48" />
<line x1="345.08" y1="168.48" x2="300" y2="200" /><line x1="388.99" y1="201.62" x2="443.99" y2="202.62" />
<line x1="443.99" y1="202.62" x2="400.08" y2="169.48" /><line x1="400.08" y1="169.48" x2="345.08" y2="168.48" />
<line x1="345.08" y1="168.48" x2="388.99" y2="201.62" /><line x1="400.08" y1="169.48" x2="418.03" y2="117.48" />
<line x1="418.03" y1="117.48" x2="401.99" y2="64.86" /><line x1="401.99" y1="64.86" x2="447.07" y2="33.35" />
<line x1="447.07" y1="33.35" x2="463.11" y2="85.96" /><line x1="463.11" y1="85.96" x2="418.03" y2="117.48" />
<line x1="447.07" y1="33.35" x2="502.07" y2="34.35" /><line x1="502.07" y1="34.35" x2="520.02" y2="-17.65" />
<line x1="520.02" y1="-17.65" x2="465.02" y2="-18.65" /><line x1="465.02" y1="-18.65" x2="447.07" y2="33.35" />
<line x1="520.02" y1="-17.65" x2="502.07" y2="34.35" /><line x1="502.07" y1="34.35" x2="545.98" y2="67.48" />
<line x1="545.98" y1="67.48" x2="589.89" y2="100.62" /><line x1="589.89" y1="100.62" x2="605.93" y2="153.24" />
<line x1="605.93" y1="153.24" x2="562.02" y2="120.1" /><line x1="447.07" y1="33.35" x2="401.99" y2="64.86" />
<line x1="401.99" y1="64.86" x2="418.03" y2="117.48" /><line x1="418.03" y1="117.48" x2="463.11" y2="85.96" />
<line x1="463.11" y1="85.96" x2="447.07" y2="33.35" /><line x1="418.03" y1="117.48" x2="401.99" y2="64.86" />
<line x1="401.99" y1="64.86" x2="384.04" y2="116.86" /><line x1="384.04" y1="116.86" x2="400.08" y2="169.48" />
<line x1="400.08" y1="169.48" x2="418.03" y2="117.48" /><line x1="384.04" y1="116.86" x2="329.04" y2="115.86" />
<line x1="329.04" y1="115.86" x2="346.99" y2="63.86" /><line x1="346.99" y1="63.86" x2="303.08" y2="30.73" />
<line x1="303.08" y1="30.73" x2="259.17" y2="-2.41" /><line x1="259.17" y1="-2.41" x2="243.12" y2="-55.03" />
<line x1="243.12" y1="-55.03" x2="287.03" y2="-21.89" /><line x1="259.17" y1="-2.41" x2="204.17" y2="-3.41" />
<line x1="204.17" y1="-3.41" x2="188.12" y2="-56.03" /><line x1="188.12" y1="-56.03" x2="243.12" y2="-55.03" />
<line x1="243.12" y1="-55.03" x2="259.17" y2="-2.41" /><line x1="329.04" y1="115.86" x2="345.08" y2="168.48" />
<line x1="345.08" y1="168.48" x2="400.08" y2="169.48" /><line x1="400.08" y1="169.48" x2="455.08" y2="170.48" />
<line x1="455.08" y1="170.48" x2="498.99" y2="203.62" /><line x1="498.99" y1="203.62" x2="443.99" y2="202.62" />
<line x1="455.08" y1="170.48" x2="400.08" y2="169.48" /><line x1="400.08" y1="169.48" x2="384.04" y2="116.86" />
<line x1="384.04" y1="116.86" x2="439.04" y2="117.86" /><line x1="439.04" y1="117.86" x2="455.08" y2="170.48" />
<line x1="384.04" y1="116.86" x2="338.96" y2="148.38" /><line x1="338.96" y1="148.38" x2="355" y2="201" />
<line x1="355" y1="201" x2="400.08" y2="169.48" /><line x1="400.08" y1="169.48" x2="384.04" y2="116.86" />
<line x1="355" y1="201" x2="337.05" y2="253" /><line x1="337.05" y1="253" x2="382.14" y2="221.48" />
<line x1="382.14" y1="221.48" x2="400.08" y2="169.48" /><line x1="400.08" y1="169.48" x2="355" y2="201" />
<line x1="382.14" y1="221.48" x2="426.04" y2="254.62" /><line x1="384.04" y1="116.86" x2="401.99" y2="64.86" />
<line x1="401.99" y1="64.86" x2="358.08" y2="31.73" /><line x1="358.08" y1="31.73" x2="340.13" y2="83.73" />
<line x1="340.13" y1="83.73" x2="384.04" y2="116.86" /><line x1="358.08" y1="31.73" x2="340.13" y2="83.73" />
<line x1="340.13" y1="83.73" x2="384.04" y2="116.86" /><line x1="384.04" y1="116.86" x2="427.95" y2="150" />
<line x1="427.95" y1="150" x2="443.99" y2="202.62" /><line x1="443.99" y1="202.62" x2="400.08" y2="169.48" />
<line x1="427.95" y1="150" x2="482.95" y2="151" /><line x1="482.95" y1="151" x2="439.04" y2="117.86" />
<line x1="439.04" y1="117.86" x2="384.04" y2="116.86" /><line x1="384.04" y1="116.86" x2="427.95" y2="150" />
<line x1="439.04" y1="117.86" x2="456.99" y2="65.86" /><line x1="456.99" y1="65.86" x2="439.04" y2="117.86" />
<line x1="439.04" y1="117.86" x2="384.04" y2="116.86" /><line x1="384.04" y1="116.86" x2="401.99" y2="64.86" />
<line x1="401.99" y1="64.86" x2="456.99" y2="65.86" /><line x1="427.95" y1="150" x2="482.95" y2="151" />
<line x1="482.95" y1="151" x2="498.99" y2="203.62" /><line x1="498.99" y1="203.62" x2="443.99" y2="202.62" />
<line x1="443.99" y1="202.62" x2="427.95" y2="150" /><line x1="329.04" y1="115.86" x2="384.04" y2="116.86" />
<line x1="384.04" y1="116.86" x2="401.99" y2="64.86" /><line x1="401.99" y1="64.86" x2="419.93" y2="12.87" />
<line x1="419.93" y1="12.87" x2="465.02" y2="-18.65" /><line x1="465.02" y1="-18.65" x2="447.07" y2="33.35" />
<line x1="419.93" y1="12.87" x2="401.99" y2="64.86" /><line x1="401.99" y1="64.86" x2="346.99" y2="63.86" />
<line x1="346.99" y1="63.86" x2="364.93" y2="11.87" /><line x1="364.93" y1="11.87" x2="419.93" y2="12.87" />
<line x1="346.99" y1="63.86" x2="363.03" y2="116.48" /><line x1="363.03" y1="116.48" x2="418.03" y2="117.48" />
<line x1="418.03" y1="117.48" x2="401.99" y2="64.86" /><line x1="401.99" y1="64.86" x2="346.99" y2="63.86" />
<line x1="418.03" y1="117.48" x2="461.94" y2="150.62" /><line x1="461.94" y1="150.62" x2="445.89" y2="98" />
<line x1="445.89" y1="98" x2="401.99" y2="64.86" /><line x1="401.99" y1="64.86" x2="418.03" y2="117.48" />
<line x1="445.89" y1="98" x2="490.98" y2="66.48" /><line x1="346.99" y1="63.86" x2="363.03" y2="116.48" />
<line x1="363.03" y1="116.48" x2="418.03" y2="117.48" /><line x1="418.03" y1="117.48" x2="401.99" y2="64.86" />
<line x1="401.99" y1="64.86" x2="346.99" y2="63.86" /><line x1="418.03" y1="117.48" x2="461.94" y2="150.62" />
<line x1="461.94" y1="150.62" x2="445.89" y2="98" /><line x1="445.89" y1="98" x2="401.99" y2="64.86" />
<line x1="401.99" y1="64.86" x2="418.03" y2="117.48" /><line x1="445.89" y1="98" x2="490.98" y2="66.48" />
<line x1="490.98" y1="66.48" x2="508.92" y2="14.48" /><line x1="508.92" y1="14.48" x2="563.92" y2="15.48" />
<line x1="563.92" y1="15.48" x2="545.98" y2="67.48" /><line x1="545.98" y1="67.48" x2="490.98" y2="66.48" />
<line x1="563.92" y1="15.48" x2="607.83" y2="48.62" /><line x1="607.83" y1="48.62" x2="652.92" y2="17.1" />
<line x1="652.92" y1="17.1" x2="609.01" y2="-16.04" /><line x1="609.01" y1="-16.04" x2="563.92" y2="15.48" />
<line x1="652.92" y1="17.1" x2="607.83" y2="48.62" /><line x1="607.83" y1="48.62" x2="623.88" y2="101.24" />
<line x1="623.88" y1="101.24" x2="639.92" y2="153.86" /><line x1="639.92" y1="153.86" x2="621.98" y2="205.85" />
<line x1="621.98" y1="205.85" x2="605.93" y2="153.24" /><line x1="563.92" y1="15.48" x2="609.01" y2="-16.04" />
<line x1="609.01" y1="-16.04" x2="592.96" y2="-68.65" /><line x1="592.96" y1="-68.65" x2="547.88" y2="-37.13" />
<line x1="547.88" y1="-37.13" x2="563.92" y2="15.48" /><line x1="592.96" y1="-68.65" x2="547.88" y2="-37.13" />
<line x1="547.88" y1="-37.13" x2="563.92" y2="15.48" /><line x1="563.92" y1="15.48" x2="579.97" y2="68.1" />
<line x1="579.97" y1="68.1" x2="562.02" y2="120.1" /><line x1="562.02" y1="120.1" x2="545.98" y2="67.48" />
<line x1="579.97" y1="68.1" x2="623.88" y2="101.24" /><line x1="623.88" y1="101.24" x2="607.83" y2="48.62" />
<line x1="607.83" y1="48.62" x2="563.92" y2="15.48" /><line x1="563.92" y1="15.48" x2="579.97" y2="68.1" />
<line x1="607.83" y1="48.62" x2="652.92" y2="17.1" /><line x1="652.92" y1="17.1" x2="607.83" y2="48.62" />
<line x1="607.83" y1="48.62" x2="563.92" y2="15.48" /><line x1="563.92" y1="15.48" x2="609.01" y2="-16.04" />
<line x1="609.01" y1="-16.04" x2="652.92" y2="17.1" /><line x1="579.97" y1="68.1" x2="623.88" y2="101.24" />
<line x1="623.88" y1="101.24" x2="605.93" y2="153.24" /><line x1="605.93" y1="153.24" x2="562.02" y2="120.1" />
<line x1="562.02" y1="120.1" x2="579.97" y2="68.1" /><line x1="605.93" y1="153.24" x2="623.88" y2="101.24" />
<line x1="623.88" y1="101.24" x2="579.97" y2="68.1" /><line x1="579.97" y1="68.1" x2="562.02" y2="120.1" />
<line x1="562.02" y1="120.1" x2="605.93" y2="153.24" /><line x1="579.97" y1="68.1" x2="623.88" y2="101.24" />
<line x1="623.88" y1="101.24" x2="607.83" y2="48.62" /><line x1="607.83" y1="48.62" x2="563.92" y2="15.48" />
<line x1="563.92" y1="15.48" x2="579.97" y2="68.1" /><line x1="607.83" y1="48.62" x2="652.92" y2="17.1" />
<line x1="652.92" y1="17.1" x2="668.96" y2="69.72" /><line x1="668.96" y1="69.72" x2="723.96" y2="70.72" />
<line x1="723.96" y1="70.72" x2="778.96" y2="71.72" /><line x1="778.96" y1="71.72" x2="822.87" y2="104.86" />
<line x1="822.87" y1="104.86" x2="767.87" y2="103.86" /><line x1="778.96" y1="71.72" x2="824.05" y2="40.2" />
<line x1="824.05" y1="40.2" x2="867.95" y2="73.34" /><line x1="867.95" y1="73.34" x2="822.87" y2="104.86" />
<line x1="822.87" y1="104.86" x2="778.96" y2="71.72" /><line x1="563.92" y1="15.48" x2="609.01" y2="-16.04" />
<line x1="609.01" y1="-16.04" x2="592.96" y2="-68.65" /><line x1="592.96" y1="-68.65" x2="547.88" y2="-37.13" />
<line x1="547.88" y1="-37.13" x2="563.92" y2="15.48" /><line x1="592.96" y1="-68.65" x2="609.01" y2="-16.04" />
<line x1="609.01" y1="-16.04" x2="626.96" y2="-68.03" /><line x1="626.96" y1="-68.03" x2="610.91" y2="-120.65" />
<line x1="610.91" y1="-120.65" x2="592.96" y2="-68.65" /><line x1="626.96" y1="-68.03" x2="681.96" y2="-67.03" />
<line x1="681.96" y1="-67.03" x2="664.01" y2="-15.04" /><line x1="664.01" y1="-15.04" x2="707.92" y2="18.1" />
<line x1="707.92" y1="18.1" x2="751.82" y2="51.24" /><line x1="751.82" y1="51.24" x2="767.87" y2="103.86" />
<line x1="767.87" y1="103.86" x2="723.96" y2="70.72" /><line x1="751.82" y1="51.24" x2="806.82" y2="52.24" />
<line x1="806.82" y1="52.24" x2="822.87" y2="104.86" /><line x1="822.87" y1="104.86" x2="767.87" y2="103.86" />
<line x1="767.87" y1="103.86" x2="751.82" y2="51.24" /><line x1="681.96" y1="-67.03" x2="664.01" y2="-15.04" />
<line x1="664.01" y1="-15.04" x2="707.92" y2="18.1" /><line x1="707.92" y1="18.1" x2="751.82" y2="51.24" />
<line x1="751.82" y1="51.24" x2="767.87" y2="103.86" /><line x1="767.87" y1="103.86" x2="723.96" y2="70.72" />
<line x1="751.82" y1="51.24" x2="707.92" y2="18.1" /><line x1="707.92" y1="18.1" x2="725.86" y2="-33.9" />
<line x1="725.86" y1="-33.9" x2="769.77" y2="-0.76" /><line x1="769.77" y1="-0.76" x2="751.82" y2="51.24" />
<line x1="725.86" y1="-33.9" x2="670.86" y2="-34.9" /><line x1="670.86" y1="-34.9" x2="652.92" y2="17.1" />
<line x1="652.92" y1="17.1" x2="707.92" y2="18.1" /><line x1="707.92" y1="18.1" x2="725.86" y2="-33.9" />
<line x1="652.92" y1="17.1" x2="607.83" y2="48.62" /><line x1="607.83" y1="48.62" x2="662.83" y2="49.62" />
<line x1="662.83" y1="49.62" x2="707.92" y2="18.1" /><line x1="707.92" y1="18.1" x2="652.92" y2="17.1" />
<line x1="662.83" y1="49.62" x2="678.88" y2="102.24" /><line x1="725.86" y1="-33.9" x2="770.95" y2="-65.42" />
<line x1="770.95" y1="-65.42" x2="754.9" y2="-118.03" /><line x1="754.9" y1="-118.03" x2="709.82" y2="-86.51" />
<line x1="709.82" y1="-86.51" x2="725.86" y2="-33.9" /><line x1="754.9" y1="-118.03" x2="709.82" y2="-86.51" />
<line x1="709.82" y1="-86.51" x2="725.86" y2="-33.9" /><line x1="725.86" y1="-33.9" x2="741.91" y2="18.72" />
<line x1="741.91" y1="18.72" x2="723.96" y2="70.72" /><line x1="723.96" y1="70.72" x2="707.92" y2="18.1" />
<line x1="741.91" y1="18.72" x2="785.82" y2="51.86" /><line x1="785.82" y1="51.86" x2="769.77" y2="-0.76" />
<line x1="769.77" y1="-0.76" x2="725.86" y2="-33.9" /><line x1="725.86" y1="-33.9" x2="741.91" y2="18.72" />
<line x1="769.77" y1="-0.76" x2="814.86" y2="-32.28" /><line x1="814.86" y1="-32.28" x2="769.77" y2="-0.76" />
<line x1="769.77" y1="-0.76" x2="725.86" y2="-33.9" /><line x1="725.86" y1="-33.9" x2="770.95" y2="-65.42" />
<line x1="770.95" y1="-65.42" x2="814.86" y2="-32.28" /><line x1="741.91" y1="18.72" x2="785.82" y2="51.86" />
<line x1="785.82" y1="51.86" x2="767.87" y2="103.86" /><line x1="767.87" y1="103.86" x2="723.96" y2="70.72" />
<line x1="723.96" y1="70.72" x2="741.91" y2="18.72" /><line x1="767.87" y1="103.86" x2="783.91" y2="156.47" />
<line x1="783.91" y1="156.47" x2="838.91" y2="157.47" /><line x1="838.91" y1="157.47" x2="822.87" y2="104.86" />
<line x1="822.87" y1="104.86" x2="767.87" y2="103.86" /><line x1="838.91" y1="157.47" x2="783.91" y2="156.47" />
<line x1="783.91" y1="156.47" x2="827.82" y2="189.61" /><line x1="827.82" y1="189.61" x2="882.82" y2="190.61" />
<line x1="882.82" y1="190.61" x2="838.91" y2="157.47" /><line x1="827.82" y1="189.61" x2="809.88" y2="241.61" />
<line x1="809.88" y1="241.61" x2="765.97" y2="208.47" /><line x1="765.97" y1="208.47" x2="720.88" y2="239.99" />
<line x1="720.88" y1="239.99" x2="675.8" y2="271.51" /><line x1="675.8" y1="271.51" x2="620.8" y2="270.51" />
<line x1="620.8" y1="270.51" x2="665.88" y2="238.99" /><line x1="675.8" y1="271.51" x2="657.85" y2="323.51" />
<line x1="657.85" y1="323.51" x2="602.85" y2="322.51" /><line x1="602.85" y1="322.51" x2="620.8" y2="270.51" />
<line x1="620.8" y1="270.51" x2="675.8" y2="271.51" /><line x1="809.88" y1="241.61" x2="764.79" y2="273.13" />
<line x1="764.79" y1="273.13" x2="780.84" y2="325.75" /><line x1="780.84" y1="325.75" x2="796.88" y2="378.36" />
<line x1="796.88" y1="378.36" x2="778.93" y2="430.36" /><line x1="778.93" y1="430.36" x2="762.89" y2="377.74" />
<line x1="796.88" y1="378.36" x2="780.84" y2="325.75" /><line x1="780.84" y1="325.75" x2="825.92" y2="294.23" />
<line x1="825.92" y1="294.23" x2="841.97" y2="346.84" /><line x1="841.97" y1="346.84" x2="796.88" y2="378.36" />
<line x1="825.92" y1="294.23" x2="782.01" y2="261.09" /><line x1="782.01" y1="261.09" x2="736.93" y2="292.61" />
<line x1="736.93" y1="292.61" x2="780.84" y2="325.75" /><line x1="780.84" y1="325.75" x2="825.92" y2="294.23" />
<line x1="736.93" y1="292.61" x2="681.93" y2="291.61" /><line x1="681.93" y1="291.61" x2="725.84" y2="324.75" />
<line x1="725.84" y1="324.75" x2="780.84" y2="325.75" /><line x1="780.84" y1="325.75" x2="736.93" y2="292.61" />
<line x1="725.84" y1="324.75" x2="707.89" y2="376.74" /><line x1="825.92" y1="294.23" x2="780.84" y2="325.75" />
<line x1="780.84" y1="325.75" x2="796.88" y2="378.36" /><line x1="796.88" y1="378.36" x2="841.97" y2="346.84" />
<line x1="841.97" y1="346.84" x2="825.92" y2="294.23" /><line x1="796.88" y1="378.36" x2="778.93" y2="430.36" />
<line x1="778.93" y1="430.36" x2="824.02" y2="398.84" /><line x1="824.02" y1="398.84" x2="841.97" y2="346.84" />
<line x1="841.97" y1="346.84" x2="796.88" y2="378.36" /><line x1="824.02" y1="398.84" x2="867.93" y2="431.98" />
<line x1="867.93" y1="431.98" x2="922.93" y2="432.98" /><line x1="922.93" y1="432.98" x2="938.97" y2="485.6" />
<line x1="938.97" y1="485.6" x2="883.97" y2="484.6" /><line x1="883.97" y1="484.6" x2="867.93" y2="431.98" />
<line x1="938.97" y1="485.6" x2="921.02" y2="537.6" /><line x1="921.02" y1="537.6" x2="964.93" y2="570.73" />
<line x1="964.93" y1="570.73" x2="982.88" y2="518.73" /><line x1="982.88" y1="518.73" x2="938.97" y2="485.6" />
<line x1="964.93" y1="570.73" x2="921.02" y2="537.6" /><line x1="921.02" y1="537.6" x2="875.94" y2="569.12" />
<line x1="875.94" y1="569.12" x2="830.86" y2="600.63" /><line x1="830.86" y1="600.63" x2="775.86" y2="599.63" />
<line x1="775.86" y1="599.63" x2="820.94" y2="568.12" /><line x1="809.88" y1="241.61" x2="825.92" y2="294.23" />
<line x1="825.92" y1="294.23" x2="880.92" y2="295.23" /><line x1="880.92" y1="295.23" x2="935.92" y2="296.23" />
<line x1="935.92" y1="296.23" x2="979.83" y2="329.36" /><line x1="979.83" y1="329.36" x2="924.83" y2="328.36" />
<line x1="935.92" y1="296.23" x2="880.92" y2="295.23" /><line x1="880.92" y1="295.23" x2="864.88" y2="242.61" />
<line x1="864.88" y1="242.61" x2="919.88" y2="243.61" /><line x1="919.88" y1="243.61" x2="935.92" y2="296.23" />
<line x1="864.88" y1="242.61" x2="819.79" y2="274.13" /><line x1="819.79" y1="274.13" x2="835.84" y2="326.75" />
<line x1="835.84" y1="326.75" x2="880.92" y2="295.23" /><line x1="880.92" y1="295.23" x2="864.88" y2="242.61" />
<line x1="835.84" y1="326.75" x2="817.89" y2="378.74" /><line x1="817.89" y1="378.74" x2="862.97" y2="347.23" />
<line x1="862.97" y1="347.23" x2="880.92" y2="295.23" /><line x1="880.92" y1="295.23" x2="835.84" y2="326.75" />
<line x1="862.97" y1="347.23" x2="906.88" y2="380.36" /><line x1="864.88" y1="242.61" x2="880.92" y2="295.23" />
<line x1="880.92" y1="295.23" x2="935.92" y2="296.23" /><line x1="935.92" y1="296.23" x2="919.88" y2="243.61" />
<line x1="919.88" y1="243.61" x2="864.88" y2="242.61" /><line x1="935.92" y1="296.23" x2="919.88" y2="243.61" />
<line x1="919.88" y1="243.61" x2="864.88" y2="242.61" /><line x1="864.88" y1="242.61" x2="809.88" y2="241.61" />
<line x1="809.88" y1="241.61" x2="765.97" y2="208.47" /><line x1="765.97" y1="208.47" x2="820.97" y2="209.47" />
<line x1="809.88" y1="241.61" x2="764.79" y2="273.13" /><line x1="764.79" y1="273.13" x2="819.79" y2="274.13" />
<line x1="819.79" y1="274.13" x2="864.88" y2="242.61" /><line x1="864.88" y1="242.61" x2="809.88" y2="241.61" />
<line x1="819.79" y1="274.13" x2="835.84" y2="326.75" /><line x1="835.84" y1="326.75" x2="819.79" y2="274.13" />
<line x1="819.79" y1="274.13" x2="864.88" y2="242.61" /><line x1="864.88" y1="242.61" x2="880.92" y2="295.23" />
<line x1="880.92" y1="295.23" x2="835.84" y2="326.75" /><line x1="809.88" y1="241.61" x2="764.79" y2="273.13" />
<line x1="764.79" y1="273.13" x2="720.88" y2="239.99" /><line x1="720.88" y1="239.99" x2="765.97" y2="208.47" />
<line x1="765.97" y1="208.47" x2="809.88" y2="241.61" /><line x1="720.88" y1="239.99" x2="765.97" y2="208.47" />
<line x1="765.97" y1="208.47" x2="749.92" y2="155.86" /><line x1="749.92" y1="155.86" x2="704.84" y2="187.37" />
<line x1="704.84" y1="187.37" x2="720.88" y2="239.99" /><line x1="749.92" y1="155.86" x2="767.87" y2="103.86" />
<line x1="767.87" y1="103.86" x2="722.79" y2="135.38" /><line x1="722.79" y1="135.38" x2="704.84" y2="187.37" />
<line x1="704.84" y1="187.37" x2="749.92" y2="155.86" /><line x1="722.79" y1="135.38" x2="678.88" y2="102.24" />
<line x1="678.88" y1="102.24" x2="623.88" y2="101.24" /><line x1="623.88" y1="101.24" x2="607.83" y2="48.62" />
<line x1="607.83" y1="48.62" x2="662.83" y2="49.62" /><line x1="662.83" y1="49.62" x2="678.88" y2="102.24" />
<line x1="607.83" y1="48.62" x2="625.78" y2="-3.38" /><line x1="625.78" y1="-3.38" x2="581.87" y2="-36.52" />
<line x1="581.87" y1="-36.52" x2="563.92" y2="15.48" /><line x1="563.92" y1="15.48" x2="607.83" y2="48.62" />
<line x1="581.87" y1="-36.52" x2="625.78" y2="-3.38" /><line x1="625.78" y1="-3.38" x2="670.86" y2="-34.9" />
<line x1="670.86" y1="-34.9" x2="715.95" y2="-66.42" /><line x1="715.95" y1="-66.42" x2="770.95" y2="-65.42" />
<line x1="770.95" y1="-65.42" x2="725.86" y2="-33.9" /><line x1="607.83" y1="48.62" x2="563.92" y2="15.48" />
<line x1="563.92" y1="15.48" x2="518.84" y2="47" /><line x1="518.84" y1="47" x2="562.75" y2="80.14" />
<line x1="562.75" y1="80.14" x2="607.83" y2="48.62" /><line x1="518.84" y1="47" x2="563.92" y2="15.48" />
<line x1="563.92" y1="15.48" x2="508.92" y2="14.48" /><line x1="508.92" y1="14.48" x2="463.84" y2="46" />
<line x1="463.84" y1="46" x2="518.84" y2="47" /><line x1="508.92" y1="14.48" x2="492.88" y2="-38.13" />
<line x1="492.88" y1="-38.13" x2="547.88" y2="-37.13" /><line x1="547.88" y1="-37.13" x2="565.83" y2="-89.13" />
<line x1="565.83" y1="-89.13" x2="583.77" y2="-141.13" /><line x1="583.77" y1="-141.13" x2="628.86" y2="-172.65" />
<line x1="628.86" y1="-172.65" x2="610.91" y2="-120.65" /><line x1="583.77" y1="-141.13" x2="567.73" y2="-193.75" />
<line x1="567.73" y1="-193.75" x2="612.81" y2="-225.27" /><line x1="612.81" y1="-225.27" x2="628.86" y2="-172.65" />
<line x1="628.86" y1="-172.65" x2="583.77" y2="-141.13" /><line x1="300" y1="200" x2="345.08" y2="168.48" />
<line x1="345.08" y1="168.48" x2="329.04" y2="115.86" /><line x1="329.04" y1="115.86" x2="283.96" y2="147.38" />
<line x1="283.96" y1="147.38" x2="300" y2="200" /><line x1="329.04" y1="115.86" x2="346.99" y2="63.86" />
<line x1="346.99" y1="63.86" x2="301.9" y2="95.38" /><line x1="301.9" y1="95.38" x2="283.96" y2="147.38" />
<line x1="283.96" y1="147.38" x2="329.04" y2="115.86" /><line x1="301.9" y1="95.38" x2="257.99" y2="62.25" />
<line x1="257.99" y1="62.25" x2="202.99" y2="61.25" /><line x1="202.99" y1="61.25" x2="186.95" y2="8.63" />
<line x1="186.95" y1="8.63" x2="241.95" y2="9.63" /><line x1="241.95" y1="9.63" x2="257.99" y2="62.25" />
<line x1="186.95" y1="8.63" x2="204.9" y2="-43.37" /><line x1="204.9" y1="-43.37" x2="160.99" y2="-76.51" />
<line x1="160.99" y1="-76.51" x2="143.04" y2="-24.51" /><line x1="143.04" y1="-24.51" x2="186.95" y2="8.63" />
<line x1="160.99" y1="-76.51" x2="204.9" y2="-43.37" /><line x1="204.9" y1="-43.37" x2="249.98" y2="-74.89" />
<line x1="249.98" y1="-74.89" x2="295.06" y2="-106.41" /><line x1="295.06" y1="-106.41" x2="350.06" y2="-105.41" />
<line x1="350.06" y1="-105.41" x2="304.98" y2="-73.89" /><line x1="186.95" y1="8.63" x2="202.99" y2="61.25" />
<line x1="202.99" y1="61.25" x2="257.99" y2="62.25" /><line x1="257.99" y1="62.25" x2="241.95" y2="9.63" />
<line x1="241.95" y1="9.63" x2="186.95" y2="8.63" /><line x1="257.99" y1="62.25" x2="202.99" y2="61.25" />
<line x1="202.99" y1="61.25" x2="246.9" y2="94.38" /><line x1="246.9" y1="94.38" x2="301.9" y2="95.38" />
<line x1="301.9" y1="95.38" x2="257.99" y2="62.25" /><line x1="246.9" y1="94.38" x2="228.96" y2="146.38" />
<line x1="228.96" y1="146.38" x2="185.05" y2="113.25" /><line x1="185.05" y1="113.25" x2="139.96" y2="144.76" />
<line x1="139.96" y1="144.76" x2="94.88" y2="176.28" /><line x1="94.88" y1="176.28" x2="39.88" y2="175.28" />
<line x1="39.88" y1="175.28" x2="84.96" y2="143.76" /><line x1="94.88" y1="176.28" x2="76.93" y2="228.28" />
<line x1="76.93" y1="228.28" x2="21.93" y2="227.28" /><line x1="21.93" y1="227.28" x2="39.88" y2="175.28" />
<line x1="39.88" y1="175.28" x2="94.88" y2="176.28" /><line x1="228.96" y1="146.38" x2="283.96" y2="147.38" />
<line x1="283.96" y1="147.38" x2="301.9" y2="95.38" /><line x1="301.9" y1="95.38" x2="319.85" y2="43.38" />
<line x1="319.85" y1="43.38" x2="364.93" y2="11.87" /><line x1="364.93" y1="11.87" x2="346.99" y2="63.86" />
<line x1="319.85" y1="43.38" x2="301.9" y2="95.38" /><line x1="301.9" y1="95.38" x2="246.9" y2="94.38" />
<line x1="246.9" y1="94.38" x2="264.85" y2="42.38" /><line x1="264.85" y1="42.38" x2="319.85" y2="43.38" />
<line x1="246.9" y1="94.38" x2="262.95" y2="147" /><line x1="262.95" y1="147" x2="317.95" y2="148" />
<line x1="317.95" y1="148" x2="301.9" y2="95.38" /><line x1="301.9" y1="95.38" x2="246.9" y2="94.38" />
<line x1="317.95" y1="148" x2="361.86" y2="181.14" /><line x1="361.86" y1="181.14" x2="345.81" y2="128.52" />
<line x1="345.81" y1="128.52" x2="301.9" y2="95.38" /><line x1="301.9" y1="95.38" x2="317.95" y2="148" />
<line x1="345.81" y1="128.52" x2="390.89" y2="97" /><line x1="246.9" y1="94.38" x2="202.99" y2="61.25" />
<line x1="202.99" y1="61.25" x2="157.91" y2="92.77" /><line x1="157.91" y1="92.77" x2="201.82" y2="125.9" />
<line x1="201.82" y1="125.9" x2="246.9" y2="94.38" /><line x1="157.91" y1="92.77" x2="201.82" y2="125.9" />
<line x1="201.82" y1="125.9" x2="246.9" y2="94.38" /><line x1="246.9" y1="94.38" x2="291.99" y2="62.86" />
<line x1="291.99" y1="62.86" x2="346.99" y2="63.86" /><line x1="346.99" y1="63.86" x2="301.9" y2="95.38" />
<line x1="291.99" y1="62.86" x2="309.93" y2="10.87" /><line x1="309.93" y1="10.87" x2="264.85" y2="42.38" />
<line x1="264.85" y1="42.38" x2="246.9" y2="94.38" /><line x1="246.9" y1="94.38" x2="291.99" y2="62.86" />
<line x1="264.85" y1="42.38" x2="220.94" y2="9.25" /><line x1="220.94" y1="9.25" x2="264.85" y2="42.38" />
<line x1="264.85" y1="42.38" x2="246.9" y2="94.38" /><line x1="246.9" y1="94.38" x2="202.99" y2="61.25" />
<line x1="202.99" y1="61.25" x2="220.94" y2="9.25" /><line x1="291.99" y1="62.86" x2="309.93" y2="10.87" />
<line x1="309.93" y1="10.87" x2="364.93" y2="11.87" /><line x1="364.93" y1="11.87" x2="346.99" y2="63.86" />
<line x1="346.99" y1="63.86" x2="291.99" y2="62.86" /><line x1="228.96" y1="146.38" x2="246.9" y2="94.38" />
<line x1="246.9" y1="94.38" x2="202.99" y2="61.25" /><line x1="202.99" y1="61.25" x2="159.09" y2="28.11" />
<line x1="159.09" y1="28.11" x2="143.04" y2="-24.51" /><line x1="143.04" y1="-24.51" x2="186.95" y2="8.63" />
<line x1="159.09" y1="28.11" x2="202.99" y2="61.25" /><line x1="202.99" y1="61.25" x2="185.05" y2="113.25" />
<line x1="185.05" y1="113.25" x2="141.14" y2="80.11" /><line x1="141.14" y1="80.11" x2="159.09" y2="28.11" />
<line x1="185.05" y1="113.25" x2="240.05" y2="114.25" /><line x1="240.05" y1="114.25" x2="257.99" y2="62.25" />
<line x1="257.99" y1="62.25" x2="202.99" y2="61.25" /><line x1="202.99" y1="61.25" x2="185.05" y2="113.25" />
<line x1="257.99" y1="62.25" x2="303.08" y2="30.73" /><line x1="303.08" y1="30.73" x2="248.08" y2="29.73" />
<line x1="248.08" y1="29.73" x2="202.99" y2="61.25" /><line x1="202.99" y1="61.25" x2="257.99" y2="62.25" />
<line x1="248.08" y1="29.73" x2="232.03" y2="-22.89" /><line x1="185.05" y1="113.25" x2="240.05" y2="114.25" />
<line x1="240.05" y1="114.25" x2="257.99" y2="62.25" /><line x1="257.99" y1="62.25" x2="202.99" y2="61.25" />
<line x1="202.99" y1="61.25" x2="185.05" y2="113.25" /><line x1="257.99" y1="62.25" x2="303.08" y2="30.73" />
<line x1="303.08" y1="30.73" x2="248.08" y2="29.73" /><line x1="248.08" y1="29.73" x2="202.99" y2="61.25" />
<line x1="202.99" y1="61.25" x2="257.99" y2="62.25" /><line x1="248.08" y1="29.73" x2="232.03" y2="-22.89" />
<line x1="232.03" y1="-22.89" x2="188.12" y2="-56.03" /><line x1="188.12" y1="-56.03" x2="206.07" y2="-108.03" />
<line x1="206.07" y1="-108.03" x2="249.98" y2="-74.89" /><line x1="249.98" y1="-74.89" x2="232.03" y2="-22.89" />
<line x1="206.07" y1="-108.03" x2="251.16" y2="-139.55" /><line x1="251.16" y1="-139.55" x2="235.11" y2="-192.16" />
<line x1="235.11" y1="-192.16" x2="190.03" y2="-160.64" /><line x1="190.03" y1="-160.64" x2="206.07" y2="-108.03" />
<line x1="235.11" y1="-192.16" x2="251.16" y2="-139.55" /><line x1="251.16" y1="-139.55" x2="306.16" y2="-138.55" />
<line x1="306.16" y1="-138.55" x2="361.16" y2="-137.55" /><line x1="361.16" y1="-137.55" x2="405.06" y2="-104.41" />
<line x1="405.06" y1="-104.41" x2="350.06" y2="-105.41" /><line x1="206.07" y1="-108.03" x2="190.03" y2="-160.64" />
<line x1="190.03" y1="-160.64" x2="135.03" y2="-161.64" /><line x1="135.03" y1="-161.64" x2="151.07" y2="-109.03" />
<line x1="151.07" y1="-109.03" x2="206.07" y2="-108.03" /><line x1="135.03" y1="-161.64" x2="151.07" y2="-109.03" />
<line x1="151.07" y1="-109.03" x2="206.07" y2="-108.03" /><line x1="206.07" y1="-108.03" x2="261.07" y2="-107.03" />
<line x1="261.07" y1="-107.03" x2="304.98" y2="-73.89" /><line x1="304.98" y1="-73.89" x2="249.98" y2="-74.89" />
<line x1="261.07" y1="-107.03" x2="306.16" y2="-138.55" /><line x1="306.16" y1="-138.55" x2="251.16" y2="-139.55" />
<line x1="251.16" y1="-139.55" x2="206.07" y2="-108.03" /><line x1="206.07" y1="-108.03" x2="261.07" y2="-107.03" />
<line x1="251.16" y1="-139.55" x2="235.11" y2="-192.16" /><line x1="235.11" y1="-192.16" x2="251.16" y2="-139.55" />
<line x1="251.16" y1="-139.55" x2="206.07" y2="-108.03" /><line x1="206.07" y1="-108.03" x2="190.03" y2="-160.64" />
<line x1="190.03" y1="-160.64" x2="235.11" y2="-192.16" /><line x1="261.07" y1="-107.03" x2="306.16" y2="-138.55" />
<line x1="306.16" y1="-138.55" x2="350.06" y2="-105.41" /><line x1="350.06" y1="-105.41" x2="304.98" y2="-73.89" />
<line x1="304.98" y1="-73.89" x2="261.07" y2="-107.03" /><line x1="350.06" y1="-105.41" x2="306.16" y2="-138.55" />
<line x1="306.16" y1="-138.55" x2="261.07" y2="-107.03" /><line x1="261.07" y1="-107.03" x2="304.98" y2="-73.89" />
<line x1="304.98" y1="-73.89" x2="350.06" y2="-105.41" /><line x1="261.07" y1="-107.03" x2="306.16" y2="-138.55" />
<line x1="306.16" y1="-138.55" x2="251.16" y2="-139.55" /><line x1="251.16" y1="-139.55" x2="206.07" y2="-108.03" />
<line x1="206.07" y1="-108.03" x2="261.07" y2="-107.03" /><line x1="251.16" y1="-139.55" x2="235.11" y2="-192.16" />
<line x1="235.11" y1="-192.16" x2="290.11" y2="-191.16" /><line x1="290.11" y1="-191.16" x2="308.06" y2="-243.16" />
<line x1="308.06" y1="-243.16" x2="326" y2="-295.16" /><line x1="326" y1="-295.16" x2="371.09" y2="-326.68" />
<line x1="371.09" y1="-326.68" x2="353.14" y2="-274.68" /><line x1="326" y1="-295.16" x2="309.96" y2="-347.78" />
<line x1="309.96" y1="-347.78" x2="355.04" y2="-379.3" /><line x1="355.04" y1="-379.3" x2="371.09" y2="-326.68" />
<line x1="371.09" y1="-326.68" x2="326" y2="-295.16" /><line x1="206.07" y1="-108.03" x2="190.03" y2="-160.64" />
<line x1="190.03" y1="-160.64" x2="135.03" y2="-161.64" /><line x1="135.03" y1="-161.64" x2="151.07" y2="-109.03" />
<line x1="151.07" y1="-109.03" x2="206.07" y2="-108.03" /><line x1="135.03" y1="-161.64" x2="190.03" y2="-160.64" />
<line x1="190.03" y1="-160.64" x2="146.12" y2="-193.78" /><line x1="146.12" y1="-193.78" x2="91.12" y2="-194.78" />
<line x1="91.12" y1="-194.78" x2="135.03" y2="-161.64" /><line x1="146.12" y1="-193.78" x2="164.07" y2="-245.78" />
<line x1="164.07" y1="-245.78" x2="207.97" y2="-212.64" /><line x1="207.97" y1="-212.64" x2="253.06" y2="-244.16" />
<line x1="253.06" y1="-244.16" x2="298.14" y2="-275.68" /><line x1="298.14" y1="-275.68" x2="353.14" y2="-274.68" />
<line x1="353.14" y1="-274.68" x2="308.06" y2="-243.16" /><line x1="298.14" y1="-275.68" x2="316.09" y2="-327.68" />
<line x1="316.09" y1="-327.68" x2="371.09" y2="-326.68" /><line x1="371.09" y1="-326.68" x2="353.14" y2="-274.68" />
<line x1="353.14" y1="-274.68" x2="298.14" y2="-275.68" /><line x1="164.07" y1="-245.78" x2="207.97" y2="-212.64" />
<line x1="207.97" y1="-212.64" x2="253.06" y2="-244.16" /><line x1="253.06" y1="-244.16" x2="298.14" y2="-275.68" />
<line x1="298.14" y1="-275.68" x2="353.14" y2="-274.68" /><line x1="353.14" y1="-274.68" x2="308.06" y2="-243.16" />
<line x1="298.14" y1="-275.68" x2="253.06" y2="-244.16" /><line x1="253.06" y1="-244.16" x2="209.15" y2="-277.3" />
<line x1="209.15" y1="-277.3" x2="254.23" y2="-308.82" /><line x1="254.23" y1="-308.82" x2="298.14" y2="-275.68" />
<line x1="209.15" y1="-277.3" x2="191.2" y2="-225.3" /><line x1="191.2" y1="-225.3" x2="235.11" y2="-192.16" />
<line x1="235.11" y1="-192.16" x2="253.06" y2="-244.16" /><line x1="253.06" y1="-244.16" x2="209.15" y2="-277.3" />
<line x1="235.11" y1="-192.16" x2="251.16" y2="-139.55" /><line x1="251.16" y1="-139.55" x2="269.1" y2="-191.54" />
<line x1="269.1" y1="-191.54" x2="253.06" y2="-244.16" /><line x1="253.06" y1="-244.16" x2="235.11" y2="-192.16" />
<line x1="269.1" y1="-191.54" x2="324.1" y2="-190.54" /><line x1="209.15" y1="-277.3" x2="193.1" y2="-329.92" />
<line x1="193.1" y1="-329.92" x2="138.1" y2="-330.92" /><line x1="138.1" y1="-330.92" x2="154.15" y2="-278.3" />
<line x1="154.15" y1="-278.3" x2="209.15" y2="-277.3" /><line x1="138.1" y1="-330.92" x2="154.15" y2="-278.3" />
<line x1="154.15" y1="-278.3" x2="209.15" y2="-277.3" /><line x1="209.15" y1="-277.3" x2="264.15" y2="-276.3" />
<line x1="264.15" y1="-276.3" x2="308.06" y2="-243.16" /><line x1="308.06" y1="-243.16" x2="253.06" y2="-244.16" />
<line x1="264.15" y1="-276.3" x2="309.23" y2="-307.82" /><line x1="309.23" y1="-307.82" x2="254.23" y2="-308.82" />
<line x1="254.23" y1="-308.82" x2="209.15" y2="-277.3" /><line x1="209.15" y1="-277.3" x2="264.15" y2="-276.3" />
<line x1="254.23" y1="-308.82" x2="238.19" y2="-361.43" /><line x1="238.19" y1="-361.43" x2="254.23" y2="-308.82" />
<line x1="254.23" y1="-308.82" x2="209.15" y2="-277.3" /><line x1="209.15" y1="-277.3" x2="193.1" y2="-329.92" />
<line x1="193.1" y1="-329.92" x2="238.19" y2="-361.43" /><line x1="264.15" y1="-276.3" x2="309.23" y2="-307.82" />
<line x1="309.23" y1="-307.82" x2="353.14" y2="-274.68" /><line x1="353.14" y1="-274.68" x2="308.06" y2="-243.16" />
<line x1="308.06" y1="-243.16" x2="264.15" y2="-276.3" /><line x1="353.14" y1="-274.68" x2="408.14" y2="-273.68" />
<line x1="408.14" y1="-273.68" x2="426.09" y2="-325.68" /><line x1="426.09" y1="-325.68" x2="371.09" y2="-326.68" />
<line x1="371.09" y1="-326.68" x2="353.14" y2="-274.68" /><line x1="426.09" y1="-325.68" x2="408.14" y2="-273.68" />
<line x1="408.14" y1="-273.68" x2="453.22" y2="-305.2" /><line x1="453.22" y1="-305.2" x2="471.17" y2="-357.2" />
<line x1="471.17" y1="-357.2" x2="426.09" y2="-325.68" /><line x1="453.22" y1="-305.2" x2="497.13" y2="-272.06" />
<line x1="497.13" y1="-272.06" x2="452.05" y2="-240.54" /><line x1="452.05" y1="-240.54" x2="468.09" y2="-187.93" />
<line x1="468.09" y1="-187.93" x2="484.14" y2="-135.31" /><line x1="484.14" y1="-135.31" x2="466.19" y2="-83.31" />
<line x1="466.19" y1="-83.31" x2="450.15" y2="-135.93" /><line x1="484.14" y1="-135.31" x2="528.05" y2="-102.17" />
<line x1="528.05" y1="-102.17" x2="510.1" y2="-50.17" /><line x1="510.1" y1="-50.17" x2="466.19" y2="-83.31" />
<line x1="466.19" y1="-83.31" x2="484.14" y2="-135.31" /><line x1="497.13" y1="-272.06" x2="513.18" y2="-219.45" />
<line x1="513.18" y1="-219.45" x2="568.18" y2="-218.45" /><line x1="568.18" y1="-218.45" x2="623.18" y2="-217.45" />
<line x1="623.18" y1="-217.45" x2="667.09" y2="-184.31" /><line x1="667.09" y1="-184.31" x2="612.09" y2="-185.31" />
<line x1="623.18" y1="-217.45" x2="568.18" y2="-218.45" /><line x1="568.18" y1="-218.45" x2="552.13" y2="-271.06" />
<line x1="552.13" y1="-271.06" x2="607.13" y2="-270.06" /><line x1="607.13" y1="-270.06" x2="623.18" y2="-217.45" />
<line x1="552.13" y1="-271.06" x2="507.05" y2="-239.54" /><line x1="507.05" y1="-239.54" x2="523.09" y2="-186.93" />
<line x1="523.09" y1="-186.93" x2="568.18" y2="-218.45" /><line x1="568.18" y1="-218.45" x2="552.13" y2="-271.06" />
<line x1="523.09" y1="-186.93" x2="505.15" y2="-134.93" /><line x1="505.15" y1="-134.93" x2="550.23" y2="-166.45" />
<line x1="550.23" y1="-166.45" x2="568.18" y2="-218.45" /><line x1="568.18" y1="-218.45" x2="523.09" y2="-186.93" />
<line x1="550.23" y1="-166.45" x2="594.14" y2="-133.31" /><line x1="552.13" y1="-271.06" x2="568.18" y2="-218.45" />
<line x1="568.18" y1="-218.45" x2="623.18" y2="-217.45" /><line x1="623.18" y1="-217.45" x2="607.13" y2="-270.06" />
<line x1="607.13" y1="-270.06" x2="552.13" y2="-271.06" /><line x1="623.18" y1="-217.45" x2="667.09" y2="-184.31" />
<line x1="667.09" y1="-184.31" x2="651.04" y2="-236.93" /><line x1="651.04" y1="-236.93" x2="607.13" y2="-270.06" />
<line x1="607.13" y1="-270.06" x2="623.18" y2="-217.45" /><line x1="651.04" y1="-236.93" x2="696.12" y2="-268.44" />
<line x1="696.12" y1="-268.44" x2="714.07" y2="-320.44" /><line x1="714.07" y1="-320.44" x2="769.07" y2="-319.44" />
<line x1="769.07" y1="-319.44" x2="751.12" y2="-267.44" /><line x1="751.12" y1="-267.44" x2="696.12" y2="-268.44" />
<line x1="769.07" y1="-319.44" x2="812.98" y2="-286.31" /><line x1="812.98" y1="-286.31" x2="858.06" y2="-317.83" />
<line x1="858.06" y1="-317.83" x2="814.16" y2="-350.96" /><line x1="814.16" y1="-350.96" x2="769.07" y2="-319.44" />
<line x1="858.06" y1="-317.83" x2="812.98" y2="-286.31" /><line x1="812.98" y1="-286.31" x2="829.02" y2="-233.69" />
<line x1="829.02" y1="-233.69" x2="845.07" y2="-181.07" /><line x1="845.07" y1="-181.07" x2="827.12" y2="-129.07" />
<line x1="827.12" y1="-129.07" x2="811.08" y2="-181.69" /><line x1="497.13" y1="-272.06" x2="552.13" y2="-271.06" />
<line x1="552.13" y1="-271.06" x2="570.08" y2="-323.06" /><line x1="570.08" y1="-323.06" x2="588.03" y2="-375.06" />
<line x1="588.03" y1="-375.06" x2="633.11" y2="-406.58" /><line x1="633.11" y1="-406.58" x2="615.16" y2="-354.58" />
<line x1="588.03" y1="-375.06" x2="570.08" y2="-323.06" /><line x1="570.08" y1="-323.06" x2="515.08" y2="-324.06" />
<line x1="515.08" y1="-324.06" x2="533.03" y2="-376.06" /><line x1="533.03" y1="-376.06" x2="588.03" y2="-375.06" />
<line x1="515.08" y1="-324.06" x2="531.12" y2="-271.44" /><line x1="531.12" y1="-271.44" x2="586.12" y2="-270.44" />
<line x1="586.12" y1="-270.44" x2="570.08" y2="-323.06" /><line x1="570.08" y1="-323.06" x2="515.08" y2="-324.06" />
<line x1="586.12" y1="-270.44" x2="630.03" y2="-237.31" /><line x1="630.03" y1="-237.31" x2="613.99" y2="-289.92" />
<line x1="613.99" y1="-289.92" x2="570.08" y2="-323.06" /><line x1="570.08" y1="-323.06" x2="586.12" y2="-270.44" />
<line x1="613.99" y1="-289.92" x2="659.07" y2="-321.44" /><line x1="515.08" y1="-324.06" x2="570.08" y2="-323.06" />
<line x1="570.08" y1="-323.06" x2="588.03" y2="-375.06" /><line x1="588.03" y1="-375.06" x2="533.03" y2="-376.06" />
<line x1="533.03" y1="-376.06" x2="515.08" y2="-324.06" /><line x1="588.03" y1="-375.06" x2="533.03" y2="-376.06" />
<line x1="533.03" y1="-376.06" x2="515.08" y2="-324.06" /><line x1="515.08" y1="-324.06" x2="497.13" y2="-272.06" />
<line x1="497.13" y1="-272.06" x2="452.05" y2="-240.54" /><line x1="452.05" y1="-240.54" x2="470" y2="-292.54" />
<line x1="497.13" y1="-272.06" x2="513.18" y2="-219.45" /><line x1="513.18" y1="-219.45" x2="531.12" y2="-271.44" />
<line x1="531.12" y1="-271.44" x2="515.08" y2="-324.06" /><line x1="515.08" y1="-324.06" x2="497.13" y2="-272.06" />
<line x1="531.12" y1="-271.44" x2="586.12" y2="-270.44" /><line x1="586.12" y1="-270.44" x2="531.12" y2="-271.44" />
<line x1="531.12" y1="-271.44" x2="515.08" y2="-324.06" /><line x1="515.08" y1="-324.06" x2="570.08" y2="-323.06" />
<line x1="570.08" y1="-323.06" x2="586.12" y2="-270.44" /><line x1="497.13" y1="-272.06" x2="513.18" y2="-219.45" />
<line x1="513.18" y1="-219.45" x2="468.09" y2="-187.93" /><line x1="468.09" y1="-187.93" x2="452.05" y2="-240.54" />
<line x1="452.05" y1="-240.54" x2="497.13" y2="-272.06" /><line x1="468.09" y1="-187.93" x2="452.05" y2="-240.54" />
<line x1="452.05" y1="-240.54" x2="397.05" y2="-241.54" /><line x1="397.05" y1="-241.54" x2="413.09" y2="-188.93" />
<line x1="413.09" y1="-188.93" x2="468.09" y2="-187.93" /><line x1="397.05" y1="-241.54" x2="353.14" y2="-274.68" />
<line x1="353.14" y1="-274.68" x2="369.19" y2="-222.06" /><line x1="369.19" y1="-222.06" x2="413.09" y2="-188.93" />
<line x1="413.09" y1="-188.93" x2="397.05" y2="-241.54" /><line x1="369.19" y1="-222.06" x2="324.1" y2="-190.54" />
<line x1="324.1" y1="-190.54" x2="306.16" y2="-138.55" /><line x1="306.16" y1="-138.55" x2="251.16" y2="-139.55" />
<line x1="251.16" y1="-139.55" x2="269.1" y2="-191.54" /><line x1="269.1" y1="-191.54" x2="324.1" y2="-190.54" />
<line x1="251.16" y1="-139.55" x2="207.25" y2="-172.68" /><line x1="207.25" y1="-172.68" x2="162.16" y2="-141.16" />
<line x1="162.16" y1="-141.16" x2="206.07" y2="-108.03" /><line x1="206.07" y1="-108.03" x2="251.16" y2="-139.55" />
<line x1="162.16" y1="-141.16" x2="207.25" y2="-172.68" /><line x1="207.25" y1="-172.68" x2="191.2" y2="-225.3" />
<line x1="191.2" y1="-225.3" x2="175.16" y2="-277.92" /><line x1="175.16" y1="-277.92" x2="193.1" y2="-329.92" />
<line x1="193.1" y1="-329.92" x2="209.15" y2="-277.3" /><line x1="251.16" y1="-139.55" x2="206.07" y2="-108.03" />
<line x1="206.07" y1="-108.03" x2="222.12" y2="-55.41" /><line x1="222.12" y1="-55.41" x2="267.2" y2="-86.93" />
<line x1="267.2" y1="-86.93" x2="251.16" y2="-139.55" /><line x1="222.12" y1="-55.41" x2="206.07" y2="-108.03" />
<line x1="206.07" y1="-108.03" x2="188.12" y2="-56.03" /><line x1="188.12" y1="-56.03" x2="204.17" y2="-3.41" />
<line x1="204.17" y1="-3.41" x2="222.12" y2="-55.41" /><line x1="188.12" y1="-56.03" x2="133.12" y2="-57.03" />
<line x1="133.12" y1="-57.03" x2="151.07" y2="-109.03" /><line x1="151.07" y1="-109.03" x2="107.16" y2="-142.16" />
<line x1="107.16" y1="-142.16" x2="63.26" y2="-175.3" /><line x1="63.26" y1="-175.3" x2="47.21" y2="-227.92" />
<line x1="47.21" y1="-227.92" x2="91.12" y2="-194.78" /><line x1="63.26" y1="-175.3" x2="8.26" y2="-176.3" />
<line x1="8.26" y1="-176.3" x2="-7.79" y2="-228.92" /><line x1="-7.79" y1="-228.92" x2="47.21" y2="-227.92" />
<line x1="47.21" y1="-227.92" x2="63.26" y2="-175.3" /><line x1="300" y1="200" x2="283.96" y2="147.38" />
<line x1="283.96" y1="147.38" x2="228.96" y2="146.38" /><line x1="228.96" y1="146.38" x2="245" y2="199" />
<line x1="245" y1="199" x2="300" y2="200" /><line x1="228.96" y1="146.38" x2="185.05" y2="113.25" />
<line x1="185.05" y1="113.25" x2="201.09" y2="165.86" /><line x1="201.09" y1="165.86" x2="245" y2="199" />
<line x1="245" y1="199" x2="228.96" y2="146.38" /><line x1="201.09" y1="165.86" x2="156.01" y2="197.38" />
<line x1="156.01" y1="197.38" x2="138.06" y2="249.38" /><line x1="138.06" y1="249.38" x2="83.06" y2="248.38" />
<line x1="83.06" y1="248.38" x2="101.01" y2="196.38" /><line x1="101.01" y1="196.38" x2="156.01" y2="197.38" />
<line x1="83.06" y1="248.38" x2="39.15" y2="215.24" /><line x1="39.15" y1="215.24" x2="-5.93" y2="246.76" />
<line x1="-5.93" y1="246.76" x2="37.98" y2="279.9" /><line x1="37.98" y1="279.9" x2="83.06" y2="248.38" />
<line x1="-5.93" y1="246.76" x2="39.15" y2="215.24" /><line x1="39.15" y1="215.24" x2="23.11" y2="162.63" />
<line x1="23.11" y1="162.63" x2="7.06" y2="110.01" /><line x1="7.06" y1="110.01" x2="25.01" y2="58.01" />
<line x1="25.01" y1="58.01" x2="41.06" y2="110.63" /><line x1="83.06" y1="248.38" x2="138.06" y2="249.38" />
<line x1="138.06" y1="249.38" x2="156.01" y2="197.38" /><line x1="156.01" y1="197.38" x2="101.01" y2="196.38" />
<line x1="101.01" y1="196.38" x2="83.06" y2="248.38" /><line x1="156.01" y1="197.38" x2="138.06" y2="249.38" />
<line x1="138.06" y1="249.38" x2="183.14" y2="217.86" /><line x1="183.14" y1="217.86" x2="201.09" y2="165.86" />
<line x1="201.09" y1="165.86" x2="156.01" y2="197.38" /><line x1="183.14" y1="217.86" x2="227.05" y2="251" />
<line x1="227.05" y1="251" x2="181.97" y2="282.52" /><line x1="181.97" y1="282.52" x2="198.01" y2="335.14" />
<line x1="198.01" y1="335.14" x2="214.06" y2="387.75" /><line x1="214.06" y1="387.75" x2="196.11" y2="439.75" />
<line x1="196.11" y1="439.75" x2="180.07" y2="387.13" /><line x1="214.06" y1="387.75" x2="257.97" y2="420.89" />
<line x1="257.97" y1="420.89" x2="240.02" y2="472.89" /><line x1="240.02" y1="472.89" x2="196.11" y2="439.75" />
<line x1="196.11" y1="439.75" x2="214.06" y2="387.75" /><line x1="227.05" y1="251" x2="245" y2="199" />
<line x1="245" y1="199" x2="201.09" y2="165.86" /><line x1="201.09" y1="165.86" x2="157.18" y2="132.73" />
<line x1="157.18" y1="132.73" x2="141.14" y2="80.11" /><line x1="141.14" y1="80.11" x2="185.05" y2="113.25" />
<line x1="157.18" y1="132.73" x2="201.09" y2="165.86" /><line x1="201.09" y1="165.86" x2="183.14" y2="217.86" />
<line x1="183.14" y1="217.86" x2="139.24" y2="184.72" /><line x1="139.24" y1="184.72" x2="157.18" y2="132.73" />
<line x1="183.14" y1="217.86" x2="238.14" y2="218.86" /><line x1="238.14" y1="218.86" x2="256.09" y2="166.86" />
<line x1="256.09" y1="166.86" x2="201.09" y2="165.86" /><line x1="201.09" y1="165.86" x2="183.14" y2="217.86" />
<line x1="256.09" y1="166.86" x2="301.18" y2="135.34" /><line x1="301.18" y1="135.34" x2="246.18" y2="134.34" />
<line x1="246.18" y1="134.34" x2="201.09" y2="165.86" /><line x1="201.09" y1="165.86" x2="256.09" y2="166.86" />
<line x1="246.18" y1="134.34" x2="230.13" y2="81.73" /><line x1="183.14" y1="217.86" x2="138.06" y2="249.38" />
<line x1="138.06" y1="249.38" x2="154.11" y2="302" /><line x1="154.11" y1="302" x2="199.19" y2="270.48" />
<line x1="199.19" y1="270.48" x2="183.14" y2="217.86" /><line x1="154.11" y1="302" x2="199.19" y2="270.48" />
<line x1="199.19" y1="270.48" x2="183.14" y2="217.86" /><line x1="183.14" y1="217.86" x2="167.1" y2="165.24" />
<line x1="167.1" y1="165.24" x2="185.05" y2="113.25" /><line x1="185.05" y1="113.25" x2="201.09" y2="165.86" />
<line x1="167.1" y1="165.24" x2="123.19" y2="132.11" /><line x1="123.19" y1="132.11" x2="139.24" y2="184.72" />
<line x1="139.24" y1="184.72" x2="183.14" y2="217.86" /><line x1="183.14" y1="217.86" x2="167.1" y2="165.24" />
<line x1="139.24" y1="184.72" x2="94.15" y2="216.24" /><line x1="94.15" y1="216.24" x2="139.24" y2="184.72" />
<line x1="139.24" y1="184.72" x2="183.14" y2="217.86" /><line x1="183.14" y1="217.86" x2="138.06" y2="249.38" />
<line x1="138.06" y1="249.38" x2="94.15" y2="216.24" /><line x1="167.1" y1="165.24" x2="123.19" y2="132.11" />
<line x1="123.19" y1="132.11" x2="141.14" y2="80.11" /><line x1="141.14" y1="80.11" x2="185.05" y2="113.25" />
<line x1="185.05" y1="113.25" x2="167.1" y2="165.24" /><line x1="227.05" y1="251" x2="183.14" y2="217.86" />
<line x1="183.14" y1="217.86" x2="138.06" y2="249.38" /><line x1="138.06" y1="249.38" x2="92.98" y2="280.9" />
<line x1="92.98" y1="280.9" x2="37.98" y2="279.9" /><line x1="37.98" y1="279.9" x2="83.06" y2="248.38" />
<line x1="92.98" y1="280.9" x2="138.06" y2="249.38" /><line x1="138.06" y1="249.38" x2="181.97" y2="282.52" />
<line x1="181.97" y1="282.52" x2="136.89" y2="314.04" /><line x1="136.89" y1="314.04" x2="92.98" y2="280.9" />
<line x1="181.97" y1="282.52" x2="199.92" y2="230.52" /><line x1="199.92" y1="230.52" x2="156.01" y2="197.38" />
<line x1="156.01" y1="197.38" x2="138.06" y2="249.38" /><line x1="138.06" y1="249.38" x2="181.97" y2="282.52" />
<line x1="156.01" y1="197.38" x2="139.96" y2="144.76" /><line x1="139.96" y1="144.76" x2="122.02" y2="196.76" />
<line x1="122.02" y1="196.76" x2="138.06" y2="249.38" /><line x1="138.06" y1="249.38" x2="156.01" y2="197.38" />
<line x1="122.02" y1="196.76" x2="67.02" y2="195.76" /><line x1="181.97" y1="282.52" x2="199.92" y2="230.52" />
<line x1="199.92" y1="230.52" x2="156.01" y2="197.38" /><line x1="156.01" y1="197.38" x2="138.06" y2="249.38" />
<line x1="138.06" y1="249.38" x2="181.97" y2="282.52" /><line x1="156.01" y1="197.38" x2="139.96" y2="144.76" />
<line x1="139.96" y1="144.76" x2="122.02" y2="196.76" /><line x1="122.02" y1="196.76" x2="138.06" y2="249.38" />
<line x1="138.06" y1="249.38" x2="156.01" y2="197.38" /><line x1="122.02" y1="196.76" x2="67.02" y2="195.76" />
<line x1="67.02" y1="195.76" x2="21.93" y2="227.28" /><line x1="21.93" y1="227.28" x2="-21.98" y2="194.15" />
<line x1="-21.98" y1="194.15" x2="23.11" y2="162.63" /><line x1="23.11" y1="162.63" x2="67.02" y2="195.76" />
<line x1="-21.98" y1="194.15" x2="-38.02" y2="141.53" /><line x1="-38.02" y1="141.53" x2="-93.02" y2="140.53" />
<line x1="-93.02" y1="140.53" x2="-76.98" y2="193.15" /><line x1="-76.98" y1="193.15" x2="-21.98" y2="194.15" />
<line x1="-93.02" y1="140.53" x2="-38.02" y2="141.53" /><line x1="-38.02" y1="141.53" x2="-20.07" y2="89.53" />
<line x1="-20.07" y1="89.53" x2="-2.13" y2="37.53" /><line x1="-2.13" y1="37.53" x2="42.96" y2="6.01" />
<line x1="42.96" y1="6.01" x2="25.01" y2="58.01" /><line x1="-21.98" y1="194.15" x2="-76.98" y2="193.15" />
<line x1="-76.98" y1="193.15" x2="-94.92" y2="245.14" /><line x1="-94.92" y1="245.14" x2="-39.92" y2="246.14" />
<line x1="-39.92" y1="246.14" x2="-21.98" y2="194.15" /><line x1="-94.92" y1="245.14" x2="-39.92" y2="246.14" />
<line x1="-39.92" y1="246.14" x2="-21.98" y2="194.15" /><line x1="-21.98" y1="194.15" x2="-4.03" y2="142.15" />
<line x1="-4.03" y1="142.15" x2="41.06" y2="110.63" /><line x1="41.06" y1="110.63" x2="23.11" y2="162.63" />
<line x1="-4.03" y1="142.15" x2="-20.07" y2="89.53" /><line x1="-20.07" y1="89.53" x2="-38.02" y2="141.53" />
<line x1="-38.02" y1="141.53" x2="-21.98" y2="194.15" /><line x1="-21.98" y1="194.15" x2="-4.03" y2="142.15" />
<line x1="-38.02" y1="141.53" x2="-93.02" y2="140.53" /><line x1="-93.02" y1="140.53" x2="-38.02" y2="141.53" />
<line x1="-38.02" y1="141.53" x2="-21.98" y2="194.15" /><line x1="-21.98" y1="194.15" x2="-76.98" y2="193.15" />
<line x1="-76.98" y1="193.15" x2="-93.02" y2="140.53" /><line x1="-4.03" y1="142.15" x2="-20.07" y2="89.53" />
<line x1="-20.07" y1="89.53" x2="25.01" y2="58.01" /><line x1="25.01" y1="58.01" x2="41.06" y2="110.63" />
<line x1="41.06" y1="110.63" x2="-4.03" y2="142.15" /><line x1="25.01" y1="58.01" x2="-20.07" y2="89.53" />
<line x1="-20.07" y1="89.53" x2="-4.03" y2="142.15" /><line x1="-4.03" y1="142.15" x2="41.06" y2="110.63" />
<line x1="41.06" y1="110.63" x2="25.01" y2="58.01" /><line x1="-4.03" y1="142.15" x2="-20.07" y2="89.53" />
<line x1="-20.07" y1="89.53" x2="-38.02" y2="141.53" /><line x1="-38.02" y1="141.53" x2="-21.98" y2="194.15" />
<line x1="-21.98" y1="194.15" x2="-4.03" y2="142.15" /><line x1="-38.02" y1="141.53" x2="-93.02" y2="140.53" />
<line x1="-93.02" y1="140.53" x2="-75.07" y2="88.53" /><line x1="-75.07" y1="88.53" x2="-118.98" y2="55.39" />
<line x1="-118.98" y1="55.39" x2="-162.89" y2="22.26" /><line x1="-162.89" y1="22.26" x2="-178.93" y2="-30.36" />
<line x1="-178.93" y1="-30.36" x2="-135.03" y2="2.78" /><line x1="-162.89" y1="22.26" x2="-217.89" y2="21.26" />
<line x1="-217.89" y1="21.26" x2="-233.93" y2="-31.36" /><line x1="-233.93" y1="-31.36" x2="-178.93" y2="-30.36" />
<line x1="-178.93" y1="-30.36" x2="-162.89" y2="22.26" /><line x1="-21.98" y1="194.15" x2="-76.98" y2="193.15" />
<line x1="-76.98" y1="193.15" x2="-94.92" y2="245.14" /><line x1="-94.92" y1="245.14" x2="-39.92" y2="246.14" />
<line x1="-39.92" y1="246.14" x2="-21.98" y2="194.15" /><line x1="-94.92" y1="245.14" x2="-76.98" y2="193.15" />
<line x1="-76.98" y1="193.15" x2="-122.06" y2="224.67" /><line x1="-122.06" y1="224.67" x2="-140.01" y2="276.66" />
<line x1="-140.01" y1="276.66" x2="-94.92" y2="245.14" /><line x1="-122.06" y1="224.67" x2="-165.97" y2="191.53" />
<line x1="-165.97" y1="191.53" x2="-120.88" y2="160.01" /><line x1="-120.88" y1="160.01" x2="-136.93" y2="107.39" />
<line x1="-136.93" y1="107.39" x2="-152.97" y2="54.77" /><line x1="-152.97" y1="54.77" x2="-135.03" y2="2.78" />
<line x1="-135.03" y1="2.78" x2="-118.98" y2="55.39" /><line x1="-152.97" y1="54.77" x2="-196.88" y2="21.64" />
<line x1="-196.88" y1="21.64" x2="-178.93" y2="-30.36" /><line x1="-178.93" y1="-30.36" x2="-135.03" y2="2.78" />
<line x1="-135.03" y1="2.78" x2="-152.97" y2="54.77" /><line x1="-165.97" y1="191.53" x2="-120.88" y2="160.01" />
<line x1="-120.88" y1="160.01" x2="-136.93" y2="107.39" /><line x1="-136.93" y1="107.39" x2="-152.97" y2="54.77" />
<line x1="-152.97" y1="54.77" x2="-135.03" y2="2.78" /><line x1="-135.03" y1="2.78" x2="-118.98" y2="55.39" />
<line x1="-152.97" y1="54.77" x2="-136.93" y2="107.39" /><line x1="-136.93" y1="107.39" x2="-182.01" y2="138.91" />
<line x1="-182.01" y1="138.91" x2="-198.06" y2="86.29" /><line x1="-198.06" y1="86.29" x2="-152.97" y2="54.77" />
<line x1="-182.01" y1="138.91" x2="-138.1" y2="172.05" /><line x1="-138.1" y1="172.05" x2="-93.02" y2="140.53" />
<line x1="-93.02" y1="140.53" x2="-136.93" y2="107.39" /><line x1="-136.93" y1="107.39" x2="-182.01" y2="138.91" />
<line x1="-93.02" y1="140.53" x2="-38.02" y2="141.53" /><line x1="-38.02" y1="141.53" x2="-81.93" y2="108.39" />
<line x1="-81.93" y1="108.39" x2="-136.93" y2="107.39" /><line x1="-136.93" y1="107.39" x2="-93.02" y2="140.53" />
<line x1="-81.93" y1="108.39" x2="-63.98" y2="56.39" /><line x1="-182.01" y1="138.91" x2="-237.01" y2="137.91" />
<line x1="-237.01" y1="137.91" x2="-254.96" y2="189.91" /><line x1="-254.96" y1="189.91" x2="-199.96" y2="190.91" />
<line x1="-199.96" y1="190.91" x2="-182.01" y2="138.91" /><line x1="-254.96" y1="189.91" x2="-199.96" y2="190.91" />
<line x1="-199.96" y1="190.91" x2="-182.01" y2="138.91" /><line x1="-182.01" y1="138.91" x2="-164.07" y2="86.91" />
<line x1="-164.07" y1="86.91" x2="-118.98" y2="55.39" /><line x1="-118.98" y1="55.39" x2="-136.93" y2="107.39" />
<line x1="-164.07" y1="86.91" x2="-180.11" y2="34.29" /><line x1="-180.11" y1="34.29" x2="-198.06" y2="86.29" />
<line x1="-198.06" y1="86.29" x2="-182.01" y2="138.91" /><line x1="-182.01" y1="138.91" x2="-164.07" y2="86.91" />
<line x1="-198.06" y1="86.29" x2="-253.06" y2="85.29" /><line x1="-253.06" y1="85.29" x2="-198.06" y2="86.29" />
<line x1="-198.06" y1="86.29" x2="-182.01" y2="138.91" /><line x1="-182.01" y1="138.91" x2="-237.01" y2="137.91" />
<line x1="-237.01" y1="137.91" x2="-253.06" y2="85.29" /><line x1="-164.07" y1="86.91" x2="-180.11" y2="34.29" />
<line x1="-180.11" y1="34.29" x2="-135.03" y2="2.78" /><line x1="-135.03" y1="2.78" x2="-118.98" y2="55.39" />
<line x1="-118.98" y1="55.39" x2="-164.07" y2="86.91" /><line x1="-135.03" y1="2.78" x2="-117.08" y2="-49.22" />
<line x1="-117.08" y1="-49.22" x2="-160.99" y2="-82.36" /><line x1="-160.99" y1="-82.36" x2="-178.93" y2="-30.36" />
<line x1="-178.93" y1="-30.36" x2="-135.03" y2="2.78" /><line x1="-160.99" y1="-82.36" x2="-117.08" y2="-49.22" />
<line x1="-117.08" y1="-49.22" x2="-133.12" y2="-101.84" /><line x1="-133.12" y1="-101.84" x2="-177.03" y2="-134.98" />
<line x1="-177.03" y1="-134.98" x2="-160.99" y2="-82.36" /><line x1="-133.12" y1="-101.84" x2="-88.04" y2="-133.36" />
<line x1="-88.04" y1="-133.36" x2="-72" y2="-80.74" /><line x1="-72" y1="-80.74" x2="-17" y2="-79.74" />
<line x1="-17" y1="-79.74" x2="38" y2="-78.74" /><line x1="38" y1="-78.74" x2="81.91" y2="-45.61" />
<line x1="81.91" y1="-45.61" x2="26.91" y2="-46.61" /><line x1="38" y1="-78.74" x2="83.09" y2="-110.26" />
<line x1="83.09" y1="-110.26" x2="127" y2="-77.12" /><line x1="127" y1="-77.12" x2="81.91" y2="-45.61" />
<line x1="81.91" y1="-45.61" x2="38" y2="-78.74" /><line x1="-88.04" y1="-133.36" x2="-33.04" y2="-132.36" />
<line x1="-33.04" y1="-132.36" x2="-15.09" y2="-184.36" /><line x1="-15.09" y1="-184.36" x2="2.85" y2="-236.36" />
<line x1="2.85" y1="-236.36" x2="47.94" y2="-267.88" /><line x1="47.94" y1="-267.88" x2="29.99" y2="-215.88" />
<line x1="2.85" y1="-236.36" x2="-15.09" y2="-184.36" /><line x1="-15.09" y1="-184.36" x2="-70.09" y2="-185.36" />
<line x1="-70.09" y1="-185.36" x2="-52.15" y2="-237.36" /><line x1="-52.15" y1="-237.36" x2="2.85" y2="-236.36" />
<line x1="-70.09" y1="-185.36" x2="-54.05" y2="-132.74" /><line x1="-54.05" y1="-132.74" x2="0.95" y2="-131.74" />
<line x1="0.95" y1="-131.74" x2="-15.09" y2="-184.36" /><line x1="-15.09" y1="-184.36" x2="-70.09" y2="-185.36" />
<line x1="0.95" y1="-131.74" x2="44.86" y2="-98.6" /><line x1="44.86" y1="-98.6" x2="28.81" y2="-151.22" />
<line x1="28.81" y1="-151.22" x2="-15.09" y2="-184.36" /><line x1="-15.09" y1="-184.36" x2="0.95" y2="-131.74" />
<line x1="28.81" y1="-151.22" x2="73.9" y2="-182.74" /><line x1="-70.09" y1="-185.36" x2="-15.09" y2="-184.36" />
<line x1="-15.09" y1="-184.36" x2="2.85" y2="-236.36" /><line x1="2.85" y1="-236.36" x2="-52.15" y2="-237.36" />
<line x1="-52.15" y1="-237.36" x2="-70.09" y2="-185.36" /><line x1="2.85" y1="-236.36" x2="47.94" y2="-267.88" />
<line x1="47.94" y1="-267.88" x2="-7.06" y2="-268.88" /><line x1="-7.06" y1="-268.88" x2="-52.15" y2="-237.36" />
<line x1="-52.15" y1="-237.36" x2="2.85" y2="-236.36" /><line x1="-7.06" y1="-268.88" x2="-23.11" y2="-321.49" />
<line x1="-23.11" y1="-321.49" x2="-67.02" y2="-354.63" /><line x1="-67.02" y1="-354.63" x2="-49.07" y2="-406.63" />
<line x1="-49.07" y1="-406.63" x2="-5.16" y2="-373.49" /><line x1="-5.16" y1="-373.49" x2="-23.11" y2="-321.49" />
<line x1="-49.07" y1="-406.63" x2="-3.99" y2="-438.15" /><line x1="-3.99" y1="-438.15" x2="-20.03" y2="-490.77" />
<line x1="-20.03" y1="-490.77" x2="-65.11" y2="-459.25" /><line x1="-65.11" y1="-459.25" x2="-49.07" y2="-406.63" />
<line x1="-20.03" y1="-490.77" x2="-3.99" y2="-438.15" /><line x1="-3.99" y1="-438.15" x2="51.01" y2="-437.15" />
<line x1="51.01" y1="-437.15" x2="106.01" y2="-436.15" /><line x1="106.01" y1="-436.15" x2="149.92" y2="-403.01" />
<line x1="149.92" y1="-403.01" x2="94.92" y2="-404.01" /><line x1="-88.04" y1="-133.36" x2="-70.09" y2="-185.36" />
<line x1="-70.09" y1="-185.36" x2="-114" y2="-218.5" /><line x1="-114" y1="-218.5" x2="-157.91" y2="-251.63" />
<line x1="-157.91" y1="-251.63" x2="-173.95" y2="-304.25" /><line x1="-173.95" y1="-304.25" x2="-130.05" y2="-271.11" />
<line x1="-157.91" y1="-251.63" x2="-114" y2="-218.5" /><line x1="-114" y1="-218.5" x2="-131.95" y2="-166.5" />
<line x1="-131.95" y1="-166.5" x2="-175.86" y2="-199.63" /><line x1="-175.86" y1="-199.63" x2="-157.91" y2="-251.63" />
<line x1="-131.95" y1="-166.5" x2="-76.95" y2="-165.5" /><line x1="-76.95" y1="-165.5" x2="-59" y2="-217.5" />
<line x1="-59" y1="-217.5" x2="-114" y2="-218.5" /><line x1="-114" y1="-218.5" x2="-131.95" y2="-166.5" />
<line x1="-59" y1="-217.5" x2="-13.92" y2="-249.02" /><line x1="-13.92" y1="-249.02" x2="-68.92" y2="-250.02" />
<line x1="-68.92" y1="-250.02" x2="-114" y2="-218.5" /><line x1="-114" y1="-218.5" x2="-59" y2="-217.5" />
<line x1="-68.92" y1="-250.02" x2="-84.96" y2="-302.63" /><line x1="-131.95" y1="-166.5" x2="-114" y2="-218.5" />
<line x1="-114" y1="-218.5" x2="-157.91" y2="-251.63" /><line x1="-157.91" y1="-251.63" x2="-175.86" y2="-199.63" />
<line x1="-175.86" y1="-199.63" x2="-131.95" y2="-166.5" /><line x1="-157.91" y1="-251.63" x2="-175.86" y2="-199.63" />
<line x1="-175.86" y1="-199.63" x2="-131.95" y2="-166.5" /><line x1="-131.95" y1="-166.5" x2="-88.04" y2="-133.36" />
<line x1="-88.04" y1="-133.36" x2="-72" y2="-80.74" /><line x1="-72" y1="-80.74" x2="-115.9" y2="-113.88" />
<line x1="-88.04" y1="-133.36" x2="-33.04" y2="-132.36" /><line x1="-33.04" y1="-132.36" x2="-76.95" y2="-165.5" />
<line x1="-76.95" y1="-165.5" x2="-131.95" y2="-166.5" /><line x1="-131.95" y1="-166.5" x2="-88.04" y2="-133.36" />
<line x1="-76.95" y1="-165.5" x2="-59" y2="-217.5" /><line x1="-59" y1="-217.5" x2="-76.95" y2="-165.5" />
<line x1="-76.95" y1="-165.5" x2="-131.95" y2="-166.5" /><line x1="-131.95" y1="-166.5" x2="-114" y2="-218.5" />
<line x1="-114" y1="-218.5" x2="-59" y2="-217.5" /><line x1="-88.04" y1="-133.36" x2="-33.04" y2="-132.36" />
<line x1="-33.04" y1="-132.36" x2="-17" y2="-79.74" /><line x1="-17" y1="-79.74" x2="-72" y2="-80.74" />
<line x1="-72" y1="-80.74" x2="-88.04" y2="-133.36" /><line x1="-17" y1="-79.74" x2="-72" y2="-80.74" />
<line x1="-72" y1="-80.74" x2="-89.94" y2="-28.74" /><line x1="-89.94" y1="-28.74" x2="-34.94" y2="-27.74" />
<line x1="-34.94" y1="-27.74" x2="-17" y2="-79.74" /><line x1="-89.94" y1="-28.74" x2="-135.03" y2="2.78" />
<line x1="-135.03" y1="2.78" x2="-80.03" y2="3.78" /><line x1="-80.03" y1="3.78" x2="-34.94" y2="-27.74" />
<line x1="-34.94" y1="-27.74" x2="-89.94" y2="-28.74" /><line x1="-80.03" y1="3.78" x2="-63.98" y2="56.39" />
<line x1="-63.98" y1="56.39" x2="-20.07" y2="89.53" /><line x1="-20.07" y1="89.53" x2="-38.02" y2="141.53" />
<line x1="-38.02" y1="141.53" x2="-81.93" y2="108.39" /><line x1="-81.93" y1="108.39" x2="-63.98" y2="56.39" />
<line x1="-38.02" y1="141.53" x2="-83.1" y2="173.05" /><line x1="-83.1" y1="173.05" x2="-67.06" y2="225.67" />
<line x1="-67.06" y1="225.67" x2="-21.98" y2="194.15" /><line x1="-21.98" y1="194.15" x2="-38.02" y2="141.53" />
<line x1="-67.06" y1="225.67" x2="-83.1" y2="173.05" /><line x1="-83.1" y1="173.05" x2="-138.1" y2="172.05" />
<line x1="-138.1" y1="172.05" x2="-193.1" y2="171.05" /><line x1="-193.1" y1="171.05" x2="-237.01" y2="137.91" />
<line x1="-237.01" y1="137.91" x2="-182.01" y2="138.91" /><line x1="-38.02" y1="141.53" x2="-21.98" y2="194.15" />
<line x1="-21.98" y1="194.15" x2="33.02" y2="195.15" /><line x1="33.02" y1="195.15" x2="16.98" y2="142.53" />
<line x1="16.98" y1="142.53" x2="-38.02" y2="141.53" /><line x1="33.02" y1="195.15" x2="-21.98" y2="194.15" />
<line x1="-21.98" y1="194.15" x2="21.93" y2="227.28" /><line x1="21.93" y1="227.28" x2="76.93" y2="228.28" />
<line x1="76.93" y1="228.28" x2="33.02" y2="195.15" /><line x1="21.93" y1="227.28" x2="3.99" y2="279.28" />
<line x1="3.99" y1="279.28" x2="-39.92" y2="246.14" /><line x1="-39.92" y1="246.14" x2="-85.01" y2="277.66" />
<line x1="-85.01" y1="277.66" x2="-130.09" y2="309.18" /><line x1="-130.09" y1="309.18" x2="-185.09" y2="308.18" />
<line x1="-185.09" y1="308.18" x2="-140.01" y2="276.66" /><line x1="-130.09" y1="309.18" x2="-148.04" y2="361.18" />
<line x1="-148.04" y1="361.18" x2="-203.04" y2="360.18" /><line x1="-203.04" y1="360.18" x2="-185.09" y2="308.18" />
<line x1="-185.09" y1="308.18" x2="-130.09" y2="309.18" /><line x1="300" y1="200" x2="245" y2="199" />
<line x1="245" y1="199" x2="227.05" y2="251" /><line x1="227.05" y1="251" x2="282.05" y2="252" />
<line x1="282.05" y1="252" x2="300" y2="200" /><line x1="227.05" y1="251" x2="181.97" y2="282.52" />
<line x1="181.97" y1="282.52" x2="236.97" y2="283.52" /><line x1="236.97" y1="283.52" x2="282.05" y2="252" />
<line x1="282.05" y1="252" x2="227.05" y2="251" /><line x1="236.97" y1="283.52" x2="253.01" y2="336.14" />
<line x1="253.01" y1="336.14" x2="296.92" y2="369.27" /><line x1="296.92" y1="369.27" x2="278.98" y2="421.27" />
<line x1="278.98" y1="421.27" x2="235.07" y2="388.13" /><line x1="235.07" y1="388.13" x2="253.01" y2="336.14" />
<line x1="278.98" y1="421.27" x2="233.89" y2="452.79" /><line x1="233.89" y1="452.79" x2="249.94" y2="505.41" />
<line x1="249.94" y1="505.41" x2="295.02" y2="473.89" /><line x1="295.02" y1="473.89" x2="278.98" y2="421.27" />
<line x1="249.94" y1="505.41" x2="233.89" y2="452.79" /><line x1="233.89" y1="452.79" x2="178.89" y2="451.79" />
<line x1="178.89" y1="451.79" x2="123.89" y2="450.79" /><line x1="123.89" y1="450.79" x2="79.98" y2="417.65" />
<line x1="79.98" y1="417.65" x2="134.98" y2="418.65" /><line x1="278.98" y1="421.27" x2="296.92" y2="369.27" />
<line x1="296.92" y1="369.27" x2="253.01" y2="336.14" /><line x1="253.01" y1="336.14" x2="235.07" y2="388.13" />
<line x1="235.07" y1="388.13" x2="278.98" y2="421.27" /><line x1="253.01" y1="336.14" x2="296.92" y2="369.27" />
<line x1="296.92" y1="369.27" x2="280.88" y2="316.66" /><line x1="280.88" y1="316.66" x2="236.97" y2="283.52" />
<line x1="236.97" y1="283.52" x2="253.01" y2="336.14" /><line x1="280.88" y1="316.66" x2="325.96" y2="285.14" />
<line x1="325.96" y1="285.14" x2="342.01" y2="337.75" /><line x1="342.01" y1="337.75" x2="397.01" y2="338.75" />
<line x1="397.01" y1="338.75" x2="452.01" y2="339.75" /><line x1="452.01" y1="339.75" x2="495.91" y2="372.89" />
<line x1="495.91" y1="372.89" x2="440.91" y2="371.89" /><line x1="452.01" y1="339.75" x2="497.09" y2="308.23" />
<line x1="497.09" y1="308.23" x2="541" y2="341.37" /><line x1="541" y1="341.37" x2="495.91" y2="372.89" />
<line x1="495.91" y1="372.89" x2="452.01" y2="339.75" /><line x1="325.96" y1="285.14" x2="282.05" y2="252" />
<line x1="282.05" y1="252" x2="236.97" y2="283.52" /><line x1="236.97" y1="283.52" x2="191.89" y2="315.04" />
<line x1="191.89" y1="315.04" x2="136.89" y2="314.04" /><line x1="136.89" y1="314.04" x2="181.97" y2="282.52" />
<line x1="191.89" y1="315.04" x2="236.97" y2="283.52" /><line x1="236.97" y1="283.52" x2="280.88" y2="316.66" />
<line x1="280.88" y1="316.66" x2="235.79" y2="348.17" /><line x1="235.79" y1="348.17" x2="191.89" y2="315.04" />
<line x1="280.88" y1="316.66" x2="298.82" y2="264.66" /><line x1="298.82" y1="264.66" x2="254.92" y2="231.52" />
<line x1="254.92" y1="231.52" x2="236.97" y2="283.52" /><line x1="236.97" y1="283.52" x2="280.88" y2="316.66" />
<line x1="254.92" y1="231.52" x2="238.87" y2="178.9" /><line x1="238.87" y1="178.9" x2="220.92" y2="230.9" />
<line x1="220.92" y1="230.9" x2="236.97" y2="283.52" /><line x1="236.97" y1="283.52" x2="254.92" y2="231.52" />
<line x1="220.92" y1="230.9" x2="165.92" y2="229.9" /><line x1="280.88" y1="316.66" x2="296.92" y2="369.27" />
<line x1="296.92" y1="369.27" x2="351.92" y2="370.27" /><line x1="351.92" y1="370.27" x2="335.88" y2="317.66" />
<line x1="335.88" y1="317.66" x2="280.88" y2="316.66" /><line x1="351.92" y1="370.27" x2="335.88" y2="317.66" />
<line x1="335.88" y1="317.66" x2="280.88" y2="316.66" /><line x1="280.88" y1="316.66" x2="225.88" y2="315.66" />
<line x1="225.88" y1="315.66" x2="181.97" y2="282.52" /><line x1="181.97" y1="282.52" x2="236.97" y2="283.52" />
<line x1="225.88" y1="315.66" x2="180.79" y2="347.17" /><line x1="180.79" y1="347.17" x2="235.79" y2="348.17" />
<line x1="235.79" y1="348.17" x2="280.88" y2="316.66" /><line x1="280.88" y1="316.66" x2="225.88" y2="315.66" />
<line x1="235.79" y1="348.17" x2="251.84" y2="400.79" /><line x1="251.84" y1="400.79" x2="235.79" y2="348.17" />
<line x1="235.79" y1="348.17" x2="280.88" y2="316.66" /><line x1="280.88" y1="316.66" x2="296.92" y2="369.27" />
<line x1="296.92" y1="369.27" x2="251.84" y2="400.79" /><line x1="225.88" y1="315.66" x2="180.79" y2="347.17" />
<line x1="180.79" y1="347.17" x2="136.89" y2="314.04" /><line x1="136.89" y1="314.04" x2="181.97" y2="282.52" />
<line x1="181.97" y1="282.52" x2="225.88" y2="315.66" /><line x1="325.96" y1="285.14" x2="280.88" y2="316.66" />
<line x1="280.88" y1="316.66" x2="296.92" y2="369.27" /><line x1="296.92" y1="369.27" x2="312.97" y2="421.89" />
<line x1="312.97" y1="421.89" x2="295.02" y2="473.89" /><line x1="295.02" y1="473.89" x2="278.98" y2="421.27" />
<line x1="312.97" y1="421.89" x2="296.92" y2="369.27" /><line x1="296.92" y1="369.27" x2="342.01" y2="337.75" />
<line x1="342.01" y1="337.75" x2="358.05" y2="390.37" /><line x1="358.05" y1="390.37" x2="312.97" y2="421.89" />
<line x1="342.01" y1="337.75" x2="298.1" y2="304.62" /><line x1="298.1" y1="304.62" x2="253.01" y2="336.14" />
<line x1="253.01" y1="336.14" x2="296.92" y2="369.27" /><line x1="296.92" y1="369.27" x2="342.01" y2="337.75" />
<line x1="253.01" y1="336.14" x2="198.01" y2="335.14" /><line x1="198.01" y1="335.14" x2="241.92" y2="368.27" />
<line x1="241.92" y1="368.27" x2="296.92" y2="369.27" /><line x1="296.92" y1="369.27" x2="253.01" y2="336.14" />
<line x1="241.92" y1="368.27" x2="223.98" y2="420.27" /><line x1="342.01" y1="337.75" x2="298.1" y2="304.62" />
<line x1="298.1" y1="304.62" x2="253.01" y2="336.14" /><line x1="253.01" y1="336.14" x2="296.92" y2="369.27" />
<line x1="296.92" y1="369.27" x2="342.01" y2="337.75" /><line x1="253.01" y1="336.14" x2="198.01" y2="335.14" />
<line x1="198.01" y1="335.14" x2="241.92" y2="368.27" /><line x1="241.92" y1="368.27" x2="296.92" y2="369.27" />
<line x1="296.92" y1="369.27" x2="253.01" y2="336.14" /><line x1="241.92" y1="368.27" x2="223.98" y2="420.27" />
<line x1="223.98" y1="420.27" x2="240.02" y2="472.89" /><line x1="240.02" y1="472.89" x2="194.94" y2="504.41" />
<line x1="194.94" y1="504.41" x2="178.89" y2="451.79" /><line x1="178.89" y1="451.79" x2="223.98" y2="420.27" />
<line x1="194.94" y1="504.41" x2="139.94" y2="503.41" /><line x1="139.94" y1="503.41" x2="121.99" y2="555.41" />
<line x1="121.99" y1="555.41" x2="176.99" y2="556.41" /><line x1="176.99" y1="556.41" x2="194.94" y2="504.41" />
<line x1="121.99" y1="555.41" x2="139.94" y2="503.41" /><line x1="139.94" y1="503.41" x2="96.03" y2="470.27" />
<line x1="96.03" y1="470.27" x2="52.12" y2="437.13" /><line x1="52.12" y1="437.13" x2="36.08" y2="384.52" />
<line x1="36.08" y1="384.52" x2="79.98" y2="417.65" /><line x1="194.94" y1="504.41" x2="176.99" y2="556.41" />
<line x1="176.99" y1="556.41" x2="220.9" y2="589.54" /><line x1="220.9" y1="589.54" x2="238.84" y2="537.55" />
<line x1="238.84" y1="537.55" x2="194.94" y2="504.41" /><line x1="220.9" y1="589.54" x2="238.84" y2="537.55" />
<line x1="238.84" y1="537.55" x2="194.94" y2="504.41" /><line x1="194.94" y1="504.41" x2="151.03" y2="471.27" />
<line x1="151.03" y1="471.27" x2="134.98" y2="418.65" /><line x1="134.98" y1="418.65" x2="178.89" y2="451.79" />
<line x1="151.03" y1="471.27" x2="96.03" y2="470.27" /><line x1="96.03" y1="470.27" x2="139.94" y2="503.41" />
<line x1="139.94" y1="503.41" x2="194.94" y2="504.41" /><line x1="194.94" y1="504.41" x2="151.03" y2="471.27" />
<line x1="139.94" y1="503.41" x2="121.99" y2="555.41" /><line x1="121.99" y1="555.41" x2="139.94" y2="503.41" />
<line x1="139.94" y1="503.41" x2="194.94" y2="504.41" /><line x1="194.94" y1="504.41" x2="176.99" y2="556.41" />
<line x1="176.99" y1="556.41" x2="121.99" y2="555.41" /><line x1="151.03" y1="471.27" x2="96.03" y2="470.27" />
<line x1="96.03" y1="470.27" x2="79.98" y2="417.65" /><line x1="79.98" y1="417.65" x2="134.98" y2="418.65" />
<line x1="134.98" y1="418.65" x2="151.03" y2="471.27" /><line x1="79.98" y1="417.65" x2="96.03" y2="470.27" />
<line x1="96.03" y1="470.27" x2="151.03" y2="471.27" /><line x1="151.03" y1="471.27" x2="134.98" y2="418.65" />
<line x1="134.98" y1="418.65" x2="79.98" y2="417.65" /><line x1="151.03" y1="471.27" x2="96.03" y2="470.27" />
<line x1="96.03" y1="470.27" x2="139.94" y2="503.41" /><line x1="139.94" y1="503.41" x2="194.94" y2="504.41" />
<line x1="194.94" y1="504.41" x2="151.03" y2="471.27" /><line x1="139.94" y1="503.41" x2="121.99" y2="555.41" />
<line x1="121.99" y1="555.41" x2="78.08" y2="522.27" /><line x1="78.08" y1="522.27" x2="33" y2="553.79" />
<line x1="33" y1="553.79" x2="-12.09" y2="585.31" /><line x1="-12.09" y1="585.31" x2="-67.09" y2="584.31" />
<line x1="-67.09" y1="584.31" x2="-22" y2="552.79" /><line x1="-12.09" y1="585.31" x2="-30.03" y2="637.31" />
<line x1="-30.03" y1="637.31" x2="-85.03" y2="636.31" /><line x1="-85.03" y1="636.31" x2="-67.09" y2="584.31" />
<line x1="-67.09" y1="584.31" x2="-12.09" y2="585.31" /><line x1="194.94" y1="504.41" x2="176.99" y2="556.41" />
<line x1="176.99" y1="556.41" x2="220.9" y2="589.54" /><line x1="220.9" y1="589.54" x2="238.84" y2="537.55" />
<line x1="238.84" y1="537.55" x2="194.94" y2="504.41" /><line x1="220.9" y1="589.54" x2="176.99" y2="556.41" />
<line x1="176.99" y1="556.41" x2="193.03" y2="609.02" /><line x1="193.03" y1="609.02" x2="236.94" y2="642.16" />
<line x1="236.94" y1="642.16" x2="220.9" y2="589.54" /><line x1="193.03" y1="609.02" x2="147.95" y2="640.54" />
<line x1="147.95" y1="640.54" x2="131.91" y2="587.93" /><line x1="131.91" y1="587.93" x2="76.91" y2="586.93" />
<line x1="76.91" y1="586.93" x2="21.91" y2="585.93" /><line x1="21.91" y1="585.93" x2="-22" y2="552.79" />
<line x1="-22" y1="552.79" x2="33" y2="553.79" /><line x1="21.91" y1="585.93" x2="-23.18" y2="617.45" />
<line x1="-23.18" y1="617.45" x2="-67.09" y2="584.31" /><line x1="-67.09" y1="584.31" x2="-22" y2="552.79" />
<line x1="-22" y1="552.79" x2="21.91" y2="585.93" /><line x1="147.95" y1="640.54" x2="131.91" y2="587.93" />
<line x1="131.91" y1="587.93" x2="76.91" y2="586.93" /><line x1="76.91" y1="586.93" x2="21.91" y2="585.93" />
<line x1="21.91" y1="585.93" x2="-22" y2="552.79" /><line x1="-22" y1="552.79" x2="33" y2="553.79" />
<line x1="21.91" y1="585.93" x2="76.91" y2="586.93" /><line x1="76.91" y1="586.93" x2="92.95" y2="639.54" />
<line x1="92.95" y1="639.54" x2="37.95" y2="638.54" /><line x1="37.95" y1="638.54" x2="21.91" y2="585.93" />
<line x1="92.95" y1="639.54" x2="138.03" y2="608.02" /><line x1="138.03" y1="608.02" x2="121.99" y2="555.41" />
<line x1="121.99" y1="555.41" x2="76.91" y2="586.93" /><line x1="76.91" y1="586.93" x2="92.95" y2="639.54" />
<line x1="121.99" y1="555.41" x2="139.94" y2="503.41" /><line x1="139.94" y1="503.41" x2="94.85" y2="534.93" />
<line x1="94.85" y1="534.93" x2="76.91" y2="586.93" /><line x1="76.91" y1="586.93" x2="121.99" y2="555.41" />
<line x1="94.85" y1="534.93" x2="50.94" y2="501.79" /><line x1="92.95" y1="639.54" x2="75" y2="691.54" />
<line x1="75" y1="691.54" x2="118.91" y2="724.68" /><line x1="118.91" y1="724.68" x2="136.86" y2="672.68" />
<line x1="136.86" y1="672.68" x2="92.95" y2="639.54" /><line x1="118.91" y1="724.68" x2="136.86" y2="672.68" />
<line x1="136.86" y1="672.68" x2="92.95" y2="639.54" /><line x1="92.95" y1="639.54" x2="49.04" y2="606.41" />
<line x1="49.04" y1="606.41" x2="33" y2="553.79" /><line x1="33" y1="553.79" x2="76.91" y2="586.93" />
<line x1="49.04" y1="606.41" x2="-5.96" y2="605.41" /><line x1="-5.96" y1="605.41" x2="37.95" y2="638.54" />
<line x1="37.95" y1="638.54" x2="92.95" y2="639.54" /><line x1="92.95" y1="639.54" x2="49.04" y2="606.41" />
<line x1="37.95" y1="638.54" x2="20" y2="690.54" /><line x1="20" y1="690.54" x2="37.95" y2="638.54" />
<line x1="37.95" y1="638.54" x2="92.95" y2="639.54" /><line x1="92.95" y1="639.54" x2="75" y2="691.54" />
<line x1="75" y1="691.54" x2="20" y2="690.54" /><line x1="49.04" y1="606.41" x2="-5.96" y2="605.41" />
<line x1="-5.96" y1="605.41" x2="-22" y2="552.79" /><line x1="-22" y1="552.79" x2="33" y2="553.79" />
<line x1="33" y1="553.79" x2="49.04" y2="606.41" /><line x1="-22" y1="552.79" x2="-65.91" y2="519.65" />
<line x1="-65.91" y1="519.65" x2="-110.99" y2="551.17" /><line x1="-110.99" y1="551.17" x2="-67.09" y2="584.31" />
<line x1="-67.09" y1="584.31" x2="-22" y2="552.79" /><line x1="-110.99" y1="551.17" x2="-65.91" y2="519.65" />
<line x1="-65.91" y1="519.65" x2="-120.91" y2="518.65" /><line x1="-120.91" y1="518.65" x2="-165.99" y2="550.17" />
<line x1="-165.99" y1="550.17" x2="-110.99" y2="551.17" /><line x1="-120.91" y1="518.65" x2="-136.96" y2="466.03" />
<line x1="-136.96" y1="466.03" x2="-81.96" y2="467.03" /><line x1="-81.96" y1="467.03" x2="-64.01" y2="415.04" />
<line x1="-64.01" y1="415.04" x2="-46.06" y2="363.04" /><line x1="-46.06" y1="363.04" x2="-0.98" y2="331.52" />
<line x1="-0.98" y1="331.52" x2="-18.92" y2="383.52" /><line x1="-46.06" y1="363.04" x2="-62.11" y2="310.42" />
<line x1="-62.11" y1="310.42" x2="-17.02" y2="278.9" /><line x1="-17.02" y1="278.9" x2="-0.98" y2="331.52" />
<line x1="-0.98" y1="331.52" x2="-46.06" y2="363.04" /><line x1="-136.96" y1="466.03" x2="-119.01" y2="414.04" />
<line x1="-119.01" y1="414.04" x2="-162.92" y2="380.9" /><line x1="-162.92" y1="380.9" x2="-206.82" y2="347.76" />
<line x1="-206.82" y1="347.76" x2="-222.87" y2="295.14" /><line x1="-222.87" y1="295.14" x2="-178.96" y2="328.28" />
<line x1="-206.82" y1="347.76" x2="-162.92" y2="380.9" /><line x1="-162.92" y1="380.9" x2="-180.86" y2="432.9" />
<line x1="-180.86" y1="432.9" x2="-224.77" y2="399.76" /><line x1="-224.77" y1="399.76" x2="-206.82" y2="347.76" />
<line x1="-180.86" y1="432.9" x2="-125.86" y2="433.9" /><line x1="-125.86" y1="433.9" x2="-107.92" y2="381.9" />
<line x1="-107.92" y1="381.9" x2="-162.92" y2="380.9" /><line x1="-162.92" y1="380.9" x2="-180.86" y2="432.9" />
<line x1="-107.92" y1="381.9" x2="-62.83" y2="350.38" /><line x1="-62.83" y1="350.38" x2="-117.83" y2="349.38" />
<line x1="-117.83" y1="349.38" x2="-162.92" y2="380.9" /><line x1="-162.92" y1="380.9" x2="-107.92" y2="381.9" />
<line x1="-117.83" y1="349.38" x2="-133.88" y2="296.76" /><line x1="-180.86" y1="432.9" x2="-162.92" y2="380.9" />
<line x1="-162.92" y1="380.9" x2="-206.82" y2="347.76" /><line x1="-206.82" y1="347.76" x2="-224.77" y2="399.76" />
<line x1="-224.77" y1="399.76" x2="-180.86" y2="432.9" /><line x1="-206.82" y1="347.76" x2="-222.87" y2="295.14" />
<line x1="-222.87" y1="295.14" x2="-240.82" y2="347.14" /><line x1="-240.82" y1="347.14" x2="-224.77" y2="399.76" />
<line x1="-224.77" y1="399.76" x2="-206.82" y2="347.76" /><line x1="-240.82" y1="347.14" x2="-295.82" y2="346.14" />
<line x1="-295.82" y1="346.14" x2="-340.9" y2="377.66" /><line x1="-340.9" y1="377.66" x2="-384.81" y2="344.53" />
<line x1="-384.81" y1="344.53" x2="-339.72" y2="313.01" /><line x1="-339.72" y1="313.01" x2="-295.82" y2="346.14" />
<line x1="-384.81" y1="344.53" x2="-400.85" y2="291.91" /><line x1="-400.85" y1="291.91" x2="-455.85" y2="290.91" />
<line x1="-455.85" y1="290.91" x2="-439.81" y2="343.53" /><line x1="-439.81" y1="343.53" x2="-384.81" y2="344.53" />
<line x1="-455.85" y1="290.91" x2="-400.85" y2="291.91" /><line x1="-400.85" y1="291.91" x2="-382.91" y2="239.91" />
<line x1="-382.91" y1="239.91" x2="-364.96" y2="187.91" /><line x1="-364.96" y1="187.91" x2="-319.88" y2="156.39" />
<line x1="-319.88" y1="156.39" x2="-337.82" y2="208.39" /><line x1="-136.96" y1="466.03" x2="-180.86" y2="432.9" />
<line x1="-180.86" y1="432.9" x2="-225.95" y2="464.42" /><line x1="-225.95" y1="464.42" x2="-271.03" y2="495.94" />
<line x1="-271.03" y1="495.94" x2="-326.03" y2="494.94" /><line x1="-326.03" y1="494.94" x2="-280.95" y2="463.42" />
<line x1="-271.03" y1="495.94" x2="-225.95" y2="464.42" /><line x1="-225.95" y1="464.42" x2="-182.04" y2="497.55" />
<line x1="-182.04" y1="497.55" x2="-227.12" y2="529.07" /><line x1="-227.12" y1="529.07" x2="-271.03" y2="495.94" />
<line x1="-182.04" y1="497.55" x2="-164.09" y2="445.55" /><line x1="-164.09" y1="445.55" x2="-208" y2="412.42" />
<line x1="-208" y1="412.42" x2="-225.95" y2="464.42" /><line x1="-225.95" y1="464.42" x2="-182.04" y2="497.55" />
<line x1="-208" y1="412.42" x2="-224.05" y2="359.8" /><line x1="-224.05" y1="359.8" x2="-241.99" y2="411.8" />
<line x1="-241.99" y1="411.8" x2="-225.95" y2="464.42" /><line x1="-225.95" y1="464.42" x2="-208" y2="412.42" />
<line x1="-241.99" y1="411.8" x2="-296.99" y2="410.8" /><line x1="-182.04" y1="497.55" x2="-225.95" y2="464.42" />
<line x1="-225.95" y1="464.42" x2="-271.03" y2="495.94" /><line x1="-271.03" y1="495.94" x2="-227.12" y2="529.07" />
<line x1="-227.12" y1="529.07" x2="-182.04" y2="497.55" /><line x1="-271.03" y1="495.94" x2="-227.12" y2="529.07" />
<line x1="-227.12" y1="529.07" x2="-182.04" y2="497.55" /><line x1="-182.04" y1="497.55" x2="-136.96" y2="466.03" />
<line x1="-136.96" y1="466.03" x2="-81.96" y2="467.03" /><line x1="-81.96" y1="467.03" x2="-127.04" y2="498.55" />
<line x1="-136.96" y1="466.03" x2="-119.01" y2="414.04" /><line x1="-119.01" y1="414.04" x2="-164.09" y2="445.55" />
<line x1="-164.09" y1="445.55" x2="-182.04" y2="497.55" /><line x1="-182.04" y1="497.55" x2="-136.96" y2="466.03" />
<line x1="-164.09" y1="445.55" x2="-208" y2="412.42" /><line x1="-208" y1="412.42" x2="-164.09" y2="445.55" />
<line x1="-164.09" y1="445.55" x2="-182.04" y2="497.55" /><line x1="-182.04" y1="497.55" x2="-225.95" y2="464.42" />
<line x1="-225.95" y1="464.42" x2="-208" y2="412.42" /><line x1="-136.96" y1="466.03" x2="-119.01" y2="414.04" />
<line x1="-119.01" y1="414.04" x2="-64.01" y2="415.04" /><line x1="-64.01" y1="415.04" x2="-81.96" y2="467.03" />
<line x1="-81.96" y1="467.03" x2="-136.96" y2="466.03" /><line x1="-64.01" y1="415.04" x2="-81.96" y2="467.03" />
<line x1="-81.96" y1="467.03" x2="-38.05" y2="500.17" /><line x1="-38.05" y1="500.17" x2="-20.1" y2="448.17" />
<line x1="-20.1" y1="448.17" x2="-64.01" y2="415.04" /><line x1="-38.05" y1="500.17" x2="-22" y2="552.79" />
<line x1="-22" y1="552.79" x2="-4.06" y2="500.79" /><line x1="-4.06" y1="500.79" x2="-20.1" y2="448.17" />
<line x1="-20.1" y1="448.17" x2="-38.05" y2="500.17" /><line x1="-4.06" y1="500.79" x2="50.94" y2="501.79" />
<line x1="50.94" y1="501.79" x2="96.03" y2="470.27" /><line x1="96.03" y1="470.27" x2="139.94" y2="503.41" />
<line x1="139.94" y1="503.41" x2="94.85" y2="534.93" /><line x1="94.85" y1="534.93" x2="50.94" y2="501.79" />
<line x1="139.94" y1="503.41" x2="155.98" y2="556.03" /><line x1="155.98" y1="556.03" x2="210.98" y2="557.03" />
<line x1="210.98" y1="557.03" x2="194.94" y2="504.41" /><line x1="194.94" y1="504.41" x2="139.94" y2="503.41" />
<line x1="210.98" y1="557.03" x2="155.98" y2="556.03" /><line x1="155.98" y1="556.03" x2="138.03" y2="608.02" />
<line x1="138.03" y1="608.02" x2="120.09" y2="660.02" /><line x1="120.09" y1="660.02" x2="75" y2="691.54" />
<line x1="75" y1="691.54" x2="92.95" y2="639.54" /><line x1="139.94" y1="503.41" x2="194.94" y2="504.41" />
<line x1="194.94" y1="504.41" x2="212.88" y2="452.41" /><line x1="212.88" y1="452.41" x2="157.88" y2="451.41" />
<line x1="157.88" y1="451.41" x2="139.94" y2="503.41" /><line x1="212.88" y1="452.41" x2="194.94" y2="504.41" />
<line x1="194.94" y1="504.41" x2="240.02" y2="472.89" /><line x1="240.02" y1="472.89" x2="257.97" y2="420.89" />
<line x1="257.97" y1="420.89" x2="212.88" y2="452.41" /><line x1="240.02" y1="472.89" x2="283.93" y2="506.03" />
<line x1="283.93" y1="506.03" x2="238.84" y2="537.55" /><line x1="238.84" y1="537.55" x2="254.89" y2="590.16" />
<line x1="254.89" y1="590.16" x2="270.93" y2="642.78" /><line x1="270.93" y1="642.78" x2="252.99" y2="694.78" />
<line x1="252.99" y1="694.78" x2="236.94" y2="642.16" /><line x1="270.93" y1="642.78" x2="314.84" y2="675.92" />
<line x1="314.84" y1="675.92" x2="296.9" y2="727.92" /><line x1="296.9" y1="727.92" x2="252.99" y2="694.78" />
<line x1="252.99" y1="694.78" x2="270.93" y2="642.78" /><line x1="300" y1="200" x2="282.05" y2="252" />
<line x1="282.05" y1="252" x2="325.96" y2="285.14" /><line x1="325.96" y1="285.14" x2="343.91" y2="233.14" />
<line x1="343.91" y1="233.14" x2="300" y2="200" /><line x1="325.96" y1="285.14" x2="342.01" y2="337.75" />
<line x1="342.01" y1="337.75" x2="359.95" y2="285.75" /><line x1="359.95" y1="285.75" x2="343.91" y2="233.14" />
<line x1="343.91" y1="233.14" x2="325.96" y2="285.14" /><line x1="359.95" y1="285.75" x2="414.95" y2="286.75" />
<line x1="414.95" y1="286.75" x2="460.04" y2="255.24" /><line x1="460.04" y1="255.24" x2="503.94" y2="288.37" />
<line x1="503.94" y1="288.37" x2="458.86" y2="319.89" /><line x1="458.86" y1="319.89" x2="414.95" y2="286.75" />
<line x1="503.94" y1="288.37" x2="519.99" y2="340.99" /><line x1="519.99" y1="340.99" x2="574.99" y2="341.99" />
<line x1="574.99" y1="341.99" x2="558.94" y2="289.37" /><line x1="558.94" y1="289.37" x2="503.94" y2="288.37" />
<line x1="574.99" y1="341.99" x2="519.99" y2="340.99" /><line x1="519.99" y1="340.99" x2="502.04" y2="392.99" />
<line x1="502.04" y1="392.99" x2="484.1" y2="444.99" /><line x1="484.1" y1="444.99" x2="439.01" y2="476.51" />
<line x1="439.01" y1="476.51" x2="456.96" y2="424.51" /><line x1="503.94" y1="288.37" x2="460.04" y2="255.24" />
<line x1="460.04" y1="255.24" x2="414.95" y2="286.75" /><line x1="414.95" y1="286.75" x2="458.86" y2="319.89" />
<line x1="458.86" y1="319.89" x2="503.94" y2="288.37" /><line x1="414.95" y1="286.75" x2="460.04" y2="255.24" />
<line x1="460.04" y1="255.24" x2="405.04" y2="254.24" /><line x1="405.04" y1="254.24" x2="359.95" y2="285.75" />
<line x1="359.95" y1="285.75" x2="414.95" y2="286.75" /><line x1="405.04" y1="254.24" x2="388.99" y2="201.62" />
<line x1="388.99" y1="201.62" x2="443.99" y2="202.62" /><line x1="443.99" y1="202.62" x2="461.94" y2="150.62" />
<line x1="461.94" y1="150.62" x2="479.89" y2="98.62" /><line x1="479.89" y1="98.62" x2="524.97" y2="67.1" />
<line x1="524.97" y1="67.1" x2="507.02" y2="119.1" /><line x1="479.89" y1="98.62" x2="463.84" y2="46" />
<line x1="463.84" y1="46" x2="508.92" y2="14.48" /><line x1="508.92" y1="14.48" x2="524.97" y2="67.1" />
<line x1="524.97" y1="67.1" x2="479.89" y2="98.62" /><line x1="388.99" y1="201.62" x2="343.91" y2="233.14" />
<line x1="343.91" y1="233.14" x2="359.95" y2="285.75" /><line x1="359.95" y1="285.75" x2="376" y2="338.37" />
<line x1="376" y1="338.37" x2="358.05" y2="390.37" /><line x1="358.05" y1="390.37" x2="342.01" y2="337.75" />
<line x1="376" y1="338.37" x2="359.95" y2="285.75" /><line x1="359.95" y1="285.75" x2="405.04" y2="254.24" />
<line x1="405.04" y1="254.24" x2="421.08" y2="306.85" /><line x1="421.08" y1="306.85" x2="376" y2="338.37" />
<line x1="405.04" y1="254.24" x2="361.13" y2="221.1" /><line x1="361.13" y1="221.1" x2="316.04" y2="252.62" />
<line x1="316.04" y1="252.62" x2="359.95" y2="285.75" /><line x1="359.95" y1="285.75" x2="405.04" y2="254.24" />
<line x1="316.04" y1="252.62" x2="261.04" y2="251.62" /><line x1="261.04" y1="251.62" x2="304.95" y2="284.75" />
<line x1="304.95" y1="284.75" x2="359.95" y2="285.75" /><line x1="359.95" y1="285.75" x2="316.04" y2="252.62" />
<line x1="304.95" y1="284.75" x2="287.01" y2="336.75" /><line x1="405.04" y1="254.24" x2="460.04" y2="255.24" />
<line x1="460.04" y1="255.24" x2="477.98" y2="203.24" /><line x1="477.98" y1="203.24" x2="422.98" y2="202.24" />
<line x1="422.98" y1="202.24" x2="405.04" y2="254.24" /><line x1="477.98" y1="203.24" x2="422.98" y2="202.24" />
<line x1="422.98" y1="202.24" x2="405.04" y2="254.24" /><line x1="405.04" y1="254.24" x2="387.09" y2="306.23" />
<line x1="387.09" y1="306.23" x2="342.01" y2="337.75" /><line x1="342.01" y1="337.75" x2="359.95" y2="285.75" />
<line x1="387.09" y1="306.23" x2="403.13" y2="358.85" /><line x1="403.13" y1="358.85" x2="421.08" y2="306.85" />
<line x1="421.08" y1="306.85" x2="405.04" y2="254.24" /><line x1="405.04" y1="254.24" x2="387.09" y2="306.23" />
<line x1="421.08" y1="306.85" x2="476.08" y2="307.85" /><line x1="476.08" y1="307.85" x2="421.08" y2="306.85" />
<line x1="421.08" y1="306.85" x2="405.04" y2="254.24" /><line x1="405.04" y1="254.24" x2="460.04" y2="255.24" />
<line x1="460.04" y1="255.24" x2="476.08" y2="307.85" /><line x1="387.09" y1="306.23" x2="403.13" y2="358.85" />
<line x1="403.13" y1="358.85" x2="358.05" y2="390.37" /><line x1="358.05" y1="390.37" x2="342.01" y2="337.75" />
<line x1="342.01" y1="337.75" x2="387.09" y2="306.23" /><line x1="388.99" y1="201.62" x2="405.04" y2="254.24" />
<line x1="405.04" y1="254.24" x2="460.04" y2="255.24" /><line x1="460.04" y1="255.24" x2="515.04" y2="256.24" />
<line x1="515.04" y1="256.24" x2="558.94" y2="289.37" /><line x1="558.94" y1="289.37" x2="503.94" y2="288.37" />
<line x1="515.04" y1="256.24" x2="460.04" y2="255.24" /><line x1="460.04" y1="255.24" x2="443.99" y2="202.62" />
<line x1="443.99" y1="202.62" x2="498.99" y2="203.62" /><line x1="498.99" y1="203.62" x2="515.04" y2="256.24" />
<line x1="443.99" y1="202.62" x2="398.91" y2="234.14" /><line x1="398.91" y1="234.14" x2="414.95" y2="286.75" />
<line x1="414.95" y1="286.75" x2="460.04" y2="255.24" /><line x1="460.04" y1="255.24" x2="443.99" y2="202.62" />
<line x1="414.95" y1="286.75" x2="397.01" y2="338.75" /><line x1="397.01" y1="338.75" x2="442.09" y2="307.23" />
<line x1="442.09" y1="307.23" x2="460.04" y2="255.24" /><line x1="460.04" y1="255.24" x2="414.95" y2="286.75" />
<line x1="442.09" y1="307.23" x2="486" y2="340.37" /><line x1="443.99" y1="202.62" x2="398.91" y2="234.14" />
<line x1="398.91" y1="234.14" x2="414.95" y2="286.75" /><line x1="414.95" y1="286.75" x2="460.04" y2="255.24" />
<line x1="460.04" y1="255.24" x2="443.99" y2="202.62" /><line x1="414.95" y1="286.75" x2="397.01" y2="338.75" />
<line x1="397.01" y1="338.75" x2="442.09" y2="307.23" /><line x1="442.09" y1="307.23" x2="460.04" y2="255.24" />
<line x1="460.04" y1="255.24" x2="414.95" y2="286.75" /><line x1="442.09" y1="307.23" x2="486" y2="340.37" />
<line x1="486" y1="340.37" x2="541" y2="341.37" /><line x1="541" y1="341.37" x2="557.04" y2="393.99" />
<line x1="557.04" y1="393.99" x2="502.04" y2="392.99" /><line x1="502.04" y1="392.99" x2="486" y2="340.37" />
<line x1="557.04" y1="393.99" x2="539.1" y2="445.99" /><line x1="539.1" y1="445.99" x2="583" y2="479.12" />
<line x1="583" y1="479.12" x2="600.95" y2="427.13" /><line x1="600.95" y1="427.13" x2="557.04" y2="393.99" />
<line x1="583" y1="479.12" x2="539.1" y2="445.99" /><line x1="539.1" y1="445.99" x2="494.01" y2="477.51" />
<line x1="494.01" y1="477.51" x2="448.93" y2="509.03" /><line x1="448.93" y1="509.03" x2="393.93" y2="508.03" />
<line x1="393.93" y1="508.03" x2="439.01" y2="476.51" /><line x1="557.04" y1="393.99" x2="600.95" y2="427.13" />
<line x1="600.95" y1="427.13" x2="646.03" y2="395.61" /><line x1="646.03" y1="395.61" x2="602.13" y2="362.47" />
<line x1="602.13" y1="362.47" x2="557.04" y2="393.99" /><line x1="646.03" y1="395.61" x2="602.13" y2="362.47" />
<line x1="602.13" y1="362.47" x2="557.04" y2="393.99" /><line x1="557.04" y1="393.99" x2="511.96" y2="425.51" />
<line x1="511.96" y1="425.51" x2="456.96" y2="424.51" /><line x1="456.96" y1="424.51" x2="502.04" y2="392.99" />
<line x1="511.96" y1="425.51" x2="494.01" y2="477.51" /><line x1="494.01" y1="477.51" x2="539.1" y2="445.99" />
<line x1="539.1" y1="445.99" x2="557.04" y2="393.99" /><line x1="557.04" y1="393.99" x2="511.96" y2="425.51" />
<line x1="539.1" y1="445.99" x2="583" y2="479.12" /><line x1="583" y1="479.12" x2="539.1" y2="445.99" />
<line x1="539.1" y1="445.99" x2="557.04" y2="393.99" /><line x1="557.04" y1="393.99" x2="600.95" y2="427.13" />
<line x1="600.95" y1="427.13" x2="583" y2="479.12" /><line x1="511.96" y1="425.51" x2="494.01" y2="477.51" />
<line x1="494.01" y1="477.51" x2="439.01" y2="476.51" /><line x1="439.01" y1="476.51" x2="456.96" y2="424.51" />
<line x1="456.96" y1="424.51" x2="511.96" y2="425.51" /><line x1="439.01" y1="476.51" x2="494.01" y2="477.51" />
<line x1="494.01" y1="477.51" x2="511.96" y2="425.51" /><line x1="511.96" y1="425.51" x2="456.96" y2="424.51" />
<line x1="456.96" y1="424.51" x2="439.01" y2="476.51" /><line x1="511.96" y1="425.51" x2="494.01" y2="477.51" />
<line x1="494.01" y1="477.51" x2="539.1" y2="445.99" /><line x1="539.1" y1="445.99" x2="557.04" y2="393.99" />
<line x1="557.04" y1="393.99" x2="511.96" y2="425.51" /><line x1="539.1" y1="445.99" x2="583" y2="479.12" />
<line x1="583" y1="479.12" x2="537.92" y2="510.64" /><line x1="537.92" y1="510.64" x2="553.97" y2="563.26" />
<line x1="553.97" y1="563.26" x2="570.01" y2="615.88" /><line x1="570.01" y1="615.88" x2="552.06" y2="667.88" />
<line x1="552.06" y1="667.88" x2="536.02" y2="615.26" /><line x1="570.01" y1="615.88" x2="613.92" y2="649.02" />
<line x1="613.92" y1="649.02" x2="595.97" y2="701.01" /><line x1="595.97" y1="701.01" x2="552.06" y2="667.88" />
<line x1="552.06" y1="667.88" x2="570.01" y2="615.88" /><line x1="557.04" y1="393.99" x2="600.95" y2="427.13" />
<line x1="600.95" y1="427.13" x2="646.03" y2="395.61" /><line x1="646.03" y1="395.61" x2="602.13" y2="362.47" />
<line x1="602.13" y1="362.47" x2="557.04" y2="393.99" /><line x1="646.03" y1="395.61" x2="600.95" y2="427.13" />
<line x1="600.95" y1="427.13" x2="655.95" y2="428.13" /><line x1="655.95" y1="428.13" x2="701.03" y2="396.61" />
<line x1="701.03" y1="396.61" x2="646.03" y2="395.61" /><line x1="655.95" y1="428.13" x2="672" y2="480.74" />
<line x1="672" y1="480.74" x2="617" y2="479.74" /><line x1="617" y1="479.74" x2="599.05" y2="531.74" />
<line x1="599.05" y1="531.74" x2="581.1" y2="583.74" /><line x1="581.1" y1="583.74" x2="536.02" y2="615.26" />
<line x1="536.02" y1="615.26" x2="553.97" y2="563.26" /><line x1="581.1" y1="583.74" x2="597.15" y2="636.36" />
<line x1="597.15" y1="636.36" x2="552.06" y2="667.88" /><line x1="552.06" y1="667.88" x2="536.02" y2="615.26" />
<line x1="536.02" y1="615.26" x2="581.1" y2="583.74" /><line x1="672" y1="480.74" x2="617" y2="479.74" />
<line x1="617" y1="479.74" x2="599.05" y2="531.74" /><line x1="599.05" y1="531.74" x2="581.1" y2="583.74" />
<line x1="581.1" y1="583.74" x2="536.02" y2="615.26" /><line x1="536.02" y1="615.26" x2="553.97" y2="563.26" />
<line x1="581.1" y1="583.74" x2="599.05" y2="531.74" /><line x1="599.05" y1="531.74" x2="654.05" y2="532.74" />
<line x1="654.05" y1="532.74" x2="636.1" y2="584.74" /><line x1="636.1" y1="584.74" x2="581.1" y2="583.74" />
<line x1="654.05" y1="532.74" x2="638" y2="480.12" /><line x1="638" y1="480.12" x2="583" y2="479.12" />
<line x1="583" y1="479.12" x2="599.05" y2="531.74" /><line x1="599.05" y1="531.74" x2="654.05" y2="532.74" />
<line x1="583" y1="479.12" x2="539.1" y2="445.99" /><line x1="539.1" y1="445.99" x2="555.14" y2="498.6" />
<line x1="555.14" y1="498.6" x2="599.05" y2="531.74" /><line x1="599.05" y1="531.74" x2="583" y2="479.12" />
<line x1="555.14" y1="498.6" x2="510.06" y2="530.12" /><line x1="654.05" y1="532.74" x2="697.96" y2="565.88" />
<line x1="697.96" y1="565.88" x2="743.04" y2="534.36" /><line x1="743.04" y1="534.36" x2="699.13" y2="501.22" />
<line x1="699.13" y1="501.22" x2="654.05" y2="532.74" /><line x1="743.04" y1="534.36" x2="699.13" y2="501.22" />
<line x1="699.13" y1="501.22" x2="654.05" y2="532.74" /><line x1="654.05" y1="532.74" x2="608.97" y2="564.26" />
<line x1="608.97" y1="564.26" x2="553.97" y2="563.26" /><line x1="553.97" y1="563.26" x2="599.05" y2="531.74" />
<line x1="608.97" y1="564.26" x2="591.02" y2="616.26" /><line x1="591.02" y1="616.26" x2="636.1" y2="584.74" />
<line x1="636.1" y1="584.74" x2="654.05" y2="532.74" /><line x1="654.05" y1="532.74" x2="608.97" y2="564.26" />
<line x1="636.1" y1="584.74" x2="680.01" y2="617.88" /><line x1="680.01" y1="617.88" x2="636.1" y2="584.74" />
<line x1="636.1" y1="584.74" x2="654.05" y2="532.74" /><line x1="654.05" y1="532.74" x2="697.96" y2="565.88" />
<line x1="697.96" y1="565.88" x2="680.01" y2="617.88" /><line x1="608.97" y1="564.26" x2="591.02" y2="616.26" />
<line x1="591.02" y1="616.26" x2="536.02" y2="615.26" /><line x1="536.02" y1="615.26" x2="553.97" y2="563.26" />
<line x1="553.97" y1="563.26" x2="608.97" y2="564.26" /><line x1="536.02" y1="615.26" x2="490.93" y2="646.78" />
<line x1="490.93" y1="646.78" x2="506.98" y2="699.4" /><line x1="506.98" y1="699.4" x2="552.06" y2="667.88" />
<line x1="552.06" y1="667.88" x2="536.02" y2="615.26" /><line x1="506.98" y1="699.4" x2="490.93" y2="646.78" />
<line x1="490.93" y1="646.78" x2="472.99" y2="698.78" /><line x1="472.99" y1="698.78" x2="489.03" y2="751.4" />
<line x1="489.03" y1="751.4" x2="506.98" y2="699.4" /><line x1="472.99" y1="698.78" x2="417.99" y2="697.78" />
<line x1="417.99" y1="697.78" x2="435.93" y2="645.78" /><line x1="435.93" y1="645.78" x2="392.03" y2="612.64" />
<line x1="392.03" y1="612.64" x2="348.12" y2="579.51" /><line x1="348.12" y1="579.51" x2="332.07" y2="526.89" />
<line x1="332.07" y1="526.89" x2="375.98" y2="560.03" /><line x1="348.12" y1="579.51" x2="293.12" y2="578.51" />
<line x1="293.12" y1="578.51" x2="277.07" y2="525.89" /><line x1="277.07" y1="525.89" x2="332.07" y2="526.89" />
<line x1="332.07" y1="526.89" x2="348.12" y2="579.51" /><line x1="417.99" y1="697.78" x2="374.08" y2="664.64" />
<line x1="374.08" y1="664.64" x2="329" y2="696.16" /><line x1="329" y1="696.16" x2="283.91" y2="727.68" />
<line x1="283.91" y1="727.68" x2="228.91" y2="726.68" /><line x1="228.91" y1="726.68" x2="274" y2="695.16" />
<line x1="283.91" y1="727.68" x2="329" y2="696.16" /><line x1="329" y1="696.16" x2="372.9" y2="729.3" />
<line x1="372.9" y1="729.3" x2="327.82" y2="760.82" /><line x1="327.82" y1="760.82" x2="283.91" y2="727.68" />
<line x1="372.9" y1="729.3" x2="390.85" y2="677.3" /><line x1="390.85" y1="677.3" x2="346.94" y2="644.16" />
<line x1="346.94" y1="644.16" x2="329" y2="696.16" /><line x1="329" y1="696.16" x2="372.9" y2="729.3" />
<line x1="346.94" y1="644.16" x2="330.9" y2="591.54" /><line x1="330.9" y1="591.54" x2="312.95" y2="643.54" />
<line x1="312.95" y1="643.54" x2="329" y2="696.16" /><line x1="329" y1="696.16" x2="346.94" y2="644.16" />
<line x1="312.95" y1="643.54" x2="257.95" y2="642.54" /><line x1="372.9" y1="729.3" x2="329" y2="696.16" />
<line x1="329" y1="696.16" x2="283.91" y2="727.68" /><line x1="283.91" y1="727.68" x2="327.82" y2="760.82" />
<line x1="327.82" y1="760.82" x2="372.9" y2="729.3" /><line x1="283.91" y1="727.68" x2="228.91" y2="726.68" />
<line x1="228.91" y1="726.68" x2="272.82" y2="759.82" /><line x1="272.82" y1="759.82" x2="327.82" y2="760.82" />
<line x1="327.82" y1="760.82" x2="283.91" y2="727.68" /><line x1="272.82" y1="759.82" x2="254.87" y2="811.82" />
<line x1="254.87" y1="811.82" x2="270.92" y2="864.43" /><line x1="270.92" y1="864.43" x2="225.83" y2="895.95" />
<line x1="225.83" y1="895.95" x2="209.79" y2="843.34" /><line x1="209.79" y1="843.34" x2="254.87" y2="811.82" />
<line x1="225.83" y1="895.95" x2="170.83" y2="894.95" /><line x1="170.83" y1="894.95" x2="152.89" y2="946.95" />
<line x1="152.89" y1="946.95" x2="207.89" y2="947.95" /><line x1="207.89" y1="947.95" x2="225.83" y2="895.95" />
<line x1="152.89" y1="946.95" x2="170.83" y2="894.95" /><line x1="170.83" y1="894.95" x2="126.93" y2="861.82" />
<line x1="126.93" y1="861.82" x2="83.02" y2="828.68" /><line x1="83.02" y1="828.68" x2="66.97" y2="776.06" />
<line x1="66.97" y1="776.06" x2="110.88" y2="809.2" /><line x1="417.99" y1="697.78" x2="372.9" y2="729.3" />
<line x1="372.9" y1="729.3" x2="388.95" y2="781.91" /><line x1="388.95" y1="781.91" x2="404.99" y2="834.53" />
<line x1="404.99" y1="834.53" x2="387.05" y2="886.53" /><line x1="387.05" y1="886.53" x2="371" y2="833.91" />
<line x1="404.99" y1="834.53" x2="388.95" y2="781.91" /><line x1="388.95" y1="781.91" x2="434.03" y2="750.4" />
<line x1="434.03" y1="750.4" x2="450.08" y2="803.01" /><line x1="450.08" y1="803.01" x2="404.99" y2="834.53" />
<line x1="434.03" y1="750.4" x2="390.12" y2="717.26" /><line x1="390.12" y1="717.26" x2="345.04" y2="748.78" />
<line x1="345.04" y1="748.78" x2="388.95" y2="781.91" /><line x1="388.95" y1="781.91" x2="434.03" y2="750.4" />
<line x1="345.04" y1="748.78" x2="290.04" y2="747.78" /><line x1="290.04" y1="747.78" x2="333.95" y2="780.91" />
<line x1="333.95" y1="780.91" x2="388.95" y2="781.91" /><line x1="388.95" y1="781.91" x2="345.04" y2="748.78" />
<line x1="333.95" y1="780.91" x2="316" y2="832.91" /><line x1="434.03" y1="750.4" x2="388.95" y2="781.91" />
<line x1="388.95" y1="781.91" x2="404.99" y2="834.53" /><line x1="404.99" y1="834.53" x2="450.08" y2="803.01" />
<line x1="450.08" y1="803.01" x2="434.03" y2="750.4" /><line x1="404.99" y1="834.53" x2="450.08" y2="803.01" />
<line x1="450.08" y1="803.01" x2="434.03" y2="750.4" /><line x1="434.03" y1="750.4" x2="417.99" y2="697.78" />
<line x1="417.99" y1="697.78" x2="435.93" y2="645.78" /><line x1="435.93" y1="645.78" x2="451.98" y2="698.4" />
<line x1="417.99" y1="697.78" x2="374.08" y2="664.64" /><line x1="374.08" y1="664.64" x2="390.12" y2="717.26" />
<line x1="390.12" y1="717.26" x2="434.03" y2="750.4" /><line x1="434.03" y1="750.4" x2="417.99" y2="697.78" />
<line x1="390.12" y1="717.26" x2="345.04" y2="748.78" /><line x1="345.04" y1="748.78" x2="390.12" y2="717.26" />
<line x1="390.12" y1="717.26" x2="434.03" y2="750.4" /><line x1="434.03" y1="750.4" x2="388.95" y2="781.91" />
<line x1="388.95" y1="781.91" x2="345.04" y2="748.78" /><line x1="417.99" y1="697.78" x2="374.08" y2="664.64" />
<line x1="374.08" y1="664.64" x2="392.03" y2="612.64" /><line x1="392.03" y1="612.64" x2="435.93" y2="645.78" />
<line x1="435.93" y1="645.78" x2="417.99" y2="697.78" /><line x1="392.03" y1="612.64" x2="435.93" y2="645.78" />
<line x1="435.93" y1="645.78" x2="481.02" y2="614.26" /><line x1="481.02" y1="614.26" x2="437.11" y2="581.12" />
<line x1="437.11" y1="581.12" x2="392.03" y2="612.64" /><line x1="481.02" y1="614.26" x2="536.02" y2="615.26" />
<line x1="536.02" y1="615.26" x2="492.11" y2="582.12" /><line x1="492.11" y1="582.12" x2="437.11" y2="581.12" />
<line x1="437.11" y1="581.12" x2="481.02" y2="614.26" /><line x1="492.11" y1="582.12" x2="510.06" y2="530.12" />
<line x1="510.06" y1="530.12" x2="494.01" y2="477.51" /><line x1="494.01" y1="477.51" x2="539.1" y2="445.99" />
<line x1="539.1" y1="445.99" x2="555.14" y2="498.6" /><line x1="555.14" y1="498.6" x2="510.06" y2="530.12" />
<line x1="539.1" y1="445.99" x2="594.1" y2="446.99" /><line x1="594.1" y1="446.99" x2="612.04" y2="394.99" />
<line x1="612.04" y1="394.99" x2="557.04" y2="393.99" /><line x1="557.04" y1="393.99" x2="539.1" y2="445.99" />
<line x1="612.04" y1="394.99" x2="594.1" y2="446.99" /><line x1="594.1" y1="446.99" x2="638" y2="480.12" />
<line x1="638" y1="480.12" x2="681.91" y2="513.26" /><line x1="681.91" y1="513.26" x2="697.96" y2="565.88" />
<line x1="697.96" y1="565.88" x2="654.05" y2="532.74" /><line x1="539.1" y1="445.99" x2="557.04" y2="393.99" />
<line x1="557.04" y1="393.99" x2="513.13" y2="360.85" /><line x1="513.13" y1="360.85" x2="495.19" y2="412.85" />
<line x1="495.19" y1="412.85" x2="539.1" y2="445.99" /><line x1="513.13" y1="360.85" x2="557.04" y2="393.99" />
<line x1="557.04" y1="393.99" x2="541" y2="341.37" /><line x1="541" y1="341.37" x2="497.09" y2="308.23" />
<line x1="497.09" y1="308.23" x2="513.13" y2="360.85" /><line x1="541" y1="341.37" x2="586.08" y2="309.85" />
<line x1="586.08" y1="309.85" x2="602.13" y2="362.47" /><line x1="602.13" y1="362.47" x2="657.13" y2="363.47" />
<line x1="657.13" y1="363.47" x2="712.13" y2="364.47" /><line x1="712.13" y1="364.47" x2="756.03" y2="397.61" />
<line x1="756.03" y1="397.61" x2="701.03" y2="396.61" /><line x1="712.13" y1="364.47" x2="757.21" y2="332.95" />
<line x1="757.21" y1="332.95" x2="801.12" y2="366.09" /><line x1="801.12" y1="366.09" x2="756.03" y2="397.61" />
<line x1="756.03" y1="397.61" x2="712.13" y2="364.47" /></svg>

