<svg xmlns="http://www.w3.org/2000/svg" xmlns:svg="http://www.w3.org/2000/svg" xmlns:xlink="http://www.w3.org/1999/xlink" width="600" height="400" style="stroke:rgb(250,12,210)"><rect width="100%" height="100%" fill="black" /><line x1="300" y1="200" x2="344.5" y2="232.33" />
<line x1="344.5" y1="232.33" x2="388.99" y2="200" /><line x1="388.99" y1="200" x2="344.5" y2="167.67" />
<line x1="344.5" y1="167.67" x2="300" y2="200" /><line x1="388.99" y1="200" x2="443.99" y2="200" />
<line x1="443.99" y1="200" x2="399.5" y2="167.67" /><line x1="399.5" y1="167.67" x2="344.5" y2="167.67" />
<line x1="344.5" y1="167.67" x2="388.99" y2="200" /><line x1="399.5" y1="167.67" x2="416.49" y2="115.36" />
<line x1="416.49" y1="115.36" x2="460.99" y2="147.69" /><line x1="460.99" y1="147.69" x2="443.99" y2="200" />
<line x1="443.99" y1="200" x2="399.5" y2="167.67" /><line x1="399.5" y1="167.67" x2="416.49" y2="115.36" />
<line x1="443.99" y1="200" x2="399.5" y2="232.33" /><line x1="399.5" y1="232.33" x2="416.49" y2="284.64" />
<line x1="416.49" y1="284.64" x2="460.99" y2="252.31" /><line x1="460.99" y1="252.31" x2="443.99" y2="200" />
<line x1="416.49" y1="284.64" x2="399.5" y2="232.33" /><line x1="399.5" y1="232.33" x2="344.5" y2="232.33" />
<line x1="344.5" y1="232.33" x2="388.99" y2="200" /><line x1="388.99" y1="200" x2="443.99" y2="200" />
<line x1="443.99" y1="200" x2="399.5" y2="232.33" /><line x1="443.99" y1="200" x2="460.99" y2="147.69" />
<line x1="460.99" y1="147.69" x2="416.49" y2="115.36" /><line x1="416.49" y1="115.36" x2="399.5" y2="167.67" />
<line x1="399.5" y1="167.67" x2="443.99" y2="200" /><line x1="416.49" y1="115.36" x2="460.99" y2="147.69" />
<line x1="460.99" y1="147.69" x2="443.99" y2="95.38" /><line x1="443.99" y1="95.38" x2="399.5" y2="63.06" />
<line x1="399.5" y1="63.06" x2="416.49" y2="115.36" /><line x1="443.99" y1="95.38" x2="488.49" y2="63.06" />
<line x1="488.49" y1="63.06" x2="505.48" y2="115.36" /><line x1="505.48" y1="115.36" x2="560.48" y2="115.36" />
<line x1="560.48" y1="115.36" x2="515.99" y2="147.69" /><line x1="515.99" y1="147.69" x2="460.99" y2="147.69" />
<line x1="460.99" y1="147.69" x2="505.48" y2="115.36" /><line x1="515.99" y1="147.69" x2="498.99" y2="200" />
<line x1="498.99" y1="200" x2="443.99" y2="200" /><line x1="443.99" y1="200" x2="460.99" y2="147.69" />
<line x1="460.99" y1="147.69" x2="515.99" y2="147.69" /><line x1="488.49" y1="63.06" x2="443.99" y2="30.73" />
<line x1="443.99" y1="30.73" x2="399.5" y2="63.06" /><line x1="399.5" y1="63.06" x2="416.49" y2="10.75" />
<line x1="416.49" y1="10.75" x2="460.99" y2="-21.58" /><line x1="460.99" y1="-21.58" x2="443.99" y2="30.73" />
<line x1="416.49" y1="10.75" x2="399.5" y2="63.06" /><line x1="399.5" y1="63.06" x2="344.5" y2="63.06" />
<line x1="344.5" y1="63.06" x2="361.49" y2="10.75" /><line x1="361.49" y1="10.75" x2="416.49" y2="10.75" />
<line x1="344.5" y1="63.06" x2="361.49" y2="115.36" /><line x1="361.49" y1="115.36" x2="416.49" y2="115.36" />
<line x1="416.49" y1="115.36" x2="399.5" y2="63.06" /><line x1="399.5" y1="63.06" x2="344.5" y2="63.06" />
<line x1="416.49" y1="115.36" x2="460.99" y2="147.69" /><line x1="460.99" y1="147.69" x2="443.99" y2="95.38" />
<line x1="443.99" y1="95.38" x2="399.5" y2="63.06" /><line x1="399.5" y1="63.06" x2="416.49" y2="115.36" />
<line x1="443.99" y1="95.38" x2="488.49" y2="63.06" /><line x1="344.5" y1="63.06" x2="300" y2="30.73" />
<line x1="300" y1="30.73" x2="255.5" y2="63.06" /><line x1="255.5" y1="63.06" x2="300" y2="95.38" />
<line x1="300" y1="95.38" x2="344.5" y2="63.06" /><line x1="255.5" y1="63.06" x2="300" y2="95.38" />
<line x1="300" y1="95.38" x2="344.5" y2="63.06" /><line x1="344.5" y1="63.06" x2="327.5" y2="115.36" />
<line x1="327.5" y1="115.36" x2="283" y2="147.69" /><line x1="283" y1="147.69" x2="300" y2="95.38" />
<line x1="327.5" y1="115.36" x2="344.5" y2="167.67" /><line x1="344.5" y1="167.67" x2="361.49" y2="115.36" />
<line x1="361.49" y1="115.36" x2="344.5" y2="63.06" /><line x1="344.5" y1="63.06" x2="327.5" y2="115.36" />
<line x1="361.49" y1="115.36" x2="416.49" y2="115.36" /><line x1="416.49" y1="115.36" x2="361.49" y2="115.36" />
<line x1="361.49" y1="115.36" x2="344.5" y2="63.06" /><line x1="344.5" y1="63.06" x2="399.5" y2="63.06" />
<line x1="399.5" y1="63.06" x2="416.49" y2="115.36" /><line x1="327.5" y1="115.36" x2="344.5" y2="167.67" />
<line x1="344.5" y1="167.67" x2="300" y2="200" /><line x1="300" y1="200" x2="283" y2="147.69" />
<line x1="283" y1="147.69" x2="327.5" y2="115.36" /><line x1="488.49" y1="63.06" x2="443.99" y2="95.38" />
<line x1="443.99" y1="95.38" x2="460.99" y2="147.69" /><line x1="460.99" y1="147.69" x2="416.49" y2="115.36" />
<line x1="416.49" y1="115.36" x2="399.5" y2="63.06" /><line x1="399.5" y1="63.06" x2="443.99" y2="95.38" />
<line x1="416.49" y1="115.36" x2="460.99" y2="147.69" /><line x1="460.99" y1="147.69" x2="443.99" y2="200" />
<line x1="443.99" y1="200" x2="399.5" y2="167.67" /><line x1="399.5" y1="167.67" x2="416.49" y2="115.36" />
<line x1="443.99" y1="200" x2="498.99" y2="200" /><line x1="498.99" y1="200" x2="515.99" y2="147.69" />
<line x1="515.99" y1="147.69" x2="460.99" y2="147.69" /><line x1="460.99" y1="147.69" x2="443.99" y2="200" />
<line x1="515.99" y1="147.69" x2="560.48" y2="115.36" /><line x1="560.48" y1="115.36" x2="505.48" y2="115.36" />
<line x1="505.48" y1="115.36" x2="460.99" y2="147.69" /><line x1="460.99" y1="147.69" x2="515.99" y2="147.69" />
<line x1="505.48" y1="115.36" x2="488.49" y2="63.06" /><line x1="443.99" y1="200" x2="498.99" y2="200" />
<line x1="498.99" y1="200" x2="515.99" y2="147.69" /><line x1="515.99" y1="147.69" x2="460.99" y2="147.69" />
<line x1="460.99" y1="147.69" x2="443.99" y2="200" /><line x1="515.99" y1="147.69" x2="560.48" y2="115.36" />
<line x1="560.48" y1="115.36" x2="505.48" y2="115.36" /><line x1="505.48" y1="115.36" x2="460.99" y2="147.69" />
<line x1="460.99" y1="147.69" x2="515.99" y2="147.69" /><line x1="505.48" y1="115.36" x2="488.49" y2="63.06" />
<line x1="488.49" y1="63.06" x2="543.49" y2="63.06" /><line x1="543.49" y1="63.06" x2="560.48" y2="115.36" />
<line x1="560.48" y1="115.36" x2="505.48" y2="115.36" /><line x1="505.48" y1="115.36" x2="488.49" y2="63.06" />
<line x1="560.48" y1="115.36" x2="543.49" y2="167.67" /><line x1="543.49" y1="167.67" x2="587.98" y2="200" />
<line x1="587.98" y1="200" x2="604.98" y2="147.69" /><line x1="604.98" y1="147.69" x2="560.48" y2="115.36" />
<line x1="587.98" y1="200" x2="543.49" y2="167.67" /><line x1="543.49" y1="167.67" x2="498.99" y2="200" />
<line x1="498.99" y1="200" x2="515.99" y2="147.69" /><line x1="515.99" y1="147.69" x2="560.48" y2="115.36" />
<line x1="560.48" y1="115.36" x2="543.49" y2="167.67" /><line x1="560.48" y1="115.36" x2="604.98" y2="147.69" />
<line x1="604.98" y1="147.69" x2="649.48" y2="115.36" /><line x1="649.48" y1="115.36" x2="604.98" y2="83.04" />
<line x1="604.98" y1="83.04" x2="560.48" y2="115.36" /><line x1="649.48" y1="115.36" x2="604.98" y2="83.04" />
<line x1="604.98" y1="83.04" x2="560.48" y2="115.36" /><line x1="560.48" y1="115.36" x2="577.48" y2="63.06" />
<line x1="577.48" y1="63.06" x2="621.98" y2="30.73" /><line x1="621.98" y1="30.73" x2="604.98" y2="83.04" />
<line x1="577.48" y1="63.06" x2="560.48" y2="10.75" /><line x1="560.48" y1="10.75" x2="543.49" y2="63.06" />
<line x1="543.49" y1="63.06" x2="560.48" y2="115.36" /><line x1="560.48" y1="115.36" x2="577.48" y2="63.06" />
<line x1="543.49" y1="63.06" x2="488.49" y2="63.06" /><line x1="488.49" y1="63.06" x2="543.49" y2="63.06" />
<line x1="543.49" y1="63.06" x2="560.48" y2="115.36" /><line x1="560.48" y1="115.36" x2="505.48" y2="115.36" />
<line x1="505.48" y1="115.36" x2="488.49" y2="63.06" /><line x1="577.48" y1="63.06" x2="560.48" y2="10.75" />
<line x1="560.48" y1="10.75" x2="604.98" y2="-21.58" /><line x1="604.98" y1="-21.58" x2="621.98" y2="30.73" />
<line x1="621.98" y1="30.73" x2="577.48" y2="63.06" /><line x1="604.98" y1="-21.58" x2="560.48" y2="10.75" />
<line x1="560.48" y1="10.75" x2="577.48" y2="63.06" /><line x1="577.48" y1="63.06" x2="621.98" y2="30.73" />
<line x1="621.98" y1="30.73" x2="604.98" y2="-21.58" /><line x1="577.48" y1="63.06" x2="560.48" y2="10.75" />
<line x1="560.48" y1="10.75" x2="543.49" y2="63.06" /><line x1="543.49" y1="63.06" x2="560.48" y2="115.36" />
<line x1="560.48" y1="115.36" x2="577.48" y2="63.06" /><line x1="543.49" y1="63.06" x2="488.49" y2="63.06" />
<line x1="488.49" y1="63.06" x2="505.48" y2="10.75" /><line x1="505.48" y1="10.75" x2="460.99" y2="-21.58" />
<line x1="460.99" y1="-21.58" x2="515.99" y2="-21.58" /><line x1="515.99" y1="-21.58" x2="560.48" y2="10.75" />
<line x1="560.48" y1="10.75" x2="505.48" y2="10.75" /><line x1="515.99" y1="-21.58" x2="560.48" y2="-53.91" />
<line x1="560.48" y1="-53.91" x2="604.98" y2="-21.58" /><line x1="604.98" y1="-21.58" x2="560.48" y2="10.75" />
<line x1="560.48" y1="10.75" x2="515.99" y2="-21.58" /><line x1="560.48" y1="115.36" x2="604.98" y2="147.69" />
<line x1="604.98" y1="147.69" x2="649.48" y2="115.36" /><line x1="649.48" y1="115.36" x2="604.98" y2="83.04" />
<line x1="604.98" y1="83.04" x2="560.48" y2="115.36" /><line x1="649.48" y1="115.36" x2="604.98" y2="147.69" />
<line x1="604.98" y1="147.69" x2="659.98" y2="147.69" /><line x1="659.98" y1="147.69" x2="704.48" y2="115.36" />
<line x1="704.48" y1="115.36" x2="649.48" y2="115.36" /><line x1="659.98" y1="147.69" x2="676.98" y2="200" />
<line x1="676.98" y1="200" x2="621.98" y2="200" /><line x1="621.98" y1="200" x2="604.98" y2="252.31" />
<line x1="604.98" y1="252.31" x2="587.98" y2="200" /><line x1="587.98" y1="200" x2="604.98" y2="147.69" />
<line x1="604.98" y1="147.69" x2="621.98" y2="200" /><line x1="587.98" y1="200" x2="543.49" y2="167.67" />
<line x1="543.49" y1="167.67" x2="560.48" y2="115.36" /><line x1="560.48" y1="115.36" x2="604.98" y2="147.69" />
<line x1="604.98" y1="147.69" x2="587.98" y2="200" /><line x1="676.98" y1="200" x2="621.98" y2="200" />
<line x1="621.98" y1="200" x2="604.98" y2="252.31" /><line x1="604.98" y1="252.31" x2="587.98" y2="200" />
<line x1="587.98" y1="200" x2="604.98" y2="147.69" /><line x1="604.98" y1="147.69" x2="621.98" y2="200" />
<line x1="587.98" y1="200" x2="604.98" y2="252.31" /><line x1="604.98" y1="252.31" x2="560.48" y2="284.64" />
<line x1="560.48" y1="284.64" x2="543.49" y2="232.33" /><line x1="543.49" y1="232.33" x2="587.98" y2="200" />
<line x1="560.48" y1="284.64" x2="604.98" y2="316.96" /><line x1="604.98" y1="316.96" x2="649.48" y2="284.64" />
<line x1="649.48" y1="284.64" x2="604.98" y2="252.31" /><line x1="604.98" y1="252.31" x2="560.48" y2="284.64" />
<line x1="649.48" y1="284.64" x2="704.48" y2="284.64" /><line x1="704.48" y1="284.64" x2="659.98" y2="252.31" />
<line x1="659.98" y1="252.31" x2="604.98" y2="252.31" /><line x1="604.98" y1="252.31" x2="649.48" y2="284.64" />
<line x1="659.98" y1="252.31" x2="676.98" y2="200" /><line x1="560.48" y1="284.64" x2="505.48" y2="284.64" />
<line x1="505.48" y1="284.64" x2="488.49" y2="336.94" /><line x1="488.49" y1="336.94" x2="543.49" y2="336.94" />
<line x1="543.49" y1="336.94" x2="560.48" y2="284.64" /><line x1="488.49" y1="336.94" x2="543.49" y2="336.94" />
<line x1="543.49" y1="336.94" x2="560.48" y2="284.64" /><line x1="560.48" y1="284.64" x2="577.48" y2="336.94" />
<line x1="577.48" y1="336.94" x2="560.48" y2="389.25" /><line x1="560.48" y1="389.25" x2="543.49" y2="336.94" />
<line x1="577.48" y1="336.94" x2="621.98" y2="369.27" /><line x1="621.98" y1="369.27" x2="604.98" y2="316.96" />
<line x1="604.98" y1="316.96" x2="560.48" y2="284.64" /><line x1="560.48" y1="284.64" x2="577.48" y2="336.94" />
<line x1="604.98" y1="316.96" x2="649.48" y2="284.64" /><line x1="649.48" y1="284.64" x2="604.98" y2="316.96" />
<line x1="604.98" y1="316.96" x2="560.48" y2="284.64" /><line x1="560.48" y1="284.64" x2="604.98" y2="252.31" />
<line x1="604.98" y1="252.31" x2="649.48" y2="284.64" /><line x1="577.48" y1="336.94" x2="621.98" y2="369.27" />
<line x1="621.98" y1="369.27" x2="604.98" y2="421.58" /><line x1="604.98" y1="421.58" x2="560.48" y2="389.25" />
<line x1="560.48" y1="389.25" x2="577.48" y2="336.94" /><line x1="604.98" y1="421.58" x2="560.48" y2="389.25" />
<line x1="560.48" y1="389.25" x2="515.99" y2="421.58" /><line x1="515.99" y1="421.58" x2="560.48" y2="453.91" />
<line x1="560.48" y1="453.91" x2="604.98" y2="421.58" /><line x1="515.99" y1="421.58" x2="560.48" y2="389.25" />
<line x1="560.48" y1="389.25" x2="505.48" y2="389.25" /><line x1="505.48" y1="389.25" x2="460.99" y2="421.58" />
<line x1="460.99" y1="421.58" x2="515.99" y2="421.58" /><line x1="505.48" y1="389.25" x2="488.49" y2="336.94" />
<line x1="488.49" y1="336.94" x2="543.49" y2="336.94" /><line x1="543.49" y1="336.94" x2="560.48" y2="284.64" />
<line x1="560.48" y1="284.64" x2="577.48" y2="336.94" /><line x1="577.48" y1="336.94" x2="560.48" y2="389.25" />
<line x1="560.48" y1="389.25" x2="543.49" y2="336.94" /><line x1="577.48" y1="336.94" x2="621.98" y2="369.27" />
<line x1="621.98" y1="369.27" x2="604.98" y2="421.58" /><line x1="604.98" y1="421.58" x2="560.48" y2="389.25" />
<line x1="560.48" y1="389.25" x2="577.48" y2="336.94" /><line x1="488.49" y1="336.94" x2="505.48" y2="284.64" />
<line x1="505.48" y1="284.64" x2="460.99" y2="252.31" /><line x1="460.99" y1="252.31" x2="515.99" y2="252.31" />
<line x1="515.99" y1="252.31" x2="560.48" y2="284.64" /><line x1="560.48" y1="284.64" x2="505.48" y2="284.64" />
<line x1="515.99" y1="252.31" x2="460.99" y2="252.31" /><line x1="460.99" y1="252.31" x2="443.99" y2="200" />
<line x1="443.99" y1="200" x2="498.99" y2="200" /><line x1="498.99" y1="200" x2="515.99" y2="252.31" />
<line x1="443.99" y1="200" x2="399.5" y2="232.33" /><line x1="399.5" y1="232.33" x2="416.49" y2="284.64" />
<line x1="416.49" y1="284.64" x2="460.99" y2="252.31" /><line x1="460.99" y1="252.31" x2="443.99" y2="200" />
<line x1="416.49" y1="284.64" x2="399.5" y2="336.94" /><line x1="399.5" y1="336.94" x2="443.99" y2="304.62" />
<line x1="443.99" y1="304.62" x2="460.99" y2="252.31" /><line x1="460.99" y1="252.31" x2="416.49" y2="284.64" />
<line x1="443.99" y1="304.62" x2="488.49" y2="336.94" /><line x1="443.99" y1="200" x2="460.99" y2="252.31" />
<line x1="460.99" y1="252.31" x2="515.99" y2="252.31" /><line x1="515.99" y1="252.31" x2="498.99" y2="200" />
<line x1="498.99" y1="200" x2="443.99" y2="200" /><line x1="515.99" y1="252.31" x2="560.48" y2="284.64" />
<line x1="560.48" y1="284.64" x2="543.49" y2="232.33" /><line x1="543.49" y1="232.33" x2="498.99" y2="200" />
<line x1="498.99" y1="200" x2="515.99" y2="252.31" /><line x1="543.49" y1="232.33" x2="587.98" y2="200" />
<line x1="587.98" y1="200" x2="604.98" y2="252.31" /><line x1="604.98" y1="252.31" x2="560.48" y2="284.64" />
<line x1="560.48" y1="284.64" x2="543.49" y2="232.33" /><line x1="543.49" y1="232.33" x2="587.98" y2="200" />
<line x1="560.48" y1="284.64" x2="505.48" y2="284.64" /><line x1="505.48" y1="284.64" x2="488.49" y2="336.94" />
<line x1="488.49" y1="336.94" x2="543.49" y2="336.94" /><line x1="543.49" y1="336.94" x2="560.48" y2="284.64" />
<line x1="488.49" y1="336.94" x2="505.48" y2="284.64" /><line x1="505.48" y1="284.64" x2="460.99" y2="252.31" />
<line x1="460.99" y1="252.31" x2="515.99" y2="252.31" /><line x1="515.99" y1="252.31" x2="560.48" y2="284.64" />
<line x1="560.48" y1="284.64" x2="505.48" y2="284.64" /><line x1="488.49" y1="336.94" x2="443.99" y2="304.62" />
<line x1="443.99" y1="304.62" x2="399.5" y2="336.94" /><line x1="399.5" y1="336.94" x2="416.49" y2="284.64" />
<line x1="416.49" y1="284.64" x2="460.99" y2="252.31" /><line x1="460.99" y1="252.31" x2="443.99" y2="304.62" />
<line x1="416.49" y1="284.64" x2="399.5" y2="336.94" /><line x1="399.5" y1="336.94" x2="344.5" y2="336.94" />
<line x1="344.5" y1="336.94" x2="361.49" y2="284.64" /><line x1="361.49" y1="284.64" x2="416.49" y2="284.64" />
<line x1="344.5" y1="336.94" x2="361.49" y2="389.25" /><line x1="361.49" y1="389.25" x2="416.49" y2="389.25" />
<line x1="416.49" y1="389.25" x2="399.5" y2="336.94" /><line x1="399.5" y1="336.94" x2="344.5" y2="336.94" />
<line x1="416.49" y1="389.25" x2="460.99" y2="421.58" /><line x1="460.99" y1="421.58" x2="443.99" y2="369.27" />
<line x1="443.99" y1="369.27" x2="399.5" y2="336.94" /><line x1="399.5" y1="336.94" x2="416.49" y2="389.25" />
<line x1="443.99" y1="369.27" x2="488.49" y2="336.94" /><line x1="344.5" y1="336.94" x2="399.5" y2="336.94" />
<line x1="399.5" y1="336.94" x2="416.49" y2="284.64" /><line x1="416.49" y1="284.64" x2="361.49" y2="284.64" />
<line x1="361.49" y1="284.64" x2="344.5" y2="336.94" /><line x1="416.49" y1="284.64" x2="361.49" y2="284.64" />
<line x1="361.49" y1="284.64" x2="344.5" y2="336.94" /><line x1="344.5" y1="336.94" x2="327.5" y2="284.64" />
<line x1="327.5" y1="284.64" x2="344.5" y2="232.33" /><line x1="344.5" y1="232.33" x2="361.49" y2="284.64" />
<line x1="327.5" y1="284.64" x2="283" y2="252.31" /><line x1="283" y1="252.31" x2="300" y2="304.62" />
<line x1="300" y1="304.62" x2="344.5" y2="336.94" /><line x1="344.5" y1="336.94" x2="327.5" y2="284.64" />
<line x1="300" y1="304.62" x2="255.5" y2="336.94" /><line x1="255.5" y1="336.94" x2="300" y2="304.62" />
<line x1="300" y1="304.62" x2="344.5" y2="336.94" /><line x1="344.5" y1="336.94" x2="300" y2="369.27" />
<line x1="300" y1="369.27" x2="255.5" y2="336.94" /><line x1="327.5" y1="284.64" x2="283" y2="252.31" />
<line x1="283" y1="252.31" x2="300" y2="200" /><line x1="300" y1="200" x2="344.5" y2="232.33" />
<line x1="344.5" y1="232.33" x2="327.5" y2="284.64" /><line x1="300" y1="200" x2="344.5" y2="232.33" />
<line x1="344.5" y1="232.33" x2="388.99" y2="200" /><line x1="388.99" y1="200" x2="344.5" y2="167.67" />
<line x1="344.5" y1="167.67" x2="300" y2="200" /><line x1="388.99" y1="200" x2="443.99" y2="200" />
<line x1="443.99" y1="200" x2="399.5" y2="167.67" /><line x1="399.5" y1="167.67" x2="344.5" y2="167.67" />
<line x1="344.5" y1="167.67" x2="388.99" y2="200" /><line x1="399.5" y1="167.67" x2="416.49" y2="115.36" />
<line x1="416.49" y1="115.36" x2="460.99" y2="147.69" /><line x1="460.99" y1="147.69" x2="443.99" y2="200" />
<line x1="443.99" y1="200" x2="399.5" y2="167.67" /><line x1="399.5" y1="167.67" x2="416.49" y2="115.36" />
<line x1="443.99" y1="200" x2="399.5" y2="232.33" /><line x1="399.5" y1="232.33" x2="416.49" y2="284.64" />
<line x1="416.49" y1="284.64" x2="460.99" y2="252.31" /><line x1="460.99" y1="252.31" x2="443.99" y2="200" />
<line x1="416.49" y1="284.64" x2="399.5" y2="232.33" /><line x1="399.5" y1="232.33" x2="344.5" y2="232.33" />
<line x1="344.5" y1="232.33" x2="388.99" y2="200" /><line x1="388.99" y1="200" x2="443.99" y2="200" />
<line x1="443.99" y1="200" x2="399.5" y2="232.33" /><line x1="443.99" y1="200" x2="460.99" y2="252.31" />
<line x1="460.99" y1="252.31" x2="515.99" y2="252.31" /><line x1="515.99" y1="252.31" x2="498.99" y2="200" />
<line x1="498.99" y1="200" x2="443.99" y2="200" /><line x1="515.99" y1="252.31" x2="460.99" y2="252.31" />
<line x1="460.99" y1="252.31" x2="505.48" y2="284.64" /><line x1="505.48" y1="284.64" x2="560.48" y2="284.64" />
<line x1="560.48" y1="284.64" x2="515.99" y2="252.31" /><line x1="505.48" y1="284.64" x2="488.49" y2="336.94" />
<line x1="488.49" y1="336.94" x2="443.99" y2="304.62" /><line x1="443.99" y1="304.62" x2="399.5" y2="336.94" />
<line x1="399.5" y1="336.94" x2="416.49" y2="284.64" /><line x1="416.49" y1="284.64" x2="460.99" y2="252.31" />
<line x1="460.99" y1="252.31" x2="443.99" y2="304.62" /><line x1="416.49" y1="284.64" x2="399.5" y2="232.33" />
<line x1="399.5" y1="232.33" x2="443.99" y2="200" /><line x1="443.99" y1="200" x2="460.99" y2="252.31" />
<line x1="460.99" y1="252.31" x2="416.49" y2="284.64" /><line x1="300" y1="200" x2="344.5" y2="167.67" />
<line x1="344.5" y1="167.67" x2="327.5" y2="115.36" /><line x1="327.5" y1="115.36" x2="283" y2="147.69" />
<line x1="283" y1="147.69" x2="300" y2="200" /><line x1="327.5" y1="115.36" x2="344.5" y2="63.06" />
<line x1="344.5" y1="63.06" x2="300" y2="95.38" /><line x1="300" y1="95.38" x2="283" y2="147.69" />
<line x1="283" y1="147.69" x2="327.5" y2="115.36" /><line x1="300" y1="95.38" x2="255.5" y2="63.06" />
<line x1="255.5" y1="63.06" x2="300" y2="30.73" /><line x1="300" y1="30.73" x2="344.5" y2="63.06" />
<line x1="344.5" y1="63.06" x2="300" y2="95.38" /><line x1="300" y1="95.38" x2="255.5" y2="63.06" />
<line x1="344.5" y1="63.06" x2="361.49" y2="115.36" /><line x1="361.49" y1="115.36" x2="416.49" y2="115.36" />
<line x1="416.49" y1="115.36" x2="399.5" y2="63.06" /><line x1="399.5" y1="63.06" x2="344.5" y2="63.06" />
<line x1="416.49" y1="115.36" x2="361.49" y2="115.36" /><line x1="361.49" y1="115.36" x2="344.5" y2="167.67" />
<line x1="344.5" y1="167.67" x2="327.5" y2="115.36" /><line x1="327.5" y1="115.36" x2="344.5" y2="63.06" />
<line x1="344.5" y1="63.06" x2="361.49" y2="115.36" /><line x1="344.5" y1="63.06" x2="300" y2="30.73" />
<line x1="300" y1="30.73" x2="255.5" y2="63.06" /><line x1="255.5" y1="63.06" x2="300" y2="95.38" />
<line x1="300" y1="95.38" x2="344.5" y2="63.06" /><line x1="255.5" y1="63.06" x2="300" y2="30.73" />
<line x1="300" y1="30.73" x2="245" y2="30.73" /><line x1="245" y1="30.73" x2="200.5" y2="63.06" />
<line x1="200.5" y1="63.06" x2="255.5" y2="63.06" /><line x1="245" y1="30.73" x2="228" y2="-21.58" />
<line x1="228" y1="-21.58" x2="283" y2="-21.58" /><line x1="283" y1="-21.58" x2="300" y2="-73.89" />
<line x1="300" y1="-73.89" x2="317" y2="-21.58" /><line x1="317" y1="-21.58" x2="300" y2="30.73" />
<line x1="300" y1="30.73" x2="283" y2="-21.58" /><line x1="317" y1="-21.58" x2="361.49" y2="10.75" />
<line x1="361.49" y1="10.75" x2="344.5" y2="63.06" /><line x1="344.5" y1="63.06" x2="300" y2="30.73" />
<line x1="300" y1="30.73" x2="317" y2="-21.58" /><line x1="228" y1="-21.58" x2="183.51" y2="10.75" />
<line x1="183.51" y1="10.75" x2="200.5" y2="63.06" /><line x1="200.5" y1="63.06" x2="156.01" y2="30.73" />
<line x1="156.01" y1="30.73" x2="139.01" y2="-21.58" /><line x1="139.01" y1="-21.58" x2="183.51" y2="10.75" />
<line x1="156.01" y1="30.73" x2="200.5" y2="63.06" /><line x1="200.5" y1="63.06" x2="183.51" y2="115.36" />
<line x1="183.51" y1="115.36" x2="139.01" y2="83.04" /><line x1="139.01" y1="83.04" x2="156.01" y2="30.73" />
<line x1="183.51" y1="115.36" x2="238.51" y2="115.36" /><line x1="238.51" y1="115.36" x2="255.5" y2="63.06" />
<line x1="255.5" y1="63.06" x2="200.5" y2="63.06" /><line x1="200.5" y1="63.06" x2="183.51" y2="115.36" />
<line x1="255.5" y1="63.06" x2="300" y2="30.73" /><line x1="300" y1="30.73" x2="245" y2="30.73" />
<line x1="245" y1="30.73" x2="200.5" y2="63.06" /><line x1="200.5" y1="63.06" x2="255.5" y2="63.06" />
<line x1="245" y1="30.73" x2="228" y2="-21.58" /><line x1="183.51" y1="115.36" x2="139.01" y2="147.69" />
<line x1="139.01" y1="147.69" x2="156.01" y2="200" /><line x1="156.01" y1="200" x2="200.5" y2="167.67" />
<line x1="200.5" y1="167.67" x2="183.51" y2="115.36" /><line x1="156.01" y1="200" x2="200.5" y2="167.67" />
<line x1="200.5" y1="167.67" x2="183.51" y2="115.36" /><line x1="183.51" y1="115.36" x2="228" y2="147.69" />
<line x1="228" y1="147.69" x2="245" y2="200" /><line x1="245" y1="200" x2="200.5" y2="167.67" />
<line x1="228" y1="147.69" x2="283" y2="147.69" /><line x1="283" y1="147.69" x2="238.51" y2="115.36" />
<line x1="238.51" y1="115.36" x2="183.51" y2="115.36" /><line x1="183.51" y1="115.36" x2="228" y2="147.69" />
<line x1="238.51" y1="115.36" x2="255.5" y2="63.06" /><line x1="255.5" y1="63.06" x2="238.51" y2="115.36" />
<line x1="238.51" y1="115.36" x2="183.51" y2="115.36" /><line x1="183.51" y1="115.36" x2="200.5" y2="63.06" />
<line x1="200.5" y1="63.06" x2="255.5" y2="63.06" /><line x1="228" y1="147.69" x2="283" y2="147.69" />
<line x1="283" y1="147.69" x2="300" y2="200" /><line x1="300" y1="200" x2="245" y2="200" />
<line x1="245" y1="200" x2="228" y2="147.69" /><line x1="228" y1="-21.58" x2="245" y2="30.73" />
<line x1="245" y1="30.73" x2="300" y2="30.73" /><line x1="300" y1="30.73" x2="255.5" y2="63.06" />
<line x1="255.5" y1="63.06" x2="200.5" y2="63.06" /><line x1="200.5" y1="63.06" x2="245" y2="30.73" />
<line x1="255.5" y1="63.06" x2="300" y2="30.73" /><line x1="300" y1="30.73" x2="344.5" y2="63.06" />
<line x1="344.5" y1="63.06" x2="300" y2="95.38" /><line x1="300" y1="95.38" x2="255.5" y2="63.06" />
<line x1="344.5" y1="63.06" x2="361.49" y2="10.75" /><line x1="361.49" y1="10.75" x2="317" y2="-21.58" />
<line x1="317" y1="-21.58" x2="300" y2="30.73" /><line x1="300" y1="30.73" x2="344.5" y2="63.06" />
<line x1="317" y1="-21.58" x2="300" y2="-73.89" /><line x1="300" y1="-73.89" x2="283" y2="-21.58" />
<line x1="283" y1="-21.58" x2="300" y2="30.73" /><line x1="300" y1="30.73" x2="317" y2="-21.58" />
<line x1="283" y1="-21.58" x2="228" y2="-21.58" /><line x1="344.5" y1="63.06" x2="361.49" y2="10.75" />
<line x1="361.49" y1="10.75" x2="317" y2="-21.58" /><line x1="317" y1="-21.58" x2="300" y2="30.73" />
<line x1="300" y1="30.73" x2="344.5" y2="63.06" /><line x1="317" y1="-21.58" x2="300" y2="-73.89" />
<line x1="300" y1="-73.89" x2="283" y2="-21.58" /><line x1="283" y1="-21.58" x2="300" y2="30.73" />
<line x1="300" y1="30.73" x2="317" y2="-21.58" /><line x1="283" y1="-21.58" x2="228" y2="-21.58" />
<line x1="228" y1="-21.58" x2="245" y2="-73.89" /><line x1="245" y1="-73.89" x2="300" y2="-73.89" />
<line x1="300" y1="-73.89" x2="283" y2="-21.58" /><line x1="283" y1="-21.58" x2="228" y2="-21.58" />
<line x1="300" y1="-73.89" x2="344.5" y2="-41.56" /><line x1="344.5" y1="-41.56" x2="388.99" y2="-73.89" />
<line x1="388.99" y1="-73.89" x2="344.5" y2="-106.22" /><line x1="344.5" y1="-106.22" x2="300" y2="-73.89" />
<line x1="388.99" y1="-73.89" x2="344.5" y2="-41.56" /><line x1="344.5" y1="-41.56" x2="361.49" y2="10.75" />
<line x1="361.49" y1="10.75" x2="317" y2="-21.58" /><line x1="317" y1="-21.58" x2="300" y2="-73.89" />
<line x1="300" y1="-73.89" x2="344.5" y2="-41.56" /><line x1="300" y1="-73.89" x2="344.5" y2="-106.22" />
<line x1="344.5" y1="-106.22" x2="327.5" y2="-158.53" /><line x1="327.5" y1="-158.53" x2="283" y2="-126.2" />
<line x1="283" y1="-126.2" x2="300" y2="-73.89" /><line x1="327.5" y1="-158.53" x2="283" y2="-126.2" />
<line x1="283" y1="-126.2" x2="300" y2="-73.89" /><line x1="300" y1="-73.89" x2="255.5" y2="-106.22" />
<line x1="255.5" y1="-106.22" x2="238.51" y2="-158.53" /><line x1="238.51" y1="-158.53" x2="283" y2="-126.2" />
<line x1="255.5" y1="-106.22" x2="200.5" y2="-106.22" /><line x1="200.5" y1="-106.22" x2="245" y2="-73.89" />
<line x1="245" y1="-73.89" x2="300" y2="-73.89" /><line x1="300" y1="-73.89" x2="255.5" y2="-106.22" />
<line x1="245" y1="-73.89" x2="228" y2="-21.58" /><line x1="228" y1="-21.58" x2="245" y2="-73.89" />
<line x1="245" y1="-73.89" x2="300" y2="-73.89" /><line x1="300" y1="-73.89" x2="283" y2="-21.58" />
<line x1="283" y1="-21.58" x2="228" y2="-21.58" /><line x1="255.5" y1="-106.22" x2="200.5" y2="-106.22" />
<line x1="200.5" y1="-106.22" x2="183.51" y2="-158.53" /><line x1="183.51" y1="-158.53" x2="238.51" y2="-158.53" />
<line x1="238.51" y1="-158.53" x2="255.5" y2="-106.22" /><line x1="183.51" y1="-158.53" x2="200.5" y2="-106.22" />
<line x1="200.5" y1="-106.22" x2="255.5" y2="-106.22" /><line x1="255.5" y1="-106.22" x2="238.51" y2="-158.53" />
<line x1="238.51" y1="-158.53" x2="183.51" y2="-158.53" /><line x1="255.5" y1="-106.22" x2="200.5" y2="-106.22" />
<line x1="200.5" y1="-106.22" x2="245" y2="-73.89" /><line x1="245" y1="-73.89" x2="300" y2="-73.89" />
<line x1="300" y1="-73.89" x2="255.5" y2="-106.22" /><line x1="245" y1="-73.89" x2="228" y2="-21.58" />
<line x1="228" y1="-21.58" x2="183.51" y2="-53.91" /><line x1="183.51" y1="-53.91" x2="139.01" y2="-21.58" />
<line x1="139.01" y1="-21.58" x2="156.01" y2="-73.89" /><line x1="156.01" y1="-73.89" x2="200.5" y2="-106.22" />
<line x1="200.5" y1="-106.22" x2="183.51" y2="-53.91" /><line x1="156.01" y1="-73.89" x2="139.01" y2="-126.2" />
<line x1="139.01" y1="-126.2" x2="183.51" y2="-158.53" /><line x1="183.51" y1="-158.53" x2="200.5" y2="-106.22" />
<line x1="200.5" y1="-106.22" x2="156.01" y2="-73.89" /><line x1="300" y1="-73.89" x2="344.5" y2="-106.22" />
<line x1="344.5" y1="-106.22" x2="327.5" y2="-158.53" /><line x1="327.5" y1="-158.53" x2="283" y2="-126.2" />
<line x1="283" y1="-126.2" x2="300" y2="-73.89" /><line x1="327.5" y1="-158.53" x2="344.5" y2="-106.22" />
<line x1="344.5" y1="-106.22" x2="361.49" y2="-158.53" /><line x1="361.49" y1="-158.53" x2="344.5" y2="-210.83" />
<line x1="344.5" y1="-210.83" x2="327.5" y2="-158.53" /><line x1="361.49" y1="-158.53" x2="416.49" y2="-158.53" />
<line x1="416.49" y1="-158.53" x2="399.5" y2="-106.22" /><line x1="399.5" y1="-106.22" x2="443.99" y2="-73.89" />
<line x1="443.99" y1="-73.89" x2="388.99" y2="-73.89" /><line x1="388.99" y1="-73.89" x2="344.5" y2="-106.22" />
<line x1="344.5" y1="-106.22" x2="399.5" y2="-106.22" /><line x1="388.99" y1="-73.89" x2="344.5" y2="-41.56" />
<line x1="344.5" y1="-41.56" x2="300" y2="-73.89" /><line x1="300" y1="-73.89" x2="344.5" y2="-106.22" />
<line x1="344.5" y1="-106.22" x2="388.99" y2="-73.89" /><line x1="416.49" y1="-158.53" x2="399.5" y2="-106.22" />
<line x1="399.5" y1="-106.22" x2="443.99" y2="-73.89" /><line x1="443.99" y1="-73.89" x2="388.99" y2="-73.89" />
<line x1="388.99" y1="-73.89" x2="344.5" y2="-106.22" /><line x1="344.5" y1="-106.22" x2="399.5" y2="-106.22" />
<line x1="388.99" y1="-73.89" x2="443.99" y2="-73.89" /><line x1="443.99" y1="-73.89" x2="460.99" y2="-21.58" />
<line x1="460.99" y1="-21.58" x2="405.99" y2="-21.58" /><line x1="405.99" y1="-21.58" x2="388.99" y2="-73.89" />
<line x1="460.99" y1="-21.58" x2="505.48" y2="-53.91" /><line x1="505.48" y1="-53.91" x2="488.49" y2="-106.22" />
<line x1="488.49" y1="-106.22" x2="443.99" y2="-73.89" /><line x1="443.99" y1="-73.89" x2="460.99" y2="-21.58" />
<line x1="488.49" y1="-106.22" x2="505.48" y2="-158.53" /><line x1="505.48" y1="-158.53" x2="460.99" y2="-126.2" />
<line x1="460.99" y1="-126.2" x2="443.99" y2="-73.89" /><line x1="443.99" y1="-73.89" x2="488.49" y2="-106.22" />
<line x1="460.99" y1="-126.2" x2="416.49" y2="-158.53" /><line x1="460.99" y1="-21.58" x2="443.99" y2="30.73" />
<line x1="443.99" y1="30.73" x2="488.49" y2="63.06" /><line x1="488.49" y1="63.06" x2="505.48" y2="10.75" />
<line x1="505.48" y1="10.75" x2="460.99" y2="-21.58" /><line x1="488.49" y1="63.06" x2="505.48" y2="10.75" />
<line x1="505.48" y1="10.75" x2="460.99" y2="-21.58" /><line x1="460.99" y1="-21.58" x2="515.99" y2="-21.58" />
<line x1="515.99" y1="-21.58" x2="560.48" y2="10.75" /><line x1="560.48" y1="10.75" x2="505.48" y2="10.75" />
<line x1="515.99" y1="-21.58" x2="560.48" y2="-53.91" /><line x1="560.48" y1="-53.91" x2="505.48" y2="-53.91" />
<line x1="505.48" y1="-53.91" x2="460.99" y2="-21.58" /><line x1="460.99" y1="-21.58" x2="515.99" y2="-21.58" />
<line x1="505.48" y1="-53.91" x2="488.49" y2="-106.22" /><line x1="488.49" y1="-106.22" x2="505.48" y2="-53.91" />
<line x1="505.48" y1="-53.91" x2="460.99" y2="-21.58" /><line x1="460.99" y1="-21.58" x2="443.99" y2="-73.89" />
<line x1="443.99" y1="-73.89" x2="488.49" y2="-106.22" /><line x1="515.99" y1="-21.58" x2="560.48" y2="-53.91" />
<line x1="560.48" y1="-53.91" x2="604.98" y2="-21.58" /><line x1="604.98" y1="-21.58" x2="560.48" y2="10.75" />
<line x1="560.48" y1="10.75" x2="515.99" y2="-21.58" /><line x1="604.98" y1="-21.58" x2="560.48" y2="10.75" />
<line x1="560.48" y1="10.75" x2="577.48" y2="63.06" /><line x1="577.48" y1="63.06" x2="621.98" y2="30.73" />
<line x1="621.98" y1="30.73" x2="604.98" y2="-21.58" /><line x1="577.48" y1="63.06" x2="560.48" y2="10.75" />
<line x1="560.48" y1="10.75" x2="543.49" y2="63.06" /><line x1="543.49" y1="63.06" x2="560.48" y2="115.36" />
<line x1="560.48" y1="115.36" x2="577.48" y2="63.06" /><line x1="543.49" y1="63.06" x2="488.49" y2="63.06" />
<line x1="488.49" y1="63.06" x2="505.48" y2="10.75" /><line x1="505.48" y1="10.75" x2="460.99" y2="-21.58" />
<line x1="460.99" y1="-21.58" x2="515.99" y2="-21.58" /><line x1="515.99" y1="-21.58" x2="560.48" y2="10.75" />
<line x1="560.48" y1="10.75" x2="505.48" y2="10.75" /><line x1="515.99" y1="-21.58" x2="560.48" y2="-53.91" />
<line x1="560.48" y1="-53.91" x2="604.98" y2="-21.58" /><line x1="604.98" y1="-21.58" x2="560.48" y2="10.75" />
<line x1="560.48" y1="10.75" x2="515.99" y2="-21.58" /><line x1="488.49" y1="63.06" x2="443.99" y2="30.73" />
<line x1="443.99" y1="30.73" x2="399.5" y2="63.06" /><line x1="399.5" y1="63.06" x2="416.49" y2="10.75" />
<line x1="416.49" y1="10.75" x2="460.99" y2="-21.58" /><line x1="460.99" y1="-21.58" x2="443.99" y2="30.73" />
<line x1="416.49" y1="10.75" x2="399.5" y2="63.06" /><line x1="399.5" y1="63.06" x2="344.5" y2="63.06" />
<line x1="344.5" y1="63.06" x2="361.49" y2="10.75" /><line x1="361.49" y1="10.75" x2="416.49" y2="10.75" />
<line x1="344.5" y1="63.06" x2="361.49" y2="115.36" /><line x1="361.49" y1="115.36" x2="416.49" y2="115.36" />
<line x1="416.49" y1="115.36" x2="399.5" y2="63.06" /><line x1="399.5" y1="63.06" x2="344.5" y2="63.06" />
<line x1="416.49" y1="115.36" x2="460.99" y2="147.69" /><line x1="460.99" y1="147.69" x2="443.99" y2="95.38" />
<line x1="443.99" y1="95.38" x2="399.5" y2="63.06" /><line x1="399.5" y1="63.06" x2="416.49" y2="115.36" />
<line x1="443.99" y1="95.38" x2="488.49" y2="63.06" /><line x1="344.5" y1="63.06" x2="399.5" y2="63.06" />
<line x1="399.5" y1="63.06" x2="416.49" y2="10.75" /><line x1="416.49" y1="10.75" x2="361.49" y2="10.75" />
<line x1="361.49" y1="10.75" x2="344.5" y2="63.06" /><line x1="416.49" y1="10.75" x2="460.99" y2="-21.58" />
<line x1="460.99" y1="-21.58" x2="405.99" y2="-21.58" /><line x1="405.99" y1="-21.58" x2="361.49" y2="10.75" />
<line x1="361.49" y1="10.75" x2="416.49" y2="10.75" /><line x1="405.99" y1="-21.58" x2="388.99" y2="-73.89" />
<line x1="388.99" y1="-73.89" x2="443.99" y2="-73.89" /><line x1="443.99" y1="-73.89" x2="460.99" y2="-21.58" />
<line x1="460.99" y1="-21.58" x2="405.99" y2="-21.58" /><line x1="405.99" y1="-21.58" x2="388.99" y2="-73.89" />
<line x1="460.99" y1="-21.58" x2="443.99" y2="30.73" /><line x1="443.99" y1="30.73" x2="488.49" y2="63.06" />
<line x1="488.49" y1="63.06" x2="505.48" y2="10.75" /><line x1="505.48" y1="10.75" x2="460.99" y2="-21.58" />
<line x1="488.49" y1="63.06" x2="443.99" y2="30.73" /><line x1="443.99" y1="30.73" x2="399.5" y2="63.06" />
<line x1="399.5" y1="63.06" x2="416.49" y2="10.75" /><line x1="416.49" y1="10.75" x2="460.99" y2="-21.58" />
<line x1="460.99" y1="-21.58" x2="443.99" y2="30.73" /><line x1="488.49" y1="63.06" x2="443.99" y2="95.38" />
<line x1="443.99" y1="95.38" x2="460.99" y2="147.69" /><line x1="460.99" y1="147.69" x2="416.49" y2="115.36" />
<line x1="416.49" y1="115.36" x2="399.5" y2="63.06" /><line x1="399.5" y1="63.06" x2="443.99" y2="95.38" />
<line x1="416.49" y1="115.36" x2="460.99" y2="147.69" /><line x1="460.99" y1="147.69" x2="443.99" y2="200" />
<line x1="443.99" y1="200" x2="399.5" y2="167.67" /><line x1="399.5" y1="167.67" x2="416.49" y2="115.36" />
<line x1="443.99" y1="200" x2="498.99" y2="200" /><line x1="498.99" y1="200" x2="515.99" y2="147.69" />
<line x1="515.99" y1="147.69" x2="460.99" y2="147.69" /><line x1="460.99" y1="147.69" x2="443.99" y2="200" />
<line x1="515.99" y1="147.69" x2="560.48" y2="115.36" /><line x1="560.48" y1="115.36" x2="505.48" y2="115.36" />
<line x1="505.48" y1="115.36" x2="460.99" y2="147.69" /><line x1="460.99" y1="147.69" x2="515.99" y2="147.69" />
<line x1="505.48" y1="115.36" x2="488.49" y2="63.06" /><line x1="443.99" y1="200" x2="460.99" y2="147.69" />
<line x1="460.99" y1="147.69" x2="416.49" y2="115.36" /><line x1="416.49" y1="115.36" x2="399.5" y2="167.67" />
<line x1="399.5" y1="167.67" x2="443.99" y2="200" /><line x1="416.49" y1="115.36" x2="399.5" y2="167.67" />
<line x1="399.5" y1="167.67" x2="443.99" y2="200" /><line x1="443.99" y1="200" x2="388.99" y2="200" />
<line x1="388.99" y1="200" x2="344.5" y2="167.67" /><line x1="344.5" y1="167.67" x2="399.5" y2="167.67" />
<line x1="388.99" y1="200" x2="344.5" y2="232.33" /><line x1="344.5" y1="232.33" x2="399.5" y2="232.33" />
<line x1="399.5" y1="232.33" x2="443.99" y2="200" /><line x1="443.99" y1="200" x2="388.99" y2="200" />
<line x1="399.5" y1="232.33" x2="416.49" y2="284.64" /><line x1="416.49" y1="284.64" x2="399.5" y2="232.33" />
<line x1="399.5" y1="232.33" x2="443.99" y2="200" /><line x1="443.99" y1="200" x2="460.99" y2="252.31" />
<line x1="460.99" y1="252.31" x2="416.49" y2="284.64" /><line x1="388.99" y1="200" x2="344.5" y2="232.33" />
<line x1="344.5" y1="232.33" x2="300" y2="200" /><line x1="300" y1="200" x2="344.5" y2="167.67" />
<line x1="344.5" y1="167.67" x2="388.99" y2="200" /><line x1="300" y1="200" x2="344.5" y2="167.67" />
<line x1="344.5" y1="167.67" x2="327.5" y2="115.36" /><line x1="327.5" y1="115.36" x2="283" y2="147.69" />
<line x1="283" y1="147.69" x2="300" y2="200" /><line x1="327.5" y1="115.36" x2="344.5" y2="63.06" />
<line x1="344.5" y1="63.06" x2="300" y2="95.38" /><line x1="300" y1="95.38" x2="283" y2="147.69" />
<line x1="283" y1="147.69" x2="327.5" y2="115.36" /><line x1="300" y1="95.38" x2="255.5" y2="63.06" />
<line x1="255.5" y1="63.06" x2="300" y2="30.73" /><line x1="300" y1="30.73" x2="344.5" y2="63.06" />
<line x1="344.5" y1="63.06" x2="300" y2="95.38" /><line x1="300" y1="95.38" x2="255.5" y2="63.06" />
<line x1="344.5" y1="63.06" x2="361.49" y2="115.36" /><line x1="361.49" y1="115.36" x2="416.49" y2="115.36" />
<line x1="416.49" y1="115.36" x2="399.5" y2="63.06" /><line x1="399.5" y1="63.06" x2="344.5" y2="63.06" />
<line x1="416.49" y1="115.36" x2="361.49" y2="115.36" /><line x1="361.49" y1="115.36" x2="344.5" y2="167.67" />
<line x1="344.5" y1="167.67" x2="327.5" y2="115.36" /><line x1="327.5" y1="115.36" x2="344.5" y2="63.06" />
<line x1="344.5" y1="63.06" x2="361.49" y2="115.36" /><line x1="344.5" y1="63.06" x2="399.5" y2="63.06" />
<line x1="399.5" y1="63.06" x2="416.49" y2="10.75" /><line x1="416.49" y1="10.75" x2="361.49" y2="10.75" />
<line x1="361.49" y1="10.75" x2="344.5" y2="63.06" /><line x1="416.49" y1="10.75" x2="399.5" y2="63.06" />
<line x1="399.5" y1="63.06" x2="443.99" y2="30.73" /><line x1="443.99" y1="30.73" x2="460.99" y2="-21.58" />
<line x1="460.99" y1="-21.58" x2="416.49" y2="10.75" /><line x1="443.99" y1="30.73" x2="488.49" y2="63.06" />
<line x1="488.49" y1="63.06" x2="443.99" y2="95.38" /><line x1="443.99" y1="95.38" x2="460.99" y2="147.69" />
<line x1="460.99" y1="147.69" x2="416.49" y2="115.36" /><line x1="416.49" y1="115.36" x2="399.5" y2="63.06" />
<line x1="399.5" y1="63.06" x2="443.99" y2="95.38" /><line x1="416.49" y1="115.36" x2="361.49" y2="115.36" />
<line x1="361.49" y1="115.36" x2="344.5" y2="63.06" /><line x1="344.5" y1="63.06" x2="399.5" y2="63.06" />
<line x1="399.5" y1="63.06" x2="416.49" y2="115.36" /><line x1="300" y1="200" x2="283" y2="147.69" />
<line x1="283" y1="147.69" x2="228" y2="147.69" /><line x1="228" y1="147.69" x2="245" y2="200" />
<line x1="245" y1="200" x2="300" y2="200" /><line x1="228" y1="147.69" x2="183.51" y2="115.36" />
<line x1="183.51" y1="115.36" x2="200.5" y2="167.67" /><line x1="200.5" y1="167.67" x2="245" y2="200" />
<line x1="245" y1="200" x2="228" y2="147.69" /><line x1="200.5" y1="167.67" x2="156.01" y2="200" />
<line x1="156.01" y1="200" x2="139.01" y2="147.69" /><line x1="139.01" y1="147.69" x2="183.51" y2="115.36" />
<line x1="183.51" y1="115.36" x2="200.5" y2="167.67" /><line x1="200.5" y1="167.67" x2="156.01" y2="200" />
<line x1="183.51" y1="115.36" x2="238.51" y2="115.36" /><line x1="238.51" y1="115.36" x2="255.5" y2="63.06" />
<line x1="255.5" y1="63.06" x2="200.5" y2="63.06" /><line x1="200.5" y1="63.06" x2="183.51" y2="115.36" />
<line x1="255.5" y1="63.06" x2="238.51" y2="115.36" /><line x1="238.51" y1="115.36" x2="283" y2="147.69" />
<line x1="283" y1="147.69" x2="228" y2="147.69" /><line x1="228" y1="147.69" x2="183.51" y2="115.36" />
<line x1="183.51" y1="115.36" x2="238.51" y2="115.36" /><line x1="183.51" y1="115.36" x2="139.01" y2="147.69" />
<line x1="139.01" y1="147.69" x2="156.01" y2="200" /><line x1="156.01" y1="200" x2="200.5" y2="167.67" />
<line x1="200.5" y1="167.67" x2="183.51" y2="115.36" /><line x1="156.01" y1="200" x2="139.01" y2="147.69" />
<line x1="139.01" y1="147.69" x2="122.02" y2="200" /><line x1="122.02" y1="200" x2="139.01" y2="252.31" />
<line x1="139.01" y1="252.31" x2="156.01" y2="200" /><line x1="122.02" y1="200" x2="67.02" y2="200" />
<line x1="67.02" y1="200" x2="84.01" y2="147.69" /><line x1="84.01" y1="147.69" x2="39.52" y2="115.36" />
<line x1="39.52" y1="115.36" x2="94.52" y2="115.36" /><line x1="94.52" y1="115.36" x2="139.01" y2="147.69" />
<line x1="139.01" y1="147.69" x2="84.01" y2="147.69" /><line x1="94.52" y1="115.36" x2="139.01" y2="83.04" />
<line x1="139.01" y1="83.04" x2="183.51" y2="115.36" /><line x1="183.51" y1="115.36" x2="139.01" y2="147.69" />
<line x1="139.01" y1="147.69" x2="94.52" y2="115.36" /><line x1="67.02" y1="200" x2="84.01" y2="252.31" />
<line x1="84.01" y1="252.31" x2="139.01" y2="252.31" /><line x1="139.01" y1="252.31" x2="94.52" y2="284.64" />
<line x1="94.52" y1="284.64" x2="39.52" y2="284.64" /><line x1="39.52" y1="284.64" x2="84.01" y2="252.31" />
<line x1="94.52" y1="284.64" x2="139.01" y2="252.31" /><line x1="139.01" y1="252.31" x2="183.51" y2="284.64" />
<line x1="183.51" y1="284.64" x2="139.01" y2="316.96" /><line x1="139.01" y1="316.96" x2="94.52" y2="284.64" />
<line x1="183.51" y1="284.64" x2="200.5" y2="232.33" /><line x1="200.5" y1="232.33" x2="156.01" y2="200" />
<line x1="156.01" y1="200" x2="139.01" y2="252.31" /><line x1="139.01" y1="252.31" x2="183.51" y2="284.64" />
<line x1="156.01" y1="200" x2="139.01" y2="147.69" /><line x1="139.01" y1="147.69" x2="122.02" y2="200" />
<line x1="122.02" y1="200" x2="139.01" y2="252.31" /><line x1="139.01" y1="252.31" x2="156.01" y2="200" />
<line x1="122.02" y1="200" x2="67.02" y2="200" /><line x1="183.51" y1="284.64" x2="200.5" y2="336.94" />
<line x1="200.5" y1="336.94" x2="255.5" y2="336.94" /><line x1="255.5" y1="336.94" x2="238.51" y2="284.64" />
<line x1="238.51" y1="284.64" x2="183.51" y2="284.64" /><line x1="255.5" y1="336.94" x2="238.51" y2="284.64" />
<line x1="238.51" y1="284.64" x2="183.51" y2="284.64" /><line x1="183.51" y1="284.64" x2="228" y2="252.31" />
<line x1="228" y1="252.31" x2="283" y2="252.31" /><line x1="283" y1="252.31" x2="238.51" y2="284.64" />
<line x1="228" y1="252.31" x2="245" y2="200" /><line x1="245" y1="200" x2="200.5" y2="232.33" />
<line x1="200.5" y1="232.33" x2="183.51" y2="284.64" /><line x1="183.51" y1="284.64" x2="228" y2="252.31" />
<line x1="200.5" y1="232.33" x2="156.01" y2="200" /><line x1="156.01" y1="200" x2="200.5" y2="232.33" />
<line x1="200.5" y1="232.33" x2="183.51" y2="284.64" /><line x1="183.51" y1="284.64" x2="139.01" y2="252.31" />
<line x1="139.01" y1="252.31" x2="156.01" y2="200" /><line x1="228" y1="252.31" x2="245" y2="200" />
<line x1="245" y1="200" x2="300" y2="200" /><line x1="300" y1="200" x2="283" y2="252.31" />
<line x1="283" y1="252.31" x2="228" y2="252.31" /><line x1="67.02" y1="200" x2="122.02" y2="200" />
<line x1="122.02" y1="200" x2="139.01" y2="147.69" /><line x1="139.01" y1="147.69" x2="156.01" y2="200" />
<line x1="156.01" y1="200" x2="139.01" y2="252.31" /><line x1="139.01" y1="252.31" x2="122.02" y2="200" />
<line x1="156.01" y1="200" x2="139.01" y2="147.69" /><line x1="139.01" y1="147.69" x2="183.51" y2="115.36" />
<line x1="183.51" y1="115.36" x2="200.5" y2="167.67" /><line x1="200.5" y1="167.67" x2="156.01" y2="200" />
<line x1="183.51" y1="115.36" x2="139.01" y2="83.04" /><line x1="139.01" y1="83.04" x2="94.52" y2="115.36" />
<line x1="94.52" y1="115.36" x2="139.01" y2="147.69" /><line x1="139.01" y1="147.69" x2="183.51" y2="115.36" />
<line x1="94.52" y1="115.36" x2="39.52" y2="115.36" /><line x1="39.52" y1="115.36" x2="84.01" y2="147.69" />
<line x1="84.01" y1="147.69" x2="139.01" y2="147.69" /><line x1="139.01" y1="147.69" x2="94.52" y2="115.36" />
<line x1="84.01" y1="147.69" x2="67.02" y2="200" /><line x1="183.51" y1="115.36" x2="139.01" y2="83.04" />
<line x1="139.01" y1="83.04" x2="94.52" y2="115.36" /><line x1="94.52" y1="115.36" x2="139.01" y2="147.69" />
<line x1="139.01" y1="147.69" x2="183.51" y2="115.36" /><line x1="94.52" y1="115.36" x2="39.52" y2="115.36" />
<line x1="39.52" y1="115.36" x2="84.01" y2="147.69" /><line x1="84.01" y1="147.69" x2="139.01" y2="147.69" />
<line x1="139.01" y1="147.69" x2="94.52" y2="115.36" /><line x1="84.01" y1="147.69" x2="67.02" y2="200" />
<line x1="67.02" y1="200" x2="22.52" y2="167.67" /><line x1="22.52" y1="167.67" x2="39.52" y2="115.36" />
<line x1="39.52" y1="115.36" x2="84.01" y2="147.69" /><line x1="84.01" y1="147.69" x2="67.02" y2="200" />
<line x1="39.52" y1="115.36" x2="84.01" y2="83.04" /><line x1="84.01" y1="83.04" x2="67.02" y2="30.73" />
<line x1="67.02" y1="30.73" x2="22.52" y2="63.06" /><line x1="22.52" y1="63.06" x2="39.52" y2="115.36" />
<line x1="67.02" y1="30.73" x2="84.01" y2="83.04" /><line x1="84.01" y1="83.04" x2="139.01" y2="83.04" />
<line x1="139.01" y1="83.04" x2="94.52" y2="115.36" /><line x1="94.52" y1="115.36" x2="39.52" y2="115.36" />
<line x1="39.52" y1="115.36" x2="84.01" y2="83.04" /><line x1="39.52" y1="115.36" x2="22.52" y2="63.06" />
<line x1="22.52" y1="63.06" x2="-32.48" y2="63.06" /><line x1="-32.48" y1="63.06" x2="-15.48" y2="115.36" />
<line x1="-15.48" y1="115.36" x2="39.52" y2="115.36" /><line x1="-32.48" y1="63.06" x2="-15.48" y2="115.36" />
<line x1="-15.48" y1="115.36" x2="39.52" y2="115.36" /><line x1="39.52" y1="115.36" x2="-4.98" y2="147.69" />
<line x1="-4.98" y1="147.69" x2="-59.98" y2="147.69" /><line x1="-59.98" y1="147.69" x2="-15.48" y2="115.36" />
<line x1="-4.98" y1="147.69" x2="-21.98" y2="200" /><line x1="-21.98" y1="200" x2="22.52" y2="167.67" />
<line x1="22.52" y1="167.67" x2="39.52" y2="115.36" /><line x1="39.52" y1="115.36" x2="-4.98" y2="147.69" />
<line x1="22.52" y1="167.67" x2="67.02" y2="200" /><line x1="67.02" y1="200" x2="22.52" y2="167.67" />
<line x1="22.52" y1="167.67" x2="39.52" y2="115.36" /><line x1="39.52" y1="115.36" x2="84.01" y2="147.69" />
<line x1="84.01" y1="147.69" x2="67.02" y2="200" /><line x1="-4.98" y1="147.69" x2="-21.98" y2="200" />
<line x1="-21.98" y1="200" x2="-76.98" y2="200" /><line x1="-76.98" y1="200" x2="-59.98" y2="147.69" />
<line x1="-59.98" y1="147.69" x2="-4.98" y2="147.69" /><line x1="-76.98" y1="200" x2="-21.98" y2="200" />
<line x1="-21.98" y1="200" x2="-4.98" y2="147.69" /><line x1="-4.98" y1="147.69" x2="-59.98" y2="147.69" />
<line x1="-59.98" y1="147.69" x2="-76.98" y2="200" /><line x1="-4.98" y1="147.69" x2="-21.98" y2="200" />
<line x1="-21.98" y1="200" x2="22.52" y2="167.67" /><line x1="22.52" y1="167.67" x2="39.52" y2="115.36" />
<line x1="39.52" y1="115.36" x2="-4.98" y2="147.69" /><line x1="22.52" y1="167.67" x2="67.02" y2="200" />
<line x1="67.02" y1="200" x2="22.52" y2="232.33" /><line x1="22.52" y1="232.33" x2="39.52" y2="284.64" />
<line x1="39.52" y1="284.64" x2="-4.98" y2="252.31" /><line x1="-4.98" y1="252.31" x2="-21.98" y2="200" />
<line x1="-21.98" y1="200" x2="22.52" y2="232.33" /><line x1="-4.98" y1="252.31" x2="-59.98" y2="252.31" />
<line x1="-59.98" y1="252.31" x2="-76.98" y2="200" /><line x1="-76.98" y1="200" x2="-21.98" y2="200" />
<line x1="-21.98" y1="200" x2="-4.98" y2="252.31" /><line x1="39.52" y1="115.36" x2="22.52" y2="63.06" />
<line x1="22.52" y1="63.06" x2="-32.48" y2="63.06" /><line x1="-32.48" y1="63.06" x2="-15.48" y2="115.36" />
<line x1="-15.48" y1="115.36" x2="39.52" y2="115.36" /><line x1="-32.48" y1="63.06" x2="22.52" y2="63.06" />
<line x1="22.52" y1="63.06" x2="-21.98" y2="30.73" /><line x1="-21.98" y1="30.73" x2="-76.98" y2="30.73" />
<line x1="-76.98" y1="30.73" x2="-32.48" y2="63.06" /><line x1="-21.98" y1="30.73" x2="-4.98" y2="-21.58" />
<line x1="-4.98" y1="-21.58" x2="39.52" y2="10.75" /><line x1="39.52" y1="10.75" x2="84.01" y2="-21.58" />
<line x1="84.01" y1="-21.58" x2="67.02" y2="30.73" /><line x1="67.02" y1="30.73" x2="22.52" y2="63.06" />
<line x1="22.52" y1="63.06" x2="39.52" y2="10.75" /><line x1="67.02" y1="30.73" x2="84.01" y2="83.04" />
<line x1="84.01" y1="83.04" x2="39.52" y2="115.36" /><line x1="39.52" y1="115.36" x2="22.52" y2="63.06" />
<line x1="22.52" y1="63.06" x2="67.02" y2="30.73" /><line x1="-4.98" y1="-21.58" x2="39.52" y2="10.75" />
<line x1="39.52" y1="10.75" x2="84.01" y2="-21.58" /><line x1="84.01" y1="-21.58" x2="67.02" y2="30.73" />
<line x1="67.02" y1="30.73" x2="22.52" y2="63.06" /><line x1="22.52" y1="63.06" x2="39.52" y2="10.75" />
<line x1="67.02" y1="30.73" x2="84.01" y2="-21.58" /><line x1="84.01" y1="-21.58" x2="139.01" y2="-21.58" />
<line x1="139.01" y1="-21.58" x2="122.02" y2="30.73" /><line x1="122.02" y1="30.73" x2="67.02" y2="30.73" />
<line x1="139.01" y1="-21.58" x2="122.02" y2="-73.89" /><line x1="122.02" y1="-73.89" x2="67.02" y2="-73.89" />
<line x1="67.02" y1="-73.89" x2="84.01" y2="-21.58" /><line x1="84.01" y1="-21.58" x2="139.01" y2="-21.58" />
<line x1="67.02" y1="-73.89" x2="22.52" y2="-106.22" /><line x1="22.52" y1="-106.22" x2="39.52" y2="-53.91" />
<line x1="39.52" y1="-53.91" x2="84.01" y2="-21.58" /><line x1="84.01" y1="-21.58" x2="67.02" y2="-73.89" />
<line x1="39.52" y1="-53.91" x2="-4.98" y2="-21.58" /><line x1="139.01" y1="-21.58" x2="183.51" y2="10.75" />
<line x1="183.51" y1="10.75" x2="228" y2="-21.58" /><line x1="228" y1="-21.58" x2="183.51" y2="-53.91" />
<line x1="183.51" y1="-53.91" x2="139.01" y2="-21.58" /><line x1="228" y1="-21.58" x2="183.51" y2="-53.91" />
<line x1="183.51" y1="-53.91" x2="139.01" y2="-21.58" /><line x1="139.01" y1="-21.58" x2="156.01" y2="-73.89" />
<line x1="156.01" y1="-73.89" x2="200.5" y2="-106.22" /><line x1="200.5" y1="-106.22" x2="183.51" y2="-53.91" />
<line x1="156.01" y1="-73.89" x2="139.01" y2="-126.2" /><line x1="139.01" y1="-126.2" x2="122.02" y2="-73.89" />
<line x1="122.02" y1="-73.89" x2="139.01" y2="-21.58" /><line x1="139.01" y1="-21.58" x2="156.01" y2="-73.89" />
<line x1="122.02" y1="-73.89" x2="67.02" y2="-73.89" /><line x1="67.02" y1="-73.89" x2="122.02" y2="-73.89" />
<line x1="122.02" y1="-73.89" x2="139.01" y2="-21.58" /><line x1="139.01" y1="-21.58" x2="84.01" y2="-21.58" />
<line x1="84.01" y1="-21.58" x2="67.02" y2="-73.89" /><line x1="156.01" y1="-73.89" x2="139.01" y2="-126.2" />
<line x1="139.01" y1="-126.2" x2="183.51" y2="-158.53" /><line x1="183.51" y1="-158.53" x2="200.5" y2="-106.22" />
<line x1="200.5" y1="-106.22" x2="156.01" y2="-73.89" /><line x1="183.51" y1="-158.53" x2="200.5" y2="-106.22" />
<line x1="200.5" y1="-106.22" x2="255.5" y2="-106.22" /><line x1="255.5" y1="-106.22" x2="238.51" y2="-158.53" />
<line x1="238.51" y1="-158.53" x2="183.51" y2="-158.53" /><line x1="255.5" y1="-106.22" x2="200.5" y2="-106.22" />
<line x1="200.5" y1="-106.22" x2="245" y2="-73.89" /><line x1="245" y1="-73.89" x2="300" y2="-73.89" />
<line x1="300" y1="-73.89" x2="255.5" y2="-106.22" /><line x1="245" y1="-73.89" x2="228" y2="-21.58" />
<line x1="228" y1="-21.58" x2="183.51" y2="-53.91" /><line x1="183.51" y1="-53.91" x2="139.01" y2="-21.58" />
<line x1="139.01" y1="-21.58" x2="156.01" y2="-73.89" /><line x1="156.01" y1="-73.89" x2="200.5" y2="-106.22" />
<line x1="200.5" y1="-106.22" x2="183.51" y2="-53.91" /><line x1="156.01" y1="-73.89" x2="139.01" y2="-126.2" />
<line x1="139.01" y1="-126.2" x2="183.51" y2="-158.53" /><line x1="183.51" y1="-158.53" x2="200.5" y2="-106.22" />
<line x1="200.5" y1="-106.22" x2="156.01" y2="-73.89" /><line x1="228" y1="-21.58" x2="183.51" y2="10.75" />
<line x1="183.51" y1="10.75" x2="200.5" y2="63.06" /><line x1="200.5" y1="63.06" x2="156.01" y2="30.73" />
<line x1="156.01" y1="30.73" x2="139.01" y2="-21.58" /><line x1="139.01" y1="-21.58" x2="183.51" y2="10.75" />
<line x1="156.01" y1="30.73" x2="200.5" y2="63.06" /><line x1="200.5" y1="63.06" x2="183.51" y2="115.36" />
<line x1="183.51" y1="115.36" x2="139.01" y2="83.04" /><line x1="139.01" y1="83.04" x2="156.01" y2="30.73" />
<line x1="183.51" y1="115.36" x2="238.51" y2="115.36" /><line x1="238.51" y1="115.36" x2="255.5" y2="63.06" />
<line x1="255.5" y1="63.06" x2="200.5" y2="63.06" /><line x1="200.5" y1="63.06" x2="183.51" y2="115.36" />
<line x1="255.5" y1="63.06" x2="300" y2="30.73" /><line x1="300" y1="30.73" x2="245" y2="30.73" />
<line x1="245" y1="30.73" x2="200.5" y2="63.06" /><line x1="200.5" y1="63.06" x2="255.5" y2="63.06" />
<line x1="245" y1="30.73" x2="228" y2="-21.58" /><line x1="183.51" y1="115.36" x2="200.5" y2="63.06" />
<line x1="200.5" y1="63.06" x2="156.01" y2="30.73" /><line x1="156.01" y1="30.73" x2="139.01" y2="83.04" />
<line x1="139.01" y1="83.04" x2="183.51" y2="115.36" /><line x1="156.01" y1="30.73" x2="139.01" y2="-21.58" />
<line x1="139.01" y1="-21.58" x2="122.02" y2="30.73" /><line x1="122.02" y1="30.73" x2="139.01" y2="83.04" />
<line x1="139.01" y1="83.04" x2="156.01" y2="30.73" /><line x1="122.02" y1="30.73" x2="67.02" y2="30.73" />
<line x1="67.02" y1="30.73" x2="84.01" y2="-21.58" /><line x1="84.01" y1="-21.58" x2="139.01" y2="-21.58" />
<line x1="139.01" y1="-21.58" x2="122.02" y2="30.73" /><line x1="122.02" y1="30.73" x2="67.02" y2="30.73" />
<line x1="139.01" y1="-21.58" x2="183.51" y2="10.75" /><line x1="183.51" y1="10.75" x2="228" y2="-21.58" />
<line x1="228" y1="-21.58" x2="183.51" y2="-53.91" /><line x1="183.51" y1="-53.91" x2="139.01" y2="-21.58" />
<line x1="228" y1="-21.58" x2="183.51" y2="10.75" /><line x1="183.51" y1="10.75" x2="200.5" y2="63.06" />
<line x1="200.5" y1="63.06" x2="156.01" y2="30.73" /><line x1="156.01" y1="30.73" x2="139.01" y2="-21.58" />
<line x1="139.01" y1="-21.58" x2="183.51" y2="10.75" /><line x1="228" y1="-21.58" x2="245" y2="30.73" />
<line x1="245" y1="30.73" x2="300" y2="30.73" /><line x1="300" y1="30.73" x2="255.5" y2="63.06" />
<line x1="255.5" y1="63.06" x2="200.5" y2="63.06" /><line x1="200.5" y1="63.06" x2="245" y2="30.73" />
<line x1="255.5" y1="63.06" x2="300" y2="30.73" /><line x1="300" y1="30.73" x2="344.5" y2="63.06" />
<line x1="344.5" y1="63.06" x2="300" y2="95.38" /><line x1="300" y1="95.38" x2="255.5" y2="63.06" />
<line x1="344.5" y1="63.06" x2="361.49" y2="10.75" /><line x1="361.49" y1="10.75" x2="317" y2="-21.58" />
<line x1="317" y1="-21.58" x2="300" y2="30.73" /><line x1="300" y1="30.73" x2="344.5" y2="63.06" />
<line x1="317" y1="-21.58" x2="300" y2="-73.89" /><line x1="300" y1="-73.89" x2="283" y2="-21.58" />
<line x1="283" y1="-21.58" x2="300" y2="30.73" /><line x1="300" y1="30.73" x2="317" y2="-21.58" />
<line x1="283" y1="-21.58" x2="228" y2="-21.58" /><line x1="344.5" y1="63.06" x2="300" y2="30.73" />
<line x1="300" y1="30.73" x2="255.5" y2="63.06" /><line x1="255.5" y1="63.06" x2="300" y2="95.38" />
<line x1="300" y1="95.38" x2="344.5" y2="63.06" /><line x1="255.5" y1="63.06" x2="300" y2="95.38" />
<line x1="300" y1="95.38" x2="344.5" y2="63.06" /><line x1="344.5" y1="63.06" x2="327.5" y2="115.36" />
<line x1="327.5" y1="115.36" x2="283" y2="147.69" /><line x1="283" y1="147.69" x2="300" y2="95.38" />
<line x1="327.5" y1="115.36" x2="344.5" y2="167.67" /><line x1="344.5" y1="167.67" x2="361.49" y2="115.36" />
<line x1="361.49" y1="115.36" x2="344.5" y2="63.06" /><line x1="344.5" y1="63.06" x2="327.5" y2="115.36" />
<line x1="361.49" y1="115.36" x2="416.49" y2="115.36" /><line x1="416.49" y1="115.36" x2="361.49" y2="115.36" />
<line x1="361.49" y1="115.36" x2="344.5" y2="63.06" /><line x1="344.5" y1="63.06" x2="399.5" y2="63.06" />
<line x1="399.5" y1="63.06" x2="416.49" y2="115.36" /><line x1="327.5" y1="115.36" x2="344.5" y2="167.67" />
<line x1="344.5" y1="167.67" x2="300" y2="200" /><line x1="300" y1="200" x2="283" y2="147.69" />
<line x1="283" y1="147.69" x2="327.5" y2="115.36" /><line x1="300" y1="200" x2="283" y2="147.69" />
<line x1="283" y1="147.69" x2="228" y2="147.69" /><line x1="228" y1="147.69" x2="245" y2="200" />
<line x1="245" y1="200" x2="300" y2="200" /><line x1="228" y1="147.69" x2="183.51" y2="115.36" />
<line x1="183.51" y1="115.36" x2="200.5" y2="167.67" /><line x1="200.5" y1="167.67" x2="245" y2="200" />
<line x1="245" y1="200" x2="228" y2="147.69" /><line x1="200.5" y1="167.67" x2="156.01" y2="200" />
<line x1="156.01" y1="200" x2="139.01" y2="147.69" /><line x1="139.01" y1="147.69" x2="183.51" y2="115.36" />
<line x1="183.51" y1="115.36" x2="200.5" y2="167.67" /><line x1="200.5" y1="167.67" x2="156.01" y2="200" />
<line x1="183.51" y1="115.36" x2="238.51" y2="115.36" /><line x1="238.51" y1="115.36" x2="255.5" y2="63.06" />
<line x1="255.5" y1="63.06" x2="200.5" y2="63.06" /><line x1="200.5" y1="63.06" x2="183.51" y2="115.36" />
<line x1="255.5" y1="63.06" x2="238.51" y2="115.36" /><line x1="238.51" y1="115.36" x2="283" y2="147.69" />
<line x1="283" y1="147.69" x2="228" y2="147.69" /><line x1="228" y1="147.69" x2="183.51" y2="115.36" />
<line x1="183.51" y1="115.36" x2="238.51" y2="115.36" /><line x1="183.51" y1="115.36" x2="200.5" y2="63.06" />
<line x1="200.5" y1="63.06" x2="156.01" y2="30.73" /><line x1="156.01" y1="30.73" x2="139.01" y2="83.04" />
<line x1="139.01" y1="83.04" x2="183.51" y2="115.36" /><line x1="156.01" y1="30.73" x2="200.5" y2="63.06" />
<line x1="200.5" y1="63.06" x2="183.51" y2="10.75" /><line x1="183.51" y1="10.75" x2="139.01" y2="-21.58" />
<line x1="139.01" y1="-21.58" x2="156.01" y2="30.73" /><line x1="183.51" y1="10.75" x2="228" y2="-21.58" />
<line x1="228" y1="-21.58" x2="245" y2="30.73" /><line x1="245" y1="30.73" x2="300" y2="30.73" />
<line x1="300" y1="30.73" x2="255.5" y2="63.06" /><line x1="255.5" y1="63.06" x2="200.5" y2="63.06" />
<line x1="200.5" y1="63.06" x2="245" y2="30.73" /><line x1="255.5" y1="63.06" x2="238.51" y2="115.36" />
<line x1="238.51" y1="115.36" x2="183.51" y2="115.36" /><line x1="183.51" y1="115.36" x2="200.5" y2="63.06" />
<line x1="200.5" y1="63.06" x2="255.5" y2="63.06" /><line x1="300" y1="200" x2="245" y2="200" />
<line x1="245" y1="200" x2="228" y2="252.31" /><line x1="228" y1="252.31" x2="283" y2="252.31" />
<line x1="283" y1="252.31" x2="300" y2="200" /><line x1="228" y1="252.31" x2="183.51" y2="284.64" />
<line x1="183.51" y1="284.64" x2="238.51" y2="284.64" /><line x1="238.51" y1="284.64" x2="283" y2="252.31" />
<line x1="283" y1="252.31" x2="228" y2="252.31" /><line x1="238.51" y1="284.64" x2="255.5" y2="336.94" />
<line x1="255.5" y1="336.94" x2="200.5" y2="336.94" /><line x1="200.5" y1="336.94" x2="183.51" y2="284.64" />
<line x1="183.51" y1="284.64" x2="238.51" y2="284.64" /><line x1="238.51" y1="284.64" x2="255.5" y2="336.94" />
<line x1="183.51" y1="284.64" x2="200.5" y2="232.33" /><line x1="200.5" y1="232.33" x2="156.01" y2="200" />
<line x1="156.01" y1="200" x2="139.01" y2="252.31" /><line x1="139.01" y1="252.31" x2="183.51" y2="284.64" />
<line x1="156.01" y1="200" x2="200.5" y2="232.33" /><line x1="200.5" y1="232.33" x2="245" y2="200" />
<line x1="245" y1="200" x2="228" y2="252.31" /><line x1="228" y1="252.31" x2="183.51" y2="284.64" />
<line x1="183.51" y1="284.64" x2="200.5" y2="232.33" /><line x1="183.51" y1="284.64" x2="200.5" y2="336.94" />
<line x1="200.5" y1="336.94" x2="255.5" y2="336.94" /><line x1="255.5" y1="336.94" x2="238.51" y2="284.64" />
<line x1="238.51" y1="284.64" x2="183.51" y2="284.64" /><line x1="255.5" y1="336.94" x2="200.5" y2="336.94" />
<line x1="200.5" y1="336.94" x2="245" y2="369.27" /><line x1="245" y1="369.27" x2="300" y2="369.27" />
<line x1="300" y1="369.27" x2="255.5" y2="336.94" /><line x1="245" y1="369.27" x2="228" y2="421.58" />
<line x1="228" y1="421.58" x2="183.51" y2="389.25" /><line x1="183.51" y1="389.25" x2="139.01" y2="421.58" />
<line x1="139.01" y1="421.58" x2="156.01" y2="369.27" /><line x1="156.01" y1="369.27" x2="200.5" y2="336.94" />
<line x1="200.5" y1="336.94" x2="183.51" y2="389.25" /><line x1="156.01" y1="369.27" x2="139.01" y2="316.96" />
<line x1="139.01" y1="316.96" x2="183.51" y2="284.64" /><line x1="183.51" y1="284.64" x2="200.5" y2="336.94" />
<line x1="200.5" y1="336.94" x2="156.01" y2="369.27" /><line x1="228" y1="421.58" x2="283" y2="421.58" />
<line x1="283" y1="421.58" x2="300" y2="369.27" /><line x1="300" y1="369.27" x2="317" y2="421.58" />
<line x1="317" y1="421.58" x2="300" y2="473.89" /><line x1="300" y1="473.89" x2="283" y2="421.58" />
<line x1="317" y1="421.58" x2="300" y2="369.27" /><line x1="300" y1="369.27" x2="344.5" y2="336.94" />
<line x1="344.5" y1="336.94" x2="361.49" y2="389.25" /><line x1="361.49" y1="389.25" x2="317" y2="421.58" />
<line x1="344.5" y1="336.94" x2="300" y2="304.62" /><line x1="300" y1="304.62" x2="255.5" y2="336.94" />
<line x1="255.5" y1="336.94" x2="300" y2="369.27" /><line x1="300" y1="369.27" x2="344.5" y2="336.94" />
<line x1="255.5" y1="336.94" x2="200.5" y2="336.94" /><line x1="200.5" y1="336.94" x2="245" y2="369.27" />
<line x1="245" y1="369.27" x2="300" y2="369.27" /><line x1="300" y1="369.27" x2="255.5" y2="336.94" />
<line x1="245" y1="369.27" x2="228" y2="421.58" /><line x1="344.5" y1="336.94" x2="399.5" y2="336.94" />
<line x1="399.5" y1="336.94" x2="416.49" y2="284.64" /><line x1="416.49" y1="284.64" x2="361.49" y2="284.64" />
<line x1="361.49" y1="284.64" x2="344.5" y2="336.94" /><line x1="416.49" y1="284.64" x2="361.49" y2="284.64" />
<line x1="361.49" y1="284.64" x2="344.5" y2="336.94" /><line x1="344.5" y1="336.94" x2="327.5" y2="284.64" />
<line x1="327.5" y1="284.64" x2="344.5" y2="232.33" /><line x1="344.5" y1="232.33" x2="361.49" y2="284.64" />
<line x1="327.5" y1="284.64" x2="283" y2="252.31" /><line x1="283" y1="252.31" x2="300" y2="304.62" />
<line x1="300" y1="304.62" x2="344.5" y2="336.94" /><line x1="344.5" y1="336.94" x2="327.5" y2="284.64" />
<line x1="300" y1="304.62" x2="255.5" y2="336.94" /><line x1="255.5" y1="336.94" x2="300" y2="304.62" />
<line x1="300" y1="304.62" x2="344.5" y2="336.94" /><line x1="344.5" y1="336.94" x2="300" y2="369.27" />
<line x1="300" y1="369.27" x2="255.5" y2="336.94" /><line x1="327.5" y1="284.64" x2="283" y2="252.31" />
<line x1="283" y1="252.31" x2="300" y2="200" /><line x1="300" y1="200" x2="344.5" y2="232.33" />
<line x1="344.5" y1="232.33" x2="327.5" y2="284.64" /><line x1="228" y1="421.58" x2="245" y2="369.27" />
<line x1="245" y1="369.27" x2="200.5" y2="336.94" /><line x1="200.5" y1="336.94" x2="255.5" y2="336.94" />
<line x1="255.5" y1="336.94" x2="300" y2="369.27" /><line x1="300" y1="369.27" x2="245" y2="369.27" />
<line x1="255.5" y1="336.94" x2="200.5" y2="336.94" /><line x1="200.5" y1="336.94" x2="183.51" y2="284.64" />
<line x1="183.51" y1="284.64" x2="238.51" y2="284.64" /><line x1="238.51" y1="284.64" x2="255.5" y2="336.94" />
<line x1="183.51" y1="284.64" x2="139.01" y2="316.96" /><line x1="139.01" y1="316.96" x2="156.01" y2="369.27" />
<line x1="156.01" y1="369.27" x2="200.5" y2="336.94" /><line x1="200.5" y1="336.94" x2="183.51" y2="284.64" />
<line x1="156.01" y1="369.27" x2="139.01" y2="421.58" /><line x1="139.01" y1="421.58" x2="183.51" y2="389.25" />
<line x1="183.51" y1="389.25" x2="200.5" y2="336.94" /><line x1="200.5" y1="336.94" x2="156.01" y2="369.27" />
<line x1="183.51" y1="389.25" x2="228" y2="421.58" /><line x1="183.51" y1="284.64" x2="139.01" y2="316.96" />
<line x1="139.01" y1="316.96" x2="156.01" y2="369.27" /><line x1="156.01" y1="369.27" x2="200.5" y2="336.94" />
<line x1="200.5" y1="336.94" x2="183.51" y2="284.64" /><line x1="156.01" y1="369.27" x2="139.01" y2="421.58" />
<line x1="139.01" y1="421.58" x2="183.51" y2="389.25" /><line x1="183.51" y1="389.25" x2="200.5" y2="336.94" />
<line x1="200.5" y1="336.94" x2="156.01" y2="369.27" /><line x1="183.51" y1="389.25" x2="228" y2="421.58" />
<line x1="228" y1="421.58" x2="183.51" y2="453.91" /><line x1="183.51" y1="453.91" x2="139.01" y2="421.58" />
<line x1="139.01" y1="421.58" x2="183.51" y2="389.25" /><line x1="183.51" y1="389.25" x2="228" y2="421.58" />
<line x1="139.01" y1="421.58" x2="122.02" y2="369.27" /><line x1="122.02" y1="369.27" x2="67.02" y2="369.27" />
<line x1="67.02" y1="369.27" x2="84.01" y2="421.58" /><line x1="84.01" y1="421.58" x2="139.01" y2="421.58" />
<line x1="67.02" y1="369.27" x2="122.02" y2="369.27" /><line x1="122.02" y1="369.27" x2="139.01" y2="316.96" />
<line x1="139.01" y1="316.96" x2="156.01" y2="369.27" /><line x1="156.01" y1="369.27" x2="139.01" y2="421.58" />
<line x1="139.01" y1="421.58" x2="122.02" y2="369.27" /><line x1="139.01" y1="421.58" x2="84.01" y2="421.58" />
<line x1="84.01" y1="421.58" x2="67.02" y2="473.89" /><line x1="67.02" y1="473.89" x2="122.02" y2="473.89" />
<line x1="122.02" y1="473.89" x2="139.01" y2="421.58" /><line x1="67.02" y1="473.89" x2="122.02" y2="473.89" />
<line x1="122.02" y1="473.89" x2="139.01" y2="421.58" /><line x1="139.01" y1="421.58" x2="156.01" y2="473.89" />
<line x1="156.01" y1="473.89" x2="139.01" y2="526.2" /><line x1="139.01" y1="526.2" x2="122.02" y2="473.89" />
<line x1="156.01" y1="473.89" x2="200.5" y2="506.22" /><line x1="200.5" y1="506.22" x2="183.51" y2="453.91" />
<line x1="183.51" y1="453.91" x2="139.01" y2="421.58" /><line x1="139.01" y1="421.58" x2="156.01" y2="473.89" />
<line x1="183.51" y1="453.91" x2="228" y2="421.58" /><line x1="228" y1="421.58" x2="183.51" y2="453.91" />
<line x1="183.51" y1="453.91" x2="139.01" y2="421.58" /><line x1="139.01" y1="421.58" x2="183.51" y2="389.25" />
<line x1="183.51" y1="389.25" x2="228" y2="421.58" /><line x1="156.01" y1="473.89" x2="200.5" y2="506.22" />
<line x1="200.5" y1="506.22" x2="183.51" y2="558.53" /><line x1="183.51" y1="558.53" x2="139.01" y2="526.2" />
<line x1="139.01" y1="526.2" x2="156.01" y2="473.89" /><line x1="183.51" y1="558.53" x2="200.5" y2="506.22" />
<line x1="200.5" y1="506.22" x2="156.01" y2="473.89" /><line x1="156.01" y1="473.89" x2="139.01" y2="526.2" />
<line x1="139.01" y1="526.2" x2="183.51" y2="558.53" /><line x1="156.01" y1="473.89" x2="200.5" y2="506.22" />
<line x1="200.5" y1="506.22" x2="183.51" y2="453.91" /><line x1="183.51" y1="453.91" x2="139.01" y2="421.58" />
<line x1="139.01" y1="421.58" x2="156.01" y2="473.89" /><line x1="183.51" y1="453.91" x2="228" y2="421.58" />
<line x1="228" y1="421.58" x2="245" y2="473.89" /><line x1="245" y1="473.89" x2="300" y2="473.89" />
<line x1="300" y1="473.89" x2="255.5" y2="506.22" /><line x1="255.5" y1="506.22" x2="200.5" y2="506.22" />
<line x1="200.5" y1="506.22" x2="245" y2="473.89" /><line x1="255.5" y1="506.22" x2="238.51" y2="558.53" />
<line x1="238.51" y1="558.53" x2="183.51" y2="558.53" /><line x1="183.51" y1="558.53" x2="200.5" y2="506.22" />
<line x1="200.5" y1="506.22" x2="255.5" y2="506.22" /><line x1="139.01" y1="421.58" x2="84.01" y2="421.58" />
<line x1="84.01" y1="421.58" x2="67.02" y2="473.89" /><line x1="67.02" y1="473.89" x2="122.02" y2="473.89" />
<line x1="122.02" y1="473.89" x2="139.01" y2="421.58" /><line x1="67.02" y1="473.89" x2="84.01" y2="421.58" />
<line x1="84.01" y1="421.58" x2="39.52" y2="453.91" /><line x1="39.52" y1="453.91" x2="22.52" y2="506.22" />
<line x1="22.52" y1="506.22" x2="67.02" y2="473.89" /><line x1="39.52" y1="453.91" x2="-4.98" y2="421.58" />
<line x1="-4.98" y1="421.58" x2="39.52" y2="389.25" /><line x1="39.52" y1="389.25" x2="22.52" y2="336.94" />
<line x1="22.52" y1="336.94" x2="67.02" y2="369.27" /><line x1="67.02" y1="369.27" x2="84.01" y2="421.58" />
<line x1="84.01" y1="421.58" x2="39.52" y2="389.25" /><line x1="67.02" y1="369.27" x2="122.02" y2="369.27" />
<line x1="122.02" y1="369.27" x2="139.01" y2="421.58" /><line x1="139.01" y1="421.58" x2="84.01" y2="421.58" />
<line x1="84.01" y1="421.58" x2="67.02" y2="369.27" /><line x1="-4.98" y1="421.58" x2="39.52" y2="389.25" />
<line x1="39.52" y1="389.25" x2="22.52" y2="336.94" /><line x1="22.52" y1="336.94" x2="67.02" y2="369.27" />
<line x1="67.02" y1="369.27" x2="84.01" y2="421.58" /><line x1="84.01" y1="421.58" x2="39.52" y2="389.25" />
<line x1="67.02" y1="369.27" x2="22.52" y2="336.94" /><line x1="22.52" y1="336.94" x2="39.52" y2="284.64" />
<line x1="39.52" y1="284.64" x2="84.01" y2="316.96" /><line x1="84.01" y1="316.96" x2="67.02" y2="369.27" />
<line x1="39.52" y1="284.64" x2="-15.48" y2="284.64" /><line x1="-15.48" y1="284.64" x2="-32.48" y2="336.94" />
<line x1="-32.48" y1="336.94" x2="22.52" y2="336.94" /><line x1="22.52" y1="336.94" x2="39.52" y2="284.64" />
<line x1="-32.48" y1="336.94" x2="-76.98" y2="369.27" /><line x1="-76.98" y1="369.27" x2="-21.98" y2="369.27" />
<line x1="-21.98" y1="369.27" x2="22.52" y2="336.94" /><line x1="22.52" y1="336.94" x2="-32.48" y2="336.94" />
<line x1="-21.98" y1="369.27" x2="-4.98" y2="421.58" /><line x1="39.52" y1="284.64" x2="84.01" y2="252.31" />
<line x1="84.01" y1="252.31" x2="67.02" y2="200" /><line x1="67.02" y1="200" x2="22.52" y2="232.33" />
<line x1="22.52" y1="232.33" x2="39.52" y2="284.64" /><line x1="67.02" y1="200" x2="22.52" y2="232.33" />
<line x1="22.52" y1="232.33" x2="39.52" y2="284.64" /><line x1="39.52" y1="284.64" x2="-4.98" y2="252.31" />
<line x1="-4.98" y1="252.31" x2="-21.98" y2="200" /><line x1="-21.98" y1="200" x2="22.52" y2="232.33" />
<line x1="-4.98" y1="252.31" x2="-59.98" y2="252.31" /><line x1="-59.98" y1="252.31" x2="-15.48" y2="284.64" />
<line x1="-15.48" y1="284.64" x2="39.52" y2="284.64" /><line x1="39.52" y1="284.64" x2="-4.98" y2="252.31" />
<line x1="-15.48" y1="284.64" x2="-32.48" y2="336.94" /><line x1="-32.48" y1="336.94" x2="-15.48" y2="284.64" />
<line x1="-15.48" y1="284.64" x2="39.52" y2="284.64" /><line x1="39.52" y1="284.64" x2="22.52" y2="336.94" />
<line x1="22.52" y1="336.94" x2="-32.48" y2="336.94" /><line x1="-4.98" y1="252.31" x2="-59.98" y2="252.31" />
<line x1="-59.98" y1="252.31" x2="-76.98" y2="200" /><line x1="-76.98" y1="200" x2="-21.98" y2="200" />
<line x1="-21.98" y1="200" x2="-4.98" y2="252.31" /><line x1="-76.98" y1="200" x2="-21.98" y2="200" />
<line x1="-21.98" y1="200" x2="-4.98" y2="147.69" /><line x1="-4.98" y1="147.69" x2="-59.98" y2="147.69" />
<line x1="-59.98" y1="147.69" x2="-76.98" y2="200" /><line x1="-4.98" y1="147.69" x2="-21.98" y2="200" />
<line x1="-21.98" y1="200" x2="22.52" y2="167.67" /><line x1="22.52" y1="167.67" x2="39.52" y2="115.36" />
<line x1="39.52" y1="115.36" x2="-4.98" y2="147.69" /><line x1="22.52" y1="167.67" x2="67.02" y2="200" />
<line x1="67.02" y1="200" x2="22.52" y2="232.33" /><line x1="22.52" y1="232.33" x2="39.52" y2="284.64" />
<line x1="39.52" y1="284.64" x2="-4.98" y2="252.31" /><line x1="-4.98" y1="252.31" x2="-21.98" y2="200" />
<line x1="-21.98" y1="200" x2="22.52" y2="232.33" /><line x1="-4.98" y1="252.31" x2="-59.98" y2="252.31" />
<line x1="-59.98" y1="252.31" x2="-76.98" y2="200" /><line x1="-76.98" y1="200" x2="-21.98" y2="200" />
<line x1="-21.98" y1="200" x2="-4.98" y2="252.31" /><line x1="67.02" y1="200" x2="84.01" y2="252.31" />
<line x1="84.01" y1="252.31" x2="139.01" y2="252.31" /><line x1="139.01" y1="252.31" x2="94.52" y2="284.64" />
<line x1="94.52" y1="284.64" x2="39.52" y2="284.64" /><line x1="39.52" y1="284.64" x2="84.01" y2="252.31" />
<line x1="94.52" y1="284.64" x2="139.01" y2="252.31" /><line x1="139.01" y1="252.31" x2="183.51" y2="284.64" />
<line x1="183.51" y1="284.64" x2="139.01" y2="316.96" /><line x1="139.01" y1="316.96" x2="94.52" y2="284.64" />
<line x1="183.51" y1="284.64" x2="200.5" y2="232.33" /><line x1="200.5" y1="232.33" x2="156.01" y2="200" />
<line x1="156.01" y1="200" x2="139.01" y2="252.31" /><line x1="139.01" y1="252.31" x2="183.51" y2="284.64" />
<line x1="156.01" y1="200" x2="139.01" y2="147.69" /><line x1="139.01" y1="147.69" x2="122.02" y2="200" />
<line x1="122.02" y1="200" x2="139.01" y2="252.31" /><line x1="139.01" y1="252.31" x2="156.01" y2="200" />
<line x1="122.02" y1="200" x2="67.02" y2="200" /><line x1="183.51" y1="284.64" x2="139.01" y2="252.31" />
<line x1="139.01" y1="252.31" x2="94.52" y2="284.64" /><line x1="94.52" y1="284.64" x2="139.01" y2="316.96" />
<line x1="139.01" y1="316.96" x2="183.51" y2="284.64" /><line x1="94.52" y1="284.64" x2="39.52" y2="284.64" />
<line x1="39.52" y1="284.64" x2="84.01" y2="316.96" /><line x1="84.01" y1="316.96" x2="139.01" y2="316.96" />
<line x1="139.01" y1="316.96" x2="94.52" y2="284.64" /><line x1="84.01" y1="316.96" x2="67.02" y2="369.27" />
<line x1="67.02" y1="369.27" x2="22.52" y2="336.94" /><line x1="22.52" y1="336.94" x2="39.52" y2="284.64" />
<line x1="39.52" y1="284.64" x2="84.01" y2="316.96" /><line x1="84.01" y1="316.96" x2="67.02" y2="369.27" />
<line x1="39.52" y1="284.64" x2="84.01" y2="252.31" /><line x1="84.01" y1="252.31" x2="67.02" y2="200" />
<line x1="67.02" y1="200" x2="22.52" y2="232.33" /><line x1="22.52" y1="232.33" x2="39.52" y2="284.64" />
<line x1="67.02" y1="200" x2="84.01" y2="252.31" /><line x1="84.01" y1="252.31" x2="139.01" y2="252.31" />
<line x1="139.01" y1="252.31" x2="94.52" y2="284.64" /><line x1="94.52" y1="284.64" x2="39.52" y2="284.64" />
<line x1="39.52" y1="284.64" x2="84.01" y2="252.31" /><line x1="67.02" y1="200" x2="122.02" y2="200" />
<line x1="122.02" y1="200" x2="139.01" y2="147.69" /><line x1="139.01" y1="147.69" x2="156.01" y2="200" />
<line x1="156.01" y1="200" x2="139.01" y2="252.31" /><line x1="139.01" y1="252.31" x2="122.02" y2="200" />
<line x1="156.01" y1="200" x2="139.01" y2="147.69" /><line x1="139.01" y1="147.69" x2="183.51" y2="115.36" />
<line x1="183.51" y1="115.36" x2="200.5" y2="167.67" /><line x1="200.5" y1="167.67" x2="156.01" y2="200" />
<line x1="183.51" y1="115.36" x2="139.01" y2="83.04" /><line x1="139.01" y1="83.04" x2="94.52" y2="115.36" />
<line x1="94.52" y1="115.36" x2="139.01" y2="147.69" /><line x1="139.01" y1="147.69" x2="183.51" y2="115.36" />
<line x1="94.52" y1="115.36" x2="39.52" y2="115.36" /><line x1="39.52" y1="115.36" x2="84.01" y2="147.69" />
<line x1="84.01" y1="147.69" x2="139.01" y2="147.69" /><line x1="139.01" y1="147.69" x2="94.52" y2="115.36" />
<line x1="84.01" y1="147.69" x2="67.02" y2="200" /><line x1="183.51" y1="115.36" x2="139.01" y2="147.69" />
<line x1="139.01" y1="147.69" x2="156.01" y2="200" /><line x1="156.01" y1="200" x2="200.5" y2="167.67" />
<line x1="200.5" y1="167.67" x2="183.51" y2="115.36" /><line x1="156.01" y1="200" x2="200.5" y2="167.67" />
<line x1="200.5" y1="167.67" x2="183.51" y2="115.36" /><line x1="183.51" y1="115.36" x2="228" y2="147.69" />
<line x1="228" y1="147.69" x2="245" y2="200" /><line x1="245" y1="200" x2="200.5" y2="167.67" />
<line x1="228" y1="147.69" x2="283" y2="147.69" /><line x1="283" y1="147.69" x2="238.51" y2="115.36" />
<line x1="238.51" y1="115.36" x2="183.51" y2="115.36" /><line x1="183.51" y1="115.36" x2="228" y2="147.69" />
<line x1="238.51" y1="115.36" x2="255.5" y2="63.06" /><line x1="255.5" y1="63.06" x2="238.51" y2="115.36" />
<line x1="238.51" y1="115.36" x2="183.51" y2="115.36" /><line x1="183.51" y1="115.36" x2="200.5" y2="63.06" />
<line x1="200.5" y1="63.06" x2="255.5" y2="63.06" /><line x1="228" y1="147.69" x2="283" y2="147.69" />
<line x1="283" y1="147.69" x2="300" y2="200" /><line x1="300" y1="200" x2="245" y2="200" />
<line x1="245" y1="200" x2="228" y2="147.69" /><line x1="300" y1="200" x2="245" y2="200" />
<line x1="245" y1="200" x2="228" y2="252.31" /><line x1="228" y1="252.31" x2="283" y2="252.31" />
<line x1="283" y1="252.31" x2="300" y2="200" /><line x1="228" y1="252.31" x2="183.51" y2="284.64" />
<line x1="183.51" y1="284.64" x2="238.51" y2="284.64" /><line x1="238.51" y1="284.64" x2="283" y2="252.31" />
<line x1="283" y1="252.31" x2="228" y2="252.31" /><line x1="238.51" y1="284.64" x2="255.5" y2="336.94" />
<line x1="255.5" y1="336.94" x2="200.5" y2="336.94" /><line x1="200.5" y1="336.94" x2="183.51" y2="284.64" />
<line x1="183.51" y1="284.64" x2="238.51" y2="284.64" /><line x1="238.51" y1="284.64" x2="255.5" y2="336.94" />
<line x1="183.51" y1="284.64" x2="200.5" y2="232.33" /><line x1="200.5" y1="232.33" x2="156.01" y2="200" />
<line x1="156.01" y1="200" x2="139.01" y2="252.31" /><line x1="139.01" y1="252.31" x2="183.51" y2="284.64" />
<line x1="156.01" y1="200" x2="200.5" y2="232.33" /><line x1="200.5" y1="232.33" x2="245" y2="200" />
<line x1="245" y1="200" x2="228" y2="252.31" /><line x1="228" y1="252.31" x2="183.51" y2="284.64" />
<line x1="183.51" y1="284.64" x2="200.5" y2="232.33" /><line x1="183.51" y1="284.64" x2="139.01" y2="252.31" />
<line x1="139.01" y1="252.31" x2="94.52" y2="284.64" /><line x1="94.52" y1="284.64" x2="139.01" y2="316.96" />
<line x1="139.01" y1="316.96" x2="183.51" y2="284.64" /><line x1="94.52" y1="284.64" x2="139.01" y2="252.31" />
<line x1="139.01" y1="252.31" x2="84.01" y2="252.31" /><line x1="84.01" y1="252.31" x2="39.52" y2="284.64" />
<line x1="39.52" y1="284.64" x2="94.52" y2="284.64" /><line x1="84.01" y1="252.31" x2="67.02" y2="200" />
<line x1="67.02" y1="200" x2="122.02" y2="200" /><line x1="122.02" y1="200" x2="139.01" y2="147.69" />
<line x1="139.01" y1="147.69" x2="156.01" y2="200" /><line x1="156.01" y1="200" x2="139.01" y2="252.31" />
<line x1="139.01" y1="252.31" x2="122.02" y2="200" /><line x1="156.01" y1="200" x2="200.5" y2="232.33" />
<line x1="200.5" y1="232.33" x2="183.51" y2="284.64" /><line x1="183.51" y1="284.64" x2="139.01" y2="252.31" />
<line x1="139.01" y1="252.31" x2="156.01" y2="200" /><line x1="300" y1="200" x2="283" y2="252.31" />
<line x1="283" y1="252.31" x2="327.5" y2="284.64" /><line x1="327.5" y1="284.64" x2="344.5" y2="232.33" />
<line x1="344.5" y1="232.33" x2="300" y2="200" /><line x1="327.5" y1="284.64" x2="344.5" y2="336.94" />
<line x1="344.5" y1="336.94" x2="361.49" y2="284.64" /><line x1="361.49" y1="284.64" x2="344.5" y2="232.33" />
<line x1="344.5" y1="232.33" x2="327.5" y2="284.64" /><line x1="361.49" y1="284.64" x2="416.49" y2="284.64" />
<line x1="416.49" y1="284.64" x2="399.5" y2="336.94" /><line x1="399.5" y1="336.94" x2="344.5" y2="336.94" />
<line x1="344.5" y1="336.94" x2="361.49" y2="284.64" /><line x1="361.49" y1="284.64" x2="416.49" y2="284.64" />
<line x1="344.5" y1="336.94" x2="300" y2="304.62" /><line x1="300" y1="304.62" x2="255.5" y2="336.94" />
<line x1="255.5" y1="336.94" x2="300" y2="369.27" /><line x1="300" y1="369.27" x2="344.5" y2="336.94" />
<line x1="255.5" y1="336.94" x2="300" y2="304.62" /><line x1="300" y1="304.62" x2="283" y2="252.31" />
<line x1="283" y1="252.31" x2="327.5" y2="284.64" /><line x1="327.5" y1="284.64" x2="344.5" y2="336.94" />
<line x1="344.5" y1="336.94" x2="300" y2="304.62" /><line x1="344.5" y1="336.94" x2="399.5" y2="336.94" />
<line x1="399.5" y1="336.94" x2="416.49" y2="284.64" /><line x1="416.49" y1="284.64" x2="361.49" y2="284.64" />
<line x1="361.49" y1="284.64" x2="344.5" y2="336.94" /><line x1="416.49" y1="284.64" x2="399.5" y2="336.94" />
<line x1="399.5" y1="336.94" x2="443.99" y2="304.62" /><line x1="443.99" y1="304.62" x2="460.99" y2="252.31" />
<line x1="460.99" y1="252.31" x2="416.49" y2="284.64" /><line x1="443.99" y1="304.62" x2="488.49" y2="336.94" />
<line x1="488.49" y1="336.94" x2="443.99" y2="369.27" /><line x1="443.99" y1="369.27" x2="460.99" y2="421.58" />
<line x1="460.99" y1="421.58" x2="416.49" y2="389.25" /><line x1="416.49" y1="389.25" x2="399.5" y2="336.94" />
<line x1="399.5" y1="336.94" x2="443.99" y2="369.27" /><line x1="416.49" y1="389.25" x2="361.49" y2="389.25" />
<line x1="361.49" y1="389.25" x2="344.5" y2="336.94" /><line x1="344.5" y1="336.94" x2="399.5" y2="336.94" />
<line x1="399.5" y1="336.94" x2="416.49" y2="389.25" /><line x1="488.49" y1="336.94" x2="505.48" y2="284.64" />
<line x1="505.48" y1="284.64" x2="460.99" y2="252.31" /><line x1="460.99" y1="252.31" x2="515.99" y2="252.31" />
<line x1="515.99" y1="252.31" x2="560.48" y2="284.64" /><line x1="560.48" y1="284.64" x2="505.48" y2="284.64" />
<line x1="515.99" y1="252.31" x2="460.99" y2="252.31" /><line x1="460.99" y1="252.31" x2="443.99" y2="200" />
<line x1="443.99" y1="200" x2="498.99" y2="200" /><line x1="498.99" y1="200" x2="515.99" y2="252.31" />
<line x1="443.99" y1="200" x2="399.5" y2="232.33" /><line x1="399.5" y1="232.33" x2="416.49" y2="284.64" />
<line x1="416.49" y1="284.64" x2="460.99" y2="252.31" /><line x1="460.99" y1="252.31" x2="443.99" y2="200" />
<line x1="416.49" y1="284.64" x2="399.5" y2="336.94" /><line x1="399.5" y1="336.94" x2="443.99" y2="304.62" />
<line x1="443.99" y1="304.62" x2="460.99" y2="252.31" /><line x1="460.99" y1="252.31" x2="416.49" y2="284.64" />
<line x1="443.99" y1="304.62" x2="488.49" y2="336.94" /><line x1="443.99" y1="200" x2="460.99" y2="147.69" />
<line x1="460.99" y1="147.69" x2="416.49" y2="115.36" /><line x1="416.49" y1="115.36" x2="399.5" y2="167.67" />
<line x1="399.5" y1="167.67" x2="443.99" y2="200" /><line x1="416.49" y1="115.36" x2="399.5" y2="167.67" />
<line x1="399.5" y1="167.67" x2="443.99" y2="200" /><line x1="443.99" y1="200" x2="388.99" y2="200" />
<line x1="388.99" y1="200" x2="344.5" y2="167.67" /><line x1="344.5" y1="167.67" x2="399.5" y2="167.67" />
<line x1="388.99" y1="200" x2="344.5" y2="232.33" /><line x1="344.5" y1="232.33" x2="399.5" y2="232.33" />
<line x1="399.5" y1="232.33" x2="443.99" y2="200" /><line x1="443.99" y1="200" x2="388.99" y2="200" />
<line x1="399.5" y1="232.33" x2="416.49" y2="284.64" /><line x1="416.49" y1="284.64" x2="399.5" y2="232.33" />
<line x1="399.5" y1="232.33" x2="443.99" y2="200" /><line x1="443.99" y1="200" x2="460.99" y2="252.31" />
<line x1="460.99" y1="252.31" x2="416.49" y2="284.64" /><line x1="388.99" y1="200" x2="344.5" y2="232.33" />
<line x1="344.5" y1="232.33" x2="300" y2="200" /><line x1="300" y1="200" x2="344.5" y2="167.67" />
<line x1="344.5" y1="167.67" x2="388.99" y2="200" /><line x1="488.49" y1="336.94" x2="443.99" y2="304.62" />
<line x1="443.99" y1="304.62" x2="399.5" y2="336.94" /><line x1="399.5" y1="336.94" x2="416.49" y2="284.64" />
<line x1="416.49" y1="284.64" x2="460.99" y2="252.31" /><line x1="460.99" y1="252.31" x2="443.99" y2="304.62" />
<line x1="416.49" y1="284.64" x2="399.5" y2="336.94" /><line x1="399.5" y1="336.94" x2="344.5" y2="336.94" />
<line x1="344.5" y1="336.94" x2="361.49" y2="284.64" /><line x1="361.49" y1="284.64" x2="416.49" y2="284.64" />
<line x1="344.5" y1="336.94" x2="361.49" y2="389.25" /><line x1="361.49" y1="389.25" x2="416.49" y2="389.25" />
<line x1="416.49" y1="389.25" x2="399.5" y2="336.94" /><line x1="399.5" y1="336.94" x2="344.5" y2="336.94" />
<line x1="416.49" y1="389.25" x2="460.99" y2="421.58" /><line x1="460.99" y1="421.58" x2="443.99" y2="369.27" />
<line x1="443.99" y1="369.27" x2="399.5" y2="336.94" /><line x1="399.5" y1="336.94" x2="416.49" y2="389.25" />
<line x1="443.99" y1="369.27" x2="488.49" y2="336.94" /><line x1="344.5" y1="336.94" x2="361.49" y2="389.25" />
<line x1="361.49" y1="389.25" x2="416.49" y2="389.25" /><line x1="416.49" y1="389.25" x2="399.5" y2="336.94" />
<line x1="399.5" y1="336.94" x2="344.5" y2="336.94" /><line x1="416.49" y1="389.25" x2="460.99" y2="421.58" />
<line x1="460.99" y1="421.58" x2="443.99" y2="369.27" /><line x1="443.99" y1="369.27" x2="399.5" y2="336.94" />
<line x1="399.5" y1="336.94" x2="416.49" y2="389.25" /><line x1="443.99" y1="369.27" x2="488.49" y2="336.94" />
<line x1="488.49" y1="336.94" x2="505.48" y2="389.25" /><line x1="505.48" y1="389.25" x2="460.99" y2="421.58" />
<line x1="460.99" y1="421.58" x2="443.99" y2="369.27" /><line x1="443.99" y1="369.27" x2="488.49" y2="336.94" />
<line x1="460.99" y1="421.58" x2="405.99" y2="421.58" /><line x1="405.99" y1="421.58" x2="388.99" y2="473.89" />
<line x1="388.99" y1="473.89" x2="443.99" y2="473.89" /><line x1="443.99" y1="473.89" x2="460.99" y2="421.58" />
<line x1="388.99" y1="473.89" x2="405.99" y2="421.58" /><line x1="405.99" y1="421.58" x2="361.49" y2="389.25" />
<line x1="361.49" y1="389.25" x2="416.49" y2="389.25" /><line x1="416.49" y1="389.25" x2="460.99" y2="421.58" />
<line x1="460.99" y1="421.58" x2="405.99" y2="421.58" /><line x1="460.99" y1="421.58" x2="443.99" y2="473.89" />
<line x1="443.99" y1="473.89" x2="488.49" y2="506.22" /><line x1="488.49" y1="506.22" x2="505.48" y2="453.91" />
<line x1="505.48" y1="453.91" x2="460.99" y2="421.58" /><line x1="488.49" y1="506.22" x2="505.48" y2="453.91" />
<line x1="505.48" y1="453.91" x2="460.99" y2="421.58" /><line x1="460.99" y1="421.58" x2="515.99" y2="421.58" />
<line x1="515.99" y1="421.58" x2="560.48" y2="453.91" /><line x1="560.48" y1="453.91" x2="505.48" y2="453.91" />
<line x1="515.99" y1="421.58" x2="560.48" y2="389.25" /><line x1="560.48" y1="389.25" x2="505.48" y2="389.25" />
<line x1="505.48" y1="389.25" x2="460.99" y2="421.58" /><line x1="460.99" y1="421.58" x2="515.99" y2="421.58" />
<line x1="505.48" y1="389.25" x2="488.49" y2="336.94" /><line x1="488.49" y1="336.94" x2="505.48" y2="389.25" />
<line x1="505.48" y1="389.25" x2="460.99" y2="421.58" /><line x1="460.99" y1="421.58" x2="443.99" y2="369.27" />
<line x1="443.99" y1="369.27" x2="488.49" y2="336.94" /><line x1="515.99" y1="421.58" x2="560.48" y2="389.25" />
<line x1="560.48" y1="389.25" x2="604.98" y2="421.58" /><line x1="604.98" y1="421.58" x2="560.48" y2="453.91" />
<line x1="560.48" y1="453.91" x2="515.99" y2="421.58" /><line x1="604.98" y1="421.58" x2="560.48" y2="389.25" />
<line x1="560.48" y1="389.25" x2="515.99" y2="421.58" /><line x1="515.99" y1="421.58" x2="560.48" y2="453.91" />
<line x1="560.48" y1="453.91" x2="604.98" y2="421.58" /><line x1="515.99" y1="421.58" x2="560.48" y2="389.25" />
<line x1="560.48" y1="389.25" x2="505.48" y2="389.25" /><line x1="505.48" y1="389.25" x2="460.99" y2="421.58" />
<line x1="460.99" y1="421.58" x2="515.99" y2="421.58" /><line x1="505.48" y1="389.25" x2="488.49" y2="336.94" />
<line x1="488.49" y1="336.94" x2="543.49" y2="336.94" /><line x1="543.49" y1="336.94" x2="560.48" y2="284.64" />
<line x1="560.48" y1="284.64" x2="577.48" y2="336.94" /><line x1="577.48" y1="336.94" x2="560.48" y2="389.25" />
<line x1="560.48" y1="389.25" x2="543.49" y2="336.94" /><line x1="577.48" y1="336.94" x2="621.98" y2="369.27" />
<line x1="621.98" y1="369.27" x2="604.98" y2="421.58" /><line x1="604.98" y1="421.58" x2="560.48" y2="389.25" />
<line x1="560.48" y1="389.25" x2="577.48" y2="336.94" /><line x1="460.99" y1="421.58" x2="443.99" y2="473.89" />
<line x1="443.99" y1="473.89" x2="488.49" y2="506.22" /><line x1="488.49" y1="506.22" x2="505.48" y2="453.91" />
<line x1="505.48" y1="453.91" x2="460.99" y2="421.58" /><line x1="488.49" y1="506.22" x2="443.99" y2="473.89" />
<line x1="443.99" y1="473.89" x2="460.99" y2="526.2" /><line x1="460.99" y1="526.2" x2="505.48" y2="558.53" />
<line x1="505.48" y1="558.53" x2="488.49" y2="506.22" /><line x1="460.99" y1="526.2" x2="416.49" y2="558.53" />
<line x1="416.49" y1="558.53" x2="399.5" y2="506.22" /><line x1="399.5" y1="506.22" x2="344.5" y2="506.22" />
<line x1="344.5" y1="506.22" x2="388.99" y2="473.89" /><line x1="388.99" y1="473.89" x2="443.99" y2="473.89" />
<line x1="443.99" y1="473.89" x2="399.5" y2="506.22" /><line x1="388.99" y1="473.89" x2="405.99" y2="421.58" />
<line x1="405.99" y1="421.58" x2="460.99" y2="421.58" /><line x1="460.99" y1="421.58" x2="443.99" y2="473.89" />
<line x1="443.99" y1="473.89" x2="388.99" y2="473.89" /><line x1="416.49" y1="558.53" x2="399.5" y2="506.22" />
<line x1="399.5" y1="506.22" x2="344.5" y2="506.22" /><line x1="344.5" y1="506.22" x2="388.99" y2="473.89" />
<line x1="388.99" y1="473.89" x2="443.99" y2="473.89" /><line x1="443.99" y1="473.89" x2="399.5" y2="506.22" />
<line x1="388.99" y1="473.89" x2="344.5" y2="506.22" /><line x1="344.5" y1="506.22" x2="300" y2="473.89" />
<line x1="300" y1="473.89" x2="344.5" y2="441.56" /><line x1="344.5" y1="441.56" x2="388.99" y2="473.89" />
<line x1="300" y1="473.89" x2="283" y2="526.2" /><line x1="283" y1="526.2" x2="327.5" y2="558.53" />
<line x1="327.5" y1="558.53" x2="344.5" y2="506.22" /><line x1="344.5" y1="506.22" x2="300" y2="473.89" />
<line x1="327.5" y1="558.53" x2="344.5" y2="610.83" /><line x1="344.5" y1="610.83" x2="361.49" y2="558.53" />
<line x1="361.49" y1="558.53" x2="344.5" y2="506.22" /><line x1="344.5" y1="506.22" x2="327.5" y2="558.53" />
<line x1="361.49" y1="558.53" x2="416.49" y2="558.53" /><line x1="300" y1="473.89" x2="283" y2="421.58" />
<line x1="283" y1="421.58" x2="228" y2="421.58" /><line x1="228" y1="421.58" x2="245" y2="473.89" />
<line x1="245" y1="473.89" x2="300" y2="473.89" /><line x1="228" y1="421.58" x2="245" y2="473.89" />
<line x1="245" y1="473.89" x2="300" y2="473.89" /><line x1="300" y1="473.89" x2="255.5" y2="506.22" />
<line x1="255.5" y1="506.22" x2="200.5" y2="506.22" /><line x1="200.5" y1="506.22" x2="245" y2="473.89" />
<line x1="255.5" y1="506.22" x2="238.51" y2="558.53" /><line x1="238.51" y1="558.53" x2="283" y2="526.2" />
<line x1="283" y1="526.2" x2="300" y2="473.89" /><line x1="300" y1="473.89" x2="255.5" y2="506.22" />
<line x1="283" y1="526.2" x2="327.5" y2="558.53" /><line x1="327.5" y1="558.53" x2="283" y2="526.2" />
<line x1="283" y1="526.2" x2="300" y2="473.89" /><line x1="300" y1="473.89" x2="344.5" y2="506.22" />
<line x1="344.5" y1="506.22" x2="327.5" y2="558.53" /><line x1="255.5" y1="506.22" x2="238.51" y2="558.53" />
<line x1="238.51" y1="558.53" x2="183.51" y2="558.53" /><line x1="183.51" y1="558.53" x2="200.5" y2="506.22" />
<line x1="200.5" y1="506.22" x2="255.5" y2="506.22" /><line x1="183.51" y1="558.53" x2="200.5" y2="506.22" />
<line x1="200.5" y1="506.22" x2="156.01" y2="473.89" /><line x1="156.01" y1="473.89" x2="139.01" y2="526.2" />
<line x1="139.01" y1="526.2" x2="183.51" y2="558.53" /><line x1="156.01" y1="473.89" x2="200.5" y2="506.22" />
<line x1="200.5" y1="506.22" x2="183.51" y2="453.91" /><line x1="183.51" y1="453.91" x2="139.01" y2="421.58" />
<line x1="139.01" y1="421.58" x2="156.01" y2="473.89" /><line x1="183.51" y1="453.91" x2="228" y2="421.58" />
<line x1="228" y1="421.58" x2="245" y2="473.89" /><line x1="245" y1="473.89" x2="300" y2="473.89" />
<line x1="300" y1="473.89" x2="255.5" y2="506.22" /><line x1="255.5" y1="506.22" x2="200.5" y2="506.22" />
<line x1="200.5" y1="506.22" x2="245" y2="473.89" /><line x1="255.5" y1="506.22" x2="238.51" y2="558.53" />
<line x1="238.51" y1="558.53" x2="183.51" y2="558.53" /><line x1="183.51" y1="558.53" x2="200.5" y2="506.22" />
<line x1="200.5" y1="506.22" x2="255.5" y2="506.22" /><line x1="228" y1="421.58" x2="283" y2="421.58" />
<line x1="283" y1="421.58" x2="300" y2="369.27" /><line x1="300" y1="369.27" x2="317" y2="421.58" />
<line x1="317" y1="421.58" x2="300" y2="473.89" /><line x1="300" y1="473.89" x2="283" y2="421.58" />
<line x1="317" y1="421.58" x2="300" y2="369.27" /><line x1="300" y1="369.27" x2="344.5" y2="336.94" />
<line x1="344.5" y1="336.94" x2="361.49" y2="389.25" /><line x1="361.49" y1="389.25" x2="317" y2="421.58" />
<line x1="344.5" y1="336.94" x2="300" y2="304.62" /><line x1="300" y1="304.62" x2="255.5" y2="336.94" />
<line x1="255.5" y1="336.94" x2="300" y2="369.27" /><line x1="300" y1="369.27" x2="344.5" y2="336.94" />
<line x1="255.5" y1="336.94" x2="200.5" y2="336.94" /><line x1="200.5" y1="336.94" x2="245" y2="369.27" />
<line x1="245" y1="369.27" x2="300" y2="369.27" /><line x1="300" y1="369.27" x2="255.5" y2="336.94" />
<line x1="245" y1="369.27" x2="228" y2="421.58" /><line x1="344.5" y1="336.94" x2="300" y2="369.27" />
<line x1="300" y1="369.27" x2="317" y2="421.58" /><line x1="317" y1="421.58" x2="361.49" y2="389.25" />
<line x1="361.49" y1="389.25" x2="344.5" y2="336.94" /><line x1="317" y1="421.58" x2="300" y2="473.89" />
<line x1="300" y1="473.89" x2="344.5" y2="441.56" /><line x1="344.5" y1="441.56" x2="361.49" y2="389.25" />
<line x1="361.49" y1="389.25" x2="317" y2="421.58" /><line x1="344.5" y1="441.56" x2="388.99" y2="473.89" />
<line x1="388.99" y1="473.89" x2="344.5" y2="506.22" /><line x1="344.5" y1="506.22" x2="300" y2="473.89" />
<line x1="300" y1="473.89" x2="344.5" y2="441.56" /><line x1="344.5" y1="441.56" x2="388.99" y2="473.89" />
<line x1="300" y1="473.89" x2="283" y2="421.58" /><line x1="283" y1="421.58" x2="228" y2="421.58" />
<line x1="228" y1="421.58" x2="245" y2="473.89" /><line x1="245" y1="473.89" x2="300" y2="473.89" />
<line x1="228" y1="421.58" x2="283" y2="421.58" /><line x1="283" y1="421.58" x2="300" y2="369.27" />
<line x1="300" y1="369.27" x2="317" y2="421.58" /><line x1="317" y1="421.58" x2="300" y2="473.89" />
<line x1="300" y1="473.89" x2="283" y2="421.58" /><line x1="228" y1="421.58" x2="245" y2="369.27" />
<line x1="245" y1="369.27" x2="200.5" y2="336.94" /><line x1="200.5" y1="336.94" x2="255.5" y2="336.94" />
<line x1="255.5" y1="336.94" x2="300" y2="369.27" /><line x1="300" y1="369.27" x2="245" y2="369.27" />
<line x1="255.5" y1="336.94" x2="200.5" y2="336.94" /><line x1="200.5" y1="336.94" x2="183.51" y2="284.64" />
<line x1="183.51" y1="284.64" x2="238.51" y2="284.64" /><line x1="238.51" y1="284.64" x2="255.5" y2="336.94" />
<line x1="183.51" y1="284.64" x2="139.01" y2="316.96" /><line x1="139.01" y1="316.96" x2="156.01" y2="369.27" />
<line x1="156.01" y1="369.27" x2="200.5" y2="336.94" /><line x1="200.5" y1="336.94" x2="183.51" y2="284.64" />
<line x1="156.01" y1="369.27" x2="139.01" y2="421.58" /><line x1="139.01" y1="421.58" x2="183.51" y2="389.25" />
<line x1="183.51" y1="389.25" x2="200.5" y2="336.94" /><line x1="200.5" y1="336.94" x2="156.01" y2="369.27" />
<line x1="183.51" y1="389.25" x2="228" y2="421.58" /><line x1="183.51" y1="284.64" x2="200.5" y2="336.94" />
<line x1="200.5" y1="336.94" x2="255.5" y2="336.94" /><line x1="255.5" y1="336.94" x2="238.51" y2="284.64" />
<line x1="238.51" y1="284.64" x2="183.51" y2="284.64" /><line x1="255.5" y1="336.94" x2="238.51" y2="284.64" />
<line x1="238.51" y1="284.64" x2="183.51" y2="284.64" /><line x1="183.51" y1="284.64" x2="228" y2="252.31" />
<line x1="228" y1="252.31" x2="283" y2="252.31" /><line x1="283" y1="252.31" x2="238.51" y2="284.64" />
<line x1="228" y1="252.31" x2="245" y2="200" /><line x1="245" y1="200" x2="200.5" y2="232.33" />
<line x1="200.5" y1="232.33" x2="183.51" y2="284.64" /><line x1="183.51" y1="284.64" x2="228" y2="252.31" />
<line x1="200.5" y1="232.33" x2="156.01" y2="200" /><line x1="156.01" y1="200" x2="200.5" y2="232.33" />
<line x1="200.5" y1="232.33" x2="183.51" y2="284.64" /><line x1="183.51" y1="284.64" x2="139.01" y2="252.31" />
<line x1="139.01" y1="252.31" x2="156.01" y2="200" /><line x1="228" y1="252.31" x2="245" y2="200" />
<line x1="245" y1="200" x2="300" y2="200" /><line x1="300" y1="200" x2="283" y2="252.31" />
<line x1="283" y1="252.31" x2="228" y2="252.31" /><line x1="300" y1="200" x2="283" y2="252.31" />
<line x1="283" y1="252.31" x2="327.5" y2="284.64" /><line x1="327.5" y1="284.64" x2="344.5" y2="232.33" />
<line x1="344.5" y1="232.33" x2="300" y2="200" /><line x1="327.5" y1="284.64" x2="344.5" y2="336.94" />
<line x1="344.5" y1="336.94" x2="361.49" y2="284.64" /><line x1="361.49" y1="284.64" x2="344.5" y2="232.33" />
<line x1="344.5" y1="232.33" x2="327.5" y2="284.64" /><line x1="361.49" y1="284.64" x2="416.49" y2="284.64" />
<line x1="416.49" y1="284.64" x2="399.5" y2="336.94" /><line x1="399.5" y1="336.94" x2="344.5" y2="336.94" />
<line x1="344.5" y1="336.94" x2="361.49" y2="284.64" /><line x1="361.49" y1="284.64" x2="416.49" y2="284.64" />
<line x1="344.5" y1="336.94" x2="300" y2="304.62" /><line x1="300" y1="304.62" x2="255.5" y2="336.94" />
<line x1="255.5" y1="336.94" x2="300" y2="369.27" /><line x1="300" y1="369.27" x2="344.5" y2="336.94" />
<line x1="255.5" y1="336.94" x2="300" y2="304.62" /><line x1="300" y1="304.62" x2="283" y2="252.31" />
<line x1="283" y1="252.31" x2="327.5" y2="284.64" /><line x1="327.5" y1="284.64" x2="344.5" y2="336.94" />
<line x1="344.5" y1="336.94" x2="300" y2="304.62" /><line x1="344.5" y1="336.94" x2="300" y2="369.27" />
<line x1="300" y1="369.27" x2="317" y2="421.58" /><line x1="317" y1="421.58" x2="361.49" y2="389.25" />
<line x1="361.49" y1="389.25" x2="344.5" y2="336.94" /><line x1="317" y1="421.58" x2="300" y2="369.27" />
<line x1="300" y1="369.27" x2="283" y2="421.58" /><line x1="283" y1="421.58" x2="300" y2="473.89" />
<line x1="300" y1="473.89" x2="317" y2="421.58" /><line x1="283" y1="421.58" x2="228" y2="421.58" />
<line x1="228" y1="421.58" x2="245" y2="369.27" /><line x1="245" y1="369.27" x2="200.5" y2="336.94" />
<line x1="200.5" y1="336.94" x2="255.5" y2="336.94" /><line x1="255.5" y1="336.94" x2="300" y2="369.27" />
<line x1="300" y1="369.27" x2="245" y2="369.27" /><line x1="255.5" y1="336.94" x2="300" y2="304.62" />
<line x1="300" y1="304.62" x2="344.5" y2="336.94" /><line x1="344.5" y1="336.94" x2="300" y2="369.27" />
<line x1="300" y1="369.27" x2="255.5" y2="336.94" /></svg>

