<svg xmlns="http://www.w3.org/2000/svg" xmlns:svg="http://www.w3.org/2000/svg" xmlns:xlink="http://www.w3.org/1999/xlink" width="1200" height="825"><rect width="100%" height="100%" fill="#d3d004" /><defs><g id="block"><polygon points="-25,-25,-25,25,25,25" style="fill:white;stroke:white" />
<polygon points="25,25,25,-25,-25,-25" style="fill:black;stroke:black" />
<rect x="-20" y="-20" width="40" height="40" fill="#3250ff" /></g>
</defs>
<use xlink:href="#block" transform="rotate(90,75,75) translate(75,75)" />
<use xlink:href="#block" transform="rotate(90,75,150) translate(75,150)" />
<use xlink:href="#block" transform="rotate(180,75,225) translate(75,225)" />
<use xlink:href="#block" transform="rotate(180,75,300) translate(75,300)" />
<use xlink:href="#block" transform="rotate(270,75,375) translate(75,375)" />
<use xlink:href="#block" transform="rotate(270,75,450) translate(75,450)" />
<use xlink:href="#block" transform="rotate(0,75,525) translate(75,525)" />
<use xlink:href="#block" transform="rotate(0,75,600) translate(75,600)" />
<use xlink:href="#block" transform="rotate(90,75,675) translate(75,675)" />
<use xlink:href="#block" transform="rotate(90,75,750) translate(75,750)" />
<use xlink:href="#block" transform="rotate(90,150,75) translate(150,75)" />
<use xlink:href="#block" transform="rotate(180,150,150) translate(150,150)" />
<use xlink:href="#block" transform="rotate(180,150,225) translate(150,225)" />
<use xlink:href="#block" transform="rotate(270,150,300) translate(150,300)" />
<use xlink:href="#block" transform="rotate(270,150,375) translate(150,375)" />
<use xlink:href="#block" transform="rotate(0,150,450) translate(150,450)" />
<use xlink:href="#block" transform="rotate(0,150,525) translate(150,525)" />
<use xlink:href="#block" transform="rotate(90,150,600) translate(150,600)" />
<use xlink:href="#block" transform="rotate(90,150,675) translate(150,675)" />
<use xlink:href="#block" transform="rotate(180,150,750) translate(150,750)" />
<use xlink:href="#block" transform="rotate(180,225,75) translate(225,75)" />
<use xlink:href="#block" transform="rotate(180,225,150) translate(225,150)" />
<use xlink:href="#block" transform="rotate(270,225,225) translate(225,225)" />
<use xlink:href="#block" transform="rotate(270,225,300) translate(225,300)" />
<use xlink:href="#block" transform="rotate(0,225,375) translate(225,375)" />
<use xlink:href="#block" transform="rotate(0,225,450) translate(225,450)" />
<use xlink:href="#block" transform="rotate(90,225,525) translate(225,525)" />
<use xlink:href="#block" transform="rotate(90,225,600) translate(225,600)" />
<use xlink:href="#block" transform="rotate(180,225,675) translate(225,675)" />
<use xlink:href="#block" transform="rotate(180,225,750) translate(225,750)" />
<use xlink:href="#block" transform="rotate(180,300,75) translate(300,75)" />
<use xlink:href="#block" transform="rotate(270,300,150) translate(300,150)" />
<use xlink:href="#block" transform="rotate(270,300,225) translate(300,225)" />
<use xlink:href="#block" transform="rotate(0,300,300) translate(300,300)" />
<use xlink:href="#block" transform="rotate(0,300,375) translate(300,375)" />
<use xlink:href="#block" transform="rotate(90,300,450) translate(300,450)" />
<use xlink:href="#block" transform="rotate(90,300,525) translate(300,525)" />
<use xlink:href="#block" transform="rotate(180,300,600) translate(300,600)" />
<use xlink:href="#block" transform="rotate(180,300,675) translate(300,675)" />
<use xlink:href="#block" transform="rotate(270,300,750) translate(300,750)" />
<use xlink:href="#block" transform="rotate(270,375,75) translate(375,75)" />
<use xlink:href="#block" transform="rotate(270,375,150) translate(375,150)" />
<use xlink:href="#block" transform="rotate(0,375,225) translate(375,225)" />
<use xlink:href="#block" transform="rotate(0,375,300) translate(375,300)" />
<use xlink:href="#block" transform="rotate(90,375,375) translate(375,375)" />
<use xlink:href="#block" transform="rotate(90,375,450) translate(375,450)" />
<use xlink:href="#block" transform="rotate(180,375,525) translate(375,525)" />
<use xlink:href="#block" transform="rotate(180,375,600) translate(375,600)" />
<use xlink:href="#block" transform="rotate(270,375,675) translate(375,675)" />
<use xlink:href="#block" transform="rotate(270,375,750) translate(375,750)" />
<use xlink:href="#block" transform="rotate(270,450,75) translate(450,75)" />
<use xlink:href="#block" transform="rotate(0,450,150) translate(450,150)" />
<use xlink:href="#block" transform="rotate(0,450,225) translate(450,225)" />
<use xlink:href="#block" transform="rotate(90,450,300) translate(450,300)" />
<use xlink:href="#block" transform="rotate(90,450,375) translate(450,375)" />
<use xlink:href="#block" transform="rotate(180,450,450) translate(450,450)" />
<use xlink:href="#block" transform="rotate(180,450,525) translate(450,525)" />
<use xlink:href="#block" transform="rotate(270,450,600) translate(450,600)" />
<use xlink:href="#block" transform="rotate(270,450,675) translate(450,675)" />
<use xlink:href="#block" transform="rotate(0,450,750) translate(450,750)" />
<use xlink:href="#block" transform="rotate(0,525,75) translate(525,75)" />
<use xlink:href="#block" transform="rotate(0,525,150) translate(525,150)" />
<use xlink:href="#block" transform="rotate(90,525,225) translate(525,225)" />
<use xlink:href="#block" transform="rotate(90,525,300) translate(525,300)" />
<use xlink:href="#block" transform="rotate(180,525,375) translate(525,375)" />
<use xlink:href="#block" transform="rotate(180,525,450) translate(525,450)" />
<use xlink:href="#block" transform="rotate(270,525,525) translate(525,525)" />
<use xlink:href="#block" transform="rotate(270,525,600) translate(525,600)" />
<use xlink:href="#block" transform="rotate(0,525,675) translate(525,675)" />
<use xlink:href="#block" transform="rotate(0,525,750) translate(525,750)" />
<use xlink:href="#block" transform="rotate(0,600,75) translate(600,75)" />
<use xlink:href="#block" transform="rotate(90,600,150) translate(600,150)" />
<use xlink:href="#block" transform="rotate(90,600,225) translate(600,225)" />
<use xlink:href="#block" transform="rotate(180,600,300) translate(600,300)" />
<use xlink:href="#block" transform="rotate(180,600,375) translate(600,375)" />
<use xlink:href="#block" transform="rotate(270,600,450) translate(600,450)" />
<use xlink:href="#block" transform="rotate(270,600,525) translate(600,525)" />
<use xlink:href="#block" transform="rotate(0,600,600) translate(600,600)" />
<use xlink:href="#block" transform="rotate(0,600,675) translate(600,675)" />
<use xlink:href="#block" transform="rotate(90,600,750) translate(600,750)" />
<use xlink:href="#block" transform="rotate(90,675,75) translate(675,75)" />
<use xlink:href="#block" transform="rotate(90,675,150) translate(675,150)" />
<use xlink:href="#block" transform="rotate(180,675,225) translate(675,225)" />
<use xlink:href="#block" transform="rotate(180,675,300) translate(675,300)" />
<use xlink:href="#block" transform="rotate(270,675,375) translate(675,375)" />
<use xlink:href="#block" transform="rotate(270,675,450) translate(675,450)" />
<use xlink:href="#block" transform="rotate(0,675,525) translate(675,525)" />
<use xlink:href="#block" transform="rotate(0,675,600) translate(675,600)" />
<use xlink:href="#block" transform="rotate(90,675,675) translate(675,675)" />
<use xlink:href="#block" transform="rotate(90,675,750) translate(675,750)" />
<use xlink:href="#block" transform="rotate(90,750,75) translate(750,75)" />
<use xlink:href="#block" transform="rotate(180,750,150) translate(750,150)" />
<use xlink:href="#block" transform="rotate(180,750,225) translate(750,225)" />
<use xlink:href="#block" transform="rotate(270,750,300) translate(750,300)" />
<use xlink:href="#block" transform="rotate(270,750,375) translate(750,375)" />
<use xlink:href="#block" transform="rotate(0,750,450) translate(750,450)" />
<use xlink:href="#block" transform="rotate(0,750,525) translate(750,525)" />
<use xlink:href="#block" transform="rotate(90,750,600) translate(750,600)" />
<use xlink:href="#block" transform="rotate(90,750,675) translate(750,675)" />
<use xlink:href="#block" transform="rotate(180,750,750) translate(750,750)" />
<use xlink:href="#block" transform="rotate(180,825,75) translate(825,75)" />
<use xlink:href="#block" transform="rotate(180,825,150) translate(825,150)" />
<use xlink:href="#block" transform="rotate(270,825,225) translate(825,225)" />
<use xlink:href="#block" transform="rotate(270,825,300) translate(825,300)" />
<use xlink:href="#block" transform="rotate(0,825,375) translate(825,375)" />
<use xlink:href="#block" transform="rotate(0,825,450) translate(825,450)" />
<use xlink:href="#block" transform="rotate(90,825,525) translate(825,525)" />
<use xlink:href="#block" transform="rotate(90,825,600) translate(825,600)" />
<use xlink:href="#block" transform="rotate(180,825,675) translate(825,675)" />
<use xlink:href="#block" transform="rotate(180,825,750) translate(825,750)" />
<use xlink:href="#block" transform="rotate(180,900,75) translate(900,75)" />
<use xlink:href="#block" transform="rotate(270,900,150) translate(900,150)" />
<use xlink:href="#block" transform="rotate(270,900,225) translate(900,225)" />
<use xlink:href="#block" transform="rotate(0,900,300) translate(900,300)" />
<use xlink:href="#block" transform="rotate(0,900,375) translate(900,375)" />
<use xlink:href="#block" transform="rotate(90,900,450) translate(900,450)" />
<use xlink:href="#block" transform="rotate(90,900,525) translate(900,525)" />
<use xlink:href="#block" transform="rotate(180,900,600) translate(900,600)" />
<use xlink:href="#block" transform="rotate(180,900,675) translate(900,675)" />
<use xlink:href="#block" transform="rotate(270,900,750) translate(900,750)" />
<use xlink:href="#block" transform="rotate(270,975,75) translate(975,75)" />
<use xlink:href="#block" transform="rotate(270,975,150) translate(975,150)" />
<use xlink:href="#block" transform="rotate(0,975,225) translate(975,225)" />
<use xlink:href="#block" transform="rotate(0,975,300) translate(975,300)" />
<use xlink:href="#block" transform="rotate(90,975,375) translate(975,375)" />
<use xlink:href="#block" transform="rotate(90,975,450) translate(975,450)" />
<use xlink:href="#block" transform="rotate(180,975,525) translate(975,525)" />
<use xlink:href="#block" transform="rotate(180,975,600) translate(975,600)" />
<use xlink:href="#block" transform="rotate(270,975,675) translate(975,675)" />
<use xlink:href="#block" transform="rotate(270,975,750) translate(975,750)" />
<use xlink:href="#block" transform="rotate(270,1050,75) translate(1050,75)" />
<use xlink:href="#block" transform="rotate(0,1050,150) translate(1050,150)" />
<use xlink:href="#block" transform="rotate(0,1050,225) translate(1050,225)" />
<use xlink:href="#block" transform="rotate(90,1050,300) translate(1050,300)" />
<use xlink:href="#block" transform="rotate(90,1050,375) translate(1050,375)" />
<use xlink:href="#block" transform="rotate(180,1050,450) translate(1050,450)" />
<use xlink:href="#block" transform="rotate(180,1050,525) translate(1050,525)" />
<use xlink:href="#block" transform="rotate(270,1050,600) translate(1050,600)" />
<use xlink:href="#block" transform="rotate(270,1050,675) translate(1050,675)" />
<use xlink:href="#block" transform="rotate(0,1050,750) translate(1050,750)" />
<use xlink:href="#block" transform="rotate(0,1125,75) translate(1125,75)" />
<use xlink:href="#block" transform="rotate(0,1125,150) translate(1125,150)" />
<use xlink:href="#block" transform="rotate(90,1125,225) translate(1125,225)" />
<use xlink:href="#block" transform="rotate(90,1125,300) translate(1125,300)" />
<use xlink:href="#block" transform="rotate(180,1125,375) translate(1125,375)" />
<use xlink:href="#block" transform="rotate(180,1125,450) translate(1125,450)" />
<use xlink:href="#block" transform="rotate(270,1125,525) translate(1125,525)" />
<use xlink:href="#block" transform="rotate(270,1125,600) translate(1125,600)" />
<use xlink:href="#block" transform="rotate(0,1125,675) translate(1125,675)" />
<use xlink:href="#block" transform="rotate(0,1125,750) translate(1125,750)" />
</svg>
