<svg xmlns="http://www.w3.org/2000/svg" xmlns:svg="http://www.w3.org/2000/svg" xmlns:xlink="http://www.w3.org/1999/xlink" width="512" height="512"><g transform="translate(81.92,395.52)"><line x1="20.48" y1="-4.992" x2="61.44" y2="-5.176889" style="stroke:#3333ff; stroke-width: 1.5" />
<line x1="61.44" y1="-5.176889" x2="102.4" y2="-58.055111" style="stroke:#3333ff; stroke-width: 1.5" />
<line x1="102.4" y1="-58.055111" x2="143.36" y2="-70.442667" style="stroke:#3333ff; stroke-width: 1.5" />
<line x1="143.36" y1="-70.442667" x2="184.32" y2="-107.235556" style="stroke:#3333ff; stroke-width: 1.5" />
<line x1="184.32" y1="-107.235556" x2="225.28" y2="-140.885333" style="stroke:#3333ff; stroke-width: 1.5" />
<line x1="225.28" y1="-140.885333" x2="266.24" y2="-185.813333" style="stroke:#3333ff; stroke-width: 1.5" />
<line x1="266.24" y1="-185.813333" x2="307.2" y2="-240.355556" style="stroke:#3333ff; stroke-width: 1.5" />
<line x1="307.2" y1="-240.355556" x2="348.16" y2="-276.039111" style="stroke:#3333ff; stroke-width: 1.5" />
<line x1="348.16" y1="-276.039111" x2="389.12" y2="-332.8" style="stroke:#3333ff; stroke-width: 1.5" />
<text transform="rotate(-90)" y="16.384" x="-8.96" font-size="12" dominant-baseline="middle" text-anchor="end">0</text>
<text transform="rotate(-90)" y="57.344" x="-8.96" font-size="12" dominant-baseline="middle" text-anchor="end">1</text>
<text transform="rotate(-90)" y="98.304" x="-8.96" font-size="12" dominant-baseline="middle" text-anchor="end">2</text>
<text transform="rotate(-90)" y="139.264" x="-8.96" font-size="12" dominant-baseline="middle" text-anchor="end">3</text>
<text transform="rotate(-90)" y="180.224" x="-8.96" font-size="12" dominant-baseline="middle" text-anchor="end">4</text>
<text transform="rotate(-90)" y="221.184" x="-8.96" font-size="12" dominant-baseline="middle" text-anchor="end">5</text>
<text transform="rotate(-90)" y="262.144" x="-8.96" font-size="12" dominant-baseline="middle" text-anchor="end">6</text>
<text transform="rotate(-90)" y="303.104" x="-8.96" font-size="12" dominant-baseline="middle" text-anchor="end">7</text>
<text transform="rotate(-90)" y="344.064" x="-8.96" font-size="12" dominant-baseline="middle" text-anchor="end">8</text>
<text transform="rotate(-90)" y="385.024" x="-8.96" font-size="12" dominant-baseline="middle" text-anchor="end">9</text>
<line x1="-4.48" x2="4.48" y1="0" y2="0" style="stroke:black; stroke-width: 1" />
<text x="-13.44" y="0" font-size="12" text-anchor="end" dominant-baseline="middle">0</text>
<line x1="-4.48" x2="4.48" y1="-92.444444" y2="-92.444444" style="stroke:black; stroke-width: 1" />
<text x="-13.44" y="-92.444444" font-size="12" text-anchor="end" dominant-baseline="middle">50</text>
<line x1="-4.48" x2="4.48" y1="-184.888889" y2="-184.888889" style="stroke:black; stroke-width: 1" />
<text x="-13.44" y="-184.888889" font-size="12" text-anchor="end" dominant-baseline="middle">100</text>
<line x1="-4.48" x2="4.48" y1="-277.333333" y2="-277.333333" style="stroke:black; stroke-width: 1" />
<text x="-13.44" y="-277.333333" font-size="12" text-anchor="end" dominant-baseline="middle">150</text>
<line x1="0" y1="0" x2="409.6" y2="0" style="stroke:black; stroke-width: 2" />
<line x1="0" y1="0" x2="0" y2="-332.8" style="stroke:black; stroke-width: 2" />
<text x="256" y="-350.72" text-anchor="middle">Coordinate Pairs</text></g>
</svg>

