<svg xmlns="http://www.w3.org/2000/svg" xmlns:svg="http://www.w3.org/2000/svg" xmlns:xlink="http://www.w3.org/1999/xlink" width="512" height="512"><g transform="translate(81.92,395.52)"><line y1="-4.48" y2="4.48" x1="0" x2="0" style="stroke:black; stroke-width: 1" />
<text y="31.44" x="0" font-size="12" text-anchor="middle" dominant-baseline="middle">0</text>
<line y1="-4.48" y2="4.48" x1="45.511111" x2="45.511111" style="stroke:black; stroke-width: 1" />
<text y="31.44" x="45.511111" font-size="12" text-anchor="middle" dominant-baseline="middle">1</text>
<line y1="-4.48" y2="4.48" x1="91.022222" x2="91.022222" style="stroke:black; stroke-width: 1" />
<text y="31.44" x="91.022222" font-size="12" text-anchor="middle" dominant-baseline="middle">2</text>
<line y1="-4.48" y2="4.48" x1="136.533333" x2="136.533333" style="stroke:black; stroke-width: 1" />
<text y="31.44" x="136.533333" font-size="12" text-anchor="middle" dominant-baseline="middle">3</text>
<line y1="-4.48" y2="4.48" x1="182.044444" x2="182.044444" style="stroke:black; stroke-width: 1" />
<text y="31.44" x="182.044444" font-size="12" text-anchor="middle" dominant-baseline="middle">4</text>
<line y1="-4.48" y2="4.48" x1="227.555556" x2="227.555556" style="stroke:black; stroke-width: 1" />
<text y="31.44" x="227.555556" font-size="12" text-anchor="middle" dominant-baseline="middle">5</text>
<line y1="-4.48" y2="4.48" x1="273.066667" x2="273.066667" style="stroke:black; stroke-width: 1" />
<text y="31.44" x="273.066667" font-size="12" text-anchor="middle" dominant-baseline="middle">6</text>
<line y1="-4.48" y2="4.48" x1="318.577778" x2="318.577778" style="stroke:black; stroke-width: 1" />
<text y="31.44" x="318.577778" font-size="12" text-anchor="middle" dominant-baseline="middle">7</text>
<line y1="-4.48" y2="4.48" x1="364.088889" x2="364.088889" style="stroke:black; stroke-width: 1" />
<text y="31.44" x="364.088889" font-size="12" text-anchor="middle" dominant-baseline="middle">8</text>
<line y1="-4.48" y2="4.48" x1="409.6" x2="409.6" style="stroke:black; stroke-width: 1" />
<text y="31.44" x="409.6" font-size="12" text-anchor="middle" dominant-baseline="middle">9</text>
<line x1="-4.48" x2="4.48" y1="5.068020" y2="5.068020" style="stroke:black; stroke-width: 1" />
<text x="-13.44" y="5.068020" font-size="12" text-anchor="end" dominant-baseline="middle">0</text>
<line x1="-4.48" x2="4.48" y1="-88.784208" y2="-88.784208" style="stroke:black; stroke-width: 1" />
<text x="-13.44" y="-88.784208" font-size="12" text-anchor="end" dominant-baseline="middle">50</text>
<line x1="-4.48" x2="4.48" y1="-182.636435" y2="-182.636435" style="stroke:black; stroke-width: 1" />
<text x="-13.44" y="-182.636435" font-size="12" text-anchor="end" dominant-baseline="middle">100</text>
<line x1="-4.48" x2="4.48" y1="-276.488663" y2="-276.488663" style="stroke:black; stroke-width: 1" />
<text x="-13.44" y="-276.488663" font-size="12" text-anchor="end" dominant-baseline="middle">150</text>
<line x1="0" y1="0" x2="409.6" y2="0" style="stroke:black; stroke-width: 2" />
<line x1="0" y1="0" x2="0" y2="-332.8" style="stroke:black; stroke-width: 2" />
<text x="256" y="-350.72" text-anchor="middle">Coordinate Pairs</text></g>
</svg>

