<?xml version="1.0" standalone="no"?>
<!DOCTYPE svg PUBLIC "-//W3C//DTD SVG 1.1//EN" "http://www.w3.org/Graphics/SVG/1.1/DTD/svg11.dtd">
<svg width="100%" height="100%" version="1.1" xmlns="http://www.w3.org/2000/svg">
<defs>
  <radialGradient id="basegradient" cx="50%" cy="65%" r="50%" fx="50%" fy="65%">
    <stop offset="10%" stop-color="#ff0" />
    <stop offset="60%" stop-color="#f00" />
    <stop offset="99%" stop-color="#00f" />
  </radialGradient>
</defs>
<polygon points="256,0 0,443.40500673763256 512,443.40500673763256" style="fill: url(#basegradient); stroke-width: 0;" />
<polygon points="256,0 0,443.40500673763256 512,443.40500673763256" style="fill: #000; stroke-width: 0;">
  <animate attributeType="CSS" attributeName="opacity"
  values="1;0;1" keyTimes="0;.5;1" dur="20s" repeatCount="indefinite" />
</polygon>
<g style="fill: #fff; stroke-width: 0;">
<polygon points="256,443.40500673763256 384,221.70250336881628 128,221.70250336881628" />
<polygon points="256,221.70250336881628 192,110.85125168440811 320,110.85125168440811" />
<polygon points="256,110.85125168440814 224,55.425625842204056 288,55.425625842204056" />
<polygon points="256,55.42562584220407 240,27.712812921102028 272,27.712812921102028" />
<polygon points="256,27.712812921102035 248,13.856406460551014 264,13.856406460551014" />
<polygon points="256,13.856406460551018 252,6.928203230275507 260,6.928203230275507" />
<polygon points="248,27.712812921102035 244,20.784609690826528 252,20.784609690826528" />
<polygon points="264,27.712812921102035 260,20.784609690826528 268,20.784609690826528" />
<polygon points="240,55.42562584220407 232,41.569219381653056 248,41.569219381653056" />
<polygon points="240,41.569219381653056 236,34.64101615137754 244,34.64101615137754" />
<polygon points="232,55.42562584220407 228,48.49742261192856 236,48.49742261192856" />
<polygon points="248,55.42562584220407 244,48.49742261192856 252,48.49742261192856" />
<polygon points="272,55.42562584220407 264,41.569219381653056 280,41.569219381653056" />
<polygon points="272,41.569219381653056 268,34.64101615137754 276,34.64101615137754" />
<polygon points="264,55.42562584220407 260,48.49742261192856 268,48.49742261192856" />
<polygon points="280,55.42562584220407 276,48.49742261192856 284,48.49742261192856" />
<polygon points="224,110.85125168440814 208,83.13843876330611 240,83.13843876330611" />
<polygon points="224,83.13843876330611 216,69.28203230275508 232,69.28203230275508" />
<polygon points="224,69.2820323027551 220,62.353829072479584 228,62.353829072479584" />
<polygon points="216,83.13843876330611 212,76.2102355330306 220,76.2102355330306" />
<polygon points="232,83.13843876330611 228,76.2102355330306 236,76.2102355330306" />
<polygon points="208,110.85125168440814 200,96.99484522385713 216,96.99484522385713" />
<polygon points="208,96.99484522385713 204,90.06664199358161 212,90.06664199358161" />
<polygon points="200,110.85125168440814 196,103.92304845413263 204,103.92304845413263" />
<polygon points="216,110.85125168440814 212,103.92304845413263 220,103.92304845413263" />
<polygon points="240,110.85125168440814 232,96.99484522385713 248,96.99484522385713" />
<polygon points="240,96.99484522385713 236,90.06664199358161 244,90.06664199358161" />
<polygon points="232,110.85125168440814 228,103.92304845413263 236,103.92304845413263" />
<polygon points="248,110.85125168440814 244,103.92304845413263 252,103.92304845413263" />
<polygon points="288,110.85125168440814 272,83.13843876330611 304,83.13843876330611" />
<polygon points="288,83.13843876330611 280,69.28203230275508 296,69.28203230275508" />
<polygon points="288,69.2820323027551 284,62.353829072479584 292,62.353829072479584" />
<polygon points="280,83.13843876330611 276,76.2102355330306 284,76.2102355330306" />
<polygon points="296,83.13843876330611 292,76.2102355330306 300,76.2102355330306" />
<polygon points="272,110.85125168440814 264,96.99484522385713 280,96.99484522385713" />
<polygon points="272,96.99484522385713 268,90.06664199358161 276,90.06664199358161" />
<polygon points="264,110.85125168440814 260,103.92304845413263 268,103.92304845413263" />
<polygon points="280,110.85125168440814 276,103.92304845413263 284,103.92304845413263" />
<polygon points="304,110.85125168440814 296,96.99484522385713 312,96.99484522385713" />
<polygon points="304,96.99484522385713 300,90.06664199358161 308,90.06664199358161" />
<polygon points="296,110.85125168440814 292,103.92304845413263 300,103.92304845413263" />
<polygon points="312,110.85125168440814 308,103.92304845413263 316,103.92304845413263" />
<polygon points="192,221.70250336881628 160,166.27687752661222 224,166.27687752661222" />
<polygon points="192,166.27687752661222 176,138.56406460551017 208,138.56406460551017" />
<polygon points="192,138.5640646055102 184,124.70765814495917 200,124.70765814495917" />
<polygon points="192,124.70765814495918 188,117.77945491468367 196,117.77945491468367" />
<polygon points="184,138.5640646055102 180,131.6358613752347 188,131.6358613752347" />
<polygon points="200,138.5640646055102 196,131.6358613752347 204,131.6358613752347" />
<polygon points="176,166.27687752661222 168,152.4204710660612 184,152.4204710660612" />
<polygon points="176,152.4204710660612 172,145.4922678357857 180,145.4922678357857" />
<polygon points="168,166.27687752661222 164,159.34867429633672 172,159.34867429633672" />
<polygon points="184,166.27687752661222 180,159.34867429633672 188,159.34867429633672" />
<polygon points="208,166.27687752661222 200,152.4204710660612 216,152.4204710660612" />
<polygon points="208,152.4204710660612 204,145.4922678357857 212,145.4922678357857" />
<polygon points="200,166.27687752661222 196,159.34867429633672 204,159.34867429633672" />
<polygon points="216,166.27687752661222 212,159.34867429633672 220,159.34867429633672" />
<polygon points="160,221.70250336881628 144,193.98969044771425 176,193.98969044771425" />
<polygon points="160,193.98969044771425 152,180.13328398716322 168,180.13328398716322" />
<polygon points="160,180.13328398716322 156,173.20508075688772 164,173.20508075688772" />
<polygon points="152,193.98969044771425 148,187.06148721743875 156,187.06148721743875" />
<polygon points="168,193.98969044771425 164,187.06148721743875 172,187.06148721743875" />
<polygon points="144,221.70250336881628 136,207.84609690826525 152,207.84609690826525" />
<polygon points="144,207.84609690826525 140,200.91789367798975 148,200.91789367798975" />
<polygon points="136,221.70250336881628 132,214.77430013854078 140,214.77430013854078" />
<polygon points="152,221.70250336881628 148,214.77430013854078 156,214.77430013854078" />
<polygon points="176,221.70250336881628 168,207.84609690826525 184,207.84609690826525" />
<polygon points="176,207.84609690826525 172,200.91789367798975 180,200.91789367798975" />
<polygon points="168,221.70250336881628 164,214.77430013854078 172,214.77430013854078" />
<polygon points="184,221.70250336881628 180,214.77430013854078 188,214.77430013854078" />
<polygon points="224,221.70250336881628 208,193.98969044771425 240,193.98969044771425" />
<polygon points="224,193.98969044771425 216,180.13328398716322 232,180.13328398716322" />
<polygon points="224,180.13328398716322 220,173.20508075688772 228,173.20508075688772" />
<polygon points="216,193.98969044771425 212,187.06148721743875 220,187.06148721743875" />
<polygon points="232,193.98969044771425 228,187.06148721743875 236,187.06148721743875" />
<polygon points="208,221.70250336881628 200,207.84609690826525 216,207.84609690826525" />
<polygon points="208,207.84609690826525 204,200.91789367798975 212,200.91789367798975" />
<polygon points="200,221.70250336881628 196,214.77430013854078 204,214.77430013854078" />
<polygon points="216,221.70250336881628 212,214.77430013854078 220,214.77430013854078" />
<polygon points="240,221.70250336881628 232,207.84609690826525 248,207.84609690826525" />
<polygon points="240,207.84609690826525 236,200.91789367798975 244,200.91789367798975" />
<polygon points="232,221.70250336881628 228,214.77430013854078 236,214.77430013854078" />
<polygon points="248,221.70250336881628 244,214.77430013854078 252,214.77430013854078" />
<polygon points="320,221.70250336881628 288,166.27687752661222 352,166.27687752661222" />
<polygon points="320,166.27687752661222 304,138.56406460551017 336,138.56406460551017" />
<polygon points="320,138.5640646055102 312,124.70765814495917 328,124.70765814495917" />
<polygon points="320,124.70765814495918 316,117.77945491468367 324,117.77945491468367" />
<polygon points="312,138.5640646055102 308,131.6358613752347 316,131.6358613752347" />
<polygon points="328,138.5640646055102 324,131.6358613752347 332,131.6358613752347" />
<polygon points="304,166.27687752661222 296,152.4204710660612 312,152.4204710660612" />
<polygon points="304,152.4204710660612 300,145.4922678357857 308,145.4922678357857" />
<polygon points="296,166.27687752661222 292,159.34867429633672 300,159.34867429633672" />
<polygon points="312,166.27687752661222 308,159.34867429633672 316,159.34867429633672" />
<polygon points="336,166.27687752661222 328,152.4204710660612 344,152.4204710660612" />
<polygon points="336,152.4204710660612 332,145.4922678357857 340,145.4922678357857" />
<polygon points="328,166.27687752661222 324,159.34867429633672 332,159.34867429633672" />
<polygon points="344,166.27687752661222 340,159.34867429633672 348,159.34867429633672" />
<polygon points="288,221.70250336881628 272,193.98969044771425 304,193.98969044771425" />
<polygon points="288,193.98969044771425 280,180.13328398716322 296,180.13328398716322" />
<polygon points="288,180.13328398716322 284,173.20508075688772 292,173.20508075688772" />
<polygon points="280,193.98969044771425 276,187.06148721743875 284,187.06148721743875" />
<polygon points="296,193.98969044771425 292,187.06148721743875 300,187.06148721743875" />
<polygon points="272,221.70250336881628 264,207.84609690826525 280,207.84609690826525" />
<polygon points="272,207.84609690826525 268,200.91789367798975 276,200.91789367798975" />
<polygon points="264,221.70250336881628 260,214.77430013854078 268,214.77430013854078" />
<polygon points="280,221.70250336881628 276,214.77430013854078 284,214.77430013854078" />
<polygon points="304,221.70250336881628 296,207.84609690826525 312,207.84609690826525" />
<polygon points="304,207.84609690826525 300,200.91789367798975 308,200.91789367798975" />
<polygon points="296,221.70250336881628 292,214.77430013854078 300,214.77430013854078" />
<polygon points="312,221.70250336881628 308,214.77430013854078 316,214.77430013854078" />
<polygon points="352,221.70250336881628 336,193.98969044771425 368,193.98969044771425" />
<polygon points="352,193.98969044771425 344,180.13328398716322 360,180.13328398716322" />
<polygon points="352,180.13328398716322 348,173.20508075688772 356,173.20508075688772" />
<polygon points="344,193.98969044771425 340,187.06148721743875 348,187.06148721743875" />
<polygon points="360,193.98969044771425 356,187.06148721743875 364,187.06148721743875" />
<polygon points="336,221.70250336881628 328,207.84609690826525 344,207.84609690826525" />
<polygon points="336,207.84609690826525 332,200.91789367798975 340,200.91789367798975" />
<polygon points="328,221.70250336881628 324,214.77430013854078 332,214.77430013854078" />
<polygon points="344,221.70250336881628 340,214.77430013854078 348,214.77430013854078" />
<polygon points="368,221.70250336881628 360,207.84609690826525 376,207.84609690826525" />
<polygon points="368,207.84609690826525 364,200.91789367798975 372,200.91789367798975" />
<polygon points="360,221.70250336881628 356,214.77430013854078 364,214.77430013854078" />
<polygon points="376,221.70250336881628 372,214.77430013854078 380,214.77430013854078" />
<polygon points="384,443.40500673763256 320,332.55375505322445 448,332.55375505322445" />
<polygon points="384,332.55375505322445 352,277.12812921102034 416,277.12812921102034" />
<polygon points="384,277.1281292110204 368,249.41531628991834 400,249.41531628991834" />
<polygon points="384,249.41531628991837 376,235.55890982936734 392,235.55890982936734" />
<polygon points="384,235.55890982936734 380,228.63070659909184 388,228.63070659909184" />
<polygon points="376,249.41531628991837 372,242.48711305964287 380,242.48711305964287" />
<polygon points="392,249.41531628991837 388,242.48711305964287 396,242.48711305964287" />
<polygon points="368,277.1281292110204 360,263.2717227504694 376,263.2717227504694" />
<polygon points="368,263.2717227504694 364,256.34351952019387 372,256.34351952019387" />
<polygon points="360,277.1281292110204 356,270.19992598074487 364,270.19992598074487" />
<polygon points="376,277.1281292110204 372,270.19992598074487 380,270.19992598074487" />
<polygon points="400,277.1281292110204 392,263.2717227504694 408,263.2717227504694" />
<polygon points="400,263.2717227504694 396,256.34351952019387 404,256.34351952019387" />
<polygon points="392,277.1281292110204 388,270.19992598074487 396,270.19992598074487" />
<polygon points="408,277.1281292110204 404,270.19992598074487 412,270.19992598074487" />
<polygon points="352,332.55375505322445 336,304.8409421321224 368,304.8409421321224" />
<polygon points="352,304.8409421321224 344,290.9845356715714 360,290.9845356715714" />
<polygon points="352,290.9845356715714 348,284.05633244129587 356,284.05633244129587" />
<polygon points="344,304.8409421321224 340,297.91273890184686 348,297.91273890184686" />
<polygon points="360,304.8409421321224 356,297.91273890184686 364,297.91273890184686" />
<polygon points="336,332.55375505322445 328,318.69734859267345 344,318.69734859267345" />
<polygon points="336,318.69734859267345 332,311.7691453623979 340,311.7691453623979" />
<polygon points="328,332.55375505322445 324,325.6255518229489 332,325.6255518229489" />
<polygon points="344,332.55375505322445 340,325.6255518229489 348,325.6255518229489" />
<polygon points="368,332.55375505322445 360,318.69734859267345 376,318.69734859267345" />
<polygon points="368,318.69734859267345 364,311.7691453623979 372,311.7691453623979" />
<polygon points="360,332.55375505322445 356,325.6255518229489 364,325.6255518229489" />
<polygon points="376,332.55375505322445 372,325.6255518229489 380,325.6255518229489" />
<polygon points="416,332.55375505322445 400,304.8409421321224 432,304.8409421321224" />
<polygon points="416,304.8409421321224 408,290.9845356715714 424,290.9845356715714" />
<polygon points="416,290.9845356715714 412,284.05633244129587 420,284.05633244129587" />
<polygon points="408,304.8409421321224 404,297.91273890184686 412,297.91273890184686" />
<polygon points="424,304.8409421321224 420,297.91273890184686 428,297.91273890184686" />
<polygon points="400,332.55375505322445 392,318.69734859267345 408,318.69734859267345" />
<polygon points="400,318.69734859267345 396,311.7691453623979 404,311.7691453623979" />
<polygon points="392,332.55375505322445 388,325.6255518229489 396,325.6255518229489" />
<polygon points="408,332.55375505322445 404,325.6255518229489 412,325.6255518229489" />
<polygon points="432,332.55375505322445 424,318.69734859267345 440,318.69734859267345" />
<polygon points="432,318.69734859267345 428,311.7691453623979 436,311.7691453623979" />
<polygon points="424,332.55375505322445 420,325.6255518229489 428,325.6255518229489" />
<polygon points="440,332.55375505322445 436,325.6255518229489 444,325.6255518229489" />
<polygon points="320,443.40500673763256 288,387.9793808954285 352,387.9793808954285" />
<polygon points="320,387.9793808954285 304,360.26656797432645 336,360.26656797432645" />
<polygon points="320,360.26656797432645 312,346.41016151377545 328,346.41016151377545" />
<polygon points="320,346.41016151377545 316,339.4819582834999 324,339.4819582834999" />
<polygon points="312,360.26656797432645 308,353.3383647440509 316,353.3383647440509" />
<polygon points="328,360.26656797432645 324,353.3383647440509 332,353.3383647440509" />
<polygon points="304,387.9793808954285 296,374.1229744348775 312,374.1229744348775" />
<polygon points="304,374.1229744348775 300,367.194771204602 308,367.194771204602" />
<polygon points="296,387.9793808954285 292,381.051177665153 300,381.051177665153" />
<polygon points="312,387.9793808954285 308,381.051177665153 316,381.051177665153" />
<polygon points="336,387.9793808954285 328,374.1229744348775 344,374.1229744348775" />
<polygon points="336,374.1229744348775 332,367.194771204602 340,367.194771204602" />
<polygon points="328,387.9793808954285 324,381.051177665153 332,381.051177665153" />
<polygon points="344,387.9793808954285 340,381.051177665153 348,381.051177665153" />
<polygon points="288,443.40500673763256 272,415.6921938165305 304,415.6921938165305" />
<polygon points="288,415.6921938165305 280,401.8357873559795 296,401.8357873559795" />
<polygon points="288,401.8357873559795 284,394.907584125704 292,394.907584125704" />
<polygon points="280,415.6921938165305 276,408.763990586255 284,408.763990586255" />
<polygon points="296,415.6921938165305 292,408.763990586255 300,408.763990586255" />
<polygon points="272,443.40500673763256 264,429.54860027708156 280,429.54860027708156" />
<polygon points="272,429.54860027708156 268,422.62039704680603 276,422.62039704680603" />
<polygon points="264,443.40500673763256 260,436.47680350735703 268,436.47680350735703" />
<polygon points="280,443.40500673763256 276,436.47680350735703 284,436.47680350735703" />
<polygon points="304,443.40500673763256 296,429.54860027708156 312,429.54860027708156" />
<polygon points="304,429.54860027708156 300,422.62039704680603 308,422.62039704680603" />
<polygon points="296,443.40500673763256 292,436.47680350735703 300,436.47680350735703" />
<polygon points="312,443.40500673763256 308,436.47680350735703 316,436.47680350735703" />
<polygon points="352,443.40500673763256 336,415.6921938165305 368,415.6921938165305" />
<polygon points="352,415.6921938165305 344,401.8357873559795 360,401.8357873559795" />
<polygon points="352,401.8357873559795 348,394.907584125704 356,394.907584125704" />
<polygon points="344,415.6921938165305 340,408.763990586255 348,408.763990586255" />
<polygon points="360,415.6921938165305 356,408.763990586255 364,408.763990586255" />
<polygon points="336,443.40500673763256 328,429.54860027708156 344,429.54860027708156" />
<polygon points="336,429.54860027708156 332,422.62039704680603 340,422.62039704680603" />
<polygon points="328,443.40500673763256 324,436.47680350735703 332,436.47680350735703" />
<polygon points="344,443.40500673763256 340,436.47680350735703 348,436.47680350735703" />
<polygon points="368,443.40500673763256 360,429.54860027708156 376,429.54860027708156" />
<polygon points="368,429.54860027708156 364,422.62039704680603 372,422.62039704680603" />
<polygon points="360,443.40500673763256 356,436.47680350735703 364,436.47680350735703" />
<polygon points="376,443.40500673763256 372,436.47680350735703 380,436.47680350735703" />
<polygon points="448,443.40500673763256 416,387.9793808954285 480,387.9793808954285" />
<polygon points="448,387.9793808954285 432,360.26656797432645 464,360.26656797432645" />
<polygon points="448,360.26656797432645 440,346.41016151377545 456,346.41016151377545" />
<polygon points="448,346.41016151377545 444,339.4819582834999 452,339.4819582834999" />
<polygon points="440,360.26656797432645 436,353.3383647440509 444,353.3383647440509" />
<polygon points="456,360.26656797432645 452,353.3383647440509 460,353.3383647440509" />
<polygon points="432,387.9793808954285 424,374.1229744348775 440,374.1229744348775" />
<polygon points="432,374.1229744348775 428,367.194771204602 436,367.194771204602" />
<polygon points="424,387.9793808954285 420,381.051177665153 428,381.051177665153" />
<polygon points="440,387.9793808954285 436,381.051177665153 444,381.051177665153" />
<polygon points="464,387.9793808954285 456,374.1229744348775 472,374.1229744348775" />
<polygon points="464,374.1229744348775 460,367.194771204602 468,367.194771204602" />
<polygon points="456,387.9793808954285 452,381.051177665153 460,381.051177665153" />
<polygon points="472,387.9793808954285 468,381.051177665153 476,381.051177665153" />
<polygon points="416,443.40500673763256 400,415.6921938165305 432,415.6921938165305" />
<polygon points="416,415.6921938165305 408,401.8357873559795 424,401.8357873559795" />
<polygon points="416,401.8357873559795 412,394.907584125704 420,394.907584125704" />
<polygon points="408,415.6921938165305 404,408.763990586255 412,408.763990586255" />
<polygon points="424,415.6921938165305 420,408.763990586255 428,408.763990586255" />
<polygon points="400,443.40500673763256 392,429.54860027708156 408,429.54860027708156" />
<polygon points="400,429.54860027708156 396,422.62039704680603 404,422.62039704680603" />
<polygon points="392,443.40500673763256 388,436.47680350735703 396,436.47680350735703" />
<polygon points="408,443.40500673763256 404,436.47680350735703 412,436.47680350735703" />
<polygon points="432,443.40500673763256 424,429.54860027708156 440,429.54860027708156" />
<polygon points="432,429.54860027708156 428,422.62039704680603 436,422.62039704680603" />
<polygon points="424,443.40500673763256 420,436.47680350735703 428,436.47680350735703" />
<polygon points="440,443.40500673763256 436,436.47680350735703 444,436.47680350735703" />
<polygon points="480,443.40500673763256 464,415.6921938165305 496,415.6921938165305" />
<polygon points="480,415.6921938165305 472,401.8357873559795 488,401.8357873559795" />
<polygon points="480,401.8357873559795 476,394.907584125704 484,394.907584125704" />
<polygon points="472,415.6921938165305 468,408.763990586255 476,408.763990586255" />
<polygon points="488,415.6921938165305 484,408.763990586255 492,408.763990586255" />
<polygon points="464,443.40500673763256 456,429.54860027708156 472,429.54860027708156" />
<polygon points="464,429.54860027708156 460,422.62039704680603 468,422.62039704680603" />
<polygon points="456,443.40500673763256 452,436.47680350735703 460,436.47680350735703" />
<polygon points="472,443.40500673763256 468,436.47680350735703 476,436.47680350735703" />
<polygon points="496,443.40500673763256 488,429.54860027708156 504,429.54860027708156" />
<polygon points="496,429.54860027708156 492,422.62039704680603 500,422.62039704680603" />
<polygon points="488,443.40500673763256 484,436.47680350735703 492,436.47680350735703" />
<polygon points="504,443.40500673763256 500,436.47680350735703 508,436.47680350735703" />
<polygon points="128,443.40500673763256 64,332.55375505322445 192,332.55375505322445" />
<polygon points="128,332.55375505322445 96,277.12812921102034 160,277.12812921102034" />
<polygon points="128,277.1281292110204 112,249.41531628991834 144,249.41531628991834" />
<polygon points="128,249.41531628991837 120,235.55890982936734 136,235.55890982936734" />
<polygon points="128,235.55890982936734 124,228.63070659909184 132,228.63070659909184" />
<polygon points="120,249.41531628991837 116,242.48711305964287 124,242.48711305964287" />
<polygon points="136,249.41531628991837 132,242.48711305964287 140,242.48711305964287" />
<polygon points="112,277.1281292110204 104,263.2717227504694 120,263.2717227504694" />
<polygon points="112,263.2717227504694 108,256.34351952019387 116,256.34351952019387" />
<polygon points="104,277.1281292110204 100,270.19992598074487 108,270.19992598074487" />
<polygon points="120,277.1281292110204 116,270.19992598074487 124,270.19992598074487" />
<polygon points="144,277.1281292110204 136,263.2717227504694 152,263.2717227504694" />
<polygon points="144,263.2717227504694 140,256.34351952019387 148,256.34351952019387" />
<polygon points="136,277.1281292110204 132,270.19992598074487 140,270.19992598074487" />
<polygon points="152,277.1281292110204 148,270.19992598074487 156,270.19992598074487" />
<polygon points="96,332.55375505322445 80,304.8409421321224 112,304.8409421321224" />
<polygon points="96,304.8409421321224 88,290.9845356715714 104,290.9845356715714" />
<polygon points="96,290.9845356715714 92,284.05633244129587 100,284.05633244129587" />
<polygon points="88,304.8409421321224 84,297.91273890184686 92,297.91273890184686" />
<polygon points="104,304.8409421321224 100,297.91273890184686 108,297.91273890184686" />
<polygon points="80,332.55375505322445 72,318.69734859267345 88,318.69734859267345" />
<polygon points="80,318.69734859267345 76,311.7691453623979 84,311.7691453623979" />
<polygon points="72,332.55375505322445 68,325.6255518229489 76,325.6255518229489" />
<polygon points="88,332.55375505322445 84,325.6255518229489 92,325.6255518229489" />
<polygon points="112,332.55375505322445 104,318.69734859267345 120,318.69734859267345" />
<polygon points="112,318.69734859267345 108,311.7691453623979 116,311.7691453623979" />
<polygon points="104,332.55375505322445 100,325.6255518229489 108,325.6255518229489" />
<polygon points="120,332.55375505322445 116,325.6255518229489 124,325.6255518229489" />
<polygon points="160,332.55375505322445 144,304.8409421321224 176,304.8409421321224" />
<polygon points="160,304.8409421321224 152,290.9845356715714 168,290.9845356715714" />
<polygon points="160,290.9845356715714 156,284.05633244129587 164,284.05633244129587" />
<polygon points="152,304.8409421321224 148,297.91273890184686 156,297.91273890184686" />
<polygon points="168,304.8409421321224 164,297.91273890184686 172,297.91273890184686" />
<polygon points="144,332.55375505322445 136,318.69734859267345 152,318.69734859267345" />
<polygon points="144,318.69734859267345 140,311.7691453623979 148,311.7691453623979" />
<polygon points="136,332.55375505322445 132,325.6255518229489 140,325.6255518229489" />
<polygon points="152,332.55375505322445 148,325.6255518229489 156,325.6255518229489" />
<polygon points="176,332.55375505322445 168,318.69734859267345 184,318.69734859267345" />
<polygon points="176,318.69734859267345 172,311.7691453623979 180,311.7691453623979" />
<polygon points="168,332.55375505322445 164,325.6255518229489 172,325.6255518229489" />
<polygon points="184,332.55375505322445 180,325.6255518229489 188,325.6255518229489" />
<polygon points="64,443.40500673763256 32,387.9793808954285 96,387.9793808954285" />
<polygon points="64,387.9793808954285 48,360.26656797432645 80,360.26656797432645" />
<polygon points="64,360.26656797432645 56,346.41016151377545 72,346.41016151377545" />
<polygon points="64,346.41016151377545 60,339.4819582834999 68,339.4819582834999" />
<polygon points="56,360.26656797432645 52,353.3383647440509 60,353.3383647440509" />
<polygon points="72,360.26656797432645 68,353.3383647440509 76,353.3383647440509" />
<polygon points="48,387.9793808954285 40,374.1229744348775 56,374.1229744348775" />
<polygon points="48,374.1229744348775 44,367.194771204602 52,367.194771204602" />
<polygon points="40,387.9793808954285 36,381.051177665153 44,381.051177665153" />
<polygon points="56,387.9793808954285 52,381.051177665153 60,381.051177665153" />
<polygon points="80,387.9793808954285 72,374.1229744348775 88,374.1229744348775" />
<polygon points="80,374.1229744348775 76,367.194771204602 84,367.194771204602" />
<polygon points="72,387.9793808954285 68,381.051177665153 76,381.051177665153" />
<polygon points="88,387.9793808954285 84,381.051177665153 92,381.051177665153" />
<polygon points="32,443.40500673763256 16,415.6921938165305 48,415.6921938165305" />
<polygon points="32,415.6921938165305 24,401.8357873559795 40,401.8357873559795" />
<polygon points="32,401.8357873559795 28,394.907584125704 36,394.907584125704" />
<polygon points="24,415.6921938165305 20,408.763990586255 28,408.763990586255" />
<polygon points="40,415.6921938165305 36,408.763990586255 44,408.763990586255" />
<polygon points="16,443.40500673763256 8,429.54860027708156 24,429.54860027708156" />
<polygon points="16,429.54860027708156 12,422.62039704680603 20,422.62039704680603" />
<polygon points="8,443.40500673763256 4,436.47680350735703 12,436.47680350735703" />
<polygon points="24,443.40500673763256 20,436.47680350735703 28,436.47680350735703" />
<polygon points="48,443.40500673763256 40,429.54860027708156 56,429.54860027708156" />
<polygon points="48,429.54860027708156 44,422.62039704680603 52,422.62039704680603" />
<polygon points="40,443.40500673763256 36,436.47680350735703 44,436.47680350735703" />
<polygon points="56,443.40500673763256 52,436.47680350735703 60,436.47680350735703" />
<polygon points="96,443.40500673763256 80,415.6921938165305 112,415.6921938165305" />
<polygon points="96,415.6921938165305 88,401.8357873559795 104,401.8357873559795" />
<polygon points="96,401.8357873559795 92,394.907584125704 100,394.907584125704" />
<polygon points="88,415.6921938165305 84,408.763990586255 92,408.763990586255" />
<polygon points="104,415.6921938165305 100,408.763990586255 108,408.763990586255" />
<polygon points="80,443.40500673763256 72,429.54860027708156 88,429.54860027708156" />
<polygon points="80,429.54860027708156 76,422.62039704680603 84,422.62039704680603" />
<polygon points="72,443.40500673763256 68,436.47680350735703 76,436.47680350735703" />
<polygon points="88,443.40500673763256 84,436.47680350735703 92,436.47680350735703" />
<polygon points="112,443.40500673763256 104,429.54860027708156 120,429.54860027708156" />
<polygon points="112,429.54860027708156 108,422.62039704680603 116,422.62039704680603" />
<polygon points="104,443.40500673763256 100,436.47680350735703 108,436.47680350735703" />
<polygon points="120,443.40500673763256 116,436.47680350735703 124,436.47680350735703" />
<polygon points="192,443.40500673763256 160,387.9793808954285 224,387.9793808954285" />
<polygon points="192,387.9793808954285 176,360.26656797432645 208,360.26656797432645" />
<polygon points="192,360.26656797432645 184,346.41016151377545 200,346.41016151377545" />
<polygon points="192,346.41016151377545 188,339.4819582834999 196,339.4819582834999" />
<polygon points="184,360.26656797432645 180,353.3383647440509 188,353.3383647440509" />
<polygon points="200,360.26656797432645 196,353.3383647440509 204,353.3383647440509" />
<polygon points="176,387.9793808954285 168,374.1229744348775 184,374.1229744348775" />
<polygon points="176,374.1229744348775 172,367.194771204602 180,367.194771204602" />
<polygon points="168,387.9793808954285 164,381.051177665153 172,381.051177665153" />
<polygon points="184,387.9793808954285 180,381.051177665153 188,381.051177665153" />
<polygon points="208,387.9793808954285 200,374.1229744348775 216,374.1229744348775" />
<polygon points="208,374.1229744348775 204,367.194771204602 212,367.194771204602" />
<polygon points="200,387.9793808954285 196,381.051177665153 204,381.051177665153" />
<polygon points="216,387.9793808954285 212,381.051177665153 220,381.051177665153" />
<polygon points="160,443.40500673763256 144,415.6921938165305 176,415.6921938165305" />
<polygon points="160,415.6921938165305 152,401.8357873559795 168,401.8357873559795" />
<polygon points="160,401.8357873559795 156,394.907584125704 164,394.907584125704" />
<polygon points="152,415.6921938165305 148,408.763990586255 156,408.763990586255" />
<polygon points="168,415.6921938165305 164,408.763990586255 172,408.763990586255" />
<polygon points="144,443.40500673763256 136,429.54860027708156 152,429.54860027708156" />
<polygon points="144,429.54860027708156 140,422.62039704680603 148,422.62039704680603" />
<polygon points="136,443.40500673763256 132,436.47680350735703 140,436.47680350735703" />
<polygon points="152,443.40500673763256 148,436.47680350735703 156,436.47680350735703" />
<polygon points="176,443.40500673763256 168,429.54860027708156 184,429.54860027708156" />
<polygon points="176,429.54860027708156 172,422.62039704680603 180,422.62039704680603" />
<polygon points="168,443.40500673763256 164,436.47680350735703 172,436.47680350735703" />
<polygon points="184,443.40500673763256 180,436.47680350735703 188,436.47680350735703" />
<polygon points="224,443.40500673763256 208,415.6921938165305 240,415.6921938165305" />
<polygon points="224,415.6921938165305 216,401.8357873559795 232,401.8357873559795" />
<polygon points="224,401.8357873559795 220,394.907584125704 228,394.907584125704" />
<polygon points="216,415.6921938165305 212,408.763990586255 220,408.763990586255" />
<polygon points="232,415.6921938165305 228,408.763990586255 236,408.763990586255" />
<polygon points="208,443.40500673763256 200,429.54860027708156 216,429.54860027708156" />
<polygon points="208,429.54860027708156 204,422.62039704680603 212,422.62039704680603" />
<polygon points="200,443.40500673763256 196,436.47680350735703 204,436.47680350735703" />
<polygon points="216,443.40500673763256 212,436.47680350735703 220,436.47680350735703" />
<polygon points="240,443.40500673763256 232,429.54860027708156 248,429.54860027708156" />
<polygon points="240,429.54860027708156 236,422.62039704680603 244,422.62039704680603" />
<polygon points="232,443.40500673763256 228,436.47680350735703 236,436.47680350735703" />
<polygon points="248,443.40500673763256 244,436.47680350735703 252,436.47680350735703" />
</g></svg>
