<svg height="400" width="400" xmlns="http://www.w3.org/2000/svg">
<polyline points="0 200 1 199 2 199 3 199 4 199 5 199 6 199 7 199 8 199 9 199 10 199 11 199 12 199 13 199 14 199 15 199 16 199 17 199 18 199 19 199 20 199 21 199 22 199 23 199 24 199 25 199 26 199 27 199 28 199 29 199 30 199 31 199 32 199 33 199 34 199 35 198 36 198 37 198 38 198 39 198 40 198 41 198 42 198 43 198 44 198 45 198 46 197 47 197 48 197 49 197 50 197 51 197 52 197 53 197 54 196 55 196 56 196 57 196 58 196 59 196 60 195 61 195 62 195 63 195 64 195 65 195 66 194 67 194 68 194 69 194 70 194 71 193 72 193 73 193 74 193 75 192 76 192 77 192 78 192 79 191 80 191 81 191 82 191 83 190 84 190 85 190 86 189 87 189 88 189 89 188 90 188 91 188 92 187 93 187 94 187 95 186 96 186 97 186 98 185 99 185 100 185 101 184 102 184 103 183 104 183 105 182 106 182 107 182 108 181 109 181 110 180 111 180 112 179 113 179 114 178 115 178 116 177 117 177 118 176 119 176 120 175 121 174 122 174 123 173 124 173 125 172 126 171 127 171 128 170 129 169 130 169 131 168 132 167 133 167 134 166 135 165 136 165 137 164 138 163 139 162 140 161 141 161 142 160 143 159 144 158 145 157 146 156 147 155 148 155 149 154 150 153 151 152 152 151 153 150 154 149 155 148 156 146 157 145 158 144 159 143 160 142 161 141 162 139 163 138 164 137 165 136 166 134 167 133 168 131 169 130 170 128 171 127 172 125 173 124 174 122 175 120 176 119 177 117 178 115 179 113 180 111 181 109 182 107 183 104 184 102 185 100 186 97 187 94 188 91 189 88 190 85 191 82 192 78 193 74 194 70 195 65 196 59 197 53 198 45 199 34 200 0"
  style="fill:none;stroke:black;stroke-width:3"
  transform="translate(200, 200)" />
<polyline points="0 -200 1 -199 2 -199 3 -199 4 -199 5 -199 6 -199 7 -199 8 -199 9 -199 10 -199 11 -199 12 -199 13 -199 14 -199 15 -199 16 -199 17 -199 18 -199 19 -199 20 -199 21 -199 22 -199 23 -199 24 -199 25 -199 26 -199 27 -199 28 -199 29 -199 30 -199 31 -199 32 -199 33 -199 34 -199 35 -198 36 -198 37 -198 38 -198 39 -198 40 -198 41 -198 42 -198 43 -198 44 -198 45 -198 46 -197 47 -197 48 -197 49 -197 50 -197 51 -197 52 -197 53 -197 54 -196 55 -196 56 -196 57 -196 58 -196 59 -196 60 -195 61 -195 62 -195 63 -195 64 -195 65 -195 66 -194 67 -194 68 -194 69 -194 70 -194 71 -193 72 -193 73 -193 74 -193 75 -192 76 -192 77 -192 78 -192 79 -191 80 -191 81 -191 82 -191 83 -190 84 -190 85 -190 86 -189 87 -189 88 -189 89 -188 90 -188 91 -188 92 -187 93 -187 94 -187 95 -186 96 -186 97 -186 98 -185 99 -185 100 -185 101 -184 102 -184 103 -183 104 -183 105 -182 106 -182 107 -182 108 -181 109 -181 110 -180 111 -180 112 -179 113 -179 114 -178 115 -178 116 -177 117 -177 118 -176 119 -176 120 -175 121 -174 122 -174 123 -173 124 -173 125 -172 126 -171 127 -171 128 -170 129 -169 130 -169 131 -168 132 -167 133 -167 134 -166 135 -165 136 -165 137 -164 138 -163 139 -162 140 -161 141 -161 142 -160 143 -159 144 -158 145 -157 146 -156 147 -155 148 -155 149 -154 150 -153 151 -152 152 -151 153 -150 154 -149 155 -148 156 -146 157 -145 158 -144 159 -143 160 -142 161 -141 162 -139 163 -138 164 -137 165 -136 166 -134 167 -133 168 -131 169 -130 170 -128 171 -127 172 -125 173 -124 174 -122 175 -120 176 -119 177 -117 178 -115 179 -113 180 -111 181 -109 182 -107 183 -104 184 -102 185 -100 186 -97 187 -94 188 -91 189 -88 190 -85 191 -82 192 -78 193 -74 194 -70 195 -65 196 -59 197 -53 198 -45 199 -34 200 0"
  style="fill:none;stroke:black;stroke-width:3"
  transform="translate(200, 200)" />
<polyline points="0 -200 -1 -199 -2 -199 -3 -199 -4 -199 -5 -199 -6 -199 -7 -199 -8 -199 -9 -199 -10 -199 -11 -199 -12 -199 -13 -199 -14 -199 -15 -199 -16 -199 -17 -199 -18 -199 -19 -199 -20 -199 -21 -199 -22 -199 -23 -199 -24 -199 -25 -199 -26 -199 -27 -199 -28 -199 -29 -199 -30 -199 -31 -199 -32 -199 -33 -199 -34 -199 -35 -198 -36 -198 -37 -198 -38 -198 -39 -198 -40 -198 -41 -198 -42 -198 -43 -198 -44 -198 -45 -198 -46 -197 -47 -197 -48 -197 -49 -197 -50 -197 -51 -197 -52 -197 -53 -197 -54 -196 -55 -196 -56 -196 -57 -196 -58 -196 -59 -196 -60 -195 -61 -195 -62 -195 -63 -195 -64 -195 -65 -195 -66 -194 -67 -194 -68 -194 -69 -194 -70 -194 -71 -193 -72 -193 -73 -193 -74 -193 -75 -192 -76 -192 -77 -192 -78 -192 -79 -191 -80 -191 -81 -191 -82 -191 -83 -190 -84 -190 -85 -190 -86 -189 -87 -189 -88 -189 -89 -188 -90 -188 -91 -188 -92 -187 -93 -187 -94 -187 -95 -186 -96 -186 -97 -186 -98 -185 -99 -185 -100 -185 -101 -184 -102 -184 -103 -183 -104 -183 -105 -182 -106 -182 -107 -182 -108 -181 -109 -181 -110 -180 -111 -180 -112 -179 -113 -179 -114 -178 -115 -178 -116 -177 -117 -177 -118 -176 -119 -176 -120 -175 -121 -174 -122 -174 -123 -173 -124 -173 -125 -172 -126 -171 -127 -171 -128 -170 -129 -169 -130 -169 -131 -168 -132 -167 -133 -167 -134 -166 -135 -165 -136 -165 -137 -164 -138 -163 -139 -162 -140 -161 -141 -161 -142 -160 -143 -159 -144 -158 -145 -157 -146 -156 -147 -155 -148 -155 -149 -154 -150 -153 -151 -152 -152 -151 -153 -150 -154 -149 -155 -148 -156 -146 -157 -145 -158 -144 -159 -143 -160 -142 -161 -141 -162 -139 -163 -138 -164 -137 -165 -136 -166 -134 -167 -133 -168 -131 -169 -130 -170 -128 -171 -127 -172 -125 -173 -124 -174 -122 -175 -120 -176 -119 -177 -117 -178 -115 -179 -113 -180 -111 -181 -109 -182 -107 -183 -104 -184 -102 -185 -100 -186 -97 -187 -94 -188 -91 -189 -88 -190 -85 -191 -82 -192 -78 -193 -74 -194 -70 -195 -65 -196 -59 -197 -53 -198 -45 -199 -34 -200 0"
  style="fill:none;stroke:black;stroke-width:3"
  transform="translate(200, 200)" />
<polyline points="0 200 -1 199 -2 199 -3 199 -4 199 -5 199 -6 199 -7 199 -8 199 -9 199 -10 199 -11 199 -12 199 -13 199 -14 199 -15 199 -16 199 -17 199 -18 199 -19 199 -20 199 -21 199 -22 199 -23 199 -24 199 -25 199 -26 199 -27 199 -28 199 -29 199 -30 199 -31 199 -32 199 -33 199 -34 199 -35 198 -36 198 -37 198 -38 198 -39 198 -40 198 -41 198 -42 198 -43 198 -44 198 -45 198 -46 197 -47 197 -48 197 -49 197 -50 197 -51 197 -52 197 -53 197 -54 196 -55 196 -56 196 -57 196 -58 196 -59 196 -60 195 -61 195 -62 195 -63 195 -64 195 -65 195 -66 194 -67 194 -68 194 -69 194 -70 194 -71 193 -72 193 -73 193 -74 193 -75 192 -76 192 -77 192 -78 192 -79 191 -80 191 -81 191 -82 191 -83 190 -84 190 -85 190 -86 189 -87 189 -88 189 -89 188 -90 188 -91 188 -92 187 -93 187 -94 187 -95 186 -96 186 -97 186 -98 185 -99 185 -100 185 -101 184 -102 184 -103 183 -104 183 -105 182 -106 182 -107 182 -108 181 -109 181 -110 180 -111 180 -112 179 -113 179 -114 178 -115 178 -116 177 -117 177 -118 176 -119 176 -120 175 -121 174 -122 174 -123 173 -124 173 -125 172 -126 171 -127 171 -128 170 -129 169 -130 169 -131 168 -132 167 -133 167 -134 166 -135 165 -136 165 -137 164 -138 163 -139 162 -140 161 -141 161 -142 160 -143 159 -144 158 -145 157 -146 156 -147 155 -148 155 -149 154 -150 153 -151 152 -152 151 -153 150 -154 149 -155 148 -156 146 -157 145 -158 144 -159 143 -160 142 -161 141 -162 139 -163 138 -164 137 -165 136 -166 134 -167 133 -168 131 -169 130 -170 128 -171 127 -172 125 -173 124 -174 122 -175 120 -176 119 -177 117 -178 115 -179 113 -180 111 -181 109 -182 107 -183 104 -184 102 -185 100 -186 97 -187 94 -188 91 -189 88 -190 85 -191 82 -192 78 -193 74 -194 70 -195 65 -196 59 -197 53 -198 45 -199 34 -200 0"
  style="fill:none;stroke:black;stroke-width:3"
  transform="translate(200, 200)" />
</svg>