<svg height="400" width="400" xmlns="http://www.w3.org/2000/svg">
<polyline points="0 200 5 199 10 199 15 199 20 199 25 199 30 199 35 198 40 198 45 198 50 197 55 196 60 195 65 195 70 194 75 192 80 191 85 190 90 188 95 186 100 185 105 182 110 180 115 178 120 175 125 172 130 169 135 165 140 161 145 157 150 153 155 148 160 142 165 136 170 128 175 120 180 111 185 100 190 85 195 65 200 0"
  style="fill:none;stroke:black;stroke-width:3"
  transform="translate(200, 200)" />
<polyline points="0 -200 5 -199 10 -199 15 -199 20 -199 25 -199 30 -199 35 -198 40 -198 45 -198 50 -197 55 -196 60 -195 65 -195 70 -194 75 -192 80 -191 85 -190 90 -188 95 -186 100 -185 105 -182 110 -180 115 -178 120 -175 125 -172 130 -169 135 -165 140 -161 145 -157 150 -153 155 -148 160 -142 165 -136 170 -128 175 -120 180 -111 185 -100 190 -85 195 -65 200 0"
  style="fill:none;stroke:black;stroke-width:3"
  transform="translate(200, 200)" />
<polyline points="0 -200 -5 -199 -10 -199 -15 -199 -20 -199 -25 -199 -30 -199 -35 -198 -40 -198 -45 -198 -50 -197 -55 -196 -60 -195 -65 -195 -70 -194 -75 -192 -80 -191 -85 -190 -90 -188 -95 -186 -100 -185 -105 -182 -110 -180 -115 -178 -120 -175 -125 -172 -130 -169 -135 -165 -140 -161 -145 -157 -150 -153 -155 -148 -160 -142 -165 -136 -170 -128 -175 -120 -180 -111 -185 -100 -190 -85 -195 -65 -200 0"
  style="fill:none;stroke:black;stroke-width:3"
  transform="translate(200, 200)" />
<polyline points="0 200 -5 199 -10 199 -15 199 -20 199 -25 199 -30 199 -35 198 -40 198 -45 198 -50 197 -55 196 -60 195 -65 195 -70 194 -75 192 -80 191 -85 190 -90 188 -95 186 -100 185 -105 182 -110 180 -115 178 -120 175 -125 172 -130 169 -135 165 -140 161 -145 157 -150 153 -155 148 -160 142 -165 136 -170 128 -175 120 -180 111 -185 100 -190 85 -195 65 -200 0"
  style="fill:none;stroke:black;stroke-width:3"
  transform="translate(200, 200)" />
</svg>