<svg xmlns="http://www.w3.org/2000/svg" xmlns:svg="http://www.w3.org/2000/svg" xmlns:xlink="http://www.w3.org/1999/xlink" width="500" height="300" style="stroke:rgb(0,0,255)"><rect width="100%" height="100%" fill="white" /><polyline points="450,250,445,250,445,245,440,245,440,250,435,250,435,245,440,245,440,240,435,240,435,235,430,235,430,230,425,230,425,235,420,235,420,240,415,240,415,245,420,245,420,250,415,250,415,245,410,245,410,250,405,250,405,245,410,245,410,240,405,240,405,235,410,235,410,240,415,240,415,235,420,235,420,230,425,230,425,225,420,225,420,220,415,220,415,215,410,215,410,220,405,220,405,215,410,215,410,210,405,210,405,205,400,205,400,200,395,200,395,205,390,205,390,200,395,200,395,195,390,195,390,190,385,190,385,185,380,185,380,190,375,190,375,195,370,195,370,200,375,200,375,205,370,205,370,200,365,200,365,205,360,205,360,210,355,210,355,215,360,215,360,220,355,220,355,215,350,215,350,220,345,220,345,225,340,225,340,230,345,230,345,235,350,235,350,240,355,240,355,235,360,235,360,240,355,240,355,245,360,245,360,250,355,250,355,245,350,245,350,250,345,250,345,245,350,245,350,240,345,240,345,235,340,235,340,230,335,230,335,235,330,235,330,240,325,240,325,245,330,245,330,250,325,250,325,245,320,245,320,250,315,250,315,245,320,245,320,240,315,240,315,235,320,235,320,240,325,240,325,235,330,235,330,230,335,230,335,225,330,225,330,220,325,220,325,215,320,215,320,220,315,220,315,215,320,215,320,210,315,210,315,205,320,205,320,210,325,210,325,205,330,205,330,210,325,210,325,215,330,215,330,220,335,220,335,225,340,225,340,220,345,220,345,215,350,215,350,210,345,210,345,205,350,205,350,210,355,210,355,205,360,205,360,200,365,200,365,195,360,195,360,190,365,190,365,195,370,195,370,190,375,190,375,185,380,185,380,180,375,180,375,175,370,175,370,170,365,170,365,175,360,175,360,170,365,170,365,165,360,165,360,160,355,160,355,155,350,155,350,160,345,160,345,155,350,155,350,150,345,150,345,145,340,145,340,140,335,140,335,145,330,145,330,150,325,150,325,155,330,155,330,160,325,160,325,155,320,155,320,160,315,160,315,155,320,155,320,150,315,150,315,145,320,145,320,150,325,150,325,145,330,145,330,140,335,140,335,135,330,135,330,130,325,130,325,125,320,125,320,130,315,130,315,125,320,125,320,120,315,120,315,115,310,115,310,110,305,110,305,115,300,115,300,110,305,110,305,105,300,105,300,100,295,100,295,95,290,95,290,100,285,100,285,105,280,105,280,110,285,110,285,115,280,115,280,110,275,110,275,115,270,115,270,110,275,110,275,105,270,105,270,100,275,100,275,105,280,105,280,100,285,100,285,95,290,95,290,90,285,90,285,85,280,85,280,80,275,80,275,85,270,85,270,80,275,80,275,75,270,75,270,70,265,70,265,65,260,65,260,70,255,70,255,65,260,65,260,60,255,60,255,55,250,55,250,50,245,50,245,55,240,55,240,60,235,60,235,65,240,65,240,70,235,70,235,65,230,65,230,70,225,70,225,75,220,75,220,80,225,80,225,85,220,85,220,80,215,80,215,85,210,85,210,90,205,90,205,95,210,95,210,100,215,100,215,105,220,105,220,100,225,100,225,105,220,105,220,110,225,110,225,115,220,115,220,110,215,110,215,115,210,115,210,110,215,110,215,105,210,105,210,100,205,100,205,95,200,95,200,100,195,100,195,105,190,105,190,110,195,110,195,115,190,115,190,110,185,110,185,115,180,115,180,120,175,120,175,125,180,125,180,130,175,130,175,125,170,125,170,130,165,130,165,135,160,135,160,140,165,140,165,145,170,145,170,150,175,150,175,145,180,145,180,150,175,150,175,155,180,155,180,160,175,160,175,155,170,155,170,160,165,160,165,155,170,155,170,150,165,150,165,145,160,145,160,140,155,140,155,145,150,145,150,150,145,150,145,155,150,155,150,160,145,160,145,155,140,155,140,160,135,160,135,165,130,165,130,170,135,170,135,175,130,175,130,170,125,170,125,175,120,175,120,180,115,180,115,185,120,185,120,190,125,190,125,195,130,195,130,190,135,190,135,195,130,195,130,200,135,200,135,205,140,205,140,210,145,210,145,205,150,205,150,210,145,210,145,215,150,215,150,220,155,220,155,225,160,225,160,220,165,220,165,215,170,215,170,210,165,210,165,205,170,205,170,210,175,210,175,205,180,205,180,210,175,210,175,215,180,215,180,220,175,220,175,215,170,215,170,220,165,220,165,225,160,225,160,230,165,230,165,235,170,235,170,240,175,240,175,235,180,235,180,240,175,240,175,245,180,245,180,250,175,250,175,245,170,245,170,250,165,250,165,245,170,245,170,240,165,240,165,235,160,235,160,230,155,230,155,235,150,235,150,240,145,240,145,245,150,245,150,250,145,250,145,245,140,245,140,250,135,250,135,245,140,245,140,240,135,240,135,235,140,235,140,240,145,240,145,235,150,235,150,230,155,230,155,225,150,225,150,220,145,220,145,215,140,215,140,220,135,220,135,215,140,215,140,210,135,210,135,205,130,205,130,200,125,200,125,205,120,205,120,200,125,200,125,195,120,195,120,190,115,190,115,185,110,185,110,190,105,190,105,195,100,195,100,200,105,200,105,205,100,205,100,200,95,200,95,205,90,205,90,210,85,210,85,215,90,215,90,220,85,220,85,215,80,215,80,220,75,220,75,225,70,225,70,230,75,230,75,235,80,235,80,240,85,240,85,235,90,235,90,240,85,240,85,245,90,245,90,250,85,250,85,245,80,245,80,250,75,250,75,245,80,245,80,240,75,240,75,235,70,235,70,230,65,230,65,235,60,235,60,240,55,240,55,245,60,245,60,250,55,250,55,245,50,245,50,250,45,250" fill="white" />
</svg>

