<svg xmlns="http://www.w3.org/2000/svg" xmlns:svg="http://www.w3.org/2000/svg" xmlns:xlink="http://www.w3.org/1999/xlink" width="600" height="600" style="stroke:rgb(0,0,0)"><rect width="100%" height="100%" fill="black" /><line x1="300" y1="300" x2="301.53" y2="297.42" style="stroke:rgb(255,21,0)" />
<line x1="301.53" y1="297.42" x2="298.71" y2="292.14" style="stroke:rgb(255,42,0)" />
<line x1="298.71" y1="292.14" x2="289.71" y2="291.69" style="stroke:rgb(255,63,0)" />
<line x1="289.71" y1="291.69" x2="283.11" y2="301.65" style="stroke:rgb(255,85,0)" />
<line x1="283.11" y1="301.65" x2="289.56" y2="315.15" style="stroke:rgb(255,106,0)" />
<line x1="289.56" y1="315.15" x2="307.56" y2="316.95" style="stroke:rgb(255,127,0)" />
<line x1="307.56" y1="316.95" x2="319.95" y2="300.15" style="stroke:rgb(255,148,0)" />
<line x1="319.95" y1="300.15" x2="310.83" y2="278.07" style="stroke:rgb(255,170,0)" />
<line x1="310.83" y1="278.07" x2="284.1" y2="274.29" style="stroke:rgb(255,191,0)" />
<line x1="284.1" y1="274.29" x2="265.2" y2="297.39" style="stroke:rgb(255,212,0)" />
<line x1="265.2" y1="297.39" x2="276.42" y2="328.41" style="stroke:rgb(255,233,0)" />
<line x1="276.42" y1="328.41" x2="311.7" y2="335.25" style="stroke:rgb(255,255,0)" />
<line x1="311.7" y1="335.25" x2="337.83" y2="306.39" style="stroke:rgb(233,255,0)" />
<line x1="337.83" y1="306.39" x2="325.65" y2="266.07" style="stroke:rgb(212,255,0)" />
<line x1="325.65" y1="266.07" x2="282" y2="255.27" style="stroke:rgb(191,255,0)" />
<line x1="282" y1="255.27" x2="248.4" y2="289.35" style="stroke:rgb(170,255,0)" />
<line x1="248.4" y1="289.35" x2="261.15" y2="338.82" style="stroke:rgb(148,255,0)" />
<line x1="261.15" y1="338.82" x2="312.99" y2="354.48" style="stroke:rgb(127,255,0)" />
<line x1="312.99" y1="354.48" x2="355.17" y2="316.29" style="stroke:rgb(106,255,0)" />
<line x1="355.17" y1="316.29" x2="343.17" y2="257.49" style="stroke:rgb(85,255,0)" />
<line x1="343.17" y1="257.49" x2="283.95" y2="236.7" style="stroke:rgb(63,255,0)" />
<line x1="283.95" y1="236.7" x2="233.13" y2="278.94" style="stroke:rgb(42,255,0)" />
<line x1="233.13" y1="278.94" x2="243.48" y2="347.25" style="stroke:rgb(21,255,0)" />
<line x1="243.48" y1="347.25" x2="310.44" y2="374.61" style="stroke:rgb(0,255,0)" />
<line x1="310.44" y1="374.61" x2="370.44" y2="329.61" style="stroke:rgb(0,255,21)" />
<line x1="370.44" y1="329.61" x2="362.64" y2="252.39" style="stroke:rgb(0,255,42)" />
<line x1="362.64" y1="252.39" x2="288.93" y2="218.37" style="stroke:rgb(0,255,63)" />
<line x1="288.93" y1="218.37" x2="219.21" y2="265.41" style="stroke:rgb(0,255,85)" />
<line x1="219.21" y1="265.41" x2="224.43" y2="352.41" style="stroke:rgb(0,255,106)" />
<line x1="224.43" y1="352.41" x2="304.53" y2="394.71" style="stroke:rgb(0,255,127)" />
<line x1="304.53" y1="394.71" x2="383.58" y2="346.35" style="stroke:rgb(0,255,148)" />
<line x1="383.58" y1="346.35" x2="382.62" y2="250.35" style="stroke:rgb(0,255,170)" />
<line x1="382.62" y1="250.35" x2="297.48" y2="199.86" style="stroke:rgb(0,255,191)" />
<line x1="297.48" y1="199.86" x2="207.72" y2="248.82" style="stroke:rgb(0,255,212)" />
<line x1="207.72" y1="248.82" x2="203.52" y2="353.82" style="stroke:rgb(0,255,233)" />
<line x1="203.52" y1="353.82" x2="294.24" y2="413.22" style="stroke:rgb(0,255,255)" />
<line x1="294.24" y1="413.22" x2="394.14" y2="364.38" style="stroke:rgb(0,233,255)" />
<line x1="394.14" y1="364.38" x2="404.4" y2="250.38" style="stroke:rgb(0,212,255)" />
<line x1="404.4" y1="250.38" x2="309.63" y2="181.35" style="stroke:rgb(0,191,255)" />
<line x1="309.63" y1="181.35" x2="199.23" y2="228.15" style="stroke:rgb(0,170,255)" />
<line x1="199.23" y1="228.15" x2="182.01" y2="349.92" style="stroke:rgb(0,148,255)" />
<line x1="182.01" y1="349.92" x2="280.29" y2="429.3" style="stroke:rgb(0,127,255)" />
<line x1="280.29" y1="429.3" x2="401.55" y2="384.15" style="stroke:rgb(0,106,255)" />
<line x1="401.55" y1="384.15" x2="425.31" y2="254.79" style="stroke:rgb(0,85,255)" />
<line x1="425.31" y1="254.79" x2="324.06" y2="165.69" style="stroke:rgb(0,63,255)" />
<line x1="324.06" y1="165.69" x2="192.96" y2="207.09" style="stroke:rgb(0,42,255)" />
<line x1="192.96" y1="207.09" x2="160.53" y2="343.86" style="stroke:rgb(0,21,255)" />
<line x1="160.53" y1="343.86" x2="264.21" y2="444.66" style="stroke:rgb(0,0,255)" />
<line x1="264.21" y1="444.66" x2="406.8" y2="407.91" style="stroke:rgb(21,0,255)" />
<line x1="406.8" y1="407.91" x2="448.8" y2="263.91" style="stroke:rgb(42,0,255)" />
<line x1="448.8" y1="263.91" x2="344.76" y2="152.22" style="stroke:rgb(63,0,255)" />
<line x1="344.76" y1="152.22" x2="191.88" y2="184.98" style="stroke:rgb(85,0,255)" />
<line x1="191.88" y1="184.98" x2="139.41" y2="336.03" style="stroke:rgb(106,0,255)" />
<line x1="139.41" y1="336.03" x2="243.09" y2="459.15" style="stroke:rgb(127,0,255)" />
<line x1="243.09" y1="459.15" x2="406.44" y2="432.75" style="stroke:rgb(148,0,255)" />
<line x1="406.44" y1="432.75" x2="468.6" y2="276.51" style="stroke:rgb(170,0,255)" />
<line x1="468.6" y1="276.51" x2="364.29" y2="139.71" style="stroke:rgb(191,0,255)" />
<line x1="364.29" y1="139.71" x2="192.03" y2="158.85" style="stroke:rgb(212,0,255)" />
<line x1="192.03" y1="158.85" x2="119.46" y2="319.92" style="stroke:rgb(233,0,255)" />
<line x1="119.46" y1="319.92" x2="222.06" y2="467.52" style="stroke:rgb(255,0,255)" />
<line x1="222.06" y1="467.52" x2="405.06" y2="456.54" style="stroke:rgb(255,0,233)" />
<line x1="405.06" y1="456.54" x2="490.62" y2="291" style="stroke:rgb(255,0,212)" />
<line x1="490.62" y1="291" x2="390.45" y2="130.35" style="stroke:rgb(255,0,191)" />
<line x1="390.45" y1="130.35" x2="198.45" y2="134.19" style="stroke:rgb(255,0,170)" />
<line x1="198.45" y1="134.19" x2="100.95" y2="303.84" style="stroke:rgb(255,0,148)" />
<line x1="100.95" y1="303.84" x2="197.97" y2="476.1" style="stroke:rgb(255,0,127)" />
<line x1="197.97" y1="476.1" x2="398.97" y2="482.13" style="stroke:rgb(255,0,106)" />
<line x1="398.97" y1="482.13" x2="509.13" y2="310.77" style="stroke:rgb(255,0,85)" />
<line x1="509.13" y1="310.77" x2="418.05" y2="124.47" style="stroke:rgb(255,0,63)" />
<line x1="418.05" y1="124.47" x2="208.05" y2="107.67" style="stroke:rgb(255,0,42)" />
<line x1="208.05" y1="107.67" x2="84.51" y2="280.2" style="stroke:rgb(255,0,21)" />
<line x1="84.51" y1="280.2" x2="170.91" y2="478.92" style="stroke:rgb(255,0,0)" />
<line x1="170.91" y1="478.92" x2="387.72" y2="507.39" style="stroke:rgb(255,21,0)" />
<line x1="387.72" y1="507.39" x2="525.36" y2="334.23" style="stroke:rgb(255,42,0)" />
<line x1="525.36" y1="334.23" x2="446.61" y2="122.73" style="stroke:rgb(255,63,0)" />
<line x1="446.61" y1="122.73" x2="223.17" y2="81.69" style="stroke:rgb(255,85,0)" />
<line x1="223.17" y1="81.69" x2="70.71" y2="254.94" style="stroke:rgb(255,106,0)" />
<line x1="70.71" y1="254.94" x2="143.25" y2="477.24" style="stroke:rgb(255,127,0)" />
<line x1="143.25" y1="477.24" x2="373.14" y2="529.38" style="stroke:rgb(255,148,0)" />
<line x1="373.14" y1="529.38" x2="538.74" y2="356.58" style="stroke:rgb(255,170,0)" />
<line x1="538.74" y1="356.58" x2="475.56" y2="120.87" style="stroke:rgb(255,191,0)" />
<line x1="475.56" y1="120.87" x2="239.4" y2="54.45" style="stroke:rgb(255,212,0)" />
<line x1="239.4" y1="54.45" x2="57.63" y2="226.26" style="stroke:rgb(255,233,0)" />
<line x1="57.63" y1="226.26" x2="110.55" y2="473.22" style="stroke:rgb(255,255,0)" />
<line x1="110.55" y1="473.22" x2="352.8" y2="554.82" style="stroke:rgb(233,255,0)" />
<line x1="352.8" y1="554.82" x2="548.88" y2="387.12" style="stroke:rgb(212,255,0)" />
<line x1="548.88" y1="387.12" x2="504.51" y2="128.73" style="stroke:rgb(191,255,0)" />
<line x1="504.51" y1="128.73" x2="258.99" y2="33.69" style="stroke:rgb(170,255,0)" />
<line x1="258.99" y1="33.69" x2="48.06" y2="196.56" style="stroke:rgb(148,255,0)" />
<line x1="48.06" y1="196.56" x2="80.46" y2="463.86" style="stroke:rgb(127,255,0)" />
<line x1="80.46" y1="463.86" x2="328.89" y2="575.79" style="stroke:rgb(106,255,0)" />
<line x1="328.89" y1="575.79" x2="555.21" y2="418.47" style="stroke:rgb(85,255,0)" />
<line x1="555.21" y1="418.47" x2="535.68" y2="139.47" style="stroke:rgb(63,255,0)" />
<line x1="535.68" y1="139.47" x2="284.7" y2="12.57" style="stroke:rgb(42,255,0)" />
<line x1="284.7" y1="12.57" x2="42.45" y2="163.62" style="stroke:rgb(21,255,0)" />
<line x1="42.45" y1="163.62" x2="48.21" y2="451.62" style="stroke:rgb(0,255,0)" />
<line x1="48.21" y1="451.62" x2="301.38" y2="594.21" style="stroke:rgb(0,255,21)" />
<line x1="301.38" y1="594.21" x2="557.16" y2="450.15" style="stroke:rgb(0,255,42)" />
<line x1="557.16" y1="450.15" x2="566.07" y2="153.15" style="stroke:rgb(0,255,63)" />
<line x1="566.07" y1="153.15" x2="314.07" y2="-8.85" style="stroke:rgb(0,255,85)" />
<line x1="314.07" y1="-8.85" x2="44.4" y2="127.5" style="stroke:rgb(0,255,106)" />
<line x1="44.4" y1="127.5" x2="22.98" y2="433.5" style="stroke:rgb(0,255,127)" />
<line x1="22.98" y1="433.5" x2="276.36" y2="612.72" style="stroke:rgb(0,255,148)" />
<line x1="276.36" y1="612.72" x2="560.28" y2="484.8" style="stroke:rgb(0,255,170)" />
<line x1="560.28" y1="484.8" x2="598.08" y2="172.95" style="stroke:rgb(0,255,191)" />
<line x1="598.08" y1="172.95" x2="346.86" y2="-21.03" style="stroke:rgb(0,255,212)" />
<line x1="346.86" y1="-21.03" x2="48.33" y2="94.53" style="stroke:rgb(0,255,233)" />
<line x1="48.33" y1="94.53" x2="-6.75" y2="415.29" style="stroke:rgb(0,255,255)" />
<line x1="-6.75" y1="415.29" x2="241.77" y2="627.84" style="stroke:rgb(0,233,255)" />
<line x1="241.77" y1="627.84" x2="555.27" y2="522.24" style="stroke:rgb(0,212,255)" />
<line x1="555.27" y1="522.24" x2="628.53" y2="195.9" style="stroke:rgb(0,191,255)" />
<line x1="628.53" y1="195.9" x2="383.25" y2="-35.94" style="stroke:rgb(0,170,255)" />
<line x1="383.25" y1="-35.94" x2="57.81" y2="55.59" style="stroke:rgb(0,148,255)" />
<line x1="57.81" y1="55.59" x2="-31.11" y2="383.91" style="stroke:rgb(0,127,255)" />
<line x1="-31.11" y1="383.91" x2="206.94" y2="632.31" style="stroke:rgb(0,106,255)" />
<line x1="206.94" y1="632.31" x2="547.98" y2="555.75" style="stroke:rgb(0,85,255)" />
<line x1="547.98" y1="555.75" x2="656.79" y2="222.3" style="stroke:rgb(0,63,255)" />
<line x1="656.79" y1="222.3" x2="423.15" y2="-43.2" style="stroke:rgb(0,42,255)" />
<line x1="423.15" y1="-43.2" x2="73.29" y2="17.49" style="stroke:rgb(0,21,255)" />
<line x1="73.29" y1="17.49" x2="-56.31" y2="352.29" style="stroke:rgb(0,0,255)" />
<line x1="-56.31" y1="352.29" x2="168.75" y2="639.06" style="stroke:rgb(21,0,255)" />
<line x1="168.75" y1="639.06" x2="531.09" y2="591.48" style="stroke:rgb(42,0,255)" />
<line x1="531.09" y1="591.48" x2="678.69" y2="252" style="stroke:rgb(63,0,255)" />
<line x1="678.69" y1="252" x2="462.93" y2="-49.32" style="stroke:rgb(85,0,255)" />
<line x1="462.93" y1="-49.32" x2="87.93" y2="-19.32" style="stroke:rgb(106,0,255)" />
<line x1="87.93" y1="-19.32" x2="-78.39" y2="320.88" style="stroke:rgb(127,0,255)" />
<line x1="-78.39" y1="320.88" x2="127.35" y2="640.92" style="stroke:rgb(148,0,255)" />
<line x1="127.35" y1="640.92" x2="511.35" y2="629.4" style="stroke:rgb(170,0,255)" />
<line x1="511.35" y1="629.4" x2="700.98" y2="292.71" style="stroke:rgb(191,0,255)" />
<line x1="700.98" y1="292.71" x2="505.98" y2="-46.59" style="stroke:rgb(212,0,255)" />
<line x1="505.98" y1="-46.59" x2="112.98" y2="-54.45" style="stroke:rgb(233,0,255)" />
<line x1="112.98" y1="-54.45" x2="-96.9" y2="282.15" style="stroke:rgb(255,0,255)" />
<line x1="-96.9" y1="282.15" x2="86.64" y2="637.26" style="stroke:rgb(255,0,233)" />
<line x1="86.64" y1="637.26" x2="488.64" y2="665.4" style="stroke:rgb(255,0,212)" />
<line x1="488.64" y1="665.4" x2="719.49" y2="333.3" style="stroke:rgb(255,0,191)" />
<line x1="719.49" y1="333.3" x2="552.21" y2="-37.98" style="stroke:rgb(255,0,170)" />
<line x1="552.21" y1="-37.98" x2="145.32" y2="-83.19" style="stroke:rgb(255,0,148)" />
<line x1="145.32" y1="-83.19" x2="-107.22" y2="243.87" style="stroke:rgb(255,0,127)" />
<line x1="-107.22" y1="243.87" x2="47.07" y2="631.68" style="stroke:rgb(255,0,106)" />
<line x1="47.07" y1="631.68" x2="462.87" y2="698.88" style="stroke:rgb(255,0,85)" />
<line x1="462.87" y1="698.88" x2="737.82" y2="377.4" style="stroke:rgb(255,0,63)" />
<line x1="737.82" y1="377.4" x2="601.5" y2="-27.3" style="stroke:rgb(255,0,42)" />
<line x1="601.5" y1="-27.3" x2="181.08" y2="-117.39" style="stroke:rgb(255,0,21)" />
<line x1="181.08" y1="-117.39" x2="-112.68" y2="197.97" style="stroke:rgb(255,0,0)" />
</svg>

