<svg width="500" height="500" xmlns="http://www.w3.org/2000/svg">
<polygon points="250.00,0.00 310.00,0.00 310.00,60.00 250.00,60.00" style="fill:lime;stroke=black" />
<polygon points="250.00,60.00 280.00,90.00 250.00,120.00 220.00,90.00" style="fill:lime;stroke=black" />
<polygon points="220.00,90.00 220.00,120.00 190.00,120.00 190.00,90.00" style="fill:lime;stroke=black" />
<polygon points="190.00,90.00 175.00,105.00 160.00,90.00 175.00,75.00" style="fill:lime;stroke=black" />
<polygon points="175.00,75.00 160.00,75.00 160.00,60.00 175.00,60.00" style="fill:lime;stroke=black" />
<polygon points="175.00,60.00 167.50,52.50 175.00,45.00 182.50,52.50" style="fill:lime;stroke=black" />
<polygon points="182.50,52.50 182.50,45.00 190.00,45.00 190.00,52.50" style="fill:lime;stroke=black" />
<polygon points="190.00,52.50 193.75,48.75 197.50,52.50 193.75,56.25" style="fill:lime;stroke=black" />
<polygon points="193.75,56.25 197.50,56.25 197.50,60.00 193.75,60.00" style="fill:lime;stroke=black" />
<polygon points="197.50,56.25 197.50,52.50 201.25,52.50 201.25,56.25" style="fill:lime;stroke=black" />
<polygon points="193.75,48.75 190.00,45.00 193.75,41.25 197.50,45.00" style="fill:lime;stroke=black" />
<polygon points="197.50,45.00 197.50,41.25 201.25,41.25 201.25,45.00" style="fill:lime;stroke=black" />
<polygon points="197.50,41.25 193.75,41.25 193.75,37.50 197.50,37.50" style="fill:lime;stroke=black" />
<polygon points="182.50,45.00 175.00,45.00 175.00,37.50 182.50,37.50" style="fill:lime;stroke=black" />
<polygon points="182.50,37.50 178.75,33.75 182.50,30.00 186.25,33.75" style="fill:lime;stroke=black" />
<polygon points="186.25,33.75 186.25,30.00 190.00,30.00 190.00,33.75" style="fill:lime;stroke=black" />
<polygon points="186.25,30.00 182.50,30.00 182.50,26.25 186.25,26.25" style="fill:lime;stroke=black" />
<polygon points="178.75,33.75 175.00,37.50 171.25,33.75 175.00,30.00" style="fill:lime;stroke=black" />
<polygon points="175.00,30.00 171.25,30.00 171.25,26.25 175.00,26.25" style="fill:lime;stroke=black" />
<polygon points="171.25,30.00 171.25,33.75 167.50,33.75 167.50,30.00" style="fill:lime;stroke=black" />
<polygon points="167.50,52.50 160.00,60.00 152.50,52.50 160.00,45.00" style="fill:lime;stroke=black" />
<polygon points="160.00,45.00 152.50,45.00 152.50,37.50 160.00,37.50" style="fill:lime;stroke=black" />
<polygon points="160.00,37.50 156.25,33.75 160.00,30.00 163.75,33.75" style="fill:lime;stroke=black" />
<polygon points="163.75,33.75 163.75,30.00 167.50,30.00 167.50,33.75" style="fill:lime;stroke=black" />
<polygon points="163.75,30.00 160.00,30.00 160.00,26.25 163.75,26.25" style="fill:lime;stroke=black" />
<polygon points="156.25,33.75 152.50,37.50 148.75,33.75 152.50,30.00" style="fill:lime;stroke=black" />
<polygon points="152.50,30.00 148.75,30.00 148.75,26.25 152.50,26.25" style="fill:lime;stroke=black" />
<polygon points="148.75,30.00 148.75,33.75 145.00,33.75 145.00,30.00" style="fill:lime;stroke=black" />
<polygon points="152.50,45.00 152.50,52.50 145.00,52.50 145.00,45.00" style="fill:lime;stroke=black" />
<polygon points="145.00,45.00 141.25,48.75 137.50,45.00 141.25,41.25" style="fill:lime;stroke=black" />
<polygon points="141.25,41.25 137.50,41.25 137.50,37.50 141.25,37.50" style="fill:lime;stroke=black" />
<polygon points="137.50,41.25 137.50,45.00 133.75,45.00 133.75,41.25" style="fill:lime;stroke=black" />
<polygon points="141.25,48.75 145.00,52.50 141.25,56.25 137.50,52.50" style="fill:lime;stroke=black" />
<polygon points="137.50,52.50 137.50,56.25 133.75,56.25 133.75,52.50" style="fill:lime;stroke=black" />
<polygon points="137.50,56.25 141.25,56.25 141.25,60.00 137.50,60.00" style="fill:lime;stroke=black" />
<polygon points="160.00,75.00 160.00,90.00 145.00,90.00 145.00,75.00" style="fill:lime;stroke=black" />
<polygon points="145.00,75.00 137.50,82.50 130.00,75.00 137.50,67.50" style="fill:lime;stroke=black" />
<polygon points="137.50,67.50 130.00,67.50 130.00,60.00 137.50,60.00" style="fill:lime;stroke=black" />
<polygon points="137.50,60.00 133.75,56.25 137.50,52.50 141.25,56.25" style="fill:lime;stroke=black" />
<polygon points="141.25,56.25 141.25,52.50 145.00,52.50 145.00,56.25" style="fill:lime;stroke=black" />
<polygon points="141.25,52.50 137.50,52.50 137.50,48.75 141.25,48.75" style="fill:lime;stroke=black" />
<polygon points="133.75,56.25 130.00,60.00 126.25,56.25 130.00,52.50" style="fill:lime;stroke=black" />
<polygon points="130.00,52.50 126.25,52.50 126.25,48.75 130.00,48.75" style="fill:lime;stroke=black" />
<polygon points="126.25,52.50 126.25,56.25 122.50,56.25 122.50,52.50" style="fill:lime;stroke=black" />
<polygon points="130.00,67.50 130.00,75.00 122.50,75.00 122.50,67.50" style="fill:lime;stroke=black" />
<polygon points="122.50,67.50 118.75,71.25 115.00,67.50 118.75,63.75" style="fill:lime;stroke=black" />
<polygon points="118.75,63.75 115.00,63.75 115.00,60.00 118.75,60.00" style="fill:lime;stroke=black" />
<polygon points="115.00,63.75 115.00,67.50 111.25,67.50 111.25,63.75" style="fill:lime;stroke=black" />
<polygon points="118.75,71.25 122.50,75.00 118.75,78.75 115.00,75.00" style="fill:lime;stroke=black" />
<polygon points="115.00,75.00 115.00,78.75 111.25,78.75 111.25,75.00" style="fill:lime;stroke=black" />
<polygon points="115.00,78.75 118.75,78.75 118.75,82.50 115.00,82.50" style="fill:lime;stroke=black" />
<polygon points="137.50,82.50 145.00,90.00 137.50,97.50 130.00,90.00" style="fill:lime;stroke=black" />
<polygon points="130.00,90.00 130.00,97.50 122.50,97.50 122.50,90.00" style="fill:lime;stroke=black" />
<polygon points="122.50,90.00 118.75,93.75 115.00,90.00 118.75,86.25" style="fill:lime;stroke=black" />
<polygon points="118.75,86.25 115.00,86.25 115.00,82.50 118.75,82.50" style="fill:lime;stroke=black" />
<polygon points="115.00,86.25 115.00,90.00 111.25,90.00 111.25,86.25" style="fill:lime;stroke=black" />
<polygon points="118.75,93.75 122.50,97.50 118.75,101.25 115.00,97.50" style="fill:lime;stroke=black" />
<polygon points="115.00,97.50 115.00,101.25 111.25,101.25 111.25,97.50" style="fill:lime;stroke=black" />
<polygon points="115.00,101.25 118.75,101.25 118.75,105.00 115.00,105.00" style="fill:lime;stroke=black" />
<polygon points="130.00,97.50 137.50,97.50 137.50,105.00 130.00,105.00" style="fill:lime;stroke=black" />
<polygon points="130.00,105.00 133.75,108.75 130.00,112.50 126.25,108.75" style="fill:lime;stroke=black" />
<polygon points="126.25,108.75 126.25,112.50 122.50,112.50 122.50,108.75" style="fill:lime;stroke=black" />
<polygon points="126.25,112.50 130.00,112.50 130.00,116.25 126.25,116.25" style="fill:lime;stroke=black" />
<polygon points="133.75,108.75 137.50,105.00 141.25,108.75 137.50,112.50" style="fill:lime;stroke=black" />
<polygon points="137.50,112.50 141.25,112.50 141.25,116.25 137.50,116.25" style="fill:lime;stroke=black" />
<polygon points="141.25,112.50 141.25,108.75 145.00,108.75 145.00,112.50" style="fill:lime;stroke=black" />
<polygon points="175.00,105.00 190.00,120.00 175.00,135.00 160.00,120.00" style="fill:lime;stroke=black" />
<polygon points="160.00,120.00 160.00,135.00 145.00,135.00 145.00,120.00" style="fill:lime;stroke=black" />
<polygon points="145.00,120.00 137.50,127.50 130.00,120.00 137.50,112.50" style="fill:lime;stroke=black" />
<polygon points="137.50,112.50 130.00,112.50 130.00,105.00 137.50,105.00" style="fill:lime;stroke=black" />
<polygon points="137.50,105.00 133.75,101.25 137.50,97.50 141.25,101.25" style="fill:lime;stroke=black" />
<polygon points="141.25,101.25 141.25,97.50 145.00,97.50 145.00,101.25" style="fill:lime;stroke=black" />
<polygon points="141.25,97.50 137.50,97.50 137.50,93.75 141.25,93.75" style="fill:lime;stroke=black" />
<polygon points="133.75,101.25 130.00,105.00 126.25,101.25 130.00,97.50" style="fill:lime;stroke=black" />
<polygon points="130.00,97.50 126.25,97.50 126.25,93.75 130.00,93.75" style="fill:lime;stroke=black" />
<polygon points="126.25,97.50 126.25,101.25 122.50,101.25 122.50,97.50" style="fill:lime;stroke=black" />
<polygon points="130.00,112.50 130.00,120.00 122.50,120.00 122.50,112.50" style="fill:lime;stroke=black" />
<polygon points="122.50,112.50 118.75,116.25 115.00,112.50 118.75,108.75" style="fill:lime;stroke=black" />
<polygon points="118.75,108.75 115.00,108.75 115.00,105.00 118.75,105.00" style="fill:lime;stroke=black" />
<polygon points="115.00,108.75 115.00,112.50 111.25,112.50 111.25,108.75" style="fill:lime;stroke=black" />
<polygon points="118.75,116.25 122.50,120.00 118.75,123.75 115.00,120.00" style="fill:lime;stroke=black" />
<polygon points="115.00,120.00 115.00,123.75 111.25,123.75 111.25,120.00" style="fill:lime;stroke=black" />
<polygon points="115.00,123.75 118.75,123.75 118.75,127.50 115.00,127.50" style="fill:lime;stroke=black" />
<polygon points="137.50,127.50 145.00,135.00 137.50,142.50 130.00,135.00" style="fill:lime;stroke=black" />
<polygon points="130.00,135.00 130.00,142.50 122.50,142.50 122.50,135.00" style="fill:lime;stroke=black" />
<polygon points="122.50,135.00 118.75,138.75 115.00,135.00 118.75,131.25" style="fill:lime;stroke=black" />
<polygon points="118.75,131.25 115.00,131.25 115.00,127.50 118.75,127.50" style="fill:lime;stroke=black" />
<polygon points="115.00,131.25 115.00,135.00 111.25,135.00 111.25,131.25" style="fill:lime;stroke=black" />
<polygon points="118.75,138.75 122.50,142.50 118.75,146.25 115.00,142.50" style="fill:lime;stroke=black" />
<polygon points="115.00,142.50 115.00,146.25 111.25,146.25 111.25,142.50" style="fill:lime;stroke=black" />
<polygon points="115.00,146.25 118.75,146.25 118.75,150.00 115.00,150.00" style="fill:lime;stroke=black" />
<polygon points="130.00,142.50 137.50,142.50 137.50,150.00 130.00,150.00" style="fill:lime;stroke=black" />
<polygon points="130.00,150.00 133.75,153.75 130.00,157.50 126.25,153.75" style="fill:lime;stroke=black" />
<polygon points="126.25,153.75 126.25,157.50 122.50,157.50 122.50,153.75" style="fill:lime;stroke=black" />
<polygon points="126.25,157.50 130.00,157.50 130.00,161.25 126.25,161.25" style="fill:lime;stroke=black" />
<polygon points="133.75,153.75 137.50,150.00 141.25,153.75 137.50,157.50" style="fill:lime;stroke=black" />
<polygon points="137.50,157.50 141.25,157.50 141.25,161.25 137.50,161.25" style="fill:lime;stroke=black" />
<polygon points="141.25,157.50 141.25,153.75 145.00,153.75 145.00,157.50" style="fill:lime;stroke=black" />
<polygon points="160.00,135.00 175.00,135.00 175.00,150.00 160.00,150.00" style="fill:lime;stroke=black" />
<polygon points="160.00,150.00 167.50,157.50 160.00,165.00 152.50,157.50" style="fill:lime;stroke=black" />
<polygon points="152.50,157.50 152.50,165.00 145.00,165.00 145.00,157.50" style="fill:lime;stroke=black" />
<polygon points="145.00,157.50 141.25,161.25 137.50,157.50 141.25,153.75" style="fill:lime;stroke=black" />
<polygon points="141.25,153.75 137.50,153.75 137.50,150.00 141.25,150.00" style="fill:lime;stroke=black" />
<polygon points="137.50,153.75 137.50,157.50 133.75,157.50 133.75,153.75" style="fill:lime;stroke=black" />
<polygon points="141.25,161.25 145.00,165.00 141.25,168.75 137.50,165.00" style="fill:lime;stroke=black" />
<polygon points="137.50,165.00 137.50,168.75 133.75,168.75 133.75,165.00" style="fill:lime;stroke=black" />
<polygon points="137.50,168.75 141.25,168.75 141.25,172.50 137.50,172.50" style="fill:lime;stroke=black" />
<polygon points="152.50,165.00 160.00,165.00 160.00,172.50 152.50,172.50" style="fill:lime;stroke=black" />
<polygon points="152.50,172.50 156.25,176.25 152.50,180.00 148.75,176.25" style="fill:lime;stroke=black" />
<polygon points="148.75,176.25 148.75,180.00 145.00,180.00 145.00,176.25" style="fill:lime;stroke=black" />
<polygon points="148.75,180.00 152.50,180.00 152.50,183.75 148.75,183.75" style="fill:lime;stroke=black" />
<polygon points="156.25,176.25 160.00,172.50 163.75,176.25 160.00,180.00" style="fill:lime;stroke=black" />
<polygon points="160.00,180.00 163.75,180.00 163.75,183.75 160.00,183.75" style="fill:lime;stroke=black" />
<polygon points="163.75,180.00 163.75,176.25 167.50,176.25 167.50,180.00" style="fill:lime;stroke=black" />
<polygon points="167.50,157.50 175.00,150.00 182.50,157.50 175.00,165.00" style="fill:lime;stroke=black" />
<polygon points="175.00,165.00 182.50,165.00 182.50,172.50 175.00,172.50" style="fill:lime;stroke=black" />
<polygon points="175.00,172.50 178.75,176.25 175.00,180.00 171.25,176.25" style="fill:lime;stroke=black" />
<polygon points="171.25,176.25 171.25,180.00 167.50,180.00 167.50,176.25" style="fill:lime;stroke=black" />
<polygon points="171.25,180.00 175.00,180.00 175.00,183.75 171.25,183.75" style="fill:lime;stroke=black" />
<polygon points="178.75,176.25 182.50,172.50 186.25,176.25 182.50,180.00" style="fill:lime;stroke=black" />
<polygon points="182.50,180.00 186.25,180.00 186.25,183.75 182.50,183.75" style="fill:lime;stroke=black" />
<polygon points="186.25,180.00 186.25,176.25 190.00,176.25 190.00,180.00" style="fill:lime;stroke=black" />
<polygon points="182.50,165.00 182.50,157.50 190.00,157.50 190.00,165.00" style="fill:lime;stroke=black" />
<polygon points="190.00,165.00 193.75,161.25 197.50,165.00 193.75,168.75" style="fill:lime;stroke=black" />
<polygon points="193.75,168.75 197.50,168.75 197.50,172.50 193.75,172.50" style="fill:lime;stroke=black" />
<polygon points="197.50,168.75 197.50,165.00 201.25,165.00 201.25,168.75" style="fill:lime;stroke=black" />
<polygon points="193.75,161.25 190.00,157.50 193.75,153.75 197.50,157.50" style="fill:lime;stroke=black" />
<polygon points="197.50,157.50 197.50,153.75 201.25,153.75 201.25,157.50" style="fill:lime;stroke=black" />
<polygon points="197.50,153.75 193.75,153.75 193.75,150.00 197.50,150.00" style="fill:lime;stroke=black" />
<polygon points="220.00,120.00 250.00,120.00 250.00,150.00 220.00,150.00" style="fill:lime;stroke=black" />
<polygon points="220.00,150.00 235.00,165.00 220.00,180.00 205.00,165.00" style="fill:lime;stroke=black" />
<polygon points="205.00,165.00 205.00,180.00 190.00,180.00 190.00,165.00" style="fill:lime;stroke=black" />
<polygon points="190.00,165.00 182.50,172.50 175.00,165.00 182.50,157.50" style="fill:lime;stroke=black" />
<polygon points="182.50,157.50 175.00,157.50 175.00,150.00 182.50,150.00" style="fill:lime;stroke=black" />
<polygon points="182.50,150.00 178.75,146.25 182.50,142.50 186.25,146.25" style="fill:lime;stroke=black" />
<polygon points="186.25,146.25 186.25,142.50 190.00,142.50 190.00,146.25" style="fill:lime;stroke=black" />
<polygon points="186.25,142.50 182.50,142.50 182.50,138.75 186.25,138.75" style="fill:lime;stroke=black" />
<polygon points="178.75,146.25 175.00,150.00 171.25,146.25 175.00,142.50" style="fill:lime;stroke=black" />
<polygon points="175.00,142.50 171.25,142.50 171.25,138.75 175.00,138.75" style="fill:lime;stroke=black" />
<polygon points="171.25,142.50 171.25,146.25 167.50,146.25 167.50,142.50" style="fill:lime;stroke=black" />
<polygon points="175.00,157.50 175.00,165.00 167.50,165.00 167.50,157.50" style="fill:lime;stroke=black" />
<polygon points="167.50,157.50 163.75,161.25 160.00,157.50 163.75,153.75" style="fill:lime;stroke=black" />
<polygon points="163.75,153.75 160.00,153.75 160.00,150.00 163.75,150.00" style="fill:lime;stroke=black" />
<polygon points="160.00,153.75 160.00,157.50 156.25,157.50 156.25,153.75" style="fill:lime;stroke=black" />
<polygon points="163.75,161.25 167.50,165.00 163.75,168.75 160.00,165.00" style="fill:lime;stroke=black" />
<polygon points="160.00,165.00 160.00,168.75 156.25,168.75 156.25,165.00" style="fill:lime;stroke=black" />
<polygon points="160.00,168.75 163.75,168.75 163.75,172.50 160.00,172.50" style="fill:lime;stroke=black" />
<polygon points="182.50,172.50 190.00,180.00 182.50,187.50 175.00,180.00" style="fill:lime;stroke=black" />
<polygon points="175.00,180.00 175.00,187.50 167.50,187.50 167.50,180.00" style="fill:lime;stroke=black" />
<polygon points="167.50,180.00 163.75,183.75 160.00,180.00 163.75,176.25" style="fill:lime;stroke=black" />
<polygon points="163.75,176.25 160.00,176.25 160.00,172.50 163.75,172.50" style="fill:lime;stroke=black" />
<polygon points="160.00,176.25 160.00,180.00 156.25,180.00 156.25,176.25" style="fill:lime;stroke=black" />
<polygon points="163.75,183.75 167.50,187.50 163.75,191.25 160.00,187.50" style="fill:lime;stroke=black" />
<polygon points="160.00,187.50 160.00,191.25 156.25,191.25 156.25,187.50" style="fill:lime;stroke=black" />
<polygon points="160.00,191.25 163.75,191.25 163.75,195.00 160.00,195.00" style="fill:lime;stroke=black" />
<polygon points="175.00,187.50 182.50,187.50 182.50,195.00 175.00,195.00" style="fill:lime;stroke=black" />
<polygon points="175.00,195.00 178.75,198.75 175.00,202.50 171.25,198.75" style="fill:lime;stroke=black" />
<polygon points="171.25,198.75 171.25,202.50 167.50,202.50 167.50,198.75" style="fill:lime;stroke=black" />
<polygon points="171.25,202.50 175.00,202.50 175.00,206.25 171.25,206.25" style="fill:lime;stroke=black" />
<polygon points="178.75,198.75 182.50,195.00 186.25,198.75 182.50,202.50" style="fill:lime;stroke=black" />
<polygon points="182.50,202.50 186.25,202.50 186.25,206.25 182.50,206.25" style="fill:lime;stroke=black" />
<polygon points="186.25,202.50 186.25,198.75 190.00,198.75 190.00,202.50" style="fill:lime;stroke=black" />
<polygon points="205.00,180.00 220.00,180.00 220.00,195.00 205.00,195.00" style="fill:lime;stroke=black" />
<polygon points="205.00,195.00 212.50,202.50 205.00,210.00 197.50,202.50" style="fill:lime;stroke=black" />
<polygon points="197.50,202.50 197.50,210.00 190.00,210.00 190.00,202.50" style="fill:lime;stroke=black" />
<polygon points="190.00,202.50 186.25,206.25 182.50,202.50 186.25,198.75" style="fill:lime;stroke=black" />
<polygon points="186.25,198.75 182.50,198.75 182.50,195.00 186.25,195.00" style="fill:lime;stroke=black" />
<polygon points="182.50,198.75 182.50,202.50 178.75,202.50 178.75,198.75" style="fill:lime;stroke=black" />
<polygon points="186.25,206.25 190.00,210.00 186.25,213.75 182.50,210.00" style="fill:lime;stroke=black" />
<polygon points="182.50,210.00 182.50,213.75 178.75,213.75 178.75,210.00" style="fill:lime;stroke=black" />
<polygon points="182.50,213.75 186.25,213.75 186.25,217.50 182.50,217.50" style="fill:lime;stroke=black" />
<polygon points="197.50,210.00 205.00,210.00 205.00,217.50 197.50,217.50" style="fill:lime;stroke=black" />
<polygon points="197.50,217.50 201.25,221.25 197.50,225.00 193.75,221.25" style="fill:lime;stroke=black" />
<polygon points="193.75,221.25 193.75,225.00 190.00,225.00 190.00,221.25" style="fill:lime;stroke=black" />
<polygon points="193.75,225.00 197.50,225.00 197.50,228.75 193.75,228.75" style="fill:lime;stroke=black" />
<polygon points="201.25,221.25 205.00,217.50 208.75,221.25 205.00,225.00" style="fill:lime;stroke=black" />
<polygon points="205.00,225.00 208.75,225.00 208.75,228.75 205.00,228.75" style="fill:lime;stroke=black" />
<polygon points="208.75,225.00 208.75,221.25 212.50,221.25 212.50,225.00" style="fill:lime;stroke=black" />
<polygon points="212.50,202.50 220.00,195.00 227.50,202.50 220.00,210.00" style="fill:lime;stroke=black" />
<polygon points="220.00,210.00 227.50,210.00 227.50,217.50 220.00,217.50" style="fill:lime;stroke=black" />
<polygon points="220.00,217.50 223.75,221.25 220.00,225.00 216.25,221.25" style="fill:lime;stroke=black" />
<polygon points="216.25,221.25 216.25,225.00 212.50,225.00 212.50,221.25" style="fill:lime;stroke=black" />
<polygon points="216.25,225.00 220.00,225.00 220.00,228.75 216.25,228.75" style="fill:lime;stroke=black" />
<polygon points="223.75,221.25 227.50,217.50 231.25,221.25 227.50,225.00" style="fill:lime;stroke=black" />
<polygon points="227.50,225.00 231.25,225.00 231.25,228.75 227.50,228.75" style="fill:lime;stroke=black" />
<polygon points="231.25,225.00 231.25,221.25 235.00,221.25 235.00,225.00" style="fill:lime;stroke=black" />
<polygon points="227.50,210.00 227.50,202.50 235.00,202.50 235.00,210.00" style="fill:lime;stroke=black" />
<polygon points="235.00,210.00 238.75,206.25 242.50,210.00 238.75,213.75" style="fill:lime;stroke=black" />
<polygon points="238.75,213.75 242.50,213.75 242.50,217.50 238.75,217.50" style="fill:lime;stroke=black" />
<polygon points="242.50,213.75 242.50,210.00 246.25,210.00 246.25,213.75" style="fill:lime;stroke=black" />
<polygon points="238.75,206.25 235.00,202.50 238.75,198.75 242.50,202.50" style="fill:lime;stroke=black" />
<polygon points="242.50,202.50 242.50,198.75 246.25,198.75 246.25,202.50" style="fill:lime;stroke=black" />
<polygon points="242.50,198.75 238.75,198.75 238.75,195.00 242.50,195.00" style="fill:lime;stroke=black" />
<polygon points="235.00,165.00 250.00,150.00 265.00,165.00 250.00,180.00" style="fill:lime;stroke=black" />
<polygon points="250.00,180.00 265.00,180.00 265.00,195.00 250.00,195.00" style="fill:lime;stroke=black" />
<polygon points="250.00,195.00 257.50,202.50 250.00,210.00 242.50,202.50" style="fill:lime;stroke=black" />
<polygon points="242.50,202.50 242.50,210.00 235.00,210.00 235.00,202.50" style="fill:lime;stroke=black" />
<polygon points="235.00,202.50 231.25,206.25 227.50,202.50 231.25,198.75" style="fill:lime;stroke=black" />
<polygon points="231.25,198.75 227.50,198.75 227.50,195.00 231.25,195.00" style="fill:lime;stroke=black" />
<polygon points="227.50,198.75 227.50,202.50 223.75,202.50 223.75,198.75" style="fill:lime;stroke=black" />
<polygon points="231.25,206.25 235.00,210.00 231.25,213.75 227.50,210.00" style="fill:lime;stroke=black" />
<polygon points="227.50,210.00 227.50,213.75 223.75,213.75 223.75,210.00" style="fill:lime;stroke=black" />
<polygon points="227.50,213.75 231.25,213.75 231.25,217.50 227.50,217.50" style="fill:lime;stroke=black" />
<polygon points="242.50,210.00 250.00,210.00 250.00,217.50 242.50,217.50" style="fill:lime;stroke=black" />
<polygon points="242.50,217.50 246.25,221.25 242.50,225.00 238.75,221.25" style="fill:lime;stroke=black" />
<polygon points="238.75,221.25 238.75,225.00 235.00,225.00 235.00,221.25" style="fill:lime;stroke=black" />
<polygon points="238.75,225.00 242.50,225.00 242.50,228.75 238.75,228.75" style="fill:lime;stroke=black" />
<polygon points="246.25,221.25 250.00,217.50 253.75,221.25 250.00,225.00" style="fill:lime;stroke=black" />
<polygon points="250.00,225.00 253.75,225.00 253.75,228.75 250.00,228.75" style="fill:lime;stroke=black" />
<polygon points="253.75,225.00 253.75,221.25 257.50,221.25 257.50,225.00" style="fill:lime;stroke=black" />
<polygon points="257.50,202.50 265.00,195.00 272.50,202.50 265.00,210.00" style="fill:lime;stroke=black" />
<polygon points="265.00,210.00 272.50,210.00 272.50,217.50 265.00,217.50" style="fill:lime;stroke=black" />
<polygon points="265.00,217.50 268.75,221.25 265.00,225.00 261.25,221.25" style="fill:lime;stroke=black" />
<polygon points="261.25,221.25 261.25,225.00 257.50,225.00 257.50,221.25" style="fill:lime;stroke=black" />
<polygon points="261.25,225.00 265.00,225.00 265.00,228.75 261.25,228.75" style="fill:lime;stroke=black" />
<polygon points="268.75,221.25 272.50,217.50 276.25,221.25 272.50,225.00" style="fill:lime;stroke=black" />
<polygon points="272.50,225.00 276.25,225.00 276.25,228.75 272.50,228.75" style="fill:lime;stroke=black" />
<polygon points="276.25,225.00 276.25,221.25 280.00,221.25 280.00,225.00" style="fill:lime;stroke=black" />
<polygon points="272.50,210.00 272.50,202.50 280.00,202.50 280.00,210.00" style="fill:lime;stroke=black" />
<polygon points="280.00,210.00 283.75,206.25 287.50,210.00 283.75,213.75" style="fill:lime;stroke=black" />
<polygon points="283.75,213.75 287.50,213.75 287.50,217.50 283.75,217.50" style="fill:lime;stroke=black" />
<polygon points="287.50,213.75 287.50,210.00 291.25,210.00 291.25,213.75" style="fill:lime;stroke=black" />
<polygon points="283.75,206.25 280.00,202.50 283.75,198.75 287.50,202.50" style="fill:lime;stroke=black" />
<polygon points="287.50,202.50 287.50,198.75 291.25,198.75 291.25,202.50" style="fill:lime;stroke=black" />
<polygon points="287.50,198.75 283.75,198.75 283.75,195.00 287.50,195.00" style="fill:lime;stroke=black" />
<polygon points="265.00,180.00 265.00,165.00 280.00,165.00 280.00,180.00" style="fill:lime;stroke=black" />
<polygon points="280.00,180.00 287.50,172.50 295.00,180.00 287.50,187.50" style="fill:lime;stroke=black" />
<polygon points="287.50,187.50 295.00,187.50 295.00,195.00 287.50,195.00" style="fill:lime;stroke=black" />
<polygon points="287.50,195.00 291.25,198.75 287.50,202.50 283.75,198.75" style="fill:lime;stroke=black" />
<polygon points="283.75,198.75 283.75,202.50 280.00,202.50 280.00,198.75" style="fill:lime;stroke=black" />
<polygon points="283.75,202.50 287.50,202.50 287.50,206.25 283.75,206.25" style="fill:lime;stroke=black" />
<polygon points="291.25,198.75 295.00,195.00 298.75,198.75 295.00,202.50" style="fill:lime;stroke=black" />
<polygon points="295.00,202.50 298.75,202.50 298.75,206.25 295.00,206.25" style="fill:lime;stroke=black" />
<polygon points="298.75,202.50 298.75,198.75 302.50,198.75 302.50,202.50" style="fill:lime;stroke=black" />
<polygon points="295.00,187.50 295.00,180.00 302.50,180.00 302.50,187.50" style="fill:lime;stroke=black" />
<polygon points="302.50,187.50 306.25,183.75 310.00,187.50 306.25,191.25" style="fill:lime;stroke=black" />
<polygon points="306.25,191.25 310.00,191.25 310.00,195.00 306.25,195.00" style="fill:lime;stroke=black" />
<polygon points="310.00,191.25 310.00,187.50 313.75,187.50 313.75,191.25" style="fill:lime;stroke=black" />
<polygon points="306.25,183.75 302.50,180.00 306.25,176.25 310.00,180.00" style="fill:lime;stroke=black" />
<polygon points="310.00,180.00 310.00,176.25 313.75,176.25 313.75,180.00" style="fill:lime;stroke=black" />
<polygon points="310.00,176.25 306.25,176.25 306.25,172.50 310.00,172.50" style="fill:lime;stroke=black" />
<polygon points="287.50,172.50 280.00,165.00 287.50,157.50 295.00,165.00" style="fill:lime;stroke=black" />
<polygon points="295.00,165.00 295.00,157.50 302.50,157.50 302.50,165.00" style="fill:lime;stroke=black" />
<polygon points="302.50,165.00 306.25,161.25 310.00,165.00 306.25,168.75" style="fill:lime;stroke=black" />
<polygon points="306.25,168.75 310.00,168.75 310.00,172.50 306.25,172.50" style="fill:lime;stroke=black" />
<polygon points="310.00,168.75 310.00,165.00 313.75,165.00 313.75,168.75" style="fill:lime;stroke=black" />
<polygon points="306.25,161.25 302.50,157.50 306.25,153.75 310.00,157.50" style="fill:lime;stroke=black" />
<polygon points="310.00,157.50 310.00,153.75 313.75,153.75 313.75,157.50" style="fill:lime;stroke=black" />
<polygon points="310.00,153.75 306.25,153.75 306.25,150.00 310.00,150.00" style="fill:lime;stroke=black" />
<polygon points="295.00,157.50 287.50,157.50 287.50,150.00 295.00,150.00" style="fill:lime;stroke=black" />
<polygon points="295.00,150.00 291.25,146.25 295.00,142.50 298.75,146.25" style="fill:lime;stroke=black" />
<polygon points="298.75,146.25 298.75,142.50 302.50,142.50 302.50,146.25" style="fill:lime;stroke=black" />
<polygon points="298.75,142.50 295.00,142.50 295.00,138.75 298.75,138.75" style="fill:lime;stroke=black" />
<polygon points="291.25,146.25 287.50,150.00 283.75,146.25 287.50,142.50" style="fill:lime;stroke=black" />
<polygon points="287.50,142.50 283.75,142.50 283.75,138.75 287.50,138.75" style="fill:lime;stroke=black" />
<polygon points="283.75,142.50 283.75,146.25 280.00,146.25 280.00,142.50" style="fill:lime;stroke=black" />
<polygon points="280.00,90.00 310.00,60.00 340.00,90.00 310.00,120.00" style="fill:lime;stroke=black" />
<polygon points="310.00,120.00 340.00,120.00 340.00,150.00 310.00,150.00" style="fill:lime;stroke=black" />
<polygon points="310.00,150.00 325.00,165.00 310.00,180.00 295.00,165.00" style="fill:lime;stroke=black" />
<polygon points="295.00,165.00 295.00,180.00 280.00,180.00 280.00,165.00" style="fill:lime;stroke=black" />
<polygon points="280.00,165.00 272.50,172.50 265.00,165.00 272.50,157.50" style="fill:lime;stroke=black" />
<polygon points="272.50,157.50 265.00,157.50 265.00,150.00 272.50,150.00" style="fill:lime;stroke=black" />
<polygon points="272.50,150.00 268.75,146.25 272.50,142.50 276.25,146.25" style="fill:lime;stroke=black" />
<polygon points="276.25,146.25 276.25,142.50 280.00,142.50 280.00,146.25" style="fill:lime;stroke=black" />
<polygon points="276.25,142.50 272.50,142.50 272.50,138.75 276.25,138.75" style="fill:lime;stroke=black" />
<polygon points="268.75,146.25 265.00,150.00 261.25,146.25 265.00,142.50" style="fill:lime;stroke=black" />
<polygon points="265.00,142.50 261.25,142.50 261.25,138.75 265.00,138.75" style="fill:lime;stroke=black" />
<polygon points="261.25,142.50 261.25,146.25 257.50,146.25 257.50,142.50" style="fill:lime;stroke=black" />
<polygon points="265.00,157.50 265.00,165.00 257.50,165.00 257.50,157.50" style="fill:lime;stroke=black" />
<polygon points="257.50,157.50 253.75,161.25 250.00,157.50 253.75,153.75" style="fill:lime;stroke=black" />
<polygon points="253.75,153.75 250.00,153.75 250.00,150.00 253.75,150.00" style="fill:lime;stroke=black" />
<polygon points="250.00,153.75 250.00,157.50 246.25,157.50 246.25,153.75" style="fill:lime;stroke=black" />
<polygon points="253.75,161.25 257.50,165.00 253.75,168.75 250.00,165.00" style="fill:lime;stroke=black" />
<polygon points="250.00,165.00 250.00,168.75 246.25,168.75 246.25,165.00" style="fill:lime;stroke=black" />
<polygon points="250.00,168.75 253.75,168.75 253.75,172.50 250.00,172.50" style="fill:lime;stroke=black" />
<polygon points="272.50,172.50 280.00,180.00 272.50,187.50 265.00,180.00" style="fill:lime;stroke=black" />
<polygon points="265.00,180.00 265.00,187.50 257.50,187.50 257.50,180.00" style="fill:lime;stroke=black" />
<polygon points="257.50,180.00 253.75,183.75 250.00,180.00 253.75,176.25" style="fill:lime;stroke=black" />
<polygon points="253.75,176.25 250.00,176.25 250.00,172.50 253.75,172.50" style="fill:lime;stroke=black" />
<polygon points="250.00,176.25 250.00,180.00 246.25,180.00 246.25,176.25" style="fill:lime;stroke=black" />
<polygon points="253.75,183.75 257.50,187.50 253.75,191.25 250.00,187.50" style="fill:lime;stroke=black" />
<polygon points="250.00,187.50 250.00,191.25 246.25,191.25 246.25,187.50" style="fill:lime;stroke=black" />
<polygon points="250.00,191.25 253.75,191.25 253.75,195.00 250.00,195.00" style="fill:lime;stroke=black" />
<polygon points="265.00,187.50 272.50,187.50 272.50,195.00 265.00,195.00" style="fill:lime;stroke=black" />
<polygon points="265.00,195.00 268.75,198.75 265.00,202.50 261.25,198.75" style="fill:lime;stroke=black" />
<polygon points="261.25,198.75 261.25,202.50 257.50,202.50 257.50,198.75" style="fill:lime;stroke=black" />
<polygon points="261.25,202.50 265.00,202.50 265.00,206.25 261.25,206.25" style="fill:lime;stroke=black" />
<polygon points="268.75,198.75 272.50,195.00 276.25,198.75 272.50,202.50" style="fill:lime;stroke=black" />
<polygon points="272.50,202.50 276.25,202.50 276.25,206.25 272.50,206.25" style="fill:lime;stroke=black" />
<polygon points="276.25,202.50 276.25,198.75 280.00,198.75 280.00,202.50" style="fill:lime;stroke=black" />
<polygon points="295.00,180.00 310.00,180.00 310.00,195.00 295.00,195.00" style="fill:lime;stroke=black" />
<polygon points="295.00,195.00 302.50,202.50 295.00,210.00 287.50,202.50" style="fill:lime;stroke=black" />
<polygon points="287.50,202.50 287.50,210.00 280.00,210.00 280.00,202.50" style="fill:lime;stroke=black" />
<polygon points="280.00,202.50 276.25,206.25 272.50,202.50 276.25,198.75" style="fill:lime;stroke=black" />
<polygon points="276.25,198.75 272.50,198.75 272.50,195.00 276.25,195.00" style="fill:lime;stroke=black" />
<polygon points="272.50,198.75 272.50,202.50 268.75,202.50 268.75,198.75" style="fill:lime;stroke=black" />
<polygon points="276.25,206.25 280.00,210.00 276.25,213.75 272.50,210.00" style="fill:lime;stroke=black" />
<polygon points="272.50,210.00 272.50,213.75 268.75,213.75 268.75,210.00" style="fill:lime;stroke=black" />
<polygon points="272.50,213.75 276.25,213.75 276.25,217.50 272.50,217.50" style="fill:lime;stroke=black" />
<polygon points="287.50,210.00 295.00,210.00 295.00,217.50 287.50,217.50" style="fill:lime;stroke=black" />
<polygon points="287.50,217.50 291.25,221.25 287.50,225.00 283.75,221.25" style="fill:lime;stroke=black" />
<polygon points="283.75,221.25 283.75,225.00 280.00,225.00 280.00,221.25" style="fill:lime;stroke=black" />
<polygon points="283.75,225.00 287.50,225.00 287.50,228.75 283.75,228.75" style="fill:lime;stroke=black" />
<polygon points="291.25,221.25 295.00,217.50 298.75,221.25 295.00,225.00" style="fill:lime;stroke=black" />
<polygon points="295.00,225.00 298.75,225.00 298.75,228.75 295.00,228.75" style="fill:lime;stroke=black" />
<polygon points="298.75,225.00 298.75,221.25 302.50,221.25 302.50,225.00" style="fill:lime;stroke=black" />
<polygon points="302.50,202.50 310.00,195.00 317.50,202.50 310.00,210.00" style="fill:lime;stroke=black" />
<polygon points="310.00,210.00 317.50,210.00 317.50,217.50 310.00,217.50" style="fill:lime;stroke=black" />
<polygon points="310.00,217.50 313.75,221.25 310.00,225.00 306.25,221.25" style="fill:lime;stroke=black" />
<polygon points="306.25,221.25 306.25,225.00 302.50,225.00 302.50,221.25" style="fill:lime;stroke=black" />
<polygon points="306.25,225.00 310.00,225.00 310.00,228.75 306.25,228.75" style="fill:lime;stroke=black" />
<polygon points="313.75,221.25 317.50,217.50 321.25,221.25 317.50,225.00" style="fill:lime;stroke=black" />
<polygon points="317.50,225.00 321.25,225.00 321.25,228.75 317.50,228.75" style="fill:lime;stroke=black" />
<polygon points="321.25,225.00 321.25,221.25 325.00,221.25 325.00,225.00" style="fill:lime;stroke=black" />
<polygon points="317.50,210.00 317.50,202.50 325.00,202.50 325.00,210.00" style="fill:lime;stroke=black" />
<polygon points="325.00,210.00 328.75,206.25 332.50,210.00 328.75,213.75" style="fill:lime;stroke=black" />
<polygon points="328.75,213.75 332.50,213.75 332.50,217.50 328.75,217.50" style="fill:lime;stroke=black" />
<polygon points="332.50,213.75 332.50,210.00 336.25,210.00 336.25,213.75" style="fill:lime;stroke=black" />
<polygon points="328.75,206.25 325.00,202.50 328.75,198.75 332.50,202.50" style="fill:lime;stroke=black" />
<polygon points="332.50,202.50 332.50,198.75 336.25,198.75 336.25,202.50" style="fill:lime;stroke=black" />
<polygon points="332.50,198.75 328.75,198.75 328.75,195.00 332.50,195.00" style="fill:lime;stroke=black" />
<polygon points="325.00,165.00 340.00,150.00 355.00,165.00 340.00,180.00" style="fill:lime;stroke=black" />
<polygon points="340.00,180.00 355.00,180.00 355.00,195.00 340.00,195.00" style="fill:lime;stroke=black" />
<polygon points="340.00,195.00 347.50,202.50 340.00,210.00 332.50,202.50" style="fill:lime;stroke=black" />
<polygon points="332.50,202.50 332.50,210.00 325.00,210.00 325.00,202.50" style="fill:lime;stroke=black" />
<polygon points="325.00,202.50 321.25,206.25 317.50,202.50 321.25,198.75" style="fill:lime;stroke=black" />
<polygon points="321.25,198.75 317.50,198.75 317.50,195.00 321.25,195.00" style="fill:lime;stroke=black" />
<polygon points="317.50,198.75 317.50,202.50 313.75,202.50 313.75,198.75" style="fill:lime;stroke=black" />
<polygon points="321.25,206.25 325.00,210.00 321.25,213.75 317.50,210.00" style="fill:lime;stroke=black" />
<polygon points="317.50,210.00 317.50,213.75 313.75,213.75 313.75,210.00" style="fill:lime;stroke=black" />
<polygon points="317.50,213.75 321.25,213.75 321.25,217.50 317.50,217.50" style="fill:lime;stroke=black" />
<polygon points="332.50,210.00 340.00,210.00 340.00,217.50 332.50,217.50" style="fill:lime;stroke=black" />
<polygon points="332.50,217.50 336.25,221.25 332.50,225.00 328.75,221.25" style="fill:lime;stroke=black" />
<polygon points="328.75,221.25 328.75,225.00 325.00,225.00 325.00,221.25" style="fill:lime;stroke=black" />
<polygon points="328.75,225.00 332.50,225.00 332.50,228.75 328.75,228.75" style="fill:lime;stroke=black" />
<polygon points="336.25,221.25 340.00,217.50 343.75,221.25 340.00,225.00" style="fill:lime;stroke=black" />
<polygon points="340.00,225.00 343.75,225.00 343.75,228.75 340.00,228.75" style="fill:lime;stroke=black" />
<polygon points="343.75,225.00 343.75,221.25 347.50,221.25 347.50,225.00" style="fill:lime;stroke=black" />
<polygon points="347.50,202.50 355.00,195.00 362.50,202.50 355.00,210.00" style="fill:lime;stroke=black" />
<polygon points="355.00,210.00 362.50,210.00 362.50,217.50 355.00,217.50" style="fill:lime;stroke=black" />
<polygon points="355.00,217.50 358.75,221.25 355.00,225.00 351.25,221.25" style="fill:lime;stroke=black" />
<polygon points="351.25,221.25 351.25,225.00 347.50,225.00 347.50,221.25" style="fill:lime;stroke=black" />
<polygon points="351.25,225.00 355.00,225.00 355.00,228.75 351.25,228.75" style="fill:lime;stroke=black" />
<polygon points="358.75,221.25 362.50,217.50 366.25,221.25 362.50,225.00" style="fill:lime;stroke=black" />
<polygon points="362.50,225.00 366.25,225.00 366.25,228.75 362.50,228.75" style="fill:lime;stroke=black" />
<polygon points="366.25,225.00 366.25,221.25 370.00,221.25 370.00,225.00" style="fill:lime;stroke=black" />
<polygon points="362.50,210.00 362.50,202.50 370.00,202.50 370.00,210.00" style="fill:lime;stroke=black" />
<polygon points="370.00,210.00 373.75,206.25 377.50,210.00 373.75,213.75" style="fill:lime;stroke=black" />
<polygon points="373.75,213.75 377.50,213.75 377.50,217.50 373.75,217.50" style="fill:lime;stroke=black" />
<polygon points="377.50,213.75 377.50,210.00 381.25,210.00 381.25,213.75" style="fill:lime;stroke=black" />
<polygon points="373.75,206.25 370.00,202.50 373.75,198.75 377.50,202.50" style="fill:lime;stroke=black" />
<polygon points="377.50,202.50 377.50,198.75 381.25,198.75 381.25,202.50" style="fill:lime;stroke=black" />
<polygon points="377.50,198.75 373.75,198.75 373.75,195.00 377.50,195.00" style="fill:lime;stroke=black" />
<polygon points="355.00,180.00 355.00,165.00 370.00,165.00 370.00,180.00" style="fill:lime;stroke=black" />
<polygon points="370.00,180.00 377.50,172.50 385.00,180.00 377.50,187.50" style="fill:lime;stroke=black" />
<polygon points="377.50,187.50 385.00,187.50 385.00,195.00 377.50,195.00" style="fill:lime;stroke=black" />
<polygon points="377.50,195.00 381.25,198.75 377.50,202.50 373.75,198.75" style="fill:lime;stroke=black" />
<polygon points="373.75,198.75 373.75,202.50 370.00,202.50 370.00,198.75" style="fill:lime;stroke=black" />
<polygon points="373.75,202.50 377.50,202.50 377.50,206.25 373.75,206.25" style="fill:lime;stroke=black" />
<polygon points="381.25,198.75 385.00,195.00 388.75,198.75 385.00,202.50" style="fill:lime;stroke=black" />
<polygon points="385.00,202.50 388.75,202.50 388.75,206.25 385.00,206.25" style="fill:lime;stroke=black" />
<polygon points="388.75,202.50 388.75,198.75 392.50,198.75 392.50,202.50" style="fill:lime;stroke=black" />
<polygon points="385.00,187.50 385.00,180.00 392.50,180.00 392.50,187.50" style="fill:lime;stroke=black" />
<polygon points="392.50,187.50 396.25,183.75 400.00,187.50 396.25,191.25" style="fill:lime;stroke=black" />
<polygon points="396.25,191.25 400.00,191.25 400.00,195.00 396.25,195.00" style="fill:lime;stroke=black" />
<polygon points="400.00,191.25 400.00,187.50 403.75,187.50 403.75,191.25" style="fill:lime;stroke=black" />
<polygon points="396.25,183.75 392.50,180.00 396.25,176.25 400.00,180.00" style="fill:lime;stroke=black" />
<polygon points="400.00,180.00 400.00,176.25 403.75,176.25 403.75,180.00" style="fill:lime;stroke=black" />
<polygon points="400.00,176.25 396.25,176.25 396.25,172.50 400.00,172.50" style="fill:lime;stroke=black" />
<polygon points="377.50,172.50 370.00,165.00 377.50,157.50 385.00,165.00" style="fill:lime;stroke=black" />
<polygon points="385.00,165.00 385.00,157.50 392.50,157.50 392.50,165.00" style="fill:lime;stroke=black" />
<polygon points="392.50,165.00 396.25,161.25 400.00,165.00 396.25,168.75" style="fill:lime;stroke=black" />
<polygon points="396.25,168.75 400.00,168.75 400.00,172.50 396.25,172.50" style="fill:lime;stroke=black" />
<polygon points="400.00,168.75 400.00,165.00 403.75,165.00 403.75,168.75" style="fill:lime;stroke=black" />
<polygon points="396.25,161.25 392.50,157.50 396.25,153.75 400.00,157.50" style="fill:lime;stroke=black" />
<polygon points="400.00,157.50 400.00,153.75 403.75,153.75 403.75,157.50" style="fill:lime;stroke=black" />
<polygon points="400.00,153.75 396.25,153.75 396.25,150.00 400.00,150.00" style="fill:lime;stroke=black" />
<polygon points="385.00,157.50 377.50,157.50 377.50,150.00 385.00,150.00" style="fill:lime;stroke=black" />
<polygon points="385.00,150.00 381.25,146.25 385.00,142.50 388.75,146.25" style="fill:lime;stroke=black" />
<polygon points="388.75,146.25 388.75,142.50 392.50,142.50 392.50,146.25" style="fill:lime;stroke=black" />
<polygon points="388.75,142.50 385.00,142.50 385.00,138.75 388.75,138.75" style="fill:lime;stroke=black" />
<polygon points="381.25,146.25 377.50,150.00 373.75,146.25 377.50,142.50" style="fill:lime;stroke=black" />
<polygon points="377.50,142.50 373.75,142.50 373.75,138.75 377.50,138.75" style="fill:lime;stroke=black" />
<polygon points="373.75,142.50 373.75,146.25 370.00,146.25 370.00,142.50" style="fill:lime;stroke=black" />
<polygon points="340.00,120.00 340.00,90.00 370.00,90.00 370.00,120.00" style="fill:lime;stroke=black" />
<polygon points="370.00,120.00 385.00,105.00 400.00,120.00 385.00,135.00" style="fill:lime;stroke=black" />
<polygon points="385.00,135.00 400.00,135.00 400.00,150.00 385.00,150.00" style="fill:lime;stroke=black" />
<polygon points="385.00,150.00 392.50,157.50 385.00,165.00 377.50,157.50" style="fill:lime;stroke=black" />
<polygon points="377.50,157.50 377.50,165.00 370.00,165.00 370.00,157.50" style="fill:lime;stroke=black" />
<polygon points="370.00,157.50 366.25,161.25 362.50,157.50 366.25,153.75" style="fill:lime;stroke=black" />
<polygon points="366.25,153.75 362.50,153.75 362.50,150.00 366.25,150.00" style="fill:lime;stroke=black" />
<polygon points="362.50,153.75 362.50,157.50 358.75,157.50 358.75,153.75" style="fill:lime;stroke=black" />
<polygon points="366.25,161.25 370.00,165.00 366.25,168.75 362.50,165.00" style="fill:lime;stroke=black" />
<polygon points="362.50,165.00 362.50,168.75 358.75,168.75 358.75,165.00" style="fill:lime;stroke=black" />
<polygon points="362.50,168.75 366.25,168.75 366.25,172.50 362.50,172.50" style="fill:lime;stroke=black" />
<polygon points="377.50,165.00 385.00,165.00 385.00,172.50 377.50,172.50" style="fill:lime;stroke=black" />
<polygon points="377.50,172.50 381.25,176.25 377.50,180.00 373.75,176.25" style="fill:lime;stroke=black" />
<polygon points="373.75,176.25 373.75,180.00 370.00,180.00 370.00,176.25" style="fill:lime;stroke=black" />
<polygon points="373.75,180.00 377.50,180.00 377.50,183.75 373.75,183.75" style="fill:lime;stroke=black" />
<polygon points="381.25,176.25 385.00,172.50 388.75,176.25 385.00,180.00" style="fill:lime;stroke=black" />
<polygon points="385.00,180.00 388.75,180.00 388.75,183.75 385.00,183.75" style="fill:lime;stroke=black" />
<polygon points="388.75,180.00 388.75,176.25 392.50,176.25 392.50,180.00" style="fill:lime;stroke=black" />
<polygon points="392.50,157.50 400.00,150.00 407.50,157.50 400.00,165.00" style="fill:lime;stroke=black" />
<polygon points="400.00,165.00 407.50,165.00 407.50,172.50 400.00,172.50" style="fill:lime;stroke=black" />
<polygon points="400.00,172.50 403.75,176.25 400.00,180.00 396.25,176.25" style="fill:lime;stroke=black" />
<polygon points="396.25,176.25 396.25,180.00 392.50,180.00 392.50,176.25" style="fill:lime;stroke=black" />
<polygon points="396.25,180.00 400.00,180.00 400.00,183.75 396.25,183.75" style="fill:lime;stroke=black" />
<polygon points="403.75,176.25 407.50,172.50 411.25,176.25 407.50,180.00" style="fill:lime;stroke=black" />
<polygon points="407.50,180.00 411.25,180.00 411.25,183.75 407.50,183.75" style="fill:lime;stroke=black" />
<polygon points="411.25,180.00 411.25,176.25 415.00,176.25 415.00,180.00" style="fill:lime;stroke=black" />
<polygon points="407.50,165.00 407.50,157.50 415.00,157.50 415.00,165.00" style="fill:lime;stroke=black" />
<polygon points="415.00,165.00 418.75,161.25 422.50,165.00 418.75,168.75" style="fill:lime;stroke=black" />
<polygon points="418.75,168.75 422.50,168.75 422.50,172.50 418.75,172.50" style="fill:lime;stroke=black" />
<polygon points="422.50,168.75 422.50,165.00 426.25,165.00 426.25,168.75" style="fill:lime;stroke=black" />
<polygon points="418.75,161.25 415.00,157.50 418.75,153.75 422.50,157.50" style="fill:lime;stroke=black" />
<polygon points="422.50,157.50 422.50,153.75 426.25,153.75 426.25,157.50" style="fill:lime;stroke=black" />
<polygon points="422.50,153.75 418.75,153.75 418.75,150.00 422.50,150.00" style="fill:lime;stroke=black" />
<polygon points="400.00,135.00 400.00,120.00 415.00,120.00 415.00,135.00" style="fill:lime;stroke=black" />
<polygon points="415.00,135.00 422.50,127.50 430.00,135.00 422.50,142.50" style="fill:lime;stroke=black" />
<polygon points="422.50,142.50 430.00,142.50 430.00,150.00 422.50,150.00" style="fill:lime;stroke=black" />
<polygon points="422.50,150.00 426.25,153.75 422.50,157.50 418.75,153.75" style="fill:lime;stroke=black" />
<polygon points="418.75,153.75 418.75,157.50 415.00,157.50 415.00,153.75" style="fill:lime;stroke=black" />
<polygon points="418.75,157.50 422.50,157.50 422.50,161.25 418.75,161.25" style="fill:lime;stroke=black" />
<polygon points="426.25,153.75 430.00,150.00 433.75,153.75 430.00,157.50" style="fill:lime;stroke=black" />
<polygon points="430.00,157.50 433.75,157.50 433.75,161.25 430.00,161.25" style="fill:lime;stroke=black" />
<polygon points="433.75,157.50 433.75,153.75 437.50,153.75 437.50,157.50" style="fill:lime;stroke=black" />
<polygon points="430.00,142.50 430.00,135.00 437.50,135.00 437.50,142.50" style="fill:lime;stroke=black" />
<polygon points="437.50,142.50 441.25,138.75 445.00,142.50 441.25,146.25" style="fill:lime;stroke=black" />
<polygon points="441.25,146.25 445.00,146.25 445.00,150.00 441.25,150.00" style="fill:lime;stroke=black" />
<polygon points="445.00,146.25 445.00,142.50 448.75,142.50 448.75,146.25" style="fill:lime;stroke=black" />
<polygon points="441.25,138.75 437.50,135.00 441.25,131.25 445.00,135.00" style="fill:lime;stroke=black" />
<polygon points="445.00,135.00 445.00,131.25 448.75,131.25 448.75,135.00" style="fill:lime;stroke=black" />
<polygon points="445.00,131.25 441.25,131.25 441.25,127.50 445.00,127.50" style="fill:lime;stroke=black" />
<polygon points="422.50,127.50 415.00,120.00 422.50,112.50 430.00,120.00" style="fill:lime;stroke=black" />
<polygon points="430.00,120.00 430.00,112.50 437.50,112.50 437.50,120.00" style="fill:lime;stroke=black" />
<polygon points="437.50,120.00 441.25,116.25 445.00,120.00 441.25,123.75" style="fill:lime;stroke=black" />
<polygon points="441.25,123.75 445.00,123.75 445.00,127.50 441.25,127.50" style="fill:lime;stroke=black" />
<polygon points="445.00,123.75 445.00,120.00 448.75,120.00 448.75,123.75" style="fill:lime;stroke=black" />
<polygon points="441.25,116.25 437.50,112.50 441.25,108.75 445.00,112.50" style="fill:lime;stroke=black" />
<polygon points="445.00,112.50 445.00,108.75 448.75,108.75 448.75,112.50" style="fill:lime;stroke=black" />
<polygon points="445.00,108.75 441.25,108.75 441.25,105.00 445.00,105.00" style="fill:lime;stroke=black" />
<polygon points="430.00,112.50 422.50,112.50 422.50,105.00 430.00,105.00" style="fill:lime;stroke=black" />
<polygon points="430.00,105.00 426.25,101.25 430.00,97.50 433.75,101.25" style="fill:lime;stroke=black" />
<polygon points="433.75,101.25 433.75,97.50 437.50,97.50 437.50,101.25" style="fill:lime;stroke=black" />
<polygon points="433.75,97.50 430.00,97.50 430.00,93.75 433.75,93.75" style="fill:lime;stroke=black" />
<polygon points="426.25,101.25 422.50,105.00 418.75,101.25 422.50,97.50" style="fill:lime;stroke=black" />
<polygon points="422.50,97.50 418.75,97.50 418.75,93.75 422.50,93.75" style="fill:lime;stroke=black" />
<polygon points="418.75,97.50 418.75,101.25 415.00,101.25 415.00,97.50" style="fill:lime;stroke=black" />
<polygon points="385.00,105.00 370.00,90.00 385.00,75.00 400.00,90.00" style="fill:lime;stroke=black" />
<polygon points="400.00,90.00 400.00,75.00 415.00,75.00 415.00,90.00" style="fill:lime;stroke=black" />
<polygon points="415.00,90.00 422.50,82.50 430.00,90.00 422.50,97.50" style="fill:lime;stroke=black" />
<polygon points="422.50,97.50 430.00,97.50 430.00,105.00 422.50,105.00" style="fill:lime;stroke=black" />
<polygon points="422.50,105.00 426.25,108.75 422.50,112.50 418.75,108.75" style="fill:lime;stroke=black" />
<polygon points="418.75,108.75 418.75,112.50 415.00,112.50 415.00,108.75" style="fill:lime;stroke=black" />
<polygon points="418.75,112.50 422.50,112.50 422.50,116.25 418.75,116.25" style="fill:lime;stroke=black" />
<polygon points="426.25,108.75 430.00,105.00 433.75,108.75 430.00,112.50" style="fill:lime;stroke=black" />
<polygon points="430.00,112.50 433.75,112.50 433.75,116.25 430.00,116.25" style="fill:lime;stroke=black" />
<polygon points="433.75,112.50 433.75,108.75 437.50,108.75 437.50,112.50" style="fill:lime;stroke=black" />
<polygon points="430.00,97.50 430.00,90.00 437.50,90.00 437.50,97.50" style="fill:lime;stroke=black" />
<polygon points="437.50,97.50 441.25,93.75 445.00,97.50 441.25,101.25" style="fill:lime;stroke=black" />
<polygon points="441.25,101.25 445.00,101.25 445.00,105.00 441.25,105.00" style="fill:lime;stroke=black" />
<polygon points="445.00,101.25 445.00,97.50 448.75,97.50 448.75,101.25" style="fill:lime;stroke=black" />
<polygon points="441.25,93.75 437.50,90.00 441.25,86.25 445.00,90.00" style="fill:lime;stroke=black" />
<polygon points="445.00,90.00 445.00,86.25 448.75,86.25 448.75,90.00" style="fill:lime;stroke=black" />
<polygon points="445.00,86.25 441.25,86.25 441.25,82.50 445.00,82.50" style="fill:lime;stroke=black" />
<polygon points="422.50,82.50 415.00,75.00 422.50,67.50 430.00,75.00" style="fill:lime;stroke=black" />
<polygon points="430.00,75.00 430.00,67.50 437.50,67.50 437.50,75.00" style="fill:lime;stroke=black" />
<polygon points="437.50,75.00 441.25,71.25 445.00,75.00 441.25,78.75" style="fill:lime;stroke=black" />
<polygon points="441.25,78.75 445.00,78.75 445.00,82.50 441.25,82.50" style="fill:lime;stroke=black" />
<polygon points="445.00,78.75 445.00,75.00 448.75,75.00 448.75,78.75" style="fill:lime;stroke=black" />
<polygon points="441.25,71.25 437.50,67.50 441.25,63.75 445.00,67.50" style="fill:lime;stroke=black" />
<polygon points="445.00,67.50 445.00,63.75 448.75,63.75 448.75,67.50" style="fill:lime;stroke=black" />
<polygon points="445.00,63.75 441.25,63.75 441.25,60.00 445.00,60.00" style="fill:lime;stroke=black" />
<polygon points="430.00,67.50 422.50,67.50 422.50,60.00 430.00,60.00" style="fill:lime;stroke=black" />
<polygon points="430.00,60.00 426.25,56.25 430.00,52.50 433.75,56.25" style="fill:lime;stroke=black" />
<polygon points="433.75,56.25 433.75,52.50 437.50,52.50 437.50,56.25" style="fill:lime;stroke=black" />
<polygon points="433.75,52.50 430.00,52.50 430.00,48.75 433.75,48.75" style="fill:lime;stroke=black" />
<polygon points="426.25,56.25 422.50,60.00 418.75,56.25 422.50,52.50" style="fill:lime;stroke=black" />
<polygon points="422.50,52.50 418.75,52.50 418.75,48.75 422.50,48.75" style="fill:lime;stroke=black" />
<polygon points="418.75,52.50 418.75,56.25 415.00,56.25 415.00,52.50" style="fill:lime;stroke=black" />
<polygon points="400.00,75.00 385.00,75.00 385.00,60.00 400.00,60.00" style="fill:lime;stroke=black" />
<polygon points="400.00,60.00 392.50,52.50 400.00,45.00 407.50,52.50" style="fill:lime;stroke=black" />
<polygon points="407.50,52.50 407.50,45.00 415.00,45.00 415.00,52.50" style="fill:lime;stroke=black" />
<polygon points="415.00,52.50 418.75,48.75 422.50,52.50 418.75,56.25" style="fill:lime;stroke=black" />
<polygon points="418.75,56.25 422.50,56.25 422.50,60.00 418.75,60.00" style="fill:lime;stroke=black" />
<polygon points="422.50,56.25 422.50,52.50 426.25,52.50 426.25,56.25" style="fill:lime;stroke=black" />
<polygon points="418.75,48.75 415.00,45.00 418.75,41.25 422.50,45.00" style="fill:lime;stroke=black" />
<polygon points="422.50,45.00 422.50,41.25 426.25,41.25 426.25,45.00" style="fill:lime;stroke=black" />
<polygon points="422.50,41.25 418.75,41.25 418.75,37.50 422.50,37.50" style="fill:lime;stroke=black" />
<polygon points="407.50,45.00 400.00,45.00 400.00,37.50 407.50,37.50" style="fill:lime;stroke=black" />
<polygon points="407.50,37.50 403.75,33.75 407.50,30.00 411.25,33.75" style="fill:lime;stroke=black" />
<polygon points="411.25,33.75 411.25,30.00 415.00,30.00 415.00,33.75" style="fill:lime;stroke=black" />
<polygon points="411.25,30.00 407.50,30.00 407.50,26.25 411.25,26.25" style="fill:lime;stroke=black" />
<polygon points="403.75,33.75 400.00,37.50 396.25,33.75 400.00,30.00" style="fill:lime;stroke=black" />
<polygon points="400.00,30.00 396.25,30.00 396.25,26.25 400.00,26.25" style="fill:lime;stroke=black" />
<polygon points="396.25,30.00 396.25,33.75 392.50,33.75 392.50,30.00" style="fill:lime;stroke=black" />
<polygon points="392.50,52.50 385.00,60.00 377.50,52.50 385.00,45.00" style="fill:lime;stroke=black" />
<polygon points="385.00,45.00 377.50,45.00 377.50,37.50 385.00,37.50" style="fill:lime;stroke=black" />
<polygon points="385.00,37.50 381.25,33.75 385.00,30.00 388.75,33.75" style="fill:lime;stroke=black" />
<polygon points="388.75,33.75 388.75,30.00 392.50,30.00 392.50,33.75" style="fill:lime;stroke=black" />
<polygon points="388.75,30.00 385.00,30.00 385.00,26.25 388.75,26.25" style="fill:lime;stroke=black" />
<polygon points="381.25,33.75 377.50,37.50 373.75,33.75 377.50,30.00" style="fill:lime;stroke=black" />
<polygon points="377.50,30.00 373.75,30.00 373.75,26.25 377.50,26.25" style="fill:lime;stroke=black" />
<polygon points="373.75,30.00 373.75,33.75 370.00,33.75 370.00,30.00" style="fill:lime;stroke=black" />
<polygon points="377.50,45.00 377.50,52.50 370.00,52.50 370.00,45.00" style="fill:lime;stroke=black" />
<polygon points="370.00,45.00 366.25,48.75 362.50,45.00 366.25,41.25" style="fill:lime;stroke=black" />
<polygon points="366.25,41.25 362.50,41.25 362.50,37.50 366.25,37.50" style="fill:lime;stroke=black" />
<polygon points="362.50,41.25 362.50,45.00 358.75,45.00 358.75,41.25" style="fill:lime;stroke=black" />
<polygon points="366.25,48.75 370.00,52.50 366.25,56.25 362.50,52.50" style="fill:lime;stroke=black" />
<polygon points="362.50,52.50 362.50,56.25 358.75,56.25 358.75,52.50" style="fill:lime;stroke=black" />
<polygon points="362.50,56.25 366.25,56.25 366.25,60.00 362.50,60.00" style="fill:lime;stroke=black" />
</svg>
