<svg xmlns="http://www.w3.org/2000/svg" xmlns:svg="http://www.w3.org/2000/svg" xmlns:xlink="http://www.w3.org/1999/xlink" width="800" height="693"><rect width="100%" height="100%" fill="black" /><polyline points="400,15,403,20,400,25,394,25,391,31,394,36,400,36,403,31,409,31,412,36,409,41,412,46,418,46,421,51,418,57,412,57,409,51,403,51,400,57,394,57,391,51,394,46,391,41,385,41,382,46,385,51,382,57,376,57,373,62,376,67,382,67,385,72,382,77,376,77,373,72,367,72,364,77,367,83,364,88,358,88,355,93,358,98,364,98,367,93,373,93,376,98,382,98,385,93,382,88,385,83,391,83,394,88,391,93,394,98,400,98,403,93,409,93,412,98,418,98,421,93,418,88,412,88,409,83,412,77,418,77,421,72,418,67,421,62,427,62,430,67,427,72,430,77,436,77,439,83,436,88,430,88,427,93,430,98,436,98,439,93,445,93,448,98,445,103,448,109,454,109,457,114,454,119,448,119,445,114,439,114,436,119,439,124,436,129,430,129,427,135,430,140,436,140,439,135,445,135,448,140,454,140,457,135,454,129,457,124,463,124,466,129,463,135,466,140,472,140,475,145,472,150,466,150,463,155,466,160,472,160,475,155,481,155,484,160,481,166,484,171,490,171,493,176,490,181,484,181,481,176,475,176,472,181,466,181,463,176,466,171,463,166,457,166,454,171,457,176,454,181,448,181,445,176,439,176,436,181,430,181,427,176,430,171,436,171,439,166,436,160,430,160,427,155,430,150,427,145,421,145,418,150,421,155,418,160,412,160,409,166,412,171,418,171,421,176,418,181,412,181,409,176,403,176,400,181,394,181,391,176,394,171,391,166,385,166,382,171,385,176,382,181,376,181,373,176,367,176,364,181,358,181,355,176,358,171,364,171,367,166,364,160,367,155,373,155,376,160,382,160,385,155,382,150,376,150,373,145,376,140,373,135,367,135,364,140,358,140,355,135,358,129,364,129,367,124,364,119,358,119,355,114,358,109,355,103,349,103,346,109,349,114,346,119,340,119,337,124,340,129,346,129,349,135,346,140,340,140,337,135,331,135,328,140,331,145,328,150,322,150,319,155,322,160,328,160,331,155,337,155,340,160,337,166,340,171,346,171,349,176,346,181,340,181,337,176,331,176,328,181,322,181,319,176,322,171,319,166,313,166,310,171,313,176,310,181,304,181,301,186,304,192,310,192,313,197,310,202,304,202,301,197,295,197,292,202,295,207,292,212,286,212,283,218,286,223,292,223,295,218,301,218,304,223,310,223,313,218,310,212,313,207,319,207,322,212,319,218,322,223,328,223,331,228,328,233,322,233,319,238,322,244,328,244,331,238,337,238,340,244,337,249,340,254,346,254,349,259,346,264,340,264,337,259,331,259,328,264,322,264,319,259,322,254,319,249,313,249,310,254,313,259,310,264,304,264,301,259,295,259,292,264,286,264,283,259,286,254,292,254,295,249,292,244,286,244,283,238,286,233,283,228,277,228,274,233,277,238,274,244,268,244,265,249,268,254,274,254,277,259,274,264,268,264,265,259,259,259,256,264,259,270,256,275,250,275,247,280,250,285,256,285,259,280,265,280,268,285,265,290,268,296,274,296,277,301,274,306,268,306,265,301,259,301,256,306,250,306,247,301,250,296,247,290,241,290,238,296,241,301,238,306,232,306,229,311,232,316,238,316,241,322,238,327,232,327,229,322,223,322,220,327,223,332,220,337,214,337,211,342,214,348,220,348,223,342,229,342,232,348,238,348,241,342,238,337,241,332,247,332,250,337,247,342,250,348,256,348,259,342,265,342,268,348,274,348,277,342,274,337,268,337,265,332,268,327,274,327,277,322,274,316,277,311,283,311,286,316,283,322,286,327,292,327,295,332,292,337,286,337,283,342,286,348,292,348,295,342,301,342,304,348,310,348,313,342,310,337,313,332,319,332,322,337,319,342,322,348,328,348,331,342,337,342,340,348,346,348,349,342,346,337,340,337,337,332,340,327,337,322,331,322,328,327,322,327,319,322,322,316,328,316,331,311,328,306,331,301,337,301,340,306,346,306,349,301,346,296,340,296,337,290,340,285,346,285,349,280,346,275,349,270,355,270,358,275,355,280,358,285,364,285,367,290,364,296,358,296,355,301,358,306,364,306,367,301,373,301,376,306,373,311,376,316,382,316,385,322,382,327,376,327,373,322,367,322,364,327,367,332,364,337,358,337,355,342,358,348,364,348,367,342,373,342,376,348,382,348,385,342,382,337,385,332,391,332,394,337,391,342,394,348,400,348,403,342,409,342,412,348,418,348,421,342,418,337,412,337,409,332,412,327,418,327,421,322,418,316,421,311,427,311,430,316,427,322,430,327,436,327,439,332,436,337,430,337,427,342,430,348,436,348,439,342,445,342,448,348,454,348,457,342,454,337,457,332,463,332,466,337,463,342,466,348,472,348,475,342,481,342,484,348,490,348,493,342,490,337,484,337,481,332,484,327,481,322,475,322,472,327,466,327,463,322,466,316,472,316,475,311,472,306,466,306,463,301,466,296,463,290,457,290,454,296,457,301,454,306,448,306,445,301,439,301,436,306,430,306,427,301,430,296,436,296,439,290,436,285,439,280,445,280,448,285,454,285,457,280,454,275,448,275,445,270,448,264,454,264,457,259,454,254,457,249,463,249,466,254,463,259,466,264,472,264,475,259,481,259,484,264,490,264,493,259,490,254,484,254,481,249,484,244,481,238,475,238,472,244,466,244,463,238,466,233,472,233,475,228,472,223,475,218,481,218,484,223,490,223,493,218,490,212,484,212,481,207,484,202,490,202,493,197,490,192,493,186,499,186,502,192,499,197,502,202,508,202,511,207,508,212,502,212,499,218,502,223,508,223,511,218,517,218,520,223,517,228,520,233,526,233,529,238,526,244,520,244,517,238,511,238,508,244,511,249,508,254,502,254,499,259,502,264,508,264,511,259,517,259,520,264,526,264,529,259,526,254,529,249,535,249,538,254,535,259,538,264,544,264,547,270,544,275,538,275,535,280,538,285,544,285,547,280,553,280,556,285,553,290,556,296,562,296,565,301,562,306,556,306,553,301,547,301,544,306,538,306,535,301,538,296,535,290,529,290,526,296,529,301,526,306,520,306,517,311,520,316,526,316,529,322,526,327,520,327,517,322,511,322,508,327,511,332,508,337,502,337,499,342,502,348,508,348,511,342,517,342,520,348,526,348,529,342,526,337,529,332,535,332,538,337,535,342,538,348,544,348,547,342,553,342,556,348,562,348,565,342,562,337,556,337,553,332,556,327,562,327,565,322,562,316,565,311,571,311,574,316,571,322,574,327,580,327,583,332,580,337,574,337,571,342,574,348,580,348,583,342,589,342,592,348,589,353,592,358,598,358,601,363,598,368,592,368,589,363,583,363,580,368,583,374,580,379,574,379,571,384,574,389,580,389,583,384,589,384,592,389,598,389,601,384,598,379,601,374,607,374,610,379,607,384,610,389,616,389,619,394,616,400,610,400,607,405,610,410,616,410,619,405,625,405,628,410,625,415,628,420,634,420,637,425,634,431,628,431,625,425,619,425,616,431,610,431,607,425,610,420,607,415,601,415,598,420,601,425,598,431,592,431,589,425,583,425,580,431,574,431,571,425,574,420,580,420,583,415,580,410,574,410,571,405,574,400,571,394,565,394,562,400,565,405,562,410,556,410,553,415,556,420,562,420,565,425,562,431,556,431,553,425,547,425,544,431,547,436,544,441,538,441,535,446,538,451,544,451,547,446,553,446,556,451,553,457,556,462,562,462,565,467,562,472,556,472,553,467,547,467,544,472,538,472,535,467,538,462,535,457,529,457,526,462,529,467,526,472,520,472,517,477,520,483,526,483,529,488,526,493,520,493,517,488,511,488,508,493,511,498,508,503,502,503,499,509,502,514,508,514,511,509,517,509,520,514,526,514,529,509,526,503,529,498,535,498,538,503,535,509,538,514,544,514,547,509,553,509,556,514,562,514,565,509,562,503,556,503,553,498,556,493,562,493,565,488,562,483,565,477,571,477,574,483,571,488,574,493,580,493,583,498,580,503,574,503,571,509,574,514,580,514,583,509,589,509,592,514,598,514,601,509,598,503,601,498,607,498,610,503,607,509,610,514,616,514,619,509,625,509,628,514,634,514,637,509,634,503,628,503,625,498,628,493,625,488,619,488,616,493,610,493,607,488,610,483,616,483,619,477,616,472,619,467,625,467,628,472,634,472,637,467,634,462,628,462,625,457,628,451,634,451,637,446,634,441,637,436,643,436,646,441,643,446,646,451,652,451,655,457,652,462,646,462,643,467,646,472,652,472,655,467,661,467,664,472,661,477,664,483,670,483,673,488,670,493,664,493,661,488,655,488,652,493,655,498,652,503,646,503,643,509,646,514,652,514,655,509,661,509,664,514,670,514,673,509,670,503,673,498,679,498,682,503,679,509,682,514,688,514,691,519,688,524,682,524,679,529,682,535,688,535,691,529,697,529,700,535,697,540,700,545,706,545,709,550,706,555,700,555,697,550,691,550,688,555,682,555,679,550,682,545,679,540,673,540,670,545,673,550,670,555,664,555,661,561,664,566,670,566,673,571,670,576,664,576,661,571,655,571,652,576,655,581,652,587,646,587,643,592,646,597,652,597,655,592,661,592,664,597,670,597,673,592,670,587,673,581,679,581,682,587,679,592,682,597,688,597,691,592,697,592,700,597,706,597,709,592,706,587,700,587,697,581,700,576,706,576,709,571,706,566,709,561,715,561,718,566,715,571,718,576,724,576,727,581,724,587,718,587,715,592,718,597,724,597,727,592,733,592,736,597,733,602,736,607,742,607,745,613,742,618,736,618,733,613,727,613,724,618,727,623,724,628,718,628,715,633,718,639,724,639,727,633,733,633,736,639,742,639,745,633,742,628,745,623,751,623,754,628,751,633,754,639,760,639,763,644,760,649,754,649,751,654,754,659,760,659,763,654,769,654,772,659,769,665,772,670,778,670,781,675,778,680,772,680,769,675,763,675,760,680,754,680,751,675,754,670,751,665,745,665,742,670,745,675,742,680,736,680,733,675,727,675,724,680,718,680,715,675,718,670,724,670,727,665,724,659,718,659,715,654,718,649,715,644,709,644,706,649,709,654,706,659,700,659,697,665,700,670,706,670,709,675,706,680,700,680,697,675,691,675,688,680,682,680,679,675,682,670,679,665,673,665,670,670,673,675,670,680,664,680,661,675,655,675,652,680,646,680,643,675,646,670,652,670,655,665,652,659,655,654,661,654,664,659,670,659,673,654,670,649,664,649,661,644,664,639,661,633,655,633,652,639,646,639,643,633,646,628,652,628,655,623,652,618,646,618,643,613,646,607,643,602,637,602,634,607,637,613,634,618,628,618,625,623,628,628,634,628,637,633,634,639,628,639,625,633,619,633,616,639,619,644,616,649,610,649,607,654,610,659,616,659,619,654,625,654,628,659,625,665,628,670,634,670,637,675,634,680,628,680,625,675,619,675,616,680,610,680,607,675,610,670,607,665,601,665,598,670,601,675,598,680,592,680,589,675,583,675,580,680,574,680,571,675,574,670,580,670,583,665,580,659,574,659,571,654,574,649,571,644,565,644,562,649,565,654,562,659,556,659,553,665,556,670,562,670,565,675,562,680,556,680,553,675,547,675,544,680,538,680,535,675,538,670,535,665,529,665,526,670,529,675,526,680,520,680,517,675,511,675,508,680,502,680,499,675,502,670,508,670,511,665,508,659,511,654,517,654,520,659,526,659,529,654,526,649,520,649,517,644,520,639,526,639,529,633,526,628,529,623,535,623,538,628,535,633,538,639,544,639,547,633,553,633,556,639,562,639,565,633,562,628,556,628,553,623,556,618,553,613,547,613,544,618,538,618,535,613,538,607,544,607,547,602,544,597,538,597,535,592,538,587,535,581,529,581,526,587,529,592,526,597,520,597,517,592,511,592,508,597,502,597,499,592,502,587,508,587,511,581,508,576,511,571,517,571,520,576,526,576,529,571,526,566,520,566,517,561,520,555,517,550,511,550,508,555,502,555,499,550,502,545,508,545,511,540,508,535,502,535,499,529,502,524,499,519,493,519,490,524,493,529,490,535,484,535,481,540,484,545,490,545,493,550,490,555,484,555,481,550,475,550,472,555,475,561,472,566,466,566,463,571,466,576,472,576,475,571,481,571,484,576,481,581,484,587,490,587,493,592,490,597,484,597,481,592,475,592,472,597,466,597,463,592,466,587,463,581,457,581,454,587,457,592,454,597,448,597,445,602,448,607,454,607,457,613,454,618,448,618,445,613,439,613,436,618,439,623,436,628,430,628,427,633,430,639,436,639,439,633,445,633,448,639,454,639,457,633,454,628,457,623,463,623,466,628,463,633,466,639,472,639,475,644,472,649,466,649,463,654,466,659,472,659,475,654,481,654,484,659,481,665,484,670,490,670,493,675,490,680,484,680,481,675,475,675,472,680,466,680,463,675,466,670,463,665,457,665,454,670,457,675,454,680,448,680,445,675,439,675,436,680,430,680,427,675,430,670,436,670,439,665,436,659,430,659,427,654,430,649,427,644,421,644,418,649,421,654,418,659,412,659,409,665,412,670,418,670,421,675,418,680,412,680,409,675,403,675,400,680,394,680,391,675,394,670,391,665,385,665,382,670,385,675,382,680,376,680,373,675,367,675,364,680,358,680,355,675,358,670,364,670,367,665,364,659,367,654,373,654,376,659,382,659,385,654,382,649,376,649,373,644,376,639,373,633,367,633,364,639,358,639,355,633,358,628,364,628,367,623,364,618,358,618,355,613,358,607,355,602,349,602,346,607,349,613,346,618,340,618,337,623,340,628,346,628,349,633,346,639,340,639,337,633,331,633,328,639,331,644,328,649,322,649,319,654,322,659,328,659,331,654,337,654,340,659,337,665,340,670,346,670,349,675,346,680,340,680,337,675,331,675,328,680,322,680,319,675,322,670,319,665,313,665,310,670,313,675,310,680,304,680,301,675,295,675,292,680,286,680,283,675,286,670,292,670,295,665,292,659,286,659,283,654,286,649,283,644,277,644,274,649,277,654,274,659,268,659,265,665,268,670,274,670,277,675,274,680,268,680,265,675,259,675,256,680,250,680,247,675,250,670,247,665,241,665,238,670,241,675,238,680,232,680,229,675,223,675,220,680,214,680,211,675,214,670,220,670,223,665,220,659,223,654,229,654,232,659,238,659,241,654,238,649,232,649,229,644,232,639,238,639,241,633,238,628,241,623,247,623,250,628,247,633,250,639,256,639,259,633,265,633,268,639,274,639,277,633,274,628,268,628,265,623,268,618,265,613,259,613,256,618,250,618,247,613,250,607,256,607,259,602,256,597,259,592,265,592,268,597,274,597,277,592,274,587,268,587,265,581,268,576,274,576,277,571,274,566,277,561,283,561,286,566,283,571,286,576,292,576,295,581,292,587,286,587,283,592,286,597,292,597,295,592,301,592,304,597,310,597,313,592,310,587,313,581,319,581,322,587,319,592,322,597,328,597,331,592,337,592,340,597,346,597,349,592,346,587,340,587,337,581,340,576,337,571,331,571,328,576,322,576,319,571,322,566,328,566,331,561,328,555,322,555,319,550,322,545,319,540,313,540,310,545,313,550,310,555,304,555,301,550,295,550,292,555,286,555,283,550,286,545,292,545,295,540,292,535,295,529,301,529,304,535,310,535,313,529,310,524,304,524,301,519,304,514,301,509,295,509,292,514,286,514,283,509,286,503,292,503,295,498,292,493,286,493,283,488,286,483,283,477,277,477,274,483,277,488,274,493,268,493,265,498,268,503,274,503,277,509,274,514,268,514,265,509,259,509,256,514,250,514,247,509,250,503,247,498,241,498,238,503,241,509,238,514,232,514,229,509,223,509,220,514,214,514,211,509,214,503,220,503,223,498,220,493,223,488,229,488,232,493,238,493,241,488,238,483,232,483,229,477,232,472,238,472,241,467,238,462,241,457,247,457,250,462,247,467,250,472,256,472,259,467,265,467,268,472,274,472,277,467,274,462,268,462,265,457,268,451,265,446,259,446,256,451,250,451,247,446,250,441,256,441,259,436,256,431,250,431,247,425,250,420,247,415,241,415,238,420,241,425,238,431,232,431,229,425,223,425,220,431,214,431,211,425,214,420,220,420,223,415,220,410,223,405,229,405,232,410,238,410,241,405,238,400,232,400,229,394,232,389,229,384,223,384,220,389,214,389,211,384,214,379,220,379,223,374,220,368,214,368,211,363,214,358,211,353,205,353,202,358,205,363,202,368,196,368,193,374,196,379,202,379,205,384,202,389,196,389,193,384,187,384,184,389,187,394,184,400,178,400,175,405,178,410,184,410,187,405,193,405,196,410,193,415,196,420,202,420,205,425,202,431,196,431,193,425,187,425,184,431,178,431,175,425,178,420,175,415,169,415,166,420,169,425,166,431,160,431,157,436,160,441,166,441,169,446,166,451,160,451,157,446,151,446,148,451,151,457,148,462,142,462,139,467,142,472,148,472,151,467,157,467,160,472,166,472,169,467,166,462,169,457,175,457,178,462,175,467,178,472,184,472,187,477,184,483,178,483,175,488,178,493,184,493,187,488,193,488,196,493,193,498,196,503,202,503,205,509,202,514,196,514,193,509,187,509,184,514,178,514,175,509,178,503,175,498,169,498,166,503,169,509,166,514,160,514,157,509,151,509,148,514,142,514,139,509,142,503,148,503,151,498,148,493,142,493,139,488,142,483,139,477,133,477,130,483,133,488,130,493,124,493,121,498,124,503,130,503,133,509,130,514,124,514,121,509,115,509,112,514,115,519,112,524,106,524,103,529,106,535,112,535,115,529,121,529,124,535,121,540,124,545,130,545,133,550,130,555,124,555,121,550,115,550,112,555,106,555,103,550,106,545,103,540,97,540,94,545,97,550,94,555,88,555,85,561,88,566,94,566,97,571,94,576,88,576,85,571,79,571,76,576,79,581,76,587,70,587,67,592,70,597,76,597,79,592,85,592,88,597,94,597,97,592,94,587,97,581,103,581,106,587,103,592,106,597,112,597,115,592,121,592,124,597,130,597,133,592,130,587,124,587,121,581,124,576,130,576,133,571,130,566,133,561,139,561,142,566,139,571,142,576,148,576,151,581,148,587,142,587,139,592,142,597,148,597,151,592,157,592,160,597,157,602,160,607,166,607,169,613,166,618,160,618,157,613,151,613,148,618,151,623,148,628,142,628,139,633,142,639,148,639,151,633,157,633,160,639,166,639,169,633,166,628,169,623,175,623,178,628,175,633,178,639,184,639,187,644,184,649,178,649,175,654,178,659,184,659,187,654,193,654,196,659,193,665,196,670,202,670,205,675,202,680,196,680,193,675,187,675,184,680,178,680,175,675,178,670,175,665,169,665,166,670,169,675,166,680,160,680,157,675,151,675,148,680,142,680,139,675,142,670,148,670,151,665,148,659,142,659,139,654,142,649,139,644,133,644,130,649,133,654,130,659,124,659,121,665,124,670,130,670,133,675,130,680,124,680,121,675,115,675,112,680,106,680,103,675,106,670,103,665,97,665,94,670,97,675,94,680,88,680,85,675,79,675,76,680,70,680,67,675,70,670,76,670,79,665,76,659,79,654,85,654,88,659,94,659,97,654,94,649,88,649,85,644,88,639,85,633,79,633,76,639,70,639,67,633,70,628,76,628,79,623,76,618,70,618,67,613,70,607,67,602,61,602,58,607,61,613,58,618,52,618,49,623,52,628,58,628,61,633,58,639,52,639,49,633,43,633,40,639,43,644,40,649,34,649,31,654,34,659,40,659,43,654,49,654,52,659,49,665,52,670,58,670,61,675,58,680,52,680,49,675,43,675,40,680,34,680,31,675,34,670,31,665,25,665,22,670,25,675,22,680" fill="black" style="stroke:#FF4EA9" />
</svg>
