<svg xmlns="http://www.w3.org/2000/svg" xmlns:svg="http://www.w3.org/2000/svg" xmlns:xlink="http://www.w3.org/1999/xlink" width="600" height="600"><rect width="100%" height="100%" fill="black" /><polyline points="-80 298 -74 298 -74 292 -68 292 -68 286 -62 286 -62 292 -56 292 -56 298 -50 298 -50 292 -44 292 -44 286 -50 286 -50 280 -56 280 -56 274 -50 274 -50 268 -44 268 -44 262 -38 262 -38 268 -32 268 -32 274 -26 274 -26 280 -32 280 -32 286 -38 286 -38 292 -32 292 -32 298 -26 298 -26 292 -20 292 -20 286 -14 286 -14 292 -8 292 -8 298 -2 298 -2 292 4 292 4 286 -2 286 -2 280 -8 280 -8 274 -2 274 -2 268 4 268 4 262 -2 262 -2 256 -8 256 -8 262 -14 262 -14 268 -20 268 -20 262 -26 262 -26 256 -32 256 -32 250 -26 250 -26 244 -20 244 -20 238 -14 238 -14 244 -8 244 -8 250 -2 250 -2 244 4 244 4 238 -2 238 -2 232 -8 232 -8 226 -2 226 -2 220 4 220 4 214 10 214 10 220 16 220 16 226 22 226 22 232 16 232 16 238 10 238 10 244 16 244 16 250 22 250 22 244 28 244 28 238 34 238 34 244 40 244 40 250 46 250 46 256 40 256 40 262 34 262 34 268 28 268 28 262 22 262 22 256 16 256 16 262 10 262 10 268 16 268 16 274 22 274 22 280 16 280 16 286 10 286 10 292 16 292 16 298 22 298 22 292 28 292 28 286 34 286 34 292 40 292 40 298 46 298 46 292 52 292 52 286 46 286 46 280 40 280 40 274 46 274 46 268 52 268 52 262 58 262 58 268 64 268 64 274 70 274 70 280 64 280 64 286 58 286 58 292 64 292 64 298 70 298 70 292 76 292 76 286 82 286 82 292 88 292 88 298 94 298 94 292 100 292 100 286 94 286 94 280 88 280 88 274 94 274 94 268 100 268 100 262 94 262 94 256 88 256 88 262 82 262 82 268 76 268 76 262 70 262 70 256 64 256 64 250 70 250 70 244 76 244 76 238 82 238 82 244 88 244 88 250 94 250 94 244 100 244 100 238 94 238 94 232 88 232 88 226 94 226 94 220 100 220 100 214 94 214 94 208 88 208 88 214 82 214 82 220 76 220 76 214 70 214 70 208 64 208 64 214 58 214 58 220 64 220 64 226 70 226 70 232 64 232 64 238 58 238 58 244 52 244 52 238 46 238 46 232 40 232 40 226 46 226 46 220 52 220 52 214 46 214 46 208 40 208 40 214 34 214 34 220 28 220 28 214 22 214 22 208 16 208 16 202 22 202 22 196 28 196 28 190 34 190 34 196 40 196 40 202 46 202 46 196 52 196 52 190 46 190 46 184 40 184 40 178 46 178 46 172 52 172 52 166 58 166 58 172 64 172 64 178 70 178 70 184 64 184 64 190 58 190 58 196 64 196 64 202 70 202 70 196 76 196 76 190 82 190 82 196 88 196 88 202 94 202 94 196 100 196 100 190 94 190 94 184 88 184 88 178 94 178 94 172 100 172 100 166 94 166 94 160 88 160 88 166 82 166 82 172 76 172 76 166 70 166 70 160 64 160 64 154 70 154 70 148 76 148 76 142 82 142 82 148 88 148 88 154 94 154 94 148 100 148 100 142 94 142 94 136 88 136 88 130 94 130 94 124 100 124 100 118 106 118 106 124 112 124 112 130 118 130 118 136 112 136 112 142 106 142 106 148 112 148 112 154 118 154 118 148 124 148 124 142 130 142 130 148 136 148 136 154 142 154 142 160 136 160 136 166 130 166 130 172 124 172 124 166 118 166 118 160 112 160 112 166 106 166 106 172 112 172 112 178 118 178 118 184 112 184 112 190 106 190 106 196 112 196 112 202 118 202 118 196 124 196 124 190 130 190 130 196 136 196 136 202 142 202 142 196 148 196 148 190 142 190 142 184 136 184 136 178 142 178 142 172 148 172 148 166 154 166 154 172 160 172 160 178 166 178 166 184 160 184 160 190 154 190 154 196 160 196 160 202 166 202 166 196 172 196 172 190 178 190 178 196 184 196 184 202 190 202 190 208 184 208 184 214 178 214 178 220 172 220 172 214 166 214 166 208 160 208 160 214 154 214 154 220 160 220 160 226 166 226 166 232 160 232 160 238 154 238 154 244 148 244 148 238 142 238 142 232 136 232 136 226 142 226 142 220 148 220 148 214 142 214 142 208 136 208 136 214 130 214 130 220 124 220 124 214 118 214 118 208 112 208 112 214 106 214 106 220 112 220 112 226 118 226 118 232 112 232 112 238 106 238 106 244 112 244 112 250 118 250 118 244 124 244 124 238 130 238 130 244 136 244 136 250 142 250 142 256 136 256 136 262 130 262 130 268 124 268 124 262 118 262 118 256 112 256 112 262 106 262 106 268 112 268 112 274 118 274 118 280 112 280 112 286 106 286 106 292 112 292 112 298 118 298 118 292 124 292 124 286 130 286 130 292 136 292 136 298 142 298 142 292 148 292 148 286 142 286 142 280 136 280 136 274 142 274 142 268 148 268 148 262 154 262 154 268 160 268 160 274 166 274 166 280 160 280 160 286 154 286 154 292 160 292 160 298 166 298 166 292 172 292 172 286 178 286 178 292 184 292 184 298 190 298 190 292 196 292 196 286 190 286 190 280 184 280 184 274 190 274 190 268 196 268 196 262 190 262 190 256 184 256 184 262 178 262 178 268 172 268 172 262 166 262 166 256 160 256 160 250 166 250 166 244 172 244 172 238 178 238 178 244 184 244 184 250 190 250 190 244 196 244 196 238 190 238 190 232 184 232 184 226 190 226 190 220 196 220 196 214 202 214 202 220 208 220 208 226 214 226 214 232 208 232 208 238 202 238 202 244 208 244 208 250 214 250 214 244 220 244 220 238 226 238 226 244 232 244 232 250 238 250 238 256 232 256 232 262 226 262 226 268 220 268 220 262 214 262 214 256 208 256 208 262 202 262 202 268 208 268 208 274 214 274 214 280 208 280 208 286 202 286 202 292 208 292 208 298 214 298 214 292 220 292 220 286 226 286 226 292 232 292 232 298 238 298 238 292 244 292 244 286 238 286 238 280 232 280 232 274 238 274 238 268 244 268 244 262 250 262 250 268 256 268 256 274 262 274 262 280 256 280 256 286 250 286 250 292 256 292 256 298 262 298 262 292 268 292 268 286 274 286 274 292 280 292 280 298 286 298 286 292 292 292 292 286 286 286 286 280 280 280 280 274 286 274 286 268 292 268 292 262 286 262 286 256 280 256 280 262 274 262 274 268 268 268 268 262 262 262 262 256 256 256 256 250 262 250 262 244 268 244 268 238 274 238 274 244 280 244 280 250 286 250 286 244 292 244 292 238 286 238 286 232 280 232 280 226 286 226 286 220 292 220 292 214 286 214 286 208 280 208 280 214 274 214 274 220 268 220 268 214 262 214 262 208 256 208 256 214 250 214 250 220 256 220 256 226 262 226 262 232 256 232 256 238 250 238 250 244 244 244 244 238 238 238 238 232 232 232 232 226 238 226 238 220 244 220 244 214 238 214 238 208 232 208 232 214 226 214 226 220 220 220 220 214 214 214 214 208 208 208 208 202 214 202 214 196 220 196 220 190 226 190 226 196 232 196 232 202 238 202 238 196 244 196 244 190 238 190 238 184 232 184 232 178 238 178 238 172 244 172 244 166 250 166 250 172 256 172 256 178 262 178 262 184 256 184 256 190 250 190 250 196 256 196 256 202 262 202 262 196 268 196 268 190 274 190 274 196 280 196 280 202 286 202 286 196 292 196 292 190 286 190 286 184 280 184 280 178 286 178 286 172 292 172 292 166 286 166 286 160 280 160 280 166 274 166 274 172 268 172 268 166 262 166 262 160 256 160 256 154 262 154 262 148 268 148 268 142 274 142 274 148 280 148 280 154 286 154 286 148 292 148 292 142 286 142 286 136 280 136 280 130 286 130 286 124 292 124 292 118 286 118 286 112 280 112 280 118 274 118 274 124 268 124 268 118 262 118 262 112 256 112 256 118 250 118 250 124 256 124 256 130 262 130 262 136 256 136 256 142 250 142 250 148 244 148 244 142 238 142 238 136 232 136 232 130 238 130 238 124 244 124 244 118 238 118 238 112 232 112 232 118 226 118 226 124 220 124 220 118 214 118 214 112 208 112 208 118 202 118 202 124 208 124 208 130 214 130 214 136 208 136 208 142 202 142 202 148 208 148 208 154 214 154 214 148 220 148 220 142 226 142 226 148 232 148 232 154 238 154 238 160 232 160 232 166 226 166 226 172 220 172 220 166 214 166 214 160 208 160 208 166 202 166 202 172 208 172 208 178 214 178 214 184 208 184 208 190 202 190 202 196 196 196 196 190 190 190 190 184 184 184 184 178 190 178 190 172 196 172 196 166 190 166 190 160 184 160 184 166 178 166 178 172 172 172 172 166 166 166 166 160 160 160 160 154 166 154 166 148 172 148 172 142 178 142 178 148 184 148 184 154 190 154 190 148 196 148 196 142 190 142 190 136 184 136 184 130 190 130 190 124 196 124 196 118 190 118 190 112 184 112 184 118 178 118 178 124 172 124 172 118 166 118 166 112 160 112 160 118 154 118 154 124 160 124 160 130 166 130 166 136 160 136 160 142 154 142 154 148 148 148 148 142 142 142 142 136 136 136 136 130 142 130 142 124 148 124 148 118 142 118 142 112 136 112 136 118 130 118 130 124 124 124 124 118 118 118 118 112 112 112 112 106 118 106 118 100 124 100 124 94 130 94 130 100 136 100 136 106 142 106 142 100 148 100 148 94 142 94 142 88 136 88 136 82 142 82 142 76 148 76 148 70 154 70 154 76 160 76 160 82 166 82 166 88 160 88 160 94 154 94 154 100 160 100 160 106 166 106 166 100 172 100 172 94 178 94 178 100 184 100 184 106 190 106 190 100 196 100 196 94 190 94 190 88 184 88 184 82 190 82 190 76 196 76 196 70 190 70 190 64 184 64 184 70 178 70 178 76 172 76 172 70 166 70 166 64 160 64 160 58 166 58 166 52 172 52 172 46 178 46 178 52 184 52 184 58 190 58 190 52 196 52 196 46 190 46 190 40 184 40 184 34 190 34 190 28 196 28 196 22 202 22 202 28 208 28 208 34 214 34 214 40 208 40 208 46 202 46 202 52 208 52 208 58 214 58 214 52 220 52 220 46 226 46 226 52 232 52 232 58 238 58 238 64 232 64 232 70 226 70 226 76 220 76 220 70 214 70 214 64 208 64 208 70 202 70 202 76 208 76 208 82 214 82 214 88 208 88 208 94 202 94 202 100 208 100 208 106 214 106 214 100 220 100 220 94 226 94 226 100 232 100 232 106 238 106 238 100 244 100 244 94 238 94 238 88 232 88 232 82 238 82 238 76 244 76 244 70 250 70 250 76 256 76 256 82 262 82 262 88 256 88 256 94 250 94 250 100 256 100 256 106 262 106 262 100 268 100 268 94 274 94 274 100 280 100 280 106 286 106 286 100 292 100 292 94 286 94 286 88 280 88 280 82 286 82 286 76 292 76 292 70 286 70 286 64 280 64 280 70 274 70 274 76 268 76 268 70 262 70 262 64 256 64 256 58 262 58 262 52 268 52 268 46 274 46 274 52 280 52 280 58 286 58 286 52 292 52 292 46 286 46 286 40 280 40 280 34 286 34 286 28 292 28 292 22 286 22 286 16 280 16 280 22 274 22 274 28 268 28 268 22 262 22 262 16 256 16 256 22 250 22 250 28 256 28 256 34 262 34 262 40 256 40 256 46 250 46 250 52 244 52 244 46 238 46 238 40 232 40 232 34 238 34 238 28 244 28 244 22 238 22 238 16 232 16 232 22 226 22 226 28 220 28 220 22 214 22 214 16 208 16 208 10 214 10 214 4 220 4 220 -2 226 -2 226 4 232 4 232 10 238 10 238 4 244 4 244 -2 238 -2 238 -8 232 -8 232 -14 238 -14 238 -20 244 -20 244 -26 250 -26 250 -20 256 -20 256 -14 262 -14 262 -8 256 -8 256 -2 250 -2 250 4 256 4 256 10 262 10 262 4 268 4 268 -2 274 -2 274 4 280 4 280 10 286 10 286 4 292 4 292 -2 286 -2 286 -8 280 -8 280 -14 286 -14 286 -20 292 -20 292 -26 286 -26 286 -32 280 -32 280 -26 274 -26 274 -20 268 -20 268 -26 262 -26 262 -32 256 -32 256 -38 262 -38 262 -44 268 -44 268 -50 274 -50 274 -44 280 -44 280 -38 286 -38 286 -44 292 -44 292 -50 286 -50 286 -56 280 -56 280 -62 286 -62 286 -68 292 -68 292 -74 298 -74 298 -68 304 -68 304 -62 310 -62 310 -56 304 -56 304 -50 298 -50 298 -44 304 -44 304 -38 310 -38 310 -44 316 -44 316 -50 322 -50 322 -44 328 -44 328 -38 334 -38 334 -32 328 -32 328 -26 322 -26 322 -20 316 -20 316 -26 310 -26 310 -32 304 -32 304 -26 298 -26 298 -20 304 -20 304 -14 310 -14 310 -8 304 -8 304 -2 298 -2 298 4 304 4 304 10 310 10 310 4 316 4 316 -2 322 -2 322 4 328 4 328 10 334 10 334 4 340 4 340 -2 334 -2 334 -8 328 -8 328 -14 334 -14 334 -20 340 -20 340 -26 346 -26 346 -20 352 -20 352 -14 358 -14 358 -8 352 -8 352 -2 346 -2 346 4 352 4 352 10 358 10 358 4 364 4 364 -2 370 -2 370 4 376 4 376 10 382 10 382 16 376 16 376 22 370 22 370 28 364 28 364 22 358 22 358 16 352 16 352 22 346 22 346 28 352 28 352 34 358 34 358 40 352 40 352 46 346 46 346 52 340 52 340 46 334 46 334 40 328 40 328 34 334 34 334 28 340 28 340 22 334 22 334 16 328 16 328 22 322 22 322 28 316 28 316 22 310 22 310 16 304 16 304 22 298 22 298 28 304 28 304 34 310 34 310 40 304 40 304 46 298 46 298 52 304 52 304 58 310 58 310 52 316 52 316 46 322 46 322 52 328 52 328 58 334 58 334 64 328 64 328 70 322 70 322 76 316 76 316 70 310 70 310 64 304 64 304 70 298 70 298 76 304 76 304 82 310 82 310 88 304 88 304 94 298 94 298 100 304 100 304 106 310 106 310 100 316 100 316 94 322 94 322 100 328 100 328 106 334 106 334 100 340 100 340 94 334 94 334 88 328 88 328 82 334 82 334 76 340 76 340 70 346 70 346 76 352 76 352 82 358 82 358 88 352 88 352 94 346 94 346 100 352 100 352 106 358 106 358 100 364 100 364 94 370 94 370 100 376 100 376 106 382 106 382 100 388 100 388 94 382 94 382 88 376 88 376 82 382 82 382 76 388 76 388 70 382 70 382 64 376 64 376 70 370 70 370 76 364 76 364 70 358 70 358 64 352 64 352 58 358 58 358 52 364 52 364 46 370 46 370 52 376 52 376 58 382 58 382 52 388 52 388 46 382 46 382 40 376 40 376 34 382 34 382 28 388 28 388 22 394 22 394 28 400 28 400 34 406 34 406 40 400 40 400 46 394 46 394 52 400 52 400 58 406 58 406 52 412 52 412 46 418 46 418 52 424 52 424 58 430 58 430 64 424 64 424 70 418 70 418 76 412 76 412 70 406 70 406 64 400 64 400 70 394 70 394 76 400 76 400 82 406 82 406 88 400 88 400 94 394 94 394 100 400 100 400 106 406 106 406 100 412 100 412 94 418 94 418 100 424 100 424 106 430 106 430 100 436 100 436 94 430 94 430 88 424 88 424 82 430 82 430 76 436 76 436 70 442 70 442 76 448 76 448 82 454 82 454 88 448 88 448 94 442 94 442 100 448 100 448 106 454 106 454 100 460 100 460 94 466 94 466 100 472 100 472 106 478 106 478 112 472 112 472 118 466 118 466 124 460 124 460 118 454 118 454 112 448 112 448 118 442 118 442 124 448 124 448 130 454 130 454 136 448 136 448 142 442 142 442 148 436 148 436 142 430 142 430 136 424 136 424 130 430 130 430 124 436 124 436 118 430 118 430 112 424 112 424 118 418 118 418 124 412 124 412 118 406 118 406 112 400 112 400 118 394 118 394 124 400 124 400 130 406 130 406 136 400 136 400 142 394 142 394 148 400 148 400 154 406 154 406 148 412 148 412 142 418 142 418 148 424 148 424 154 430 154 430 160 424 160 424 166 418 166 418 172 412 172 412 166 406 166 406 160 400 160 400 166 394 166 394 172 400 172 400 178 406 178 406 184 400 184 400 190 394 190 394 196 388 196 388 190 382 190 382 184 376 184 376 178 382 178 382 172 388 172 388 166 382 166 382 160 376 160 376 166 370 166 370 172 364 172 364 166 358 166 358 160 352 160 352 154 358 154 358 148 364 148 364 142 370 142 370 148 376 148 376 154 382 154 382 148 388 148 388 142 382 142 382 136 376 136 376 130 382 130 382 124 388 124 388 118 382 118 382 112 376 112 376 118 370 118 370 124 364 124 364 118 358 118 358 112 352 112 352 118 346 118 346 124 352 124 352 130 358 130 358 136 352 136 352 142 346 142 346 148 340 148 340 142 334 142 334 136 328 136 328 130 334 130 334 124 340 124 340 118 334 118 334 112 328 112 328 118 322 118 322 124 316 124 316 118 310 118 310 112 304 112 304 118 298 118 298 124 304 124 304 130 310 130 310 136 304 136 304 142 298 142 298 148 304 148 304 154 310 154 310 148 316 148 316 142 322 142 322 148 328 148 328 154 334 154 334 160 328 160 328 166 322 166 322 172 316 172 316 166 310 166 310 160 304 160 304 166 298 166 298 172 304 172 304 178 310 178 310 184 304 184 304 190 298 190 298 196 304 196 304 202 310 202 310 196 316 196 316 190 322 190 322 196 328 196 328 202 334 202 334 196 340 196 340 190 334 190 334 184 328 184 328 178 334 178 334 172 340 172 340 166 346 166 346 172 352 172 352 178 358 178 358 184 352 184 352 190 346 190 346 196 352 196 352 202 358 202 358 196 364 196 364 190 370 190 370 196 376 196 376 202 382 202 382 208 376 208 376 214 370 214 370 220 364 220 364 214 358 214 358 208 352 208 352 214 346 214 346 220 352 220 352 226 358 226 358 232 352 232 352 238 346 238 346 244 340 244 340 238 334 238 334 232 328 232 328 226 334 226 334 220 340 220 340 214 334 214 334 208 328 208 328 214 322 214 322 220 316 220 316 214 310 214 310 208 304 208 304 214 298 214 298 220 304 220 304 226 310 226 310 232 304 232 304 238 298 238 298 244 304 244 304 250 310 250 310 244 316 244 316 238 322 238 322 244 328 244 328 250 334 250 334 256 328 256 328 262 322 262 322 268 316 268 316 262 310 262 310 256 304 256 304 262 298 262 298 268 304 268 304 274 310 274 310 280 304 280 304 286 298 286 298 292 304 292 304 298 310 298 310 292 316 292 316 286 322 286 322 292 328 292 328 298 334 298 334 292 340 292 340 286 334 286 334 280 328 280 328 274 334 274 334 268 340 268 340 262 346 262 346 268 352 268 352 274 358 274 358 280 352 280 352 286 346 286 346 292 352 292 352 298 358 298 358 292 364 292 364 286 370 286 370 292 376 292 376 298 382 298 382 292 388 292 388 286 382 286 382 280 376 280 376 274 382 274 382 268 388 268 388 262 382 262 382 256 376 256 376 262 370 262 370 268 364 268 364 262 358 262 358 256 352 256 352 250 358 250 358 244 364 244 364 238 370 238 370 244 376 244 376 250 382 250 382 244 388 244 388 238 382 238 382 232 376 232 376 226 382 226 382 220 388 220 388 214 394 214 394 220 400 220 400 226 406 226 406 232 400 232 400 238 394 238 394 244 400 244 400 250 406 250 406 244 412 244 412 238 418 238 418 244 424 244 424 250 430 250 430 256 424 256 424 262 418 262 418 268 412 268 412 262 406 262 406 256 400 256 400 262 394 262 394 268 400 268 400 274 406 274 406 280 400 280 400 286 394 286 394 292 400 292 400 298 406 298 406 292 412 292 412 286 418 286 418 292 424 292 424 298 430 298 430 292 436 292 436 286 430 286 430 280 424 280 424 274 430 274 430 268 436 268 436 262 442 262 442 268 448 268 448 274 454 274 454 280 448 280 448 286 442 286 442 292 448 292 448 298 454 298 454 292 460 292 460 286 466 286 466 292 472 292 472 298 478 298 478 292 484 292 484 286 478 286 478 280 472 280 472 274 478 274 478 268 484 268 484 262 478 262 478 256 472 256 472 262 466 262 466 268 460 268 460 262 454 262 454 256 448 256 448 250 454 250 454 244 460 244 460 238 466 238 466 244 472 244 472 250 478 250 478 244 484 244 484 238 478 238 478 232 472 232 472 226 478 226 478 220 484 220 484 214 478 214 478 208 472 208 472 214 466 214 466 220 460 220 460 214 454 214 454 208 448 208 448 214 442 214 442 220 448 220 448 226 454 226 454 232 448 232 448 238 442 238 442 244 436 244 436 238 430 238 430 232 424 232 424 226 430 226 430 220 436 220 436 214 430 214 430 208 424 208 424 214 418 214 418 220 412 220 412 214 406 214 406 208 400 208 400 202 406 202 406 196 412 196 412 190 418 190 418 196 424 196 424 202 430 202 430 196 436 196 436 190 430 190 430 184 424 184 424 178 430 178 430 172 436 172 436 166 442 166 442 172 448 172 448 178 454 178 454 184 448 184 448 190 442 190 442 196 448 196 448 202 454 202 454 196 460 196 460 190 466 190 466 196 472 196 472 202 478 202 478 196 484 196 484 190 478 190 478 184 472 184 472 178 478 178 478 172 484 172 484 166 478 166 478 160 472 160 472 166 466 166 466 172 460 172 460 166 454 166 454 160 448 160 448 154 454 154 454 148 460 148 460 142 466 142 466 148 472 148 472 154 478 154 478 148 484 148 484 142 478 142 478 136 472 136 472 130 478 130 478 124 484 124 484 118 490 118 490 124 496 124 496 130 502 130 502 136 496 136 496 142 490 142 490 148 496 148 496 154 502 154 502 148 508 148 508 142 514 142 514 148 520 148 520 154 526 154 526 160 520 160 520 166 514 166 514 172 508 172 508 166 502 166 502 160 496 160 496 166 490 166 490 172 496 172 496 178 502 178 502 184 496 184 496 190 490 190 490 196 496 196 496 202 502 202 502 196 508 196 508 190 514 190 514 196 520 196 520 202 526 202 526 196 532 196 532 190 526 190 526 184 520 184 520 178 526 178 526 172 532 172 532 166 538 166 538 172 544 172 544 178 550 178 550 184 544 184 544 190 538 190 538 196 544 196 544 202 550 202 550 196 556 196 556 190 562 190 562 196 568 196 568 202 574 202 574 208 568 208 568 214 562 214 562 220 556 220 556 214 550 214 550 208 544 208 544 214 538 214 538 220 544 220 544 226 550 226 550 232 544 232 544 238 538 238 538 244 532 244 532 238 526 238 526 232 520 232 520 226 526 226 526 220 532 220 532 214 526 214 526 208 520 208 520 214 514 214 514 220 508 220 508 214 502 214 502 208 496 208 496 214 490 214 490 220 496 220 496 226 502 226 502 232 496 232 496 238 490 238 490 244 496 244 496 250 502 250 502 244 508 244 508 238 514 238 514 244 520 244 520 250 526 250 526 256 520 256 520 262 514 262 514 268 508 268 508 262 502 262 502 256 496 256 496 262 490 262 490 268 496 268 496 274 502 274 502 280 496 280 496 286 490 286 490 292 496 292 496 298 502 298 502 292 508 292 508 286 514 286 514 292 520 292 520 298 526 298 526 292 532 292 532 286 526 286 526 280 520 280 520 274 526 274 526 268 532 268 532 262 538 262 538 268 544 268 544 274 550 274 550 280 544 280 544 286 538 286 538 292 544 292 544 298 550 298 550 292 556 292 556 286 562 286 562 292 568 292 568 298 574 298 574 292 580 292 580 286 574 286 574 280 568 280 568 274 574 274 574 268 580 268 580 262 574 262 574 256 568 256 568 262 562 262 562 268 556 268 556 262 550 262 550 256 544 256 544 250 550 250 550 244 556 244 556 238 562 238 562 244 568 244 568 250 574 250 574 244 580 244 580 238 574 238 574 232 568 232 568 226 574 226 574 220 580 220 580 214 586 214 586 220 592 220 592 226 598 226 598 232 592 232 592 238 586 238 586 244 592 244 592 250 598 250 598 244 604 244 604 238 610 238 610 244 616 244 616 250 622 250 622 256 616 256 616 262 610 262 610 268 604 268 604 262 598 262 598 256 592 256 592 262 586 262 586 268 592 268 592 274 598 274 598 280 592 280 592 286 586 286 586 292 592 292 592 298 598 298 598 292 604 292 604 286 610 286 610 292 616 292 616 298 622 298 622 292 628 292 628 286 622 286 622 280 616 280 616 274 622 274 622 268 628 268 628 262 634 262 634 268 640 268 640 274 646 274 646 280 640 280 640 286 634 286 634 292 640 292 640 298 646 298 646 292 652 292 652 286 658 286 658 292 664 292 664 298,670 298 670 304 664 304" fill="black" transform="rotate(45, 300, 300)" style="stroke:#61D4FF" />
<polyline points="-80 303,-74 303,-74 309,-68 309,-68 315,-62 315,-62 309,-56 309,-56 303,-50 303,-50 309,-44 309,-44 315,-50 315,-50 321,-56 321,-56 327,-50 327,-50 333,-44 333,-44 339,-38 339,-38 333,-32 333,-32 327,-26 327,-26 321,-32 321,-32 315,-38 315,-38 309,-32 309,-32 303,-26 303,-26 309,-20 309,-20 315,-14 315,-14 309,-8 309,-8 303,-2 303,-2 309,4 309,4 315,-2 315,-2 321,-8 321,-8 327,-2 327,-2 333,4 333,4 339,-2 339,-2 345,-8 345,-8 339,-14 339,-14 333,-20 333,-20 339,-26 339,-26 345,-32 345,-32 351,-26 351,-26 357,-20 357,-20 363,-14 363,-14 357,-8 357,-8 351,-2 351,-2 357,4 357,4 363,-2 363,-2 369,-8 369,-8 375,-2 375,-2 381,4 381,4 387,10 387,10 381,16 381,16 375,22 375,22 369,16 369,16 363,10 363,10 357,16 357,16 351,22 351,22 357,28 357,28 363,34 363,34 357,40 357,40 351,46 351,46 345,40 345,40 339,34 339,34 333,28 333,28 339,22 339,22 345,16 345,16 339,10 339,10 333,16 333,16 327,22 327,22 321,16 321,16 315,10 315,10 309,16 309,16 303,22 303,22 309,28 309,28 315,34 315,34 309,40 309,40 303,46 303,46 309,52 309,52 315,46 315,46 321,40 321,40 327,46 327,46 333,52 333,52 339,58 339,58 333,64 333,64 327,70 327,70 321,64 321,64 315,58 315,58 309,64 309,64 303,70 303,70 309,76 309,76 315,82 315,82 309,88 309,88 303,94 303,94 309,100 309,100 315,94 315,94 321,88 321,88 327,94 327,94 333,100 333,100 339,94 339,94 345,88 345,88 339,82 339,82 333,76 333,76 339,70 339,70 345,64 345,64 351,70 351,70 357,76 357,76 363,82 363,82 357,88 357,88 351,94 351,94 357,100 357,100 363,94 363,94 369,88 369,88 375,94 375,94 381,100 381,100 387,94 387,94 393,88 393,88 387,82 387,82 381,76 381,76 387,70 387,70 393,64 393,64 387,58 387,58 381,64 381,64 375,70 375,70 369,64 369,64 363,58 363,58 357,52 357,52 363,46 363,46 369,40 369,40 375,46 375,46 381,52 381,52 387,46 387,46 393,40 393,40 387,34 387,34 381,28 381,28 387,22 387,22 393,16 393,16 399,22 399,22 405,28 405,28 411,34 411,34 405,40 405,40 399,46 399,46 405,52 405,52 411,46 411,46 417,40 417,40 423,46 423,46 429,52 429,52 435,58 435,58 429,64 429,64 423,70 423,70 417,64 417,64 411,58 411,58 405,64 405,64 399,70 399,70 405,76 405,76 411,82 411,82 405,88 405,88 399,94 399,94 405,100 405,100 411,94 411,94 417,88 417,88 423,94 423,94 429,100 429,100 435,94 435,94 441,88 441,88 435,82 435,82 429,76 429,76 435,70 435,70 441,64 441,64 447,70 447,70 453,76 453,76 459,82 459,82 453,88 453,88 447,94 447,94 453,100 453,100 459,94 459,94 465,88 465,88 471,94 471,94 477,100 477,100 483,106 483,106 477,112 477,112 471,118 471,118 465,112 465,112 459,106 459,106 453,112 453,112 447,118 447,118 453,124 453,124 459,130 459,130 453,136 453,136 447,142 447,142 441,136 441,136 435,130 435,130 429,124 429,124 435,118 435,118 441,112 441,112 435,106 435,106 429,112 429,112 423,118 423,118 417,112 417,112 411,106 411,106 405,112 405,112 399,118 399,118 405,124 405,124 411,130 411,130 405,136 405,136 399,142 399,142 405,148 405,148 411,142 411,142 417,136 417,136 423,142 423,142 429,148 429,148 435,154 435,154 429,160 429,160 423,166 423,166 417,160 417,160 411,154 411,154 405,160 405,160 399,166 399,166 405,172 405,172 411,178 411,178 405,184 405,184 399,190 399,190 393,184 393,184 387,178 387,178 381,172 381,172 387,166 387,166 393,160 393,160 387,154 387,154 381,160 381,160 375,166 375,166 369,160 369,160 363,154 363,154 357,148 357,148 363,142 363,142 369,136 369,136 375,142 375,142 381,148 381,148 387,142 387,142 393,136 393,136 387,130 387,130 381,124 381,124 387,118 387,118 393,112 393,112 387,106 387,106 381,112 381,112 375,118 375,118 369,112 369,112 363,106 363,106 357,112 357,112 351,118 351,118 357,124 357,124 363,130 363,130 357,136 357,136 351,142 351,142 345,136 345,136 339,130 339,130 333,124 333,124 339,118 339,118 345,112 345,112 339,106 339,106 333,112 333,112 327,118 327,118 321,112 321,112 315,106 315,106 309,112 309,112 303,118 303,118 309,124 309,124 315,130 315,130 309,136 309,136 303,142 303,142 309,148 309,148 315,142 315,142 321,136 321,136 327,142 327,142 333,148 333,148 339,154 339,154 333,160 333,160 327,166 327,166 321,160 321,160 315,154 315,154 309,160 309,160 303,166 303,166 309,172 309,172 315,178 315,178 309,184 309,184 303,190 303,190 309,196 309,196 315,190 315,190 321,184 321,184 327,190 327,190 333,196 333,196 339,190 339,190 345,184 345,184 339,178 339,178 333,172 333,172 339,166 339,166 345,160 345,160 351,166 351,166 357,172 357,172 363,178 363,178 357,184 357,184 351,190 351,190 357,196 357,196 363,190 363,190 369,184 369,184 375,190 375,190 381,196 381,196 387,202 387,202 381,208 381,208 375,214 375,214 369,208 369,208 363,202 363,202 357,208 357,208 351,214 351,214 357,220 357,220 363,226 363,226 357,232 357,232 351,238 351,238 345,232 345,232 339,226 339,226 333,220 333,220 339,214 339,214 345,208 345,208 339,202 339,202 333,208 333,208 327,214 327,214 321,208 321,208 315,202 315,202 309,208 309,208 303,214 303,214 309,220 309,220 315,226 315,226 309,232 309,232 303,238 303,238 309,244 309,244 315,238 315,238 321,232 321,232 327,238 327,238 333,244 333,244 339,250 339,250 333,256 333,256 327,262 327,262 321,256 321,256 315,250 315,250 309,256 309,256 303,262 303,262 309,268 309,268 315,274 315,274 309,280 309,280 303,286 303,286 309,292 309,292 315,286 315,286 321,280 321,280 327,286 327,286 333,292 333,292 339,286 339,286 345,280 345,280 339,274 339,274 333,268 333,268 339,262 339,262 345,256 345,256 351,262 351,262 357,268 357,268 363,274 363,274 357,280 357,280 351,286 351,286 357,292 357,292 363,286 363,286 369,280 369,280 375,286 375,286 381,292 381,292 387,286 387,286 393,280 393,280 387,274 387,274 381,268 381,268 387,262 387,262 393,256 393,256 387,250 387,250 381,256 381,256 375,262 375,262 369,256 369,256 363,250 363,250 357,244 357,244 363,238 363,238 369,232 369,232 375,238 375,238 381,244 381,244 387,238 387,238 393,232 393,232 387,226 387,226 381,220 381,220 387,214 387,214 393,208 393,208 399,214 399,214 405,220 405,220 411,226 411,226 405,232 405,232 399,238 399,238 405,244 405,244 411,238 411,238 417,232 417,232 423,238 423,238 429,244 429,244 435,250 435,250 429,256 429,256 423,262 423,262 417,256 417,256 411,250 411,250 405,256 405,256 399,262 399,262 405,268 405,268 411,274 411,274 405,280 405,280 399,286 399,286 405,292 405,292 411,286 411,286 417,280 417,280 423,286 423,286 429,292 429,292 435,286 435,286 441,280 441,280 435,274 435,274 429,268 429,268 435,262 435,262 441,256 441,256 447,262 447,262 453,268 453,268 459,274 459,274 453,280 453,280 447,286 447,286 453,292 453,292 459,286 459,286 465,280 465,280 471,286 471,286 477,292 477,292 483,286 483,286 489,280 489,280 483,274 483,274 477,268 477,268 483,262 483,262 489,256 489,256 483,250 483,250 477,256 477,256 471,262 471,262 465,256 465,256 459,250 459,250 453,244 453,244 459,238 459,238 465,232 465,232 471,238 471,238 477,244 477,244 483,238 483,238 489,232 489,232 483,226 483,226 477,220 477,220 483,214 483,214 489,208 489,208 483,202 483,202 477,208 477,208 471,214 471,214 465,208 465,208 459,202 459,202 453,208 453,208 447,214 447,214 453,220 453,220 459,226 459,226 453,232 453,232 447,238 447,238 441,232 441,232 435,226 435,226 429,220 429,220 435,214 435,214 441,208 441,208 435,202 435,202 429,208 429,208 423,214 423,214 417,208 417,208 411,202 411,202 405,196 405,196 411,190 411,190 417,184 417,184 423,190 423,190 429,196 429,196 435,190 435,190 441,184 441,184 435,178 435,178 429,172 429,172 435,166 435,166 441,160 441,160 447,166 447,166 453,172 453,172 459,178 459,178 453,184 453,184 447,190 447,190 453,196 453,196 459,190 459,190 465,184 465,184 471,190 471,190 477,196 477,196 483,190 483,190 489,184 489,184 483,178 483,178 477,172 477,172 483,166 483,166 489,160 489,160 483,154 483,154 477,160 477,160 471,166 471,166 465,160 465,160 459,154 459,154 453,148 453,148 459,142 459,142 465,136 465,136 471,142 471,142 477,148 477,148 483,142 483,142 489,136 489,136 483,130 483,130 477,124 477,124 483,118 483,118 489,112 489,112 495,118 495,118 501,124 501,124 507,130 507,130 501,136 501,136 495,142 495,142 501,148 501,148 507,142 507,142 513,136 513,136 519,142 519,142 525,148 525,148 531,154 531,154 525,160 525,160 519,166 519,166 513,160 513,160 507,154 507,154 501,160 501,160 495,166 495,166 501,172 501,172 507,178 507,178 501,184 501,184 495,190 495,190 501,196 501,196 507,190 507,190 513,184 513,184 519,190 519,190 525,196 525,196 531,190 531,190 537,184 537,184 531,178 531,178 525,172 525,172 531,166 531,166 537,160 537,160 543,166 543,166 549,172 549,172 555,178 555,178 549,184 549,184 543,190 543,190 549,196 549,196 555,190 555,190 561,184 561,184 567,190 567,190 573,196 573,196 579,202 579,202 573,208 573,208 567,214 567,214 561,208 561,208 555,202 555,202 549,208 549,208 543,214 543,214 549,220 549,220 555,226 555,226 549,232 549,232 543,238 543,238 537,232 537,232 531,226 531,226 525,220 525,220 531,214 531,214 537,208 537,208 531,202 531,202 525,208 525,208 519,214 519,214 513,208 513,208 507,202 507,202 501,208 501,208 495,214 495,214 501,220 501,220 507,226 507,226 501,232 501,232 495,238 495,238 501,244 501,244 507,238 507,238 513,232 513,232 519,238 519,238 525,244 525,244 531,250 531,250 525,256 525,256 519,262 519,262 513,256 513,256 507,250 507,250 501,256 501,256 495,262 495,262 501,268 501,268 507,274 507,274 501,280 501,280 495,286 495,286 501,292 501,292 507,286 507,286 513,280 513,280 519,286 519,286 525,292 525,292 531,286 531,286 537,280 537,280 531,274 531,274 525,268 525,268 531,262 531,262 537,256 537,256 543,262 543,262 549,268 549,268 555,274 555,274 549,280 549,280 543,286 543,286 549,292 549,292 555,286 555,286 561,280 561,280 567,286 567,286 573,292 573,292 579,286 579,286 585,280 585,280 579,274 579,274 573,268 573,268 579,262 579,262 585,256 585,256 579,250 579,250 573,256 573,256 567,262 567,262 561,256 561,256 555,250 555,250 549,244 549,244 555,238 555,238 561,232 561,232 567,238 567,238 573,244 573,244 579,238 579,238 585,232 585,232 579,226 579,226 573,220 573,220 579,214 579,214 585,208 585,208 591,214 591,214 597,220 597,220 603,226 603,226 597,232 597,232 591,238 591,238 597,244 597,244 603,238 603,238 609,232 609,232 615,238 615,238 621,244 621,244 627,250 627,250 621,256 621,256 615,262 615,262 609,256 609,256 603,250 603,250 597,256 597,256 591,262 591,262 597,268 597,268 603,274 603,274 597,280 597,280 591,286 591,286 597,292 597,292 603,286 603,286 609,280 609,280 615,286 615,286 621,292 621,292 627,286 627,286 633,280 633,280 627,274 627,274 621,268 621,268 627,262 627,262 633,256 633,256 639,262 639,262 645,268 645,268 651,274 651,274 645,280 645,280 639,286 639,286 645,292 645,292 651,286 651,286 657,280 657,280 663,286 663,286 669,292 669,292 675,298 675,298 669,304 669,304 663,310 663,310 657,304 657,304 651,298 651,298 645,304 645,304 639,310 639,310 645,316 645,316 651,322 651,322 645,328 645,328 639,334 639,334 633,328 633,328 627,322 627,322 621,316 621,316 627,310 627,310 633,304 633,304 627,298 627,298 621,304 621,304 615,310 615,310 609,304 609,304 603,298 603,298 597,304 597,304 591,310 591,310 597,316 597,316 603,322 603,322 597,328 597,328 591,334 591,334 597,340 597,340 603,334 603,334 609,328 609,328 615,334 615,334 621,340 621,340 627,346 627,346 621,352 621,352 615,358 615,358 609,352 609,352 603,346 603,346 597,352 597,352 591,358 591,358 597,364 597,364 603,370 603,370 597,376 597,376 591,382 591,382 585,376 585,376 579,370 579,370 573,364 573,364 579,358 579,358 585,352 585,352 579,346 579,346 573,352 573,352 567,358 567,358 561,352 561,352 555,346 555,346 549,340 549,340 555,334 555,334 561,328 561,328 567,334 567,334 573,340 573,340 579,334 579,334 585,328 585,328 579,322 579,322 573,316 573,316 579,310 579,310 585,304 585,304 579,298 579,298 573,304 573,304 567,310 567,310 561,304 561,304 555,298 555,298 549,304 549,304 543,310 543,310 549,316 549,316 555,322 555,322 549,328 549,328 543,334 543,334 537,328 537,328 531,322 531,322 525,316 525,316 531,310 531,310 537,304 537,304 531,298 531,298 525,304 525,304 519,310 519,310 513,304 513,304 507,298 507,298 501,304 501,304 495,310 495,310 501,316 501,316 507,322 507,322 501,328 501,328 495,334 495,334 501,340 501,340 507,334 507,334 513,328 513,328 519,334 519,334 525,340 525,340 531,346 531,346 525,352 525,352 519,358 519,358 513,352 513,352 507,346 507,346 501,352 501,352 495,358 495,358 501,364 501,364 507,370 507,370 501,376 501,376 495,382 495,382 501,388 501,388 507,382 507,382 513,376 513,376 519,382 519,382 525,388 525,388 531,382 531,382 537,376 537,376 531,370 531,370 525,364 525,364 531,358 531,358 537,352 537,352 543,358 543,358 549,364 549,364 555,370 555,370 549,376 549,376 543,382 543,382 549,388 549,388 555,382 555,382 561,376 561,376 567,382 567,382 573,388 573,388 579,394 579,394 573,400 573,400 567,406 567,406 561,400 561,400 555,394 555,394 549,400 549,400 543,406 543,406 549,412 549,412 555,418 555,418 549,424 549,424 543,430 543,430 537,424 537,424 531,418 531,418 525,412 525,412 531,406 531,406 537,400 537,400 531,394 531,394 525,400 525,400 519,406 519,406 513,400 513,400 507,394 507,394 501,400 501,400 495,406 495,406 501,412 501,412 507,418 507,418 501,424 501,424 495,430 495,430 501,436 501,436 507,430 507,430 513,424 513,424 519,430 519,430 525,436 525,436 531,442 531,442 525,448 525,448 519,454 519,454 513,448 513,448 507,442 507,442 501,448 501,448 495,454 495,454 501,460 501,460 507,466 507,466 501,472 501,472 495,478 495,478 489,472 489,472 483,466 483,466 477,460 477,460 483,454 483,454 489,448 489,448 483,442 483,442 477,448 477,448 471,454 471,454 465,448 465,448 459,442 459,442 453,436 453,436 459,430 459,430 465,424 465,424 471,430 471,430 477,436 477,436 483,430 483,430 489,424 489,424 483,418 483,418 477,412 477,412 483,406 483,406 489,400 489,400 483,394 483,394 477,400 477,400 471,406 471,406 465,400 465,400 459,394 459,394 453,400 453,400 447,406 447,406 453,412 453,412 459,418 459,418 453,424 453,424 447,430 447,430 441,424 441,424 435,418 435,418 429,412 429,412 435,406 435,406 441,400 441,400 435,394 435,394 429,400 429,400 423,406 423,406 417,400 417,400 411,394 411,394 405,388 405,388 411,382 411,382 417,376 417,376 423,382 423,382 429,388 429,388 435,382 435,382 441,376 441,376 435,370 435,370 429,364 429,364 435,358 435,358 441,352 441,352 447,358 447,358 453,364 453,364 459,370 459,370 453,376 453,376 447,382 447,382 453,388 453,388 459,382 459,382 465,376 465,376 471,382 471,382 477,388 477,388 483,382 483,382 489,376 489,376 483,370 483,370 477,364 477,364 483,358 483,358 489,352 489,352 483,346 483,346 477,352 477,352 471,358 471,358 465,352 465,352 459,346 459,346 453,340 453,340 459,334 459,334 465,328 465,328 471,334 471,334 477,340 477,340 483,334 483,334 489,328 489,328 483,322 483,322 477,316 477,316 483,310 483,310 489,304 489,304 483,298 483,298 477,304 477,304 471,310 471,310 465,304 465,304 459,298 459,298 453,304 453,304 447,310 447,310 453,316 453,316 459,322 459,322 453,328 453,328 447,334 447,334 441,328 441,328 435,322 435,322 429,316 429,316 435,310 435,310 441,304 441,304 435,298 435,298 429,304 429,304 423,310 423,310 417,304 417,304 411,298 411,298 405,304 405,304 399,310 399,310 405,316 405,316 411,322 411,322 405,328 405,328 399,334 399,334 405,340 405,340 411,334 411,334 417,328 417,328 423,334 423,334 429,340 429,340 435,346 435,346 429,352 429,352 423,358 423,358 417,352 417,352 411,346 411,346 405,352 405,352 399,358 399,358 405,364 405,364 411,370 411,370 405,376 405,376 399,382 399,382 393,376 393,376 387,370 387,370 381,364 381,364 387,358 387,358 393,352 393,352 387,346 387,346 381,352 381,352 375,358 375,358 369,352 369,352 363,346 363,346 357,340 357,340 363,334 363,334 369,328 369,328 375,334 375,334 381,340 381,340 387,334 387,334 393,328 393,328 387,322 387,322 381,316 381,316 387,310 387,310 393,304 393,304 387,298 387,298 381,304 381,304 375,310 375,310 369,304 369,304 363,298 363,298 357,304 357,304 351,310 351,310 357,316 357,316 363,322 363,322 357,328 357,328 351,334 351,334 345,328 345,328 339,322 339,322 333,316 333,316 339,310 339,310 345,304 345,304 339,298 339,298 333,304 333,304 327,310 327,310 321,304 321,304 315,298 315,298 309,304 309,304 303,310 303,310 309,316 309,316 315,322 315,322 309,328 309,328 303,334 303,334 309,340 309,340 315,334 315,334 321,328 321,328 327,334 327,334 333,340 333,340 339,346 339,346 333,352 333,352 327,358 327,358 321,352 321,352 315,346 315,346 309,352 309,352 303,358 303,358 309,364 309,364 315,370 315,370 309,376 309,376 303,382 303,382 309,388 309,388 315,382 315,382 321,376 321,376 327,382 327,382 333,388 333,388 339,382 339,382 345,376 345,376 339,370 339,370 333,364 333,364 339,358 339,358 345,352 345,352 351,358 351,358 357,364 357,364 363,370 363,370 357,376 357,376 351,382 351,382 357,388 357,388 363,382 363,382 369,376 369,376 375,382 375,382 381,388 381,388 387,394 387,394 381,400 381,400 375,406 375,406 369,400 369,400 363,394 363,394 357,400 357,400 351,406 351,406 357,412 357,412 363,418 363,418 357,424 357,424 351,430 351,430 345,424 345,424 339,418 339,418 333,412 333,412 339,406 339,406 345,400 345,400 339,394 339,394 333,400 333,400 327,406 327,406 321,400 321,400 315,394 315,394 309,400 309,400 303,406 303,406 309,412 309,412 315,418 315,418 309,424 309,424 303,430 303,430 309,436 309,436 315,430 315,430 321,424 321,424 327,430 327,430 333,436 333,436 339,442 339,442 333,448 333,448 327,454 327,454 321,448 321,448 315,442 315,442 309,448 309,448 303,454 303,454 309,460 309,460 315,466 315,466 309,472 309,472 303,478 303,478 309,484 309,484 315,478 315,478 321,472 321,472 327,478 327,478 333,484 333,484 339,478 339,478 345,472 345,472 339,466 339,466 333,460 333,460 339,454 339,454 345,448 345,448 351,454 351,454 357,460 357,460 363,466 363,466 357,472 357,472 351,478 351,478 357,484 357,484 363,478 363,478 369,472 369,472 375,478 375,478 381,484 381,484 387,478 387,478 393,472 393,472 387,466 387,466 381,460 381,460 387,454 387,454 393,448 393,448 387,442 387,442 381,448 381,448 375,454 375,454 369,448 369,448 363,442 363,442 357,436 357,436 363,430 363,430 369,424 369,424 375,430 375,430 381,436 381,436 387,430 387,430 393,424 393,424 387,418 387,418 381,412 381,412 387,406 387,406 393,400 393,400 399,406 399,406 405,412 405,412 411,418 411,418 405,424 405,424 399,430 399,430 405,436 405,436 411,430 411,430 417,424 417,424 423,430 423,430 429,436 429,436 435,442 435,442 429,448 429,448 423,454 423,454 417,448 417,448 411,442 411,442 405,448 405,448 399,454 399,454 405,460 405,460 411,466 411,466 405,472 405,472 399,478 399,478 405,484 405,484 411,478 411,478 417,472 417,472 423,478 423,478 429,484 429,484 435,478 435,478 441,472 441,472 435,466 435,466 429,460 429,460 435,454 435,454 441,448 441,448 447,454 447,454 453,460 453,460 459,466 459,466 453,472 453,472 447,478 447,478 453,484 453,484 459,478 459,478 465,472 465,472 471,478 471,478 477,484 477,484 483,490 483,490 477,496 477,496 471,502 471,502 465,496 465,496 459,490 459,490 453,496 453,496 447,502 447,502 453,508 453,508 459,514 459,514 453,520 453,520 447,526 447,526 441,520 441,520 435,514 435,514 429,508 429,508 435,502 435,502 441,496 441,496 435,490 435,490 429,496 429,496 423,502 423,502 417,496 417,496 411,490 411,490 405,496 405,496 399,502 399,502 405,508 405,508 411,514 411,514 405,520 405,520 399,526 399,526 405,532 405,532 411,526 411,526 417,520 417,520 423,526 423,526 429,532 429,532 435,538 435,538 429,544 429,544 423,550 423,550 417,544 417,544 411,538 411,538 405,544 405,544 399,550 399,550 405,556 405,556 411,562 411,562 405,568 405,568 399,574 399,574 393,568 393,568 387,562 387,562 381,556 381,556 387,550 387,550 393,544 393,544 387,538 387,538 381,544 381,544 375,550 375,550 369,544 369,544 363,538 363,538 357,532 357,532 363,526 363,526 369,520 369,520 375,526 375,526 381,532 381,532 387,526 387,526 393,520 393,520 387,514 387,514 381,508 381,508 387,502 387,502 393,496 393,496 387,490 387,490 381,496 381,496 375,502 375,502 369,496 369,496 363,490 363,490 357,496 357,496 351,502 351,502 357,508 357,508 363,514 363,514 357,520 357,520 351,526 351,526 345,520 345,520 339,514 339,514 333,508 333,508 339,502 339,502 345,496 345,496 339,490 339,490 333,496 333,496 327,502 327,502 321,496 321,496 315,490 315,490 309,496 309,496 303,502 303,502 309,508 309,508 315,514 315,514 309,520 309,520 303,526 303,526 309,532 309,532 315,526 315,526 321,520 321,520 327,526 327,526 333,532 333,532 339,538 339,538 333,544 333,544 327,550 327,550 321,544 321,544 315,538 315,538 309,544 309,544 303,550 303,550 309,556 309,556 315,562 315,562 309,568 309,568 303,574 303,574 309,580 309,580 315,574 315,574 321,568 321,568 327,574 327,574 333,580 333,580 339,574 339,574 345,568 345,568 339,562 339,562 333,556 333,556 339,550 339,550 345,544 345,544 351,550 351,550 357,556 357,556 363,562 363,562 357,568 357,568 351,574 351,574 357,580 357,580 363,574 363,574 369,568 369,568 375,574 375,574 381,580 381,580 387,586 387,586 381,592 381,592 375,598 375,598 369,592 369,592 363,586 363,586 357,592 357,592 351,598 351,598 357,604 357,604 363,610 363,610 357,616 357,616 351,622 351,622 345,616 345,616 339,610 339,610 333,604 333,604 339,598 339,598 345,592 345,592 339,586 339,586 333,592 333,592 327,598 327,598 321,592 321,592 315,586 315,586 309,592 309,592 303,598 303,598 309,604 309,604 315,610 315,610 309,616 309,616 303,622 303,622 309,628 309,628 315,622 315,622 321,616 321,616 327,622 327,622 333,628 333,628 339,634 339,634 333,640 333,640 327,646 327,646 321,640 321,640 315,634 315,634 309,640 309,640 303,646 303,646 309,652 309,652 315,658 315,658 309,664 309,664 303" fill="black" transform="rotate(45, 300, 300)" style="stroke:#61D4FF" />
</svg>
