<svg xmlns="http://www.w3.org/2000/svg" xmlns:svg="http://www.w3.org/2000/svg" xmlns:xlink="http://www.w3.org/1999/xlink" width="640" height="640"><rect width="100%" height="100%" fill="black" /><polyline points="316,-108,324,-108,324,-100,330,-94,338,-94,338,-86,330,-86,324,-81,324,-73,330,-67,338,-67,343,-73,343,-81,351,-81,351,-73,357,-67,365,-67,365,-59,357,-59,351,-53,351,-45,343,-45,343,-53,338,-59,330,-59,324,-53,324,-45,330,-40,338,-40,338,-32,330,-32,324,-26,324,-18,330,-12,338,-12,343,-18,343,-26,351,-26,351,-18,357,-12,365,-12,371,-18,371,-26,365,-32,357,-32,357,-40,365,-40,371,-45,371,-53,379,-53,379,-45,384,-40,392,-40,392,-32,384,-32,379,-26,379,-18,384,-12,392,-12,398,-18,398,-26,406,-26,406,-18,412,-12,420,-12,420,-4,412,-4,406,1,406,9,398,9,398,1,392,-4,384,-4,379,1,379,9,384,15,392,15,392,23,384,23,379,29,379,37,371,37,371,29,365,23,357,23,357,15,365,15,371,9,371,1,365,-4,357,-4,351,1,351,9,343,9,343,1,338,-4,330,-4,324,1,324,9,330,15,338,15,338,23,330,23,324,29,324,37,330,42,338,42,343,37,343,29,351,29,351,37,357,42,365,42,365,50,357,50,351,56,351,64,343,64,343,56,338,50,330,50,324,56,324,64,330,70,338,70,338,78,330,78,324,83,324,91,330,97,338,97,343,91,343,83,351,83,351,91,357,97,365,97,371,91,371,83,365,78,357,78,357,70,365,70,371,64,371,56,379,56,379,64,384,70,392,70,392,78,384,78,379,83,379,91,384,97,392,97,398,91,398,83,406,83,406,91,412,97,420,97,425,91,425,83,420,78,412,78,412,70,420,70,425,64,425,56,420,50,412,50,406,56,406,64,398,64,398,56,392,50,384,50,384,42,392,42,398,37,398,29,406,29,406,37,412,42,420,42,425,37,425,29,420,23,412,23,412,15,420,15,425,9,425,1,433,1,433,9,439,15,447,15,447,23,439,23,433,29,433,37,439,42,447,42,453,37,453,29,461,29,461,37,466,42,474,42,474,50,466,50,461,56,461,64,453,64,453,56,447,50,439,50,433,56,433,64,439,70,447,70,447,78,439,78,433,83,433,91,439,97,447,97,453,91,453,83,461,83,461,91,466,97,474,97,480,91,480,83,474,78,466,78,466,70,474,70,480,64,480,56,488,56,488,64,494,70,502,70,502,78,494,78,488,83,488,91,494,97,502,97,507,91,507,83,515,83,515,91,521,97,529,97,529,105,521,105,515,111,515,119,507,119,507,111,502,105,494,105,488,111,488,119,494,124,502,124,502,132,494,132,488,138,488,146,480,146,480,138,474,132,466,132,466,124,474,124,480,119,480,111,474,105,466,105,461,111,461,119,453,119,453,111,447,105,439,105,433,111,433,119,439,124,447,124,447,132,439,132,433,138,433,146,439,151,447,151,453,146,453,138,461,138,461,146,466,151,474,151,474,159,466,159,461,165,461,173,453,173,453,165,447,159,439,159,433,165,433,173,439,179,447,179,447,187,439,187,433,192,433,200,425,200,425,192,420,187,412,187,412,179,420,179,425,173,425,165,420,159,412,159,406,165,406,173,398,173,398,165,392,159,384,159,384,151,392,151,398,146,398,138,406,138,406,146,412,151,420,151,425,146,425,138,420,132,412,132,412,124,420,124,425,119,425,111,420,105,412,105,406,111,406,119,398,119,398,111,392,105,384,105,379,111,379,119,384,124,392,124,392,132,384,132,379,138,379,146,371,146,371,138,365,132,357,132,357,124,365,124,371,119,371,111,365,105,357,105,351,111,351,119,343,119,343,111,338,105,330,105,324,111,324,119,330,124,338,124,338,132,330,132,324,138,324,146,330,151,338,151,343,146,343,138,351,138,351,146,357,151,365,151,365,159,357,159,351,165,351,173,343,173,343,165,338,159,330,159,324,165,324,173,330,179,338,179,338,187,330,187,324,192,324,200,330,206,338,206,343,200,343,192,351,192,351,200,357,206,365,206,371,200,371,192,365,187,357,187,357,179,365,179,371,173,371,165,379,165,379,173,384,179,392,179,392,187,384,187,379,192,379,200,384,206,392,206,398,200,398,192,406,192,406,200,412,206,420,206,420,214,412,214,406,220,406,228,398,228,398,220,392,214,384,214,379,220,379,228,384,233,392,233,392,241,384,241,379,247,379,255,371,255,371,247,365,241,357,241,357,233,365,233,371,228,371,220,365,214,357,214,351,220,351,228,343,228,343,220,338,214,330,214,324,220,324,228,330,233,338,233,338,241,330,241,324,247,324,255,330,261,338,261,343,255,343,247,351,247,351,255,357,261,365,261,365,269,357,269,351,274,351,282,343,282,343,274,338,269,330,269,324,274,324,282,330,288,338,288,338,296,330,296,324,302,324,310,330,315,338,315,343,310,343,302,351,302,351,310,357,315,365,315,371,310,371,302,365,296,357,296,357,288,365,288,371,282,371,274,379,274,379,282,384,288,392,288,392,296,384,296,379,302,379,310,384,315,392,315,398,310,398,302,406,302,406,310,412,315,420,315,425,310,425,302,420,296,412,296,412,288,420,288,425,282,425,274,420,269,412,269,406,274,406,282,398,282,398,274,392,269,384,269,384,261,392,261,398,255,398,247,406,247,406,255,412,261,420,261,425,255,425,247,420,241,412,241,412,233,420,233,425,228,425,220,433,220,433,228,439,233,447,233,447,241,439,241,433,247,433,255,439,261,447,261,453,255,453,247,461,247,461,255,466,261,474,261,474,269,466,269,461,274,461,282,453,282,453,274,447,269,439,269,433,274,433,282,439,288,447,288,447,296,439,296,433,302,433,310,439,315,447,315,453,310,453,302,461,302,461,310,466,315,474,315,480,310,480,302,474,296,466,296,466,288,474,288,480,282,480,274,488,274,488,282,494,288,502,288,502,296,494,296,488,302,488,310,494,315,502,315,507,310,507,302,515,302,515,310,521,315,529,315,535,310,535,302,529,296,521,296,521,288,529,288,535,282,535,274,529,269,521,269,515,274,515,282,507,282,507,274,502,269,494,269,494,261,502,261,507,255,507,247,515,247,515,255,521,261,529,261,535,255,535,247,529,241,521,241,521,233,529,233,535,228,535,220,529,214,521,214,515,220,515,228,507,228,507,220,502,214,494,214,488,220,488,228,494,233,502,233,502,241,494,241,488,247,488,255,480,255,480,247,474,241,466,241,466,233,474,233,480,228,480,220,474,214,466,214,461,220,461,228,453,228,453,220,447,214,439,214,439,206,447,206,453,200,453,192,461,192,461,200,466,206,474,206,480,200,480,192,474,187,466,187,466,179,474,179,480,173,480,165,488,165,488,173,494,179,502,179,502,187,494,187,488,192,488,200,494,206,502,206,507,200,507,192,515,192,515,200,521,206,529,206,535,200,535,192,529,187,521,187,521,179,529,179,535,173,535,165,529,159,521,159,515,165,515,173,507,173,507,165,502,159,494,159,494,151,502,151,507,146,507,138,515,138,515,146,521,151,529,151,535,146,535,138,529,132,521,132,521,124,529,124,535,119,535,111,543,111,543,119,548,124,556,124,556,132,548,132,543,138,543,146,548,151,556,151,562,146,562,138,570,138,570,146,575,151,583,151,583,159,575,159,570,165,570,173,562,173,562,165,556,159,548,159,543,165,543,173,548,179,556,179,556,187,548,187,543,192,543,200,548,206,556,206,562,200,562,192,570,192,570,200,575,206,583,206,589,200,589,192,583,187,575,187,575,179,583,179,589,173,589,165,597,165,597,173,603,179,611,179,611,187,603,187,597,192,597,200,603,206,611,206,616,200,616,192,624,192,624,200,630,206,638,206,638,214,630,214,624,220,624,228,616,228,616,220,611,214,603,214,597,220,597,228,603,233,611,233,611,241,603,241,597,247,597,255,589,255,589,247,583,241,575,241,575,233,583,233,589,228,589,220,583,214,575,214,570,220,570,228,562,228,562,220,556,214,548,214,543,220,543,228,548,233,556,233,556,241,548,241,543,247,543,255,548,261,556,261,562,255,562,247,570,247,570,255,575,261,583,261,583,269,575,269,570,274,570,282,562,282,562,274,556,269,548,269,543,274,543,282,548,288,556,288,556,296,548,296,543,302,543,310,548,315,556,315,562,310,562,302,570,302,570,310,575,315,583,315,589,310,589,302,583,296,575,296,575,288,583,288,589,282,589,274,597,274,597,282,603,288,611,288,611,296,603,296,597,302,597,310,603,315,611,315,616,310,616,302,624,302,624,310,630,315,638,315,644,310,644,302,638,296,630,296,630,288,638,288,644,282,644,274,638,269,630,269,624,274,624,282,616,282,616,274,611,269,603,269,603,261,611,261,616,255,616,247,624,247,624,255,630,261,638,261,644,255,644,247,638,241,630,241,630,233,638,233,644,228,644,220,652,220,652,228,657,233,665,233,665,241,657,241,652,247,652,255,657,261,665,261,671,255,671,247,679,247,679,255,685,261,693,261,693,269,685,269,679,274,679,282,671,282,671,274,665,269,657,269,652,274,652,282,657,288,665,288,665,296,657,296,652,302,652,310,657,315,665,315,671,310,671,302,679,302,679,310,685,315,693,315,698,310,698,302,693,296,685,296,685,288,693,288,698,282,698,274,706,274,706,282,712,288,720,288,720,296,712,296,706,302,706,310,712,315,720,315,726,310,726,302,734,302,734,310,739,315,747,315,747,323,739,323,734,329,734,337,726,337,726,329,720,323,712,323,706,329,706,337,712,343,720,343,720,351,712,351,706,356,706,364,698,364,698,356,693,351,685,351,685,343,693,343,698,337,698,329,693,323,685,323,679,329,679,337,671,337,671,329,665,323,657,323,652,329,652,337,657,343,665,343,665,351,657,351,652,356,652,364,657,370,665,370,671,364,671,356,679,356,679,364,685,370,693,370,693,378,685,378,679,384,679,392,671,392,671,384,665,378,657,378,652,384,652,392,657,397,665,397,665,405,657,405,652,411,652,419,644,419,644,411,638,405,630,405,630,397,638,397,644,392,644,384,638,378,630,378,624,384,624,392,616,392,616,384,611,378,603,378,603,370,611,370,616,364,616,356,624,356,624,364,630,370,638,370,644,364,644,356,638,351,630,351,630,343,638,343,644,337,644,329,638,323,630,323,624,329,624,337,616,337,616,329,611,323,603,323,597,329,597,337,603,343,611,343,611,351,603,351,597,356,597,364,589,364,589,356,583,351,575,351,575,343,583,343,589,337,589,329,583,323,575,323,570,329,570,337,562,337,562,329,556,323,548,323,543,329,543,337,548,343,556,343,556,351,548,351,543,356,543,364,548,370,556,370,562,364,562,356,570,356,570,364,575,370,583,370,583,378,575,378,570,384,570,392,562,392,562,384,556,378,548,378,543,384,543,392,548,397,556,397,556,405,548,405,543,411,543,419,548,425,556,425,562,419,562,411,570,411,570,419,575,425,583,425,589,419,589,411,583,405,575,405,575,397,583,397,589,392,589,384,597,384,597,392,603,397,611,397,611,405,603,405,597,411,597,419,603,425,611,425,616,419,616,411,624,411,624,419,630,425,638,425,638,433,630,433,624,438,624,446,616,446,616,438,611,433,603,433,597,438,597,446,603,452,611,452,611,460,603,460,597,466,597,474,589,474,589,466,583,460,575,460,575,452,583,452,589,446,589,438,583,433,575,433,570,438,570,446,562,446,562,438,556,433,548,433,543,438,543,446,548,452,556,452,556,460,548,460,543,466,543,474,548,479,556,479,562,474,562,466,570,466,570,474,575,479,583,479,583,487,575,487,570,493,570,501,562,501,562,493,556,487,548,487,543,493,543,501,548,507,556,507,556,515,548,515,543,520,543,528,535,528,535,520,529,515,521,515,521,507,529,507,535,501,535,493,529,487,521,487,515,493,515,501,507,501,507,493,502,487,494,487,494,479,502,479,507,474,507,466,515,466,515,474,521,479,529,479,535,474,535,466,529,460,521,460,521,452,529,452,535,446,535,438,529,433,521,433,515,438,515,446,507,446,507,438,502,433,494,433,488,438,488,446,494,452,502,452,502,460,494,460,488,466,488,474,480,474,480,466,474,460,466,460,466,452,474,452,480,446,480,438,474,433,466,433,461,438,461,446,453,446,453,438,447,433,439,433,439,425,447,425,453,419,453,411,461,411,461,419,466,425,474,425,480,419,480,411,474,405,466,405,466,397,474,397,480,392,480,384,488,384,488,392,494,397,502,397,502,405,494,405,488,411,488,419,494,425,502,425,507,419,507,411,515,411,515,419,521,425,529,425,535,419,535,411,529,405,521,405,521,397,529,397,535,392,535,384,529,378,521,378,515,384,515,392,507,392,507,384,502,378,494,378,494,370,502,370,507,364,507,356,515,356,515,364,521,370,529,370,535,364,535,356,529,351,521,351,521,343,529,343,535,337,535,329,529,323,521,323,515,329,515,337,507,337,507,329,502,323,494,323,488,329,488,337,494,343,502,343,502,351,494,351,488,356,488,364,480,364,480,356,474,351,466,351,466,343,474,343,480,337,480,329,474,323,466,323,461,329,461,337,453,337,453,329,447,323,439,323,433,329,433,337,439,343,447,343,447,351,439,351,433,356,433,364,439,370,447,370,453,364,453,356,461,356,461,364,466,370,474,370,474,378,466,378,461,384,461,392,453,392,453,384,447,378,439,378,433,384,433,392,439,397,447,397,447,405,439,405,433,411,433,419,425,419,425,411,420,405,412,405,412,397,420,397,425,392,425,384,420,378,412,378,406,384,406,392,398,392,398,384,392,378,384,378,384,370,392,370,398,364,398,356,406,356,406,364,412,370,420,370,425,364,425,356,420,351,412,351,412,343,420,343,425,337,425,329,420,323,412,323,406,329,406,337,398,337,398,329,392,323,384,323,379,329,379,337,384,343,392,343,392,351,384,351,379,356,379,364,371,364,371,356,365,351,357,351,357,343,365,343,371,337,371,329,365,323,357,323,351,329,351,337,343,337,343,329,338,323,330,323,324,329,324,337,330,343,338,343,338,351,330,351,324,356,324,364,330,370,338,370,343,364,343,356,351,356,351,364,357,370,365,370,365,378,357,378,351,384,351,392,343,392,343,384,338,378,330,378,324,384,324,392,330,397,338,397,338,405,330,405,324,411,324,419,330,425,338,425,343,419,343,411,351,411,351,419,357,425,365,425,371,419,371,411,365,405,357,405,357,397,365,397,371,392,371,384,379,384,379,392,384,397,392,397,392,405,384,405,379,411,379,419,384,425,392,425,398,419,398,411,406,411,406,419,412,425,420,425,420,433,412,433,406,438,406,446,398,446,398,438,392,433,384,433,379,438,379,446,384,452,392,452,392,460,384,460,379,466,379,474,371,474,371,466,365,460,357,460,357,452,365,452,371,446,371,438,365,433,357,433,351,438,351,446,343,446,343,438,338,433,330,433,324,438,324,446,330,452,338,452,338,460,330,460,324,466,324,474,330,479,338,479,343,474,343,466,351,466,351,474,357,479,365,479,365,487,357,487,351,493,351,501,343,501,343,493,338,487,330,487,324,493,324,501,330,507,338,507,338,515,330,515,324,520,324,528,330,534,338,534,343,528,343,520,351,520,351,528,357,534,365,534,371,528,371,520,365,515,357,515,357,507,365,507,371,501,371,493,379,493,379,501,384,507,392,507,392,515,384,515,379,520,379,528,384,534,392,534,398,528,398,520,406,520,406,528,412,534,420,534,425,528,425,520,420,515,412,515,412,507,420,507,425,501,425,493,420,487,412,487,406,493,406,501,398,501,398,493,392,487,384,487,384,479,392,479,398,474,398,466,406,466,406,474,412,479,420,479,425,474,425,466,420,460,412,460,412,452,420,452,425,446,425,438,433,438,433,446,439,452,447,452,447,460,439,460,433,466,433,474,439,479,447,479,453,474,453,466,461,466,461,474,466,479,474,479,474,487,466,487,461,493,461,501,453,501,453,493,447,487,439,487,433,493,433,501,439,507,447,507,447,515,439,515,433,520,433,528,439,534,447,534,453,528,453,520,461,520,461,528,466,534,474,534,480,528,480,520,474,515,466,515,466,507,474,507,480,501,480,493,488,493,488,501,494,507,502,507,502,515,494,515,488,520,488,528,494,534,502,534,507,528,507,520,515,520,515,528,521,534,529,534,529,542,521,542,515,548,515,556,507,556,507,548,502,542,494,542,488,548,488,556,494,561,502,561,502,569,494,569,488,575,488,583,480,583,480,575,474,569,466,569,466,561,474,561,480,556,480,548,474,542,466,542,461,548,461,556,453,556,453,548,447,542,439,542,433,548,433,556,439,561,447,561,447,569,439,569,433,575,433,583,439,588,447,588,453,583,453,575,461,575,461,583,466,588,474,588,474,596,466,596,461,602,461,610,453,610,453,602,447,596,439,596,433,602,433,610,439,616,447,616,447,624,439,624,433,629,433,637,425,637,425,629,420,624,412,624,412,616,420,616,425,610,425,602,420,596,412,596,406,602,406,610,398,610,398,602,392,596,384,596,384,588,392,588,398,583,398,575,406,575,406,583,412,588,420,588,425,583,425,575,420,569,412,569,412,561,420,561,425,556,425,548,420,542,412,542,406,548,406,556,398,556,398,548,392,542,384,542,379,548,379,556,384,561,392,561,392,569,384,569,379,575,379,583,371,583,371,575,365,569,357,569,357,561,365,561,371,556,371,548,365,542,357,542,351,548,351,556,343,556,343,548,338,542,330,542,324,548,324,556,330,561,338,561,338,569,330,569,324,575,324,583,330,588,338,588,343,583,343,575,351,575,351,583,357,588,365,588,365,596,357,596,351,602,351,610,343,610,343,602,338,596,330,596,324,602,324,610,330,616,338,616,338,624,330,624,324,629,324,637,330,643,338,643,343,637,343,629,351,629,351,637,357,643,365,643,371,637,371,629,365,624,357,624,357,616,365,616,371,610,371,602,379,602,379,610,384,616,392,616,392,624,384,624,379,629,379,637,384,643,392,643,398,637,398,629,406,629,406,637,412,643,420,643,420,651,412,651,406,657,406,665,398,665,398,657,392,651,384,651,379,657,379,665,384,670,392,670,392,678,384,678,379,684,379,692,371,692,371,684,365,678,357,678,357,670,365,670,371,665,371,657,365,651,357,651,351,657,351,665,343,665,343,657,338,651,330,651,324,657,324,665,330,670,338,670,338,678,330,678,324,684,324,692,330,698,338,698,343,692,343,684,351,684,351,692,357,698,365,698,365,706,357,706,351,711,351,719,343,719,343,711,338,706,330,706,324,711,324,719,330,725,338,725,338,733,330,733,324,739,324,747,316,747,316,739,310,733,302,733,302,725,310,725,316,719,316,711,310,706,302,706,297,711,297,719,289,719,289,711,283,706,275,706,275,698,283,698,289,692,289,684,297,684,297,692,302,698,310,698,316,692,316,684,310,678,302,678,302,670,310,670,316,665,316,657,310,651,302,651,297,657,297,665,289,665,289,657,283,651,275,651,269,657,269,665,275,670,283,670,283,678,275,678,269,684,269,692,261,692,261,684,256,678,248,678,248,670,256,670,261,665,261,657,256,651,248,651,242,657,242,665,234,665,234,657,228,651,220,651,220,643,228,643,234,637,234,629,242,629,242,637,248,643,256,643,261,637,261,629,256,624,248,624,248,616,256,616,261,610,261,602,269,602,269,610,275,616,283,616,283,624,275,624,269,629,269,637,275,643,283,643,289,637,289,629,297,629,297,637,302,643,310,643,316,637,316,629,310,624,302,624,302,616,310,616,316,610,316,602,310,596,302,596,297,602,297,610,289,610,289,602,283,596,275,596,275,588,283,588,289,583,289,575,297,575,297,583,302,588,310,588,316,583,316,575,310,569,302,569,302,561,310,561,316,556,316,548,310,542,302,542,297,548,297,556,289,556,289,548,283,542,275,542,269,548,269,556,275,561,283,561,283,569,275,569,269,575,269,583,261,583,261,575,256,569,248,569,248,561,256,561,261,556,261,548,256,542,248,542,242,548,242,556,234,556,234,548,228,542,220,542,215,548,215,556,220,561,228,561,228,569,220,569,215,575,215,583,220,588,228,588,234,583,234,575,242,575,242,583,248,588,256,588,256,596,248,596,242,602,242,610,234,610,234,602,228,596,220,596,215,602,215,610,220,616,228,616,228,624,220,624,215,629,215,637,207,637,207,629,201,624,193,624,193,616,201,616,207,610,207,602,201,596,193,596,187,602,187,610,179,610,179,602,174,596,166,596,166,588,174,588,179,583,179,575,187,575,187,583,193,588,201,588,207,583,207,575,201,569,193,569,193,561,201,561,207,556,207,548,201,542,193,542,187,548,187,556,179,556,179,548,174,542,166,542,160,548,160,556,166,561,174,561,174,569,166,569,160,575,160,583,152,583,152,575,146,569,138,569,138,561,146,561,152,556,152,548,146,542,138,542,133,548,133,556,125,556,125,548,119,542,111,542,111,534,119,534,125,528,125,520,133,520,133,528,138,534,146,534,152,528,152,520,146,515,138,515,138,507,146,507,152,501,152,493,160,493,160,501,166,507,174,507,174,515,166,515,160,520,160,528,166,534,174,534,179,528,179,520,187,520,187,528,193,534,201,534,207,528,207,520,201,515,193,515,193,507,201,507,207,501,207,493,201,487,193,487,187,493,187,501,179,501,179,493,174,487,166,487,166,479,174,479,179,474,179,466,187,466,187,474,193,479,201,479,207,474,207,466,201,460,193,460,193,452,201,452,207,446,207,438,215,438,215,446,220,452,228,452,228,460,220,460,215,466,215,474,220,479,228,479,234,474,234,466,242,466,242,474,248,479,256,479,256,487,248,487,242,493,242,501,234,501,234,493,228,487,220,487,215,493,215,501,220,507,228,507,228,515,220,515,215,520,215,528,220,534,228,534,234,528,234,520,242,520,242,528,248,534,256,534,261,528,261,520,256,515,248,515,248,507,256,507,261,501,261,493,269,493,269,501,275,507,283,507,283,515,275,515,269,520,269,528,275,534,283,534,289,528,289,520,297,520,297,528,302,534,310,534,316,528,316,520,310,515,302,515,302,507,310,507,316,501,316,493,310,487,302,487,297,493,297,501,289,501,289,493,283,487,275,487,275,479,283,479,289,474,289,466,297,466,297,474,302,479,310,479,316,474,316,466,310,460,302,460,302,452,310,452,316,446,316,438,310,433,302,433,297,438,297,446,289,446,289,438,283,433,275,433,269,438,269,446,275,452,283,452,283,460,275,460,269,466,269,474,261,474,261,466,256,460,248,460,248,452,256,452,261,446,261,438,256,433,248,433,242,438,242,446,234,446,234,438,228,433,220,433,220,425,228,425,234,419,234,411,242,411,242,419,248,425,256,425,261,419,261,411,256,405,248,405,248,397,256,397,261,392,261,384,269,384,269,392,275,397,283,397,283,405,275,405,269,411,269,419,275,425,283,425,289,419,289,411,297,411,297,419,302,425,310,425,316,419,316,411,310,405,302,405,302,397,310,397,316,392,316,384,310,378,302,378,297,384,297,392,289,392,289,384,283,378,275,378,275,370,283,370,289,364,289,356,297,356,297,364,302,370,310,370,316,364,316,356,310,351,302,351,302,343,310,343,316,337,316,329,310,323,302,323,297,329,297,337,289,337,289,329,283,323,275,323,269,329,269,337,275,343,283,343,283,351,275,351,269,356,269,364,261,364,261,356,256,351,248,351,248,343,256,343,261,337,261,329,256,323,248,323,242,329,242,337,234,337,234,329,228,323,220,323,215,329,215,337,220,343,228,343,228,351,220,351,215,356,215,364,220,370,228,370,234,364,234,356,242,356,242,364,248,370,256,370,256,378,248,378,242,384,242,392,234,392,234,384,228,378,220,378,215,384,215,392,220,397,228,397,228,405,220,405,215,411,215,419,207,419,207,411,201,405,193,405,193,397,201,397,207,392,207,384,201,378,193,378,187,384,187,392,179,392,179,384,174,378,166,378,166,370,174,370,179,364,179,356,187,356,187,364,193,370,201,370,207,364,207,356,201,351,193,351,193,343,201,343,207,337,207,329,201,323,193,323,187,329,187,337,179,337,179,329,174,323,166,323,160,329,160,337,166,343,174,343,174,351,166,351,160,356,160,364,152,364,152,356,146,351,138,351,138,343,146,343,152,337,152,329,146,323,138,323,133,329,133,337,125,337,125,329,119,323,111,323,105,329,105,337,111,343,119,343,119,351,111,351,105,356,105,364,111,370,119,370,125,364,125,356,133,356,133,364,138,370,146,370,146,378,138,378,133,384,133,392,125,392,125,384,119,378,111,378,105,384,105,392,111,397,119,397,119,405,111,405,105,411,105,419,111,425,119,425,125,419,125,411,133,411,133,419,138,425,146,425,152,419,152,411,146,405,138,405,138,397,146,397,152,392,152,384,160,384,160,392,166,397,174,397,174,405,166,405,160,411,160,419,166,425,174,425,179,419,179,411,187,411,187,419,193,425,201,425,201,433,193,433,187,438,187,446,179,446,179,438,174,433,166,433,160,438,160,446,166,452,174,452,174,460,166,460,160,466,160,474,152,474,152,466,146,460,138,460,138,452,146,452,152,446,152,438,146,433,138,433,133,438,133,446,125,446,125,438,119,433,111,433,105,438,105,446,111,452,119,452,119,460,111,460,105,466,105,474,111,479,119,479,125,474,125,466,133,466,133,474,138,479,146,479,146,487,138,487,133,493,133,501,125,501,125,493,119,487,111,487,105,493,105,501,111,507,119,507,119,515,111,515,105,520,105,528,97,528,97,520,92,515,84,515,84,507,92,507,97,501,97,493,92,487,84,487,78,493,78,501,70,501,70,493,65,487,57,487,57,479,65,479,70,474,70,466,78,466,78,474,84,479,92,479,97,474,97,466,92,460,84,460,84,452,92,452,97,446,97,438,92,433,84,433,78,438,78,446,70,446,70,438,65,433,57,433,51,438,51,446,57,452,65,452,65,460,57,460,51,466,51,474,43,474,43,466,37,460,29,460,29,452,37,452,43,446,43,438,37,433,29,433,24,438,24,446,16,446,16,438,10,433,2,433,2,425,10,425,16,419,16,411,24,411,24,419,29,425,37,425,43,419,43,411,37,405,29,405,29,397,37,397,43,392,43,384,51,384,51,392,57,397,65,397,65,405,57,405,51,411,51,419,57,425,65,425,70,419,70,411,78,411,78,419,84,425,92,425,97,419,97,411,92,405,84,405,84,397,92,397,97,392,97,384,92,378,84,378,78,384,78,392,70,392,70,384,65,378,57,378,57,370,65,370,70,364,70,356,78,356,78,364,84,370,92,370,97,364,97,356,92,351,84,351,84,343,92,343,97,337,97,329,92,323,84,323,78,329,78,337,70,337,70,329,65,323,57,323,51,329,51,337,57,343,65,343,65,351,57,351,51,356,51,364,43,364,43,356,37,351,29,351,29,343,37,343,43,337,43,329,37,323,29,323,24,329,24,337,16,337,16,329,10,323,2,323,-4,329,-4,337,2,343,10,343,10,351,2,351,-4,356,-4,364,2,370,10,370,16,364,16,356,24,356,24,364,29,370,37,370,37,378,29,378,24,384,24,392,16,392,16,384,10,378,2,378,-4,384,-4,392,2,397,10,397,10,405,2,405,-4,411,-4,419,-12,419,-12,411,-17,405,-25,405,-25,397,-17,397,-12,392,-12,384,-17,378,-25,378,-31,384,-31,392,-39,392,-39,384,-45,378,-53,378,-53,370,-45,370,-39,364,-39,356,-31,356,-31,364,-25,370,-17,370,-12,364,-12,356,-17,351,-25,351,-25,343,-17,343,-12,337,-12,329,-17,323,-25,323,-31,329,-31,337,-39,337,-39,329,-45,323,-53,323,-58,329,-58,337,-53,343,-45,343,-45,351,-53,351,-58,356,-58,364,-66,364,-66,356,-72,351,-80,351,-80,343,-72,343,-66,337,-66,329,-72,323,-80,323,-86,329,-86,337,-94,337,-94,329,-99,323,-107,323,-107,315,-99,315,-94,310,-94,302,-86,302,-86,310,-80,315,-72,315,-66,310,-66,302,-72,296,-80,296,-80,288,-72,288,-66,282,-66,274,-58,274,-58,282,-53,288,-45,288,-45,296,-53,296,-58,302,-58,310,-53,315,-45,315,-39,310,-39,302,-31,302,-31,310,-25,315,-17,315,-12,310,-12,302,-17,296,-25,296,-25,288,-17,288,-12,282,-12,274,-17,269,-25,269,-31,274,-31,282,-39,282,-39,274,-45,269,-53,269,-53,261,-45,261,-39,255,-39,247,-31,247,-31,255,-25,261,-17,261,-12,255,-12,247,-17,241,-25,241,-25,233,-17,233,-12,228,-12,220,-4,220,-4,228,2,233,10,233,10,241,2,241,-4,247,-4,255,2,261,10,261,16,255,16,247,24,247,24,255,29,261,37,261,37,269,29,269,24,274,24,282,16,282,16,274,10,269,2,269,-4,274,-4,282,2,288,10,288,10,296,2,296,-4,302,-4,310,2,315,10,315,16,310,16,302,24,302,24,310,29,315,37,315,43,310,43,302,37,296,29,296,29,288,37,288,43,282,43,274,51,274,51,282,57,288,65,288,65,296,57,296,51,302,51,310,57,315,65,315,70,310,70,302,78,302,78,310,84,315,92,315,97,310,97,302,92,296,84,296,84,288,92,288,97,282,97,274,92,269,84,269,78,274,78,282,70,282,70,274,65,269,57,269,57,261,65,261,70,255,70,247,78,247,78,255,84,261,92,261,97,255,97,247,92,241,84,241,84,233,92,233,97,228,97,220,92,214,84,214,78,220,78,228,70,228,70,220,65,214,57,214,51,220,51,228,57,233,65,233,65,241,57,241,51,247,51,255,43,255,43,247,37,241,29,241,29,233,37,233,43,228,43,220,37,214,29,214,24,220,24,228,16,228,16,220,10,214,2,214,2,206,10,206,16,200,16,192,24,192,24,200,29,206,37,206,43,200,43,192,37,187,29,187,29,179,37,179,43,173,43,165,51,165,51,173,57,179,65,179,65,187,57,187,51,192,51,200,57,206,65,206,70,200,70,192,78,192,78,200,84,206,92,206,97,200,97,192,92,187,84,187,84,179,92,179,97,173,97,165,92,159,84,159,78,165,78,173,70,173,70,165,65,159,57,159,57,151,65,151,70,146,70,138,78,138,78,146,84,151,92,151,97,146,97,138,92,132,84,132,84,124,92,124,97,119,97,111,105,111,105,119,111,124,119,124,119,132,111,132,105,138,105,146,111,151,119,151,125,146,125,138,133,138,133,146,138,151,146,151,146,159,138,159,133,165,133,173,125,173,125,165,119,159,111,159,105,165,105,173,111,179,119,179,119,187,111,187,105,192,105,200,111,206,119,206,125,200,125,192,133,192,133,200,138,206,146,206,152,200,152,192,146,187,138,187,138,179,146,179,152,173,152,165,160,165,160,173,166,179,174,179,174,187,166,187,160,192,160,200,166,206,174,206,179,200,179,192,187,192,187,200,193,206,201,206,201,214,193,214,187,220,187,228,179,228,179,220,174,214,166,214,160,220,160,228,166,233,174,233,174,241,166,241,160,247,160,255,152,255,152,247,146,241,138,241,138,233,146,233,152,228,152,220,146,214,138,214,133,220,133,228,125,228,125,220,119,214,111,214,105,220,105,228,111,233,119,233,119,241,111,241,105,247,105,255,111,261,119,261,125,255,125,247,133,247,133,255,138,261,146,261,146,269,138,269,133,274,133,282,125,282,125,274,119,269,111,269,105,274,105,282,111,288,119,288,119,296,111,296,105,302,105,310,111,315,119,315,125,310,125,302,133,302,133,310,138,315,146,315,152,310,152,302,146,296,138,296,138,288,146,288,152,282,152,274,160,274,160,282,166,288,174,288,174,296,166,296,160,302,160,310,166,315,174,315,179,310,179,302,187,302,187,310,193,315,201,315,207,310,207,302,201,296,193,296,193,288,201,288,207,282,207,274,201,269,193,269,187,274,187,282,179,282,179,274,174,269,166,269,166,261,174,261,179,255,179,247,187,247,187,255,193,261,201,261,207,255,207,247,201,241,193,241,193,233,201,233,207,228,207,220,215,220,215,228,220,233,228,233,228,241,220,241,215,247,215,255,220,261,228,261,234,255,234,247,242,247,242,255,248,261,256,261,256,269,248,269,242,274,242,282,234,282,234,274,228,269,220,269,215,274,215,282,220,288,228,288,228,296,220,296,215,302,215,310,220,315,228,315,234,310,234,302,242,302,242,310,248,315,256,315,261,310,261,302,256,296,248,296,248,288,256,288,261,282,261,274,269,274,269,282,275,288,283,288,283,296,275,296,269,302,269,310,275,315,283,315,289,310,289,302,297,302,297,310,302,315,310,315,316,310,316,302,310,296,302,296,302,288,310,288,316,282,316,274,310,269,302,269,297,274,297,282,289,282,289,274,283,269,275,269,275,261,283,261,289,255,289,247,297,247,297,255,302,261,310,261,316,255,316,247,310,241,302,241,302,233,310,233,316,228,316,220,310,214,302,214,297,220,297,228,289,228,289,220,283,214,275,214,269,220,269,228,275,233,283,233,283,241,275,241,269,247,269,255,261,255,261,247,256,241,248,241,248,233,256,233,261,228,261,220,256,214,248,214,242,220,242,228,234,228,234,220,228,214,220,214,220,206,228,206,234,200,234,192,242,192,242,200,248,206,256,206,261,200,261,192,256,187,248,187,248,179,256,179,261,173,261,165,269,165,269,173,275,179,283,179,283,187,275,187,269,192,269,200,275,206,283,206,289,200,289,192,297,192,297,200,302,206,310,206,316,200,316,192,310,187,302,187,302,179,310,179,316,173,316,165,310,159,302,159,297,165,297,173,289,173,289,165,283,159,275,159,275,151,283,151,289,146,289,138,297,138,297,146,302,151,310,151,316,146,316,138,310,132,302,132,302,124,310,124,316,119,316,111,310,105,302,105,297,111,297,119,289,119,289,111,283,105,275,105,269,111,269,119,275,124,283,124,283,132,275,132,269,138,269,146,261,146,261,138,256,132,248,132,248,124,256,124,261,119,261,111,256,105,248,105,242,111,242,119,234,119,234,111,228,105,220,105,215,111,215,119,220,124,228,124,228,132,220,132,215,138,215,146,220,151,228,151,234,146,234,138,242,138,242,146,248,151,256,151,256,159,248,159,242,165,242,173,234,173,234,165,228,159,220,159,215,165,215,173,220,179,228,179,228,187,220,187,215,192,215,200,207,200,207,192,201,187,193,187,193,179,201,179,207,173,207,165,201,159,193,159,187,165,187,173,179,173,179,165,174,159,166,159,166,151,174,151,179,146,179,138,187,138,187,146,193,151,201,151,207,146,207,138,201,132,193,132,193,124,201,124,207,119,207,111,201,105,193,105,187,111,187,119,179,119,179,111,174,105,166,105,160,111,160,119,166,124,174,124,174,132,166,132,160,138,160,146,152,146,152,138,146,132,138,132,138,124,146,124,152,119,152,111,146,105,138,105,133,111,133,119,125,119,125,111,119,105,111,105,111,97,119,97,125,91,125,83,133,83,133,91,138,97,146,97,152,91,152,83,146,78,138,78,138,70,146,70,152,64,152,56,160,56,160,64,166,70,174,70,174,78,166,78,160,83,160,91,166,97,174,97,179,91,179,83,187,83,187,91,193,97,201,97,207,91,207,83,201,78,193,78,193,70,201,70,207,64,207,56,201,50,193,50,187,56,187,64,179,64,179,56,174,50,166,50,166,42,174,42,179,37,179,29,187,29,187,37,193,42,201,42,207,37,207,29,201,23,193,23,193,15,201,15,207,9,207,1,215,1,215,9,220,15,228,15,228,23,220,23,215,29,215,37,220,42,228,42,234,37,234,29,242,29,242,37,248,42,256,42,256,50,248,50,242,56,242,64,234,64,234,56,228,50,220,50,215,56,215,64,220,70,228,70,228,78,220,78,215,83,215,91,220,97,228,97,234,91,234,83,242,83,242,91,248,97,256,97,261,91,261,83,256,78,248,78,248,70,256,70,261,64,261,56,269,56,269,64,275,70,283,70,283,78,275,78,269,83,269,91,275,97,283,97,289,91,289,83,297,83,297,91,302,97,310,97,316,91,316,83,310,78,302,78,302,70,310,70,316,64,316,56,310,50,302,50,297,56,297,64,289,64,289,56,283,50,275,50,275,42,283,42,289,37,289,29,297,29,297,37,302,42,310,42,316,37,316,29,310,23,302,23,302,15,310,15,316,9,316,1,310,-4,302,-4,297,1,297,9,289,9,289,1,283,-4,275,-4,269,1,269,9,275,15,283,15,283,23,275,23,269,29,269,37,261,37,261,29,256,23,248,23,248,15,256,15,261,9,261,1,256,-4,248,-4,242,1,242,9,234,9,234,1,228,-4,220,-4,220,-12,228,-12,234,-18,234,-26,242,-26,242,-18,248,-12,256,-12,261,-18,261,-26,256,-32,248,-32,248,-40,256,-40,261,-45,261,-53,269,-53,269,-45,275,-40,283,-40,283,-32,275,-32,269,-26,269,-18,275,-12,283,-12,289,-18,289,-26,297,-26,297,-18,302,-12,310,-12,316,-18,316,-26,310,-32,302,-32,302,-40,310,-40,316,-45,316,-53,310,-59,302,-59,297,-53,297,-45,289,-45,289,-53,283,-59,275,-59,275,-67,283,-67,289,-73,289,-81,297,-81,297,-73,302,-67,310,-67,316,-73,316,-81,310,-86,302,-86,302,-94,310,-94,316,-100,316,-108" fill="black" transform="rotate(45, 320, 320)" style="stroke:#F7DF1E" />
</svg>
