<svg xmlns="http://www.w3.org/2000/svg" xmlns:svg="http://www.w3.org/2000/svg" xmlns:xlink="http://www.w3.org/1999/xlink" width="600" height="600" stroke="black" stroke-width="1"><rect x="0" y="0" width="37.5" height="37.5" fill="#0F0" /><rect x="0" y="37.5" width="37.5" height="37.5" fill="#0F0" />
<rect x="0" y="75" width="37.5" height="37.5" fill="#0F0" /><rect x="0" y="112.5" width="37.5" height="37.5" fill="#0F0" />
<rect x="0" y="150" width="37.5" height="37.5" fill="#0F0" /><rect x="0" y="187.5" width="37.5" height="37.5" fill="#0F0" />
<rect x="0" y="225" width="37.5" height="37.5" fill="#0F0" /><rect x="0" y="262.5" width="37.5" height="37.5" fill="#0F0" />
<rect x="0" y="300" width="37.5" height="37.5" fill="#0F0" /><rect x="0" y="337.5" width="37.5" height="37.5" fill="#0F0" />
<rect x="0" y="375" width="37.5" height="37.5" fill="#0F0" /><rect x="0" y="412.5" width="37.5" height="37.5" fill="#0F0" />
<rect x="0" y="450" width="37.5" height="37.5" fill="#0F0" /><rect x="0" y="487.5" width="37.5" height="37.5" fill="#0F0" />
<rect x="0" y="525" width="37.5" height="37.5" fill="#0F0" /><rect x="0" y="562.5" width="37.5" height="37.5" fill="#0F0" />
<rect x="37.5" y="0" width="37.5" height="37.5" fill="#0F0" /><rect x="37.5" y="37.5" width="37.5" height="37.5" fill="#0F0" />
<rect x="37.5" y="75" width="37.5" height="37.5" fill="#0F0" /><rect x="37.5" y="112.5" width="37.5" height="37.5" fill="#0F0" />
<rect x="37.5" y="150" width="37.5" height="37.5" fill="#0F0" /><rect x="37.5" y="187.5" width="37.5" height="37.5" fill="#0F0" />
<rect x="37.5" y="225" width="37.5" height="37.5" fill="#0F0" /><rect x="37.5" y="262.5" width="37.5" height="37.5" fill="#0F0" />
<rect x="37.5" y="300" width="37.5" height="37.5" fill="#F00" /><rect x="37.5" y="337.5" width="37.5" height="37.5" fill="#F00" />
<rect x="37.5" y="375" width="37.5" height="37.5" fill="#F00" /><rect x="37.5" y="412.5" width="37.5" height="37.5" fill="#F00" />
<rect x="37.5" y="450" width="37.5" height="37.5" fill="#F00" /><rect x="37.5" y="487.5" width="37.5" height="37.5" fill="#F00" />
<rect x="37.5" y="525" width="37.5" height="37.5" fill="#F00" /><rect x="37.5" y="562.5" width="37.5" height="37.5" fill="#F00" />
<rect x="75" y="0" width="37.5" height="37.5" fill="#0F0" /><rect x="75" y="37.5" width="37.5" height="37.5" fill="#0F0" />
<rect x="75" y="75" width="37.5" height="37.5" fill="#0F0" /><rect x="75" y="112.5" width="37.5" height="37.5" fill="#0F0" />
<rect x="75" y="150" width="37.5" height="37.5" fill="#F00" /><rect x="75" y="187.5" width="37.5" height="37.5" fill="#F00" />
<rect x="75" y="225" width="37.5" height="37.5" fill="#F00" /><rect x="75" y="262.5" width="37.5" height="37.5" fill="#F00" />
<rect x="75" y="300" width="37.5" height="37.5" fill="#F00" /><rect x="75" y="337.5" width="37.5" height="37.5" fill="#F00" />
<rect x="75" y="375" width="37.5" height="37.5" fill="#F00" /><rect x="75" y="412.5" width="37.5" height="37.5" fill="#F00" />
<rect x="75" y="450" width="37.5" height="37.5" fill="#0F0" /><rect x="75" y="487.5" width="37.5" height="37.5" fill="#0F0" />
<rect x="75" y="525" width="37.5" height="37.5" fill="#0F0" /><rect x="75" y="562.5" width="37.5" height="37.5" fill="#0F0" />
<rect x="112.5" y="0" width="37.5" height="37.5" fill="#0F0" /><rect x="112.5" y="37.5" width="37.5" height="37.5" fill="#0F0" />
<rect x="112.5" y="75" width="37.5" height="37.5" fill="#0F0" /><rect x="112.5" y="112.5" width="37.5" height="37.5" fill="#0F0" />
<rect x="112.5" y="150" width="37.5" height="37.5" fill="#F00" /><rect x="112.5" y="187.5" width="37.5" height="37.5" fill="#F00" />
<rect x="112.5" y="225" width="37.5" height="37.5" fill="#F00" /><rect x="112.5" y="262.5" width="37.5" height="37.5" fill="#F00" />
<rect x="112.5" y="300" width="37.5" height="37.5" fill="#0F0" /><rect x="112.5" y="337.5" width="37.5" height="37.5" fill="#0F0" />
<rect x="112.5" y="375" width="37.5" height="37.5" fill="#0F0" /><rect x="112.5" y="412.5" width="37.5" height="37.5" fill="#0F0" />
<rect x="112.5" y="450" width="37.5" height="37.5" fill="#F00" /><rect x="112.5" y="487.5" width="37.5" height="37.5" fill="#F00" />
<rect x="112.5" y="525" width="37.5" height="37.5" fill="#F00" /><rect x="112.5" y="562.5" width="37.5" height="37.5" fill="#F00" />
<rect x="150" y="0" width="37.5" height="37.5" fill="#0F0" /><rect x="150" y="37.5" width="37.5" height="37.5" fill="#0F0" />
<rect x="150" y="75" width="37.5" height="37.5" fill="#F00" /><rect x="150" y="112.5" width="37.5" height="37.5" fill="#F00" />
<rect x="150" y="150" width="37.5" height="37.5" fill="#F00" /><rect x="150" y="187.5" width="37.5" height="37.5" fill="#F00" />
<rect x="150" y="225" width="37.5" height="37.5" fill="#0F0" /><rect x="150" y="262.5" width="37.5" height="37.5" fill="#0F0" />
<rect x="150" y="300" width="37.5" height="37.5" fill="#0F0" /><rect x="150" y="337.5" width="37.5" height="37.5" fill="#0F0" />
<rect x="150" y="375" width="37.5" height="37.5" fill="#F00" /><rect x="150" y="412.5" width="37.5" height="37.5" fill="#F00" />
<rect x="150" y="450" width="37.5" height="37.5" fill="#F00" /><rect x="150" y="487.5" width="37.5" height="37.5" fill="#F00" />
<rect x="150" y="525" width="37.5" height="37.5" fill="#0F0" /><rect x="150" y="562.5" width="37.5" height="37.5" fill="#0F0" />
<rect x="187.5" y="0" width="37.5" height="37.5" fill="#0F0" /><rect x="187.5" y="37.5" width="37.5" height="37.5" fill="#0F0" />
<rect x="187.5" y="75" width="37.5" height="37.5" fill="#F00" /><rect x="187.5" y="112.5" width="37.5" height="37.5" fill="#F00" />
<rect x="187.5" y="150" width="37.5" height="37.5" fill="#F00" /><rect x="187.5" y="187.5" width="37.5" height="37.5" fill="#F00" />
<rect x="187.5" y="225" width="37.5" height="37.5" fill="#0F0" /><rect x="187.5" y="262.5" width="37.5" height="37.5" fill="#0F0" />
<rect x="187.5" y="300" width="37.5" height="37.5" fill="#F00" /><rect x="187.5" y="337.5" width="37.5" height="37.5" fill="#F00" />
<rect x="187.5" y="375" width="37.5" height="37.5" fill="#0F0" /><rect x="187.5" y="412.5" width="37.5" height="37.5" fill="#0F0" />
<rect x="187.5" y="450" width="37.5" height="37.5" fill="#0F0" /><rect x="187.5" y="487.5" width="37.5" height="37.5" fill="#0F0" />
<rect x="187.5" y="525" width="37.5" height="37.5" fill="#F00" /><rect x="187.5" y="562.5" width="37.5" height="37.5" fill="#F00" />
<rect x="225" y="0" width="37.5" height="37.5" fill="#0F0" /><rect x="225" y="37.5" width="37.5" height="37.5" fill="#0F0" />
<rect x="225" y="75" width="37.5" height="37.5" fill="#F00" /><rect x="225" y="112.5" width="37.5" height="37.5" fill="#F00" />
<rect x="225" y="150" width="37.5" height="37.5" fill="#0F0" /><rect x="225" y="187.5" width="37.5" height="37.5" fill="#0F0" />
<rect x="225" y="225" width="37.5" height="37.5" fill="#F00" /><rect x="225" y="262.5" width="37.5" height="37.5" fill="#F00" />
<rect x="225" y="300" width="37.5" height="37.5" fill="#F00" /><rect x="225" y="337.5" width="37.5" height="37.5" fill="#F00" />
<rect x="225" y="375" width="37.5" height="37.5" fill="#0F0" /><rect x="225" y="412.5" width="37.5" height="37.5" fill="#0F0" />
<rect x="225" y="450" width="37.5" height="37.5" fill="#F00" /><rect x="225" y="487.5" width="37.5" height="37.5" fill="#F00" />
<rect x="225" y="525" width="37.5" height="37.5" fill="#0F0" /><rect x="225" y="562.5" width="37.5" height="37.5" fill="#0F0" />
<rect x="262.5" y="0" width="37.5" height="37.5" fill="#0F0" /><rect x="262.5" y="37.5" width="37.5" height="37.5" fill="#0F0" />
<rect x="262.5" y="75" width="37.5" height="37.5" fill="#F00" /><rect x="262.5" y="112.5" width="37.5" height="37.5" fill="#F00" />
<rect x="262.5" y="150" width="37.5" height="37.5" fill="#0F0" /><rect x="262.5" y="187.5" width="37.5" height="37.5" fill="#0F0" />
<rect x="262.5" y="225" width="37.5" height="37.5" fill="#F00" /><rect x="262.5" y="262.5" width="37.5" height="37.5" fill="#F00" />
<rect x="262.5" y="300" width="37.5" height="37.5" fill="#0F0" /><rect x="262.5" y="337.5" width="37.5" height="37.5" fill="#0F0" />
<rect x="262.5" y="375" width="37.5" height="37.5" fill="#F00" /><rect x="262.5" y="412.5" width="37.5" height="37.5" fill="#F00" />
<rect x="262.5" y="450" width="37.5" height="37.5" fill="#0F0" /><rect x="262.5" y="487.5" width="37.5" height="37.5" fill="#0F0" />
<rect x="262.5" y="525" width="37.5" height="37.5" fill="#F00" /><rect x="262.5" y="562.5" width="37.5" height="37.5" fill="#F00" />
<rect x="300" y="0" width="37.5" height="37.5" fill="#0F0" /><rect x="300" y="37.5" width="37.5" height="37.5" fill="#F00" />
<rect x="300" y="75" width="37.5" height="37.5" fill="#F00" /><rect x="300" y="112.5" width="37.5" height="37.5" fill="#0F0" />
<rect x="300" y="150" width="37.5" height="37.5" fill="#0F0" /><rect x="300" y="187.5" width="37.5" height="37.5" fill="#F00" />
<rect x="300" y="225" width="37.5" height="37.5" fill="#F00" /><rect x="300" y="262.5" width="37.5" height="37.5" fill="#0F0" />
<rect x="300" y="300" width="37.5" height="37.5" fill="#0F0" /><rect x="300" y="337.5" width="37.5" height="37.5" fill="#F00" />
<rect x="300" y="375" width="37.5" height="37.5" fill="#F00" /><rect x="300" y="412.5" width="37.5" height="37.5" fill="#0F0" />
<rect x="300" y="450" width="37.5" height="37.5" fill="#0F0" /><rect x="300" y="487.5" width="37.5" height="37.5" fill="#F00" />
<rect x="300" y="525" width="37.5" height="37.5" fill="#F00" /><rect x="300" y="562.5" width="37.5" height="37.5" fill="#0F0" />
<rect x="337.5" y="0" width="37.5" height="37.5" fill="#0F0" /><rect x="337.5" y="37.5" width="37.5" height="37.5" fill="#F00" />
<rect x="337.5" y="75" width="37.5" height="37.5" fill="#F00" /><rect x="337.5" y="112.5" width="37.5" height="37.5" fill="#0F0" />
<rect x="337.5" y="150" width="37.5" height="37.5" fill="#0F0" /><rect x="337.5" y="187.5" width="37.5" height="37.5" fill="#F00" />
<rect x="337.5" y="225" width="37.5" height="37.5" fill="#F00" /><rect x="337.5" y="262.5" width="37.5" height="37.5" fill="#0F0" />
<rect x="337.5" y="300" width="37.5" height="37.5" fill="#F00" /><rect x="337.5" y="337.5" width="37.5" height="37.5" fill="#0F0" />
<rect x="337.5" y="375" width="37.5" height="37.5" fill="#0F0" /><rect x="337.5" y="412.5" width="37.5" height="37.5" fill="#F00" />
<rect x="337.5" y="450" width="37.5" height="37.5" fill="#F00" /><rect x="337.5" y="487.5" width="37.5" height="37.5" fill="#0F0" />
<rect x="337.5" y="525" width="37.5" height="37.5" fill="#0F0" /><rect x="337.5" y="562.5" width="37.5" height="37.5" fill="#F00" />
<rect x="375" y="0" width="37.5" height="37.5" fill="#0F0" /><rect x="375" y="37.5" width="37.5" height="37.5" fill="#F00" />
<rect x="375" y="75" width="37.5" height="37.5" fill="#F00" /><rect x="375" y="112.5" width="37.5" height="37.5" fill="#0F0" />
<rect x="375" y="150" width="37.5" height="37.5" fill="#F00" /><rect x="375" y="187.5" width="37.5" height="37.5" fill="#0F0" />
<rect x="375" y="225" width="37.5" height="37.5" fill="#0F0" /><rect x="375" y="262.5" width="37.5" height="37.5" fill="#F00" />
<rect x="375" y="300" width="37.5" height="37.5" fill="#F00" /><rect x="375" y="337.5" width="37.5" height="37.5" fill="#0F0" />
<rect x="375" y="375" width="37.5" height="37.5" fill="#0F0" /><rect x="375" y="412.5" width="37.5" height="37.5" fill="#F00" />
<rect x="375" y="450" width="37.5" height="37.5" fill="#0F0" /><rect x="375" y="487.5" width="37.5" height="37.5" fill="#F00" />
<rect x="375" y="525" width="37.5" height="37.5" fill="#F00" /><rect x="375" y="562.5" width="37.5" height="37.5" fill="#0F0" />
<rect x="412.5" y="0" width="37.5" height="37.5" fill="#0F0" /><rect x="412.5" y="37.5" width="37.5" height="37.5" fill="#F00" />
<rect x="412.5" y="75" width="37.5" height="37.5" fill="#F00" /><rect x="412.5" y="112.5" width="37.5" height="37.5" fill="#0F0" />
<rect x="412.5" y="150" width="37.5" height="37.5" fill="#F00" /><rect x="412.5" y="187.5" width="37.5" height="37.5" fill="#0F0" />
<rect x="412.5" y="225" width="37.5" height="37.5" fill="#0F0" /><rect x="412.5" y="262.5" width="37.5" height="37.5" fill="#F00" />
<rect x="412.5" y="300" width="37.5" height="37.5" fill="#0F0" /><rect x="412.5" y="337.5" width="37.5" height="37.5" fill="#F00" />
<rect x="412.5" y="375" width="37.5" height="37.5" fill="#F00" /><rect x="412.5" y="412.5" width="37.5" height="37.5" fill="#0F0" />
<rect x="412.5" y="450" width="37.5" height="37.5" fill="#F00" /><rect x="412.5" y="487.5" width="37.5" height="37.5" fill="#0F0" />
<rect x="412.5" y="525" width="37.5" height="37.5" fill="#0F0" /><rect x="412.5" y="562.5" width="37.5" height="37.5" fill="#F00" />
<rect x="450" y="0" width="37.5" height="37.5" fill="#0F0" /><rect x="450" y="37.5" width="37.5" height="37.5" fill="#F00" />
<rect x="450" y="75" width="37.5" height="37.5" fill="#0F0" /><rect x="450" y="112.5" width="37.5" height="37.5" fill="#F00" />
<rect x="450" y="150" width="37.5" height="37.5" fill="#F00" /><rect x="450" y="187.5" width="37.5" height="37.5" fill="#0F0" />
<rect x="450" y="225" width="37.5" height="37.5" fill="#F00" /><rect x="450" y="262.5" width="37.5" height="37.5" fill="#0F0" />
<rect x="450" y="300" width="37.5" height="37.5" fill="#0F0" /><rect x="450" y="337.5" width="37.5" height="37.5" fill="#F00" />
<rect x="450" y="375" width="37.5" height="37.5" fill="#0F0" /><rect x="450" y="412.5" width="37.5" height="37.5" fill="#F00" />
<rect x="450" y="450" width="37.5" height="37.5" fill="#F00" /><rect x="450" y="487.5" width="37.5" height="37.5" fill="#0F0" />
<rect x="450" y="525" width="37.5" height="37.5" fill="#F00" /><rect x="450" y="562.5" width="37.5" height="37.5" fill="#0F0" />
<rect x="487.5" y="0" width="37.5" height="37.5" fill="#0F0" /><rect x="487.5" y="37.5" width="37.5" height="37.5" fill="#F00" />
<rect x="487.5" y="75" width="37.5" height="37.5" fill="#0F0" /><rect x="487.5" y="112.5" width="37.5" height="37.5" fill="#F00" />
<rect x="487.5" y="150" width="37.5" height="37.5" fill="#F00" /><rect x="487.5" y="187.5" width="37.5" height="37.5" fill="#0F0" />
<rect x="487.5" y="225" width="37.5" height="37.5" fill="#F00" /><rect x="487.5" y="262.5" width="37.5" height="37.5" fill="#0F0" />
<rect x="487.5" y="300" width="37.5" height="37.5" fill="#F00" /><rect x="487.5" y="337.5" width="37.5" height="37.5" fill="#0F0" />
<rect x="487.5" y="375" width="37.5" height="37.5" fill="#F00" /><rect x="487.5" y="412.5" width="37.5" height="37.5" fill="#0F0" />
<rect x="487.5" y="450" width="37.5" height="37.5" fill="#0F0" /><rect x="487.5" y="487.5" width="37.5" height="37.5" fill="#F00" />
<rect x="487.5" y="525" width="37.5" height="37.5" fill="#0F0" /><rect x="487.5" y="562.5" width="37.5" height="37.5" fill="#F00" />
<rect x="525" y="0" width="37.5" height="37.5" fill="#0F0" /><rect x="525" y="37.5" width="37.5" height="37.5" fill="#F00" />
<rect x="525" y="75" width="37.5" height="37.5" fill="#0F0" /><rect x="525" y="112.5" width="37.5" height="37.5" fill="#F00" />
<rect x="525" y="150" width="37.5" height="37.5" fill="#0F0" /><rect x="525" y="187.5" width="37.5" height="37.5" fill="#F00" />
<rect x="525" y="225" width="37.5" height="37.5" fill="#0F0" /><rect x="525" y="262.5" width="37.5" height="37.5" fill="#F00" />
<rect x="525" y="300" width="37.5" height="37.5" fill="#F00" /><rect x="525" y="337.5" width="37.5" height="37.5" fill="#0F0" />
<rect x="525" y="375" width="37.5" height="37.5" fill="#F00" /><rect x="525" y="412.5" width="37.5" height="37.5" fill="#0F0" />
<rect x="525" y="450" width="37.5" height="37.5" fill="#F00" /><rect x="525" y="487.5" width="37.5" height="37.5" fill="#0F0" />
<rect x="525" y="525" width="37.5" height="37.5" fill="#F00" /><rect x="525" y="562.5" width="37.5" height="37.5" fill="#0F0" />
<rect x="562.5" y="0" width="37.5" height="37.5" fill="#0F0" /><rect x="562.5" y="37.5" width="37.5" height="37.5" fill="#F00" />
<rect x="562.5" y="75" width="37.5" height="37.5" fill="#0F0" /><rect x="562.5" y="112.5" width="37.5" height="37.5" fill="#F00" />
<rect x="562.5" y="150" width="37.5" height="37.5" fill="#0F0" /><rect x="562.5" y="187.5" width="37.5" height="37.5" fill="#F00" />
<rect x="562.5" y="225" width="37.5" height="37.5" fill="#0F0" /><rect x="562.5" y="262.5" width="37.5" height="37.5" fill="#F00" />
<rect x="562.5" y="300" width="37.5" height="37.5" fill="#0F0" /><rect x="562.5" y="337.5" width="37.5" height="37.5" fill="#F00" />
<rect x="562.5" y="375" width="37.5" height="37.5" fill="#0F0" /><rect x="562.5" y="412.5" width="37.5" height="37.5" fill="#F00" />
<rect x="562.5" y="450" width="37.5" height="37.5" fill="#0F0" /><rect x="562.5" y="487.5" width="37.5" height="37.5" fill="#F00" />
<rect x="562.5" y="525" width="37.5" height="37.5" fill="#0F0" /><rect x="562.5" y="562.5" width="37.5" height="37.5" fill="#F00" />
</svg>
