<svg xmlns="http://www.w3.org/2000/svg" xmlns:svg="http://www.w3.org/2000/svg" xmlns:xlink="http://www.w3.org/1999/xlink" width="600" height="600" stroke="black" stroke-width="1"><rect x="0" y="0" width="150" height="150" fill="#0F0" /><rect x="0" y="150" width="150" height="150" fill="#0F0" />
<rect x="0" y="300" width="150" height="150" fill="#0F0" /><rect x="0" y="450" width="150" height="150" fill="#0F0" />
<rect x="150" y="0" width="150" height="150" fill="#0F0" /><rect x="150" y="150" width="150" height="150" fill="#0F0" />
<rect x="150" y="300" width="150" height="150" fill="#F00" /><rect x="150" y="450" width="150" height="150" fill="#F00" />
<rect x="300" y="0" width="150" height="150" fill="#0F0" /><rect x="300" y="150" width="150" height="150" fill="#F00" />
<rect x="300" y="300" width="150" height="150" fill="#F00" /><rect x="300" y="450" width="150" height="150" fill="#0F0" />
<rect x="450" y="0" width="150" height="150" fill="#0F0" /><rect x="450" y="150" width="150" height="150" fill="#F00" />
<rect x="450" y="300" width="150" height="150" fill="#0F0" /><rect x="450" y="450" width="150" height="150" fill="#F00" />
</svg>
